G04 #@! TF.GenerationSoftware,KiCad,Pcbnew,5.0.1*
G04 #@! TF.CreationDate,2018-10-18T17:34:51-05:00*
G04 #@! TF.ProjectId,PowerRDP,506F7765725244502E6B696361645F70,01*
G04 #@! TF.SameCoordinates,Original*
G04 #@! TF.FileFunction,Paste,Bot*
G04 #@! TF.FilePolarity,Positive*
%FSLAX46Y46*%
G04 Gerber Fmt 4.6, Leading zero omitted, Abs format (unit mm)*
G04 Created by KiCad (PCBNEW 5.0.1) date Thu 18 Oct 2018 05:34:51 PM CDT*
%MOMM*%
%LPD*%
G01*
G04 APERTURE LIST*
%ADD10C,0.150000*%
%ADD11C,0.100000*%
%ADD12C,1.150000*%
%ADD13R,1.520000X3.050000*%
%ADD14R,3.050000X1.520000*%
G04 APERTURE END LIST*
D10*
X120650000Y-47625000D02*
X120650000Y-48260000D01*
X161925000Y-47625000D02*
X120650000Y-47625000D01*
X161925000Y-81280000D02*
X161925000Y-47625000D01*
X120650000Y-81280000D02*
X161925000Y-81280000D01*
X120650000Y-48260000D02*
X120650000Y-81280000D01*
D11*
G04 #@! TO.C,C1*
G36*
X154906505Y-70038204D02*
X154930773Y-70041804D01*
X154954572Y-70047765D01*
X154977671Y-70056030D01*
X154999850Y-70066520D01*
X155020893Y-70079132D01*
X155040599Y-70093747D01*
X155058777Y-70110223D01*
X155075253Y-70128401D01*
X155089868Y-70148107D01*
X155102480Y-70169150D01*
X155112970Y-70191329D01*
X155121235Y-70214428D01*
X155127196Y-70238227D01*
X155130796Y-70262495D01*
X155132000Y-70286999D01*
X155132000Y-70937001D01*
X155130796Y-70961505D01*
X155127196Y-70985773D01*
X155121235Y-71009572D01*
X155112970Y-71032671D01*
X155102480Y-71054850D01*
X155089868Y-71075893D01*
X155075253Y-71095599D01*
X155058777Y-71113777D01*
X155040599Y-71130253D01*
X155020893Y-71144868D01*
X154999850Y-71157480D01*
X154977671Y-71167970D01*
X154954572Y-71176235D01*
X154930773Y-71182196D01*
X154906505Y-71185796D01*
X154882001Y-71187000D01*
X153981999Y-71187000D01*
X153957495Y-71185796D01*
X153933227Y-71182196D01*
X153909428Y-71176235D01*
X153886329Y-71167970D01*
X153864150Y-71157480D01*
X153843107Y-71144868D01*
X153823401Y-71130253D01*
X153805223Y-71113777D01*
X153788747Y-71095599D01*
X153774132Y-71075893D01*
X153761520Y-71054850D01*
X153751030Y-71032671D01*
X153742765Y-71009572D01*
X153736804Y-70985773D01*
X153733204Y-70961505D01*
X153732000Y-70937001D01*
X153732000Y-70286999D01*
X153733204Y-70262495D01*
X153736804Y-70238227D01*
X153742765Y-70214428D01*
X153751030Y-70191329D01*
X153761520Y-70169150D01*
X153774132Y-70148107D01*
X153788747Y-70128401D01*
X153805223Y-70110223D01*
X153823401Y-70093747D01*
X153843107Y-70079132D01*
X153864150Y-70066520D01*
X153886329Y-70056030D01*
X153909428Y-70047765D01*
X153933227Y-70041804D01*
X153957495Y-70038204D01*
X153981999Y-70037000D01*
X154882001Y-70037000D01*
X154906505Y-70038204D01*
X154906505Y-70038204D01*
G37*
D12*
X154432000Y-70612000D03*
D11*
G36*
X154906505Y-67988204D02*
X154930773Y-67991804D01*
X154954572Y-67997765D01*
X154977671Y-68006030D01*
X154999850Y-68016520D01*
X155020893Y-68029132D01*
X155040599Y-68043747D01*
X155058777Y-68060223D01*
X155075253Y-68078401D01*
X155089868Y-68098107D01*
X155102480Y-68119150D01*
X155112970Y-68141329D01*
X155121235Y-68164428D01*
X155127196Y-68188227D01*
X155130796Y-68212495D01*
X155132000Y-68236999D01*
X155132000Y-68887001D01*
X155130796Y-68911505D01*
X155127196Y-68935773D01*
X155121235Y-68959572D01*
X155112970Y-68982671D01*
X155102480Y-69004850D01*
X155089868Y-69025893D01*
X155075253Y-69045599D01*
X155058777Y-69063777D01*
X155040599Y-69080253D01*
X155020893Y-69094868D01*
X154999850Y-69107480D01*
X154977671Y-69117970D01*
X154954572Y-69126235D01*
X154930773Y-69132196D01*
X154906505Y-69135796D01*
X154882001Y-69137000D01*
X153981999Y-69137000D01*
X153957495Y-69135796D01*
X153933227Y-69132196D01*
X153909428Y-69126235D01*
X153886329Y-69117970D01*
X153864150Y-69107480D01*
X153843107Y-69094868D01*
X153823401Y-69080253D01*
X153805223Y-69063777D01*
X153788747Y-69045599D01*
X153774132Y-69025893D01*
X153761520Y-69004850D01*
X153751030Y-68982671D01*
X153742765Y-68959572D01*
X153736804Y-68935773D01*
X153733204Y-68911505D01*
X153732000Y-68887001D01*
X153732000Y-68236999D01*
X153733204Y-68212495D01*
X153736804Y-68188227D01*
X153742765Y-68164428D01*
X153751030Y-68141329D01*
X153761520Y-68119150D01*
X153774132Y-68098107D01*
X153788747Y-68078401D01*
X153805223Y-68060223D01*
X153823401Y-68043747D01*
X153843107Y-68029132D01*
X153864150Y-68016520D01*
X153886329Y-68006030D01*
X153909428Y-67997765D01*
X153933227Y-67991804D01*
X153957495Y-67988204D01*
X153981999Y-67987000D01*
X154882001Y-67987000D01*
X154906505Y-67988204D01*
X154906505Y-67988204D01*
G37*
D12*
X154432000Y-68562000D03*
G04 #@! TD*
D11*
G04 #@! TO.C,C2*
G36*
X160641505Y-69405204D02*
X160665773Y-69408804D01*
X160689572Y-69414765D01*
X160712671Y-69423030D01*
X160734850Y-69433520D01*
X160755893Y-69446132D01*
X160775599Y-69460747D01*
X160793777Y-69477223D01*
X160810253Y-69495401D01*
X160824868Y-69515107D01*
X160837480Y-69536150D01*
X160847970Y-69558329D01*
X160856235Y-69581428D01*
X160862196Y-69605227D01*
X160865796Y-69629495D01*
X160867000Y-69653999D01*
X160867000Y-70554001D01*
X160865796Y-70578505D01*
X160862196Y-70602773D01*
X160856235Y-70626572D01*
X160847970Y-70649671D01*
X160837480Y-70671850D01*
X160824868Y-70692893D01*
X160810253Y-70712599D01*
X160793777Y-70730777D01*
X160775599Y-70747253D01*
X160755893Y-70761868D01*
X160734850Y-70774480D01*
X160712671Y-70784970D01*
X160689572Y-70793235D01*
X160665773Y-70799196D01*
X160641505Y-70802796D01*
X160617001Y-70804000D01*
X159966999Y-70804000D01*
X159942495Y-70802796D01*
X159918227Y-70799196D01*
X159894428Y-70793235D01*
X159871329Y-70784970D01*
X159849150Y-70774480D01*
X159828107Y-70761868D01*
X159808401Y-70747253D01*
X159790223Y-70730777D01*
X159773747Y-70712599D01*
X159759132Y-70692893D01*
X159746520Y-70671850D01*
X159736030Y-70649671D01*
X159727765Y-70626572D01*
X159721804Y-70602773D01*
X159718204Y-70578505D01*
X159717000Y-70554001D01*
X159717000Y-69653999D01*
X159718204Y-69629495D01*
X159721804Y-69605227D01*
X159727765Y-69581428D01*
X159736030Y-69558329D01*
X159746520Y-69536150D01*
X159759132Y-69515107D01*
X159773747Y-69495401D01*
X159790223Y-69477223D01*
X159808401Y-69460747D01*
X159828107Y-69446132D01*
X159849150Y-69433520D01*
X159871329Y-69423030D01*
X159894428Y-69414765D01*
X159918227Y-69408804D01*
X159942495Y-69405204D01*
X159966999Y-69404000D01*
X160617001Y-69404000D01*
X160641505Y-69405204D01*
X160641505Y-69405204D01*
G37*
D12*
X160292000Y-70104000D03*
D11*
G36*
X158591505Y-69405204D02*
X158615773Y-69408804D01*
X158639572Y-69414765D01*
X158662671Y-69423030D01*
X158684850Y-69433520D01*
X158705893Y-69446132D01*
X158725599Y-69460747D01*
X158743777Y-69477223D01*
X158760253Y-69495401D01*
X158774868Y-69515107D01*
X158787480Y-69536150D01*
X158797970Y-69558329D01*
X158806235Y-69581428D01*
X158812196Y-69605227D01*
X158815796Y-69629495D01*
X158817000Y-69653999D01*
X158817000Y-70554001D01*
X158815796Y-70578505D01*
X158812196Y-70602773D01*
X158806235Y-70626572D01*
X158797970Y-70649671D01*
X158787480Y-70671850D01*
X158774868Y-70692893D01*
X158760253Y-70712599D01*
X158743777Y-70730777D01*
X158725599Y-70747253D01*
X158705893Y-70761868D01*
X158684850Y-70774480D01*
X158662671Y-70784970D01*
X158639572Y-70793235D01*
X158615773Y-70799196D01*
X158591505Y-70802796D01*
X158567001Y-70804000D01*
X157916999Y-70804000D01*
X157892495Y-70802796D01*
X157868227Y-70799196D01*
X157844428Y-70793235D01*
X157821329Y-70784970D01*
X157799150Y-70774480D01*
X157778107Y-70761868D01*
X157758401Y-70747253D01*
X157740223Y-70730777D01*
X157723747Y-70712599D01*
X157709132Y-70692893D01*
X157696520Y-70671850D01*
X157686030Y-70649671D01*
X157677765Y-70626572D01*
X157671804Y-70602773D01*
X157668204Y-70578505D01*
X157667000Y-70554001D01*
X157667000Y-69653999D01*
X157668204Y-69629495D01*
X157671804Y-69605227D01*
X157677765Y-69581428D01*
X157686030Y-69558329D01*
X157696520Y-69536150D01*
X157709132Y-69515107D01*
X157723747Y-69495401D01*
X157740223Y-69477223D01*
X157758401Y-69460747D01*
X157778107Y-69446132D01*
X157799150Y-69433520D01*
X157821329Y-69423030D01*
X157844428Y-69414765D01*
X157868227Y-69408804D01*
X157892495Y-69405204D01*
X157916999Y-69404000D01*
X158567001Y-69404000D01*
X158591505Y-69405204D01*
X158591505Y-69405204D01*
G37*
D12*
X158242000Y-70104000D03*
G04 #@! TD*
D11*
G04 #@! TO.C,C6*
G36*
X145147505Y-52641204D02*
X145171773Y-52644804D01*
X145195572Y-52650765D01*
X145218671Y-52659030D01*
X145240850Y-52669520D01*
X145261893Y-52682132D01*
X145281599Y-52696747D01*
X145299777Y-52713223D01*
X145316253Y-52731401D01*
X145330868Y-52751107D01*
X145343480Y-52772150D01*
X145353970Y-52794329D01*
X145362235Y-52817428D01*
X145368196Y-52841227D01*
X145371796Y-52865495D01*
X145373000Y-52889999D01*
X145373000Y-53790001D01*
X145371796Y-53814505D01*
X145368196Y-53838773D01*
X145362235Y-53862572D01*
X145353970Y-53885671D01*
X145343480Y-53907850D01*
X145330868Y-53928893D01*
X145316253Y-53948599D01*
X145299777Y-53966777D01*
X145281599Y-53983253D01*
X145261893Y-53997868D01*
X145240850Y-54010480D01*
X145218671Y-54020970D01*
X145195572Y-54029235D01*
X145171773Y-54035196D01*
X145147505Y-54038796D01*
X145123001Y-54040000D01*
X144472999Y-54040000D01*
X144448495Y-54038796D01*
X144424227Y-54035196D01*
X144400428Y-54029235D01*
X144377329Y-54020970D01*
X144355150Y-54010480D01*
X144334107Y-53997868D01*
X144314401Y-53983253D01*
X144296223Y-53966777D01*
X144279747Y-53948599D01*
X144265132Y-53928893D01*
X144252520Y-53907850D01*
X144242030Y-53885671D01*
X144233765Y-53862572D01*
X144227804Y-53838773D01*
X144224204Y-53814505D01*
X144223000Y-53790001D01*
X144223000Y-52889999D01*
X144224204Y-52865495D01*
X144227804Y-52841227D01*
X144233765Y-52817428D01*
X144242030Y-52794329D01*
X144252520Y-52772150D01*
X144265132Y-52751107D01*
X144279747Y-52731401D01*
X144296223Y-52713223D01*
X144314401Y-52696747D01*
X144334107Y-52682132D01*
X144355150Y-52669520D01*
X144377329Y-52659030D01*
X144400428Y-52650765D01*
X144424227Y-52644804D01*
X144448495Y-52641204D01*
X144472999Y-52640000D01*
X145123001Y-52640000D01*
X145147505Y-52641204D01*
X145147505Y-52641204D01*
G37*
D12*
X144798000Y-53340000D03*
D11*
G36*
X143097505Y-52641204D02*
X143121773Y-52644804D01*
X143145572Y-52650765D01*
X143168671Y-52659030D01*
X143190850Y-52669520D01*
X143211893Y-52682132D01*
X143231599Y-52696747D01*
X143249777Y-52713223D01*
X143266253Y-52731401D01*
X143280868Y-52751107D01*
X143293480Y-52772150D01*
X143303970Y-52794329D01*
X143312235Y-52817428D01*
X143318196Y-52841227D01*
X143321796Y-52865495D01*
X143323000Y-52889999D01*
X143323000Y-53790001D01*
X143321796Y-53814505D01*
X143318196Y-53838773D01*
X143312235Y-53862572D01*
X143303970Y-53885671D01*
X143293480Y-53907850D01*
X143280868Y-53928893D01*
X143266253Y-53948599D01*
X143249777Y-53966777D01*
X143231599Y-53983253D01*
X143211893Y-53997868D01*
X143190850Y-54010480D01*
X143168671Y-54020970D01*
X143145572Y-54029235D01*
X143121773Y-54035196D01*
X143097505Y-54038796D01*
X143073001Y-54040000D01*
X142422999Y-54040000D01*
X142398495Y-54038796D01*
X142374227Y-54035196D01*
X142350428Y-54029235D01*
X142327329Y-54020970D01*
X142305150Y-54010480D01*
X142284107Y-53997868D01*
X142264401Y-53983253D01*
X142246223Y-53966777D01*
X142229747Y-53948599D01*
X142215132Y-53928893D01*
X142202520Y-53907850D01*
X142192030Y-53885671D01*
X142183765Y-53862572D01*
X142177804Y-53838773D01*
X142174204Y-53814505D01*
X142173000Y-53790001D01*
X142173000Y-52889999D01*
X142174204Y-52865495D01*
X142177804Y-52841227D01*
X142183765Y-52817428D01*
X142192030Y-52794329D01*
X142202520Y-52772150D01*
X142215132Y-52751107D01*
X142229747Y-52731401D01*
X142246223Y-52713223D01*
X142264401Y-52696747D01*
X142284107Y-52682132D01*
X142305150Y-52669520D01*
X142327329Y-52659030D01*
X142350428Y-52650765D01*
X142374227Y-52644804D01*
X142398495Y-52641204D01*
X142422999Y-52640000D01*
X143073001Y-52640000D01*
X143097505Y-52641204D01*
X143097505Y-52641204D01*
G37*
D12*
X142748000Y-53340000D03*
G04 #@! TD*
D13*
G04 #@! TO.C,L1*
X151896000Y-69342000D03*
X149606000Y-69342000D03*
G04 #@! TD*
D14*
G04 #@! TO.C,L2*
X157988000Y-74676000D03*
X157988000Y-72386000D03*
G04 #@! TD*
M02*
