M48
;DRILL file {KiCad 5.0.1} date Mon 04 Feb 2019 03:42:08 PM CST
;FORMAT={-:-/ absolute / inch / decimal}
FMAT,2
INCH,TZ
T1C0.0157
T2C0.0394
T3C0.0472
T4C0.0969
%
G90
G05
M72
T1
X4.15Y-2.4
X4.43Y-2.76
X4.54Y-2.6
X4.54Y-2.6
X4.73Y-2.49
X4.94Y-2.76
X5.06Y-2.6
X5.06Y-2.92
X5.07Y-3.05
X5.28Y-2.49
X5.51Y-2.73
X5.58Y-2.6
T2
X4.14Y-3.36
X4.24Y-3.36
X4.34Y-3.36
X4.54Y-3.36
X4.64Y-3.36
X4.74Y-3.36
X4.84Y-3.36
T3
X5.7Y-2.84
X5.8Y-2.84
X3.4Y-2.66
X3.5Y-2.66
X3.64Y-3.38
X3.74Y-3.38
X5.96Y-3.14
X6.06Y-3.14
X3.4Y-3.38
X3.5Y-3.38
X5.02Y-3.42
X5.12Y-3.42
X5.22Y-3.42
X5.32Y-3.42
X5.42Y-3.42
X5.96Y-2.84
X6.06Y-2.84
X3.64Y-2.66
X3.74Y-2.66
X3.88Y-3.02
X3.98Y-3.02
X5.7Y-3.14
X5.8Y-3.14
X3.64Y-3.02
X3.74Y-3.02
X3.4Y-3.02
X3.5Y-3.02
T4
X3.45Y-2.
X3.91Y-3.4
X6.Y-3.4
X6.Y-2.
T0
M30
