M48
;DRILL file {KiCad 5.0.1} date Thu 10 Jan 2019 02:59:29 PM CST
;FORMAT={-:-/ absolute / inch / decimal}
FMAT,2
INCH,TZ
T1C0.0157
T2C0.0394
T3C0.0433
T4C0.0472
T5C0.0969
%
G90
G05
M72
T1
X5.55Y-2.1
X5.8Y-2.625
T2
X5.4Y-2.95
X5.5Y-2.95
X5.7Y-2.95
X5.8Y-2.95
X5.9Y-2.95
T3
X5.5Y-2.35
X5.5Y-2.45
X5.5Y-2.55
X5.5Y-2.65
T4
X4.85Y-2.1
X4.95Y-2.1
X4.85Y-3.
X4.95Y-3.
X5.8Y-2.5
X5.9Y-2.5
X5.1Y-2.1
X5.2Y-2.1
X5.1Y-2.55
X5.2Y-2.55
X5.1Y-3.
X5.2Y-3.
X6.175Y-2.675
X6.175Y-2.775
X6.175Y-2.875
X6.175Y-2.975
X6.175Y-3.075
X6.175Y-2.1
X6.275Y-2.1
X4.85Y-2.55
X4.95Y-2.55
T5
X5.95Y-2.
X5.025Y-2.325
X5.025Y-2.775
T0
M30
