G04 #@! TF.GenerationSoftware,KiCad,Pcbnew,5.1.4*
G04 #@! TF.CreationDate,2019-08-14T00:52:13-04:00*
G04 #@! TF.ProjectId,PowerRDP,506f7765-7252-4445-902e-6b696361645f,3*
G04 #@! TF.SameCoordinates,Original*
G04 #@! TF.FileFunction,Copper,L1,Top*
G04 #@! TF.FilePolarity,Positive*
%FSLAX46Y46*%
G04 Gerber Fmt 4.6, Leading zero omitted, Abs format (unit mm)*
G04 Created by KiCad (PCBNEW 5.1.4) date 2019-08-14 00:52:13*
%MOMM*%
%LPD*%
G04 APERTURE LIST*
%ADD10C,0.100000*%
%ADD11C,1.740000*%
%ADD12O,1.740000X2.200000*%
%ADD13R,1.300000X1.600000*%
%ADD14R,2.000000X1.600000*%
%ADD15C,1.700000*%
%ADD16R,10.800000X9.400000*%
%ADD17R,1.100000X4.600000*%
%ADD18R,1.200000X0.900000*%
%ADD19R,1.600000X3.500000*%
%ADD20R,2.500000X3.500000*%
%ADD21C,4.000000*%
%ADD22C,2.050000*%
%ADD23C,2.250000*%
%ADD24C,0.800000*%
%ADD25C,0.250000*%
%ADD26C,0.254000*%
G04 APERTURE END LIST*
D10*
G36*
X88244505Y-75601204D02*
G01*
X88268773Y-75604804D01*
X88292572Y-75610765D01*
X88315671Y-75619030D01*
X88337850Y-75629520D01*
X88358893Y-75642132D01*
X88378599Y-75656747D01*
X88396777Y-75673223D01*
X88413253Y-75691401D01*
X88427868Y-75711107D01*
X88440480Y-75732150D01*
X88450970Y-75754329D01*
X88459235Y-75777428D01*
X88465196Y-75801227D01*
X88468796Y-75825495D01*
X88470000Y-75849999D01*
X88470000Y-77550001D01*
X88468796Y-77574505D01*
X88465196Y-77598773D01*
X88459235Y-77622572D01*
X88450970Y-77645671D01*
X88440480Y-77667850D01*
X88427868Y-77688893D01*
X88413253Y-77708599D01*
X88396777Y-77726777D01*
X88378599Y-77743253D01*
X88358893Y-77757868D01*
X88337850Y-77770480D01*
X88315671Y-77780970D01*
X88292572Y-77789235D01*
X88268773Y-77795196D01*
X88244505Y-77798796D01*
X88220001Y-77800000D01*
X86979999Y-77800000D01*
X86955495Y-77798796D01*
X86931227Y-77795196D01*
X86907428Y-77789235D01*
X86884329Y-77780970D01*
X86862150Y-77770480D01*
X86841107Y-77757868D01*
X86821401Y-77743253D01*
X86803223Y-77726777D01*
X86786747Y-77708599D01*
X86772132Y-77688893D01*
X86759520Y-77667850D01*
X86749030Y-77645671D01*
X86740765Y-77622572D01*
X86734804Y-77598773D01*
X86731204Y-77574505D01*
X86730000Y-77550001D01*
X86730000Y-75849999D01*
X86731204Y-75825495D01*
X86734804Y-75801227D01*
X86740765Y-75777428D01*
X86749030Y-75754329D01*
X86759520Y-75732150D01*
X86772132Y-75711107D01*
X86786747Y-75691401D01*
X86803223Y-75673223D01*
X86821401Y-75656747D01*
X86841107Y-75642132D01*
X86862150Y-75629520D01*
X86884329Y-75619030D01*
X86907428Y-75610765D01*
X86931227Y-75604804D01*
X86955495Y-75601204D01*
X86979999Y-75600000D01*
X88220001Y-75600000D01*
X88244505Y-75601204D01*
X88244505Y-75601204D01*
G37*
D11*
X87600000Y-76700000D03*
D12*
X90140000Y-76700000D03*
X153924000Y-72136000D03*
D10*
G36*
X152028505Y-71037204D02*
G01*
X152052773Y-71040804D01*
X152076572Y-71046765D01*
X152099671Y-71055030D01*
X152121850Y-71065520D01*
X152142893Y-71078132D01*
X152162599Y-71092747D01*
X152180777Y-71109223D01*
X152197253Y-71127401D01*
X152211868Y-71147107D01*
X152224480Y-71168150D01*
X152234970Y-71190329D01*
X152243235Y-71213428D01*
X152249196Y-71237227D01*
X152252796Y-71261495D01*
X152254000Y-71285999D01*
X152254000Y-72986001D01*
X152252796Y-73010505D01*
X152249196Y-73034773D01*
X152243235Y-73058572D01*
X152234970Y-73081671D01*
X152224480Y-73103850D01*
X152211868Y-73124893D01*
X152197253Y-73144599D01*
X152180777Y-73162777D01*
X152162599Y-73179253D01*
X152142893Y-73193868D01*
X152121850Y-73206480D01*
X152099671Y-73216970D01*
X152076572Y-73225235D01*
X152052773Y-73231196D01*
X152028505Y-73234796D01*
X152004001Y-73236000D01*
X150763999Y-73236000D01*
X150739495Y-73234796D01*
X150715227Y-73231196D01*
X150691428Y-73225235D01*
X150668329Y-73216970D01*
X150646150Y-73206480D01*
X150625107Y-73193868D01*
X150605401Y-73179253D01*
X150587223Y-73162777D01*
X150570747Y-73144599D01*
X150556132Y-73124893D01*
X150543520Y-73103850D01*
X150533030Y-73081671D01*
X150524765Y-73058572D01*
X150518804Y-73034773D01*
X150515204Y-73010505D01*
X150514000Y-72986001D01*
X150514000Y-71285999D01*
X150515204Y-71261495D01*
X150518804Y-71237227D01*
X150524765Y-71213428D01*
X150533030Y-71190329D01*
X150543520Y-71168150D01*
X150556132Y-71147107D01*
X150570747Y-71127401D01*
X150587223Y-71109223D01*
X150605401Y-71092747D01*
X150625107Y-71078132D01*
X150646150Y-71065520D01*
X150668329Y-71055030D01*
X150691428Y-71046765D01*
X150715227Y-71040804D01*
X150739495Y-71037204D01*
X150763999Y-71036000D01*
X152004001Y-71036000D01*
X152028505Y-71037204D01*
X152028505Y-71037204D01*
G37*
D11*
X151384000Y-72136000D03*
D10*
G36*
X152028505Y-78657204D02*
G01*
X152052773Y-78660804D01*
X152076572Y-78666765D01*
X152099671Y-78675030D01*
X152121850Y-78685520D01*
X152142893Y-78698132D01*
X152162599Y-78712747D01*
X152180777Y-78729223D01*
X152197253Y-78747401D01*
X152211868Y-78767107D01*
X152224480Y-78788150D01*
X152234970Y-78810329D01*
X152243235Y-78833428D01*
X152249196Y-78857227D01*
X152252796Y-78881495D01*
X152254000Y-78905999D01*
X152254000Y-80606001D01*
X152252796Y-80630505D01*
X152249196Y-80654773D01*
X152243235Y-80678572D01*
X152234970Y-80701671D01*
X152224480Y-80723850D01*
X152211868Y-80744893D01*
X152197253Y-80764599D01*
X152180777Y-80782777D01*
X152162599Y-80799253D01*
X152142893Y-80813868D01*
X152121850Y-80826480D01*
X152099671Y-80836970D01*
X152076572Y-80845235D01*
X152052773Y-80851196D01*
X152028505Y-80854796D01*
X152004001Y-80856000D01*
X150763999Y-80856000D01*
X150739495Y-80854796D01*
X150715227Y-80851196D01*
X150691428Y-80845235D01*
X150668329Y-80836970D01*
X150646150Y-80826480D01*
X150625107Y-80813868D01*
X150605401Y-80799253D01*
X150587223Y-80782777D01*
X150570747Y-80764599D01*
X150556132Y-80744893D01*
X150543520Y-80723850D01*
X150533030Y-80701671D01*
X150524765Y-80678572D01*
X150518804Y-80654773D01*
X150515204Y-80630505D01*
X150514000Y-80606001D01*
X150514000Y-78905999D01*
X150515204Y-78881495D01*
X150518804Y-78857227D01*
X150524765Y-78833428D01*
X150533030Y-78810329D01*
X150543520Y-78788150D01*
X150556132Y-78767107D01*
X150570747Y-78747401D01*
X150587223Y-78729223D01*
X150605401Y-78712747D01*
X150625107Y-78698132D01*
X150646150Y-78685520D01*
X150668329Y-78675030D01*
X150691428Y-78666765D01*
X150715227Y-78660804D01*
X150739495Y-78657204D01*
X150763999Y-78656000D01*
X152004001Y-78656000D01*
X152028505Y-78657204D01*
X152028505Y-78657204D01*
G37*
D11*
X151384000Y-79756000D03*
D12*
X153924000Y-79756000D03*
D10*
G36*
X145424505Y-71037204D02*
G01*
X145448773Y-71040804D01*
X145472572Y-71046765D01*
X145495671Y-71055030D01*
X145517850Y-71065520D01*
X145538893Y-71078132D01*
X145558599Y-71092747D01*
X145576777Y-71109223D01*
X145593253Y-71127401D01*
X145607868Y-71147107D01*
X145620480Y-71168150D01*
X145630970Y-71190329D01*
X145639235Y-71213428D01*
X145645196Y-71237227D01*
X145648796Y-71261495D01*
X145650000Y-71285999D01*
X145650000Y-72986001D01*
X145648796Y-73010505D01*
X145645196Y-73034773D01*
X145639235Y-73058572D01*
X145630970Y-73081671D01*
X145620480Y-73103850D01*
X145607868Y-73124893D01*
X145593253Y-73144599D01*
X145576777Y-73162777D01*
X145558599Y-73179253D01*
X145538893Y-73193868D01*
X145517850Y-73206480D01*
X145495671Y-73216970D01*
X145472572Y-73225235D01*
X145448773Y-73231196D01*
X145424505Y-73234796D01*
X145400001Y-73236000D01*
X144159999Y-73236000D01*
X144135495Y-73234796D01*
X144111227Y-73231196D01*
X144087428Y-73225235D01*
X144064329Y-73216970D01*
X144042150Y-73206480D01*
X144021107Y-73193868D01*
X144001401Y-73179253D01*
X143983223Y-73162777D01*
X143966747Y-73144599D01*
X143952132Y-73124893D01*
X143939520Y-73103850D01*
X143929030Y-73081671D01*
X143920765Y-73058572D01*
X143914804Y-73034773D01*
X143911204Y-73010505D01*
X143910000Y-72986001D01*
X143910000Y-71285999D01*
X143911204Y-71261495D01*
X143914804Y-71237227D01*
X143920765Y-71213428D01*
X143929030Y-71190329D01*
X143939520Y-71168150D01*
X143952132Y-71147107D01*
X143966747Y-71127401D01*
X143983223Y-71109223D01*
X144001401Y-71092747D01*
X144021107Y-71078132D01*
X144042150Y-71065520D01*
X144064329Y-71055030D01*
X144087428Y-71046765D01*
X144111227Y-71040804D01*
X144135495Y-71037204D01*
X144159999Y-71036000D01*
X145400001Y-71036000D01*
X145424505Y-71037204D01*
X145424505Y-71037204D01*
G37*
D11*
X144780000Y-72136000D03*
D12*
X147320000Y-72136000D03*
D10*
G36*
X128152505Y-85769204D02*
G01*
X128176773Y-85772804D01*
X128200572Y-85778765D01*
X128223671Y-85787030D01*
X128245850Y-85797520D01*
X128266893Y-85810132D01*
X128286599Y-85824747D01*
X128304777Y-85841223D01*
X128321253Y-85859401D01*
X128335868Y-85879107D01*
X128348480Y-85900150D01*
X128358970Y-85922329D01*
X128367235Y-85945428D01*
X128373196Y-85969227D01*
X128376796Y-85993495D01*
X128378000Y-86017999D01*
X128378000Y-87718001D01*
X128376796Y-87742505D01*
X128373196Y-87766773D01*
X128367235Y-87790572D01*
X128358970Y-87813671D01*
X128348480Y-87835850D01*
X128335868Y-87856893D01*
X128321253Y-87876599D01*
X128304777Y-87894777D01*
X128286599Y-87911253D01*
X128266893Y-87925868D01*
X128245850Y-87938480D01*
X128223671Y-87948970D01*
X128200572Y-87957235D01*
X128176773Y-87963196D01*
X128152505Y-87966796D01*
X128128001Y-87968000D01*
X126887999Y-87968000D01*
X126863495Y-87966796D01*
X126839227Y-87963196D01*
X126815428Y-87957235D01*
X126792329Y-87948970D01*
X126770150Y-87938480D01*
X126749107Y-87925868D01*
X126729401Y-87911253D01*
X126711223Y-87894777D01*
X126694747Y-87876599D01*
X126680132Y-87856893D01*
X126667520Y-87835850D01*
X126657030Y-87813671D01*
X126648765Y-87790572D01*
X126642804Y-87766773D01*
X126639204Y-87742505D01*
X126638000Y-87718001D01*
X126638000Y-86017999D01*
X126639204Y-85993495D01*
X126642804Y-85969227D01*
X126648765Y-85945428D01*
X126657030Y-85922329D01*
X126667520Y-85900150D01*
X126680132Y-85879107D01*
X126694747Y-85859401D01*
X126711223Y-85841223D01*
X126729401Y-85824747D01*
X126749107Y-85810132D01*
X126770150Y-85797520D01*
X126792329Y-85787030D01*
X126815428Y-85778765D01*
X126839227Y-85772804D01*
X126863495Y-85769204D01*
X126887999Y-85768000D01*
X128128001Y-85768000D01*
X128152505Y-85769204D01*
X128152505Y-85769204D01*
G37*
D11*
X127508000Y-86868000D03*
D12*
X130048000Y-86868000D03*
X132588000Y-86868000D03*
X135128000Y-86868000D03*
X137668000Y-86868000D03*
D10*
G36*
X145424505Y-78657204D02*
G01*
X145448773Y-78660804D01*
X145472572Y-78666765D01*
X145495671Y-78675030D01*
X145517850Y-78685520D01*
X145538893Y-78698132D01*
X145558599Y-78712747D01*
X145576777Y-78729223D01*
X145593253Y-78747401D01*
X145607868Y-78767107D01*
X145620480Y-78788150D01*
X145630970Y-78810329D01*
X145639235Y-78833428D01*
X145645196Y-78857227D01*
X145648796Y-78881495D01*
X145650000Y-78905999D01*
X145650000Y-80606001D01*
X145648796Y-80630505D01*
X145645196Y-80654773D01*
X145639235Y-80678572D01*
X145630970Y-80701671D01*
X145620480Y-80723850D01*
X145607868Y-80744893D01*
X145593253Y-80764599D01*
X145576777Y-80782777D01*
X145558599Y-80799253D01*
X145538893Y-80813868D01*
X145517850Y-80826480D01*
X145495671Y-80836970D01*
X145472572Y-80845235D01*
X145448773Y-80851196D01*
X145424505Y-80854796D01*
X145400001Y-80856000D01*
X144159999Y-80856000D01*
X144135495Y-80854796D01*
X144111227Y-80851196D01*
X144087428Y-80845235D01*
X144064329Y-80836970D01*
X144042150Y-80826480D01*
X144021107Y-80813868D01*
X144001401Y-80799253D01*
X143983223Y-80782777D01*
X143966747Y-80764599D01*
X143952132Y-80744893D01*
X143939520Y-80723850D01*
X143929030Y-80701671D01*
X143920765Y-80678572D01*
X143914804Y-80654773D01*
X143911204Y-80630505D01*
X143910000Y-80606001D01*
X143910000Y-78905999D01*
X143911204Y-78881495D01*
X143914804Y-78857227D01*
X143920765Y-78833428D01*
X143929030Y-78810329D01*
X143939520Y-78788150D01*
X143952132Y-78767107D01*
X143966747Y-78747401D01*
X143983223Y-78729223D01*
X144001401Y-78712747D01*
X144021107Y-78698132D01*
X144042150Y-78685520D01*
X144064329Y-78675030D01*
X144087428Y-78666765D01*
X144111227Y-78660804D01*
X144135495Y-78657204D01*
X144159999Y-78656000D01*
X145400001Y-78656000D01*
X145424505Y-78657204D01*
X145424505Y-78657204D01*
G37*
D11*
X144780000Y-79756000D03*
D12*
X147320000Y-79756000D03*
X98040000Y-76708000D03*
D10*
G36*
X96144505Y-75609204D02*
G01*
X96168773Y-75612804D01*
X96192572Y-75618765D01*
X96215671Y-75627030D01*
X96237850Y-75637520D01*
X96258893Y-75650132D01*
X96278599Y-75664747D01*
X96296777Y-75681223D01*
X96313253Y-75699401D01*
X96327868Y-75719107D01*
X96340480Y-75740150D01*
X96350970Y-75762329D01*
X96359235Y-75785428D01*
X96365196Y-75809227D01*
X96368796Y-75833495D01*
X96370000Y-75857999D01*
X96370000Y-77558001D01*
X96368796Y-77582505D01*
X96365196Y-77606773D01*
X96359235Y-77630572D01*
X96350970Y-77653671D01*
X96340480Y-77675850D01*
X96327868Y-77696893D01*
X96313253Y-77716599D01*
X96296777Y-77734777D01*
X96278599Y-77751253D01*
X96258893Y-77765868D01*
X96237850Y-77778480D01*
X96215671Y-77788970D01*
X96192572Y-77797235D01*
X96168773Y-77803196D01*
X96144505Y-77806796D01*
X96120001Y-77808000D01*
X94879999Y-77808000D01*
X94855495Y-77806796D01*
X94831227Y-77803196D01*
X94807428Y-77797235D01*
X94784329Y-77788970D01*
X94762150Y-77778480D01*
X94741107Y-77765868D01*
X94721401Y-77751253D01*
X94703223Y-77734777D01*
X94686747Y-77716599D01*
X94672132Y-77696893D01*
X94659520Y-77675850D01*
X94649030Y-77653671D01*
X94640765Y-77630572D01*
X94634804Y-77606773D01*
X94631204Y-77582505D01*
X94630000Y-77558001D01*
X94630000Y-75857999D01*
X94631204Y-75833495D01*
X94634804Y-75809227D01*
X94640765Y-75785428D01*
X94649030Y-75762329D01*
X94659520Y-75740150D01*
X94672132Y-75719107D01*
X94686747Y-75699401D01*
X94703223Y-75681223D01*
X94721401Y-75664747D01*
X94741107Y-75650132D01*
X94762150Y-75637520D01*
X94784329Y-75627030D01*
X94807428Y-75618765D01*
X94831227Y-75612804D01*
X94855495Y-75609204D01*
X94879999Y-75608000D01*
X96120001Y-75608000D01*
X96144505Y-75609204D01*
X96144505Y-75609204D01*
G37*
D11*
X95500000Y-76708000D03*
D13*
X141264000Y-88392000D03*
D14*
X142514000Y-85492000D03*
D13*
X143764000Y-88392000D03*
D15*
X105156000Y-85344000D03*
X107696000Y-85344000D03*
X110236000Y-85344000D03*
X115316000Y-85344000D03*
X117856000Y-85344000D03*
X120396000Y-85344000D03*
X122936000Y-85344000D03*
D16*
X108985000Y-75577000D03*
D17*
X105585000Y-66427000D03*
X107285000Y-66427000D03*
X108985000Y-66427000D03*
X110685000Y-66427000D03*
X112385000Y-66427000D03*
X125320000Y-66542000D03*
X123620000Y-66542000D03*
X121920000Y-66542000D03*
X120220000Y-66542000D03*
X118520000Y-66542000D03*
D16*
X121920000Y-75692000D03*
D17*
X138528000Y-66542000D03*
X136828000Y-66542000D03*
X135128000Y-66542000D03*
X133428000Y-66542000D03*
X131728000Y-66542000D03*
D16*
X135128000Y-75692000D03*
D18*
X110744000Y-62738000D03*
X110744000Y-59438000D03*
X123698000Y-59436000D03*
X123698000Y-62736000D03*
X136906000Y-62738000D03*
X136906000Y-59438000D03*
D19*
X115570000Y-61722000D03*
X115570000Y-56322000D03*
X128524000Y-56322000D03*
X128524000Y-61722000D03*
X141732000Y-56322000D03*
X141732000Y-61722000D03*
D20*
X101600000Y-62484000D03*
X101600000Y-55984000D03*
X121920000Y-48364000D03*
X121920000Y-54864000D03*
X135128000Y-55118000D03*
X135128000Y-48618000D03*
D21*
X152400000Y-86360000D03*
X99314000Y-86360000D03*
X87630000Y-50800000D03*
X152400000Y-50800000D03*
D22*
X94234000Y-49530000D03*
D23*
X96774000Y-52070000D03*
X96774000Y-46990000D03*
X91694000Y-46990000D03*
X91694000Y-52070000D03*
X100076000Y-52070000D03*
X100076000Y-46990000D03*
X105156000Y-46990000D03*
X105156000Y-52070000D03*
D22*
X102616000Y-49530000D03*
X110998000Y-49530000D03*
D23*
X113538000Y-52070000D03*
X113538000Y-46990000D03*
X108458000Y-46990000D03*
X108458000Y-52070000D03*
D24*
X115316000Y-66040000D03*
X115316000Y-66040000D03*
X128524000Y-66040000D03*
X141732000Y-66040000D03*
X105410000Y-60960000D03*
X120142000Y-63246000D03*
X134112000Y-63246000D03*
X128524000Y-74168000D03*
X128778000Y-77470000D03*
X112522000Y-70104000D03*
X125476000Y-70104000D03*
X139954000Y-69342000D03*
D25*
X112772000Y-66040000D02*
X112385000Y-66427000D01*
X115316000Y-66040000D02*
X112772000Y-66040000D01*
X139030000Y-66040000D02*
X138528000Y-66542000D01*
X141732000Y-66040000D02*
X139030000Y-66040000D01*
X115316000Y-61976000D02*
X115570000Y-61722000D01*
X115316000Y-66040000D02*
X115316000Y-61976000D01*
X128524000Y-63722000D02*
X128524000Y-66040000D01*
X128524000Y-61722000D02*
X128524000Y-63722000D01*
X141732000Y-66040000D02*
X141732000Y-61722000D01*
X125822000Y-66040000D02*
X125320000Y-66542000D01*
X128524000Y-66040000D02*
X125822000Y-66040000D01*
X103398000Y-82296000D02*
X98040000Y-76938000D01*
X98040000Y-76938000D02*
X98040000Y-76708000D01*
X106172000Y-82296000D02*
X103398000Y-82296000D01*
X107696000Y-83820000D02*
X106172000Y-82296000D01*
X107696000Y-85344000D02*
X107696000Y-83820000D01*
X107285000Y-64677000D02*
X107285000Y-66427000D01*
X105092000Y-62484000D02*
X107285000Y-64677000D01*
X101600000Y-62484000D02*
X105092000Y-62484000D01*
X105092000Y-62484000D02*
X105092000Y-61278000D01*
X105092000Y-61278000D02*
X105410000Y-60960000D01*
X105410000Y-59182000D02*
X105410000Y-60960000D01*
X153924000Y-67056000D02*
X147320000Y-60452000D01*
X147320000Y-52578000D02*
X146050000Y-51308000D01*
X153924000Y-72136000D02*
X153924000Y-67056000D01*
X147320000Y-60452000D02*
X147320000Y-52578000D01*
X105410000Y-59182000D02*
X106172000Y-59182000D01*
X106172000Y-59182000D02*
X111506000Y-53848000D01*
X111506000Y-53848000D02*
X118110000Y-53848000D01*
X120650000Y-51308000D02*
X146050000Y-51308000D01*
X118110000Y-53848000D02*
X120650000Y-51308000D01*
X101600000Y-62984000D02*
X101600000Y-62484000D01*
X120220000Y-66542000D02*
X120220000Y-68292000D01*
X120142000Y-66464000D02*
X120220000Y-66542000D01*
X120142000Y-63246000D02*
X120142000Y-66464000D01*
X120420000Y-54864000D02*
X121920000Y-54864000D01*
X120142000Y-55142000D02*
X120420000Y-54864000D01*
X120142000Y-63246000D02*
X120142000Y-55142000D01*
X133428000Y-69772000D02*
X133428000Y-66542000D01*
X133096000Y-70104000D02*
X133428000Y-69772000D01*
X147320000Y-70786000D02*
X147320000Y-72136000D01*
X146638000Y-70104000D02*
X147320000Y-70786000D01*
X133096000Y-70104000D02*
X146638000Y-70104000D01*
X147320000Y-72136000D02*
X147320000Y-72366000D01*
X133428000Y-66542000D02*
X133428000Y-63930000D01*
X133428000Y-63930000D02*
X134112000Y-63246000D01*
X134112000Y-56134000D02*
X135128000Y-55118000D01*
X134112000Y-63246000D02*
X134112000Y-56134000D01*
X128524000Y-70104000D02*
X133096000Y-70104000D01*
X128524000Y-70104000D02*
X128524000Y-74168000D01*
X128524000Y-74168000D02*
X128524000Y-77216000D01*
X128524000Y-77216000D02*
X128778000Y-77470000D01*
X144780000Y-79755000D02*
X144780000Y-79756000D01*
X144780000Y-79756000D02*
X144780000Y-78191812D01*
X147320000Y-75651812D02*
X147320000Y-72136000D01*
X144780000Y-78191812D02*
X147320000Y-75651812D01*
X110744000Y-66368000D02*
X110685000Y-66427000D01*
X110744000Y-62738000D02*
X110744000Y-66368000D01*
X112522000Y-70014000D02*
X112522000Y-70104000D01*
X110685000Y-66427000D02*
X110685000Y-68177000D01*
X110685000Y-68177000D02*
X112522000Y-70014000D01*
X125432000Y-70104000D02*
X125476000Y-70104000D01*
X123620000Y-66542000D02*
X123620000Y-68292000D01*
X123620000Y-68292000D02*
X125432000Y-70104000D01*
X123698000Y-66464000D02*
X123620000Y-66542000D01*
X123698000Y-62736000D02*
X123698000Y-66464000D01*
X136906000Y-66464000D02*
X136828000Y-66542000D01*
X136906000Y-62738000D02*
X136906000Y-66464000D01*
X137878000Y-69342000D02*
X139954000Y-69342000D01*
X136828000Y-66542000D02*
X136828000Y-68292000D01*
X136828000Y-68292000D02*
X137878000Y-69342000D01*
X95492000Y-76700000D02*
X95500000Y-76708000D01*
X90140000Y-76700000D02*
X95492000Y-76700000D01*
X140364000Y-88392000D02*
X139348000Y-89408000D01*
X141264000Y-88392000D02*
X140364000Y-88392000D01*
X139348000Y-89408000D02*
X137438000Y-89408000D01*
X135128000Y-87098000D02*
X135128000Y-86868000D01*
X137438000Y-89408000D02*
X135128000Y-87098000D01*
X137668000Y-86638000D02*
X137668000Y-86868000D01*
X138814000Y-85492000D02*
X137668000Y-86638000D01*
X142514000Y-85492000D02*
X138814000Y-85492000D01*
X95683568Y-49530000D02*
X102616000Y-49530000D01*
X94234000Y-49530000D02*
X95683568Y-49530000D01*
D26*
G36*
X90469467Y-45945075D02*
G01*
X90192286Y-46055921D01*
X90038911Y-46366840D01*
X89949140Y-46701705D01*
X89926424Y-47047650D01*
X89971634Y-47391380D01*
X90083034Y-47719685D01*
X90192286Y-47924079D01*
X90469469Y-48034926D01*
X91514395Y-46990000D01*
X91500253Y-46975858D01*
X91679858Y-46796253D01*
X91694000Y-46810395D01*
X91708143Y-46796253D01*
X91887748Y-46975858D01*
X91873605Y-46990000D01*
X92918531Y-48034926D01*
X93195714Y-47924079D01*
X93349089Y-47613160D01*
X93438860Y-47278295D01*
X93461576Y-46932350D01*
X93416366Y-46588620D01*
X93304966Y-46260315D01*
X93195714Y-46055921D01*
X92918533Y-45945075D01*
X92966608Y-45897000D01*
X95501392Y-45897000D01*
X95549467Y-45945075D01*
X95272286Y-46055921D01*
X95118911Y-46366840D01*
X95029140Y-46701705D01*
X95006424Y-47047650D01*
X95051634Y-47391380D01*
X95163034Y-47719685D01*
X95272286Y-47924079D01*
X95549469Y-48034926D01*
X96594395Y-46990000D01*
X96580253Y-46975858D01*
X96759858Y-46796253D01*
X96774000Y-46810395D01*
X96788143Y-46796253D01*
X96967748Y-46975858D01*
X96953605Y-46990000D01*
X97998531Y-48034926D01*
X98275714Y-47924079D01*
X98428970Y-47613401D01*
X98465034Y-47719685D01*
X98574286Y-47924079D01*
X98851469Y-48034926D01*
X99896395Y-46990000D01*
X99882253Y-46975858D01*
X100061858Y-46796253D01*
X100076000Y-46810395D01*
X100090143Y-46796253D01*
X100269748Y-46975858D01*
X100255605Y-46990000D01*
X101300531Y-48034926D01*
X101577714Y-47924079D01*
X101731089Y-47613160D01*
X101820860Y-47278295D01*
X101843576Y-46932350D01*
X101798366Y-46588620D01*
X101686966Y-46260315D01*
X101577714Y-46055921D01*
X101300533Y-45945075D01*
X101348608Y-45897000D01*
X103883392Y-45897000D01*
X103931467Y-45945075D01*
X103654286Y-46055921D01*
X103500911Y-46366840D01*
X103411140Y-46701705D01*
X103388424Y-47047650D01*
X103433634Y-47391380D01*
X103545034Y-47719685D01*
X103654286Y-47924079D01*
X103931469Y-48034926D01*
X104976395Y-46990000D01*
X104962253Y-46975858D01*
X105141858Y-46796253D01*
X105156000Y-46810395D01*
X105170143Y-46796253D01*
X105349748Y-46975858D01*
X105335605Y-46990000D01*
X106380531Y-48034926D01*
X106657714Y-47924079D01*
X106810970Y-47613401D01*
X106847034Y-47719685D01*
X106956286Y-47924079D01*
X107233469Y-48034926D01*
X108278395Y-46990000D01*
X108264253Y-46975858D01*
X108443858Y-46796253D01*
X108458000Y-46810395D01*
X108472143Y-46796253D01*
X108651748Y-46975858D01*
X108637605Y-46990000D01*
X109682531Y-48034926D01*
X109959714Y-47924079D01*
X110113089Y-47613160D01*
X110202860Y-47278295D01*
X110225576Y-46932350D01*
X110180366Y-46588620D01*
X110068966Y-46260315D01*
X109959714Y-46055921D01*
X109682533Y-45945075D01*
X109730608Y-45897000D01*
X112265392Y-45897000D01*
X112313467Y-45945075D01*
X112036286Y-46055921D01*
X111882911Y-46366840D01*
X111793140Y-46701705D01*
X111770424Y-47047650D01*
X111815634Y-47391380D01*
X111927034Y-47719685D01*
X112036286Y-47924079D01*
X112313469Y-48034926D01*
X113358395Y-46990000D01*
X113344253Y-46975858D01*
X113523858Y-46796253D01*
X113538000Y-46810395D01*
X113552143Y-46796253D01*
X113731748Y-46975858D01*
X113717605Y-46990000D01*
X114762531Y-48034926D01*
X115039714Y-47924079D01*
X115193089Y-47613160D01*
X115282860Y-47278295D01*
X115305576Y-46932350D01*
X115263705Y-46614000D01*
X120031928Y-46614000D01*
X120035000Y-48078250D01*
X120193750Y-48237000D01*
X121793000Y-48237000D01*
X121793000Y-46137750D01*
X122047000Y-46137750D01*
X122047000Y-48237000D01*
X123646250Y-48237000D01*
X123805000Y-48078250D01*
X123807539Y-46868000D01*
X133239928Y-46868000D01*
X133243000Y-48332250D01*
X133401750Y-48491000D01*
X135001000Y-48491000D01*
X135001000Y-46391750D01*
X135255000Y-46391750D01*
X135255000Y-48491000D01*
X136854250Y-48491000D01*
X137013000Y-48332250D01*
X137016072Y-46868000D01*
X137003812Y-46743518D01*
X136967502Y-46623820D01*
X136908537Y-46513506D01*
X136829185Y-46416815D01*
X136732494Y-46337463D01*
X136622180Y-46278498D01*
X136502482Y-46242188D01*
X136378000Y-46229928D01*
X135413750Y-46233000D01*
X135255000Y-46391750D01*
X135001000Y-46391750D01*
X134842250Y-46233000D01*
X133878000Y-46229928D01*
X133753518Y-46242188D01*
X133633820Y-46278498D01*
X133523506Y-46337463D01*
X133426815Y-46416815D01*
X133347463Y-46513506D01*
X133288498Y-46623820D01*
X133252188Y-46743518D01*
X133239928Y-46868000D01*
X123807539Y-46868000D01*
X123808072Y-46614000D01*
X123795812Y-46489518D01*
X123759502Y-46369820D01*
X123700537Y-46259506D01*
X123621185Y-46162815D01*
X123524494Y-46083463D01*
X123414180Y-46024498D01*
X123294482Y-45988188D01*
X123170000Y-45975928D01*
X122205750Y-45979000D01*
X122047000Y-46137750D01*
X121793000Y-46137750D01*
X121634250Y-45979000D01*
X120670000Y-45975928D01*
X120545518Y-45988188D01*
X120425820Y-46024498D01*
X120315506Y-46083463D01*
X120218815Y-46162815D01*
X120139463Y-46259506D01*
X120080498Y-46369820D01*
X120044188Y-46489518D01*
X120031928Y-46614000D01*
X115263705Y-46614000D01*
X115260366Y-46588620D01*
X115148966Y-46260315D01*
X115039714Y-46055921D01*
X114762533Y-45945075D01*
X114810608Y-45897000D01*
X155779000Y-45897000D01*
X155779001Y-55846344D01*
X155779000Y-55846354D01*
X155779001Y-91263000D01*
X84505000Y-91263000D01*
X84505000Y-86100475D01*
X96679000Y-86100475D01*
X96679000Y-86619525D01*
X96780261Y-87128601D01*
X96978893Y-87608141D01*
X97267262Y-88039715D01*
X97634285Y-88406738D01*
X98065859Y-88695107D01*
X98545399Y-88893739D01*
X99054475Y-88995000D01*
X99573525Y-88995000D01*
X100082601Y-88893739D01*
X100562141Y-88695107D01*
X100993715Y-88406738D01*
X101360738Y-88039715D01*
X101408656Y-87968000D01*
X125999928Y-87968000D01*
X126012188Y-88092482D01*
X126048498Y-88212180D01*
X126107463Y-88322494D01*
X126186815Y-88419185D01*
X126283506Y-88498537D01*
X126393820Y-88557502D01*
X126513518Y-88593812D01*
X126638000Y-88606072D01*
X127222250Y-88603000D01*
X127381000Y-88444250D01*
X127381000Y-86995000D01*
X126161750Y-86995000D01*
X126003000Y-87153750D01*
X125999928Y-87968000D01*
X101408656Y-87968000D01*
X101649107Y-87608141D01*
X101847739Y-87128601D01*
X101949000Y-86619525D01*
X101949000Y-86372397D01*
X104307208Y-86372397D01*
X104384843Y-86621472D01*
X104648883Y-86747371D01*
X104932411Y-86819339D01*
X105224531Y-86834611D01*
X105514019Y-86792599D01*
X105789747Y-86694919D01*
X105927157Y-86621472D01*
X106004792Y-86372397D01*
X105156000Y-85523605D01*
X104307208Y-86372397D01*
X101949000Y-86372397D01*
X101949000Y-86100475D01*
X101847739Y-85591399D01*
X101773650Y-85412531D01*
X103665389Y-85412531D01*
X103707401Y-85702019D01*
X103805081Y-85977747D01*
X103878528Y-86115157D01*
X104127603Y-86192792D01*
X104976395Y-85344000D01*
X104127603Y-84495208D01*
X103878528Y-84572843D01*
X103752629Y-84836883D01*
X103680661Y-85120411D01*
X103665389Y-85412531D01*
X101773650Y-85412531D01*
X101649107Y-85111859D01*
X101360738Y-84680285D01*
X100996056Y-84315603D01*
X104307208Y-84315603D01*
X105156000Y-85164395D01*
X106004792Y-84315603D01*
X105927157Y-84066528D01*
X105663117Y-83940629D01*
X105379589Y-83868661D01*
X105087469Y-83853389D01*
X104797981Y-83895401D01*
X104522253Y-83993081D01*
X104384843Y-84066528D01*
X104307208Y-84315603D01*
X100996056Y-84315603D01*
X100993715Y-84313262D01*
X100562141Y-84024893D01*
X100082601Y-83826261D01*
X99573525Y-83725000D01*
X99054475Y-83725000D01*
X98545399Y-83826261D01*
X98065859Y-84024893D01*
X97634285Y-84313262D01*
X97267262Y-84680285D01*
X96978893Y-85111859D01*
X96780261Y-85591399D01*
X96679000Y-86100475D01*
X84505000Y-86100475D01*
X84505000Y-77800000D01*
X86091928Y-77800000D01*
X86104188Y-77924482D01*
X86140498Y-78044180D01*
X86199463Y-78154494D01*
X86278815Y-78251185D01*
X86375506Y-78330537D01*
X86485820Y-78389502D01*
X86605518Y-78425812D01*
X86730000Y-78438072D01*
X87314250Y-78435000D01*
X87473000Y-78276250D01*
X87473000Y-76827000D01*
X86253750Y-76827000D01*
X86095000Y-76985750D01*
X86091928Y-77800000D01*
X84505000Y-77800000D01*
X84505000Y-75600000D01*
X86091928Y-75600000D01*
X86095000Y-76414250D01*
X86253750Y-76573000D01*
X87473000Y-76573000D01*
X87473000Y-75123750D01*
X87727000Y-75123750D01*
X87727000Y-76573000D01*
X87747000Y-76573000D01*
X87747000Y-76827000D01*
X87727000Y-76827000D01*
X87727000Y-78276250D01*
X87885750Y-78435000D01*
X88470000Y-78438072D01*
X88594482Y-78425812D01*
X88714180Y-78389502D01*
X88824494Y-78330537D01*
X88921185Y-78251185D01*
X89000537Y-78154494D01*
X89059502Y-78044180D01*
X89072615Y-78000953D01*
X89299822Y-78187417D01*
X89561276Y-78327166D01*
X89844969Y-78413224D01*
X90140000Y-78442282D01*
X90435032Y-78413224D01*
X90718725Y-78327166D01*
X90980179Y-78187417D01*
X91209345Y-77999345D01*
X91397417Y-77770179D01*
X91537166Y-77508724D01*
X91551946Y-77460000D01*
X93991928Y-77460000D01*
X93991928Y-77558001D01*
X94008992Y-77731255D01*
X94059528Y-77897851D01*
X94141595Y-78051387D01*
X94252038Y-78185962D01*
X94386613Y-78296405D01*
X94540149Y-78378472D01*
X94706745Y-78429008D01*
X94879999Y-78446072D01*
X96120001Y-78446072D01*
X96293255Y-78429008D01*
X96459851Y-78378472D01*
X96613387Y-78296405D01*
X96747962Y-78185962D01*
X96858405Y-78051387D01*
X96916934Y-77941886D01*
X96970655Y-78007345D01*
X97199822Y-78195417D01*
X97461276Y-78335166D01*
X97744969Y-78421224D01*
X98040000Y-78450282D01*
X98335032Y-78421224D01*
X98422032Y-78394833D01*
X102834200Y-82807002D01*
X102857999Y-82836001D01*
X102973724Y-82930974D01*
X103105753Y-83001546D01*
X103249014Y-83045003D01*
X103360667Y-83056000D01*
X103360676Y-83056000D01*
X103397999Y-83059676D01*
X103435322Y-83056000D01*
X105857199Y-83056000D01*
X106894649Y-84093451D01*
X106749368Y-84190525D01*
X106542525Y-84397368D01*
X106426689Y-84570729D01*
X106184397Y-84495208D01*
X105335605Y-85344000D01*
X106184397Y-86192792D01*
X106426689Y-86117271D01*
X106542525Y-86290632D01*
X106749368Y-86497475D01*
X106992589Y-86659990D01*
X107262842Y-86771932D01*
X107549740Y-86829000D01*
X107842260Y-86829000D01*
X108129158Y-86771932D01*
X108399411Y-86659990D01*
X108642632Y-86497475D01*
X108849475Y-86290632D01*
X108966000Y-86116240D01*
X109082525Y-86290632D01*
X109289368Y-86497475D01*
X109532589Y-86659990D01*
X109802842Y-86771932D01*
X110089740Y-86829000D01*
X110382260Y-86829000D01*
X110669158Y-86771932D01*
X110939411Y-86659990D01*
X111182632Y-86497475D01*
X111389475Y-86290632D01*
X111551990Y-86047411D01*
X111663932Y-85777158D01*
X111721000Y-85490260D01*
X111721000Y-85197740D01*
X113831000Y-85197740D01*
X113831000Y-85490260D01*
X113888068Y-85777158D01*
X114000010Y-86047411D01*
X114162525Y-86290632D01*
X114369368Y-86497475D01*
X114612589Y-86659990D01*
X114882842Y-86771932D01*
X115169740Y-86829000D01*
X115462260Y-86829000D01*
X115749158Y-86771932D01*
X116019411Y-86659990D01*
X116262632Y-86497475D01*
X116469475Y-86290632D01*
X116586000Y-86116240D01*
X116702525Y-86290632D01*
X116909368Y-86497475D01*
X117152589Y-86659990D01*
X117422842Y-86771932D01*
X117709740Y-86829000D01*
X118002260Y-86829000D01*
X118289158Y-86771932D01*
X118559411Y-86659990D01*
X118802632Y-86497475D01*
X118927710Y-86372397D01*
X119547208Y-86372397D01*
X119624843Y-86621472D01*
X119888883Y-86747371D01*
X120172411Y-86819339D01*
X120464531Y-86834611D01*
X120754019Y-86792599D01*
X121029747Y-86694919D01*
X121167157Y-86621472D01*
X121244792Y-86372397D01*
X120396000Y-85523605D01*
X119547208Y-86372397D01*
X118927710Y-86372397D01*
X119009475Y-86290632D01*
X119125311Y-86117271D01*
X119367603Y-86192792D01*
X120216395Y-85344000D01*
X120575605Y-85344000D01*
X121424397Y-86192792D01*
X121666689Y-86117271D01*
X121782525Y-86290632D01*
X121989368Y-86497475D01*
X122232589Y-86659990D01*
X122502842Y-86771932D01*
X122789740Y-86829000D01*
X123082260Y-86829000D01*
X123369158Y-86771932D01*
X123639411Y-86659990D01*
X123882632Y-86497475D01*
X124089475Y-86290632D01*
X124251990Y-86047411D01*
X124363932Y-85777158D01*
X124365753Y-85768000D01*
X125999928Y-85768000D01*
X126003000Y-86582250D01*
X126161750Y-86741000D01*
X127381000Y-86741000D01*
X127381000Y-85291750D01*
X127635000Y-85291750D01*
X127635000Y-86741000D01*
X127655000Y-86741000D01*
X127655000Y-86995000D01*
X127635000Y-86995000D01*
X127635000Y-88444250D01*
X127793750Y-88603000D01*
X128378000Y-88606072D01*
X128502482Y-88593812D01*
X128622180Y-88557502D01*
X128732494Y-88498537D01*
X128829185Y-88419185D01*
X128908537Y-88322494D01*
X128967502Y-88212180D01*
X128980615Y-88168953D01*
X129207822Y-88355417D01*
X129469276Y-88495166D01*
X129752969Y-88581224D01*
X130048000Y-88610282D01*
X130343032Y-88581224D01*
X130626725Y-88495166D01*
X130888179Y-88355417D01*
X131117345Y-88167345D01*
X131305417Y-87938179D01*
X131318000Y-87914638D01*
X131330583Y-87938179D01*
X131518655Y-88167345D01*
X131747822Y-88355417D01*
X132009276Y-88495166D01*
X132292969Y-88581224D01*
X132588000Y-88610282D01*
X132883032Y-88581224D01*
X133166725Y-88495166D01*
X133428179Y-88355417D01*
X133657345Y-88167345D01*
X133845417Y-87938179D01*
X133858000Y-87914638D01*
X133870583Y-87938179D01*
X134058655Y-88167345D01*
X134287822Y-88355417D01*
X134549276Y-88495166D01*
X134832969Y-88581224D01*
X135128000Y-88610282D01*
X135423032Y-88581224D01*
X135510031Y-88554833D01*
X136874201Y-89919003D01*
X136897999Y-89948001D01*
X137013724Y-90042974D01*
X137145753Y-90113546D01*
X137289014Y-90157003D01*
X137400667Y-90168000D01*
X137400676Y-90168000D01*
X137437999Y-90171676D01*
X137475322Y-90168000D01*
X139310678Y-90168000D01*
X139348000Y-90171676D01*
X139385322Y-90168000D01*
X139385333Y-90168000D01*
X139496986Y-90157003D01*
X139640247Y-90113546D01*
X139772276Y-90042974D01*
X139888001Y-89948001D01*
X139911804Y-89918998D01*
X140176437Y-89654364D01*
X140259506Y-89722537D01*
X140369820Y-89781502D01*
X140489518Y-89817812D01*
X140614000Y-89830072D01*
X141914000Y-89830072D01*
X142038482Y-89817812D01*
X142158180Y-89781502D01*
X142268494Y-89722537D01*
X142365185Y-89643185D01*
X142444537Y-89546494D01*
X142503502Y-89436180D01*
X142514000Y-89401573D01*
X142524498Y-89436180D01*
X142583463Y-89546494D01*
X142662815Y-89643185D01*
X142759506Y-89722537D01*
X142869820Y-89781502D01*
X142989518Y-89817812D01*
X143114000Y-89830072D01*
X143478250Y-89827000D01*
X143637000Y-89668250D01*
X143637000Y-88519000D01*
X143891000Y-88519000D01*
X143891000Y-89668250D01*
X144049750Y-89827000D01*
X144414000Y-89830072D01*
X144538482Y-89817812D01*
X144658180Y-89781502D01*
X144768494Y-89722537D01*
X144865185Y-89643185D01*
X144944537Y-89546494D01*
X145003502Y-89436180D01*
X145039812Y-89316482D01*
X145052072Y-89192000D01*
X145049000Y-88677750D01*
X144890250Y-88519000D01*
X143891000Y-88519000D01*
X143637000Y-88519000D01*
X143617000Y-88519000D01*
X143617000Y-88265000D01*
X143637000Y-88265000D01*
X143637000Y-87115750D01*
X143891000Y-87115750D01*
X143891000Y-88265000D01*
X144890250Y-88265000D01*
X145049000Y-88106250D01*
X145052072Y-87592000D01*
X145039812Y-87467518D01*
X145003502Y-87347820D01*
X144944537Y-87237506D01*
X144865185Y-87140815D01*
X144768494Y-87061463D01*
X144658180Y-87002498D01*
X144538482Y-86966188D01*
X144414000Y-86953928D01*
X144049750Y-86957000D01*
X143891000Y-87115750D01*
X143637000Y-87115750D01*
X143478250Y-86957000D01*
X143114000Y-86953928D01*
X142989518Y-86966188D01*
X142869820Y-87002498D01*
X142759506Y-87061463D01*
X142662815Y-87140815D01*
X142583463Y-87237506D01*
X142524498Y-87347820D01*
X142514000Y-87382427D01*
X142503502Y-87347820D01*
X142444537Y-87237506D01*
X142365185Y-87140815D01*
X142268494Y-87061463D01*
X142158180Y-87002498D01*
X142038482Y-86966188D01*
X141914000Y-86953928D01*
X140614000Y-86953928D01*
X140489518Y-86966188D01*
X140369820Y-87002498D01*
X140259506Y-87061463D01*
X140162815Y-87140815D01*
X140083463Y-87237506D01*
X140024498Y-87347820D01*
X139988188Y-87467518D01*
X139975928Y-87592000D01*
X139975928Y-87737674D01*
X139939723Y-87757026D01*
X139883039Y-87803546D01*
X139823999Y-87851999D01*
X139800201Y-87880997D01*
X139033199Y-88648000D01*
X137752802Y-88648000D01*
X137710862Y-88606060D01*
X137963032Y-88581224D01*
X138246725Y-88495166D01*
X138508179Y-88355417D01*
X138737345Y-88167345D01*
X138925417Y-87938179D01*
X139065166Y-87676724D01*
X139151224Y-87393031D01*
X139173000Y-87171935D01*
X139173000Y-86564064D01*
X139151224Y-86342968D01*
X139124833Y-86255969D01*
X139128802Y-86252000D01*
X140875928Y-86252000D01*
X140875928Y-86292000D01*
X140888188Y-86416482D01*
X140924498Y-86536180D01*
X140983463Y-86646494D01*
X141062815Y-86743185D01*
X141159506Y-86822537D01*
X141269820Y-86881502D01*
X141389518Y-86917812D01*
X141514000Y-86930072D01*
X143514000Y-86930072D01*
X143638482Y-86917812D01*
X143758180Y-86881502D01*
X143868494Y-86822537D01*
X143965185Y-86743185D01*
X144044537Y-86646494D01*
X144103502Y-86536180D01*
X144139812Y-86416482D01*
X144152072Y-86292000D01*
X144152072Y-86100475D01*
X149765000Y-86100475D01*
X149765000Y-86619525D01*
X149866261Y-87128601D01*
X150064893Y-87608141D01*
X150353262Y-88039715D01*
X150720285Y-88406738D01*
X151151859Y-88695107D01*
X151631399Y-88893739D01*
X152140475Y-88995000D01*
X152659525Y-88995000D01*
X153168601Y-88893739D01*
X153648141Y-88695107D01*
X154079715Y-88406738D01*
X154446738Y-88039715D01*
X154735107Y-87608141D01*
X154933739Y-87128601D01*
X155035000Y-86619525D01*
X155035000Y-86100475D01*
X154933739Y-85591399D01*
X154735107Y-85111859D01*
X154446738Y-84680285D01*
X154079715Y-84313262D01*
X153648141Y-84024893D01*
X153168601Y-83826261D01*
X152659525Y-83725000D01*
X152140475Y-83725000D01*
X151631399Y-83826261D01*
X151151859Y-84024893D01*
X150720285Y-84313262D01*
X150353262Y-84680285D01*
X150064893Y-85111859D01*
X149866261Y-85591399D01*
X149765000Y-86100475D01*
X144152072Y-86100475D01*
X144152072Y-84692000D01*
X144139812Y-84567518D01*
X144103502Y-84447820D01*
X144044537Y-84337506D01*
X143965185Y-84240815D01*
X143868494Y-84161463D01*
X143758180Y-84102498D01*
X143638482Y-84066188D01*
X143514000Y-84053928D01*
X141514000Y-84053928D01*
X141389518Y-84066188D01*
X141269820Y-84102498D01*
X141159506Y-84161463D01*
X141062815Y-84240815D01*
X140983463Y-84337506D01*
X140924498Y-84447820D01*
X140888188Y-84567518D01*
X140875928Y-84692000D01*
X140875928Y-84732000D01*
X138851325Y-84732000D01*
X138814000Y-84728324D01*
X138776675Y-84732000D01*
X138776667Y-84732000D01*
X138665014Y-84742997D01*
X138521753Y-84786454D01*
X138389724Y-84857026D01*
X138273999Y-84951999D01*
X138250201Y-84980997D01*
X138050031Y-85181167D01*
X137963031Y-85154776D01*
X137668000Y-85125718D01*
X137372968Y-85154776D01*
X137089275Y-85240834D01*
X136827821Y-85380583D01*
X136598655Y-85568655D01*
X136410583Y-85797822D01*
X136398000Y-85821363D01*
X136385417Y-85797821D01*
X136197345Y-85568655D01*
X135968178Y-85380583D01*
X135706724Y-85240834D01*
X135423031Y-85154776D01*
X135128000Y-85125718D01*
X134832968Y-85154776D01*
X134549275Y-85240834D01*
X134287821Y-85380583D01*
X134058655Y-85568655D01*
X133870583Y-85797822D01*
X133858000Y-85821363D01*
X133845417Y-85797821D01*
X133657345Y-85568655D01*
X133428178Y-85380583D01*
X133166724Y-85240834D01*
X132883031Y-85154776D01*
X132588000Y-85125718D01*
X132292968Y-85154776D01*
X132009275Y-85240834D01*
X131747821Y-85380583D01*
X131518655Y-85568655D01*
X131330583Y-85797822D01*
X131318000Y-85821363D01*
X131305417Y-85797821D01*
X131117345Y-85568655D01*
X130888178Y-85380583D01*
X130626724Y-85240834D01*
X130343031Y-85154776D01*
X130048000Y-85125718D01*
X129752968Y-85154776D01*
X129469275Y-85240834D01*
X129207821Y-85380583D01*
X128980615Y-85567047D01*
X128967502Y-85523820D01*
X128908537Y-85413506D01*
X128829185Y-85316815D01*
X128732494Y-85237463D01*
X128622180Y-85178498D01*
X128502482Y-85142188D01*
X128378000Y-85129928D01*
X127793750Y-85133000D01*
X127635000Y-85291750D01*
X127381000Y-85291750D01*
X127222250Y-85133000D01*
X126638000Y-85129928D01*
X126513518Y-85142188D01*
X126393820Y-85178498D01*
X126283506Y-85237463D01*
X126186815Y-85316815D01*
X126107463Y-85413506D01*
X126048498Y-85523820D01*
X126012188Y-85643518D01*
X125999928Y-85768000D01*
X124365753Y-85768000D01*
X124421000Y-85490260D01*
X124421000Y-85197740D01*
X124363932Y-84910842D01*
X124251990Y-84640589D01*
X124089475Y-84397368D01*
X123882632Y-84190525D01*
X123639411Y-84028010D01*
X123369158Y-83916068D01*
X123082260Y-83859000D01*
X122789740Y-83859000D01*
X122502842Y-83916068D01*
X122232589Y-84028010D01*
X121989368Y-84190525D01*
X121782525Y-84397368D01*
X121666689Y-84570729D01*
X121424397Y-84495208D01*
X120575605Y-85344000D01*
X120216395Y-85344000D01*
X119367603Y-84495208D01*
X119125311Y-84570729D01*
X119009475Y-84397368D01*
X118927710Y-84315603D01*
X119547208Y-84315603D01*
X120396000Y-85164395D01*
X121244792Y-84315603D01*
X121167157Y-84066528D01*
X120903117Y-83940629D01*
X120619589Y-83868661D01*
X120327469Y-83853389D01*
X120037981Y-83895401D01*
X119762253Y-83993081D01*
X119624843Y-84066528D01*
X119547208Y-84315603D01*
X118927710Y-84315603D01*
X118802632Y-84190525D01*
X118559411Y-84028010D01*
X118289158Y-83916068D01*
X118002260Y-83859000D01*
X117709740Y-83859000D01*
X117422842Y-83916068D01*
X117152589Y-84028010D01*
X116909368Y-84190525D01*
X116702525Y-84397368D01*
X116586000Y-84571760D01*
X116469475Y-84397368D01*
X116262632Y-84190525D01*
X116019411Y-84028010D01*
X115749158Y-83916068D01*
X115462260Y-83859000D01*
X115169740Y-83859000D01*
X114882842Y-83916068D01*
X114612589Y-84028010D01*
X114369368Y-84190525D01*
X114162525Y-84397368D01*
X114000010Y-84640589D01*
X113888068Y-84910842D01*
X113831000Y-85197740D01*
X111721000Y-85197740D01*
X111663932Y-84910842D01*
X111551990Y-84640589D01*
X111389475Y-84397368D01*
X111182632Y-84190525D01*
X110939411Y-84028010D01*
X110669158Y-83916068D01*
X110382260Y-83859000D01*
X110089740Y-83859000D01*
X109802842Y-83916068D01*
X109532589Y-84028010D01*
X109289368Y-84190525D01*
X109082525Y-84397368D01*
X108966000Y-84571760D01*
X108849475Y-84397368D01*
X108642632Y-84190525D01*
X108456000Y-84065822D01*
X108456000Y-83857322D01*
X108459676Y-83819999D01*
X108456000Y-83782676D01*
X108456000Y-83782667D01*
X108445003Y-83671014D01*
X108401546Y-83527753D01*
X108330974Y-83395724D01*
X108317811Y-83379685D01*
X108259799Y-83308996D01*
X108259795Y-83308992D01*
X108236001Y-83279999D01*
X108207008Y-83256205D01*
X106735803Y-81785002D01*
X106712001Y-81755999D01*
X106596276Y-81661026D01*
X106464247Y-81590454D01*
X106320986Y-81546997D01*
X106209333Y-81536000D01*
X106209322Y-81536000D01*
X106172000Y-81532324D01*
X106134678Y-81536000D01*
X103712802Y-81536000D01*
X102453802Y-80277000D01*
X102946928Y-80277000D01*
X102959188Y-80401482D01*
X102995498Y-80521180D01*
X103054463Y-80631494D01*
X103133815Y-80728185D01*
X103230506Y-80807537D01*
X103340820Y-80866502D01*
X103460518Y-80902812D01*
X103585000Y-80915072D01*
X108699250Y-80912000D01*
X108858000Y-80753250D01*
X108858000Y-75704000D01*
X109112000Y-75704000D01*
X109112000Y-80753250D01*
X109270750Y-80912000D01*
X114385000Y-80915072D01*
X114509482Y-80902812D01*
X114629180Y-80866502D01*
X114739494Y-80807537D01*
X114836185Y-80728185D01*
X114915537Y-80631494D01*
X114974502Y-80521180D01*
X115010812Y-80401482D01*
X115011745Y-80392000D01*
X115881928Y-80392000D01*
X115894188Y-80516482D01*
X115930498Y-80636180D01*
X115989463Y-80746494D01*
X116068815Y-80843185D01*
X116165506Y-80922537D01*
X116275820Y-80981502D01*
X116395518Y-81017812D01*
X116520000Y-81030072D01*
X121634250Y-81027000D01*
X121793000Y-80868250D01*
X121793000Y-75819000D01*
X116043750Y-75819000D01*
X115885000Y-75977750D01*
X115881928Y-80392000D01*
X115011745Y-80392000D01*
X115023072Y-80277000D01*
X115020000Y-75862750D01*
X114861250Y-75704000D01*
X109112000Y-75704000D01*
X108858000Y-75704000D01*
X103108750Y-75704000D01*
X102950000Y-75862750D01*
X102946928Y-80277000D01*
X102453802Y-80277000D01*
X99496833Y-77320031D01*
X99523224Y-77233031D01*
X99545000Y-77011935D01*
X99545000Y-76404064D01*
X99523224Y-76182968D01*
X99437166Y-75899275D01*
X99297417Y-75637821D01*
X99109345Y-75408655D01*
X98880178Y-75220583D01*
X98618724Y-75080834D01*
X98335031Y-74994776D01*
X98040000Y-74965718D01*
X97744968Y-74994776D01*
X97461275Y-75080834D01*
X97199821Y-75220583D01*
X96970655Y-75408655D01*
X96916935Y-75474114D01*
X96858405Y-75364613D01*
X96747962Y-75230038D01*
X96613387Y-75119595D01*
X96459851Y-75037528D01*
X96293255Y-74986992D01*
X96120001Y-74969928D01*
X94879999Y-74969928D01*
X94706745Y-74986992D01*
X94540149Y-75037528D01*
X94386613Y-75119595D01*
X94252038Y-75230038D01*
X94141595Y-75364613D01*
X94059528Y-75518149D01*
X94008992Y-75684745D01*
X93991928Y-75857999D01*
X93991928Y-75940000D01*
X91551947Y-75940000D01*
X91537166Y-75891275D01*
X91397417Y-75629821D01*
X91209345Y-75400655D01*
X90980178Y-75212583D01*
X90718724Y-75072834D01*
X90435031Y-74986776D01*
X90140000Y-74957718D01*
X89844968Y-74986776D01*
X89561275Y-75072834D01*
X89299821Y-75212583D01*
X89072615Y-75399047D01*
X89059502Y-75355820D01*
X89000537Y-75245506D01*
X88921185Y-75148815D01*
X88824494Y-75069463D01*
X88714180Y-75010498D01*
X88594482Y-74974188D01*
X88470000Y-74961928D01*
X87885750Y-74965000D01*
X87727000Y-75123750D01*
X87473000Y-75123750D01*
X87314250Y-74965000D01*
X86730000Y-74961928D01*
X86605518Y-74974188D01*
X86485820Y-75010498D01*
X86375506Y-75069463D01*
X86278815Y-75148815D01*
X86199463Y-75245506D01*
X86140498Y-75355820D01*
X86104188Y-75475518D01*
X86091928Y-75600000D01*
X84505000Y-75600000D01*
X84505000Y-70877000D01*
X102946928Y-70877000D01*
X102950000Y-75291250D01*
X103108750Y-75450000D01*
X108858000Y-75450000D01*
X108858000Y-70400750D01*
X108699250Y-70242000D01*
X103585000Y-70238928D01*
X103460518Y-70251188D01*
X103340820Y-70287498D01*
X103230506Y-70346463D01*
X103133815Y-70425815D01*
X103054463Y-70522506D01*
X102995498Y-70632820D01*
X102959188Y-70752518D01*
X102946928Y-70877000D01*
X84505000Y-70877000D01*
X84505000Y-68727000D01*
X104396928Y-68727000D01*
X104409188Y-68851482D01*
X104445498Y-68971180D01*
X104504463Y-69081494D01*
X104583815Y-69178185D01*
X104680506Y-69257537D01*
X104790820Y-69316502D01*
X104910518Y-69352812D01*
X105035000Y-69365072D01*
X105299250Y-69362000D01*
X105458000Y-69203250D01*
X105458000Y-66554000D01*
X104558750Y-66554000D01*
X104400000Y-66712750D01*
X104396928Y-68727000D01*
X84505000Y-68727000D01*
X84505000Y-60734000D01*
X99711928Y-60734000D01*
X99711928Y-64234000D01*
X99724188Y-64358482D01*
X99760498Y-64478180D01*
X99819463Y-64588494D01*
X99898815Y-64685185D01*
X99995506Y-64764537D01*
X100105820Y-64823502D01*
X100225518Y-64859812D01*
X100350000Y-64872072D01*
X102850000Y-64872072D01*
X102974482Y-64859812D01*
X103094180Y-64823502D01*
X103204494Y-64764537D01*
X103301185Y-64685185D01*
X103380537Y-64588494D01*
X103439502Y-64478180D01*
X103475812Y-64358482D01*
X103488072Y-64234000D01*
X103488072Y-63244000D01*
X104777199Y-63244000D01*
X105023281Y-63490082D01*
X104910518Y-63501188D01*
X104790820Y-63537498D01*
X104680506Y-63596463D01*
X104583815Y-63675815D01*
X104504463Y-63772506D01*
X104445498Y-63882820D01*
X104409188Y-64002518D01*
X104396928Y-64127000D01*
X104400000Y-66141250D01*
X104558750Y-66300000D01*
X105458000Y-66300000D01*
X105458000Y-66280000D01*
X105712000Y-66280000D01*
X105712000Y-66300000D01*
X105732000Y-66300000D01*
X105732000Y-66554000D01*
X105712000Y-66554000D01*
X105712000Y-69203250D01*
X105870750Y-69362000D01*
X106135000Y-69365072D01*
X106259482Y-69352812D01*
X106379180Y-69316502D01*
X106435000Y-69286665D01*
X106490820Y-69316502D01*
X106610518Y-69352812D01*
X106735000Y-69365072D01*
X107835000Y-69365072D01*
X107959482Y-69352812D01*
X108079180Y-69316502D01*
X108135000Y-69286665D01*
X108190820Y-69316502D01*
X108310518Y-69352812D01*
X108435000Y-69365072D01*
X108699250Y-69362000D01*
X108858000Y-69203250D01*
X108858000Y-66554000D01*
X108838000Y-66554000D01*
X108838000Y-66300000D01*
X108858000Y-66300000D01*
X108858000Y-63650750D01*
X109112000Y-63650750D01*
X109112000Y-66300000D01*
X109132000Y-66300000D01*
X109132000Y-66554000D01*
X109112000Y-66554000D01*
X109112000Y-69203250D01*
X109270750Y-69362000D01*
X109535000Y-69365072D01*
X109659482Y-69352812D01*
X109779180Y-69316502D01*
X109835000Y-69286665D01*
X109890820Y-69316502D01*
X110010518Y-69352812D01*
X110135000Y-69365072D01*
X110798271Y-69365072D01*
X111487000Y-70053802D01*
X111487000Y-70205939D01*
X111493907Y-70240665D01*
X109270750Y-70242000D01*
X109112000Y-70400750D01*
X109112000Y-75450000D01*
X114861250Y-75450000D01*
X115020000Y-75291250D01*
X115022991Y-70992000D01*
X115881928Y-70992000D01*
X115885000Y-75406250D01*
X116043750Y-75565000D01*
X121793000Y-75565000D01*
X121793000Y-70515750D01*
X121634250Y-70357000D01*
X116520000Y-70353928D01*
X116395518Y-70366188D01*
X116275820Y-70402498D01*
X116165506Y-70461463D01*
X116068815Y-70540815D01*
X115989463Y-70637506D01*
X115930498Y-70747820D01*
X115894188Y-70867518D01*
X115881928Y-70992000D01*
X115022991Y-70992000D01*
X115023072Y-70877000D01*
X115010812Y-70752518D01*
X114974502Y-70632820D01*
X114915537Y-70522506D01*
X114836185Y-70425815D01*
X114739494Y-70346463D01*
X114629180Y-70287498D01*
X114509482Y-70251188D01*
X114385000Y-70238928D01*
X113550338Y-70239429D01*
X113557000Y-70205939D01*
X113557000Y-70002061D01*
X113517226Y-69802102D01*
X113439205Y-69613744D01*
X113325937Y-69444226D01*
X113191583Y-69309872D01*
X113289494Y-69257537D01*
X113386185Y-69178185D01*
X113465537Y-69081494D01*
X113524502Y-68971180D01*
X113560812Y-68851482D01*
X113561745Y-68842000D01*
X117331928Y-68842000D01*
X117344188Y-68966482D01*
X117380498Y-69086180D01*
X117439463Y-69196494D01*
X117518815Y-69293185D01*
X117615506Y-69372537D01*
X117725820Y-69431502D01*
X117845518Y-69467812D01*
X117970000Y-69480072D01*
X118234250Y-69477000D01*
X118393000Y-69318250D01*
X118393000Y-66669000D01*
X117493750Y-66669000D01*
X117335000Y-66827750D01*
X117331928Y-68842000D01*
X113561745Y-68842000D01*
X113573072Y-68727000D01*
X113573072Y-66800000D01*
X114612289Y-66800000D01*
X114656226Y-66843937D01*
X114825744Y-66957205D01*
X115014102Y-67035226D01*
X115214061Y-67075000D01*
X115417939Y-67075000D01*
X115617898Y-67035226D01*
X115806256Y-66957205D01*
X115975774Y-66843937D01*
X116119937Y-66699774D01*
X116233205Y-66530256D01*
X116311226Y-66341898D01*
X116351000Y-66141939D01*
X116351000Y-65938061D01*
X116311226Y-65738102D01*
X116233205Y-65549744D01*
X116119937Y-65380226D01*
X116076000Y-65336289D01*
X116076000Y-64242000D01*
X117331928Y-64242000D01*
X117335000Y-66256250D01*
X117493750Y-66415000D01*
X118393000Y-66415000D01*
X118393000Y-63765750D01*
X118234250Y-63607000D01*
X117970000Y-63603928D01*
X117845518Y-63616188D01*
X117725820Y-63652498D01*
X117615506Y-63711463D01*
X117518815Y-63790815D01*
X117439463Y-63887506D01*
X117380498Y-63997820D01*
X117344188Y-64117518D01*
X117331928Y-64242000D01*
X116076000Y-64242000D01*
X116076000Y-64110072D01*
X116370000Y-64110072D01*
X116494482Y-64097812D01*
X116614180Y-64061502D01*
X116724494Y-64002537D01*
X116821185Y-63923185D01*
X116900537Y-63826494D01*
X116959502Y-63716180D01*
X116995812Y-63596482D01*
X117008072Y-63472000D01*
X117008072Y-59972000D01*
X116995812Y-59847518D01*
X116959502Y-59727820D01*
X116900537Y-59617506D01*
X116821185Y-59520815D01*
X116724494Y-59441463D01*
X116614180Y-59382498D01*
X116494482Y-59346188D01*
X116370000Y-59333928D01*
X114770000Y-59333928D01*
X114645518Y-59346188D01*
X114525820Y-59382498D01*
X114415506Y-59441463D01*
X114318815Y-59520815D01*
X114239463Y-59617506D01*
X114180498Y-59727820D01*
X114144188Y-59847518D01*
X114131928Y-59972000D01*
X114131928Y-63472000D01*
X114144188Y-63596482D01*
X114180498Y-63716180D01*
X114239463Y-63826494D01*
X114318815Y-63923185D01*
X114415506Y-64002537D01*
X114525820Y-64061502D01*
X114556000Y-64070657D01*
X114556000Y-65280000D01*
X113573072Y-65280000D01*
X113573072Y-64127000D01*
X113560812Y-64002518D01*
X113524502Y-63882820D01*
X113465537Y-63772506D01*
X113386185Y-63675815D01*
X113289494Y-63596463D01*
X113179180Y-63537498D01*
X113059482Y-63501188D01*
X112935000Y-63488928D01*
X111903169Y-63488928D01*
X111933502Y-63432180D01*
X111969812Y-63312482D01*
X111982072Y-63188000D01*
X111982072Y-62288000D01*
X111969812Y-62163518D01*
X111933502Y-62043820D01*
X111874537Y-61933506D01*
X111795185Y-61836815D01*
X111698494Y-61757463D01*
X111588180Y-61698498D01*
X111468482Y-61662188D01*
X111344000Y-61649928D01*
X110144000Y-61649928D01*
X110019518Y-61662188D01*
X109899820Y-61698498D01*
X109789506Y-61757463D01*
X109692815Y-61836815D01*
X109613463Y-61933506D01*
X109554498Y-62043820D01*
X109518188Y-62163518D01*
X109505928Y-62288000D01*
X109505928Y-63188000D01*
X109518188Y-63312482D01*
X109554498Y-63432180D01*
X109587600Y-63494108D01*
X109535000Y-63488928D01*
X109270750Y-63492000D01*
X109112000Y-63650750D01*
X108858000Y-63650750D01*
X108699250Y-63492000D01*
X108435000Y-63488928D01*
X108310518Y-63501188D01*
X108190820Y-63537498D01*
X108135000Y-63567335D01*
X108079180Y-63537498D01*
X107959482Y-63501188D01*
X107835000Y-63488928D01*
X107171730Y-63488928D01*
X105852000Y-62169199D01*
X105852000Y-61897193D01*
X105900256Y-61877205D01*
X106069774Y-61763937D01*
X106213937Y-61619774D01*
X106327205Y-61450256D01*
X106405226Y-61261898D01*
X106445000Y-61061939D01*
X106445000Y-60858061D01*
X106405226Y-60658102D01*
X106327205Y-60469744D01*
X106213937Y-60300226D01*
X106170000Y-60256289D01*
X106170000Y-59945479D01*
X106172000Y-59945676D01*
X106209322Y-59942000D01*
X106209333Y-59942000D01*
X106320986Y-59931003D01*
X106462750Y-59888000D01*
X109505928Y-59888000D01*
X109518188Y-60012482D01*
X109554498Y-60132180D01*
X109613463Y-60242494D01*
X109692815Y-60339185D01*
X109789506Y-60418537D01*
X109899820Y-60477502D01*
X110019518Y-60513812D01*
X110144000Y-60526072D01*
X110458250Y-60523000D01*
X110617000Y-60364250D01*
X110617000Y-59565000D01*
X110871000Y-59565000D01*
X110871000Y-60364250D01*
X111029750Y-60523000D01*
X111344000Y-60526072D01*
X111468482Y-60513812D01*
X111588180Y-60477502D01*
X111698494Y-60418537D01*
X111795185Y-60339185D01*
X111874537Y-60242494D01*
X111933502Y-60132180D01*
X111969812Y-60012482D01*
X111982072Y-59888000D01*
X111979000Y-59723750D01*
X111820250Y-59565000D01*
X110871000Y-59565000D01*
X110617000Y-59565000D01*
X109667750Y-59565000D01*
X109509000Y-59723750D01*
X109505928Y-59888000D01*
X106462750Y-59888000D01*
X106464247Y-59887546D01*
X106596276Y-59816974D01*
X106712001Y-59722001D01*
X106735804Y-59692997D01*
X107440801Y-58988000D01*
X109505928Y-58988000D01*
X109509000Y-59152250D01*
X109667750Y-59311000D01*
X110617000Y-59311000D01*
X110617000Y-58511750D01*
X110871000Y-58511750D01*
X110871000Y-59311000D01*
X111820250Y-59311000D01*
X111979000Y-59152250D01*
X111982072Y-58988000D01*
X111969812Y-58863518D01*
X111933502Y-58743820D01*
X111874537Y-58633506D01*
X111795185Y-58536815D01*
X111698494Y-58457463D01*
X111588180Y-58398498D01*
X111468482Y-58362188D01*
X111344000Y-58349928D01*
X111029750Y-58353000D01*
X110871000Y-58511750D01*
X110617000Y-58511750D01*
X110458250Y-58353000D01*
X110144000Y-58349928D01*
X110019518Y-58362188D01*
X109899820Y-58398498D01*
X109789506Y-58457463D01*
X109692815Y-58536815D01*
X109613463Y-58633506D01*
X109554498Y-58743820D01*
X109518188Y-58863518D01*
X109505928Y-58988000D01*
X107440801Y-58988000D01*
X108356801Y-58072000D01*
X114131928Y-58072000D01*
X114144188Y-58196482D01*
X114180498Y-58316180D01*
X114239463Y-58426494D01*
X114318815Y-58523185D01*
X114415506Y-58602537D01*
X114525820Y-58661502D01*
X114645518Y-58697812D01*
X114770000Y-58710072D01*
X115284250Y-58707000D01*
X115443000Y-58548250D01*
X115443000Y-56449000D01*
X115697000Y-56449000D01*
X115697000Y-58548250D01*
X115855750Y-58707000D01*
X116370000Y-58710072D01*
X116494482Y-58697812D01*
X116614180Y-58661502D01*
X116724494Y-58602537D01*
X116821185Y-58523185D01*
X116900537Y-58426494D01*
X116959502Y-58316180D01*
X116995812Y-58196482D01*
X117008072Y-58072000D01*
X117005000Y-56607750D01*
X116846250Y-56449000D01*
X115697000Y-56449000D01*
X115443000Y-56449000D01*
X114293750Y-56449000D01*
X114135000Y-56607750D01*
X114131928Y-58072000D01*
X108356801Y-58072000D01*
X111820802Y-54608000D01*
X114132004Y-54608000D01*
X114135000Y-56036250D01*
X114293750Y-56195000D01*
X115443000Y-56195000D01*
X115443000Y-56175000D01*
X115697000Y-56175000D01*
X115697000Y-56195000D01*
X116846250Y-56195000D01*
X117005000Y-56036250D01*
X117007996Y-54608000D01*
X118072678Y-54608000D01*
X118110000Y-54611676D01*
X118147322Y-54608000D01*
X118147333Y-54608000D01*
X118258986Y-54597003D01*
X118402247Y-54553546D01*
X118534276Y-54482974D01*
X118650001Y-54388001D01*
X118673804Y-54358997D01*
X120044582Y-52988221D01*
X120044188Y-52989518D01*
X120031928Y-53114000D01*
X120031928Y-54209674D01*
X119995724Y-54229026D01*
X119879999Y-54323999D01*
X119856196Y-54353003D01*
X119630998Y-54578201D01*
X119602000Y-54601999D01*
X119578202Y-54630997D01*
X119578201Y-54630998D01*
X119507026Y-54717724D01*
X119436454Y-54849754D01*
X119392998Y-54993015D01*
X119378324Y-55142000D01*
X119382001Y-55179332D01*
X119382000Y-62542289D01*
X119338063Y-62586226D01*
X119224795Y-62755744D01*
X119146774Y-62944102D01*
X119107000Y-63144061D01*
X119107000Y-63347939D01*
X119146774Y-63547898D01*
X119174235Y-63614194D01*
X119070000Y-63603928D01*
X118805750Y-63607000D01*
X118647000Y-63765750D01*
X118647000Y-66415000D01*
X118667000Y-66415000D01*
X118667000Y-66669000D01*
X118647000Y-66669000D01*
X118647000Y-69318250D01*
X118805750Y-69477000D01*
X119070000Y-69480072D01*
X119194482Y-69467812D01*
X119314180Y-69431502D01*
X119370000Y-69401665D01*
X119425820Y-69431502D01*
X119545518Y-69467812D01*
X119670000Y-69480072D01*
X120770000Y-69480072D01*
X120894482Y-69467812D01*
X121014180Y-69431502D01*
X121070000Y-69401665D01*
X121125820Y-69431502D01*
X121245518Y-69467812D01*
X121370000Y-69480072D01*
X121634250Y-69477000D01*
X121793000Y-69318250D01*
X121793000Y-66669000D01*
X121773000Y-66669000D01*
X121773000Y-66415000D01*
X121793000Y-66415000D01*
X121793000Y-63765750D01*
X122047000Y-63765750D01*
X122047000Y-66415000D01*
X122067000Y-66415000D01*
X122067000Y-66669000D01*
X122047000Y-66669000D01*
X122047000Y-69318250D01*
X122205750Y-69477000D01*
X122470000Y-69480072D01*
X122594482Y-69467812D01*
X122714180Y-69431502D01*
X122770000Y-69401665D01*
X122825820Y-69431502D01*
X122945518Y-69467812D01*
X123070000Y-69480072D01*
X123733271Y-69480072D01*
X124441000Y-70187802D01*
X124441000Y-70205939D01*
X124470777Y-70355639D01*
X122205750Y-70357000D01*
X122047000Y-70515750D01*
X122047000Y-75565000D01*
X122067000Y-75565000D01*
X122067000Y-75819000D01*
X122047000Y-75819000D01*
X122047000Y-80868250D01*
X122205750Y-81027000D01*
X127320000Y-81030072D01*
X127444482Y-81017812D01*
X127564180Y-80981502D01*
X127674494Y-80922537D01*
X127771185Y-80843185D01*
X127850537Y-80746494D01*
X127909502Y-80636180D01*
X127945812Y-80516482D01*
X127958072Y-80392000D01*
X127956479Y-78103458D01*
X127974063Y-78129774D01*
X128118226Y-78273937D01*
X128287744Y-78387205D01*
X128476102Y-78465226D01*
X128676061Y-78505000D01*
X128879939Y-78505000D01*
X129079898Y-78465226D01*
X129091272Y-78460515D01*
X129089928Y-80392000D01*
X129102188Y-80516482D01*
X129138498Y-80636180D01*
X129197463Y-80746494D01*
X129276815Y-80843185D01*
X129373506Y-80922537D01*
X129483820Y-80981502D01*
X129603518Y-81017812D01*
X129728000Y-81030072D01*
X134842250Y-81027000D01*
X135001000Y-80868250D01*
X135001000Y-75819000D01*
X135255000Y-75819000D01*
X135255000Y-80868250D01*
X135413750Y-81027000D01*
X140528000Y-81030072D01*
X140652482Y-81017812D01*
X140772180Y-80981502D01*
X140882494Y-80922537D01*
X140979185Y-80843185D01*
X141058537Y-80746494D01*
X141117502Y-80636180D01*
X141153812Y-80516482D01*
X141166072Y-80392000D01*
X141163000Y-75977750D01*
X141004250Y-75819000D01*
X135255000Y-75819000D01*
X135001000Y-75819000D01*
X134981000Y-75819000D01*
X134981000Y-75565000D01*
X135001000Y-75565000D01*
X135001000Y-75545000D01*
X135255000Y-75545000D01*
X135255000Y-75565000D01*
X141004250Y-75565000D01*
X141163000Y-75406250D01*
X141164510Y-73236000D01*
X143271928Y-73236000D01*
X143284188Y-73360482D01*
X143320498Y-73480180D01*
X143379463Y-73590494D01*
X143458815Y-73687185D01*
X143555506Y-73766537D01*
X143665820Y-73825502D01*
X143785518Y-73861812D01*
X143910000Y-73874072D01*
X144494250Y-73871000D01*
X144653000Y-73712250D01*
X144653000Y-72263000D01*
X143433750Y-72263000D01*
X143275000Y-72421750D01*
X143271928Y-73236000D01*
X141164510Y-73236000D01*
X141166072Y-70992000D01*
X141153812Y-70867518D01*
X141152745Y-70864000D01*
X143298602Y-70864000D01*
X143284188Y-70911518D01*
X143271928Y-71036000D01*
X143275000Y-71850250D01*
X143433750Y-72009000D01*
X144653000Y-72009000D01*
X144653000Y-71989000D01*
X144907000Y-71989000D01*
X144907000Y-72009000D01*
X144927000Y-72009000D01*
X144927000Y-72263000D01*
X144907000Y-72263000D01*
X144907000Y-73712250D01*
X145065750Y-73871000D01*
X145650000Y-73874072D01*
X145774482Y-73861812D01*
X145894180Y-73825502D01*
X146004494Y-73766537D01*
X146101185Y-73687185D01*
X146180537Y-73590494D01*
X146239502Y-73480180D01*
X146252615Y-73436953D01*
X146479822Y-73623417D01*
X146560001Y-73666273D01*
X146560000Y-75337009D01*
X144268998Y-77628013D01*
X144240000Y-77651811D01*
X144216202Y-77680809D01*
X144216201Y-77680810D01*
X144145026Y-77767536D01*
X144074454Y-77899566D01*
X144056045Y-77960256D01*
X144034810Y-78030258D01*
X143986745Y-78034992D01*
X143820149Y-78085528D01*
X143666613Y-78167595D01*
X143532038Y-78278038D01*
X143421595Y-78412613D01*
X143339528Y-78566149D01*
X143288992Y-78732745D01*
X143271928Y-78905999D01*
X143271928Y-80606001D01*
X143288992Y-80779255D01*
X143339528Y-80945851D01*
X143421595Y-81099387D01*
X143532038Y-81233962D01*
X143666613Y-81344405D01*
X143820149Y-81426472D01*
X143986745Y-81477008D01*
X144159999Y-81494072D01*
X145400001Y-81494072D01*
X145573255Y-81477008D01*
X145739851Y-81426472D01*
X145893387Y-81344405D01*
X146027962Y-81233962D01*
X146138405Y-81099387D01*
X146196934Y-80989886D01*
X146250655Y-81055345D01*
X146479822Y-81243417D01*
X146741276Y-81383166D01*
X147024969Y-81469224D01*
X147320000Y-81498282D01*
X147615032Y-81469224D01*
X147898725Y-81383166D01*
X148160179Y-81243417D01*
X148389345Y-81055345D01*
X148552943Y-80856000D01*
X149875928Y-80856000D01*
X149888188Y-80980482D01*
X149924498Y-81100180D01*
X149983463Y-81210494D01*
X150062815Y-81307185D01*
X150159506Y-81386537D01*
X150269820Y-81445502D01*
X150389518Y-81481812D01*
X150514000Y-81494072D01*
X151098250Y-81491000D01*
X151257000Y-81332250D01*
X151257000Y-79883000D01*
X150037750Y-79883000D01*
X149879000Y-80041750D01*
X149875928Y-80856000D01*
X148552943Y-80856000D01*
X148577417Y-80826179D01*
X148717166Y-80564724D01*
X148803224Y-80281031D01*
X148825000Y-80059935D01*
X148825000Y-79452064D01*
X148803224Y-79230968D01*
X148717166Y-78947275D01*
X148577417Y-78685821D01*
X148552944Y-78656000D01*
X149875928Y-78656000D01*
X149879000Y-79470250D01*
X150037750Y-79629000D01*
X151257000Y-79629000D01*
X151257000Y-78179750D01*
X151511000Y-78179750D01*
X151511000Y-79629000D01*
X151531000Y-79629000D01*
X151531000Y-79883000D01*
X151511000Y-79883000D01*
X151511000Y-81332250D01*
X151669750Y-81491000D01*
X152254000Y-81494072D01*
X152378482Y-81481812D01*
X152498180Y-81445502D01*
X152608494Y-81386537D01*
X152705185Y-81307185D01*
X152784537Y-81210494D01*
X152843502Y-81100180D01*
X152856615Y-81056953D01*
X153083822Y-81243417D01*
X153345276Y-81383166D01*
X153628969Y-81469224D01*
X153924000Y-81498282D01*
X154219032Y-81469224D01*
X154502725Y-81383166D01*
X154764179Y-81243417D01*
X154993345Y-81055345D01*
X155181417Y-80826179D01*
X155321166Y-80564724D01*
X155407224Y-80281031D01*
X155429000Y-80059935D01*
X155429000Y-79452064D01*
X155407224Y-79230968D01*
X155321166Y-78947275D01*
X155181417Y-78685821D01*
X154993345Y-78456655D01*
X154764178Y-78268583D01*
X154502724Y-78128834D01*
X154219031Y-78042776D01*
X153924000Y-78013718D01*
X153628968Y-78042776D01*
X153345275Y-78128834D01*
X153083821Y-78268583D01*
X152856615Y-78455047D01*
X152843502Y-78411820D01*
X152784537Y-78301506D01*
X152705185Y-78204815D01*
X152608494Y-78125463D01*
X152498180Y-78066498D01*
X152378482Y-78030188D01*
X152254000Y-78017928D01*
X151669750Y-78021000D01*
X151511000Y-78179750D01*
X151257000Y-78179750D01*
X151098250Y-78021000D01*
X150514000Y-78017928D01*
X150389518Y-78030188D01*
X150269820Y-78066498D01*
X150159506Y-78125463D01*
X150062815Y-78204815D01*
X149983463Y-78301506D01*
X149924498Y-78411820D01*
X149888188Y-78531518D01*
X149875928Y-78656000D01*
X148552944Y-78656000D01*
X148389345Y-78456655D01*
X148160178Y-78268583D01*
X147898724Y-78128834D01*
X147615031Y-78042776D01*
X147320000Y-78013718D01*
X147024968Y-78042776D01*
X146741275Y-78128834D01*
X146479821Y-78268583D01*
X146250655Y-78456655D01*
X146196935Y-78522114D01*
X146138405Y-78412613D01*
X146027962Y-78278038D01*
X145893387Y-78167595D01*
X145884023Y-78162590D01*
X147831009Y-76215606D01*
X147860001Y-76191813D01*
X147883795Y-76162820D01*
X147883799Y-76162816D01*
X147954973Y-76076089D01*
X147954974Y-76076088D01*
X148025546Y-75944059D01*
X148069003Y-75800798D01*
X148080000Y-75689145D01*
X148080000Y-75689136D01*
X148083676Y-75651813D01*
X148080000Y-75614490D01*
X148080000Y-73666273D01*
X148160179Y-73623417D01*
X148389345Y-73435345D01*
X148552943Y-73236000D01*
X149875928Y-73236000D01*
X149888188Y-73360482D01*
X149924498Y-73480180D01*
X149983463Y-73590494D01*
X150062815Y-73687185D01*
X150159506Y-73766537D01*
X150269820Y-73825502D01*
X150389518Y-73861812D01*
X150514000Y-73874072D01*
X151098250Y-73871000D01*
X151257000Y-73712250D01*
X151257000Y-72263000D01*
X150037750Y-72263000D01*
X149879000Y-72421750D01*
X149875928Y-73236000D01*
X148552943Y-73236000D01*
X148577417Y-73206179D01*
X148717166Y-72944724D01*
X148803224Y-72661031D01*
X148825000Y-72439935D01*
X148825000Y-71832064D01*
X148803224Y-71610968D01*
X148717166Y-71327275D01*
X148577417Y-71065821D01*
X148552944Y-71036000D01*
X149875928Y-71036000D01*
X149879000Y-71850250D01*
X150037750Y-72009000D01*
X151257000Y-72009000D01*
X151257000Y-70559750D01*
X151098250Y-70401000D01*
X150514000Y-70397928D01*
X150389518Y-70410188D01*
X150269820Y-70446498D01*
X150159506Y-70505463D01*
X150062815Y-70584815D01*
X149983463Y-70681506D01*
X149924498Y-70791820D01*
X149888188Y-70911518D01*
X149875928Y-71036000D01*
X148552944Y-71036000D01*
X148389345Y-70836655D01*
X148160178Y-70648583D01*
X148055548Y-70592657D01*
X148025546Y-70493753D01*
X147954974Y-70361724D01*
X147860001Y-70245999D01*
X147831004Y-70222202D01*
X147201803Y-69593002D01*
X147178001Y-69563999D01*
X147062276Y-69469026D01*
X146930247Y-69398454D01*
X146786986Y-69354997D01*
X146675333Y-69344000D01*
X146675322Y-69344000D01*
X146638000Y-69340324D01*
X146600678Y-69344000D01*
X140989000Y-69344000D01*
X140989000Y-69240061D01*
X140949226Y-69040102D01*
X140871205Y-68851744D01*
X140757937Y-68682226D01*
X140613774Y-68538063D01*
X140444256Y-68424795D01*
X140255898Y-68346774D01*
X140055939Y-68307000D01*
X139852061Y-68307000D01*
X139716072Y-68334050D01*
X139716072Y-66800000D01*
X141028289Y-66800000D01*
X141072226Y-66843937D01*
X141241744Y-66957205D01*
X141430102Y-67035226D01*
X141630061Y-67075000D01*
X141833939Y-67075000D01*
X142033898Y-67035226D01*
X142222256Y-66957205D01*
X142391774Y-66843937D01*
X142535937Y-66699774D01*
X142649205Y-66530256D01*
X142727226Y-66341898D01*
X142767000Y-66141939D01*
X142767000Y-65938061D01*
X142727226Y-65738102D01*
X142649205Y-65549744D01*
X142535937Y-65380226D01*
X142492000Y-65336289D01*
X142492000Y-64110072D01*
X142532000Y-64110072D01*
X142656482Y-64097812D01*
X142776180Y-64061502D01*
X142886494Y-64002537D01*
X142983185Y-63923185D01*
X143062537Y-63826494D01*
X143121502Y-63716180D01*
X143157812Y-63596482D01*
X143170072Y-63472000D01*
X143170072Y-59972000D01*
X143157812Y-59847518D01*
X143121502Y-59727820D01*
X143062537Y-59617506D01*
X142983185Y-59520815D01*
X142886494Y-59441463D01*
X142776180Y-59382498D01*
X142656482Y-59346188D01*
X142532000Y-59333928D01*
X140932000Y-59333928D01*
X140807518Y-59346188D01*
X140687820Y-59382498D01*
X140577506Y-59441463D01*
X140480815Y-59520815D01*
X140401463Y-59617506D01*
X140342498Y-59727820D01*
X140306188Y-59847518D01*
X140293928Y-59972000D01*
X140293928Y-63472000D01*
X140306188Y-63596482D01*
X140342498Y-63716180D01*
X140401463Y-63826494D01*
X140480815Y-63923185D01*
X140577506Y-64002537D01*
X140687820Y-64061502D01*
X140807518Y-64097812D01*
X140932000Y-64110072D01*
X140972000Y-64110072D01*
X140972000Y-65280000D01*
X139716072Y-65280000D01*
X139716072Y-64242000D01*
X139703812Y-64117518D01*
X139667502Y-63997820D01*
X139608537Y-63887506D01*
X139529185Y-63790815D01*
X139432494Y-63711463D01*
X139322180Y-63652498D01*
X139202482Y-63616188D01*
X139078000Y-63603928D01*
X137986120Y-63603928D01*
X138036537Y-63542494D01*
X138095502Y-63432180D01*
X138131812Y-63312482D01*
X138144072Y-63188000D01*
X138144072Y-62288000D01*
X138131812Y-62163518D01*
X138095502Y-62043820D01*
X138036537Y-61933506D01*
X137957185Y-61836815D01*
X137860494Y-61757463D01*
X137750180Y-61698498D01*
X137630482Y-61662188D01*
X137506000Y-61649928D01*
X136306000Y-61649928D01*
X136181518Y-61662188D01*
X136061820Y-61698498D01*
X135951506Y-61757463D01*
X135854815Y-61836815D01*
X135775463Y-61933506D01*
X135716498Y-62043820D01*
X135680188Y-62163518D01*
X135667928Y-62288000D01*
X135667928Y-63188000D01*
X135680188Y-63312482D01*
X135716498Y-63432180D01*
X135775463Y-63542494D01*
X135847033Y-63629702D01*
X135802482Y-63616188D01*
X135678000Y-63603928D01*
X135413750Y-63607000D01*
X135255000Y-63765750D01*
X135255000Y-66415000D01*
X135275000Y-66415000D01*
X135275000Y-66669000D01*
X135255000Y-66669000D01*
X135255000Y-66689000D01*
X135001000Y-66689000D01*
X135001000Y-66669000D01*
X134981000Y-66669000D01*
X134981000Y-66415000D01*
X135001000Y-66415000D01*
X135001000Y-63778468D01*
X135029205Y-63736256D01*
X135107226Y-63547898D01*
X135147000Y-63347939D01*
X135147000Y-63144061D01*
X135107226Y-62944102D01*
X135029205Y-62755744D01*
X134915937Y-62586226D01*
X134872000Y-62542289D01*
X134872000Y-59888000D01*
X135667928Y-59888000D01*
X135680188Y-60012482D01*
X135716498Y-60132180D01*
X135775463Y-60242494D01*
X135854815Y-60339185D01*
X135951506Y-60418537D01*
X136061820Y-60477502D01*
X136181518Y-60513812D01*
X136306000Y-60526072D01*
X136620250Y-60523000D01*
X136779000Y-60364250D01*
X136779000Y-59565000D01*
X137033000Y-59565000D01*
X137033000Y-60364250D01*
X137191750Y-60523000D01*
X137506000Y-60526072D01*
X137630482Y-60513812D01*
X137750180Y-60477502D01*
X137860494Y-60418537D01*
X137957185Y-60339185D01*
X138036537Y-60242494D01*
X138095502Y-60132180D01*
X138131812Y-60012482D01*
X138144072Y-59888000D01*
X138141000Y-59723750D01*
X137982250Y-59565000D01*
X137033000Y-59565000D01*
X136779000Y-59565000D01*
X135829750Y-59565000D01*
X135671000Y-59723750D01*
X135667928Y-59888000D01*
X134872000Y-59888000D01*
X134872000Y-58988000D01*
X135667928Y-58988000D01*
X135671000Y-59152250D01*
X135829750Y-59311000D01*
X136779000Y-59311000D01*
X136779000Y-58511750D01*
X137033000Y-58511750D01*
X137033000Y-59311000D01*
X137982250Y-59311000D01*
X138141000Y-59152250D01*
X138144072Y-58988000D01*
X138131812Y-58863518D01*
X138095502Y-58743820D01*
X138036537Y-58633506D01*
X137957185Y-58536815D01*
X137860494Y-58457463D01*
X137750180Y-58398498D01*
X137630482Y-58362188D01*
X137506000Y-58349928D01*
X137191750Y-58353000D01*
X137033000Y-58511750D01*
X136779000Y-58511750D01*
X136620250Y-58353000D01*
X136306000Y-58349928D01*
X136181518Y-58362188D01*
X136061820Y-58398498D01*
X135951506Y-58457463D01*
X135854815Y-58536815D01*
X135775463Y-58633506D01*
X135716498Y-58743820D01*
X135680188Y-58863518D01*
X135667928Y-58988000D01*
X134872000Y-58988000D01*
X134872000Y-58072000D01*
X140293928Y-58072000D01*
X140306188Y-58196482D01*
X140342498Y-58316180D01*
X140401463Y-58426494D01*
X140480815Y-58523185D01*
X140577506Y-58602537D01*
X140687820Y-58661502D01*
X140807518Y-58697812D01*
X140932000Y-58710072D01*
X141446250Y-58707000D01*
X141605000Y-58548250D01*
X141605000Y-56449000D01*
X141859000Y-56449000D01*
X141859000Y-58548250D01*
X142017750Y-58707000D01*
X142532000Y-58710072D01*
X142656482Y-58697812D01*
X142776180Y-58661502D01*
X142886494Y-58602537D01*
X142983185Y-58523185D01*
X143062537Y-58426494D01*
X143121502Y-58316180D01*
X143157812Y-58196482D01*
X143170072Y-58072000D01*
X143167000Y-56607750D01*
X143008250Y-56449000D01*
X141859000Y-56449000D01*
X141605000Y-56449000D01*
X140455750Y-56449000D01*
X140297000Y-56607750D01*
X140293928Y-58072000D01*
X134872000Y-58072000D01*
X134872000Y-57506072D01*
X136378000Y-57506072D01*
X136502482Y-57493812D01*
X136622180Y-57457502D01*
X136732494Y-57398537D01*
X136829185Y-57319185D01*
X136908537Y-57222494D01*
X136967502Y-57112180D01*
X137003812Y-56992482D01*
X137016072Y-56868000D01*
X137016072Y-54572000D01*
X140293928Y-54572000D01*
X140297000Y-56036250D01*
X140455750Y-56195000D01*
X141605000Y-56195000D01*
X141605000Y-54095750D01*
X141859000Y-54095750D01*
X141859000Y-56195000D01*
X143008250Y-56195000D01*
X143167000Y-56036250D01*
X143170072Y-54572000D01*
X143157812Y-54447518D01*
X143121502Y-54327820D01*
X143062537Y-54217506D01*
X142983185Y-54120815D01*
X142886494Y-54041463D01*
X142776180Y-53982498D01*
X142656482Y-53946188D01*
X142532000Y-53933928D01*
X142017750Y-53937000D01*
X141859000Y-54095750D01*
X141605000Y-54095750D01*
X141446250Y-53937000D01*
X140932000Y-53933928D01*
X140807518Y-53946188D01*
X140687820Y-53982498D01*
X140577506Y-54041463D01*
X140480815Y-54120815D01*
X140401463Y-54217506D01*
X140342498Y-54327820D01*
X140306188Y-54447518D01*
X140293928Y-54572000D01*
X137016072Y-54572000D01*
X137016072Y-53368000D01*
X137003812Y-53243518D01*
X136967502Y-53123820D01*
X136908537Y-53013506D01*
X136829185Y-52916815D01*
X136732494Y-52837463D01*
X136622180Y-52778498D01*
X136502482Y-52742188D01*
X136378000Y-52729928D01*
X133878000Y-52729928D01*
X133753518Y-52742188D01*
X133633820Y-52778498D01*
X133523506Y-52837463D01*
X133426815Y-52916815D01*
X133347463Y-53013506D01*
X133288498Y-53123820D01*
X133252188Y-53243518D01*
X133239928Y-53368000D01*
X133239928Y-56868000D01*
X133252188Y-56992482D01*
X133288498Y-57112180D01*
X133347463Y-57222494D01*
X133352001Y-57228023D01*
X133352000Y-62542289D01*
X133308063Y-62586226D01*
X133194795Y-62755744D01*
X133116774Y-62944102D01*
X133077000Y-63144061D01*
X133077000Y-63206199D01*
X132916998Y-63366201D01*
X132888000Y-63389999D01*
X132864202Y-63418997D01*
X132864201Y-63418998D01*
X132793026Y-63505724D01*
X132730201Y-63623261D01*
X132633820Y-63652498D01*
X132578000Y-63682335D01*
X132522180Y-63652498D01*
X132402482Y-63616188D01*
X132278000Y-63603928D01*
X132013750Y-63607000D01*
X131855000Y-63765750D01*
X131855000Y-66415000D01*
X131875000Y-66415000D01*
X131875000Y-66669000D01*
X131855000Y-66669000D01*
X131855000Y-66689000D01*
X131601000Y-66689000D01*
X131601000Y-66669000D01*
X130701750Y-66669000D01*
X130543000Y-66827750D01*
X130539928Y-68842000D01*
X130552188Y-68966482D01*
X130588498Y-69086180D01*
X130647463Y-69196494D01*
X130726815Y-69293185D01*
X130788733Y-69344000D01*
X128561333Y-69344000D01*
X128524000Y-69340323D01*
X128486667Y-69344000D01*
X128375014Y-69354997D01*
X128231753Y-69398454D01*
X128099724Y-69469026D01*
X127983999Y-69563999D01*
X127889026Y-69679724D01*
X127818454Y-69811753D01*
X127774997Y-69955014D01*
X127760323Y-70104000D01*
X127764000Y-70141332D01*
X127764000Y-70534919D01*
X127674494Y-70461463D01*
X127564180Y-70402498D01*
X127444482Y-70366188D01*
X127320000Y-70353928D01*
X126481463Y-70354432D01*
X126511000Y-70205939D01*
X126511000Y-70002061D01*
X126471226Y-69802102D01*
X126393205Y-69613744D01*
X126279937Y-69444226D01*
X126213907Y-69378196D01*
X126224494Y-69372537D01*
X126321185Y-69293185D01*
X126400537Y-69196494D01*
X126459502Y-69086180D01*
X126495812Y-68966482D01*
X126508072Y-68842000D01*
X126508072Y-66800000D01*
X127820289Y-66800000D01*
X127864226Y-66843937D01*
X128033744Y-66957205D01*
X128222102Y-67035226D01*
X128422061Y-67075000D01*
X128625939Y-67075000D01*
X128825898Y-67035226D01*
X129014256Y-66957205D01*
X129183774Y-66843937D01*
X129327937Y-66699774D01*
X129441205Y-66530256D01*
X129519226Y-66341898D01*
X129559000Y-66141939D01*
X129559000Y-65938061D01*
X129519226Y-65738102D01*
X129441205Y-65549744D01*
X129327937Y-65380226D01*
X129284000Y-65336289D01*
X129284000Y-64242000D01*
X130539928Y-64242000D01*
X130543000Y-66256250D01*
X130701750Y-66415000D01*
X131601000Y-66415000D01*
X131601000Y-63765750D01*
X131442250Y-63607000D01*
X131178000Y-63603928D01*
X131053518Y-63616188D01*
X130933820Y-63652498D01*
X130823506Y-63711463D01*
X130726815Y-63790815D01*
X130647463Y-63887506D01*
X130588498Y-63997820D01*
X130552188Y-64117518D01*
X130539928Y-64242000D01*
X129284000Y-64242000D01*
X129284000Y-64110072D01*
X129324000Y-64110072D01*
X129448482Y-64097812D01*
X129568180Y-64061502D01*
X129678494Y-64002537D01*
X129775185Y-63923185D01*
X129854537Y-63826494D01*
X129913502Y-63716180D01*
X129949812Y-63596482D01*
X129962072Y-63472000D01*
X129962072Y-59972000D01*
X129949812Y-59847518D01*
X129913502Y-59727820D01*
X129854537Y-59617506D01*
X129775185Y-59520815D01*
X129678494Y-59441463D01*
X129568180Y-59382498D01*
X129448482Y-59346188D01*
X129324000Y-59333928D01*
X127724000Y-59333928D01*
X127599518Y-59346188D01*
X127479820Y-59382498D01*
X127369506Y-59441463D01*
X127272815Y-59520815D01*
X127193463Y-59617506D01*
X127134498Y-59727820D01*
X127098188Y-59847518D01*
X127085928Y-59972000D01*
X127085928Y-63472000D01*
X127098188Y-63596482D01*
X127134498Y-63716180D01*
X127193463Y-63826494D01*
X127272815Y-63923185D01*
X127369506Y-64002537D01*
X127479820Y-64061502D01*
X127599518Y-64097812D01*
X127724000Y-64110072D01*
X127764000Y-64110072D01*
X127764001Y-65280000D01*
X126508072Y-65280000D01*
X126508072Y-64242000D01*
X126495812Y-64117518D01*
X126459502Y-63997820D01*
X126400537Y-63887506D01*
X126321185Y-63790815D01*
X126224494Y-63711463D01*
X126114180Y-63652498D01*
X125994482Y-63616188D01*
X125870000Y-63603928D01*
X124776478Y-63603928D01*
X124828537Y-63540494D01*
X124887502Y-63430180D01*
X124923812Y-63310482D01*
X124936072Y-63186000D01*
X124936072Y-62286000D01*
X124923812Y-62161518D01*
X124887502Y-62041820D01*
X124828537Y-61931506D01*
X124749185Y-61834815D01*
X124652494Y-61755463D01*
X124542180Y-61696498D01*
X124422482Y-61660188D01*
X124298000Y-61647928D01*
X123098000Y-61647928D01*
X122973518Y-61660188D01*
X122853820Y-61696498D01*
X122743506Y-61755463D01*
X122646815Y-61834815D01*
X122567463Y-61931506D01*
X122508498Y-62041820D01*
X122472188Y-62161518D01*
X122459928Y-62286000D01*
X122459928Y-63186000D01*
X122472188Y-63310482D01*
X122508498Y-63430180D01*
X122567463Y-63540494D01*
X122641218Y-63630365D01*
X122594482Y-63616188D01*
X122470000Y-63603928D01*
X122205750Y-63607000D01*
X122047000Y-63765750D01*
X121793000Y-63765750D01*
X121634250Y-63607000D01*
X121370000Y-63603928D01*
X121245518Y-63616188D01*
X121125820Y-63652498D01*
X121084822Y-63674412D01*
X121137226Y-63547898D01*
X121177000Y-63347939D01*
X121177000Y-63144061D01*
X121137226Y-62944102D01*
X121059205Y-62755744D01*
X120945937Y-62586226D01*
X120902000Y-62542289D01*
X120902000Y-59886000D01*
X122459928Y-59886000D01*
X122472188Y-60010482D01*
X122508498Y-60130180D01*
X122567463Y-60240494D01*
X122646815Y-60337185D01*
X122743506Y-60416537D01*
X122853820Y-60475502D01*
X122973518Y-60511812D01*
X123098000Y-60524072D01*
X123412250Y-60521000D01*
X123571000Y-60362250D01*
X123571000Y-59563000D01*
X123825000Y-59563000D01*
X123825000Y-60362250D01*
X123983750Y-60521000D01*
X124298000Y-60524072D01*
X124422482Y-60511812D01*
X124542180Y-60475502D01*
X124652494Y-60416537D01*
X124749185Y-60337185D01*
X124828537Y-60240494D01*
X124887502Y-60130180D01*
X124923812Y-60010482D01*
X124936072Y-59886000D01*
X124933000Y-59721750D01*
X124774250Y-59563000D01*
X123825000Y-59563000D01*
X123571000Y-59563000D01*
X122621750Y-59563000D01*
X122463000Y-59721750D01*
X122459928Y-59886000D01*
X120902000Y-59886000D01*
X120902000Y-58986000D01*
X122459928Y-58986000D01*
X122463000Y-59150250D01*
X122621750Y-59309000D01*
X123571000Y-59309000D01*
X123571000Y-58509750D01*
X123825000Y-58509750D01*
X123825000Y-59309000D01*
X124774250Y-59309000D01*
X124933000Y-59150250D01*
X124936072Y-58986000D01*
X124923812Y-58861518D01*
X124887502Y-58741820D01*
X124828537Y-58631506D01*
X124749185Y-58534815D01*
X124652494Y-58455463D01*
X124542180Y-58396498D01*
X124422482Y-58360188D01*
X124298000Y-58347928D01*
X123983750Y-58351000D01*
X123825000Y-58509750D01*
X123571000Y-58509750D01*
X123412250Y-58351000D01*
X123098000Y-58347928D01*
X122973518Y-58360188D01*
X122853820Y-58396498D01*
X122743506Y-58455463D01*
X122646815Y-58534815D01*
X122567463Y-58631506D01*
X122508498Y-58741820D01*
X122472188Y-58861518D01*
X122459928Y-58986000D01*
X120902000Y-58986000D01*
X120902000Y-58072000D01*
X127085928Y-58072000D01*
X127098188Y-58196482D01*
X127134498Y-58316180D01*
X127193463Y-58426494D01*
X127272815Y-58523185D01*
X127369506Y-58602537D01*
X127479820Y-58661502D01*
X127599518Y-58697812D01*
X127724000Y-58710072D01*
X128238250Y-58707000D01*
X128397000Y-58548250D01*
X128397000Y-56449000D01*
X128651000Y-56449000D01*
X128651000Y-58548250D01*
X128809750Y-58707000D01*
X129324000Y-58710072D01*
X129448482Y-58697812D01*
X129568180Y-58661502D01*
X129678494Y-58602537D01*
X129775185Y-58523185D01*
X129854537Y-58426494D01*
X129913502Y-58316180D01*
X129949812Y-58196482D01*
X129962072Y-58072000D01*
X129959000Y-56607750D01*
X129800250Y-56449000D01*
X128651000Y-56449000D01*
X128397000Y-56449000D01*
X127247750Y-56449000D01*
X127089000Y-56607750D01*
X127085928Y-58072000D01*
X120902000Y-58072000D01*
X120902000Y-57252072D01*
X123170000Y-57252072D01*
X123294482Y-57239812D01*
X123414180Y-57203502D01*
X123524494Y-57144537D01*
X123621185Y-57065185D01*
X123700537Y-56968494D01*
X123759502Y-56858180D01*
X123795812Y-56738482D01*
X123808072Y-56614000D01*
X123808072Y-54572000D01*
X127085928Y-54572000D01*
X127089000Y-56036250D01*
X127247750Y-56195000D01*
X128397000Y-56195000D01*
X128397000Y-54095750D01*
X128651000Y-54095750D01*
X128651000Y-56195000D01*
X129800250Y-56195000D01*
X129959000Y-56036250D01*
X129962072Y-54572000D01*
X129949812Y-54447518D01*
X129913502Y-54327820D01*
X129854537Y-54217506D01*
X129775185Y-54120815D01*
X129678494Y-54041463D01*
X129568180Y-53982498D01*
X129448482Y-53946188D01*
X129324000Y-53933928D01*
X128809750Y-53937000D01*
X128651000Y-54095750D01*
X128397000Y-54095750D01*
X128238250Y-53937000D01*
X127724000Y-53933928D01*
X127599518Y-53946188D01*
X127479820Y-53982498D01*
X127369506Y-54041463D01*
X127272815Y-54120815D01*
X127193463Y-54217506D01*
X127134498Y-54327820D01*
X127098188Y-54447518D01*
X127085928Y-54572000D01*
X123808072Y-54572000D01*
X123808072Y-53114000D01*
X123795812Y-52989518D01*
X123759502Y-52869820D01*
X123700537Y-52759506D01*
X123621185Y-52662815D01*
X123524494Y-52583463D01*
X123414180Y-52524498D01*
X123294482Y-52488188D01*
X123170000Y-52475928D01*
X120670000Y-52475928D01*
X120545518Y-52488188D01*
X120544221Y-52488581D01*
X120964803Y-52068000D01*
X145735199Y-52068000D01*
X146560001Y-52892803D01*
X146560000Y-60414678D01*
X146556324Y-60452000D01*
X146560000Y-60489322D01*
X146560000Y-60489332D01*
X146570997Y-60600985D01*
X146591251Y-60667754D01*
X146614454Y-60744246D01*
X146685026Y-60876276D01*
X146724871Y-60924826D01*
X146779999Y-60992001D01*
X146809003Y-61015804D01*
X153164001Y-67370803D01*
X153164000Y-70605727D01*
X153083821Y-70648583D01*
X152856615Y-70835047D01*
X152843502Y-70791820D01*
X152784537Y-70681506D01*
X152705185Y-70584815D01*
X152608494Y-70505463D01*
X152498180Y-70446498D01*
X152378482Y-70410188D01*
X152254000Y-70397928D01*
X151669750Y-70401000D01*
X151511000Y-70559750D01*
X151511000Y-72009000D01*
X151531000Y-72009000D01*
X151531000Y-72263000D01*
X151511000Y-72263000D01*
X151511000Y-73712250D01*
X151669750Y-73871000D01*
X152254000Y-73874072D01*
X152378482Y-73861812D01*
X152498180Y-73825502D01*
X152608494Y-73766537D01*
X152705185Y-73687185D01*
X152784537Y-73590494D01*
X152843502Y-73480180D01*
X152856615Y-73436953D01*
X153083822Y-73623417D01*
X153345276Y-73763166D01*
X153628969Y-73849224D01*
X153924000Y-73878282D01*
X154219032Y-73849224D01*
X154502725Y-73763166D01*
X154764179Y-73623417D01*
X154993345Y-73435345D01*
X155181417Y-73206179D01*
X155321166Y-72944724D01*
X155407224Y-72661031D01*
X155429000Y-72439935D01*
X155429000Y-71832064D01*
X155407224Y-71610968D01*
X155321166Y-71327275D01*
X155181417Y-71065821D01*
X154993345Y-70836655D01*
X154764178Y-70648583D01*
X154684000Y-70605727D01*
X154684000Y-67093322D01*
X154687676Y-67055999D01*
X154684000Y-67018676D01*
X154684000Y-67018667D01*
X154673003Y-66907014D01*
X154629546Y-66763753D01*
X154558974Y-66631724D01*
X154464001Y-66515999D01*
X154435003Y-66492201D01*
X148080000Y-60137199D01*
X148080000Y-52615322D01*
X148083676Y-52577999D01*
X148080000Y-52540676D01*
X148080000Y-52540667D01*
X148069003Y-52429014D01*
X148025546Y-52285753D01*
X147954974Y-52153724D01*
X147860001Y-52037999D01*
X147831003Y-52014201D01*
X146613804Y-50797003D01*
X146590001Y-50767999D01*
X146474276Y-50673026D01*
X146342247Y-50602454D01*
X146198986Y-50558997D01*
X146087333Y-50548000D01*
X146087322Y-50548000D01*
X146050000Y-50544324D01*
X146012678Y-50548000D01*
X136986971Y-50548000D01*
X136989253Y-50540475D01*
X149765000Y-50540475D01*
X149765000Y-51059525D01*
X149866261Y-51568601D01*
X150064893Y-52048141D01*
X150353262Y-52479715D01*
X150720285Y-52846738D01*
X151151859Y-53135107D01*
X151631399Y-53333739D01*
X152140475Y-53435000D01*
X152659525Y-53435000D01*
X153168601Y-53333739D01*
X153648141Y-53135107D01*
X154079715Y-52846738D01*
X154446738Y-52479715D01*
X154735107Y-52048141D01*
X154933739Y-51568601D01*
X155035000Y-51059525D01*
X155035000Y-50540475D01*
X154933739Y-50031399D01*
X154735107Y-49551859D01*
X154446738Y-49120285D01*
X154079715Y-48753262D01*
X153648141Y-48464893D01*
X153168601Y-48266261D01*
X152659525Y-48165000D01*
X152140475Y-48165000D01*
X151631399Y-48266261D01*
X151151859Y-48464893D01*
X150720285Y-48753262D01*
X150353262Y-49120285D01*
X150064893Y-49551859D01*
X149866261Y-50031399D01*
X149765000Y-50540475D01*
X136989253Y-50540475D01*
X137003812Y-50492482D01*
X137016072Y-50368000D01*
X137013000Y-48903750D01*
X136854250Y-48745000D01*
X135255000Y-48745000D01*
X135255000Y-48765000D01*
X135001000Y-48765000D01*
X135001000Y-48745000D01*
X133401750Y-48745000D01*
X133243000Y-48903750D01*
X133239928Y-50368000D01*
X133252188Y-50492482D01*
X133269029Y-50548000D01*
X123635288Y-50548000D01*
X123700537Y-50468494D01*
X123759502Y-50358180D01*
X123795812Y-50238482D01*
X123808072Y-50114000D01*
X123805000Y-48649750D01*
X123646250Y-48491000D01*
X122047000Y-48491000D01*
X122047000Y-48511000D01*
X121793000Y-48511000D01*
X121793000Y-48491000D01*
X120193750Y-48491000D01*
X120035000Y-48649750D01*
X120031928Y-50114000D01*
X120044188Y-50238482D01*
X120080498Y-50358180D01*
X120139463Y-50468494D01*
X120218815Y-50565185D01*
X120301116Y-50632728D01*
X120225724Y-50673026D01*
X120225722Y-50673027D01*
X120225723Y-50673027D01*
X120138996Y-50744201D01*
X120138992Y-50744205D01*
X120109999Y-50767999D01*
X120086205Y-50796992D01*
X117795199Y-53088000D01*
X114829862Y-53088000D01*
X115039714Y-53004079D01*
X115193089Y-52693160D01*
X115282860Y-52358295D01*
X115305576Y-52012350D01*
X115260366Y-51668620D01*
X115148966Y-51340315D01*
X115039714Y-51135921D01*
X114762531Y-51025074D01*
X113717605Y-52070000D01*
X113731748Y-52084143D01*
X113552143Y-52263748D01*
X113538000Y-52249605D01*
X113523858Y-52263748D01*
X113344253Y-52084143D01*
X113358395Y-52070000D01*
X112313469Y-51025074D01*
X112036286Y-51135921D01*
X111882911Y-51446840D01*
X111793140Y-51781705D01*
X111770424Y-52127650D01*
X111815634Y-52471380D01*
X111927034Y-52799685D01*
X112036286Y-53004079D01*
X112246138Y-53088000D01*
X111543322Y-53088000D01*
X111505999Y-53084324D01*
X111468676Y-53088000D01*
X111468667Y-53088000D01*
X111357014Y-53098997D01*
X111215912Y-53141799D01*
X111213753Y-53142454D01*
X111081723Y-53213026D01*
X111044569Y-53243518D01*
X110965999Y-53307999D01*
X110942201Y-53336997D01*
X105857199Y-58422000D01*
X105447333Y-58422000D01*
X105410000Y-58418323D01*
X105372667Y-58422000D01*
X105261014Y-58432997D01*
X105117753Y-58476454D01*
X104985724Y-58547026D01*
X104869999Y-58641999D01*
X104775026Y-58757724D01*
X104704454Y-58889753D01*
X104660997Y-59033014D01*
X104646323Y-59182000D01*
X104650000Y-59219333D01*
X104650001Y-60256288D01*
X104606063Y-60300226D01*
X104492795Y-60469744D01*
X104414774Y-60658102D01*
X104375000Y-60858061D01*
X104375000Y-61023514D01*
X104342998Y-61129015D01*
X104328324Y-61278000D01*
X104332001Y-61315332D01*
X104332001Y-61724000D01*
X103488072Y-61724000D01*
X103488072Y-60734000D01*
X103475812Y-60609518D01*
X103439502Y-60489820D01*
X103380537Y-60379506D01*
X103301185Y-60282815D01*
X103204494Y-60203463D01*
X103094180Y-60144498D01*
X102974482Y-60108188D01*
X102850000Y-60095928D01*
X100350000Y-60095928D01*
X100225518Y-60108188D01*
X100105820Y-60144498D01*
X99995506Y-60203463D01*
X99898815Y-60282815D01*
X99819463Y-60379506D01*
X99760498Y-60489820D01*
X99724188Y-60609518D01*
X99711928Y-60734000D01*
X84505000Y-60734000D01*
X84505000Y-57734000D01*
X99711928Y-57734000D01*
X99724188Y-57858482D01*
X99760498Y-57978180D01*
X99819463Y-58088494D01*
X99898815Y-58185185D01*
X99995506Y-58264537D01*
X100105820Y-58323502D01*
X100225518Y-58359812D01*
X100350000Y-58372072D01*
X101314250Y-58369000D01*
X101473000Y-58210250D01*
X101473000Y-56111000D01*
X101727000Y-56111000D01*
X101727000Y-58210250D01*
X101885750Y-58369000D01*
X102850000Y-58372072D01*
X102974482Y-58359812D01*
X103094180Y-58323502D01*
X103204494Y-58264537D01*
X103301185Y-58185185D01*
X103380537Y-58088494D01*
X103439502Y-57978180D01*
X103475812Y-57858482D01*
X103488072Y-57734000D01*
X103485000Y-56269750D01*
X103326250Y-56111000D01*
X101727000Y-56111000D01*
X101473000Y-56111000D01*
X99873750Y-56111000D01*
X99715000Y-56269750D01*
X99711928Y-57734000D01*
X84505000Y-57734000D01*
X84505000Y-50540475D01*
X84995000Y-50540475D01*
X84995000Y-51059525D01*
X85096261Y-51568601D01*
X85294893Y-52048141D01*
X85583262Y-52479715D01*
X85950285Y-52846738D01*
X86381859Y-53135107D01*
X86861399Y-53333739D01*
X87370475Y-53435000D01*
X87889525Y-53435000D01*
X88398601Y-53333739D01*
X88493257Y-53294531D01*
X90649074Y-53294531D01*
X90759921Y-53571714D01*
X91070840Y-53725089D01*
X91405705Y-53814860D01*
X91751650Y-53837576D01*
X92095380Y-53792366D01*
X92423685Y-53680966D01*
X92628079Y-53571714D01*
X92738926Y-53294531D01*
X95729074Y-53294531D01*
X95839921Y-53571714D01*
X96150840Y-53725089D01*
X96485705Y-53814860D01*
X96831650Y-53837576D01*
X97175380Y-53792366D01*
X97503685Y-53680966D01*
X97708079Y-53571714D01*
X97818926Y-53294531D01*
X99031074Y-53294531D01*
X99141921Y-53571714D01*
X99452840Y-53725089D01*
X99787705Y-53814860D01*
X99868180Y-53820144D01*
X99819463Y-53879506D01*
X99760498Y-53989820D01*
X99724188Y-54109518D01*
X99711928Y-54234000D01*
X99715000Y-55698250D01*
X99873750Y-55857000D01*
X101473000Y-55857000D01*
X101473000Y-53757750D01*
X101727000Y-53757750D01*
X101727000Y-55857000D01*
X103326250Y-55857000D01*
X103485000Y-55698250D01*
X103488072Y-54234000D01*
X103475812Y-54109518D01*
X103439502Y-53989820D01*
X103380537Y-53879506D01*
X103301185Y-53782815D01*
X103204494Y-53703463D01*
X103094180Y-53644498D01*
X102974482Y-53608188D01*
X102850000Y-53595928D01*
X101885750Y-53599000D01*
X101727000Y-53757750D01*
X101473000Y-53757750D01*
X101314250Y-53599000D01*
X100961136Y-53597875D01*
X101010079Y-53571714D01*
X101120926Y-53294531D01*
X104111074Y-53294531D01*
X104221921Y-53571714D01*
X104532840Y-53725089D01*
X104867705Y-53814860D01*
X105213650Y-53837576D01*
X105557380Y-53792366D01*
X105885685Y-53680966D01*
X106090079Y-53571714D01*
X106200926Y-53294531D01*
X107413074Y-53294531D01*
X107523921Y-53571714D01*
X107834840Y-53725089D01*
X108169705Y-53814860D01*
X108515650Y-53837576D01*
X108859380Y-53792366D01*
X109187685Y-53680966D01*
X109392079Y-53571714D01*
X109502926Y-53294531D01*
X108458000Y-52249605D01*
X107413074Y-53294531D01*
X106200926Y-53294531D01*
X105156000Y-52249605D01*
X104111074Y-53294531D01*
X101120926Y-53294531D01*
X100076000Y-52249605D01*
X99031074Y-53294531D01*
X97818926Y-53294531D01*
X96774000Y-52249605D01*
X95729074Y-53294531D01*
X92738926Y-53294531D01*
X91694000Y-52249605D01*
X90649074Y-53294531D01*
X88493257Y-53294531D01*
X88878141Y-53135107D01*
X89309715Y-52846738D01*
X89676738Y-52479715D01*
X89927998Y-52103678D01*
X89926424Y-52127650D01*
X89971634Y-52471380D01*
X90083034Y-52799685D01*
X90192286Y-53004079D01*
X90469469Y-53114926D01*
X91514395Y-52070000D01*
X91873605Y-52070000D01*
X92918531Y-53114926D01*
X93195714Y-53004079D01*
X93349089Y-52693160D01*
X93438860Y-52358295D01*
X93454004Y-52127650D01*
X95006424Y-52127650D01*
X95051634Y-52471380D01*
X95163034Y-52799685D01*
X95272286Y-53004079D01*
X95549469Y-53114926D01*
X96594395Y-52070000D01*
X96953605Y-52070000D01*
X97998531Y-53114926D01*
X98275714Y-53004079D01*
X98428970Y-52693401D01*
X98465034Y-52799685D01*
X98574286Y-53004079D01*
X98851469Y-53114926D01*
X99896395Y-52070000D01*
X100255605Y-52070000D01*
X101300531Y-53114926D01*
X101577714Y-53004079D01*
X101731089Y-52693160D01*
X101820860Y-52358295D01*
X101836004Y-52127650D01*
X103388424Y-52127650D01*
X103433634Y-52471380D01*
X103545034Y-52799685D01*
X103654286Y-53004079D01*
X103931469Y-53114926D01*
X104976395Y-52070000D01*
X105335605Y-52070000D01*
X106380531Y-53114926D01*
X106657714Y-53004079D01*
X106810970Y-52693401D01*
X106847034Y-52799685D01*
X106956286Y-53004079D01*
X107233469Y-53114926D01*
X108278395Y-52070000D01*
X108637605Y-52070000D01*
X109682531Y-53114926D01*
X109959714Y-53004079D01*
X110113089Y-52693160D01*
X110202860Y-52358295D01*
X110225576Y-52012350D01*
X110180366Y-51668620D01*
X110068966Y-51340315D01*
X109959714Y-51135921D01*
X109682531Y-51025074D01*
X108637605Y-52070000D01*
X108278395Y-52070000D01*
X107233469Y-51025074D01*
X106956286Y-51135921D01*
X106803030Y-51446599D01*
X106766966Y-51340315D01*
X106657714Y-51135921D01*
X106380531Y-51025074D01*
X105335605Y-52070000D01*
X104976395Y-52070000D01*
X103931469Y-51025074D01*
X103654286Y-51135921D01*
X103500911Y-51446840D01*
X103411140Y-51781705D01*
X103388424Y-52127650D01*
X101836004Y-52127650D01*
X101843576Y-52012350D01*
X101798366Y-51668620D01*
X101686966Y-51340315D01*
X101577714Y-51135921D01*
X101300531Y-51025074D01*
X100255605Y-52070000D01*
X99896395Y-52070000D01*
X98851469Y-51025074D01*
X98574286Y-51135921D01*
X98421030Y-51446599D01*
X98384966Y-51340315D01*
X98275714Y-51135921D01*
X97998531Y-51025074D01*
X96953605Y-52070000D01*
X96594395Y-52070000D01*
X95549469Y-51025074D01*
X95272286Y-51135921D01*
X95118911Y-51446840D01*
X95029140Y-51781705D01*
X95006424Y-52127650D01*
X93454004Y-52127650D01*
X93461576Y-52012350D01*
X93416366Y-51668620D01*
X93304966Y-51340315D01*
X93195714Y-51135921D01*
X92918531Y-51025074D01*
X91873605Y-52070000D01*
X91514395Y-52070000D01*
X90469469Y-51025074D01*
X90254775Y-51110931D01*
X90265000Y-51059525D01*
X90265000Y-50845469D01*
X90649074Y-50845469D01*
X91694000Y-51890395D01*
X92738926Y-50845469D01*
X92628079Y-50568286D01*
X92317160Y-50414911D01*
X91982295Y-50325140D01*
X91636350Y-50302424D01*
X91292620Y-50347634D01*
X90964315Y-50459034D01*
X90759921Y-50568286D01*
X90649074Y-50845469D01*
X90265000Y-50845469D01*
X90265000Y-50540475D01*
X90163739Y-50031399D01*
X89965107Y-49551859D01*
X89841257Y-49366504D01*
X92574000Y-49366504D01*
X92574000Y-49693496D01*
X92637793Y-50014204D01*
X92762927Y-50316305D01*
X92944594Y-50588188D01*
X93175812Y-50819406D01*
X93447695Y-51001073D01*
X93749796Y-51126207D01*
X94070504Y-51190000D01*
X94397496Y-51190000D01*
X94718204Y-51126207D01*
X95020305Y-51001073D01*
X95253182Y-50845469D01*
X95729074Y-50845469D01*
X96774000Y-51890395D01*
X97818926Y-50845469D01*
X99031074Y-50845469D01*
X100076000Y-51890395D01*
X101120926Y-50845469D01*
X101010079Y-50568286D01*
X100699160Y-50414911D01*
X100364295Y-50325140D01*
X100018350Y-50302424D01*
X99674620Y-50347634D01*
X99346315Y-50459034D01*
X99141921Y-50568286D01*
X99031074Y-50845469D01*
X97818926Y-50845469D01*
X97708079Y-50568286D01*
X97397160Y-50414911D01*
X97062295Y-50325140D01*
X96716350Y-50302424D01*
X96372620Y-50347634D01*
X96044315Y-50459034D01*
X95839921Y-50568286D01*
X95729074Y-50845469D01*
X95253182Y-50845469D01*
X95292188Y-50819406D01*
X95523406Y-50588188D01*
X95705073Y-50316305D01*
X95715969Y-50290000D01*
X101134031Y-50290000D01*
X101144927Y-50316305D01*
X101326594Y-50588188D01*
X101557812Y-50819406D01*
X101829695Y-51001073D01*
X102131796Y-51126207D01*
X102452504Y-51190000D01*
X102779496Y-51190000D01*
X103100204Y-51126207D01*
X103402305Y-51001073D01*
X103635182Y-50845469D01*
X104111074Y-50845469D01*
X105156000Y-51890395D01*
X106200926Y-50845469D01*
X107413074Y-50845469D01*
X108458000Y-51890395D01*
X109502926Y-50845469D01*
X109392079Y-50568286D01*
X109081160Y-50414911D01*
X108746295Y-50325140D01*
X108400350Y-50302424D01*
X108056620Y-50347634D01*
X107728315Y-50459034D01*
X107523921Y-50568286D01*
X107413074Y-50845469D01*
X106200926Y-50845469D01*
X106090079Y-50568286D01*
X105779160Y-50414911D01*
X105444295Y-50325140D01*
X105098350Y-50302424D01*
X104754620Y-50347634D01*
X104426315Y-50459034D01*
X104221921Y-50568286D01*
X104111074Y-50845469D01*
X103635182Y-50845469D01*
X103674188Y-50819406D01*
X103905406Y-50588188D01*
X104087073Y-50316305D01*
X104212207Y-50014204D01*
X104276000Y-49693496D01*
X104276000Y-49366504D01*
X109338000Y-49366504D01*
X109338000Y-49693496D01*
X109401793Y-50014204D01*
X109526927Y-50316305D01*
X109708594Y-50588188D01*
X109939812Y-50819406D01*
X110211695Y-51001073D01*
X110513796Y-51126207D01*
X110834504Y-51190000D01*
X111161496Y-51190000D01*
X111482204Y-51126207D01*
X111784305Y-51001073D01*
X112017182Y-50845469D01*
X112493074Y-50845469D01*
X113538000Y-51890395D01*
X114582926Y-50845469D01*
X114472079Y-50568286D01*
X114161160Y-50414911D01*
X113826295Y-50325140D01*
X113480350Y-50302424D01*
X113136620Y-50347634D01*
X112808315Y-50459034D01*
X112603921Y-50568286D01*
X112493074Y-50845469D01*
X112017182Y-50845469D01*
X112056188Y-50819406D01*
X112287406Y-50588188D01*
X112469073Y-50316305D01*
X112594207Y-50014204D01*
X112658000Y-49693496D01*
X112658000Y-49366504D01*
X112594207Y-49045796D01*
X112469073Y-48743695D01*
X112287406Y-48471812D01*
X112056188Y-48240594D01*
X112017183Y-48214531D01*
X112493074Y-48214531D01*
X112603921Y-48491714D01*
X112914840Y-48645089D01*
X113249705Y-48734860D01*
X113595650Y-48757576D01*
X113939380Y-48712366D01*
X114267685Y-48600966D01*
X114472079Y-48491714D01*
X114582926Y-48214531D01*
X113538000Y-47169605D01*
X112493074Y-48214531D01*
X112017183Y-48214531D01*
X111784305Y-48058927D01*
X111482204Y-47933793D01*
X111161496Y-47870000D01*
X110834504Y-47870000D01*
X110513796Y-47933793D01*
X110211695Y-48058927D01*
X109939812Y-48240594D01*
X109708594Y-48471812D01*
X109526927Y-48743695D01*
X109401793Y-49045796D01*
X109338000Y-49366504D01*
X104276000Y-49366504D01*
X104212207Y-49045796D01*
X104087073Y-48743695D01*
X103905406Y-48471812D01*
X103674188Y-48240594D01*
X103635183Y-48214531D01*
X104111074Y-48214531D01*
X104221921Y-48491714D01*
X104532840Y-48645089D01*
X104867705Y-48734860D01*
X105213650Y-48757576D01*
X105557380Y-48712366D01*
X105885685Y-48600966D01*
X106090079Y-48491714D01*
X106200926Y-48214531D01*
X107413074Y-48214531D01*
X107523921Y-48491714D01*
X107834840Y-48645089D01*
X108169705Y-48734860D01*
X108515650Y-48757576D01*
X108859380Y-48712366D01*
X109187685Y-48600966D01*
X109392079Y-48491714D01*
X109502926Y-48214531D01*
X108458000Y-47169605D01*
X107413074Y-48214531D01*
X106200926Y-48214531D01*
X105156000Y-47169605D01*
X104111074Y-48214531D01*
X103635183Y-48214531D01*
X103402305Y-48058927D01*
X103100204Y-47933793D01*
X102779496Y-47870000D01*
X102452504Y-47870000D01*
X102131796Y-47933793D01*
X101829695Y-48058927D01*
X101557812Y-48240594D01*
X101326594Y-48471812D01*
X101144927Y-48743695D01*
X101134031Y-48770000D01*
X95715969Y-48770000D01*
X95705073Y-48743695D01*
X95523406Y-48471812D01*
X95292188Y-48240594D01*
X95253183Y-48214531D01*
X95729074Y-48214531D01*
X95839921Y-48491714D01*
X96150840Y-48645089D01*
X96485705Y-48734860D01*
X96831650Y-48757576D01*
X97175380Y-48712366D01*
X97503685Y-48600966D01*
X97708079Y-48491714D01*
X97818926Y-48214531D01*
X99031074Y-48214531D01*
X99141921Y-48491714D01*
X99452840Y-48645089D01*
X99787705Y-48734860D01*
X100133650Y-48757576D01*
X100477380Y-48712366D01*
X100805685Y-48600966D01*
X101010079Y-48491714D01*
X101120926Y-48214531D01*
X100076000Y-47169605D01*
X99031074Y-48214531D01*
X97818926Y-48214531D01*
X96774000Y-47169605D01*
X95729074Y-48214531D01*
X95253183Y-48214531D01*
X95020305Y-48058927D01*
X94718204Y-47933793D01*
X94397496Y-47870000D01*
X94070504Y-47870000D01*
X93749796Y-47933793D01*
X93447695Y-48058927D01*
X93175812Y-48240594D01*
X92944594Y-48471812D01*
X92762927Y-48743695D01*
X92637793Y-49045796D01*
X92574000Y-49366504D01*
X89841257Y-49366504D01*
X89676738Y-49120285D01*
X89309715Y-48753262D01*
X88878141Y-48464893D01*
X88398601Y-48266261D01*
X88138536Y-48214531D01*
X90649074Y-48214531D01*
X90759921Y-48491714D01*
X91070840Y-48645089D01*
X91405705Y-48734860D01*
X91751650Y-48757576D01*
X92095380Y-48712366D01*
X92423685Y-48600966D01*
X92628079Y-48491714D01*
X92738926Y-48214531D01*
X91694000Y-47169605D01*
X90649074Y-48214531D01*
X88138536Y-48214531D01*
X87889525Y-48165000D01*
X87370475Y-48165000D01*
X86861399Y-48266261D01*
X86381859Y-48464893D01*
X85950285Y-48753262D01*
X85583262Y-49120285D01*
X85294893Y-49551859D01*
X85096261Y-50031399D01*
X84995000Y-50540475D01*
X84505000Y-50540475D01*
X84505000Y-45897000D01*
X90421392Y-45897000D01*
X90469467Y-45945075D01*
X90469467Y-45945075D01*
G37*
X90469467Y-45945075D02*
X90192286Y-46055921D01*
X90038911Y-46366840D01*
X89949140Y-46701705D01*
X89926424Y-47047650D01*
X89971634Y-47391380D01*
X90083034Y-47719685D01*
X90192286Y-47924079D01*
X90469469Y-48034926D01*
X91514395Y-46990000D01*
X91500253Y-46975858D01*
X91679858Y-46796253D01*
X91694000Y-46810395D01*
X91708143Y-46796253D01*
X91887748Y-46975858D01*
X91873605Y-46990000D01*
X92918531Y-48034926D01*
X93195714Y-47924079D01*
X93349089Y-47613160D01*
X93438860Y-47278295D01*
X93461576Y-46932350D01*
X93416366Y-46588620D01*
X93304966Y-46260315D01*
X93195714Y-46055921D01*
X92918533Y-45945075D01*
X92966608Y-45897000D01*
X95501392Y-45897000D01*
X95549467Y-45945075D01*
X95272286Y-46055921D01*
X95118911Y-46366840D01*
X95029140Y-46701705D01*
X95006424Y-47047650D01*
X95051634Y-47391380D01*
X95163034Y-47719685D01*
X95272286Y-47924079D01*
X95549469Y-48034926D01*
X96594395Y-46990000D01*
X96580253Y-46975858D01*
X96759858Y-46796253D01*
X96774000Y-46810395D01*
X96788143Y-46796253D01*
X96967748Y-46975858D01*
X96953605Y-46990000D01*
X97998531Y-48034926D01*
X98275714Y-47924079D01*
X98428970Y-47613401D01*
X98465034Y-47719685D01*
X98574286Y-47924079D01*
X98851469Y-48034926D01*
X99896395Y-46990000D01*
X99882253Y-46975858D01*
X100061858Y-46796253D01*
X100076000Y-46810395D01*
X100090143Y-46796253D01*
X100269748Y-46975858D01*
X100255605Y-46990000D01*
X101300531Y-48034926D01*
X101577714Y-47924079D01*
X101731089Y-47613160D01*
X101820860Y-47278295D01*
X101843576Y-46932350D01*
X101798366Y-46588620D01*
X101686966Y-46260315D01*
X101577714Y-46055921D01*
X101300533Y-45945075D01*
X101348608Y-45897000D01*
X103883392Y-45897000D01*
X103931467Y-45945075D01*
X103654286Y-46055921D01*
X103500911Y-46366840D01*
X103411140Y-46701705D01*
X103388424Y-47047650D01*
X103433634Y-47391380D01*
X103545034Y-47719685D01*
X103654286Y-47924079D01*
X103931469Y-48034926D01*
X104976395Y-46990000D01*
X104962253Y-46975858D01*
X105141858Y-46796253D01*
X105156000Y-46810395D01*
X105170143Y-46796253D01*
X105349748Y-46975858D01*
X105335605Y-46990000D01*
X106380531Y-48034926D01*
X106657714Y-47924079D01*
X106810970Y-47613401D01*
X106847034Y-47719685D01*
X106956286Y-47924079D01*
X107233469Y-48034926D01*
X108278395Y-46990000D01*
X108264253Y-46975858D01*
X108443858Y-46796253D01*
X108458000Y-46810395D01*
X108472143Y-46796253D01*
X108651748Y-46975858D01*
X108637605Y-46990000D01*
X109682531Y-48034926D01*
X109959714Y-47924079D01*
X110113089Y-47613160D01*
X110202860Y-47278295D01*
X110225576Y-46932350D01*
X110180366Y-46588620D01*
X110068966Y-46260315D01*
X109959714Y-46055921D01*
X109682533Y-45945075D01*
X109730608Y-45897000D01*
X112265392Y-45897000D01*
X112313467Y-45945075D01*
X112036286Y-46055921D01*
X111882911Y-46366840D01*
X111793140Y-46701705D01*
X111770424Y-47047650D01*
X111815634Y-47391380D01*
X111927034Y-47719685D01*
X112036286Y-47924079D01*
X112313469Y-48034926D01*
X113358395Y-46990000D01*
X113344253Y-46975858D01*
X113523858Y-46796253D01*
X113538000Y-46810395D01*
X113552143Y-46796253D01*
X113731748Y-46975858D01*
X113717605Y-46990000D01*
X114762531Y-48034926D01*
X115039714Y-47924079D01*
X115193089Y-47613160D01*
X115282860Y-47278295D01*
X115305576Y-46932350D01*
X115263705Y-46614000D01*
X120031928Y-46614000D01*
X120035000Y-48078250D01*
X120193750Y-48237000D01*
X121793000Y-48237000D01*
X121793000Y-46137750D01*
X122047000Y-46137750D01*
X122047000Y-48237000D01*
X123646250Y-48237000D01*
X123805000Y-48078250D01*
X123807539Y-46868000D01*
X133239928Y-46868000D01*
X133243000Y-48332250D01*
X133401750Y-48491000D01*
X135001000Y-48491000D01*
X135001000Y-46391750D01*
X135255000Y-46391750D01*
X135255000Y-48491000D01*
X136854250Y-48491000D01*
X137013000Y-48332250D01*
X137016072Y-46868000D01*
X137003812Y-46743518D01*
X136967502Y-46623820D01*
X136908537Y-46513506D01*
X136829185Y-46416815D01*
X136732494Y-46337463D01*
X136622180Y-46278498D01*
X136502482Y-46242188D01*
X136378000Y-46229928D01*
X135413750Y-46233000D01*
X135255000Y-46391750D01*
X135001000Y-46391750D01*
X134842250Y-46233000D01*
X133878000Y-46229928D01*
X133753518Y-46242188D01*
X133633820Y-46278498D01*
X133523506Y-46337463D01*
X133426815Y-46416815D01*
X133347463Y-46513506D01*
X133288498Y-46623820D01*
X133252188Y-46743518D01*
X133239928Y-46868000D01*
X123807539Y-46868000D01*
X123808072Y-46614000D01*
X123795812Y-46489518D01*
X123759502Y-46369820D01*
X123700537Y-46259506D01*
X123621185Y-46162815D01*
X123524494Y-46083463D01*
X123414180Y-46024498D01*
X123294482Y-45988188D01*
X123170000Y-45975928D01*
X122205750Y-45979000D01*
X122047000Y-46137750D01*
X121793000Y-46137750D01*
X121634250Y-45979000D01*
X120670000Y-45975928D01*
X120545518Y-45988188D01*
X120425820Y-46024498D01*
X120315506Y-46083463D01*
X120218815Y-46162815D01*
X120139463Y-46259506D01*
X120080498Y-46369820D01*
X120044188Y-46489518D01*
X120031928Y-46614000D01*
X115263705Y-46614000D01*
X115260366Y-46588620D01*
X115148966Y-46260315D01*
X115039714Y-46055921D01*
X114762533Y-45945075D01*
X114810608Y-45897000D01*
X155779000Y-45897000D01*
X155779001Y-55846344D01*
X155779000Y-55846354D01*
X155779001Y-91263000D01*
X84505000Y-91263000D01*
X84505000Y-86100475D01*
X96679000Y-86100475D01*
X96679000Y-86619525D01*
X96780261Y-87128601D01*
X96978893Y-87608141D01*
X97267262Y-88039715D01*
X97634285Y-88406738D01*
X98065859Y-88695107D01*
X98545399Y-88893739D01*
X99054475Y-88995000D01*
X99573525Y-88995000D01*
X100082601Y-88893739D01*
X100562141Y-88695107D01*
X100993715Y-88406738D01*
X101360738Y-88039715D01*
X101408656Y-87968000D01*
X125999928Y-87968000D01*
X126012188Y-88092482D01*
X126048498Y-88212180D01*
X126107463Y-88322494D01*
X126186815Y-88419185D01*
X126283506Y-88498537D01*
X126393820Y-88557502D01*
X126513518Y-88593812D01*
X126638000Y-88606072D01*
X127222250Y-88603000D01*
X127381000Y-88444250D01*
X127381000Y-86995000D01*
X126161750Y-86995000D01*
X126003000Y-87153750D01*
X125999928Y-87968000D01*
X101408656Y-87968000D01*
X101649107Y-87608141D01*
X101847739Y-87128601D01*
X101949000Y-86619525D01*
X101949000Y-86372397D01*
X104307208Y-86372397D01*
X104384843Y-86621472D01*
X104648883Y-86747371D01*
X104932411Y-86819339D01*
X105224531Y-86834611D01*
X105514019Y-86792599D01*
X105789747Y-86694919D01*
X105927157Y-86621472D01*
X106004792Y-86372397D01*
X105156000Y-85523605D01*
X104307208Y-86372397D01*
X101949000Y-86372397D01*
X101949000Y-86100475D01*
X101847739Y-85591399D01*
X101773650Y-85412531D01*
X103665389Y-85412531D01*
X103707401Y-85702019D01*
X103805081Y-85977747D01*
X103878528Y-86115157D01*
X104127603Y-86192792D01*
X104976395Y-85344000D01*
X104127603Y-84495208D01*
X103878528Y-84572843D01*
X103752629Y-84836883D01*
X103680661Y-85120411D01*
X103665389Y-85412531D01*
X101773650Y-85412531D01*
X101649107Y-85111859D01*
X101360738Y-84680285D01*
X100996056Y-84315603D01*
X104307208Y-84315603D01*
X105156000Y-85164395D01*
X106004792Y-84315603D01*
X105927157Y-84066528D01*
X105663117Y-83940629D01*
X105379589Y-83868661D01*
X105087469Y-83853389D01*
X104797981Y-83895401D01*
X104522253Y-83993081D01*
X104384843Y-84066528D01*
X104307208Y-84315603D01*
X100996056Y-84315603D01*
X100993715Y-84313262D01*
X100562141Y-84024893D01*
X100082601Y-83826261D01*
X99573525Y-83725000D01*
X99054475Y-83725000D01*
X98545399Y-83826261D01*
X98065859Y-84024893D01*
X97634285Y-84313262D01*
X97267262Y-84680285D01*
X96978893Y-85111859D01*
X96780261Y-85591399D01*
X96679000Y-86100475D01*
X84505000Y-86100475D01*
X84505000Y-77800000D01*
X86091928Y-77800000D01*
X86104188Y-77924482D01*
X86140498Y-78044180D01*
X86199463Y-78154494D01*
X86278815Y-78251185D01*
X86375506Y-78330537D01*
X86485820Y-78389502D01*
X86605518Y-78425812D01*
X86730000Y-78438072D01*
X87314250Y-78435000D01*
X87473000Y-78276250D01*
X87473000Y-76827000D01*
X86253750Y-76827000D01*
X86095000Y-76985750D01*
X86091928Y-77800000D01*
X84505000Y-77800000D01*
X84505000Y-75600000D01*
X86091928Y-75600000D01*
X86095000Y-76414250D01*
X86253750Y-76573000D01*
X87473000Y-76573000D01*
X87473000Y-75123750D01*
X87727000Y-75123750D01*
X87727000Y-76573000D01*
X87747000Y-76573000D01*
X87747000Y-76827000D01*
X87727000Y-76827000D01*
X87727000Y-78276250D01*
X87885750Y-78435000D01*
X88470000Y-78438072D01*
X88594482Y-78425812D01*
X88714180Y-78389502D01*
X88824494Y-78330537D01*
X88921185Y-78251185D01*
X89000537Y-78154494D01*
X89059502Y-78044180D01*
X89072615Y-78000953D01*
X89299822Y-78187417D01*
X89561276Y-78327166D01*
X89844969Y-78413224D01*
X90140000Y-78442282D01*
X90435032Y-78413224D01*
X90718725Y-78327166D01*
X90980179Y-78187417D01*
X91209345Y-77999345D01*
X91397417Y-77770179D01*
X91537166Y-77508724D01*
X91551946Y-77460000D01*
X93991928Y-77460000D01*
X93991928Y-77558001D01*
X94008992Y-77731255D01*
X94059528Y-77897851D01*
X94141595Y-78051387D01*
X94252038Y-78185962D01*
X94386613Y-78296405D01*
X94540149Y-78378472D01*
X94706745Y-78429008D01*
X94879999Y-78446072D01*
X96120001Y-78446072D01*
X96293255Y-78429008D01*
X96459851Y-78378472D01*
X96613387Y-78296405D01*
X96747962Y-78185962D01*
X96858405Y-78051387D01*
X96916934Y-77941886D01*
X96970655Y-78007345D01*
X97199822Y-78195417D01*
X97461276Y-78335166D01*
X97744969Y-78421224D01*
X98040000Y-78450282D01*
X98335032Y-78421224D01*
X98422032Y-78394833D01*
X102834200Y-82807002D01*
X102857999Y-82836001D01*
X102973724Y-82930974D01*
X103105753Y-83001546D01*
X103249014Y-83045003D01*
X103360667Y-83056000D01*
X103360676Y-83056000D01*
X103397999Y-83059676D01*
X103435322Y-83056000D01*
X105857199Y-83056000D01*
X106894649Y-84093451D01*
X106749368Y-84190525D01*
X106542525Y-84397368D01*
X106426689Y-84570729D01*
X106184397Y-84495208D01*
X105335605Y-85344000D01*
X106184397Y-86192792D01*
X106426689Y-86117271D01*
X106542525Y-86290632D01*
X106749368Y-86497475D01*
X106992589Y-86659990D01*
X107262842Y-86771932D01*
X107549740Y-86829000D01*
X107842260Y-86829000D01*
X108129158Y-86771932D01*
X108399411Y-86659990D01*
X108642632Y-86497475D01*
X108849475Y-86290632D01*
X108966000Y-86116240D01*
X109082525Y-86290632D01*
X109289368Y-86497475D01*
X109532589Y-86659990D01*
X109802842Y-86771932D01*
X110089740Y-86829000D01*
X110382260Y-86829000D01*
X110669158Y-86771932D01*
X110939411Y-86659990D01*
X111182632Y-86497475D01*
X111389475Y-86290632D01*
X111551990Y-86047411D01*
X111663932Y-85777158D01*
X111721000Y-85490260D01*
X111721000Y-85197740D01*
X113831000Y-85197740D01*
X113831000Y-85490260D01*
X113888068Y-85777158D01*
X114000010Y-86047411D01*
X114162525Y-86290632D01*
X114369368Y-86497475D01*
X114612589Y-86659990D01*
X114882842Y-86771932D01*
X115169740Y-86829000D01*
X115462260Y-86829000D01*
X115749158Y-86771932D01*
X116019411Y-86659990D01*
X116262632Y-86497475D01*
X116469475Y-86290632D01*
X116586000Y-86116240D01*
X116702525Y-86290632D01*
X116909368Y-86497475D01*
X117152589Y-86659990D01*
X117422842Y-86771932D01*
X117709740Y-86829000D01*
X118002260Y-86829000D01*
X118289158Y-86771932D01*
X118559411Y-86659990D01*
X118802632Y-86497475D01*
X118927710Y-86372397D01*
X119547208Y-86372397D01*
X119624843Y-86621472D01*
X119888883Y-86747371D01*
X120172411Y-86819339D01*
X120464531Y-86834611D01*
X120754019Y-86792599D01*
X121029747Y-86694919D01*
X121167157Y-86621472D01*
X121244792Y-86372397D01*
X120396000Y-85523605D01*
X119547208Y-86372397D01*
X118927710Y-86372397D01*
X119009475Y-86290632D01*
X119125311Y-86117271D01*
X119367603Y-86192792D01*
X120216395Y-85344000D01*
X120575605Y-85344000D01*
X121424397Y-86192792D01*
X121666689Y-86117271D01*
X121782525Y-86290632D01*
X121989368Y-86497475D01*
X122232589Y-86659990D01*
X122502842Y-86771932D01*
X122789740Y-86829000D01*
X123082260Y-86829000D01*
X123369158Y-86771932D01*
X123639411Y-86659990D01*
X123882632Y-86497475D01*
X124089475Y-86290632D01*
X124251990Y-86047411D01*
X124363932Y-85777158D01*
X124365753Y-85768000D01*
X125999928Y-85768000D01*
X126003000Y-86582250D01*
X126161750Y-86741000D01*
X127381000Y-86741000D01*
X127381000Y-85291750D01*
X127635000Y-85291750D01*
X127635000Y-86741000D01*
X127655000Y-86741000D01*
X127655000Y-86995000D01*
X127635000Y-86995000D01*
X127635000Y-88444250D01*
X127793750Y-88603000D01*
X128378000Y-88606072D01*
X128502482Y-88593812D01*
X128622180Y-88557502D01*
X128732494Y-88498537D01*
X128829185Y-88419185D01*
X128908537Y-88322494D01*
X128967502Y-88212180D01*
X128980615Y-88168953D01*
X129207822Y-88355417D01*
X129469276Y-88495166D01*
X129752969Y-88581224D01*
X130048000Y-88610282D01*
X130343032Y-88581224D01*
X130626725Y-88495166D01*
X130888179Y-88355417D01*
X131117345Y-88167345D01*
X131305417Y-87938179D01*
X131318000Y-87914638D01*
X131330583Y-87938179D01*
X131518655Y-88167345D01*
X131747822Y-88355417D01*
X132009276Y-88495166D01*
X132292969Y-88581224D01*
X132588000Y-88610282D01*
X132883032Y-88581224D01*
X133166725Y-88495166D01*
X133428179Y-88355417D01*
X133657345Y-88167345D01*
X133845417Y-87938179D01*
X133858000Y-87914638D01*
X133870583Y-87938179D01*
X134058655Y-88167345D01*
X134287822Y-88355417D01*
X134549276Y-88495166D01*
X134832969Y-88581224D01*
X135128000Y-88610282D01*
X135423032Y-88581224D01*
X135510031Y-88554833D01*
X136874201Y-89919003D01*
X136897999Y-89948001D01*
X137013724Y-90042974D01*
X137145753Y-90113546D01*
X137289014Y-90157003D01*
X137400667Y-90168000D01*
X137400676Y-90168000D01*
X137437999Y-90171676D01*
X137475322Y-90168000D01*
X139310678Y-90168000D01*
X139348000Y-90171676D01*
X139385322Y-90168000D01*
X139385333Y-90168000D01*
X139496986Y-90157003D01*
X139640247Y-90113546D01*
X139772276Y-90042974D01*
X139888001Y-89948001D01*
X139911804Y-89918998D01*
X140176437Y-89654364D01*
X140259506Y-89722537D01*
X140369820Y-89781502D01*
X140489518Y-89817812D01*
X140614000Y-89830072D01*
X141914000Y-89830072D01*
X142038482Y-89817812D01*
X142158180Y-89781502D01*
X142268494Y-89722537D01*
X142365185Y-89643185D01*
X142444537Y-89546494D01*
X142503502Y-89436180D01*
X142514000Y-89401573D01*
X142524498Y-89436180D01*
X142583463Y-89546494D01*
X142662815Y-89643185D01*
X142759506Y-89722537D01*
X142869820Y-89781502D01*
X142989518Y-89817812D01*
X143114000Y-89830072D01*
X143478250Y-89827000D01*
X143637000Y-89668250D01*
X143637000Y-88519000D01*
X143891000Y-88519000D01*
X143891000Y-89668250D01*
X144049750Y-89827000D01*
X144414000Y-89830072D01*
X144538482Y-89817812D01*
X144658180Y-89781502D01*
X144768494Y-89722537D01*
X144865185Y-89643185D01*
X144944537Y-89546494D01*
X145003502Y-89436180D01*
X145039812Y-89316482D01*
X145052072Y-89192000D01*
X145049000Y-88677750D01*
X144890250Y-88519000D01*
X143891000Y-88519000D01*
X143637000Y-88519000D01*
X143617000Y-88519000D01*
X143617000Y-88265000D01*
X143637000Y-88265000D01*
X143637000Y-87115750D01*
X143891000Y-87115750D01*
X143891000Y-88265000D01*
X144890250Y-88265000D01*
X145049000Y-88106250D01*
X145052072Y-87592000D01*
X145039812Y-87467518D01*
X145003502Y-87347820D01*
X144944537Y-87237506D01*
X144865185Y-87140815D01*
X144768494Y-87061463D01*
X144658180Y-87002498D01*
X144538482Y-86966188D01*
X144414000Y-86953928D01*
X144049750Y-86957000D01*
X143891000Y-87115750D01*
X143637000Y-87115750D01*
X143478250Y-86957000D01*
X143114000Y-86953928D01*
X142989518Y-86966188D01*
X142869820Y-87002498D01*
X142759506Y-87061463D01*
X142662815Y-87140815D01*
X142583463Y-87237506D01*
X142524498Y-87347820D01*
X142514000Y-87382427D01*
X142503502Y-87347820D01*
X142444537Y-87237506D01*
X142365185Y-87140815D01*
X142268494Y-87061463D01*
X142158180Y-87002498D01*
X142038482Y-86966188D01*
X141914000Y-86953928D01*
X140614000Y-86953928D01*
X140489518Y-86966188D01*
X140369820Y-87002498D01*
X140259506Y-87061463D01*
X140162815Y-87140815D01*
X140083463Y-87237506D01*
X140024498Y-87347820D01*
X139988188Y-87467518D01*
X139975928Y-87592000D01*
X139975928Y-87737674D01*
X139939723Y-87757026D01*
X139883039Y-87803546D01*
X139823999Y-87851999D01*
X139800201Y-87880997D01*
X139033199Y-88648000D01*
X137752802Y-88648000D01*
X137710862Y-88606060D01*
X137963032Y-88581224D01*
X138246725Y-88495166D01*
X138508179Y-88355417D01*
X138737345Y-88167345D01*
X138925417Y-87938179D01*
X139065166Y-87676724D01*
X139151224Y-87393031D01*
X139173000Y-87171935D01*
X139173000Y-86564064D01*
X139151224Y-86342968D01*
X139124833Y-86255969D01*
X139128802Y-86252000D01*
X140875928Y-86252000D01*
X140875928Y-86292000D01*
X140888188Y-86416482D01*
X140924498Y-86536180D01*
X140983463Y-86646494D01*
X141062815Y-86743185D01*
X141159506Y-86822537D01*
X141269820Y-86881502D01*
X141389518Y-86917812D01*
X141514000Y-86930072D01*
X143514000Y-86930072D01*
X143638482Y-86917812D01*
X143758180Y-86881502D01*
X143868494Y-86822537D01*
X143965185Y-86743185D01*
X144044537Y-86646494D01*
X144103502Y-86536180D01*
X144139812Y-86416482D01*
X144152072Y-86292000D01*
X144152072Y-86100475D01*
X149765000Y-86100475D01*
X149765000Y-86619525D01*
X149866261Y-87128601D01*
X150064893Y-87608141D01*
X150353262Y-88039715D01*
X150720285Y-88406738D01*
X151151859Y-88695107D01*
X151631399Y-88893739D01*
X152140475Y-88995000D01*
X152659525Y-88995000D01*
X153168601Y-88893739D01*
X153648141Y-88695107D01*
X154079715Y-88406738D01*
X154446738Y-88039715D01*
X154735107Y-87608141D01*
X154933739Y-87128601D01*
X155035000Y-86619525D01*
X155035000Y-86100475D01*
X154933739Y-85591399D01*
X154735107Y-85111859D01*
X154446738Y-84680285D01*
X154079715Y-84313262D01*
X153648141Y-84024893D01*
X153168601Y-83826261D01*
X152659525Y-83725000D01*
X152140475Y-83725000D01*
X151631399Y-83826261D01*
X151151859Y-84024893D01*
X150720285Y-84313262D01*
X150353262Y-84680285D01*
X150064893Y-85111859D01*
X149866261Y-85591399D01*
X149765000Y-86100475D01*
X144152072Y-86100475D01*
X144152072Y-84692000D01*
X144139812Y-84567518D01*
X144103502Y-84447820D01*
X144044537Y-84337506D01*
X143965185Y-84240815D01*
X143868494Y-84161463D01*
X143758180Y-84102498D01*
X143638482Y-84066188D01*
X143514000Y-84053928D01*
X141514000Y-84053928D01*
X141389518Y-84066188D01*
X141269820Y-84102498D01*
X141159506Y-84161463D01*
X141062815Y-84240815D01*
X140983463Y-84337506D01*
X140924498Y-84447820D01*
X140888188Y-84567518D01*
X140875928Y-84692000D01*
X140875928Y-84732000D01*
X138851325Y-84732000D01*
X138814000Y-84728324D01*
X138776675Y-84732000D01*
X138776667Y-84732000D01*
X138665014Y-84742997D01*
X138521753Y-84786454D01*
X138389724Y-84857026D01*
X138273999Y-84951999D01*
X138250201Y-84980997D01*
X138050031Y-85181167D01*
X137963031Y-85154776D01*
X137668000Y-85125718D01*
X137372968Y-85154776D01*
X137089275Y-85240834D01*
X136827821Y-85380583D01*
X136598655Y-85568655D01*
X136410583Y-85797822D01*
X136398000Y-85821363D01*
X136385417Y-85797821D01*
X136197345Y-85568655D01*
X135968178Y-85380583D01*
X135706724Y-85240834D01*
X135423031Y-85154776D01*
X135128000Y-85125718D01*
X134832968Y-85154776D01*
X134549275Y-85240834D01*
X134287821Y-85380583D01*
X134058655Y-85568655D01*
X133870583Y-85797822D01*
X133858000Y-85821363D01*
X133845417Y-85797821D01*
X133657345Y-85568655D01*
X133428178Y-85380583D01*
X133166724Y-85240834D01*
X132883031Y-85154776D01*
X132588000Y-85125718D01*
X132292968Y-85154776D01*
X132009275Y-85240834D01*
X131747821Y-85380583D01*
X131518655Y-85568655D01*
X131330583Y-85797822D01*
X131318000Y-85821363D01*
X131305417Y-85797821D01*
X131117345Y-85568655D01*
X130888178Y-85380583D01*
X130626724Y-85240834D01*
X130343031Y-85154776D01*
X130048000Y-85125718D01*
X129752968Y-85154776D01*
X129469275Y-85240834D01*
X129207821Y-85380583D01*
X128980615Y-85567047D01*
X128967502Y-85523820D01*
X128908537Y-85413506D01*
X128829185Y-85316815D01*
X128732494Y-85237463D01*
X128622180Y-85178498D01*
X128502482Y-85142188D01*
X128378000Y-85129928D01*
X127793750Y-85133000D01*
X127635000Y-85291750D01*
X127381000Y-85291750D01*
X127222250Y-85133000D01*
X126638000Y-85129928D01*
X126513518Y-85142188D01*
X126393820Y-85178498D01*
X126283506Y-85237463D01*
X126186815Y-85316815D01*
X126107463Y-85413506D01*
X126048498Y-85523820D01*
X126012188Y-85643518D01*
X125999928Y-85768000D01*
X124365753Y-85768000D01*
X124421000Y-85490260D01*
X124421000Y-85197740D01*
X124363932Y-84910842D01*
X124251990Y-84640589D01*
X124089475Y-84397368D01*
X123882632Y-84190525D01*
X123639411Y-84028010D01*
X123369158Y-83916068D01*
X123082260Y-83859000D01*
X122789740Y-83859000D01*
X122502842Y-83916068D01*
X122232589Y-84028010D01*
X121989368Y-84190525D01*
X121782525Y-84397368D01*
X121666689Y-84570729D01*
X121424397Y-84495208D01*
X120575605Y-85344000D01*
X120216395Y-85344000D01*
X119367603Y-84495208D01*
X119125311Y-84570729D01*
X119009475Y-84397368D01*
X118927710Y-84315603D01*
X119547208Y-84315603D01*
X120396000Y-85164395D01*
X121244792Y-84315603D01*
X121167157Y-84066528D01*
X120903117Y-83940629D01*
X120619589Y-83868661D01*
X120327469Y-83853389D01*
X120037981Y-83895401D01*
X119762253Y-83993081D01*
X119624843Y-84066528D01*
X119547208Y-84315603D01*
X118927710Y-84315603D01*
X118802632Y-84190525D01*
X118559411Y-84028010D01*
X118289158Y-83916068D01*
X118002260Y-83859000D01*
X117709740Y-83859000D01*
X117422842Y-83916068D01*
X117152589Y-84028010D01*
X116909368Y-84190525D01*
X116702525Y-84397368D01*
X116586000Y-84571760D01*
X116469475Y-84397368D01*
X116262632Y-84190525D01*
X116019411Y-84028010D01*
X115749158Y-83916068D01*
X115462260Y-83859000D01*
X115169740Y-83859000D01*
X114882842Y-83916068D01*
X114612589Y-84028010D01*
X114369368Y-84190525D01*
X114162525Y-84397368D01*
X114000010Y-84640589D01*
X113888068Y-84910842D01*
X113831000Y-85197740D01*
X111721000Y-85197740D01*
X111663932Y-84910842D01*
X111551990Y-84640589D01*
X111389475Y-84397368D01*
X111182632Y-84190525D01*
X110939411Y-84028010D01*
X110669158Y-83916068D01*
X110382260Y-83859000D01*
X110089740Y-83859000D01*
X109802842Y-83916068D01*
X109532589Y-84028010D01*
X109289368Y-84190525D01*
X109082525Y-84397368D01*
X108966000Y-84571760D01*
X108849475Y-84397368D01*
X108642632Y-84190525D01*
X108456000Y-84065822D01*
X108456000Y-83857322D01*
X108459676Y-83819999D01*
X108456000Y-83782676D01*
X108456000Y-83782667D01*
X108445003Y-83671014D01*
X108401546Y-83527753D01*
X108330974Y-83395724D01*
X108317811Y-83379685D01*
X108259799Y-83308996D01*
X108259795Y-83308992D01*
X108236001Y-83279999D01*
X108207008Y-83256205D01*
X106735803Y-81785002D01*
X106712001Y-81755999D01*
X106596276Y-81661026D01*
X106464247Y-81590454D01*
X106320986Y-81546997D01*
X106209333Y-81536000D01*
X106209322Y-81536000D01*
X106172000Y-81532324D01*
X106134678Y-81536000D01*
X103712802Y-81536000D01*
X102453802Y-80277000D01*
X102946928Y-80277000D01*
X102959188Y-80401482D01*
X102995498Y-80521180D01*
X103054463Y-80631494D01*
X103133815Y-80728185D01*
X103230506Y-80807537D01*
X103340820Y-80866502D01*
X103460518Y-80902812D01*
X103585000Y-80915072D01*
X108699250Y-80912000D01*
X108858000Y-80753250D01*
X108858000Y-75704000D01*
X109112000Y-75704000D01*
X109112000Y-80753250D01*
X109270750Y-80912000D01*
X114385000Y-80915072D01*
X114509482Y-80902812D01*
X114629180Y-80866502D01*
X114739494Y-80807537D01*
X114836185Y-80728185D01*
X114915537Y-80631494D01*
X114974502Y-80521180D01*
X115010812Y-80401482D01*
X115011745Y-80392000D01*
X115881928Y-80392000D01*
X115894188Y-80516482D01*
X115930498Y-80636180D01*
X115989463Y-80746494D01*
X116068815Y-80843185D01*
X116165506Y-80922537D01*
X116275820Y-80981502D01*
X116395518Y-81017812D01*
X116520000Y-81030072D01*
X121634250Y-81027000D01*
X121793000Y-80868250D01*
X121793000Y-75819000D01*
X116043750Y-75819000D01*
X115885000Y-75977750D01*
X115881928Y-80392000D01*
X115011745Y-80392000D01*
X115023072Y-80277000D01*
X115020000Y-75862750D01*
X114861250Y-75704000D01*
X109112000Y-75704000D01*
X108858000Y-75704000D01*
X103108750Y-75704000D01*
X102950000Y-75862750D01*
X102946928Y-80277000D01*
X102453802Y-80277000D01*
X99496833Y-77320031D01*
X99523224Y-77233031D01*
X99545000Y-77011935D01*
X99545000Y-76404064D01*
X99523224Y-76182968D01*
X99437166Y-75899275D01*
X99297417Y-75637821D01*
X99109345Y-75408655D01*
X98880178Y-75220583D01*
X98618724Y-75080834D01*
X98335031Y-74994776D01*
X98040000Y-74965718D01*
X97744968Y-74994776D01*
X97461275Y-75080834D01*
X97199821Y-75220583D01*
X96970655Y-75408655D01*
X96916935Y-75474114D01*
X96858405Y-75364613D01*
X96747962Y-75230038D01*
X96613387Y-75119595D01*
X96459851Y-75037528D01*
X96293255Y-74986992D01*
X96120001Y-74969928D01*
X94879999Y-74969928D01*
X94706745Y-74986992D01*
X94540149Y-75037528D01*
X94386613Y-75119595D01*
X94252038Y-75230038D01*
X94141595Y-75364613D01*
X94059528Y-75518149D01*
X94008992Y-75684745D01*
X93991928Y-75857999D01*
X93991928Y-75940000D01*
X91551947Y-75940000D01*
X91537166Y-75891275D01*
X91397417Y-75629821D01*
X91209345Y-75400655D01*
X90980178Y-75212583D01*
X90718724Y-75072834D01*
X90435031Y-74986776D01*
X90140000Y-74957718D01*
X89844968Y-74986776D01*
X89561275Y-75072834D01*
X89299821Y-75212583D01*
X89072615Y-75399047D01*
X89059502Y-75355820D01*
X89000537Y-75245506D01*
X88921185Y-75148815D01*
X88824494Y-75069463D01*
X88714180Y-75010498D01*
X88594482Y-74974188D01*
X88470000Y-74961928D01*
X87885750Y-74965000D01*
X87727000Y-75123750D01*
X87473000Y-75123750D01*
X87314250Y-74965000D01*
X86730000Y-74961928D01*
X86605518Y-74974188D01*
X86485820Y-75010498D01*
X86375506Y-75069463D01*
X86278815Y-75148815D01*
X86199463Y-75245506D01*
X86140498Y-75355820D01*
X86104188Y-75475518D01*
X86091928Y-75600000D01*
X84505000Y-75600000D01*
X84505000Y-70877000D01*
X102946928Y-70877000D01*
X102950000Y-75291250D01*
X103108750Y-75450000D01*
X108858000Y-75450000D01*
X108858000Y-70400750D01*
X108699250Y-70242000D01*
X103585000Y-70238928D01*
X103460518Y-70251188D01*
X103340820Y-70287498D01*
X103230506Y-70346463D01*
X103133815Y-70425815D01*
X103054463Y-70522506D01*
X102995498Y-70632820D01*
X102959188Y-70752518D01*
X102946928Y-70877000D01*
X84505000Y-70877000D01*
X84505000Y-68727000D01*
X104396928Y-68727000D01*
X104409188Y-68851482D01*
X104445498Y-68971180D01*
X104504463Y-69081494D01*
X104583815Y-69178185D01*
X104680506Y-69257537D01*
X104790820Y-69316502D01*
X104910518Y-69352812D01*
X105035000Y-69365072D01*
X105299250Y-69362000D01*
X105458000Y-69203250D01*
X105458000Y-66554000D01*
X104558750Y-66554000D01*
X104400000Y-66712750D01*
X104396928Y-68727000D01*
X84505000Y-68727000D01*
X84505000Y-60734000D01*
X99711928Y-60734000D01*
X99711928Y-64234000D01*
X99724188Y-64358482D01*
X99760498Y-64478180D01*
X99819463Y-64588494D01*
X99898815Y-64685185D01*
X99995506Y-64764537D01*
X100105820Y-64823502D01*
X100225518Y-64859812D01*
X100350000Y-64872072D01*
X102850000Y-64872072D01*
X102974482Y-64859812D01*
X103094180Y-64823502D01*
X103204494Y-64764537D01*
X103301185Y-64685185D01*
X103380537Y-64588494D01*
X103439502Y-64478180D01*
X103475812Y-64358482D01*
X103488072Y-64234000D01*
X103488072Y-63244000D01*
X104777199Y-63244000D01*
X105023281Y-63490082D01*
X104910518Y-63501188D01*
X104790820Y-63537498D01*
X104680506Y-63596463D01*
X104583815Y-63675815D01*
X104504463Y-63772506D01*
X104445498Y-63882820D01*
X104409188Y-64002518D01*
X104396928Y-64127000D01*
X104400000Y-66141250D01*
X104558750Y-66300000D01*
X105458000Y-66300000D01*
X105458000Y-66280000D01*
X105712000Y-66280000D01*
X105712000Y-66300000D01*
X105732000Y-66300000D01*
X105732000Y-66554000D01*
X105712000Y-66554000D01*
X105712000Y-69203250D01*
X105870750Y-69362000D01*
X106135000Y-69365072D01*
X106259482Y-69352812D01*
X106379180Y-69316502D01*
X106435000Y-69286665D01*
X106490820Y-69316502D01*
X106610518Y-69352812D01*
X106735000Y-69365072D01*
X107835000Y-69365072D01*
X107959482Y-69352812D01*
X108079180Y-69316502D01*
X108135000Y-69286665D01*
X108190820Y-69316502D01*
X108310518Y-69352812D01*
X108435000Y-69365072D01*
X108699250Y-69362000D01*
X108858000Y-69203250D01*
X108858000Y-66554000D01*
X108838000Y-66554000D01*
X108838000Y-66300000D01*
X108858000Y-66300000D01*
X108858000Y-63650750D01*
X109112000Y-63650750D01*
X109112000Y-66300000D01*
X109132000Y-66300000D01*
X109132000Y-66554000D01*
X109112000Y-66554000D01*
X109112000Y-69203250D01*
X109270750Y-69362000D01*
X109535000Y-69365072D01*
X109659482Y-69352812D01*
X109779180Y-69316502D01*
X109835000Y-69286665D01*
X109890820Y-69316502D01*
X110010518Y-69352812D01*
X110135000Y-69365072D01*
X110798271Y-69365072D01*
X111487000Y-70053802D01*
X111487000Y-70205939D01*
X111493907Y-70240665D01*
X109270750Y-70242000D01*
X109112000Y-70400750D01*
X109112000Y-75450000D01*
X114861250Y-75450000D01*
X115020000Y-75291250D01*
X115022991Y-70992000D01*
X115881928Y-70992000D01*
X115885000Y-75406250D01*
X116043750Y-75565000D01*
X121793000Y-75565000D01*
X121793000Y-70515750D01*
X121634250Y-70357000D01*
X116520000Y-70353928D01*
X116395518Y-70366188D01*
X116275820Y-70402498D01*
X116165506Y-70461463D01*
X116068815Y-70540815D01*
X115989463Y-70637506D01*
X115930498Y-70747820D01*
X115894188Y-70867518D01*
X115881928Y-70992000D01*
X115022991Y-70992000D01*
X115023072Y-70877000D01*
X115010812Y-70752518D01*
X114974502Y-70632820D01*
X114915537Y-70522506D01*
X114836185Y-70425815D01*
X114739494Y-70346463D01*
X114629180Y-70287498D01*
X114509482Y-70251188D01*
X114385000Y-70238928D01*
X113550338Y-70239429D01*
X113557000Y-70205939D01*
X113557000Y-70002061D01*
X113517226Y-69802102D01*
X113439205Y-69613744D01*
X113325937Y-69444226D01*
X113191583Y-69309872D01*
X113289494Y-69257537D01*
X113386185Y-69178185D01*
X113465537Y-69081494D01*
X113524502Y-68971180D01*
X113560812Y-68851482D01*
X113561745Y-68842000D01*
X117331928Y-68842000D01*
X117344188Y-68966482D01*
X117380498Y-69086180D01*
X117439463Y-69196494D01*
X117518815Y-69293185D01*
X117615506Y-69372537D01*
X117725820Y-69431502D01*
X117845518Y-69467812D01*
X117970000Y-69480072D01*
X118234250Y-69477000D01*
X118393000Y-69318250D01*
X118393000Y-66669000D01*
X117493750Y-66669000D01*
X117335000Y-66827750D01*
X117331928Y-68842000D01*
X113561745Y-68842000D01*
X113573072Y-68727000D01*
X113573072Y-66800000D01*
X114612289Y-66800000D01*
X114656226Y-66843937D01*
X114825744Y-66957205D01*
X115014102Y-67035226D01*
X115214061Y-67075000D01*
X115417939Y-67075000D01*
X115617898Y-67035226D01*
X115806256Y-66957205D01*
X115975774Y-66843937D01*
X116119937Y-66699774D01*
X116233205Y-66530256D01*
X116311226Y-66341898D01*
X116351000Y-66141939D01*
X116351000Y-65938061D01*
X116311226Y-65738102D01*
X116233205Y-65549744D01*
X116119937Y-65380226D01*
X116076000Y-65336289D01*
X116076000Y-64242000D01*
X117331928Y-64242000D01*
X117335000Y-66256250D01*
X117493750Y-66415000D01*
X118393000Y-66415000D01*
X118393000Y-63765750D01*
X118234250Y-63607000D01*
X117970000Y-63603928D01*
X117845518Y-63616188D01*
X117725820Y-63652498D01*
X117615506Y-63711463D01*
X117518815Y-63790815D01*
X117439463Y-63887506D01*
X117380498Y-63997820D01*
X117344188Y-64117518D01*
X117331928Y-64242000D01*
X116076000Y-64242000D01*
X116076000Y-64110072D01*
X116370000Y-64110072D01*
X116494482Y-64097812D01*
X116614180Y-64061502D01*
X116724494Y-64002537D01*
X116821185Y-63923185D01*
X116900537Y-63826494D01*
X116959502Y-63716180D01*
X116995812Y-63596482D01*
X117008072Y-63472000D01*
X117008072Y-59972000D01*
X116995812Y-59847518D01*
X116959502Y-59727820D01*
X116900537Y-59617506D01*
X116821185Y-59520815D01*
X116724494Y-59441463D01*
X116614180Y-59382498D01*
X116494482Y-59346188D01*
X116370000Y-59333928D01*
X114770000Y-59333928D01*
X114645518Y-59346188D01*
X114525820Y-59382498D01*
X114415506Y-59441463D01*
X114318815Y-59520815D01*
X114239463Y-59617506D01*
X114180498Y-59727820D01*
X114144188Y-59847518D01*
X114131928Y-59972000D01*
X114131928Y-63472000D01*
X114144188Y-63596482D01*
X114180498Y-63716180D01*
X114239463Y-63826494D01*
X114318815Y-63923185D01*
X114415506Y-64002537D01*
X114525820Y-64061502D01*
X114556000Y-64070657D01*
X114556000Y-65280000D01*
X113573072Y-65280000D01*
X113573072Y-64127000D01*
X113560812Y-64002518D01*
X113524502Y-63882820D01*
X113465537Y-63772506D01*
X113386185Y-63675815D01*
X113289494Y-63596463D01*
X113179180Y-63537498D01*
X113059482Y-63501188D01*
X112935000Y-63488928D01*
X111903169Y-63488928D01*
X111933502Y-63432180D01*
X111969812Y-63312482D01*
X111982072Y-63188000D01*
X111982072Y-62288000D01*
X111969812Y-62163518D01*
X111933502Y-62043820D01*
X111874537Y-61933506D01*
X111795185Y-61836815D01*
X111698494Y-61757463D01*
X111588180Y-61698498D01*
X111468482Y-61662188D01*
X111344000Y-61649928D01*
X110144000Y-61649928D01*
X110019518Y-61662188D01*
X109899820Y-61698498D01*
X109789506Y-61757463D01*
X109692815Y-61836815D01*
X109613463Y-61933506D01*
X109554498Y-62043820D01*
X109518188Y-62163518D01*
X109505928Y-62288000D01*
X109505928Y-63188000D01*
X109518188Y-63312482D01*
X109554498Y-63432180D01*
X109587600Y-63494108D01*
X109535000Y-63488928D01*
X109270750Y-63492000D01*
X109112000Y-63650750D01*
X108858000Y-63650750D01*
X108699250Y-63492000D01*
X108435000Y-63488928D01*
X108310518Y-63501188D01*
X108190820Y-63537498D01*
X108135000Y-63567335D01*
X108079180Y-63537498D01*
X107959482Y-63501188D01*
X107835000Y-63488928D01*
X107171730Y-63488928D01*
X105852000Y-62169199D01*
X105852000Y-61897193D01*
X105900256Y-61877205D01*
X106069774Y-61763937D01*
X106213937Y-61619774D01*
X106327205Y-61450256D01*
X106405226Y-61261898D01*
X106445000Y-61061939D01*
X106445000Y-60858061D01*
X106405226Y-60658102D01*
X106327205Y-60469744D01*
X106213937Y-60300226D01*
X106170000Y-60256289D01*
X106170000Y-59945479D01*
X106172000Y-59945676D01*
X106209322Y-59942000D01*
X106209333Y-59942000D01*
X106320986Y-59931003D01*
X106462750Y-59888000D01*
X109505928Y-59888000D01*
X109518188Y-60012482D01*
X109554498Y-60132180D01*
X109613463Y-60242494D01*
X109692815Y-60339185D01*
X109789506Y-60418537D01*
X109899820Y-60477502D01*
X110019518Y-60513812D01*
X110144000Y-60526072D01*
X110458250Y-60523000D01*
X110617000Y-60364250D01*
X110617000Y-59565000D01*
X110871000Y-59565000D01*
X110871000Y-60364250D01*
X111029750Y-60523000D01*
X111344000Y-60526072D01*
X111468482Y-60513812D01*
X111588180Y-60477502D01*
X111698494Y-60418537D01*
X111795185Y-60339185D01*
X111874537Y-60242494D01*
X111933502Y-60132180D01*
X111969812Y-60012482D01*
X111982072Y-59888000D01*
X111979000Y-59723750D01*
X111820250Y-59565000D01*
X110871000Y-59565000D01*
X110617000Y-59565000D01*
X109667750Y-59565000D01*
X109509000Y-59723750D01*
X109505928Y-59888000D01*
X106462750Y-59888000D01*
X106464247Y-59887546D01*
X106596276Y-59816974D01*
X106712001Y-59722001D01*
X106735804Y-59692997D01*
X107440801Y-58988000D01*
X109505928Y-58988000D01*
X109509000Y-59152250D01*
X109667750Y-59311000D01*
X110617000Y-59311000D01*
X110617000Y-58511750D01*
X110871000Y-58511750D01*
X110871000Y-59311000D01*
X111820250Y-59311000D01*
X111979000Y-59152250D01*
X111982072Y-58988000D01*
X111969812Y-58863518D01*
X111933502Y-58743820D01*
X111874537Y-58633506D01*
X111795185Y-58536815D01*
X111698494Y-58457463D01*
X111588180Y-58398498D01*
X111468482Y-58362188D01*
X111344000Y-58349928D01*
X111029750Y-58353000D01*
X110871000Y-58511750D01*
X110617000Y-58511750D01*
X110458250Y-58353000D01*
X110144000Y-58349928D01*
X110019518Y-58362188D01*
X109899820Y-58398498D01*
X109789506Y-58457463D01*
X109692815Y-58536815D01*
X109613463Y-58633506D01*
X109554498Y-58743820D01*
X109518188Y-58863518D01*
X109505928Y-58988000D01*
X107440801Y-58988000D01*
X108356801Y-58072000D01*
X114131928Y-58072000D01*
X114144188Y-58196482D01*
X114180498Y-58316180D01*
X114239463Y-58426494D01*
X114318815Y-58523185D01*
X114415506Y-58602537D01*
X114525820Y-58661502D01*
X114645518Y-58697812D01*
X114770000Y-58710072D01*
X115284250Y-58707000D01*
X115443000Y-58548250D01*
X115443000Y-56449000D01*
X115697000Y-56449000D01*
X115697000Y-58548250D01*
X115855750Y-58707000D01*
X116370000Y-58710072D01*
X116494482Y-58697812D01*
X116614180Y-58661502D01*
X116724494Y-58602537D01*
X116821185Y-58523185D01*
X116900537Y-58426494D01*
X116959502Y-58316180D01*
X116995812Y-58196482D01*
X117008072Y-58072000D01*
X117005000Y-56607750D01*
X116846250Y-56449000D01*
X115697000Y-56449000D01*
X115443000Y-56449000D01*
X114293750Y-56449000D01*
X114135000Y-56607750D01*
X114131928Y-58072000D01*
X108356801Y-58072000D01*
X111820802Y-54608000D01*
X114132004Y-54608000D01*
X114135000Y-56036250D01*
X114293750Y-56195000D01*
X115443000Y-56195000D01*
X115443000Y-56175000D01*
X115697000Y-56175000D01*
X115697000Y-56195000D01*
X116846250Y-56195000D01*
X117005000Y-56036250D01*
X117007996Y-54608000D01*
X118072678Y-54608000D01*
X118110000Y-54611676D01*
X118147322Y-54608000D01*
X118147333Y-54608000D01*
X118258986Y-54597003D01*
X118402247Y-54553546D01*
X118534276Y-54482974D01*
X118650001Y-54388001D01*
X118673804Y-54358997D01*
X120044582Y-52988221D01*
X120044188Y-52989518D01*
X120031928Y-53114000D01*
X120031928Y-54209674D01*
X119995724Y-54229026D01*
X119879999Y-54323999D01*
X119856196Y-54353003D01*
X119630998Y-54578201D01*
X119602000Y-54601999D01*
X119578202Y-54630997D01*
X119578201Y-54630998D01*
X119507026Y-54717724D01*
X119436454Y-54849754D01*
X119392998Y-54993015D01*
X119378324Y-55142000D01*
X119382001Y-55179332D01*
X119382000Y-62542289D01*
X119338063Y-62586226D01*
X119224795Y-62755744D01*
X119146774Y-62944102D01*
X119107000Y-63144061D01*
X119107000Y-63347939D01*
X119146774Y-63547898D01*
X119174235Y-63614194D01*
X119070000Y-63603928D01*
X118805750Y-63607000D01*
X118647000Y-63765750D01*
X118647000Y-66415000D01*
X118667000Y-66415000D01*
X118667000Y-66669000D01*
X118647000Y-66669000D01*
X118647000Y-69318250D01*
X118805750Y-69477000D01*
X119070000Y-69480072D01*
X119194482Y-69467812D01*
X119314180Y-69431502D01*
X119370000Y-69401665D01*
X119425820Y-69431502D01*
X119545518Y-69467812D01*
X119670000Y-69480072D01*
X120770000Y-69480072D01*
X120894482Y-69467812D01*
X121014180Y-69431502D01*
X121070000Y-69401665D01*
X121125820Y-69431502D01*
X121245518Y-69467812D01*
X121370000Y-69480072D01*
X121634250Y-69477000D01*
X121793000Y-69318250D01*
X121793000Y-66669000D01*
X121773000Y-66669000D01*
X121773000Y-66415000D01*
X121793000Y-66415000D01*
X121793000Y-63765750D01*
X122047000Y-63765750D01*
X122047000Y-66415000D01*
X122067000Y-66415000D01*
X122067000Y-66669000D01*
X122047000Y-66669000D01*
X122047000Y-69318250D01*
X122205750Y-69477000D01*
X122470000Y-69480072D01*
X122594482Y-69467812D01*
X122714180Y-69431502D01*
X122770000Y-69401665D01*
X122825820Y-69431502D01*
X122945518Y-69467812D01*
X123070000Y-69480072D01*
X123733271Y-69480072D01*
X124441000Y-70187802D01*
X124441000Y-70205939D01*
X124470777Y-70355639D01*
X122205750Y-70357000D01*
X122047000Y-70515750D01*
X122047000Y-75565000D01*
X122067000Y-75565000D01*
X122067000Y-75819000D01*
X122047000Y-75819000D01*
X122047000Y-80868250D01*
X122205750Y-81027000D01*
X127320000Y-81030072D01*
X127444482Y-81017812D01*
X127564180Y-80981502D01*
X127674494Y-80922537D01*
X127771185Y-80843185D01*
X127850537Y-80746494D01*
X127909502Y-80636180D01*
X127945812Y-80516482D01*
X127958072Y-80392000D01*
X127956479Y-78103458D01*
X127974063Y-78129774D01*
X128118226Y-78273937D01*
X128287744Y-78387205D01*
X128476102Y-78465226D01*
X128676061Y-78505000D01*
X128879939Y-78505000D01*
X129079898Y-78465226D01*
X129091272Y-78460515D01*
X129089928Y-80392000D01*
X129102188Y-80516482D01*
X129138498Y-80636180D01*
X129197463Y-80746494D01*
X129276815Y-80843185D01*
X129373506Y-80922537D01*
X129483820Y-80981502D01*
X129603518Y-81017812D01*
X129728000Y-81030072D01*
X134842250Y-81027000D01*
X135001000Y-80868250D01*
X135001000Y-75819000D01*
X135255000Y-75819000D01*
X135255000Y-80868250D01*
X135413750Y-81027000D01*
X140528000Y-81030072D01*
X140652482Y-81017812D01*
X140772180Y-80981502D01*
X140882494Y-80922537D01*
X140979185Y-80843185D01*
X141058537Y-80746494D01*
X141117502Y-80636180D01*
X141153812Y-80516482D01*
X141166072Y-80392000D01*
X141163000Y-75977750D01*
X141004250Y-75819000D01*
X135255000Y-75819000D01*
X135001000Y-75819000D01*
X134981000Y-75819000D01*
X134981000Y-75565000D01*
X135001000Y-75565000D01*
X135001000Y-75545000D01*
X135255000Y-75545000D01*
X135255000Y-75565000D01*
X141004250Y-75565000D01*
X141163000Y-75406250D01*
X141164510Y-73236000D01*
X143271928Y-73236000D01*
X143284188Y-73360482D01*
X143320498Y-73480180D01*
X143379463Y-73590494D01*
X143458815Y-73687185D01*
X143555506Y-73766537D01*
X143665820Y-73825502D01*
X143785518Y-73861812D01*
X143910000Y-73874072D01*
X144494250Y-73871000D01*
X144653000Y-73712250D01*
X144653000Y-72263000D01*
X143433750Y-72263000D01*
X143275000Y-72421750D01*
X143271928Y-73236000D01*
X141164510Y-73236000D01*
X141166072Y-70992000D01*
X141153812Y-70867518D01*
X141152745Y-70864000D01*
X143298602Y-70864000D01*
X143284188Y-70911518D01*
X143271928Y-71036000D01*
X143275000Y-71850250D01*
X143433750Y-72009000D01*
X144653000Y-72009000D01*
X144653000Y-71989000D01*
X144907000Y-71989000D01*
X144907000Y-72009000D01*
X144927000Y-72009000D01*
X144927000Y-72263000D01*
X144907000Y-72263000D01*
X144907000Y-73712250D01*
X145065750Y-73871000D01*
X145650000Y-73874072D01*
X145774482Y-73861812D01*
X145894180Y-73825502D01*
X146004494Y-73766537D01*
X146101185Y-73687185D01*
X146180537Y-73590494D01*
X146239502Y-73480180D01*
X146252615Y-73436953D01*
X146479822Y-73623417D01*
X146560001Y-73666273D01*
X146560000Y-75337009D01*
X144268998Y-77628013D01*
X144240000Y-77651811D01*
X144216202Y-77680809D01*
X144216201Y-77680810D01*
X144145026Y-77767536D01*
X144074454Y-77899566D01*
X144056045Y-77960256D01*
X144034810Y-78030258D01*
X143986745Y-78034992D01*
X143820149Y-78085528D01*
X143666613Y-78167595D01*
X143532038Y-78278038D01*
X143421595Y-78412613D01*
X143339528Y-78566149D01*
X143288992Y-78732745D01*
X143271928Y-78905999D01*
X143271928Y-80606001D01*
X143288992Y-80779255D01*
X143339528Y-80945851D01*
X143421595Y-81099387D01*
X143532038Y-81233962D01*
X143666613Y-81344405D01*
X143820149Y-81426472D01*
X143986745Y-81477008D01*
X144159999Y-81494072D01*
X145400001Y-81494072D01*
X145573255Y-81477008D01*
X145739851Y-81426472D01*
X145893387Y-81344405D01*
X146027962Y-81233962D01*
X146138405Y-81099387D01*
X146196934Y-80989886D01*
X146250655Y-81055345D01*
X146479822Y-81243417D01*
X146741276Y-81383166D01*
X147024969Y-81469224D01*
X147320000Y-81498282D01*
X147615032Y-81469224D01*
X147898725Y-81383166D01*
X148160179Y-81243417D01*
X148389345Y-81055345D01*
X148552943Y-80856000D01*
X149875928Y-80856000D01*
X149888188Y-80980482D01*
X149924498Y-81100180D01*
X149983463Y-81210494D01*
X150062815Y-81307185D01*
X150159506Y-81386537D01*
X150269820Y-81445502D01*
X150389518Y-81481812D01*
X150514000Y-81494072D01*
X151098250Y-81491000D01*
X151257000Y-81332250D01*
X151257000Y-79883000D01*
X150037750Y-79883000D01*
X149879000Y-80041750D01*
X149875928Y-80856000D01*
X148552943Y-80856000D01*
X148577417Y-80826179D01*
X148717166Y-80564724D01*
X148803224Y-80281031D01*
X148825000Y-80059935D01*
X148825000Y-79452064D01*
X148803224Y-79230968D01*
X148717166Y-78947275D01*
X148577417Y-78685821D01*
X148552944Y-78656000D01*
X149875928Y-78656000D01*
X149879000Y-79470250D01*
X150037750Y-79629000D01*
X151257000Y-79629000D01*
X151257000Y-78179750D01*
X151511000Y-78179750D01*
X151511000Y-79629000D01*
X151531000Y-79629000D01*
X151531000Y-79883000D01*
X151511000Y-79883000D01*
X151511000Y-81332250D01*
X151669750Y-81491000D01*
X152254000Y-81494072D01*
X152378482Y-81481812D01*
X152498180Y-81445502D01*
X152608494Y-81386537D01*
X152705185Y-81307185D01*
X152784537Y-81210494D01*
X152843502Y-81100180D01*
X152856615Y-81056953D01*
X153083822Y-81243417D01*
X153345276Y-81383166D01*
X153628969Y-81469224D01*
X153924000Y-81498282D01*
X154219032Y-81469224D01*
X154502725Y-81383166D01*
X154764179Y-81243417D01*
X154993345Y-81055345D01*
X155181417Y-80826179D01*
X155321166Y-80564724D01*
X155407224Y-80281031D01*
X155429000Y-80059935D01*
X155429000Y-79452064D01*
X155407224Y-79230968D01*
X155321166Y-78947275D01*
X155181417Y-78685821D01*
X154993345Y-78456655D01*
X154764178Y-78268583D01*
X154502724Y-78128834D01*
X154219031Y-78042776D01*
X153924000Y-78013718D01*
X153628968Y-78042776D01*
X153345275Y-78128834D01*
X153083821Y-78268583D01*
X152856615Y-78455047D01*
X152843502Y-78411820D01*
X152784537Y-78301506D01*
X152705185Y-78204815D01*
X152608494Y-78125463D01*
X152498180Y-78066498D01*
X152378482Y-78030188D01*
X152254000Y-78017928D01*
X151669750Y-78021000D01*
X151511000Y-78179750D01*
X151257000Y-78179750D01*
X151098250Y-78021000D01*
X150514000Y-78017928D01*
X150389518Y-78030188D01*
X150269820Y-78066498D01*
X150159506Y-78125463D01*
X150062815Y-78204815D01*
X149983463Y-78301506D01*
X149924498Y-78411820D01*
X149888188Y-78531518D01*
X149875928Y-78656000D01*
X148552944Y-78656000D01*
X148389345Y-78456655D01*
X148160178Y-78268583D01*
X147898724Y-78128834D01*
X147615031Y-78042776D01*
X147320000Y-78013718D01*
X147024968Y-78042776D01*
X146741275Y-78128834D01*
X146479821Y-78268583D01*
X146250655Y-78456655D01*
X146196935Y-78522114D01*
X146138405Y-78412613D01*
X146027962Y-78278038D01*
X145893387Y-78167595D01*
X145884023Y-78162590D01*
X147831009Y-76215606D01*
X147860001Y-76191813D01*
X147883795Y-76162820D01*
X147883799Y-76162816D01*
X147954973Y-76076089D01*
X147954974Y-76076088D01*
X148025546Y-75944059D01*
X148069003Y-75800798D01*
X148080000Y-75689145D01*
X148080000Y-75689136D01*
X148083676Y-75651813D01*
X148080000Y-75614490D01*
X148080000Y-73666273D01*
X148160179Y-73623417D01*
X148389345Y-73435345D01*
X148552943Y-73236000D01*
X149875928Y-73236000D01*
X149888188Y-73360482D01*
X149924498Y-73480180D01*
X149983463Y-73590494D01*
X150062815Y-73687185D01*
X150159506Y-73766537D01*
X150269820Y-73825502D01*
X150389518Y-73861812D01*
X150514000Y-73874072D01*
X151098250Y-73871000D01*
X151257000Y-73712250D01*
X151257000Y-72263000D01*
X150037750Y-72263000D01*
X149879000Y-72421750D01*
X149875928Y-73236000D01*
X148552943Y-73236000D01*
X148577417Y-73206179D01*
X148717166Y-72944724D01*
X148803224Y-72661031D01*
X148825000Y-72439935D01*
X148825000Y-71832064D01*
X148803224Y-71610968D01*
X148717166Y-71327275D01*
X148577417Y-71065821D01*
X148552944Y-71036000D01*
X149875928Y-71036000D01*
X149879000Y-71850250D01*
X150037750Y-72009000D01*
X151257000Y-72009000D01*
X151257000Y-70559750D01*
X151098250Y-70401000D01*
X150514000Y-70397928D01*
X150389518Y-70410188D01*
X150269820Y-70446498D01*
X150159506Y-70505463D01*
X150062815Y-70584815D01*
X149983463Y-70681506D01*
X149924498Y-70791820D01*
X149888188Y-70911518D01*
X149875928Y-71036000D01*
X148552944Y-71036000D01*
X148389345Y-70836655D01*
X148160178Y-70648583D01*
X148055548Y-70592657D01*
X148025546Y-70493753D01*
X147954974Y-70361724D01*
X147860001Y-70245999D01*
X147831004Y-70222202D01*
X147201803Y-69593002D01*
X147178001Y-69563999D01*
X147062276Y-69469026D01*
X146930247Y-69398454D01*
X146786986Y-69354997D01*
X146675333Y-69344000D01*
X146675322Y-69344000D01*
X146638000Y-69340324D01*
X146600678Y-69344000D01*
X140989000Y-69344000D01*
X140989000Y-69240061D01*
X140949226Y-69040102D01*
X140871205Y-68851744D01*
X140757937Y-68682226D01*
X140613774Y-68538063D01*
X140444256Y-68424795D01*
X140255898Y-68346774D01*
X140055939Y-68307000D01*
X139852061Y-68307000D01*
X139716072Y-68334050D01*
X139716072Y-66800000D01*
X141028289Y-66800000D01*
X141072226Y-66843937D01*
X141241744Y-66957205D01*
X141430102Y-67035226D01*
X141630061Y-67075000D01*
X141833939Y-67075000D01*
X142033898Y-67035226D01*
X142222256Y-66957205D01*
X142391774Y-66843937D01*
X142535937Y-66699774D01*
X142649205Y-66530256D01*
X142727226Y-66341898D01*
X142767000Y-66141939D01*
X142767000Y-65938061D01*
X142727226Y-65738102D01*
X142649205Y-65549744D01*
X142535937Y-65380226D01*
X142492000Y-65336289D01*
X142492000Y-64110072D01*
X142532000Y-64110072D01*
X142656482Y-64097812D01*
X142776180Y-64061502D01*
X142886494Y-64002537D01*
X142983185Y-63923185D01*
X143062537Y-63826494D01*
X143121502Y-63716180D01*
X143157812Y-63596482D01*
X143170072Y-63472000D01*
X143170072Y-59972000D01*
X143157812Y-59847518D01*
X143121502Y-59727820D01*
X143062537Y-59617506D01*
X142983185Y-59520815D01*
X142886494Y-59441463D01*
X142776180Y-59382498D01*
X142656482Y-59346188D01*
X142532000Y-59333928D01*
X140932000Y-59333928D01*
X140807518Y-59346188D01*
X140687820Y-59382498D01*
X140577506Y-59441463D01*
X140480815Y-59520815D01*
X140401463Y-59617506D01*
X140342498Y-59727820D01*
X140306188Y-59847518D01*
X140293928Y-59972000D01*
X140293928Y-63472000D01*
X140306188Y-63596482D01*
X140342498Y-63716180D01*
X140401463Y-63826494D01*
X140480815Y-63923185D01*
X140577506Y-64002537D01*
X140687820Y-64061502D01*
X140807518Y-64097812D01*
X140932000Y-64110072D01*
X140972000Y-64110072D01*
X140972000Y-65280000D01*
X139716072Y-65280000D01*
X139716072Y-64242000D01*
X139703812Y-64117518D01*
X139667502Y-63997820D01*
X139608537Y-63887506D01*
X139529185Y-63790815D01*
X139432494Y-63711463D01*
X139322180Y-63652498D01*
X139202482Y-63616188D01*
X139078000Y-63603928D01*
X137986120Y-63603928D01*
X138036537Y-63542494D01*
X138095502Y-63432180D01*
X138131812Y-63312482D01*
X138144072Y-63188000D01*
X138144072Y-62288000D01*
X138131812Y-62163518D01*
X138095502Y-62043820D01*
X138036537Y-61933506D01*
X137957185Y-61836815D01*
X137860494Y-61757463D01*
X137750180Y-61698498D01*
X137630482Y-61662188D01*
X137506000Y-61649928D01*
X136306000Y-61649928D01*
X136181518Y-61662188D01*
X136061820Y-61698498D01*
X135951506Y-61757463D01*
X135854815Y-61836815D01*
X135775463Y-61933506D01*
X135716498Y-62043820D01*
X135680188Y-62163518D01*
X135667928Y-62288000D01*
X135667928Y-63188000D01*
X135680188Y-63312482D01*
X135716498Y-63432180D01*
X135775463Y-63542494D01*
X135847033Y-63629702D01*
X135802482Y-63616188D01*
X135678000Y-63603928D01*
X135413750Y-63607000D01*
X135255000Y-63765750D01*
X135255000Y-66415000D01*
X135275000Y-66415000D01*
X135275000Y-66669000D01*
X135255000Y-66669000D01*
X135255000Y-66689000D01*
X135001000Y-66689000D01*
X135001000Y-66669000D01*
X134981000Y-66669000D01*
X134981000Y-66415000D01*
X135001000Y-66415000D01*
X135001000Y-63778468D01*
X135029205Y-63736256D01*
X135107226Y-63547898D01*
X135147000Y-63347939D01*
X135147000Y-63144061D01*
X135107226Y-62944102D01*
X135029205Y-62755744D01*
X134915937Y-62586226D01*
X134872000Y-62542289D01*
X134872000Y-59888000D01*
X135667928Y-59888000D01*
X135680188Y-60012482D01*
X135716498Y-60132180D01*
X135775463Y-60242494D01*
X135854815Y-60339185D01*
X135951506Y-60418537D01*
X136061820Y-60477502D01*
X136181518Y-60513812D01*
X136306000Y-60526072D01*
X136620250Y-60523000D01*
X136779000Y-60364250D01*
X136779000Y-59565000D01*
X137033000Y-59565000D01*
X137033000Y-60364250D01*
X137191750Y-60523000D01*
X137506000Y-60526072D01*
X137630482Y-60513812D01*
X137750180Y-60477502D01*
X137860494Y-60418537D01*
X137957185Y-60339185D01*
X138036537Y-60242494D01*
X138095502Y-60132180D01*
X138131812Y-60012482D01*
X138144072Y-59888000D01*
X138141000Y-59723750D01*
X137982250Y-59565000D01*
X137033000Y-59565000D01*
X136779000Y-59565000D01*
X135829750Y-59565000D01*
X135671000Y-59723750D01*
X135667928Y-59888000D01*
X134872000Y-59888000D01*
X134872000Y-58988000D01*
X135667928Y-58988000D01*
X135671000Y-59152250D01*
X135829750Y-59311000D01*
X136779000Y-59311000D01*
X136779000Y-58511750D01*
X137033000Y-58511750D01*
X137033000Y-59311000D01*
X137982250Y-59311000D01*
X138141000Y-59152250D01*
X138144072Y-58988000D01*
X138131812Y-58863518D01*
X138095502Y-58743820D01*
X138036537Y-58633506D01*
X137957185Y-58536815D01*
X137860494Y-58457463D01*
X137750180Y-58398498D01*
X137630482Y-58362188D01*
X137506000Y-58349928D01*
X137191750Y-58353000D01*
X137033000Y-58511750D01*
X136779000Y-58511750D01*
X136620250Y-58353000D01*
X136306000Y-58349928D01*
X136181518Y-58362188D01*
X136061820Y-58398498D01*
X135951506Y-58457463D01*
X135854815Y-58536815D01*
X135775463Y-58633506D01*
X135716498Y-58743820D01*
X135680188Y-58863518D01*
X135667928Y-58988000D01*
X134872000Y-58988000D01*
X134872000Y-58072000D01*
X140293928Y-58072000D01*
X140306188Y-58196482D01*
X140342498Y-58316180D01*
X140401463Y-58426494D01*
X140480815Y-58523185D01*
X140577506Y-58602537D01*
X140687820Y-58661502D01*
X140807518Y-58697812D01*
X140932000Y-58710072D01*
X141446250Y-58707000D01*
X141605000Y-58548250D01*
X141605000Y-56449000D01*
X141859000Y-56449000D01*
X141859000Y-58548250D01*
X142017750Y-58707000D01*
X142532000Y-58710072D01*
X142656482Y-58697812D01*
X142776180Y-58661502D01*
X142886494Y-58602537D01*
X142983185Y-58523185D01*
X143062537Y-58426494D01*
X143121502Y-58316180D01*
X143157812Y-58196482D01*
X143170072Y-58072000D01*
X143167000Y-56607750D01*
X143008250Y-56449000D01*
X141859000Y-56449000D01*
X141605000Y-56449000D01*
X140455750Y-56449000D01*
X140297000Y-56607750D01*
X140293928Y-58072000D01*
X134872000Y-58072000D01*
X134872000Y-57506072D01*
X136378000Y-57506072D01*
X136502482Y-57493812D01*
X136622180Y-57457502D01*
X136732494Y-57398537D01*
X136829185Y-57319185D01*
X136908537Y-57222494D01*
X136967502Y-57112180D01*
X137003812Y-56992482D01*
X137016072Y-56868000D01*
X137016072Y-54572000D01*
X140293928Y-54572000D01*
X140297000Y-56036250D01*
X140455750Y-56195000D01*
X141605000Y-56195000D01*
X141605000Y-54095750D01*
X141859000Y-54095750D01*
X141859000Y-56195000D01*
X143008250Y-56195000D01*
X143167000Y-56036250D01*
X143170072Y-54572000D01*
X143157812Y-54447518D01*
X143121502Y-54327820D01*
X143062537Y-54217506D01*
X142983185Y-54120815D01*
X142886494Y-54041463D01*
X142776180Y-53982498D01*
X142656482Y-53946188D01*
X142532000Y-53933928D01*
X142017750Y-53937000D01*
X141859000Y-54095750D01*
X141605000Y-54095750D01*
X141446250Y-53937000D01*
X140932000Y-53933928D01*
X140807518Y-53946188D01*
X140687820Y-53982498D01*
X140577506Y-54041463D01*
X140480815Y-54120815D01*
X140401463Y-54217506D01*
X140342498Y-54327820D01*
X140306188Y-54447518D01*
X140293928Y-54572000D01*
X137016072Y-54572000D01*
X137016072Y-53368000D01*
X137003812Y-53243518D01*
X136967502Y-53123820D01*
X136908537Y-53013506D01*
X136829185Y-52916815D01*
X136732494Y-52837463D01*
X136622180Y-52778498D01*
X136502482Y-52742188D01*
X136378000Y-52729928D01*
X133878000Y-52729928D01*
X133753518Y-52742188D01*
X133633820Y-52778498D01*
X133523506Y-52837463D01*
X133426815Y-52916815D01*
X133347463Y-53013506D01*
X133288498Y-53123820D01*
X133252188Y-53243518D01*
X133239928Y-53368000D01*
X133239928Y-56868000D01*
X133252188Y-56992482D01*
X133288498Y-57112180D01*
X133347463Y-57222494D01*
X133352001Y-57228023D01*
X133352000Y-62542289D01*
X133308063Y-62586226D01*
X133194795Y-62755744D01*
X133116774Y-62944102D01*
X133077000Y-63144061D01*
X133077000Y-63206199D01*
X132916998Y-63366201D01*
X132888000Y-63389999D01*
X132864202Y-63418997D01*
X132864201Y-63418998D01*
X132793026Y-63505724D01*
X132730201Y-63623261D01*
X132633820Y-63652498D01*
X132578000Y-63682335D01*
X132522180Y-63652498D01*
X132402482Y-63616188D01*
X132278000Y-63603928D01*
X132013750Y-63607000D01*
X131855000Y-63765750D01*
X131855000Y-66415000D01*
X131875000Y-66415000D01*
X131875000Y-66669000D01*
X131855000Y-66669000D01*
X131855000Y-66689000D01*
X131601000Y-66689000D01*
X131601000Y-66669000D01*
X130701750Y-66669000D01*
X130543000Y-66827750D01*
X130539928Y-68842000D01*
X130552188Y-68966482D01*
X130588498Y-69086180D01*
X130647463Y-69196494D01*
X130726815Y-69293185D01*
X130788733Y-69344000D01*
X128561333Y-69344000D01*
X128524000Y-69340323D01*
X128486667Y-69344000D01*
X128375014Y-69354997D01*
X128231753Y-69398454D01*
X128099724Y-69469026D01*
X127983999Y-69563999D01*
X127889026Y-69679724D01*
X127818454Y-69811753D01*
X127774997Y-69955014D01*
X127760323Y-70104000D01*
X127764000Y-70141332D01*
X127764000Y-70534919D01*
X127674494Y-70461463D01*
X127564180Y-70402498D01*
X127444482Y-70366188D01*
X127320000Y-70353928D01*
X126481463Y-70354432D01*
X126511000Y-70205939D01*
X126511000Y-70002061D01*
X126471226Y-69802102D01*
X126393205Y-69613744D01*
X126279937Y-69444226D01*
X126213907Y-69378196D01*
X126224494Y-69372537D01*
X126321185Y-69293185D01*
X126400537Y-69196494D01*
X126459502Y-69086180D01*
X126495812Y-68966482D01*
X126508072Y-68842000D01*
X126508072Y-66800000D01*
X127820289Y-66800000D01*
X127864226Y-66843937D01*
X128033744Y-66957205D01*
X128222102Y-67035226D01*
X128422061Y-67075000D01*
X128625939Y-67075000D01*
X128825898Y-67035226D01*
X129014256Y-66957205D01*
X129183774Y-66843937D01*
X129327937Y-66699774D01*
X129441205Y-66530256D01*
X129519226Y-66341898D01*
X129559000Y-66141939D01*
X129559000Y-65938061D01*
X129519226Y-65738102D01*
X129441205Y-65549744D01*
X129327937Y-65380226D01*
X129284000Y-65336289D01*
X129284000Y-64242000D01*
X130539928Y-64242000D01*
X130543000Y-66256250D01*
X130701750Y-66415000D01*
X131601000Y-66415000D01*
X131601000Y-63765750D01*
X131442250Y-63607000D01*
X131178000Y-63603928D01*
X131053518Y-63616188D01*
X130933820Y-63652498D01*
X130823506Y-63711463D01*
X130726815Y-63790815D01*
X130647463Y-63887506D01*
X130588498Y-63997820D01*
X130552188Y-64117518D01*
X130539928Y-64242000D01*
X129284000Y-64242000D01*
X129284000Y-64110072D01*
X129324000Y-64110072D01*
X129448482Y-64097812D01*
X129568180Y-64061502D01*
X129678494Y-64002537D01*
X129775185Y-63923185D01*
X129854537Y-63826494D01*
X129913502Y-63716180D01*
X129949812Y-63596482D01*
X129962072Y-63472000D01*
X129962072Y-59972000D01*
X129949812Y-59847518D01*
X129913502Y-59727820D01*
X129854537Y-59617506D01*
X129775185Y-59520815D01*
X129678494Y-59441463D01*
X129568180Y-59382498D01*
X129448482Y-59346188D01*
X129324000Y-59333928D01*
X127724000Y-59333928D01*
X127599518Y-59346188D01*
X127479820Y-59382498D01*
X127369506Y-59441463D01*
X127272815Y-59520815D01*
X127193463Y-59617506D01*
X127134498Y-59727820D01*
X127098188Y-59847518D01*
X127085928Y-59972000D01*
X127085928Y-63472000D01*
X127098188Y-63596482D01*
X127134498Y-63716180D01*
X127193463Y-63826494D01*
X127272815Y-63923185D01*
X127369506Y-64002537D01*
X127479820Y-64061502D01*
X127599518Y-64097812D01*
X127724000Y-64110072D01*
X127764000Y-64110072D01*
X127764001Y-65280000D01*
X126508072Y-65280000D01*
X126508072Y-64242000D01*
X126495812Y-64117518D01*
X126459502Y-63997820D01*
X126400537Y-63887506D01*
X126321185Y-63790815D01*
X126224494Y-63711463D01*
X126114180Y-63652498D01*
X125994482Y-63616188D01*
X125870000Y-63603928D01*
X124776478Y-63603928D01*
X124828537Y-63540494D01*
X124887502Y-63430180D01*
X124923812Y-63310482D01*
X124936072Y-63186000D01*
X124936072Y-62286000D01*
X124923812Y-62161518D01*
X124887502Y-62041820D01*
X124828537Y-61931506D01*
X124749185Y-61834815D01*
X124652494Y-61755463D01*
X124542180Y-61696498D01*
X124422482Y-61660188D01*
X124298000Y-61647928D01*
X123098000Y-61647928D01*
X122973518Y-61660188D01*
X122853820Y-61696498D01*
X122743506Y-61755463D01*
X122646815Y-61834815D01*
X122567463Y-61931506D01*
X122508498Y-62041820D01*
X122472188Y-62161518D01*
X122459928Y-62286000D01*
X122459928Y-63186000D01*
X122472188Y-63310482D01*
X122508498Y-63430180D01*
X122567463Y-63540494D01*
X122641218Y-63630365D01*
X122594482Y-63616188D01*
X122470000Y-63603928D01*
X122205750Y-63607000D01*
X122047000Y-63765750D01*
X121793000Y-63765750D01*
X121634250Y-63607000D01*
X121370000Y-63603928D01*
X121245518Y-63616188D01*
X121125820Y-63652498D01*
X121084822Y-63674412D01*
X121137226Y-63547898D01*
X121177000Y-63347939D01*
X121177000Y-63144061D01*
X121137226Y-62944102D01*
X121059205Y-62755744D01*
X120945937Y-62586226D01*
X120902000Y-62542289D01*
X120902000Y-59886000D01*
X122459928Y-59886000D01*
X122472188Y-60010482D01*
X122508498Y-60130180D01*
X122567463Y-60240494D01*
X122646815Y-60337185D01*
X122743506Y-60416537D01*
X122853820Y-60475502D01*
X122973518Y-60511812D01*
X123098000Y-60524072D01*
X123412250Y-60521000D01*
X123571000Y-60362250D01*
X123571000Y-59563000D01*
X123825000Y-59563000D01*
X123825000Y-60362250D01*
X123983750Y-60521000D01*
X124298000Y-60524072D01*
X124422482Y-60511812D01*
X124542180Y-60475502D01*
X124652494Y-60416537D01*
X124749185Y-60337185D01*
X124828537Y-60240494D01*
X124887502Y-60130180D01*
X124923812Y-60010482D01*
X124936072Y-59886000D01*
X124933000Y-59721750D01*
X124774250Y-59563000D01*
X123825000Y-59563000D01*
X123571000Y-59563000D01*
X122621750Y-59563000D01*
X122463000Y-59721750D01*
X122459928Y-59886000D01*
X120902000Y-59886000D01*
X120902000Y-58986000D01*
X122459928Y-58986000D01*
X122463000Y-59150250D01*
X122621750Y-59309000D01*
X123571000Y-59309000D01*
X123571000Y-58509750D01*
X123825000Y-58509750D01*
X123825000Y-59309000D01*
X124774250Y-59309000D01*
X124933000Y-59150250D01*
X124936072Y-58986000D01*
X124923812Y-58861518D01*
X124887502Y-58741820D01*
X124828537Y-58631506D01*
X124749185Y-58534815D01*
X124652494Y-58455463D01*
X124542180Y-58396498D01*
X124422482Y-58360188D01*
X124298000Y-58347928D01*
X123983750Y-58351000D01*
X123825000Y-58509750D01*
X123571000Y-58509750D01*
X123412250Y-58351000D01*
X123098000Y-58347928D01*
X122973518Y-58360188D01*
X122853820Y-58396498D01*
X122743506Y-58455463D01*
X122646815Y-58534815D01*
X122567463Y-58631506D01*
X122508498Y-58741820D01*
X122472188Y-58861518D01*
X122459928Y-58986000D01*
X120902000Y-58986000D01*
X120902000Y-58072000D01*
X127085928Y-58072000D01*
X127098188Y-58196482D01*
X127134498Y-58316180D01*
X127193463Y-58426494D01*
X127272815Y-58523185D01*
X127369506Y-58602537D01*
X127479820Y-58661502D01*
X127599518Y-58697812D01*
X127724000Y-58710072D01*
X128238250Y-58707000D01*
X128397000Y-58548250D01*
X128397000Y-56449000D01*
X128651000Y-56449000D01*
X128651000Y-58548250D01*
X128809750Y-58707000D01*
X129324000Y-58710072D01*
X129448482Y-58697812D01*
X129568180Y-58661502D01*
X129678494Y-58602537D01*
X129775185Y-58523185D01*
X129854537Y-58426494D01*
X129913502Y-58316180D01*
X129949812Y-58196482D01*
X129962072Y-58072000D01*
X129959000Y-56607750D01*
X129800250Y-56449000D01*
X128651000Y-56449000D01*
X128397000Y-56449000D01*
X127247750Y-56449000D01*
X127089000Y-56607750D01*
X127085928Y-58072000D01*
X120902000Y-58072000D01*
X120902000Y-57252072D01*
X123170000Y-57252072D01*
X123294482Y-57239812D01*
X123414180Y-57203502D01*
X123524494Y-57144537D01*
X123621185Y-57065185D01*
X123700537Y-56968494D01*
X123759502Y-56858180D01*
X123795812Y-56738482D01*
X123808072Y-56614000D01*
X123808072Y-54572000D01*
X127085928Y-54572000D01*
X127089000Y-56036250D01*
X127247750Y-56195000D01*
X128397000Y-56195000D01*
X128397000Y-54095750D01*
X128651000Y-54095750D01*
X128651000Y-56195000D01*
X129800250Y-56195000D01*
X129959000Y-56036250D01*
X129962072Y-54572000D01*
X129949812Y-54447518D01*
X129913502Y-54327820D01*
X129854537Y-54217506D01*
X129775185Y-54120815D01*
X129678494Y-54041463D01*
X129568180Y-53982498D01*
X129448482Y-53946188D01*
X129324000Y-53933928D01*
X128809750Y-53937000D01*
X128651000Y-54095750D01*
X128397000Y-54095750D01*
X128238250Y-53937000D01*
X127724000Y-53933928D01*
X127599518Y-53946188D01*
X127479820Y-53982498D01*
X127369506Y-54041463D01*
X127272815Y-54120815D01*
X127193463Y-54217506D01*
X127134498Y-54327820D01*
X127098188Y-54447518D01*
X127085928Y-54572000D01*
X123808072Y-54572000D01*
X123808072Y-53114000D01*
X123795812Y-52989518D01*
X123759502Y-52869820D01*
X123700537Y-52759506D01*
X123621185Y-52662815D01*
X123524494Y-52583463D01*
X123414180Y-52524498D01*
X123294482Y-52488188D01*
X123170000Y-52475928D01*
X120670000Y-52475928D01*
X120545518Y-52488188D01*
X120544221Y-52488581D01*
X120964803Y-52068000D01*
X145735199Y-52068000D01*
X146560001Y-52892803D01*
X146560000Y-60414678D01*
X146556324Y-60452000D01*
X146560000Y-60489322D01*
X146560000Y-60489332D01*
X146570997Y-60600985D01*
X146591251Y-60667754D01*
X146614454Y-60744246D01*
X146685026Y-60876276D01*
X146724871Y-60924826D01*
X146779999Y-60992001D01*
X146809003Y-61015804D01*
X153164001Y-67370803D01*
X153164000Y-70605727D01*
X153083821Y-70648583D01*
X152856615Y-70835047D01*
X152843502Y-70791820D01*
X152784537Y-70681506D01*
X152705185Y-70584815D01*
X152608494Y-70505463D01*
X152498180Y-70446498D01*
X152378482Y-70410188D01*
X152254000Y-70397928D01*
X151669750Y-70401000D01*
X151511000Y-70559750D01*
X151511000Y-72009000D01*
X151531000Y-72009000D01*
X151531000Y-72263000D01*
X151511000Y-72263000D01*
X151511000Y-73712250D01*
X151669750Y-73871000D01*
X152254000Y-73874072D01*
X152378482Y-73861812D01*
X152498180Y-73825502D01*
X152608494Y-73766537D01*
X152705185Y-73687185D01*
X152784537Y-73590494D01*
X152843502Y-73480180D01*
X152856615Y-73436953D01*
X153083822Y-73623417D01*
X153345276Y-73763166D01*
X153628969Y-73849224D01*
X153924000Y-73878282D01*
X154219032Y-73849224D01*
X154502725Y-73763166D01*
X154764179Y-73623417D01*
X154993345Y-73435345D01*
X155181417Y-73206179D01*
X155321166Y-72944724D01*
X155407224Y-72661031D01*
X155429000Y-72439935D01*
X155429000Y-71832064D01*
X155407224Y-71610968D01*
X155321166Y-71327275D01*
X155181417Y-71065821D01*
X154993345Y-70836655D01*
X154764178Y-70648583D01*
X154684000Y-70605727D01*
X154684000Y-67093322D01*
X154687676Y-67055999D01*
X154684000Y-67018676D01*
X154684000Y-67018667D01*
X154673003Y-66907014D01*
X154629546Y-66763753D01*
X154558974Y-66631724D01*
X154464001Y-66515999D01*
X154435003Y-66492201D01*
X148080000Y-60137199D01*
X148080000Y-52615322D01*
X148083676Y-52577999D01*
X148080000Y-52540676D01*
X148080000Y-52540667D01*
X148069003Y-52429014D01*
X148025546Y-52285753D01*
X147954974Y-52153724D01*
X147860001Y-52037999D01*
X147831003Y-52014201D01*
X146613804Y-50797003D01*
X146590001Y-50767999D01*
X146474276Y-50673026D01*
X146342247Y-50602454D01*
X146198986Y-50558997D01*
X146087333Y-50548000D01*
X146087322Y-50548000D01*
X146050000Y-50544324D01*
X146012678Y-50548000D01*
X136986971Y-50548000D01*
X136989253Y-50540475D01*
X149765000Y-50540475D01*
X149765000Y-51059525D01*
X149866261Y-51568601D01*
X150064893Y-52048141D01*
X150353262Y-52479715D01*
X150720285Y-52846738D01*
X151151859Y-53135107D01*
X151631399Y-53333739D01*
X152140475Y-53435000D01*
X152659525Y-53435000D01*
X153168601Y-53333739D01*
X153648141Y-53135107D01*
X154079715Y-52846738D01*
X154446738Y-52479715D01*
X154735107Y-52048141D01*
X154933739Y-51568601D01*
X155035000Y-51059525D01*
X155035000Y-50540475D01*
X154933739Y-50031399D01*
X154735107Y-49551859D01*
X154446738Y-49120285D01*
X154079715Y-48753262D01*
X153648141Y-48464893D01*
X153168601Y-48266261D01*
X152659525Y-48165000D01*
X152140475Y-48165000D01*
X151631399Y-48266261D01*
X151151859Y-48464893D01*
X150720285Y-48753262D01*
X150353262Y-49120285D01*
X150064893Y-49551859D01*
X149866261Y-50031399D01*
X149765000Y-50540475D01*
X136989253Y-50540475D01*
X137003812Y-50492482D01*
X137016072Y-50368000D01*
X137013000Y-48903750D01*
X136854250Y-48745000D01*
X135255000Y-48745000D01*
X135255000Y-48765000D01*
X135001000Y-48765000D01*
X135001000Y-48745000D01*
X133401750Y-48745000D01*
X133243000Y-48903750D01*
X133239928Y-50368000D01*
X133252188Y-50492482D01*
X133269029Y-50548000D01*
X123635288Y-50548000D01*
X123700537Y-50468494D01*
X123759502Y-50358180D01*
X123795812Y-50238482D01*
X123808072Y-50114000D01*
X123805000Y-48649750D01*
X123646250Y-48491000D01*
X122047000Y-48491000D01*
X122047000Y-48511000D01*
X121793000Y-48511000D01*
X121793000Y-48491000D01*
X120193750Y-48491000D01*
X120035000Y-48649750D01*
X120031928Y-50114000D01*
X120044188Y-50238482D01*
X120080498Y-50358180D01*
X120139463Y-50468494D01*
X120218815Y-50565185D01*
X120301116Y-50632728D01*
X120225724Y-50673026D01*
X120225722Y-50673027D01*
X120225723Y-50673027D01*
X120138996Y-50744201D01*
X120138992Y-50744205D01*
X120109999Y-50767999D01*
X120086205Y-50796992D01*
X117795199Y-53088000D01*
X114829862Y-53088000D01*
X115039714Y-53004079D01*
X115193089Y-52693160D01*
X115282860Y-52358295D01*
X115305576Y-52012350D01*
X115260366Y-51668620D01*
X115148966Y-51340315D01*
X115039714Y-51135921D01*
X114762531Y-51025074D01*
X113717605Y-52070000D01*
X113731748Y-52084143D01*
X113552143Y-52263748D01*
X113538000Y-52249605D01*
X113523858Y-52263748D01*
X113344253Y-52084143D01*
X113358395Y-52070000D01*
X112313469Y-51025074D01*
X112036286Y-51135921D01*
X111882911Y-51446840D01*
X111793140Y-51781705D01*
X111770424Y-52127650D01*
X111815634Y-52471380D01*
X111927034Y-52799685D01*
X112036286Y-53004079D01*
X112246138Y-53088000D01*
X111543322Y-53088000D01*
X111505999Y-53084324D01*
X111468676Y-53088000D01*
X111468667Y-53088000D01*
X111357014Y-53098997D01*
X111215912Y-53141799D01*
X111213753Y-53142454D01*
X111081723Y-53213026D01*
X111044569Y-53243518D01*
X110965999Y-53307999D01*
X110942201Y-53336997D01*
X105857199Y-58422000D01*
X105447333Y-58422000D01*
X105410000Y-58418323D01*
X105372667Y-58422000D01*
X105261014Y-58432997D01*
X105117753Y-58476454D01*
X104985724Y-58547026D01*
X104869999Y-58641999D01*
X104775026Y-58757724D01*
X104704454Y-58889753D01*
X104660997Y-59033014D01*
X104646323Y-59182000D01*
X104650000Y-59219333D01*
X104650001Y-60256288D01*
X104606063Y-60300226D01*
X104492795Y-60469744D01*
X104414774Y-60658102D01*
X104375000Y-60858061D01*
X104375000Y-61023514D01*
X104342998Y-61129015D01*
X104328324Y-61278000D01*
X104332001Y-61315332D01*
X104332001Y-61724000D01*
X103488072Y-61724000D01*
X103488072Y-60734000D01*
X103475812Y-60609518D01*
X103439502Y-60489820D01*
X103380537Y-60379506D01*
X103301185Y-60282815D01*
X103204494Y-60203463D01*
X103094180Y-60144498D01*
X102974482Y-60108188D01*
X102850000Y-60095928D01*
X100350000Y-60095928D01*
X100225518Y-60108188D01*
X100105820Y-60144498D01*
X99995506Y-60203463D01*
X99898815Y-60282815D01*
X99819463Y-60379506D01*
X99760498Y-60489820D01*
X99724188Y-60609518D01*
X99711928Y-60734000D01*
X84505000Y-60734000D01*
X84505000Y-57734000D01*
X99711928Y-57734000D01*
X99724188Y-57858482D01*
X99760498Y-57978180D01*
X99819463Y-58088494D01*
X99898815Y-58185185D01*
X99995506Y-58264537D01*
X100105820Y-58323502D01*
X100225518Y-58359812D01*
X100350000Y-58372072D01*
X101314250Y-58369000D01*
X101473000Y-58210250D01*
X101473000Y-56111000D01*
X101727000Y-56111000D01*
X101727000Y-58210250D01*
X101885750Y-58369000D01*
X102850000Y-58372072D01*
X102974482Y-58359812D01*
X103094180Y-58323502D01*
X103204494Y-58264537D01*
X103301185Y-58185185D01*
X103380537Y-58088494D01*
X103439502Y-57978180D01*
X103475812Y-57858482D01*
X103488072Y-57734000D01*
X103485000Y-56269750D01*
X103326250Y-56111000D01*
X101727000Y-56111000D01*
X101473000Y-56111000D01*
X99873750Y-56111000D01*
X99715000Y-56269750D01*
X99711928Y-57734000D01*
X84505000Y-57734000D01*
X84505000Y-50540475D01*
X84995000Y-50540475D01*
X84995000Y-51059525D01*
X85096261Y-51568601D01*
X85294893Y-52048141D01*
X85583262Y-52479715D01*
X85950285Y-52846738D01*
X86381859Y-53135107D01*
X86861399Y-53333739D01*
X87370475Y-53435000D01*
X87889525Y-53435000D01*
X88398601Y-53333739D01*
X88493257Y-53294531D01*
X90649074Y-53294531D01*
X90759921Y-53571714D01*
X91070840Y-53725089D01*
X91405705Y-53814860D01*
X91751650Y-53837576D01*
X92095380Y-53792366D01*
X92423685Y-53680966D01*
X92628079Y-53571714D01*
X92738926Y-53294531D01*
X95729074Y-53294531D01*
X95839921Y-53571714D01*
X96150840Y-53725089D01*
X96485705Y-53814860D01*
X96831650Y-53837576D01*
X97175380Y-53792366D01*
X97503685Y-53680966D01*
X97708079Y-53571714D01*
X97818926Y-53294531D01*
X99031074Y-53294531D01*
X99141921Y-53571714D01*
X99452840Y-53725089D01*
X99787705Y-53814860D01*
X99868180Y-53820144D01*
X99819463Y-53879506D01*
X99760498Y-53989820D01*
X99724188Y-54109518D01*
X99711928Y-54234000D01*
X99715000Y-55698250D01*
X99873750Y-55857000D01*
X101473000Y-55857000D01*
X101473000Y-53757750D01*
X101727000Y-53757750D01*
X101727000Y-55857000D01*
X103326250Y-55857000D01*
X103485000Y-55698250D01*
X103488072Y-54234000D01*
X103475812Y-54109518D01*
X103439502Y-53989820D01*
X103380537Y-53879506D01*
X103301185Y-53782815D01*
X103204494Y-53703463D01*
X103094180Y-53644498D01*
X102974482Y-53608188D01*
X102850000Y-53595928D01*
X101885750Y-53599000D01*
X101727000Y-53757750D01*
X101473000Y-53757750D01*
X101314250Y-53599000D01*
X100961136Y-53597875D01*
X101010079Y-53571714D01*
X101120926Y-53294531D01*
X104111074Y-53294531D01*
X104221921Y-53571714D01*
X104532840Y-53725089D01*
X104867705Y-53814860D01*
X105213650Y-53837576D01*
X105557380Y-53792366D01*
X105885685Y-53680966D01*
X106090079Y-53571714D01*
X106200926Y-53294531D01*
X107413074Y-53294531D01*
X107523921Y-53571714D01*
X107834840Y-53725089D01*
X108169705Y-53814860D01*
X108515650Y-53837576D01*
X108859380Y-53792366D01*
X109187685Y-53680966D01*
X109392079Y-53571714D01*
X109502926Y-53294531D01*
X108458000Y-52249605D01*
X107413074Y-53294531D01*
X106200926Y-53294531D01*
X105156000Y-52249605D01*
X104111074Y-53294531D01*
X101120926Y-53294531D01*
X100076000Y-52249605D01*
X99031074Y-53294531D01*
X97818926Y-53294531D01*
X96774000Y-52249605D01*
X95729074Y-53294531D01*
X92738926Y-53294531D01*
X91694000Y-52249605D01*
X90649074Y-53294531D01*
X88493257Y-53294531D01*
X88878141Y-53135107D01*
X89309715Y-52846738D01*
X89676738Y-52479715D01*
X89927998Y-52103678D01*
X89926424Y-52127650D01*
X89971634Y-52471380D01*
X90083034Y-52799685D01*
X90192286Y-53004079D01*
X90469469Y-53114926D01*
X91514395Y-52070000D01*
X91873605Y-52070000D01*
X92918531Y-53114926D01*
X93195714Y-53004079D01*
X93349089Y-52693160D01*
X93438860Y-52358295D01*
X93454004Y-52127650D01*
X95006424Y-52127650D01*
X95051634Y-52471380D01*
X95163034Y-52799685D01*
X95272286Y-53004079D01*
X95549469Y-53114926D01*
X96594395Y-52070000D01*
X96953605Y-52070000D01*
X97998531Y-53114926D01*
X98275714Y-53004079D01*
X98428970Y-52693401D01*
X98465034Y-52799685D01*
X98574286Y-53004079D01*
X98851469Y-53114926D01*
X99896395Y-52070000D01*
X100255605Y-52070000D01*
X101300531Y-53114926D01*
X101577714Y-53004079D01*
X101731089Y-52693160D01*
X101820860Y-52358295D01*
X101836004Y-52127650D01*
X103388424Y-52127650D01*
X103433634Y-52471380D01*
X103545034Y-52799685D01*
X103654286Y-53004079D01*
X103931469Y-53114926D01*
X104976395Y-52070000D01*
X105335605Y-52070000D01*
X106380531Y-53114926D01*
X106657714Y-53004079D01*
X106810970Y-52693401D01*
X106847034Y-52799685D01*
X106956286Y-53004079D01*
X107233469Y-53114926D01*
X108278395Y-52070000D01*
X108637605Y-52070000D01*
X109682531Y-53114926D01*
X109959714Y-53004079D01*
X110113089Y-52693160D01*
X110202860Y-52358295D01*
X110225576Y-52012350D01*
X110180366Y-51668620D01*
X110068966Y-51340315D01*
X109959714Y-51135921D01*
X109682531Y-51025074D01*
X108637605Y-52070000D01*
X108278395Y-52070000D01*
X107233469Y-51025074D01*
X106956286Y-51135921D01*
X106803030Y-51446599D01*
X106766966Y-51340315D01*
X106657714Y-51135921D01*
X106380531Y-51025074D01*
X105335605Y-52070000D01*
X104976395Y-52070000D01*
X103931469Y-51025074D01*
X103654286Y-51135921D01*
X103500911Y-51446840D01*
X103411140Y-51781705D01*
X103388424Y-52127650D01*
X101836004Y-52127650D01*
X101843576Y-52012350D01*
X101798366Y-51668620D01*
X101686966Y-51340315D01*
X101577714Y-51135921D01*
X101300531Y-51025074D01*
X100255605Y-52070000D01*
X99896395Y-52070000D01*
X98851469Y-51025074D01*
X98574286Y-51135921D01*
X98421030Y-51446599D01*
X98384966Y-51340315D01*
X98275714Y-51135921D01*
X97998531Y-51025074D01*
X96953605Y-52070000D01*
X96594395Y-52070000D01*
X95549469Y-51025074D01*
X95272286Y-51135921D01*
X95118911Y-51446840D01*
X95029140Y-51781705D01*
X95006424Y-52127650D01*
X93454004Y-52127650D01*
X93461576Y-52012350D01*
X93416366Y-51668620D01*
X93304966Y-51340315D01*
X93195714Y-51135921D01*
X92918531Y-51025074D01*
X91873605Y-52070000D01*
X91514395Y-52070000D01*
X90469469Y-51025074D01*
X90254775Y-51110931D01*
X90265000Y-51059525D01*
X90265000Y-50845469D01*
X90649074Y-50845469D01*
X91694000Y-51890395D01*
X92738926Y-50845469D01*
X92628079Y-50568286D01*
X92317160Y-50414911D01*
X91982295Y-50325140D01*
X91636350Y-50302424D01*
X91292620Y-50347634D01*
X90964315Y-50459034D01*
X90759921Y-50568286D01*
X90649074Y-50845469D01*
X90265000Y-50845469D01*
X90265000Y-50540475D01*
X90163739Y-50031399D01*
X89965107Y-49551859D01*
X89841257Y-49366504D01*
X92574000Y-49366504D01*
X92574000Y-49693496D01*
X92637793Y-50014204D01*
X92762927Y-50316305D01*
X92944594Y-50588188D01*
X93175812Y-50819406D01*
X93447695Y-51001073D01*
X93749796Y-51126207D01*
X94070504Y-51190000D01*
X94397496Y-51190000D01*
X94718204Y-51126207D01*
X95020305Y-51001073D01*
X95253182Y-50845469D01*
X95729074Y-50845469D01*
X96774000Y-51890395D01*
X97818926Y-50845469D01*
X99031074Y-50845469D01*
X100076000Y-51890395D01*
X101120926Y-50845469D01*
X101010079Y-50568286D01*
X100699160Y-50414911D01*
X100364295Y-50325140D01*
X100018350Y-50302424D01*
X99674620Y-50347634D01*
X99346315Y-50459034D01*
X99141921Y-50568286D01*
X99031074Y-50845469D01*
X97818926Y-50845469D01*
X97708079Y-50568286D01*
X97397160Y-50414911D01*
X97062295Y-50325140D01*
X96716350Y-50302424D01*
X96372620Y-50347634D01*
X96044315Y-50459034D01*
X95839921Y-50568286D01*
X95729074Y-50845469D01*
X95253182Y-50845469D01*
X95292188Y-50819406D01*
X95523406Y-50588188D01*
X95705073Y-50316305D01*
X95715969Y-50290000D01*
X101134031Y-50290000D01*
X101144927Y-50316305D01*
X101326594Y-50588188D01*
X101557812Y-50819406D01*
X101829695Y-51001073D01*
X102131796Y-51126207D01*
X102452504Y-51190000D01*
X102779496Y-51190000D01*
X103100204Y-51126207D01*
X103402305Y-51001073D01*
X103635182Y-50845469D01*
X104111074Y-50845469D01*
X105156000Y-51890395D01*
X106200926Y-50845469D01*
X107413074Y-50845469D01*
X108458000Y-51890395D01*
X109502926Y-50845469D01*
X109392079Y-50568286D01*
X109081160Y-50414911D01*
X108746295Y-50325140D01*
X108400350Y-50302424D01*
X108056620Y-50347634D01*
X107728315Y-50459034D01*
X107523921Y-50568286D01*
X107413074Y-50845469D01*
X106200926Y-50845469D01*
X106090079Y-50568286D01*
X105779160Y-50414911D01*
X105444295Y-50325140D01*
X105098350Y-50302424D01*
X104754620Y-50347634D01*
X104426315Y-50459034D01*
X104221921Y-50568286D01*
X104111074Y-50845469D01*
X103635182Y-50845469D01*
X103674188Y-50819406D01*
X103905406Y-50588188D01*
X104087073Y-50316305D01*
X104212207Y-50014204D01*
X104276000Y-49693496D01*
X104276000Y-49366504D01*
X109338000Y-49366504D01*
X109338000Y-49693496D01*
X109401793Y-50014204D01*
X109526927Y-50316305D01*
X109708594Y-50588188D01*
X109939812Y-50819406D01*
X110211695Y-51001073D01*
X110513796Y-51126207D01*
X110834504Y-51190000D01*
X111161496Y-51190000D01*
X111482204Y-51126207D01*
X111784305Y-51001073D01*
X112017182Y-50845469D01*
X112493074Y-50845469D01*
X113538000Y-51890395D01*
X114582926Y-50845469D01*
X114472079Y-50568286D01*
X114161160Y-50414911D01*
X113826295Y-50325140D01*
X113480350Y-50302424D01*
X113136620Y-50347634D01*
X112808315Y-50459034D01*
X112603921Y-50568286D01*
X112493074Y-50845469D01*
X112017182Y-50845469D01*
X112056188Y-50819406D01*
X112287406Y-50588188D01*
X112469073Y-50316305D01*
X112594207Y-50014204D01*
X112658000Y-49693496D01*
X112658000Y-49366504D01*
X112594207Y-49045796D01*
X112469073Y-48743695D01*
X112287406Y-48471812D01*
X112056188Y-48240594D01*
X112017183Y-48214531D01*
X112493074Y-48214531D01*
X112603921Y-48491714D01*
X112914840Y-48645089D01*
X113249705Y-48734860D01*
X113595650Y-48757576D01*
X113939380Y-48712366D01*
X114267685Y-48600966D01*
X114472079Y-48491714D01*
X114582926Y-48214531D01*
X113538000Y-47169605D01*
X112493074Y-48214531D01*
X112017183Y-48214531D01*
X111784305Y-48058927D01*
X111482204Y-47933793D01*
X111161496Y-47870000D01*
X110834504Y-47870000D01*
X110513796Y-47933793D01*
X110211695Y-48058927D01*
X109939812Y-48240594D01*
X109708594Y-48471812D01*
X109526927Y-48743695D01*
X109401793Y-49045796D01*
X109338000Y-49366504D01*
X104276000Y-49366504D01*
X104212207Y-49045796D01*
X104087073Y-48743695D01*
X103905406Y-48471812D01*
X103674188Y-48240594D01*
X103635183Y-48214531D01*
X104111074Y-48214531D01*
X104221921Y-48491714D01*
X104532840Y-48645089D01*
X104867705Y-48734860D01*
X105213650Y-48757576D01*
X105557380Y-48712366D01*
X105885685Y-48600966D01*
X106090079Y-48491714D01*
X106200926Y-48214531D01*
X107413074Y-48214531D01*
X107523921Y-48491714D01*
X107834840Y-48645089D01*
X108169705Y-48734860D01*
X108515650Y-48757576D01*
X108859380Y-48712366D01*
X109187685Y-48600966D01*
X109392079Y-48491714D01*
X109502926Y-48214531D01*
X108458000Y-47169605D01*
X107413074Y-48214531D01*
X106200926Y-48214531D01*
X105156000Y-47169605D01*
X104111074Y-48214531D01*
X103635183Y-48214531D01*
X103402305Y-48058927D01*
X103100204Y-47933793D01*
X102779496Y-47870000D01*
X102452504Y-47870000D01*
X102131796Y-47933793D01*
X101829695Y-48058927D01*
X101557812Y-48240594D01*
X101326594Y-48471812D01*
X101144927Y-48743695D01*
X101134031Y-48770000D01*
X95715969Y-48770000D01*
X95705073Y-48743695D01*
X95523406Y-48471812D01*
X95292188Y-48240594D01*
X95253183Y-48214531D01*
X95729074Y-48214531D01*
X95839921Y-48491714D01*
X96150840Y-48645089D01*
X96485705Y-48734860D01*
X96831650Y-48757576D01*
X97175380Y-48712366D01*
X97503685Y-48600966D01*
X97708079Y-48491714D01*
X97818926Y-48214531D01*
X99031074Y-48214531D01*
X99141921Y-48491714D01*
X99452840Y-48645089D01*
X99787705Y-48734860D01*
X100133650Y-48757576D01*
X100477380Y-48712366D01*
X100805685Y-48600966D01*
X101010079Y-48491714D01*
X101120926Y-48214531D01*
X100076000Y-47169605D01*
X99031074Y-48214531D01*
X97818926Y-48214531D01*
X96774000Y-47169605D01*
X95729074Y-48214531D01*
X95253183Y-48214531D01*
X95020305Y-48058927D01*
X94718204Y-47933793D01*
X94397496Y-47870000D01*
X94070504Y-47870000D01*
X93749796Y-47933793D01*
X93447695Y-48058927D01*
X93175812Y-48240594D01*
X92944594Y-48471812D01*
X92762927Y-48743695D01*
X92637793Y-49045796D01*
X92574000Y-49366504D01*
X89841257Y-49366504D01*
X89676738Y-49120285D01*
X89309715Y-48753262D01*
X88878141Y-48464893D01*
X88398601Y-48266261D01*
X88138536Y-48214531D01*
X90649074Y-48214531D01*
X90759921Y-48491714D01*
X91070840Y-48645089D01*
X91405705Y-48734860D01*
X91751650Y-48757576D01*
X92095380Y-48712366D01*
X92423685Y-48600966D01*
X92628079Y-48491714D01*
X92738926Y-48214531D01*
X91694000Y-47169605D01*
X90649074Y-48214531D01*
X88138536Y-48214531D01*
X87889525Y-48165000D01*
X87370475Y-48165000D01*
X86861399Y-48266261D01*
X86381859Y-48464893D01*
X85950285Y-48753262D01*
X85583262Y-49120285D01*
X85294893Y-49551859D01*
X85096261Y-50031399D01*
X84995000Y-50540475D01*
X84505000Y-50540475D01*
X84505000Y-45897000D01*
X90421392Y-45897000D01*
X90469467Y-45945075D01*
M02*
