%TF.GenerationSoftware,KiCad,Pcbnew,5.0.1*%
%TF.CreationDate,2019-01-10T14:59:40-06:00*%
%TF.ProjectId,PowerRDP,506F7765725244502E6B696361645F70,01*%
%TF.SameCoordinates,Original*%
%TF.FileFunction,Copper,L2,Bot,Signal*%
%TF.FilePolarity,Positive*%
%FSLAX46Y46*%
G04 Gerber Fmt 4.6, Leading zero omitted, Abs format (unit mm)*
G04 Created by KiCad (PCBNEW 5.0.1) date Thu 10 Jan 2019 02:59:40 PM CST*
%MOMM*%
%LPD*%
G01*
G04 APERTURE LIST*
%ADD10C,0.100000*%
%ADD11C,1.740000*%
%ADD12O,2.200000X1.740000*%
%ADD13O,2.000000X1.905000*%
%ADD14R,2.000000X1.905000*%
%ADD15O,1.740000X2.200000*%
%ADD16R,1.740000X2.200000*%
%ADD17C,1.150000*%
%ADD18C,4.000000*%
%ADD19R,1.500000X1.000000*%
%ADD20R,1.500000X3.000000*%
%ADD21O,1.500000X3.000000*%
%ADD22R,3.050000X1.520000*%
%ADD23C,0.800000*%
%ADD24C,0.500000*%
%ADD25C,0.254000*%
G04 APERTURE END LIST*
D10*
G36*
X157719505Y-77236204D02*
X157743773Y-77239804D01*
X157767572Y-77245765D01*
X157790671Y-77254030D01*
X157812850Y-77264520D01*
X157833893Y-77277132D01*
X157853599Y-77291747D01*
X157871777Y-77308223D01*
X157888253Y-77326401D01*
X157902868Y-77346107D01*
X157915480Y-77367150D01*
X157925970Y-77389329D01*
X157934235Y-77412428D01*
X157940196Y-77436227D01*
X157943796Y-77460495D01*
X157945000Y-77484999D01*
X157945000Y-78725001D01*
X157943796Y-78749505D01*
X157940196Y-78773773D01*
X157934235Y-78797572D01*
X157925970Y-78820671D01*
X157915480Y-78842850D01*
X157902868Y-78863893D01*
X157888253Y-78883599D01*
X157871777Y-78901777D01*
X157853599Y-78918253D01*
X157833893Y-78932868D01*
X157812850Y-78945480D01*
X157790671Y-78955970D01*
X157767572Y-78964235D01*
X157743773Y-78970196D01*
X157719505Y-78973796D01*
X157695001Y-78975000D01*
X155994999Y-78975000D01*
X155970495Y-78973796D01*
X155946227Y-78970196D01*
X155922428Y-78964235D01*
X155899329Y-78955970D01*
X155877150Y-78945480D01*
X155856107Y-78932868D01*
X155836401Y-78918253D01*
X155818223Y-78901777D01*
X155801747Y-78883599D01*
X155787132Y-78863893D01*
X155774520Y-78842850D01*
X155764030Y-78820671D01*
X155755765Y-78797572D01*
X155749804Y-78773773D01*
X155746204Y-78749505D01*
X155745000Y-78725001D01*
X155745000Y-77484999D01*
X155746204Y-77460495D01*
X155749804Y-77436227D01*
X155755765Y-77412428D01*
X155764030Y-77389329D01*
X155774520Y-77367150D01*
X155787132Y-77346107D01*
X155801747Y-77326401D01*
X155818223Y-77308223D01*
X155836401Y-77291747D01*
X155856107Y-77277132D01*
X155877150Y-77264520D01*
X155899329Y-77254030D01*
X155922428Y-77245765D01*
X155946227Y-77239804D01*
X155970495Y-77236204D01*
X155994999Y-77235000D01*
X157695001Y-77235000D01*
X157719505Y-77236204D01*
X157719505Y-77236204D01*
G37*
D11*
X156845000Y-78105000D03*
D12*
X156845000Y-75565000D03*
X156845000Y-73025000D03*
X156845000Y-70485000D03*
X156845000Y-67945000D03*
D13*
X139700000Y-67310000D03*
X139700000Y-64770000D03*
X139700000Y-62230000D03*
D14*
X139700000Y-59690000D03*
D15*
X125730000Y-76200000D03*
D16*
X123190000Y-76200000D03*
D15*
X132080000Y-76200000D03*
D16*
X129540000Y-76200000D03*
D15*
X125730000Y-64770000D03*
D16*
X123190000Y-64770000D03*
D15*
X132080000Y-64770000D03*
D16*
X129540000Y-64770000D03*
D15*
X125730000Y-53340000D03*
D16*
X123190000Y-53340000D03*
D15*
X132080000Y-53340000D03*
D16*
X129540000Y-53340000D03*
D15*
X159385000Y-53340000D03*
D16*
X156845000Y-53340000D03*
D15*
X149860000Y-63500000D03*
D16*
X147320000Y-63500000D03*
D10*
G36*
X145147505Y-52641204D02*
X145171773Y-52644804D01*
X145195572Y-52650765D01*
X145218671Y-52659030D01*
X145240850Y-52669520D01*
X145261893Y-52682132D01*
X145281599Y-52696747D01*
X145299777Y-52713223D01*
X145316253Y-52731401D01*
X145330868Y-52751107D01*
X145343480Y-52772150D01*
X145353970Y-52794329D01*
X145362235Y-52817428D01*
X145368196Y-52841227D01*
X145371796Y-52865495D01*
X145373000Y-52889999D01*
X145373000Y-53790001D01*
X145371796Y-53814505D01*
X145368196Y-53838773D01*
X145362235Y-53862572D01*
X145353970Y-53885671D01*
X145343480Y-53907850D01*
X145330868Y-53928893D01*
X145316253Y-53948599D01*
X145299777Y-53966777D01*
X145281599Y-53983253D01*
X145261893Y-53997868D01*
X145240850Y-54010480D01*
X145218671Y-54020970D01*
X145195572Y-54029235D01*
X145171773Y-54035196D01*
X145147505Y-54038796D01*
X145123001Y-54040000D01*
X144472999Y-54040000D01*
X144448495Y-54038796D01*
X144424227Y-54035196D01*
X144400428Y-54029235D01*
X144377329Y-54020970D01*
X144355150Y-54010480D01*
X144334107Y-53997868D01*
X144314401Y-53983253D01*
X144296223Y-53966777D01*
X144279747Y-53948599D01*
X144265132Y-53928893D01*
X144252520Y-53907850D01*
X144242030Y-53885671D01*
X144233765Y-53862572D01*
X144227804Y-53838773D01*
X144224204Y-53814505D01*
X144223000Y-53790001D01*
X144223000Y-52889999D01*
X144224204Y-52865495D01*
X144227804Y-52841227D01*
X144233765Y-52817428D01*
X144242030Y-52794329D01*
X144252520Y-52772150D01*
X144265132Y-52751107D01*
X144279747Y-52731401D01*
X144296223Y-52713223D01*
X144314401Y-52696747D01*
X144334107Y-52682132D01*
X144355150Y-52669520D01*
X144377329Y-52659030D01*
X144400428Y-52650765D01*
X144424227Y-52644804D01*
X144448495Y-52641204D01*
X144472999Y-52640000D01*
X145123001Y-52640000D01*
X145147505Y-52641204D01*
X145147505Y-52641204D01*
G37*
D17*
X144798000Y-53340000D03*
D10*
G36*
X143097505Y-52641204D02*
X143121773Y-52644804D01*
X143145572Y-52650765D01*
X143168671Y-52659030D01*
X143190850Y-52669520D01*
X143211893Y-52682132D01*
X143231599Y-52696747D01*
X143249777Y-52713223D01*
X143266253Y-52731401D01*
X143280868Y-52751107D01*
X143293480Y-52772150D01*
X143303970Y-52794329D01*
X143312235Y-52817428D01*
X143318196Y-52841227D01*
X143321796Y-52865495D01*
X143323000Y-52889999D01*
X143323000Y-53790001D01*
X143321796Y-53814505D01*
X143318196Y-53838773D01*
X143312235Y-53862572D01*
X143303970Y-53885671D01*
X143293480Y-53907850D01*
X143280868Y-53928893D01*
X143266253Y-53948599D01*
X143249777Y-53966777D01*
X143231599Y-53983253D01*
X143211893Y-53997868D01*
X143190850Y-54010480D01*
X143168671Y-54020970D01*
X143145572Y-54029235D01*
X143121773Y-54035196D01*
X143097505Y-54038796D01*
X143073001Y-54040000D01*
X142422999Y-54040000D01*
X142398495Y-54038796D01*
X142374227Y-54035196D01*
X142350428Y-54029235D01*
X142327329Y-54020970D01*
X142305150Y-54010480D01*
X142284107Y-53997868D01*
X142264401Y-53983253D01*
X142246223Y-53966777D01*
X142229747Y-53948599D01*
X142215132Y-53928893D01*
X142202520Y-53907850D01*
X142192030Y-53885671D01*
X142183765Y-53862572D01*
X142177804Y-53838773D01*
X142174204Y-53814505D01*
X142173000Y-53790001D01*
X142173000Y-52889999D01*
X142174204Y-52865495D01*
X142177804Y-52841227D01*
X142183765Y-52817428D01*
X142192030Y-52794329D01*
X142202520Y-52772150D01*
X142215132Y-52751107D01*
X142229747Y-52731401D01*
X142246223Y-52713223D01*
X142264401Y-52696747D01*
X142284107Y-52682132D01*
X142305150Y-52669520D01*
X142327329Y-52659030D01*
X142350428Y-52650765D01*
X142374227Y-52644804D01*
X142398495Y-52641204D01*
X142422999Y-52640000D01*
X143073001Y-52640000D01*
X143097505Y-52641204D01*
X143097505Y-52641204D01*
G37*
D17*
X142748000Y-53340000D03*
D18*
X151130000Y-50800000D03*
X127635000Y-70485000D03*
X127635000Y-59055000D03*
D10*
G36*
X144619505Y-66101204D02*
X144643773Y-66104804D01*
X144667572Y-66110765D01*
X144690671Y-66119030D01*
X144712850Y-66129520D01*
X144733893Y-66142132D01*
X144753599Y-66156747D01*
X144771777Y-66173223D01*
X144788253Y-66191401D01*
X144802868Y-66211107D01*
X144815480Y-66232150D01*
X144825970Y-66254329D01*
X144834235Y-66277428D01*
X144840196Y-66301227D01*
X144843796Y-66325495D01*
X144845000Y-66349999D01*
X144845000Y-67000001D01*
X144843796Y-67024505D01*
X144840196Y-67048773D01*
X144834235Y-67072572D01*
X144825970Y-67095671D01*
X144815480Y-67117850D01*
X144802868Y-67138893D01*
X144788253Y-67158599D01*
X144771777Y-67176777D01*
X144753599Y-67193253D01*
X144733893Y-67207868D01*
X144712850Y-67220480D01*
X144690671Y-67230970D01*
X144667572Y-67239235D01*
X144643773Y-67245196D01*
X144619505Y-67248796D01*
X144595001Y-67250000D01*
X143694999Y-67250000D01*
X143670495Y-67248796D01*
X143646227Y-67245196D01*
X143622428Y-67239235D01*
X143599329Y-67230970D01*
X143577150Y-67220480D01*
X143556107Y-67207868D01*
X143536401Y-67193253D01*
X143518223Y-67176777D01*
X143501747Y-67158599D01*
X143487132Y-67138893D01*
X143474520Y-67117850D01*
X143464030Y-67095671D01*
X143455765Y-67072572D01*
X143449804Y-67048773D01*
X143446204Y-67024505D01*
X143445000Y-67000001D01*
X143445000Y-66349999D01*
X143446204Y-66325495D01*
X143449804Y-66301227D01*
X143455765Y-66277428D01*
X143464030Y-66254329D01*
X143474520Y-66232150D01*
X143487132Y-66211107D01*
X143501747Y-66191401D01*
X143518223Y-66173223D01*
X143536401Y-66156747D01*
X143556107Y-66142132D01*
X143577150Y-66129520D01*
X143599329Y-66119030D01*
X143622428Y-66110765D01*
X143646227Y-66104804D01*
X143670495Y-66101204D01*
X143694999Y-66100000D01*
X144595001Y-66100000D01*
X144619505Y-66101204D01*
X144619505Y-66101204D01*
G37*
D17*
X144145000Y-66675000D03*
D10*
G36*
X144619505Y-64051204D02*
X144643773Y-64054804D01*
X144667572Y-64060765D01*
X144690671Y-64069030D01*
X144712850Y-64079520D01*
X144733893Y-64092132D01*
X144753599Y-64106747D01*
X144771777Y-64123223D01*
X144788253Y-64141401D01*
X144802868Y-64161107D01*
X144815480Y-64182150D01*
X144825970Y-64204329D01*
X144834235Y-64227428D01*
X144840196Y-64251227D01*
X144843796Y-64275495D01*
X144845000Y-64299999D01*
X144845000Y-64950001D01*
X144843796Y-64974505D01*
X144840196Y-64998773D01*
X144834235Y-65022572D01*
X144825970Y-65045671D01*
X144815480Y-65067850D01*
X144802868Y-65088893D01*
X144788253Y-65108599D01*
X144771777Y-65126777D01*
X144753599Y-65143253D01*
X144733893Y-65157868D01*
X144712850Y-65170480D01*
X144690671Y-65180970D01*
X144667572Y-65189235D01*
X144643773Y-65195196D01*
X144619505Y-65198796D01*
X144595001Y-65200000D01*
X143694999Y-65200000D01*
X143670495Y-65198796D01*
X143646227Y-65195196D01*
X143622428Y-65189235D01*
X143599329Y-65180970D01*
X143577150Y-65170480D01*
X143556107Y-65157868D01*
X143536401Y-65143253D01*
X143518223Y-65126777D01*
X143501747Y-65108599D01*
X143487132Y-65088893D01*
X143474520Y-65067850D01*
X143464030Y-65045671D01*
X143455765Y-65022572D01*
X143449804Y-64998773D01*
X143446204Y-64974505D01*
X143445000Y-64950001D01*
X143445000Y-64299999D01*
X143446204Y-64275495D01*
X143449804Y-64251227D01*
X143455765Y-64227428D01*
X143464030Y-64204329D01*
X143474520Y-64182150D01*
X143487132Y-64161107D01*
X143501747Y-64141401D01*
X143518223Y-64123223D01*
X143536401Y-64106747D01*
X143556107Y-64092132D01*
X143577150Y-64079520D01*
X143599329Y-64069030D01*
X143622428Y-64060765D01*
X143646227Y-64054804D01*
X143670495Y-64051204D01*
X143694999Y-64050000D01*
X144595001Y-64050000D01*
X144619505Y-64051204D01*
X144619505Y-64051204D01*
G37*
D17*
X144145000Y-64625000D03*
D10*
G36*
X153509505Y-65956204D02*
X153533773Y-65959804D01*
X153557572Y-65965765D01*
X153580671Y-65974030D01*
X153602850Y-65984520D01*
X153623893Y-65997132D01*
X153643599Y-66011747D01*
X153661777Y-66028223D01*
X153678253Y-66046401D01*
X153692868Y-66066107D01*
X153705480Y-66087150D01*
X153715970Y-66109329D01*
X153724235Y-66132428D01*
X153730196Y-66156227D01*
X153733796Y-66180495D01*
X153735000Y-66204999D01*
X153735000Y-66855001D01*
X153733796Y-66879505D01*
X153730196Y-66903773D01*
X153724235Y-66927572D01*
X153715970Y-66950671D01*
X153705480Y-66972850D01*
X153692868Y-66993893D01*
X153678253Y-67013599D01*
X153661777Y-67031777D01*
X153643599Y-67048253D01*
X153623893Y-67062868D01*
X153602850Y-67075480D01*
X153580671Y-67085970D01*
X153557572Y-67094235D01*
X153533773Y-67100196D01*
X153509505Y-67103796D01*
X153485001Y-67105000D01*
X152584999Y-67105000D01*
X152560495Y-67103796D01*
X152536227Y-67100196D01*
X152512428Y-67094235D01*
X152489329Y-67085970D01*
X152467150Y-67075480D01*
X152446107Y-67062868D01*
X152426401Y-67048253D01*
X152408223Y-67031777D01*
X152391747Y-67013599D01*
X152377132Y-66993893D01*
X152364520Y-66972850D01*
X152354030Y-66950671D01*
X152345765Y-66927572D01*
X152339804Y-66903773D01*
X152336204Y-66879505D01*
X152335000Y-66855001D01*
X152335000Y-66204999D01*
X152336204Y-66180495D01*
X152339804Y-66156227D01*
X152345765Y-66132428D01*
X152354030Y-66109329D01*
X152364520Y-66087150D01*
X152377132Y-66066107D01*
X152391747Y-66046401D01*
X152408223Y-66028223D01*
X152426401Y-66011747D01*
X152446107Y-65997132D01*
X152467150Y-65984520D01*
X152489329Y-65974030D01*
X152512428Y-65965765D01*
X152536227Y-65959804D01*
X152560495Y-65956204D01*
X152584999Y-65955000D01*
X153485001Y-65955000D01*
X153509505Y-65956204D01*
X153509505Y-65956204D01*
G37*
D17*
X153035000Y-66530000D03*
D10*
G36*
X153509505Y-68006204D02*
X153533773Y-68009804D01*
X153557572Y-68015765D01*
X153580671Y-68024030D01*
X153602850Y-68034520D01*
X153623893Y-68047132D01*
X153643599Y-68061747D01*
X153661777Y-68078223D01*
X153678253Y-68096401D01*
X153692868Y-68116107D01*
X153705480Y-68137150D01*
X153715970Y-68159329D01*
X153724235Y-68182428D01*
X153730196Y-68206227D01*
X153733796Y-68230495D01*
X153735000Y-68254999D01*
X153735000Y-68905001D01*
X153733796Y-68929505D01*
X153730196Y-68953773D01*
X153724235Y-68977572D01*
X153715970Y-69000671D01*
X153705480Y-69022850D01*
X153692868Y-69043893D01*
X153678253Y-69063599D01*
X153661777Y-69081777D01*
X153643599Y-69098253D01*
X153623893Y-69112868D01*
X153602850Y-69125480D01*
X153580671Y-69135970D01*
X153557572Y-69144235D01*
X153533773Y-69150196D01*
X153509505Y-69153796D01*
X153485001Y-69155000D01*
X152584999Y-69155000D01*
X152560495Y-69153796D01*
X152536227Y-69150196D01*
X152512428Y-69144235D01*
X152489329Y-69135970D01*
X152467150Y-69125480D01*
X152446107Y-69112868D01*
X152426401Y-69098253D01*
X152408223Y-69081777D01*
X152391747Y-69063599D01*
X152377132Y-69043893D01*
X152364520Y-69022850D01*
X152354030Y-69000671D01*
X152345765Y-68977572D01*
X152339804Y-68953773D01*
X152336204Y-68929505D01*
X152335000Y-68905001D01*
X152335000Y-68254999D01*
X152336204Y-68230495D01*
X152339804Y-68206227D01*
X152345765Y-68182428D01*
X152354030Y-68159329D01*
X152364520Y-68137150D01*
X152377132Y-68116107D01*
X152391747Y-68096401D01*
X152408223Y-68078223D01*
X152426401Y-68061747D01*
X152446107Y-68047132D01*
X152467150Y-68034520D01*
X152489329Y-68024030D01*
X152512428Y-68015765D01*
X152536227Y-68009804D01*
X152560495Y-68006204D01*
X152584999Y-68005000D01*
X153485001Y-68005000D01*
X153509505Y-68006204D01*
X153509505Y-68006204D01*
G37*
D17*
X153035000Y-68580000D03*
D19*
X147320000Y-79375000D03*
X147320000Y-78075000D03*
D20*
X137160000Y-74930000D03*
D21*
X139700000Y-74930000D03*
X144780000Y-74930000D03*
X147320000Y-74930000D03*
X149860000Y-74930000D03*
D22*
X144780000Y-68834000D03*
X144780000Y-71124000D03*
X149860000Y-71120000D03*
X149860000Y-68830000D03*
D23*
X140970000Y-53340000D03*
X147320000Y-66675000D03*
D24*
X140970000Y-53340000D02*
X142748000Y-53340000D01*
X158750000Y-55880000D02*
X159385000Y-55245000D01*
X143764000Y-55880000D02*
X158750000Y-55880000D01*
X142748000Y-53340000D02*
X142748000Y-54864000D01*
X159385000Y-55245000D02*
X159385000Y-53340000D01*
X142748000Y-54864000D02*
X143764000Y-55880000D01*
X152785000Y-68830000D02*
X153035000Y-68580000D01*
X149860000Y-68830000D02*
X152785000Y-68830000D01*
X153035000Y-68580000D02*
X153035000Y-74295000D01*
X154305000Y-75565000D02*
X156845000Y-75565000D01*
X153035000Y-74295000D02*
X154305000Y-75565000D01*
X144780000Y-67310000D02*
X144145000Y-66675000D01*
X144780000Y-68834000D02*
X144780000Y-67310000D01*
X144145000Y-66675000D02*
X147320000Y-66675000D01*
X147320000Y-74930000D02*
X147320000Y-78075000D01*
X144780000Y-74930000D02*
X144780000Y-71124000D01*
X149860000Y-74930000D02*
X149860000Y-71120000D01*
D25*
G36*
X149637392Y-48566155D02*
X148896155Y-49307392D01*
X148495000Y-50275866D01*
X148495000Y-51324134D01*
X148896155Y-52292608D01*
X149637392Y-53033845D01*
X150605866Y-53435000D01*
X151654134Y-53435000D01*
X152622608Y-53033845D01*
X153363845Y-52292608D01*
X153437955Y-52113690D01*
X155340000Y-52113690D01*
X155340000Y-53054250D01*
X155498750Y-53213000D01*
X156718000Y-53213000D01*
X156718000Y-51763750D01*
X156559250Y-51605000D01*
X155848691Y-51605000D01*
X155615302Y-51701673D01*
X155436673Y-51880301D01*
X155340000Y-52113690D01*
X153437955Y-52113690D01*
X153765000Y-51324134D01*
X153765000Y-50275866D01*
X153363845Y-49307392D01*
X152622608Y-48566155D01*
X152064550Y-48335000D01*
X161215001Y-48335000D01*
X161215000Y-80570000D01*
X121360000Y-80570000D01*
X121360000Y-79660750D01*
X145935000Y-79660750D01*
X145935000Y-80001309D01*
X146031673Y-80234698D01*
X146210301Y-80413327D01*
X146443690Y-80510000D01*
X147034250Y-80510000D01*
X147193000Y-80351250D01*
X147193000Y-79502000D01*
X147447000Y-79502000D01*
X147447000Y-80351250D01*
X147605750Y-80510000D01*
X148196310Y-80510000D01*
X148429699Y-80413327D01*
X148608327Y-80234698D01*
X148705000Y-80001309D01*
X148705000Y-79660750D01*
X148546250Y-79502000D01*
X147447000Y-79502000D01*
X147193000Y-79502000D01*
X146093750Y-79502000D01*
X145935000Y-79660750D01*
X121360000Y-79660750D01*
X121360000Y-76485750D01*
X121685000Y-76485750D01*
X121685000Y-77426310D01*
X121781673Y-77659699D01*
X121960302Y-77838327D01*
X122193691Y-77935000D01*
X122904250Y-77935000D01*
X123063000Y-77776250D01*
X123063000Y-76327000D01*
X121843750Y-76327000D01*
X121685000Y-76485750D01*
X121360000Y-76485750D01*
X121360000Y-74973690D01*
X121685000Y-74973690D01*
X121685000Y-75914250D01*
X121843750Y-76073000D01*
X123063000Y-76073000D01*
X123063000Y-74623750D01*
X123317000Y-74623750D01*
X123317000Y-76073000D01*
X123337000Y-76073000D01*
X123337000Y-76327000D01*
X123317000Y-76327000D01*
X123317000Y-77776250D01*
X123475750Y-77935000D01*
X124186309Y-77935000D01*
X124419698Y-77838327D01*
X124598327Y-77659699D01*
X124655364Y-77521999D01*
X125142779Y-77847678D01*
X125730000Y-77964484D01*
X126317222Y-77847678D01*
X126815044Y-77515044D01*
X127147678Y-77017221D01*
X127235000Y-76578225D01*
X127235000Y-75821774D01*
X127147678Y-75382778D01*
X126958732Y-75100000D01*
X128022560Y-75100000D01*
X128022560Y-77300000D01*
X128071843Y-77547765D01*
X128212191Y-77757809D01*
X128422235Y-77898157D01*
X128670000Y-77947440D01*
X130410000Y-77947440D01*
X130657765Y-77898157D01*
X130867809Y-77757809D01*
X131008157Y-77547765D01*
X131012353Y-77526668D01*
X131492779Y-77847678D01*
X132080000Y-77964484D01*
X132667222Y-77847678D01*
X133165044Y-77515044D01*
X133497678Y-77017221D01*
X133585000Y-76578225D01*
X133585000Y-75821774D01*
X133497678Y-75382778D01*
X133165044Y-74884956D01*
X132667221Y-74552322D01*
X132080000Y-74435516D01*
X131492778Y-74552322D01*
X131012353Y-74873331D01*
X131008157Y-74852235D01*
X130867809Y-74642191D01*
X130657765Y-74501843D01*
X130410000Y-74452560D01*
X128670000Y-74452560D01*
X128422235Y-74501843D01*
X128212191Y-74642191D01*
X128071843Y-74852235D01*
X128022560Y-75100000D01*
X126958732Y-75100000D01*
X126815044Y-74884956D01*
X126317221Y-74552322D01*
X125730000Y-74435516D01*
X125142778Y-74552322D01*
X124655364Y-74878001D01*
X124598327Y-74740301D01*
X124419698Y-74561673D01*
X124186309Y-74465000D01*
X123475750Y-74465000D01*
X123317000Y-74623750D01*
X123063000Y-74623750D01*
X122904250Y-74465000D01*
X122193691Y-74465000D01*
X121960302Y-74561673D01*
X121781673Y-74740301D01*
X121685000Y-74973690D01*
X121360000Y-74973690D01*
X121360000Y-73430000D01*
X135762560Y-73430000D01*
X135762560Y-76430000D01*
X135811843Y-76677765D01*
X135952191Y-76887809D01*
X136162235Y-77028157D01*
X136410000Y-77077440D01*
X137910000Y-77077440D01*
X138157765Y-77028157D01*
X138367809Y-76887809D01*
X138508157Y-76677765D01*
X138556391Y-76435275D01*
X138810460Y-76749145D01*
X139287316Y-77008173D01*
X139358815Y-77022318D01*
X139573000Y-76899656D01*
X139573000Y-75057000D01*
X139827000Y-75057000D01*
X139827000Y-76899656D01*
X140041185Y-77022318D01*
X140112684Y-77008173D01*
X140589540Y-76749145D01*
X140930972Y-76327349D01*
X141085000Y-75807000D01*
X141085000Y-75057000D01*
X139827000Y-75057000D01*
X139573000Y-75057000D01*
X139553000Y-75057000D01*
X139553000Y-74803000D01*
X139573000Y-74803000D01*
X139573000Y-72960344D01*
X139827000Y-72960344D01*
X139827000Y-74803000D01*
X141085000Y-74803000D01*
X141085000Y-74053000D01*
X140930972Y-73532651D01*
X140589540Y-73110855D01*
X140112684Y-72851827D01*
X140041185Y-72837682D01*
X139827000Y-72960344D01*
X139573000Y-72960344D01*
X139358815Y-72837682D01*
X139287316Y-72851827D01*
X138810460Y-73110855D01*
X138556391Y-73424725D01*
X138508157Y-73182235D01*
X138367809Y-72972191D01*
X138157765Y-72831843D01*
X137910000Y-72782560D01*
X136410000Y-72782560D01*
X136162235Y-72831843D01*
X135952191Y-72972191D01*
X135811843Y-73182235D01*
X135762560Y-73430000D01*
X121360000Y-73430000D01*
X121360000Y-69960866D01*
X125000000Y-69960866D01*
X125000000Y-71009134D01*
X125401155Y-71977608D01*
X126142392Y-72718845D01*
X127110866Y-73120000D01*
X128159134Y-73120000D01*
X129127608Y-72718845D01*
X129868845Y-71977608D01*
X130270000Y-71009134D01*
X130270000Y-69960866D01*
X129868845Y-68992392D01*
X129127608Y-68251155D01*
X128159134Y-67850000D01*
X127110866Y-67850000D01*
X126142392Y-68251155D01*
X125401155Y-68992392D01*
X125000000Y-69960866D01*
X121360000Y-69960866D01*
X121360000Y-67310000D01*
X138033900Y-67310000D01*
X138157109Y-67929411D01*
X138507977Y-68454523D01*
X139033089Y-68805391D01*
X139496150Y-68897500D01*
X139903850Y-68897500D01*
X140366911Y-68805391D01*
X140892023Y-68454523D01*
X141146279Y-68074000D01*
X142607560Y-68074000D01*
X142607560Y-69594000D01*
X142656843Y-69841765D01*
X142748541Y-69979000D01*
X142656843Y-70116235D01*
X142607560Y-70364000D01*
X142607560Y-71884000D01*
X142656843Y-72131765D01*
X142797191Y-72341809D01*
X143007235Y-72482157D01*
X143255000Y-72531440D01*
X143895001Y-72531440D01*
X143895000Y-73105614D01*
X143781471Y-73181472D01*
X143475359Y-73639601D01*
X143395000Y-74043594D01*
X143395000Y-75816407D01*
X143475360Y-76220400D01*
X143781472Y-76678529D01*
X144239601Y-76984641D01*
X144780000Y-77092133D01*
X145320400Y-76984641D01*
X145778529Y-76678529D01*
X146050001Y-76272243D01*
X146321472Y-76678529D01*
X146435001Y-76754386D01*
X146435001Y-76954413D01*
X146322235Y-76976843D01*
X146112191Y-77117191D01*
X145971843Y-77327235D01*
X145922560Y-77575000D01*
X145922560Y-78575000D01*
X145949936Y-78712632D01*
X145935000Y-78748691D01*
X145935000Y-79089250D01*
X146093750Y-79248000D01*
X147193000Y-79248000D01*
X147193000Y-79228000D01*
X147447000Y-79228000D01*
X147447000Y-79248000D01*
X148546250Y-79248000D01*
X148705000Y-79089250D01*
X148705000Y-78748691D01*
X148690064Y-78712632D01*
X148717440Y-78575000D01*
X148717440Y-78390750D01*
X155110000Y-78390750D01*
X155110000Y-79101309D01*
X155206673Y-79334698D01*
X155385301Y-79513327D01*
X155618690Y-79610000D01*
X156559250Y-79610000D01*
X156718000Y-79451250D01*
X156718000Y-78232000D01*
X156972000Y-78232000D01*
X156972000Y-79451250D01*
X157130750Y-79610000D01*
X158071310Y-79610000D01*
X158304699Y-79513327D01*
X158483327Y-79334698D01*
X158580000Y-79101309D01*
X158580000Y-78390750D01*
X158421250Y-78232000D01*
X156972000Y-78232000D01*
X156718000Y-78232000D01*
X155268750Y-78232000D01*
X155110000Y-78390750D01*
X148717440Y-78390750D01*
X148717440Y-77575000D01*
X148668157Y-77327235D01*
X148527809Y-77117191D01*
X148317765Y-76976843D01*
X148205000Y-76954413D01*
X148205000Y-76754387D01*
X148318529Y-76678529D01*
X148590001Y-76272243D01*
X148861472Y-76678529D01*
X149319601Y-76984641D01*
X149860000Y-77092133D01*
X150400400Y-76984641D01*
X150858529Y-76678529D01*
X151164641Y-76220400D01*
X151245000Y-75816407D01*
X151245000Y-74043593D01*
X151164641Y-73639600D01*
X150858528Y-73181471D01*
X150745000Y-73105614D01*
X150745000Y-72527440D01*
X151385000Y-72527440D01*
X151632765Y-72478157D01*
X151842809Y-72337809D01*
X151983157Y-72127765D01*
X152032440Y-71880000D01*
X152032440Y-70360000D01*
X151983157Y-70112235D01*
X151891459Y-69975000D01*
X151983157Y-69837765D01*
X152007576Y-69715000D01*
X152150000Y-69715000D01*
X152150001Y-74207835D01*
X152132663Y-74295000D01*
X152201348Y-74640309D01*
X152347576Y-74859154D01*
X152347578Y-74859156D01*
X152396952Y-74933049D01*
X152470845Y-74982423D01*
X153617577Y-76129156D01*
X153666951Y-76203049D01*
X153740844Y-76252423D01*
X153740845Y-76252424D01*
X153851880Y-76326615D01*
X153959690Y-76398652D01*
X154217835Y-76450000D01*
X154217839Y-76450000D01*
X154304999Y-76467337D01*
X154392159Y-76450000D01*
X155396291Y-76450000D01*
X155523001Y-76639636D01*
X155385301Y-76696673D01*
X155206673Y-76875302D01*
X155110000Y-77108691D01*
X155110000Y-77819250D01*
X155268750Y-77978000D01*
X156718000Y-77978000D01*
X156718000Y-77958000D01*
X156972000Y-77958000D01*
X156972000Y-77978000D01*
X158421250Y-77978000D01*
X158580000Y-77819250D01*
X158580000Y-77108691D01*
X158483327Y-76875302D01*
X158304699Y-76696673D01*
X158166999Y-76639636D01*
X158492678Y-76152222D01*
X158609484Y-75565000D01*
X158492678Y-74977778D01*
X158160044Y-74479956D01*
X157883238Y-74295000D01*
X158160044Y-74110044D01*
X158492678Y-73612222D01*
X158609484Y-73025000D01*
X158492678Y-72437778D01*
X158160044Y-71939956D01*
X157883238Y-71755000D01*
X158160044Y-71570044D01*
X158492678Y-71072222D01*
X158609484Y-70485000D01*
X158492678Y-69897778D01*
X158160044Y-69399956D01*
X157883238Y-69215000D01*
X158160044Y-69030044D01*
X158492678Y-68532222D01*
X158609484Y-67945000D01*
X158492678Y-67357778D01*
X158160044Y-66859956D01*
X157662222Y-66527322D01*
X157223226Y-66440000D01*
X156466774Y-66440000D01*
X156027778Y-66527322D01*
X155529956Y-66859956D01*
X155197322Y-67357778D01*
X155080516Y-67945000D01*
X155197322Y-68532222D01*
X155529956Y-69030044D01*
X155806762Y-69215000D01*
X155529956Y-69399956D01*
X155197322Y-69897778D01*
X155080516Y-70485000D01*
X155197322Y-71072222D01*
X155529956Y-71570044D01*
X155806762Y-71755000D01*
X155529956Y-71939956D01*
X155197322Y-72437778D01*
X155080516Y-73025000D01*
X155197322Y-73612222D01*
X155529956Y-74110044D01*
X155806762Y-74295000D01*
X155529956Y-74479956D01*
X155396291Y-74680000D01*
X154671579Y-74680000D01*
X153920000Y-73928422D01*
X153920000Y-69672946D01*
X154119586Y-69539586D01*
X154314127Y-69248436D01*
X154382440Y-68905001D01*
X154382440Y-68254999D01*
X154314127Y-67911564D01*
X154119586Y-67620414D01*
X154118403Y-67619623D01*
X154273327Y-67464698D01*
X154370000Y-67231309D01*
X154370000Y-66815750D01*
X154211250Y-66657000D01*
X153162000Y-66657000D01*
X153162000Y-66677000D01*
X152908000Y-66677000D01*
X152908000Y-66657000D01*
X151858750Y-66657000D01*
X151700000Y-66815750D01*
X151700000Y-67231309D01*
X151796673Y-67464698D01*
X151951597Y-67619623D01*
X151950414Y-67620414D01*
X151899359Y-67696823D01*
X151842809Y-67612191D01*
X151632765Y-67471843D01*
X151385000Y-67422560D01*
X148335000Y-67422560D01*
X148087235Y-67471843D01*
X147877191Y-67612191D01*
X147736843Y-67822235D01*
X147687560Y-68070000D01*
X147687560Y-69590000D01*
X147736843Y-69837765D01*
X147828541Y-69975000D01*
X147736843Y-70112235D01*
X147687560Y-70360000D01*
X147687560Y-71880000D01*
X147736843Y-72127765D01*
X147877191Y-72337809D01*
X148087235Y-72478157D01*
X148335000Y-72527440D01*
X148975001Y-72527440D01*
X148975000Y-73105614D01*
X148861471Y-73181472D01*
X148590000Y-73587757D01*
X148318528Y-73181471D01*
X147860399Y-72875359D01*
X147320000Y-72767867D01*
X146779600Y-72875359D01*
X146321471Y-73181472D01*
X146050000Y-73587757D01*
X145778528Y-73181471D01*
X145665000Y-73105614D01*
X145665000Y-72531440D01*
X146305000Y-72531440D01*
X146552765Y-72482157D01*
X146762809Y-72341809D01*
X146903157Y-72131765D01*
X146952440Y-71884000D01*
X146952440Y-70364000D01*
X146903157Y-70116235D01*
X146811459Y-69979000D01*
X146903157Y-69841765D01*
X146952440Y-69594000D01*
X146952440Y-68074000D01*
X146903157Y-67826235D01*
X146762809Y-67616191D01*
X146678714Y-67560000D01*
X146751993Y-67560000D01*
X147114126Y-67710000D01*
X147525874Y-67710000D01*
X147906280Y-67552431D01*
X148197431Y-67261280D01*
X148355000Y-66880874D01*
X148355000Y-66469126D01*
X148197431Y-66088720D01*
X147937402Y-65828691D01*
X151700000Y-65828691D01*
X151700000Y-66244250D01*
X151858750Y-66403000D01*
X152908000Y-66403000D01*
X152908000Y-65478750D01*
X153162000Y-65478750D01*
X153162000Y-66403000D01*
X154211250Y-66403000D01*
X154370000Y-66244250D01*
X154370000Y-65828691D01*
X154273327Y-65595302D01*
X154094699Y-65416673D01*
X153861310Y-65320000D01*
X153320750Y-65320000D01*
X153162000Y-65478750D01*
X152908000Y-65478750D01*
X152749250Y-65320000D01*
X152208690Y-65320000D01*
X151975301Y-65416673D01*
X151796673Y-65595302D01*
X151700000Y-65828691D01*
X147937402Y-65828691D01*
X147906280Y-65797569D01*
X147525874Y-65640000D01*
X147114126Y-65640000D01*
X146751993Y-65790000D01*
X145279423Y-65790000D01*
X145229586Y-65715414D01*
X145228403Y-65714623D01*
X145383327Y-65559698D01*
X145480000Y-65326309D01*
X145480000Y-64910750D01*
X145321250Y-64752000D01*
X144272000Y-64752000D01*
X144272000Y-64772000D01*
X144018000Y-64772000D01*
X144018000Y-64752000D01*
X142968750Y-64752000D01*
X142810000Y-64910750D01*
X142810000Y-65326309D01*
X142906673Y-65559698D01*
X143061597Y-65714623D01*
X143060414Y-65715414D01*
X142865873Y-66006564D01*
X142797560Y-66349999D01*
X142797560Y-67000001D01*
X142865873Y-67343436D01*
X142970670Y-67500275D01*
X142797191Y-67616191D01*
X142656843Y-67826235D01*
X142607560Y-68074000D01*
X141146279Y-68074000D01*
X141242891Y-67929411D01*
X141366100Y-67310000D01*
X141242891Y-66690589D01*
X140892023Y-66165477D01*
X140690526Y-66030841D01*
X141075973Y-65636924D01*
X141290563Y-65142980D01*
X141170594Y-64897000D01*
X139827000Y-64897000D01*
X139827000Y-64917000D01*
X139573000Y-64917000D01*
X139573000Y-64897000D01*
X138229406Y-64897000D01*
X138109437Y-65142980D01*
X138324027Y-65636924D01*
X138709474Y-66030841D01*
X138507977Y-66165477D01*
X138157109Y-66690589D01*
X138033900Y-67310000D01*
X121360000Y-67310000D01*
X121360000Y-65055750D01*
X121685000Y-65055750D01*
X121685000Y-65996310D01*
X121781673Y-66229699D01*
X121960302Y-66408327D01*
X122193691Y-66505000D01*
X122904250Y-66505000D01*
X123063000Y-66346250D01*
X123063000Y-64897000D01*
X121843750Y-64897000D01*
X121685000Y-65055750D01*
X121360000Y-65055750D01*
X121360000Y-63543690D01*
X121685000Y-63543690D01*
X121685000Y-64484250D01*
X121843750Y-64643000D01*
X123063000Y-64643000D01*
X123063000Y-63193750D01*
X123317000Y-63193750D01*
X123317000Y-64643000D01*
X123337000Y-64643000D01*
X123337000Y-64897000D01*
X123317000Y-64897000D01*
X123317000Y-66346250D01*
X123475750Y-66505000D01*
X124186309Y-66505000D01*
X124419698Y-66408327D01*
X124598327Y-66229699D01*
X124655364Y-66091999D01*
X125142779Y-66417678D01*
X125730000Y-66534484D01*
X126317222Y-66417678D01*
X126815044Y-66085044D01*
X127147678Y-65587221D01*
X127235000Y-65148225D01*
X127235000Y-64391774D01*
X127147678Y-63952778D01*
X126958732Y-63670000D01*
X128022560Y-63670000D01*
X128022560Y-65870000D01*
X128071843Y-66117765D01*
X128212191Y-66327809D01*
X128422235Y-66468157D01*
X128670000Y-66517440D01*
X130410000Y-66517440D01*
X130657765Y-66468157D01*
X130867809Y-66327809D01*
X131008157Y-66117765D01*
X131012353Y-66096668D01*
X131492779Y-66417678D01*
X132080000Y-66534484D01*
X132667222Y-66417678D01*
X133165044Y-66085044D01*
X133497678Y-65587221D01*
X133585000Y-65148225D01*
X133585000Y-64391774D01*
X133497678Y-63952778D01*
X133165044Y-63454956D01*
X132667221Y-63122322D01*
X132080000Y-63005516D01*
X131492778Y-63122322D01*
X131012353Y-63443331D01*
X131008157Y-63422235D01*
X130867809Y-63212191D01*
X130657765Y-63071843D01*
X130410000Y-63022560D01*
X128670000Y-63022560D01*
X128422235Y-63071843D01*
X128212191Y-63212191D01*
X128071843Y-63422235D01*
X128022560Y-63670000D01*
X126958732Y-63670000D01*
X126815044Y-63454956D01*
X126317221Y-63122322D01*
X125730000Y-63005516D01*
X125142778Y-63122322D01*
X124655364Y-63448001D01*
X124598327Y-63310301D01*
X124419698Y-63131673D01*
X124186309Y-63035000D01*
X123475750Y-63035000D01*
X123317000Y-63193750D01*
X123063000Y-63193750D01*
X122904250Y-63035000D01*
X122193691Y-63035000D01*
X121960302Y-63131673D01*
X121781673Y-63310301D01*
X121685000Y-63543690D01*
X121360000Y-63543690D01*
X121360000Y-62230000D01*
X138033900Y-62230000D01*
X138157109Y-62849411D01*
X138507977Y-63374523D01*
X138709474Y-63509159D01*
X138324027Y-63903076D01*
X138109437Y-64397020D01*
X138229406Y-64643000D01*
X139573000Y-64643000D01*
X139573000Y-64623000D01*
X139827000Y-64623000D01*
X139827000Y-64643000D01*
X141170594Y-64643000D01*
X141290563Y-64397020D01*
X141084930Y-63923691D01*
X142810000Y-63923691D01*
X142810000Y-64339250D01*
X142968750Y-64498000D01*
X144018000Y-64498000D01*
X144018000Y-63573750D01*
X144272000Y-63573750D01*
X144272000Y-64498000D01*
X145321250Y-64498000D01*
X145480000Y-64339250D01*
X145480000Y-63923691D01*
X145422863Y-63785750D01*
X145815000Y-63785750D01*
X145815000Y-64726310D01*
X145911673Y-64959699D01*
X146090302Y-65138327D01*
X146323691Y-65235000D01*
X147034250Y-65235000D01*
X147193000Y-65076250D01*
X147193000Y-63627000D01*
X145973750Y-63627000D01*
X145815000Y-63785750D01*
X145422863Y-63785750D01*
X145383327Y-63690302D01*
X145204699Y-63511673D01*
X144971310Y-63415000D01*
X144430750Y-63415000D01*
X144272000Y-63573750D01*
X144018000Y-63573750D01*
X143859250Y-63415000D01*
X143318690Y-63415000D01*
X143085301Y-63511673D01*
X142906673Y-63690302D01*
X142810000Y-63923691D01*
X141084930Y-63923691D01*
X141075973Y-63903076D01*
X140690526Y-63509159D01*
X140892023Y-63374523D01*
X141242891Y-62849411D01*
X141357409Y-62273690D01*
X145815000Y-62273690D01*
X145815000Y-63214250D01*
X145973750Y-63373000D01*
X147193000Y-63373000D01*
X147193000Y-61923750D01*
X147447000Y-61923750D01*
X147447000Y-63373000D01*
X147467000Y-63373000D01*
X147467000Y-63627000D01*
X147447000Y-63627000D01*
X147447000Y-65076250D01*
X147605750Y-65235000D01*
X148316309Y-65235000D01*
X148549698Y-65138327D01*
X148728327Y-64959699D01*
X148785364Y-64821999D01*
X149272779Y-65147678D01*
X149860000Y-65264484D01*
X150447222Y-65147678D01*
X150945044Y-64815044D01*
X151277678Y-64317221D01*
X151365000Y-63878225D01*
X151365000Y-63121774D01*
X151277678Y-62682778D01*
X150945044Y-62184956D01*
X150447221Y-61852322D01*
X149860000Y-61735516D01*
X149272778Y-61852322D01*
X148785364Y-62178001D01*
X148728327Y-62040301D01*
X148549698Y-61861673D01*
X148316309Y-61765000D01*
X147605750Y-61765000D01*
X147447000Y-61923750D01*
X147193000Y-61923750D01*
X147034250Y-61765000D01*
X146323691Y-61765000D01*
X146090302Y-61861673D01*
X145911673Y-62040301D01*
X145815000Y-62273690D01*
X141357409Y-62273690D01*
X141366100Y-62230000D01*
X141242891Y-61610589D01*
X140980912Y-61218509D01*
X141157809Y-61100309D01*
X141298157Y-60890265D01*
X141347440Y-60642500D01*
X141347440Y-58737500D01*
X141298157Y-58489735D01*
X141157809Y-58279691D01*
X140947765Y-58139343D01*
X140700000Y-58090060D01*
X138700000Y-58090060D01*
X138452235Y-58139343D01*
X138242191Y-58279691D01*
X138101843Y-58489735D01*
X138052560Y-58737500D01*
X138052560Y-60642500D01*
X138101843Y-60890265D01*
X138242191Y-61100309D01*
X138419088Y-61218509D01*
X138157109Y-61610589D01*
X138033900Y-62230000D01*
X121360000Y-62230000D01*
X121360000Y-58530866D01*
X125000000Y-58530866D01*
X125000000Y-59579134D01*
X125401155Y-60547608D01*
X126142392Y-61288845D01*
X127110866Y-61690000D01*
X128159134Y-61690000D01*
X129127608Y-61288845D01*
X129868845Y-60547608D01*
X130270000Y-59579134D01*
X130270000Y-58530866D01*
X129868845Y-57562392D01*
X129127608Y-56821155D01*
X128159134Y-56420000D01*
X127110866Y-56420000D01*
X126142392Y-56821155D01*
X125401155Y-57562392D01*
X125000000Y-58530866D01*
X121360000Y-58530866D01*
X121360000Y-53625750D01*
X121685000Y-53625750D01*
X121685000Y-54566310D01*
X121781673Y-54799699D01*
X121960302Y-54978327D01*
X122193691Y-55075000D01*
X122904250Y-55075000D01*
X123063000Y-54916250D01*
X123063000Y-53467000D01*
X121843750Y-53467000D01*
X121685000Y-53625750D01*
X121360000Y-53625750D01*
X121360000Y-52113690D01*
X121685000Y-52113690D01*
X121685000Y-53054250D01*
X121843750Y-53213000D01*
X123063000Y-53213000D01*
X123063000Y-51763750D01*
X123317000Y-51763750D01*
X123317000Y-53213000D01*
X123337000Y-53213000D01*
X123337000Y-53467000D01*
X123317000Y-53467000D01*
X123317000Y-54916250D01*
X123475750Y-55075000D01*
X124186309Y-55075000D01*
X124419698Y-54978327D01*
X124598327Y-54799699D01*
X124655364Y-54661999D01*
X125142779Y-54987678D01*
X125730000Y-55104484D01*
X126317222Y-54987678D01*
X126815044Y-54655044D01*
X127147678Y-54157221D01*
X127235000Y-53718225D01*
X127235000Y-52961774D01*
X127147678Y-52522778D01*
X126958732Y-52240000D01*
X128022560Y-52240000D01*
X128022560Y-54440000D01*
X128071843Y-54687765D01*
X128212191Y-54897809D01*
X128422235Y-55038157D01*
X128670000Y-55087440D01*
X130410000Y-55087440D01*
X130657765Y-55038157D01*
X130867809Y-54897809D01*
X131008157Y-54687765D01*
X131012353Y-54666668D01*
X131492779Y-54987678D01*
X132080000Y-55104484D01*
X132667222Y-54987678D01*
X133165044Y-54655044D01*
X133497678Y-54157221D01*
X133585000Y-53718225D01*
X133585000Y-53134126D01*
X139935000Y-53134126D01*
X139935000Y-53545874D01*
X140092569Y-53926280D01*
X140383720Y-54217431D01*
X140764126Y-54375000D01*
X141175874Y-54375000D01*
X141538007Y-54225000D01*
X141655054Y-54225000D01*
X141788414Y-54424586D01*
X141863001Y-54474423D01*
X141863001Y-54776835D01*
X141845663Y-54864000D01*
X141914348Y-55209309D01*
X142060576Y-55428154D01*
X142060578Y-55428156D01*
X142109952Y-55502049D01*
X142183845Y-55551423D01*
X143076577Y-56444156D01*
X143125951Y-56518049D01*
X143199844Y-56567423D01*
X143199845Y-56567424D01*
X143418690Y-56713652D01*
X143676835Y-56765000D01*
X143676839Y-56765000D01*
X143764000Y-56782337D01*
X143851161Y-56765000D01*
X158662839Y-56765000D01*
X158750000Y-56782337D01*
X158837161Y-56765000D01*
X158837165Y-56765000D01*
X159095310Y-56713652D01*
X159388049Y-56518049D01*
X159437425Y-56444154D01*
X159949156Y-55932423D01*
X160023049Y-55883049D01*
X160218652Y-55590310D01*
X160270000Y-55332165D01*
X160270000Y-55332161D01*
X160287337Y-55245000D01*
X160270000Y-55157839D01*
X160270000Y-54788709D01*
X160470044Y-54655044D01*
X160802678Y-54157221D01*
X160890000Y-53718225D01*
X160890000Y-52961774D01*
X160802678Y-52522778D01*
X160470044Y-52024956D01*
X159972221Y-51692322D01*
X159385000Y-51575516D01*
X158797778Y-51692322D01*
X158310364Y-52018001D01*
X158253327Y-51880301D01*
X158074698Y-51701673D01*
X157841309Y-51605000D01*
X157130750Y-51605000D01*
X156972000Y-51763750D01*
X156972000Y-53213000D01*
X156992000Y-53213000D01*
X156992000Y-53467000D01*
X156972000Y-53467000D01*
X156972000Y-53487000D01*
X156718000Y-53487000D01*
X156718000Y-53467000D01*
X155498750Y-53467000D01*
X155340000Y-53625750D01*
X155340000Y-54566310D01*
X155436673Y-54799699D01*
X155615302Y-54978327D01*
X155655554Y-54995000D01*
X144130579Y-54995000D01*
X143633000Y-54497422D01*
X143633000Y-54474423D01*
X143707586Y-54424586D01*
X143708377Y-54423403D01*
X143863302Y-54578327D01*
X144096691Y-54675000D01*
X144512250Y-54675000D01*
X144671000Y-54516250D01*
X144671000Y-53467000D01*
X144925000Y-53467000D01*
X144925000Y-54516250D01*
X145083750Y-54675000D01*
X145499309Y-54675000D01*
X145732698Y-54578327D01*
X145911327Y-54399699D01*
X146008000Y-54166310D01*
X146008000Y-53625750D01*
X145849250Y-53467000D01*
X144925000Y-53467000D01*
X144671000Y-53467000D01*
X144651000Y-53467000D01*
X144651000Y-53213000D01*
X144671000Y-53213000D01*
X144671000Y-52163750D01*
X144925000Y-52163750D01*
X144925000Y-53213000D01*
X145849250Y-53213000D01*
X146008000Y-53054250D01*
X146008000Y-52513690D01*
X145911327Y-52280301D01*
X145732698Y-52101673D01*
X145499309Y-52005000D01*
X145083750Y-52005000D01*
X144925000Y-52163750D01*
X144671000Y-52163750D01*
X144512250Y-52005000D01*
X144096691Y-52005000D01*
X143863302Y-52101673D01*
X143708377Y-52256597D01*
X143707586Y-52255414D01*
X143416436Y-52060873D01*
X143073001Y-51992560D01*
X142422999Y-51992560D01*
X142079564Y-52060873D01*
X141788414Y-52255414D01*
X141655054Y-52455000D01*
X141538007Y-52455000D01*
X141175874Y-52305000D01*
X140764126Y-52305000D01*
X140383720Y-52462569D01*
X140092569Y-52753720D01*
X139935000Y-53134126D01*
X133585000Y-53134126D01*
X133585000Y-52961774D01*
X133497678Y-52522778D01*
X133165044Y-52024956D01*
X132667221Y-51692322D01*
X132080000Y-51575516D01*
X131492778Y-51692322D01*
X131012353Y-52013331D01*
X131008157Y-51992235D01*
X130867809Y-51782191D01*
X130657765Y-51641843D01*
X130410000Y-51592560D01*
X128670000Y-51592560D01*
X128422235Y-51641843D01*
X128212191Y-51782191D01*
X128071843Y-51992235D01*
X128022560Y-52240000D01*
X126958732Y-52240000D01*
X126815044Y-52024956D01*
X126317221Y-51692322D01*
X125730000Y-51575516D01*
X125142778Y-51692322D01*
X124655364Y-52018001D01*
X124598327Y-51880301D01*
X124419698Y-51701673D01*
X124186309Y-51605000D01*
X123475750Y-51605000D01*
X123317000Y-51763750D01*
X123063000Y-51763750D01*
X122904250Y-51605000D01*
X122193691Y-51605000D01*
X121960302Y-51701673D01*
X121781673Y-51880301D01*
X121685000Y-52113690D01*
X121360000Y-52113690D01*
X121360000Y-48335000D01*
X150195450Y-48335000D01*
X149637392Y-48566155D01*
X149637392Y-48566155D01*
G37*
X149637392Y-48566155D02*
X148896155Y-49307392D01*
X148495000Y-50275866D01*
X148495000Y-51324134D01*
X148896155Y-52292608D01*
X149637392Y-53033845D01*
X150605866Y-53435000D01*
X151654134Y-53435000D01*
X152622608Y-53033845D01*
X153363845Y-52292608D01*
X153437955Y-52113690D01*
X155340000Y-52113690D01*
X155340000Y-53054250D01*
X155498750Y-53213000D01*
X156718000Y-53213000D01*
X156718000Y-51763750D01*
X156559250Y-51605000D01*
X155848691Y-51605000D01*
X155615302Y-51701673D01*
X155436673Y-51880301D01*
X155340000Y-52113690D01*
X153437955Y-52113690D01*
X153765000Y-51324134D01*
X153765000Y-50275866D01*
X153363845Y-49307392D01*
X152622608Y-48566155D01*
X152064550Y-48335000D01*
X161215001Y-48335000D01*
X161215000Y-80570000D01*
X121360000Y-80570000D01*
X121360000Y-79660750D01*
X145935000Y-79660750D01*
X145935000Y-80001309D01*
X146031673Y-80234698D01*
X146210301Y-80413327D01*
X146443690Y-80510000D01*
X147034250Y-80510000D01*
X147193000Y-80351250D01*
X147193000Y-79502000D01*
X147447000Y-79502000D01*
X147447000Y-80351250D01*
X147605750Y-80510000D01*
X148196310Y-80510000D01*
X148429699Y-80413327D01*
X148608327Y-80234698D01*
X148705000Y-80001309D01*
X148705000Y-79660750D01*
X148546250Y-79502000D01*
X147447000Y-79502000D01*
X147193000Y-79502000D01*
X146093750Y-79502000D01*
X145935000Y-79660750D01*
X121360000Y-79660750D01*
X121360000Y-76485750D01*
X121685000Y-76485750D01*
X121685000Y-77426310D01*
X121781673Y-77659699D01*
X121960302Y-77838327D01*
X122193691Y-77935000D01*
X122904250Y-77935000D01*
X123063000Y-77776250D01*
X123063000Y-76327000D01*
X121843750Y-76327000D01*
X121685000Y-76485750D01*
X121360000Y-76485750D01*
X121360000Y-74973690D01*
X121685000Y-74973690D01*
X121685000Y-75914250D01*
X121843750Y-76073000D01*
X123063000Y-76073000D01*
X123063000Y-74623750D01*
X123317000Y-74623750D01*
X123317000Y-76073000D01*
X123337000Y-76073000D01*
X123337000Y-76327000D01*
X123317000Y-76327000D01*
X123317000Y-77776250D01*
X123475750Y-77935000D01*
X124186309Y-77935000D01*
X124419698Y-77838327D01*
X124598327Y-77659699D01*
X124655364Y-77521999D01*
X125142779Y-77847678D01*
X125730000Y-77964484D01*
X126317222Y-77847678D01*
X126815044Y-77515044D01*
X127147678Y-77017221D01*
X127235000Y-76578225D01*
X127235000Y-75821774D01*
X127147678Y-75382778D01*
X126958732Y-75100000D01*
X128022560Y-75100000D01*
X128022560Y-77300000D01*
X128071843Y-77547765D01*
X128212191Y-77757809D01*
X128422235Y-77898157D01*
X128670000Y-77947440D01*
X130410000Y-77947440D01*
X130657765Y-77898157D01*
X130867809Y-77757809D01*
X131008157Y-77547765D01*
X131012353Y-77526668D01*
X131492779Y-77847678D01*
X132080000Y-77964484D01*
X132667222Y-77847678D01*
X133165044Y-77515044D01*
X133497678Y-77017221D01*
X133585000Y-76578225D01*
X133585000Y-75821774D01*
X133497678Y-75382778D01*
X133165044Y-74884956D01*
X132667221Y-74552322D01*
X132080000Y-74435516D01*
X131492778Y-74552322D01*
X131012353Y-74873331D01*
X131008157Y-74852235D01*
X130867809Y-74642191D01*
X130657765Y-74501843D01*
X130410000Y-74452560D01*
X128670000Y-74452560D01*
X128422235Y-74501843D01*
X128212191Y-74642191D01*
X128071843Y-74852235D01*
X128022560Y-75100000D01*
X126958732Y-75100000D01*
X126815044Y-74884956D01*
X126317221Y-74552322D01*
X125730000Y-74435516D01*
X125142778Y-74552322D01*
X124655364Y-74878001D01*
X124598327Y-74740301D01*
X124419698Y-74561673D01*
X124186309Y-74465000D01*
X123475750Y-74465000D01*
X123317000Y-74623750D01*
X123063000Y-74623750D01*
X122904250Y-74465000D01*
X122193691Y-74465000D01*
X121960302Y-74561673D01*
X121781673Y-74740301D01*
X121685000Y-74973690D01*
X121360000Y-74973690D01*
X121360000Y-73430000D01*
X135762560Y-73430000D01*
X135762560Y-76430000D01*
X135811843Y-76677765D01*
X135952191Y-76887809D01*
X136162235Y-77028157D01*
X136410000Y-77077440D01*
X137910000Y-77077440D01*
X138157765Y-77028157D01*
X138367809Y-76887809D01*
X138508157Y-76677765D01*
X138556391Y-76435275D01*
X138810460Y-76749145D01*
X139287316Y-77008173D01*
X139358815Y-77022318D01*
X139573000Y-76899656D01*
X139573000Y-75057000D01*
X139827000Y-75057000D01*
X139827000Y-76899656D01*
X140041185Y-77022318D01*
X140112684Y-77008173D01*
X140589540Y-76749145D01*
X140930972Y-76327349D01*
X141085000Y-75807000D01*
X141085000Y-75057000D01*
X139827000Y-75057000D01*
X139573000Y-75057000D01*
X139553000Y-75057000D01*
X139553000Y-74803000D01*
X139573000Y-74803000D01*
X139573000Y-72960344D01*
X139827000Y-72960344D01*
X139827000Y-74803000D01*
X141085000Y-74803000D01*
X141085000Y-74053000D01*
X140930972Y-73532651D01*
X140589540Y-73110855D01*
X140112684Y-72851827D01*
X140041185Y-72837682D01*
X139827000Y-72960344D01*
X139573000Y-72960344D01*
X139358815Y-72837682D01*
X139287316Y-72851827D01*
X138810460Y-73110855D01*
X138556391Y-73424725D01*
X138508157Y-73182235D01*
X138367809Y-72972191D01*
X138157765Y-72831843D01*
X137910000Y-72782560D01*
X136410000Y-72782560D01*
X136162235Y-72831843D01*
X135952191Y-72972191D01*
X135811843Y-73182235D01*
X135762560Y-73430000D01*
X121360000Y-73430000D01*
X121360000Y-69960866D01*
X125000000Y-69960866D01*
X125000000Y-71009134D01*
X125401155Y-71977608D01*
X126142392Y-72718845D01*
X127110866Y-73120000D01*
X128159134Y-73120000D01*
X129127608Y-72718845D01*
X129868845Y-71977608D01*
X130270000Y-71009134D01*
X130270000Y-69960866D01*
X129868845Y-68992392D01*
X129127608Y-68251155D01*
X128159134Y-67850000D01*
X127110866Y-67850000D01*
X126142392Y-68251155D01*
X125401155Y-68992392D01*
X125000000Y-69960866D01*
X121360000Y-69960866D01*
X121360000Y-67310000D01*
X138033900Y-67310000D01*
X138157109Y-67929411D01*
X138507977Y-68454523D01*
X139033089Y-68805391D01*
X139496150Y-68897500D01*
X139903850Y-68897500D01*
X140366911Y-68805391D01*
X140892023Y-68454523D01*
X141146279Y-68074000D01*
X142607560Y-68074000D01*
X142607560Y-69594000D01*
X142656843Y-69841765D01*
X142748541Y-69979000D01*
X142656843Y-70116235D01*
X142607560Y-70364000D01*
X142607560Y-71884000D01*
X142656843Y-72131765D01*
X142797191Y-72341809D01*
X143007235Y-72482157D01*
X143255000Y-72531440D01*
X143895001Y-72531440D01*
X143895000Y-73105614D01*
X143781471Y-73181472D01*
X143475359Y-73639601D01*
X143395000Y-74043594D01*
X143395000Y-75816407D01*
X143475360Y-76220400D01*
X143781472Y-76678529D01*
X144239601Y-76984641D01*
X144780000Y-77092133D01*
X145320400Y-76984641D01*
X145778529Y-76678529D01*
X146050001Y-76272243D01*
X146321472Y-76678529D01*
X146435001Y-76754386D01*
X146435001Y-76954413D01*
X146322235Y-76976843D01*
X146112191Y-77117191D01*
X145971843Y-77327235D01*
X145922560Y-77575000D01*
X145922560Y-78575000D01*
X145949936Y-78712632D01*
X145935000Y-78748691D01*
X145935000Y-79089250D01*
X146093750Y-79248000D01*
X147193000Y-79248000D01*
X147193000Y-79228000D01*
X147447000Y-79228000D01*
X147447000Y-79248000D01*
X148546250Y-79248000D01*
X148705000Y-79089250D01*
X148705000Y-78748691D01*
X148690064Y-78712632D01*
X148717440Y-78575000D01*
X148717440Y-78390750D01*
X155110000Y-78390750D01*
X155110000Y-79101309D01*
X155206673Y-79334698D01*
X155385301Y-79513327D01*
X155618690Y-79610000D01*
X156559250Y-79610000D01*
X156718000Y-79451250D01*
X156718000Y-78232000D01*
X156972000Y-78232000D01*
X156972000Y-79451250D01*
X157130750Y-79610000D01*
X158071310Y-79610000D01*
X158304699Y-79513327D01*
X158483327Y-79334698D01*
X158580000Y-79101309D01*
X158580000Y-78390750D01*
X158421250Y-78232000D01*
X156972000Y-78232000D01*
X156718000Y-78232000D01*
X155268750Y-78232000D01*
X155110000Y-78390750D01*
X148717440Y-78390750D01*
X148717440Y-77575000D01*
X148668157Y-77327235D01*
X148527809Y-77117191D01*
X148317765Y-76976843D01*
X148205000Y-76954413D01*
X148205000Y-76754387D01*
X148318529Y-76678529D01*
X148590001Y-76272243D01*
X148861472Y-76678529D01*
X149319601Y-76984641D01*
X149860000Y-77092133D01*
X150400400Y-76984641D01*
X150858529Y-76678529D01*
X151164641Y-76220400D01*
X151245000Y-75816407D01*
X151245000Y-74043593D01*
X151164641Y-73639600D01*
X150858528Y-73181471D01*
X150745000Y-73105614D01*
X150745000Y-72527440D01*
X151385000Y-72527440D01*
X151632765Y-72478157D01*
X151842809Y-72337809D01*
X151983157Y-72127765D01*
X152032440Y-71880000D01*
X152032440Y-70360000D01*
X151983157Y-70112235D01*
X151891459Y-69975000D01*
X151983157Y-69837765D01*
X152007576Y-69715000D01*
X152150000Y-69715000D01*
X152150001Y-74207835D01*
X152132663Y-74295000D01*
X152201348Y-74640309D01*
X152347576Y-74859154D01*
X152347578Y-74859156D01*
X152396952Y-74933049D01*
X152470845Y-74982423D01*
X153617577Y-76129156D01*
X153666951Y-76203049D01*
X153740844Y-76252423D01*
X153740845Y-76252424D01*
X153851880Y-76326615D01*
X153959690Y-76398652D01*
X154217835Y-76450000D01*
X154217839Y-76450000D01*
X154304999Y-76467337D01*
X154392159Y-76450000D01*
X155396291Y-76450000D01*
X155523001Y-76639636D01*
X155385301Y-76696673D01*
X155206673Y-76875302D01*
X155110000Y-77108691D01*
X155110000Y-77819250D01*
X155268750Y-77978000D01*
X156718000Y-77978000D01*
X156718000Y-77958000D01*
X156972000Y-77958000D01*
X156972000Y-77978000D01*
X158421250Y-77978000D01*
X158580000Y-77819250D01*
X158580000Y-77108691D01*
X158483327Y-76875302D01*
X158304699Y-76696673D01*
X158166999Y-76639636D01*
X158492678Y-76152222D01*
X158609484Y-75565000D01*
X158492678Y-74977778D01*
X158160044Y-74479956D01*
X157883238Y-74295000D01*
X158160044Y-74110044D01*
X158492678Y-73612222D01*
X158609484Y-73025000D01*
X158492678Y-72437778D01*
X158160044Y-71939956D01*
X157883238Y-71755000D01*
X158160044Y-71570044D01*
X158492678Y-71072222D01*
X158609484Y-70485000D01*
X158492678Y-69897778D01*
X158160044Y-69399956D01*
X157883238Y-69215000D01*
X158160044Y-69030044D01*
X158492678Y-68532222D01*
X158609484Y-67945000D01*
X158492678Y-67357778D01*
X158160044Y-66859956D01*
X157662222Y-66527322D01*
X157223226Y-66440000D01*
X156466774Y-66440000D01*
X156027778Y-66527322D01*
X155529956Y-66859956D01*
X155197322Y-67357778D01*
X155080516Y-67945000D01*
X155197322Y-68532222D01*
X155529956Y-69030044D01*
X155806762Y-69215000D01*
X155529956Y-69399956D01*
X155197322Y-69897778D01*
X155080516Y-70485000D01*
X155197322Y-71072222D01*
X155529956Y-71570044D01*
X155806762Y-71755000D01*
X155529956Y-71939956D01*
X155197322Y-72437778D01*
X155080516Y-73025000D01*
X155197322Y-73612222D01*
X155529956Y-74110044D01*
X155806762Y-74295000D01*
X155529956Y-74479956D01*
X155396291Y-74680000D01*
X154671579Y-74680000D01*
X153920000Y-73928422D01*
X153920000Y-69672946D01*
X154119586Y-69539586D01*
X154314127Y-69248436D01*
X154382440Y-68905001D01*
X154382440Y-68254999D01*
X154314127Y-67911564D01*
X154119586Y-67620414D01*
X154118403Y-67619623D01*
X154273327Y-67464698D01*
X154370000Y-67231309D01*
X154370000Y-66815750D01*
X154211250Y-66657000D01*
X153162000Y-66657000D01*
X153162000Y-66677000D01*
X152908000Y-66677000D01*
X152908000Y-66657000D01*
X151858750Y-66657000D01*
X151700000Y-66815750D01*
X151700000Y-67231309D01*
X151796673Y-67464698D01*
X151951597Y-67619623D01*
X151950414Y-67620414D01*
X151899359Y-67696823D01*
X151842809Y-67612191D01*
X151632765Y-67471843D01*
X151385000Y-67422560D01*
X148335000Y-67422560D01*
X148087235Y-67471843D01*
X147877191Y-67612191D01*
X147736843Y-67822235D01*
X147687560Y-68070000D01*
X147687560Y-69590000D01*
X147736843Y-69837765D01*
X147828541Y-69975000D01*
X147736843Y-70112235D01*
X147687560Y-70360000D01*
X147687560Y-71880000D01*
X147736843Y-72127765D01*
X147877191Y-72337809D01*
X148087235Y-72478157D01*
X148335000Y-72527440D01*
X148975001Y-72527440D01*
X148975000Y-73105614D01*
X148861471Y-73181472D01*
X148590000Y-73587757D01*
X148318528Y-73181471D01*
X147860399Y-72875359D01*
X147320000Y-72767867D01*
X146779600Y-72875359D01*
X146321471Y-73181472D01*
X146050000Y-73587757D01*
X145778528Y-73181471D01*
X145665000Y-73105614D01*
X145665000Y-72531440D01*
X146305000Y-72531440D01*
X146552765Y-72482157D01*
X146762809Y-72341809D01*
X146903157Y-72131765D01*
X146952440Y-71884000D01*
X146952440Y-70364000D01*
X146903157Y-70116235D01*
X146811459Y-69979000D01*
X146903157Y-69841765D01*
X146952440Y-69594000D01*
X146952440Y-68074000D01*
X146903157Y-67826235D01*
X146762809Y-67616191D01*
X146678714Y-67560000D01*
X146751993Y-67560000D01*
X147114126Y-67710000D01*
X147525874Y-67710000D01*
X147906280Y-67552431D01*
X148197431Y-67261280D01*
X148355000Y-66880874D01*
X148355000Y-66469126D01*
X148197431Y-66088720D01*
X147937402Y-65828691D01*
X151700000Y-65828691D01*
X151700000Y-66244250D01*
X151858750Y-66403000D01*
X152908000Y-66403000D01*
X152908000Y-65478750D01*
X153162000Y-65478750D01*
X153162000Y-66403000D01*
X154211250Y-66403000D01*
X154370000Y-66244250D01*
X154370000Y-65828691D01*
X154273327Y-65595302D01*
X154094699Y-65416673D01*
X153861310Y-65320000D01*
X153320750Y-65320000D01*
X153162000Y-65478750D01*
X152908000Y-65478750D01*
X152749250Y-65320000D01*
X152208690Y-65320000D01*
X151975301Y-65416673D01*
X151796673Y-65595302D01*
X151700000Y-65828691D01*
X147937402Y-65828691D01*
X147906280Y-65797569D01*
X147525874Y-65640000D01*
X147114126Y-65640000D01*
X146751993Y-65790000D01*
X145279423Y-65790000D01*
X145229586Y-65715414D01*
X145228403Y-65714623D01*
X145383327Y-65559698D01*
X145480000Y-65326309D01*
X145480000Y-64910750D01*
X145321250Y-64752000D01*
X144272000Y-64752000D01*
X144272000Y-64772000D01*
X144018000Y-64772000D01*
X144018000Y-64752000D01*
X142968750Y-64752000D01*
X142810000Y-64910750D01*
X142810000Y-65326309D01*
X142906673Y-65559698D01*
X143061597Y-65714623D01*
X143060414Y-65715414D01*
X142865873Y-66006564D01*
X142797560Y-66349999D01*
X142797560Y-67000001D01*
X142865873Y-67343436D01*
X142970670Y-67500275D01*
X142797191Y-67616191D01*
X142656843Y-67826235D01*
X142607560Y-68074000D01*
X141146279Y-68074000D01*
X141242891Y-67929411D01*
X141366100Y-67310000D01*
X141242891Y-66690589D01*
X140892023Y-66165477D01*
X140690526Y-66030841D01*
X141075973Y-65636924D01*
X141290563Y-65142980D01*
X141170594Y-64897000D01*
X139827000Y-64897000D01*
X139827000Y-64917000D01*
X139573000Y-64917000D01*
X139573000Y-64897000D01*
X138229406Y-64897000D01*
X138109437Y-65142980D01*
X138324027Y-65636924D01*
X138709474Y-66030841D01*
X138507977Y-66165477D01*
X138157109Y-66690589D01*
X138033900Y-67310000D01*
X121360000Y-67310000D01*
X121360000Y-65055750D01*
X121685000Y-65055750D01*
X121685000Y-65996310D01*
X121781673Y-66229699D01*
X121960302Y-66408327D01*
X122193691Y-66505000D01*
X122904250Y-66505000D01*
X123063000Y-66346250D01*
X123063000Y-64897000D01*
X121843750Y-64897000D01*
X121685000Y-65055750D01*
X121360000Y-65055750D01*
X121360000Y-63543690D01*
X121685000Y-63543690D01*
X121685000Y-64484250D01*
X121843750Y-64643000D01*
X123063000Y-64643000D01*
X123063000Y-63193750D01*
X123317000Y-63193750D01*
X123317000Y-64643000D01*
X123337000Y-64643000D01*
X123337000Y-64897000D01*
X123317000Y-64897000D01*
X123317000Y-66346250D01*
X123475750Y-66505000D01*
X124186309Y-66505000D01*
X124419698Y-66408327D01*
X124598327Y-66229699D01*
X124655364Y-66091999D01*
X125142779Y-66417678D01*
X125730000Y-66534484D01*
X126317222Y-66417678D01*
X126815044Y-66085044D01*
X127147678Y-65587221D01*
X127235000Y-65148225D01*
X127235000Y-64391774D01*
X127147678Y-63952778D01*
X126958732Y-63670000D01*
X128022560Y-63670000D01*
X128022560Y-65870000D01*
X128071843Y-66117765D01*
X128212191Y-66327809D01*
X128422235Y-66468157D01*
X128670000Y-66517440D01*
X130410000Y-66517440D01*
X130657765Y-66468157D01*
X130867809Y-66327809D01*
X131008157Y-66117765D01*
X131012353Y-66096668D01*
X131492779Y-66417678D01*
X132080000Y-66534484D01*
X132667222Y-66417678D01*
X133165044Y-66085044D01*
X133497678Y-65587221D01*
X133585000Y-65148225D01*
X133585000Y-64391774D01*
X133497678Y-63952778D01*
X133165044Y-63454956D01*
X132667221Y-63122322D01*
X132080000Y-63005516D01*
X131492778Y-63122322D01*
X131012353Y-63443331D01*
X131008157Y-63422235D01*
X130867809Y-63212191D01*
X130657765Y-63071843D01*
X130410000Y-63022560D01*
X128670000Y-63022560D01*
X128422235Y-63071843D01*
X128212191Y-63212191D01*
X128071843Y-63422235D01*
X128022560Y-63670000D01*
X126958732Y-63670000D01*
X126815044Y-63454956D01*
X126317221Y-63122322D01*
X125730000Y-63005516D01*
X125142778Y-63122322D01*
X124655364Y-63448001D01*
X124598327Y-63310301D01*
X124419698Y-63131673D01*
X124186309Y-63035000D01*
X123475750Y-63035000D01*
X123317000Y-63193750D01*
X123063000Y-63193750D01*
X122904250Y-63035000D01*
X122193691Y-63035000D01*
X121960302Y-63131673D01*
X121781673Y-63310301D01*
X121685000Y-63543690D01*
X121360000Y-63543690D01*
X121360000Y-62230000D01*
X138033900Y-62230000D01*
X138157109Y-62849411D01*
X138507977Y-63374523D01*
X138709474Y-63509159D01*
X138324027Y-63903076D01*
X138109437Y-64397020D01*
X138229406Y-64643000D01*
X139573000Y-64643000D01*
X139573000Y-64623000D01*
X139827000Y-64623000D01*
X139827000Y-64643000D01*
X141170594Y-64643000D01*
X141290563Y-64397020D01*
X141084930Y-63923691D01*
X142810000Y-63923691D01*
X142810000Y-64339250D01*
X142968750Y-64498000D01*
X144018000Y-64498000D01*
X144018000Y-63573750D01*
X144272000Y-63573750D01*
X144272000Y-64498000D01*
X145321250Y-64498000D01*
X145480000Y-64339250D01*
X145480000Y-63923691D01*
X145422863Y-63785750D01*
X145815000Y-63785750D01*
X145815000Y-64726310D01*
X145911673Y-64959699D01*
X146090302Y-65138327D01*
X146323691Y-65235000D01*
X147034250Y-65235000D01*
X147193000Y-65076250D01*
X147193000Y-63627000D01*
X145973750Y-63627000D01*
X145815000Y-63785750D01*
X145422863Y-63785750D01*
X145383327Y-63690302D01*
X145204699Y-63511673D01*
X144971310Y-63415000D01*
X144430750Y-63415000D01*
X144272000Y-63573750D01*
X144018000Y-63573750D01*
X143859250Y-63415000D01*
X143318690Y-63415000D01*
X143085301Y-63511673D01*
X142906673Y-63690302D01*
X142810000Y-63923691D01*
X141084930Y-63923691D01*
X141075973Y-63903076D01*
X140690526Y-63509159D01*
X140892023Y-63374523D01*
X141242891Y-62849411D01*
X141357409Y-62273690D01*
X145815000Y-62273690D01*
X145815000Y-63214250D01*
X145973750Y-63373000D01*
X147193000Y-63373000D01*
X147193000Y-61923750D01*
X147447000Y-61923750D01*
X147447000Y-63373000D01*
X147467000Y-63373000D01*
X147467000Y-63627000D01*
X147447000Y-63627000D01*
X147447000Y-65076250D01*
X147605750Y-65235000D01*
X148316309Y-65235000D01*
X148549698Y-65138327D01*
X148728327Y-64959699D01*
X148785364Y-64821999D01*
X149272779Y-65147678D01*
X149860000Y-65264484D01*
X150447222Y-65147678D01*
X150945044Y-64815044D01*
X151277678Y-64317221D01*
X151365000Y-63878225D01*
X151365000Y-63121774D01*
X151277678Y-62682778D01*
X150945044Y-62184956D01*
X150447221Y-61852322D01*
X149860000Y-61735516D01*
X149272778Y-61852322D01*
X148785364Y-62178001D01*
X148728327Y-62040301D01*
X148549698Y-61861673D01*
X148316309Y-61765000D01*
X147605750Y-61765000D01*
X147447000Y-61923750D01*
X147193000Y-61923750D01*
X147034250Y-61765000D01*
X146323691Y-61765000D01*
X146090302Y-61861673D01*
X145911673Y-62040301D01*
X145815000Y-62273690D01*
X141357409Y-62273690D01*
X141366100Y-62230000D01*
X141242891Y-61610589D01*
X140980912Y-61218509D01*
X141157809Y-61100309D01*
X141298157Y-60890265D01*
X141347440Y-60642500D01*
X141347440Y-58737500D01*
X141298157Y-58489735D01*
X141157809Y-58279691D01*
X140947765Y-58139343D01*
X140700000Y-58090060D01*
X138700000Y-58090060D01*
X138452235Y-58139343D01*
X138242191Y-58279691D01*
X138101843Y-58489735D01*
X138052560Y-58737500D01*
X138052560Y-60642500D01*
X138101843Y-60890265D01*
X138242191Y-61100309D01*
X138419088Y-61218509D01*
X138157109Y-61610589D01*
X138033900Y-62230000D01*
X121360000Y-62230000D01*
X121360000Y-58530866D01*
X125000000Y-58530866D01*
X125000000Y-59579134D01*
X125401155Y-60547608D01*
X126142392Y-61288845D01*
X127110866Y-61690000D01*
X128159134Y-61690000D01*
X129127608Y-61288845D01*
X129868845Y-60547608D01*
X130270000Y-59579134D01*
X130270000Y-58530866D01*
X129868845Y-57562392D01*
X129127608Y-56821155D01*
X128159134Y-56420000D01*
X127110866Y-56420000D01*
X126142392Y-56821155D01*
X125401155Y-57562392D01*
X125000000Y-58530866D01*
X121360000Y-58530866D01*
X121360000Y-53625750D01*
X121685000Y-53625750D01*
X121685000Y-54566310D01*
X121781673Y-54799699D01*
X121960302Y-54978327D01*
X122193691Y-55075000D01*
X122904250Y-55075000D01*
X123063000Y-54916250D01*
X123063000Y-53467000D01*
X121843750Y-53467000D01*
X121685000Y-53625750D01*
X121360000Y-53625750D01*
X121360000Y-52113690D01*
X121685000Y-52113690D01*
X121685000Y-53054250D01*
X121843750Y-53213000D01*
X123063000Y-53213000D01*
X123063000Y-51763750D01*
X123317000Y-51763750D01*
X123317000Y-53213000D01*
X123337000Y-53213000D01*
X123337000Y-53467000D01*
X123317000Y-53467000D01*
X123317000Y-54916250D01*
X123475750Y-55075000D01*
X124186309Y-55075000D01*
X124419698Y-54978327D01*
X124598327Y-54799699D01*
X124655364Y-54661999D01*
X125142779Y-54987678D01*
X125730000Y-55104484D01*
X126317222Y-54987678D01*
X126815044Y-54655044D01*
X127147678Y-54157221D01*
X127235000Y-53718225D01*
X127235000Y-52961774D01*
X127147678Y-52522778D01*
X126958732Y-52240000D01*
X128022560Y-52240000D01*
X128022560Y-54440000D01*
X128071843Y-54687765D01*
X128212191Y-54897809D01*
X128422235Y-55038157D01*
X128670000Y-55087440D01*
X130410000Y-55087440D01*
X130657765Y-55038157D01*
X130867809Y-54897809D01*
X131008157Y-54687765D01*
X131012353Y-54666668D01*
X131492779Y-54987678D01*
X132080000Y-55104484D01*
X132667222Y-54987678D01*
X133165044Y-54655044D01*
X133497678Y-54157221D01*
X133585000Y-53718225D01*
X133585000Y-53134126D01*
X139935000Y-53134126D01*
X139935000Y-53545874D01*
X140092569Y-53926280D01*
X140383720Y-54217431D01*
X140764126Y-54375000D01*
X141175874Y-54375000D01*
X141538007Y-54225000D01*
X141655054Y-54225000D01*
X141788414Y-54424586D01*
X141863001Y-54474423D01*
X141863001Y-54776835D01*
X141845663Y-54864000D01*
X141914348Y-55209309D01*
X142060576Y-55428154D01*
X142060578Y-55428156D01*
X142109952Y-55502049D01*
X142183845Y-55551423D01*
X143076577Y-56444156D01*
X143125951Y-56518049D01*
X143199844Y-56567423D01*
X143199845Y-56567424D01*
X143418690Y-56713652D01*
X143676835Y-56765000D01*
X143676839Y-56765000D01*
X143764000Y-56782337D01*
X143851161Y-56765000D01*
X158662839Y-56765000D01*
X158750000Y-56782337D01*
X158837161Y-56765000D01*
X158837165Y-56765000D01*
X159095310Y-56713652D01*
X159388049Y-56518049D01*
X159437425Y-56444154D01*
X159949156Y-55932423D01*
X160023049Y-55883049D01*
X160218652Y-55590310D01*
X160270000Y-55332165D01*
X160270000Y-55332161D01*
X160287337Y-55245000D01*
X160270000Y-55157839D01*
X160270000Y-54788709D01*
X160470044Y-54655044D01*
X160802678Y-54157221D01*
X160890000Y-53718225D01*
X160890000Y-52961774D01*
X160802678Y-52522778D01*
X160470044Y-52024956D01*
X159972221Y-51692322D01*
X159385000Y-51575516D01*
X158797778Y-51692322D01*
X158310364Y-52018001D01*
X158253327Y-51880301D01*
X158074698Y-51701673D01*
X157841309Y-51605000D01*
X157130750Y-51605000D01*
X156972000Y-51763750D01*
X156972000Y-53213000D01*
X156992000Y-53213000D01*
X156992000Y-53467000D01*
X156972000Y-53467000D01*
X156972000Y-53487000D01*
X156718000Y-53487000D01*
X156718000Y-53467000D01*
X155498750Y-53467000D01*
X155340000Y-53625750D01*
X155340000Y-54566310D01*
X155436673Y-54799699D01*
X155615302Y-54978327D01*
X155655554Y-54995000D01*
X144130579Y-54995000D01*
X143633000Y-54497422D01*
X143633000Y-54474423D01*
X143707586Y-54424586D01*
X143708377Y-54423403D01*
X143863302Y-54578327D01*
X144096691Y-54675000D01*
X144512250Y-54675000D01*
X144671000Y-54516250D01*
X144671000Y-53467000D01*
X144925000Y-53467000D01*
X144925000Y-54516250D01*
X145083750Y-54675000D01*
X145499309Y-54675000D01*
X145732698Y-54578327D01*
X145911327Y-54399699D01*
X146008000Y-54166310D01*
X146008000Y-53625750D01*
X145849250Y-53467000D01*
X144925000Y-53467000D01*
X144671000Y-53467000D01*
X144651000Y-53467000D01*
X144651000Y-53213000D01*
X144671000Y-53213000D01*
X144671000Y-52163750D01*
X144925000Y-52163750D01*
X144925000Y-53213000D01*
X145849250Y-53213000D01*
X146008000Y-53054250D01*
X146008000Y-52513690D01*
X145911327Y-52280301D01*
X145732698Y-52101673D01*
X145499309Y-52005000D01*
X145083750Y-52005000D01*
X144925000Y-52163750D01*
X144671000Y-52163750D01*
X144512250Y-52005000D01*
X144096691Y-52005000D01*
X143863302Y-52101673D01*
X143708377Y-52256597D01*
X143707586Y-52255414D01*
X143416436Y-52060873D01*
X143073001Y-51992560D01*
X142422999Y-51992560D01*
X142079564Y-52060873D01*
X141788414Y-52255414D01*
X141655054Y-52455000D01*
X141538007Y-52455000D01*
X141175874Y-52305000D01*
X140764126Y-52305000D01*
X140383720Y-52462569D01*
X140092569Y-52753720D01*
X139935000Y-53134126D01*
X133585000Y-53134126D01*
X133585000Y-52961774D01*
X133497678Y-52522778D01*
X133165044Y-52024956D01*
X132667221Y-51692322D01*
X132080000Y-51575516D01*
X131492778Y-51692322D01*
X131012353Y-52013331D01*
X131008157Y-51992235D01*
X130867809Y-51782191D01*
X130657765Y-51641843D01*
X130410000Y-51592560D01*
X128670000Y-51592560D01*
X128422235Y-51641843D01*
X128212191Y-51782191D01*
X128071843Y-51992235D01*
X128022560Y-52240000D01*
X126958732Y-52240000D01*
X126815044Y-52024956D01*
X126317221Y-51692322D01*
X125730000Y-51575516D01*
X125142778Y-51692322D01*
X124655364Y-52018001D01*
X124598327Y-51880301D01*
X124419698Y-51701673D01*
X124186309Y-51605000D01*
X123475750Y-51605000D01*
X123317000Y-51763750D01*
X123063000Y-51763750D01*
X122904250Y-51605000D01*
X122193691Y-51605000D01*
X121960302Y-51701673D01*
X121781673Y-51880301D01*
X121685000Y-52113690D01*
X121360000Y-52113690D01*
X121360000Y-48335000D01*
X150195450Y-48335000D01*
X149637392Y-48566155D01*
M02*
