G04 #@! TF.GenerationSoftware,KiCad,Pcbnew,5.0.1*
G04 #@! TF.CreationDate,2019-02-04T15:42:07-06:00*
G04 #@! TF.ProjectId,PowerRDP,506F7765725244502E6B696361645F70,2*
G04 #@! TF.SameCoordinates,Original*
G04 #@! TF.FileFunction,Legend,Bot*
G04 #@! TF.FilePolarity,Positive*
%FSLAX46Y46*%
G04 Gerber Fmt 4.6, Leading zero omitted, Abs format (unit mm)*
G04 Created by KiCad (PCBNEW 5.0.1) date Mon 04 Feb 2019 03:42:07 PM CST*
%MOMM*%
%LPD*%
G01*
G04 APERTURE LIST*
%ADD10C,0.120000*%
%ADD11C,0.150000*%
%ADD12C,0.010000*%
G04 APERTURE END LIST*
D10*
G04 #@! TO.C,C1*
X128253748Y-83006000D02*
X128776252Y-83006000D01*
X128253748Y-81586000D02*
X128776252Y-81586000D01*
G04 #@! TO.C,C2*
X122630000Y-89161252D02*
X122630000Y-88638748D01*
X121210000Y-89161252D02*
X121210000Y-88638748D01*
G04 #@! TO.C,C9*
X123705252Y-79958000D02*
X123182748Y-79958000D01*
X123705252Y-78538000D02*
X123182748Y-78538000D01*
G04 #@! TO.C,C10*
X121106000Y-77979748D02*
X121106000Y-78502252D01*
X119686000Y-77979748D02*
X119686000Y-78502252D01*
G04 #@! TO.C,JP1*
X119396000Y-83696000D02*
X121396000Y-83696000D01*
X119396000Y-80896000D02*
X119396000Y-83696000D01*
X121396000Y-80896000D02*
X119396000Y-80896000D01*
X121396000Y-83696000D02*
X121396000Y-80896000D01*
G04 #@! TO.C,Q1*
X137472000Y-77590000D02*
X138522000Y-77590000D01*
X138522000Y-77590000D02*
X138522000Y-75740000D01*
X135472000Y-77590000D02*
X136472000Y-77590000D01*
X135462000Y-77570000D02*
X135462000Y-75140000D01*
G04 #@! TO.C,R1*
X122787448Y-76012067D02*
X122787448Y-76534571D01*
X124207448Y-76012067D02*
X124207448Y-76534571D01*
G04 #@! TO.C,R2*
X119163196Y-74556319D02*
X119685700Y-74556319D01*
X119163196Y-75976319D02*
X119685700Y-75976319D01*
D11*
G04 #@! TO.C,U5*
X131508448Y-73580319D02*
X131508448Y-73630319D01*
X127358448Y-73580319D02*
X127358448Y-73725319D01*
X127358448Y-78730319D02*
X127358448Y-78585319D01*
X131508448Y-78730319D02*
X131508448Y-78585319D01*
X131508448Y-73580319D02*
X127358448Y-73580319D01*
X131508448Y-78730319D02*
X127358448Y-78730319D01*
X131508448Y-73630319D02*
X132908448Y-73630319D01*
D12*
G04 #@! TO.C,G\002A\002A\002A*
G36*
X96361126Y-63145517D02*
X96639828Y-62965417D01*
X96885973Y-62856998D01*
X97437601Y-62656195D01*
X97992336Y-62467622D01*
X98517513Y-62300857D01*
X98980465Y-62165479D01*
X99348524Y-62071065D01*
X99589025Y-62027195D01*
X99669600Y-62040789D01*
X99590207Y-62105656D01*
X99542600Y-62123721D01*
X98578127Y-62471768D01*
X97550169Y-62926544D01*
X97260243Y-63069342D01*
X96864681Y-63258289D01*
X96536166Y-63395742D01*
X96316018Y-63465558D01*
X96247836Y-63464904D01*
X96221125Y-63320908D01*
X96361126Y-63145517D01*
X96361126Y-63145517D01*
G37*
X96361126Y-63145517D02*
X96639828Y-62965417D01*
X96885973Y-62856998D01*
X97437601Y-62656195D01*
X97992336Y-62467622D01*
X98517513Y-62300857D01*
X98980465Y-62165479D01*
X99348524Y-62071065D01*
X99589025Y-62027195D01*
X99669600Y-62040789D01*
X99590207Y-62105656D01*
X99542600Y-62123721D01*
X98578127Y-62471768D01*
X97550169Y-62926544D01*
X97260243Y-63069342D01*
X96864681Y-63258289D01*
X96536166Y-63395742D01*
X96316018Y-63465558D01*
X96247836Y-63464904D01*
X96221125Y-63320908D01*
X96361126Y-63145517D01*
G36*
X99822000Y-61976000D02*
X99872800Y-62026800D01*
X99822000Y-62077600D01*
X99771200Y-62026800D01*
X99822000Y-61976000D01*
X99822000Y-61976000D01*
G37*
X99822000Y-61976000D02*
X99872800Y-62026800D01*
X99822000Y-62077600D01*
X99771200Y-62026800D01*
X99822000Y-61976000D01*
G36*
X120226666Y-80196267D02*
X120287067Y-80210214D01*
X120294400Y-80264000D01*
X120257226Y-80347629D01*
X120226666Y-80331734D01*
X120214507Y-80211158D01*
X120226666Y-80196267D01*
X120226666Y-80196267D01*
G37*
X120226666Y-80196267D02*
X120287067Y-80210214D01*
X120294400Y-80264000D01*
X120257226Y-80347629D01*
X120226666Y-80331734D01*
X120214507Y-80211158D01*
X120226666Y-80196267D01*
G36*
X108771006Y-76702850D02*
X108861168Y-76549619D01*
X108973969Y-76434408D01*
X109005104Y-76473117D01*
X108954170Y-76633426D01*
X108864400Y-76809600D01*
X108758575Y-76954765D01*
X108716011Y-76915081D01*
X108715600Y-76905219D01*
X108771006Y-76702850D01*
X108771006Y-76702850D01*
G37*
X108771006Y-76702850D02*
X108861168Y-76549619D01*
X108973969Y-76434408D01*
X109005104Y-76473117D01*
X108954170Y-76633426D01*
X108864400Y-76809600D01*
X108758575Y-76954765D01*
X108716011Y-76915081D01*
X108715600Y-76905219D01*
X108771006Y-76702850D01*
G36*
X109286351Y-76825016D02*
X109419819Y-76592256D01*
X109548347Y-76444303D01*
X109598186Y-76416940D01*
X109569232Y-76530519D01*
X109461383Y-76805390D01*
X109418190Y-76911200D01*
X109308057Y-77164363D01*
X109250075Y-77242325D01*
X109227849Y-77161177D01*
X109225525Y-77100256D01*
X109286351Y-76825016D01*
X109286351Y-76825016D01*
G37*
X109286351Y-76825016D02*
X109419819Y-76592256D01*
X109548347Y-76444303D01*
X109598186Y-76416940D01*
X109569232Y-76530519D01*
X109461383Y-76805390D01*
X109418190Y-76911200D01*
X109308057Y-77164363D01*
X109250075Y-77242325D01*
X109227849Y-77161177D01*
X109225525Y-77100256D01*
X109286351Y-76825016D01*
G36*
X106705798Y-78206600D02*
X106829928Y-78120362D01*
X107072327Y-78121334D01*
X107371785Y-78201452D01*
X107629628Y-78328341D01*
X107827189Y-78437177D01*
X107984542Y-78452612D01*
X108195806Y-78374347D01*
X108296877Y-78326224D01*
X108622496Y-78189087D01*
X108931866Y-78089215D01*
X108972848Y-78079590D01*
X109042082Y-78081132D01*
X108944324Y-78145323D01*
X108700917Y-78258513D01*
X108677180Y-78268685D01*
X108361200Y-78407661D01*
X108127200Y-78518528D01*
X108032946Y-78572388D01*
X108021284Y-78708008D01*
X108117896Y-78906459D01*
X108275655Y-79099650D01*
X108447434Y-79219485D01*
X108488187Y-79230169D01*
X108650170Y-79228391D01*
X108678694Y-79118445D01*
X108654404Y-79003097D01*
X108640093Y-78799917D01*
X108763946Y-78681047D01*
X108860383Y-78639928D01*
X109296376Y-78543441D01*
X109667338Y-78595940D01*
X109847412Y-78705321D01*
X110030062Y-78815833D01*
X110236603Y-78780240D01*
X110287212Y-78758299D01*
X110513658Y-78617343D01*
X110552141Y-78482885D01*
X110398772Y-78351321D01*
X110049664Y-78219047D01*
X109575600Y-78098787D01*
X109547163Y-78081262D01*
X109689191Y-78083946D01*
X109872574Y-78097859D01*
X110278126Y-78158931D01*
X110575944Y-78253564D01*
X110726076Y-78367159D01*
X110735978Y-78413375D01*
X110694437Y-78566089D01*
X110675677Y-78616103D01*
X110545090Y-78747622D01*
X110273117Y-78913833D01*
X109912275Y-79088680D01*
X109515085Y-79246102D01*
X109220000Y-79338384D01*
X109020182Y-79371032D01*
X109020182Y-79186737D01*
X109161665Y-79127772D01*
X109171158Y-79119567D01*
X109303699Y-78961400D01*
X109246716Y-78859883D01*
X109094752Y-78805978D01*
X108861632Y-78794149D01*
X108766297Y-78888194D01*
X108838171Y-79053170D01*
X108863691Y-79080378D01*
X109020182Y-79186737D01*
X109020182Y-79371032D01*
X108909571Y-79389106D01*
X108573749Y-79395879D01*
X108271177Y-79364324D01*
X108060497Y-79300065D01*
X107997654Y-79221184D01*
X107960015Y-79085841D01*
X107858794Y-78861837D01*
X107850295Y-78845267D01*
X107625527Y-78601313D01*
X107272148Y-78419807D01*
X106862931Y-78336113D01*
X106798533Y-78334167D01*
X106700877Y-78262412D01*
X106705798Y-78206600D01*
X106705798Y-78206600D01*
G37*
X106705798Y-78206600D02*
X106829928Y-78120362D01*
X107072327Y-78121334D01*
X107371785Y-78201452D01*
X107629628Y-78328341D01*
X107827189Y-78437177D01*
X107984542Y-78452612D01*
X108195806Y-78374347D01*
X108296877Y-78326224D01*
X108622496Y-78189087D01*
X108931866Y-78089215D01*
X108972848Y-78079590D01*
X109042082Y-78081132D01*
X108944324Y-78145323D01*
X108700917Y-78258513D01*
X108677180Y-78268685D01*
X108361200Y-78407661D01*
X108127200Y-78518528D01*
X108032946Y-78572388D01*
X108021284Y-78708008D01*
X108117896Y-78906459D01*
X108275655Y-79099650D01*
X108447434Y-79219485D01*
X108488187Y-79230169D01*
X108650170Y-79228391D01*
X108678694Y-79118445D01*
X108654404Y-79003097D01*
X108640093Y-78799917D01*
X108763946Y-78681047D01*
X108860383Y-78639928D01*
X109296376Y-78543441D01*
X109667338Y-78595940D01*
X109847412Y-78705321D01*
X110030062Y-78815833D01*
X110236603Y-78780240D01*
X110287212Y-78758299D01*
X110513658Y-78617343D01*
X110552141Y-78482885D01*
X110398772Y-78351321D01*
X110049664Y-78219047D01*
X109575600Y-78098787D01*
X109547163Y-78081262D01*
X109689191Y-78083946D01*
X109872574Y-78097859D01*
X110278126Y-78158931D01*
X110575944Y-78253564D01*
X110726076Y-78367159D01*
X110735978Y-78413375D01*
X110694437Y-78566089D01*
X110675677Y-78616103D01*
X110545090Y-78747622D01*
X110273117Y-78913833D01*
X109912275Y-79088680D01*
X109515085Y-79246102D01*
X109220000Y-79338384D01*
X109020182Y-79371032D01*
X109020182Y-79186737D01*
X109161665Y-79127772D01*
X109171158Y-79119567D01*
X109303699Y-78961400D01*
X109246716Y-78859883D01*
X109094752Y-78805978D01*
X108861632Y-78794149D01*
X108766297Y-78888194D01*
X108838171Y-79053170D01*
X108863691Y-79080378D01*
X109020182Y-79186737D01*
X109020182Y-79371032D01*
X108909571Y-79389106D01*
X108573749Y-79395879D01*
X108271177Y-79364324D01*
X108060497Y-79300065D01*
X107997654Y-79221184D01*
X107960015Y-79085841D01*
X107858794Y-78861837D01*
X107850295Y-78845267D01*
X107625527Y-78601313D01*
X107272148Y-78419807D01*
X106862931Y-78336113D01*
X106798533Y-78334167D01*
X106700877Y-78262412D01*
X106705798Y-78206600D01*
G36*
X110957700Y-78343014D02*
X111083182Y-78270782D01*
X111296615Y-78178808D01*
X111423762Y-78167436D01*
X111427472Y-78170407D01*
X111386357Y-78240503D01*
X111209034Y-78330622D01*
X111208676Y-78330758D01*
X110953667Y-78416071D01*
X110867211Y-78418819D01*
X110957700Y-78343014D01*
X110957700Y-78343014D01*
G37*
X110957700Y-78343014D02*
X111083182Y-78270782D01*
X111296615Y-78178808D01*
X111423762Y-78167436D01*
X111427472Y-78170407D01*
X111386357Y-78240503D01*
X111209034Y-78330622D01*
X111208676Y-78330758D01*
X110953667Y-78416071D01*
X110867211Y-78418819D01*
X110957700Y-78343014D01*
G36*
X88525438Y-60524936D02*
X88658865Y-60460348D01*
X88947622Y-60308649D01*
X89128531Y-60174506D01*
X89181437Y-60081674D01*
X89086180Y-60053909D01*
X88991300Y-60068604D01*
X88706402Y-60141433D01*
X88544400Y-60191953D01*
X88455178Y-60209483D01*
X88547197Y-60137073D01*
X88595200Y-60107018D01*
X88758581Y-59997086D01*
X88754940Y-59951249D01*
X88646000Y-59937775D01*
X88631227Y-59906768D01*
X88780988Y-59837472D01*
X89063525Y-59744148D01*
X89103200Y-59732489D01*
X89763600Y-59540628D01*
X89230200Y-59593414D01*
X88881029Y-59619578D01*
X88724389Y-59613078D01*
X88753219Y-59579367D01*
X88960455Y-59523899D01*
X89339037Y-59452127D01*
X89433400Y-59436506D01*
X90403486Y-59239195D01*
X91225091Y-58982393D01*
X91462136Y-58886569D01*
X91882906Y-58777681D01*
X92494363Y-58729043D01*
X92732136Y-58726279D01*
X93497939Y-58770451D01*
X94139355Y-58910479D01*
X94718629Y-59161848D01*
X94894400Y-59264237D01*
X95110028Y-59416805D01*
X95419039Y-59660356D01*
X95784499Y-59962883D01*
X96169476Y-60292381D01*
X96537036Y-60616845D01*
X96850247Y-60904270D01*
X97072175Y-61122649D01*
X97160049Y-61227603D01*
X97301715Y-61366952D01*
X97536979Y-61519075D01*
X97559211Y-61530804D01*
X97676710Y-61589533D01*
X97788038Y-61629361D01*
X97924133Y-61648819D01*
X98115934Y-61646436D01*
X98394381Y-61620742D01*
X98790412Y-61570268D01*
X99334966Y-61493544D01*
X99822000Y-61423299D01*
X100477821Y-61353894D01*
X101253078Y-61313629D01*
X102117680Y-61300490D01*
X103041534Y-61312461D01*
X103994549Y-61347530D01*
X104946632Y-61403681D01*
X105867692Y-61478900D01*
X106727638Y-61571173D01*
X107496376Y-61678486D01*
X108143815Y-61798823D01*
X108639864Y-61930172D01*
X108885577Y-62030009D01*
X109110464Y-62134410D01*
X109254647Y-62178569D01*
X109255115Y-62178575D01*
X109388111Y-62233143D01*
X109603240Y-62366393D01*
X109641886Y-62393428D01*
X109942741Y-62607656D01*
X110825970Y-62377956D01*
X111191596Y-62291663D01*
X111561272Y-62226478D01*
X111976824Y-62178385D01*
X112480078Y-62143366D01*
X113112860Y-62117405D01*
X113707144Y-62101236D01*
X115705089Y-62054216D01*
X115863749Y-62361031D01*
X116024040Y-62769317D01*
X116171073Y-63323942D01*
X116294579Y-63968069D01*
X116384288Y-64644859D01*
X116429932Y-65297474D01*
X116433600Y-65515178D01*
X116421006Y-66055446D01*
X116371097Y-66428637D01*
X116265682Y-66669969D01*
X116086568Y-66814664D01*
X115815563Y-66897941D01*
X115709601Y-66916866D01*
X115700648Y-66918312D01*
X115700648Y-66734702D01*
X115858639Y-66719493D01*
X115987761Y-66603659D01*
X116036897Y-66541818D01*
X116188683Y-66266426D01*
X116158754Y-66073777D01*
X116020791Y-66006495D01*
X116020791Y-65735200D01*
X116202343Y-65697733D01*
X116323032Y-65618151D01*
X116331411Y-65591267D01*
X116316138Y-65495423D01*
X116277089Y-65255217D01*
X116233402Y-64987938D01*
X116145200Y-64548956D01*
X116043238Y-64289644D01*
X115907827Y-64186556D01*
X115906223Y-64186808D01*
X115906223Y-63955265D01*
X115952945Y-63940300D01*
X115997331Y-63807304D01*
X115982798Y-63543949D01*
X115917649Y-63211631D01*
X115810187Y-62871751D01*
X115807546Y-62865000D01*
X115687099Y-62664938D01*
X115560016Y-62585600D01*
X115376623Y-62674913D01*
X115230592Y-62893700D01*
X115159477Y-63168237D01*
X115172404Y-63346509D01*
X115285956Y-63553994D01*
X115487576Y-63756160D01*
X115715065Y-63905690D01*
X115906223Y-63955265D01*
X115906223Y-64186808D01*
X115719281Y-64216247D01*
X115622892Y-64260919D01*
X115329195Y-64497949D01*
X115216383Y-64818809D01*
X115214400Y-64876375D01*
X115285668Y-65058509D01*
X115461594Y-65295403D01*
X115685361Y-65526547D01*
X115900152Y-65691427D01*
X116020791Y-65735200D01*
X116020791Y-66006495D01*
X115949286Y-65971623D01*
X115873967Y-65961562D01*
X115633489Y-65986987D01*
X115364495Y-66080275D01*
X115125370Y-66210545D01*
X114974501Y-66346914D01*
X114959636Y-66445165D01*
X115087535Y-66532848D01*
X115334832Y-66634634D01*
X115432332Y-66666018D01*
X115700648Y-66734702D01*
X115700648Y-66918312D01*
X115366800Y-66972245D01*
X115399655Y-67652029D01*
X115395769Y-68124073D01*
X115310333Y-68437657D01*
X115113973Y-68621000D01*
X114974956Y-68654580D01*
X114974956Y-68375905D01*
X115135924Y-68275563D01*
X115246054Y-67988294D01*
X115301338Y-67519951D01*
X115302163Y-67501890D01*
X115293791Y-67285853D01*
X115209645Y-67218276D01*
X115059073Y-67234893D01*
X114996829Y-67265862D01*
X114996829Y-67055892D01*
X115151243Y-66983690D01*
X115132885Y-66883155D01*
X114990863Y-66738775D01*
X114782952Y-66598191D01*
X114579400Y-66512161D01*
X114437748Y-66490919D01*
X114420742Y-66557401D01*
X114526790Y-66745648D01*
X114565685Y-66805575D01*
X114769539Y-67001021D01*
X114996829Y-67055892D01*
X114996829Y-67265862D01*
X114778201Y-67374639D01*
X114610117Y-67624426D01*
X114572687Y-67920086D01*
X114683775Y-68197446D01*
X114767157Y-68283464D01*
X114974956Y-68375905D01*
X114974956Y-68654580D01*
X114777316Y-68702322D01*
X114566222Y-68706005D01*
X114566222Y-68451421D01*
X114649431Y-68422460D01*
X114628667Y-68357532D01*
X114582416Y-68301321D01*
X114422699Y-68053520D01*
X114354391Y-67889226D01*
X114360991Y-67583853D01*
X114442830Y-67411947D01*
X114534976Y-67241085D01*
X114530310Y-67092244D01*
X114419400Y-66881900D01*
X114375055Y-66811622D01*
X114195106Y-66575749D01*
X114001299Y-66473179D01*
X113741200Y-66450687D01*
X113448092Y-66417826D01*
X113042081Y-66334799D01*
X112602166Y-66218247D01*
X112522000Y-66193911D01*
X112033465Y-66049251D01*
X111686492Y-65970664D01*
X111431694Y-65954723D01*
X111219687Y-65997999D01*
X111015795Y-66089346D01*
X110469449Y-66347426D01*
X109834554Y-66604284D01*
X109157324Y-66845349D01*
X108483969Y-67056051D01*
X107860703Y-67221818D01*
X107333736Y-67328080D01*
X106983341Y-67360800D01*
X106778592Y-67381181D01*
X106695317Y-67483586D01*
X106680000Y-67711797D01*
X106698654Y-67945409D01*
X106794224Y-68062180D01*
X107026115Y-68128061D01*
X107061000Y-68134750D01*
X107364455Y-68168953D01*
X107809444Y-68191312D01*
X108334639Y-68201712D01*
X108878714Y-68200036D01*
X109380340Y-68186167D01*
X109778190Y-68159990D01*
X109931200Y-68140192D01*
X110538836Y-68006394D01*
X111225081Y-67813407D01*
X111483576Y-67789662D01*
X111631481Y-67821894D01*
X111835302Y-67904362D01*
X111912400Y-67931753D01*
X112057052Y-67981117D01*
X112328160Y-68076099D01*
X112593826Y-68170150D01*
X113001358Y-68282936D01*
X113500367Y-68376433D01*
X113956424Y-68428063D01*
X114346175Y-68451071D01*
X114566222Y-68451421D01*
X114566222Y-68706005D01*
X114297722Y-68710691D01*
X113547093Y-68642503D01*
X112784601Y-68493791D01*
X112096199Y-68283378D01*
X111823445Y-68168876D01*
X111536547Y-68045807D01*
X111346026Y-68012715D01*
X111169687Y-68062606D01*
X111081716Y-68105779D01*
X110768085Y-68233244D01*
X110438025Y-68323644D01*
X110104339Y-68387906D01*
X109718201Y-68462239D01*
X109626400Y-68479906D01*
X109338133Y-68515994D01*
X108908868Y-68546077D01*
X108400794Y-68566637D01*
X107964529Y-68573944D01*
X107452474Y-68579268D01*
X107112602Y-68592227D01*
X106913919Y-68617480D01*
X106825431Y-68659686D01*
X106816143Y-68723504D01*
X106823360Y-68745482D01*
X106960603Y-69192050D01*
X107046895Y-69651893D01*
X107067893Y-70039942D01*
X107058087Y-70137510D01*
X107046154Y-70426518D01*
X107134554Y-70644193D01*
X107348480Y-70809287D01*
X107713126Y-70940550D01*
X108253685Y-71056732D01*
X108305600Y-71065993D01*
X108831249Y-71161229D01*
X109379704Y-71264621D01*
X109854139Y-71357812D01*
X109969062Y-71381348D01*
X110355402Y-71455050D01*
X110689350Y-71507268D01*
X110893253Y-71526400D01*
X111141650Y-71571593D01*
X111428388Y-71680684D01*
X111435851Y-71684376D01*
X111736970Y-71783384D01*
X111936412Y-71743937D01*
X112106463Y-71687179D01*
X112428908Y-71607601D01*
X112855777Y-71516227D01*
X113287978Y-71433310D01*
X113874960Y-71318278D01*
X114504411Y-71181409D01*
X115082981Y-71043555D01*
X115368426Y-70968612D01*
X116116886Y-70791277D01*
X116698124Y-70720531D01*
X117117814Y-70756201D01*
X117381628Y-70898114D01*
X117390105Y-70907193D01*
X117580617Y-71205252D01*
X117718289Y-71630777D01*
X117806880Y-72204069D01*
X117850152Y-72945429D01*
X117856000Y-73422148D01*
X117853298Y-73979211D01*
X117841933Y-74370339D01*
X117817017Y-74632759D01*
X117773662Y-74803700D01*
X117706979Y-74920391D01*
X117651117Y-74982483D01*
X117553319Y-75042146D01*
X117553319Y-72997855D01*
X117561847Y-72993020D01*
X117611574Y-72859245D01*
X117616810Y-72589215D01*
X117581423Y-72244036D01*
X117509282Y-71884816D01*
X117486418Y-71801555D01*
X117386556Y-71672439D01*
X117212805Y-71686989D01*
X117183334Y-71700961D01*
X117183334Y-71411741D01*
X117235904Y-71353025D01*
X117226421Y-71312139D01*
X117103144Y-71208047D01*
X116863868Y-71141693D01*
X116832175Y-71138157D01*
X116619595Y-71143685D01*
X116580785Y-71201417D01*
X116701134Y-71287377D01*
X116966033Y-71377590D01*
X116980246Y-71381150D01*
X117183334Y-71411741D01*
X117183334Y-71700961D01*
X116896686Y-71836867D01*
X116746748Y-72031663D01*
X116738400Y-72092860D01*
X116800306Y-72349684D01*
X116956715Y-72616654D01*
X117163663Y-72845713D01*
X117377186Y-72988800D01*
X117553319Y-72997855D01*
X117553319Y-75042146D01*
X117415989Y-75125927D01*
X117257547Y-75124713D01*
X117257547Y-74880079D01*
X117420407Y-74815047D01*
X117481164Y-74701400D01*
X117508887Y-74504450D01*
X117530872Y-74186484D01*
X117539414Y-73939400D01*
X117539989Y-73610270D01*
X117511938Y-73435567D01*
X117436165Y-73366743D01*
X117309640Y-73355200D01*
X117026555Y-73417640D01*
X116899395Y-73589443D01*
X116930144Y-73847336D01*
X117120788Y-74168046D01*
X117229502Y-74295000D01*
X117368230Y-74471746D01*
X117396271Y-74568306D01*
X117379448Y-74574400D01*
X117230057Y-74504075D01*
X117144800Y-74422000D01*
X116975669Y-74283364D01*
X116865826Y-74320820D01*
X116840000Y-74452480D01*
X116906631Y-74675225D01*
X117066051Y-74825615D01*
X117257547Y-74880079D01*
X117257547Y-75124713D01*
X117118646Y-75123647D01*
X116723779Y-74974101D01*
X116654111Y-74938953D01*
X116307064Y-74811722D01*
X115930345Y-74793470D01*
X115469720Y-74885936D01*
X115153970Y-74987054D01*
X114784533Y-75101178D01*
X114295782Y-75232012D01*
X113768085Y-75358629D01*
X113515636Y-75413632D01*
X113061500Y-75506170D01*
X112722822Y-75561183D01*
X112433645Y-75579653D01*
X112128015Y-75562563D01*
X111739974Y-75510897D01*
X111331236Y-75446191D01*
X110751961Y-75362448D01*
X110131291Y-75288850D01*
X109508656Y-75228330D01*
X108923490Y-75183818D01*
X108415223Y-75158246D01*
X108023289Y-75154545D01*
X107787120Y-75175646D01*
X107767201Y-75181254D01*
X107651869Y-75237011D01*
X107665274Y-75324869D01*
X107792601Y-75483038D01*
X107950268Y-75692259D01*
X107990148Y-75852654D01*
X107893150Y-75990383D01*
X107640179Y-76131609D01*
X107212142Y-76302494D01*
X107188000Y-76311471D01*
X106533860Y-76629811D01*
X105962168Y-77054057D01*
X105527928Y-77541863D01*
X105466290Y-77636941D01*
X105321083Y-77849624D01*
X105262039Y-77886474D01*
X105297098Y-77759199D01*
X105401331Y-77541155D01*
X105738658Y-77084849D01*
X106239840Y-76660996D01*
X106865544Y-76299754D01*
X107213400Y-76151809D01*
X107487550Y-76036761D01*
X107661327Y-75942070D01*
X107693740Y-75906797D01*
X107593053Y-75691900D01*
X107318395Y-75433660D01*
X106890433Y-75147110D01*
X106329828Y-74847283D01*
X106070400Y-74725794D01*
X105771658Y-74588243D01*
X105516260Y-74466347D01*
X105495887Y-74456263D01*
X105284686Y-74396438D01*
X105168557Y-74414239D01*
X105013655Y-74412662D01*
X104814983Y-74320613D01*
X104673935Y-74247983D01*
X104489814Y-74201832D01*
X104222748Y-74178725D01*
X103832863Y-74175223D01*
X103280289Y-74187892D01*
X103276400Y-74188010D01*
X103033235Y-74188457D01*
X102726931Y-74181010D01*
X102717600Y-74180660D01*
X102123750Y-74169054D01*
X101573991Y-74178457D01*
X101110803Y-74206573D01*
X100776669Y-74251106D01*
X100637885Y-74293063D01*
X100418961Y-74432231D01*
X100161208Y-74626587D01*
X100136869Y-74646635D01*
X99887646Y-74811095D01*
X99634199Y-74848257D01*
X99451897Y-74825950D01*
X99191510Y-74797344D01*
X99054591Y-74848064D01*
X98967702Y-75007242D01*
X98962821Y-75019972D01*
X98787114Y-75250938D01*
X98604573Y-75345034D01*
X98422008Y-75435162D01*
X98372380Y-75538780D01*
X98320579Y-75688860D01*
X98164783Y-75858399D01*
X97997350Y-76067986D01*
X97994252Y-76216906D01*
X98144004Y-76374186D01*
X98454219Y-76543215D01*
X98884178Y-76707177D01*
X99393159Y-76849253D01*
X99664810Y-76906876D01*
X100087323Y-77006309D01*
X100496993Y-77133960D01*
X100731610Y-77228917D01*
X101102565Y-77473624D01*
X101417738Y-77800814D01*
X101632095Y-78153964D01*
X101701600Y-78446377D01*
X101701599Y-78729632D01*
X102082600Y-78568187D01*
X102490653Y-78457959D01*
X102976765Y-78416224D01*
X103456136Y-78443232D01*
X103843964Y-78539229D01*
X103895574Y-78562874D01*
X104269008Y-78705901D01*
X104776835Y-78839483D01*
X105350290Y-78950086D01*
X105920608Y-79024173D01*
X106362262Y-79048401D01*
X106749626Y-79069767D01*
X107084765Y-79121791D01*
X107271682Y-79182980D01*
X107359387Y-79243994D01*
X107333629Y-79278529D01*
X107168827Y-79290029D01*
X106839399Y-79281942D01*
X106611282Y-79271926D01*
X106128643Y-79235005D01*
X105654834Y-79174906D01*
X105277021Y-79103200D01*
X105212945Y-79086304D01*
X104896323Y-79008609D01*
X104718651Y-79004921D01*
X104633316Y-79068559D01*
X104536292Y-79139377D01*
X104353825Y-79109353D01*
X104220771Y-79059878D01*
X103413925Y-78814610D01*
X102677543Y-78758237D01*
X102004414Y-78891885D01*
X101387328Y-79216680D01*
X100976739Y-79566461D01*
X100649205Y-79998593D01*
X100488007Y-80446852D01*
X100486634Y-80877646D01*
X100638574Y-81257383D01*
X100937316Y-81552474D01*
X101376349Y-81729326D01*
X101396800Y-81733478D01*
X101828293Y-81834534D01*
X102060640Y-81937221D01*
X102097616Y-82053801D01*
X101942997Y-82196536D01*
X101600558Y-82377689D01*
X101595835Y-82379906D01*
X101273546Y-82555752D01*
X101125352Y-82729951D01*
X101130411Y-82958220D01*
X101259587Y-83278855D01*
X101430332Y-83570942D01*
X101641265Y-83764536D01*
X101935125Y-83878134D01*
X102354655Y-83930231D01*
X102787569Y-83940073D01*
X103398387Y-83963712D01*
X103822271Y-84035569D01*
X103978828Y-84095734D01*
X104219692Y-84192088D01*
X104399741Y-84169383D01*
X104488561Y-84121050D01*
X104705188Y-84011306D01*
X105023225Y-83877720D01*
X105206039Y-83809269D01*
X105502173Y-83693675D01*
X105651282Y-83588895D01*
X105700460Y-83445675D01*
X105700473Y-83292118D01*
X105695110Y-83074631D01*
X105717931Y-83044911D01*
X105786787Y-83187788D01*
X105796638Y-83210400D01*
X105882567Y-83405614D01*
X105921490Y-83490259D01*
X106021868Y-83481949D01*
X106256056Y-83413004D01*
X106571146Y-83302952D01*
X106914232Y-83171324D01*
X107232405Y-83037651D01*
X107472758Y-82921462D01*
X107492800Y-82910229D01*
X107604608Y-82767927D01*
X107605912Y-82686455D01*
X107557011Y-82482803D01*
X107519059Y-82296000D01*
X107492870Y-82121232D01*
X107534940Y-82131830D01*
X107622333Y-82245200D01*
X107756741Y-82470586D01*
X107810786Y-82611922D01*
X107853549Y-82704415D01*
X107955275Y-82709960D01*
X108169234Y-82625452D01*
X108254800Y-82586026D01*
X108687115Y-82369963D01*
X109098391Y-82139097D01*
X109442573Y-81921681D01*
X109673605Y-81745967D01*
X109735542Y-81677676D01*
X109800921Y-81481411D01*
X109836422Y-81199514D01*
X109837207Y-81178400D01*
X109847926Y-80822800D01*
X109943268Y-81153000D01*
X110038291Y-81387488D01*
X110167491Y-81465371D01*
X110369134Y-81390540D01*
X110611483Y-81220922D01*
X110821831Y-81042277D01*
X110911713Y-80878073D01*
X110916186Y-80640024D01*
X110900571Y-80492886D01*
X110875249Y-80196453D01*
X110893513Y-80096177D01*
X110957538Y-80192296D01*
X111069497Y-80485047D01*
X111078998Y-80512367D01*
X111212460Y-80897864D01*
X111503163Y-80647812D01*
X111732250Y-80368011D01*
X111793866Y-80072883D01*
X111812790Y-79873853D01*
X111866703Y-79864358D01*
X111876977Y-79879003D01*
X111952913Y-80095952D01*
X111961644Y-80182616D01*
X111979443Y-80285725D01*
X112065120Y-80299613D01*
X112271100Y-80226340D01*
X112340681Y-80197510D01*
X112722619Y-79982376D01*
X112930487Y-79715128D01*
X112989804Y-79451200D01*
X113005303Y-79280356D01*
X113026263Y-79305662D01*
X113050923Y-79425957D01*
X113117157Y-79585735D01*
X113270274Y-79609330D01*
X113367286Y-79589820D01*
X113599073Y-79502574D01*
X113922513Y-79342471D01*
X114198400Y-79185244D01*
X114551534Y-78992160D01*
X114890814Y-78841795D01*
X115090880Y-78779384D01*
X115303538Y-78726979D01*
X115340805Y-78670771D01*
X115243280Y-78588557D01*
X115002310Y-78486086D01*
X114592763Y-78382029D01*
X114049137Y-78281933D01*
X113405931Y-78191345D01*
X112697642Y-78115812D01*
X111963200Y-78061138D01*
X111436883Y-78028940D01*
X111099791Y-78003083D01*
X110938131Y-77981184D01*
X110938117Y-77960859D01*
X111085957Y-77939726D01*
X111199296Y-77929122D01*
X111543907Y-77890253D01*
X111741510Y-77831922D01*
X111848184Y-77727858D01*
X111904012Y-77598983D01*
X111953437Y-77378534D01*
X111934587Y-77255122D01*
X111816369Y-77250689D01*
X111554969Y-77287689D01*
X111203413Y-77354711D01*
X110814730Y-77440349D01*
X110441947Y-77533193D01*
X110138090Y-77621834D01*
X110007400Y-77669751D01*
X109860250Y-77689492D01*
X109829600Y-77642727D01*
X109880050Y-77577829D01*
X110045390Y-77495672D01*
X110346599Y-77388768D01*
X110804656Y-77249627D01*
X111403176Y-77081045D01*
X111909953Y-76941424D01*
X111606376Y-76785190D01*
X111201419Y-76611789D01*
X110696326Y-76444270D01*
X110171788Y-76305258D01*
X109708496Y-76217379D01*
X109517058Y-76199338D01*
X109052999Y-76187779D01*
X108770335Y-76199803D01*
X108648425Y-76237301D01*
X108647257Y-76279041D01*
X108625398Y-76405291D01*
X108505214Y-76601468D01*
X108499171Y-76609241D01*
X108302236Y-76860400D01*
X108403003Y-76581000D01*
X108463651Y-76378478D01*
X108424995Y-76315371D01*
X108256118Y-76376577D01*
X108122754Y-76444105D01*
X107608164Y-76782122D01*
X107058507Y-77269844D01*
X106641518Y-77720600D01*
X106264603Y-78113146D01*
X105876208Y-78433998D01*
X105519291Y-78652179D01*
X105236811Y-78736715D01*
X105232200Y-78736830D01*
X105081674Y-78692129D01*
X105088178Y-78544521D01*
X105253719Y-78285970D01*
X105384600Y-78126669D01*
X105656987Y-77789013D01*
X105928734Y-77420918D01*
X105993234Y-77326955D01*
X106177725Y-77085190D01*
X106335612Y-76935254D01*
X106391944Y-76911200D01*
X106419753Y-76973349D01*
X106318583Y-77127476D01*
X106307719Y-77139800D01*
X106134311Y-77356471D01*
X105914587Y-77660477D01*
X105785447Y-77851000D01*
X105610571Y-78148834D01*
X105563030Y-78305980D01*
X105628123Y-78327062D01*
X105791147Y-78216704D01*
X106037400Y-77979529D01*
X106293056Y-77691356D01*
X106922789Y-77021527D01*
X107559197Y-76496241D01*
X108093145Y-76178048D01*
X108522428Y-76054284D01*
X109084259Y-76009389D01*
X109726516Y-76037454D01*
X110397077Y-76132571D01*
X111043820Y-76288830D01*
X111614623Y-76500323D01*
X111810800Y-76599505D01*
X112000637Y-76704417D01*
X112160735Y-76778800D01*
X112326305Y-76824318D01*
X112532562Y-76842635D01*
X112814718Y-76835418D01*
X113207987Y-76804330D01*
X113747583Y-76751036D01*
X114147600Y-76709979D01*
X114688294Y-76666989D01*
X115234940Y-76644469D01*
X115707990Y-76644784D01*
X115925600Y-76657121D01*
X116576677Y-76719261D01*
X117056586Y-76768873D01*
X117396648Y-76810423D01*
X117628184Y-76848375D01*
X117782515Y-76887194D01*
X117890960Y-76931345D01*
X117906800Y-76939549D01*
X118134948Y-77002774D01*
X118453806Y-77027442D01*
X118550600Y-77025114D01*
X118854873Y-77035948D01*
X119084028Y-77090340D01*
X119128285Y-77116297D01*
X119320345Y-77204007D01*
X119598151Y-77260899D01*
X119613668Y-77262439D01*
X120109297Y-77406599D01*
X120617878Y-77743437D01*
X120812373Y-77921230D01*
X121039509Y-78174255D01*
X121203091Y-78444845D01*
X121328120Y-78789858D01*
X121439598Y-79266151D01*
X121468430Y-79413179D01*
X121566329Y-80009621D01*
X121599569Y-80472400D01*
X121569380Y-80860069D01*
X121504760Y-81140540D01*
X121339012Y-81425693D01*
X121026261Y-81611496D01*
X120549639Y-81706269D01*
X120330076Y-81719870D01*
X120308751Y-81720619D01*
X120308751Y-81587893D01*
X120659789Y-81541161D01*
X120894439Y-81471309D01*
X121118992Y-81362961D01*
X121193486Y-81214391D01*
X121189001Y-81090309D01*
X121123600Y-80891106D01*
X120947235Y-80805923D01*
X120847789Y-80792454D01*
X120543756Y-80834140D01*
X120255869Y-80985275D01*
X120222031Y-81020598D01*
X120222031Y-80760128D01*
X120353933Y-80725401D01*
X120773432Y-80600532D01*
X121101642Y-80624411D01*
X121209170Y-80670599D01*
X121370375Y-80740591D01*
X121401066Y-80693572D01*
X121391735Y-80660406D01*
X121270100Y-80540634D01*
X121065495Y-80453536D01*
X120733694Y-80432695D01*
X120425057Y-80521923D01*
X120236802Y-80681399D01*
X120222031Y-80760128D01*
X120222031Y-81020598D01*
X120050310Y-81199860D01*
X119989600Y-81388975D01*
X120074710Y-81536196D01*
X120308751Y-81587893D01*
X120308751Y-81720619D01*
X119912641Y-81734547D01*
X119912641Y-81061410D01*
X119976561Y-81027320D01*
X120034360Y-80980213D01*
X120136015Y-80821455D01*
X120133952Y-80736865D01*
X120177906Y-80602345D01*
X120361374Y-80457756D01*
X120625190Y-80335641D01*
X120910184Y-80268542D01*
X120993677Y-80264000D01*
X121181714Y-80253005D01*
X121271882Y-80184186D01*
X121297827Y-80003792D01*
X121295773Y-79781400D01*
X121265976Y-79398741D01*
X121204093Y-79032737D01*
X121180958Y-78943200D01*
X120959304Y-78463537D01*
X120607861Y-78004905D01*
X120271436Y-77707649D01*
X119971181Y-77554392D01*
X119675446Y-77499026D01*
X119450112Y-77548836D01*
X119387713Y-77609919D01*
X119286593Y-77619787D01*
X119118690Y-77454922D01*
X119085034Y-77410773D01*
X118899873Y-77203621D01*
X118726093Y-77142017D01*
X118583165Y-77162115D01*
X118335693Y-77266139D01*
X118195272Y-77380973D01*
X118095409Y-77474441D01*
X118031192Y-77386591D01*
X118014185Y-77335828D01*
X117865127Y-77144265D01*
X117629973Y-77082064D01*
X117385087Y-77156532D01*
X117269195Y-77264544D01*
X117099076Y-77490076D01*
X117084583Y-77471652D01*
X117084583Y-77161752D01*
X117209080Y-77103213D01*
X117331739Y-76978449D01*
X117284195Y-76922895D01*
X117081559Y-76911200D01*
X116902652Y-76928172D01*
X116895369Y-77001425D01*
X116942639Y-77064853D01*
X117084583Y-77161752D01*
X117084583Y-77471652D01*
X116911364Y-77251438D01*
X116722406Y-77079744D01*
X116636800Y-77047506D01*
X116636800Y-76911200D01*
X116720428Y-76874027D01*
X116704533Y-76843467D01*
X116583957Y-76831308D01*
X116569066Y-76843467D01*
X116583013Y-76903868D01*
X116636800Y-76911200D01*
X116636800Y-77047506D01*
X116553225Y-77016032D01*
X116325282Y-77082427D01*
X116122131Y-77231638D01*
X116027589Y-77400784D01*
X116027200Y-77410667D01*
X115971958Y-77425359D01*
X115835408Y-77307555D01*
X115798302Y-77266022D01*
X115563155Y-77082337D01*
X115360412Y-77083843D01*
X115224493Y-77262776D01*
X115193904Y-77402399D01*
X115161570Y-77673200D01*
X115010185Y-77419200D01*
X114914248Y-77283198D01*
X114795405Y-77213088D01*
X114596674Y-77194859D01*
X114261073Y-77214502D01*
X114198400Y-77219603D01*
X113851771Y-77257076D01*
X113696792Y-77298243D01*
X113721914Y-77346522D01*
X113741200Y-77354867D01*
X114337704Y-77596642D01*
X114779928Y-77788327D01*
X115104868Y-77948412D01*
X115349522Y-78095387D01*
X115550887Y-78247742D01*
X115583627Y-78275638D01*
X115836726Y-78474646D01*
X116031245Y-78554707D01*
X116249195Y-78543588D01*
X116327511Y-78527490D01*
X116562757Y-78493985D01*
X116924012Y-78464689D01*
X117372343Y-78440402D01*
X117868818Y-78421919D01*
X118374505Y-78410039D01*
X118850471Y-78405559D01*
X119257784Y-78409277D01*
X119557512Y-78421989D01*
X119710721Y-78444494D01*
X119721525Y-78457974D01*
X119775831Y-78495834D01*
X119973872Y-78490655D01*
X120070962Y-78477452D01*
X120377336Y-78459628D01*
X120537822Y-78520271D01*
X120541635Y-78525856D01*
X120531673Y-78626535D01*
X120480989Y-78638400D01*
X120457728Y-78685400D01*
X120580325Y-78799115D01*
X120588973Y-78805233D01*
X120744117Y-78931947D01*
X120738970Y-79012765D01*
X120660243Y-79065478D01*
X120546567Y-79190050D01*
X120608328Y-79300217D01*
X120819751Y-79353197D01*
X120833796Y-79353577D01*
X120957687Y-79367216D01*
X120913826Y-79414782D01*
X120751560Y-79490409D01*
X120492900Y-79628278D01*
X120314139Y-79806617D01*
X120221089Y-79990498D01*
X120221089Y-79601025D01*
X120340743Y-79562502D01*
X120396000Y-79529222D01*
X120552964Y-79421528D01*
X120599200Y-79375961D01*
X120513662Y-79354502D01*
X120396000Y-79349600D01*
X120230171Y-79413534D01*
X120217054Y-79444887D01*
X120217054Y-79174228D01*
X120333241Y-79122972D01*
X120406265Y-79063237D01*
X120512297Y-78916717D01*
X120449150Y-78843375D01*
X120247001Y-78877055D01*
X120241961Y-78878971D01*
X120142611Y-79004637D01*
X120151607Y-79084001D01*
X120217054Y-79174228D01*
X120217054Y-79444887D01*
X120192800Y-79502861D01*
X120221089Y-79601025D01*
X120221089Y-79990498D01*
X120175699Y-80080196D01*
X120056917Y-80441529D01*
X120056917Y-78788511D01*
X120142000Y-78776742D01*
X120276445Y-78677014D01*
X120294400Y-78627530D01*
X120211948Y-78546987D01*
X120142000Y-78536800D01*
X120007264Y-78616495D01*
X119989600Y-78686012D01*
X120056917Y-78788511D01*
X120056917Y-80441529D01*
X120050766Y-80460241D01*
X119948694Y-80811160D01*
X119903002Y-81000453D01*
X119912641Y-81061410D01*
X119912641Y-81734547D01*
X119837200Y-81737200D01*
X119807155Y-81381166D01*
X119814280Y-81083207D01*
X119864395Y-80692055D01*
X119919087Y-80415966D01*
X119999775Y-79867939D01*
X119990258Y-79355065D01*
X119893811Y-78940947D01*
X119837200Y-78826230D01*
X119749014Y-78747634D01*
X119571877Y-78688958D01*
X119272240Y-78643948D01*
X118816558Y-78606351D01*
X118579638Y-78591788D01*
X117423677Y-78525116D01*
X117491265Y-78810358D01*
X117555737Y-79148169D01*
X117626563Y-79622833D01*
X117695742Y-80168511D01*
X117755272Y-80719364D01*
X117797153Y-81209551D01*
X117809890Y-81432400D01*
X117837398Y-81854931D01*
X117880198Y-82271481D01*
X117909020Y-82471517D01*
X117944978Y-82745185D01*
X117909686Y-82891380D01*
X117774595Y-82981292D01*
X117690820Y-83015640D01*
X117480441Y-83063615D01*
X117268830Y-83074747D01*
X117268830Y-82829066D01*
X117359135Y-82789959D01*
X117415291Y-82720247D01*
X117540185Y-82417271D01*
X117464973Y-82114292D01*
X117455787Y-82099334D01*
X117396069Y-82044929D01*
X117396069Y-81910296D01*
X117519852Y-81620548D01*
X117623778Y-81337805D01*
X117627988Y-81143317D01*
X117528843Y-80946288D01*
X117490589Y-80890426D01*
X117274199Y-80710537D01*
X117174534Y-80698115D01*
X117174534Y-80493203D01*
X117308467Y-80251602D01*
X117431941Y-79921351D01*
X117415658Y-79659671D01*
X117262979Y-79507738D01*
X117247309Y-79502289D01*
X117035948Y-79476958D01*
X116982495Y-79490962D01*
X116982495Y-79311487D01*
X117094000Y-79284742D01*
X117232515Y-79140326D01*
X117210617Y-78873433D01*
X117184729Y-78799110D01*
X117047909Y-78654638D01*
X116852347Y-78640233D01*
X116669135Y-78729649D01*
X116569365Y-78896641D01*
X116578995Y-79022730D01*
X116736585Y-79247334D01*
X116982495Y-79311487D01*
X116982495Y-79490962D01*
X116942509Y-79501439D01*
X116850803Y-79664313D01*
X116863007Y-79922503D01*
X116972645Y-80200721D01*
X117007267Y-80254395D01*
X117174534Y-80493203D01*
X117174534Y-80698115D01*
X117109589Y-80690020D01*
X116952274Y-80798293D01*
X116887777Y-81022695D01*
X116913199Y-81300108D01*
X117025637Y-81567419D01*
X117156777Y-81716530D01*
X117396069Y-81910296D01*
X117396069Y-82044929D01*
X117353836Y-82006452D01*
X117214626Y-82077108D01*
X117203343Y-82086374D01*
X117056976Y-82305282D01*
X117099219Y-82575602D01*
X117164522Y-82696226D01*
X117268830Y-82829066D01*
X117268830Y-83074747D01*
X117153431Y-83080818D01*
X116681124Y-83067454D01*
X116078000Y-83027120D01*
X115414109Y-82984131D01*
X114887577Y-82973548D01*
X114434997Y-82996401D01*
X113992964Y-83053722D01*
X113944400Y-83061814D01*
X113535403Y-83113198D01*
X112988643Y-83156721D01*
X112369518Y-83188363D01*
X111743428Y-83204102D01*
X111615289Y-83205017D01*
X110098979Y-83210401D01*
X110314727Y-83440053D01*
X110508665Y-83695544D01*
X110725622Y-84055309D01*
X110936753Y-84461144D01*
X111113217Y-84854849D01*
X111226168Y-85178219D01*
X111252000Y-85331368D01*
X111166249Y-85665466D01*
X110934664Y-86043320D01*
X110595745Y-86423177D01*
X110187993Y-86763290D01*
X109749909Y-87021908D01*
X109655168Y-87062962D01*
X109396048Y-87193742D01*
X109216134Y-87330087D01*
X109210928Y-87336131D01*
X109020164Y-87450885D01*
X108864400Y-87477600D01*
X108624949Y-87541593D01*
X108508800Y-87630000D01*
X108316488Y-87745874D01*
X108109378Y-87782400D01*
X107823167Y-87838190D01*
X107639218Y-87931569D01*
X107397803Y-88038769D01*
X107105120Y-88083969D01*
X106795510Y-88123307D01*
X106546320Y-88208374D01*
X106307459Y-88301122D01*
X105978695Y-88386411D01*
X105867200Y-88407727D01*
X105499083Y-88472921D01*
X105152201Y-88537821D01*
X105079608Y-88552114D01*
X105023477Y-88551487D01*
X105023477Y-88317570D01*
X105105200Y-88288087D01*
X105272053Y-88220403D01*
X105619868Y-88130680D01*
X106128166Y-88023570D01*
X106776469Y-87903726D01*
X106862766Y-87888699D01*
X107159971Y-87816139D01*
X107376742Y-87725760D01*
X107416486Y-87696154D01*
X107602036Y-87606347D01*
X107798501Y-87579200D01*
X108083420Y-87521640D01*
X108260781Y-87430032D01*
X108477263Y-87310647D01*
X108612215Y-87277632D01*
X108787066Y-87221376D01*
X109041752Y-87084073D01*
X109140224Y-87020400D01*
X109393706Y-86864993D01*
X109588122Y-86775211D01*
X109631789Y-86766400D01*
X109810404Y-86695797D01*
X110065966Y-86514382D01*
X110345695Y-86267745D01*
X110596815Y-86001477D01*
X110738103Y-85810741D01*
X110908333Y-85437758D01*
X110917246Y-85087263D01*
X110762694Y-84697569D01*
X110695338Y-84582000D01*
X110521489Y-84285911D01*
X110381577Y-84027514D01*
X110348997Y-83960343D01*
X110199686Y-83749929D01*
X109973467Y-83537765D01*
X109964187Y-83530761D01*
X109604107Y-83239636D01*
X109398967Y-83012830D01*
X109323402Y-82820953D01*
X109321600Y-82786224D01*
X109380996Y-82631490D01*
X109511964Y-82615605D01*
X109643667Y-82732464D01*
X109681397Y-82817227D01*
X109711896Y-82893671D01*
X109766558Y-82948552D01*
X109873947Y-82984265D01*
X110062624Y-83003206D01*
X110361154Y-83007768D01*
X110798099Y-83000347D01*
X111402023Y-82983339D01*
X111593244Y-82977540D01*
X112856337Y-82911436D01*
X113991030Y-82795522D01*
X114976796Y-82632800D01*
X115793111Y-82426268D01*
X116103429Y-82318396D01*
X116401710Y-82219546D01*
X116616576Y-82178881D01*
X116687375Y-82194038D01*
X116629547Y-82269922D01*
X116427183Y-82378975D01*
X116224515Y-82460383D01*
X115938927Y-82585418D01*
X115854068Y-82682329D01*
X115969324Y-82750402D01*
X116284083Y-82788927D01*
X116514403Y-82796860D01*
X116950807Y-82804000D01*
X116886758Y-82462588D01*
X116865863Y-82209177D01*
X116940084Y-82082210D01*
X116992609Y-82055979D01*
X117089154Y-81994846D01*
X117066688Y-81892658D01*
X116920725Y-81703437D01*
X116755390Y-81445046D01*
X116709712Y-81156257D01*
X116719342Y-80992446D01*
X116762508Y-80731641D01*
X116822651Y-80582420D01*
X116845487Y-80568800D01*
X116864932Y-80487058D01*
X116809472Y-80282757D01*
X116776623Y-80198771D01*
X116689177Y-79898394D01*
X116672977Y-79635321D01*
X116679484Y-79599763D01*
X116671426Y-79384867D01*
X116589420Y-79314172D01*
X116463967Y-79183971D01*
X116361205Y-78945620D01*
X116356993Y-78929947D01*
X116288620Y-78719986D01*
X116216728Y-78680890D01*
X116131780Y-78752549D01*
X115918232Y-78856683D01*
X115816310Y-78859201D01*
X115816310Y-78739621D01*
X115876035Y-78690624D01*
X115795240Y-78562488D01*
X115605193Y-78384601D01*
X115337166Y-78186353D01*
X115031400Y-78001938D01*
X114723769Y-77858444D01*
X114291317Y-77684765D01*
X113804116Y-77508220D01*
X113538000Y-77419729D01*
X113355663Y-77360867D01*
X113355663Y-77192610D01*
X113472705Y-77141570D01*
X113598984Y-77092251D01*
X113877431Y-77049423D01*
X114257058Y-77015290D01*
X114686878Y-76992055D01*
X115115902Y-76981922D01*
X115493144Y-76987096D01*
X115767617Y-77009781D01*
X115872357Y-77037843D01*
X116092798Y-77059525D01*
X116200803Y-76995426D01*
X116291771Y-76896358D01*
X116224389Y-76841354D01*
X116073555Y-76809481D01*
X115860310Y-76795925D01*
X115496002Y-76796918D01*
X115032177Y-76811510D01*
X114534493Y-76837852D01*
X114030522Y-76875640D01*
X113583497Y-76919788D01*
X113242215Y-76964784D01*
X113056220Y-77004826D01*
X112907605Y-77069935D01*
X112929994Y-77113947D01*
X113117105Y-77168007D01*
X113355663Y-77192610D01*
X113355663Y-77360867D01*
X113093159Y-77276124D01*
X112704237Y-77148591D01*
X112422649Y-77054098D01*
X112318800Y-77017405D01*
X112200986Y-76991154D01*
X112137684Y-77055087D01*
X112109157Y-77251252D01*
X112099458Y-77484696D01*
X112083317Y-78028800D01*
X112732395Y-78028800D01*
X113231650Y-78054991D01*
X113790696Y-78125773D01*
X114350860Y-78229466D01*
X114853466Y-78354385D01*
X115239841Y-78488850D01*
X115366724Y-78553315D01*
X115613506Y-78680110D01*
X115804856Y-78739092D01*
X115816310Y-78739621D01*
X115816310Y-78859201D01*
X115712190Y-78861774D01*
X115334882Y-78880204D01*
X114869346Y-79014349D01*
X114379431Y-79245155D01*
X114328200Y-79274797D01*
X113984255Y-79477729D01*
X114723267Y-79845465D01*
X115126911Y-80053520D01*
X115386232Y-80211223D01*
X115492218Y-80324685D01*
X115435853Y-80400017D01*
X115208124Y-80443328D01*
X114800017Y-80460731D01*
X114375472Y-80459029D01*
X114375472Y-80352244D01*
X114761825Y-80344473D01*
X115066862Y-80326196D01*
X115244913Y-80297490D01*
X115270605Y-80272747D01*
X115154015Y-80193258D01*
X114898263Y-80068013D01*
X114554742Y-79921816D01*
X114491623Y-79896785D01*
X113770027Y-79613677D01*
X113198753Y-79912777D01*
X112892974Y-80075639D01*
X112747919Y-80170623D01*
X112744231Y-80223980D01*
X112862549Y-80261958D01*
X112930340Y-80276718D01*
X113185238Y-80311746D01*
X113541507Y-80335958D01*
X113953476Y-80349431D01*
X114375472Y-80352244D01*
X114375472Y-80459029D01*
X114202518Y-80458335D01*
X113829135Y-80451606D01*
X112115600Y-80416400D01*
X110947200Y-81224159D01*
X110521276Y-81520025D01*
X110157347Y-81775491D01*
X109887186Y-81968050D01*
X109742563Y-82075199D01*
X109728000Y-82087759D01*
X109606646Y-82165480D01*
X109344184Y-82305244D01*
X108984863Y-82485832D01*
X108572934Y-82686026D01*
X108152645Y-82884607D01*
X107768248Y-83060356D01*
X107463991Y-83192056D01*
X107289600Y-83257011D01*
X107060655Y-83329916D01*
X106736218Y-83449495D01*
X106288443Y-83626530D01*
X105689487Y-83871804D01*
X105511600Y-83945574D01*
X104971494Y-84179372D01*
X104545524Y-84395209D01*
X104188706Y-84627812D01*
X103856062Y-84911911D01*
X103502610Y-85282233D01*
X103083371Y-85773506D01*
X102976580Y-85902800D01*
X102696144Y-86283678D01*
X102437542Y-86707066D01*
X102214599Y-87139228D01*
X102041139Y-87546433D01*
X101930986Y-87894945D01*
X101897963Y-88151031D01*
X101955893Y-88280957D01*
X101998166Y-88290400D01*
X102143467Y-88243706D01*
X102370467Y-88130206D01*
X102389610Y-88119327D01*
X102598999Y-88015772D01*
X102767723Y-88007466D01*
X102996080Y-88094853D01*
X103054430Y-88122284D01*
X103316782Y-88228505D01*
X103520310Y-88235312D01*
X103781721Y-88145656D01*
X103792993Y-88140958D01*
X104149417Y-88021347D01*
X104410275Y-87991741D01*
X104539003Y-88054590D01*
X104546400Y-88090474D01*
X104631786Y-88207503D01*
X104823190Y-88294651D01*
X105023477Y-88317570D01*
X105023477Y-88551487D01*
X104706652Y-88547947D01*
X104483576Y-88444265D01*
X104299986Y-88340389D01*
X104143481Y-88326708D01*
X103923790Y-88403496D01*
X103827532Y-88446258D01*
X103564838Y-88551857D01*
X103376441Y-88565789D01*
X103155125Y-88487731D01*
X103061275Y-88443951D01*
X102806078Y-88336387D01*
X102633953Y-88324149D01*
X102449582Y-88405265D01*
X102406434Y-88430399D01*
X102074671Y-88575393D01*
X101841284Y-88553042D01*
X101711642Y-88410765D01*
X101660826Y-88111758D01*
X101757721Y-87678843D01*
X102002823Y-87110254D01*
X102162639Y-86807783D01*
X102367039Y-86435560D01*
X102547931Y-86101642D01*
X102669989Y-85871309D01*
X102679885Y-85852000D01*
X102812287Y-85650790D01*
X103037356Y-85363527D01*
X103307336Y-85051034D01*
X103318093Y-85039200D01*
X103595463Y-84710768D01*
X103722300Y-84480727D01*
X103687468Y-84332791D01*
X103479832Y-84250672D01*
X103088255Y-84218085D01*
X102754952Y-84215567D01*
X102270236Y-84203209D01*
X101937420Y-84153383D01*
X101707379Y-84058275D01*
X101687886Y-84045807D01*
X101309132Y-83722215D01*
X101007769Y-83327997D01*
X100833899Y-82931492D01*
X100819352Y-82861170D01*
X100766542Y-82649475D01*
X100658752Y-82508543D01*
X100640783Y-82498642D01*
X100640783Y-81951455D01*
X100633893Y-81859037D01*
X100564613Y-81686042D01*
X100450191Y-81481490D01*
X100380609Y-81381600D01*
X100188118Y-81127600D01*
X99700259Y-81321435D01*
X99276887Y-81455602D01*
X98869798Y-81497959D01*
X98824569Y-81492748D01*
X98824569Y-81100061D01*
X99317707Y-81001734D01*
X99592640Y-80890254D01*
X99935582Y-80713573D01*
X100136369Y-80552871D01*
X100246364Y-80362147D01*
X100272446Y-80281450D01*
X100461563Y-79861888D01*
X100761708Y-79444756D01*
X101106807Y-79117782D01*
X101191913Y-79060679D01*
X101471490Y-78890658D01*
X101316384Y-78404667D01*
X101105570Y-77963802D01*
X100771431Y-77616313D01*
X100288431Y-77342838D01*
X99631032Y-77124018D01*
X99625108Y-77122463D01*
X99154841Y-76984855D01*
X98676990Y-76821802D01*
X98293152Y-76668035D01*
X98285564Y-76664576D01*
X97967387Y-76503073D01*
X97800176Y-76365958D01*
X97741793Y-76214362D01*
X97739200Y-76160583D01*
X97810096Y-75911660D01*
X97926276Y-75773962D01*
X98124461Y-75576170D01*
X98234650Y-75412600D01*
X98370860Y-75238751D01*
X98480682Y-75184000D01*
X98612869Y-75101227D01*
X98705707Y-74955400D01*
X98796526Y-74820309D01*
X98956118Y-74744177D01*
X99241247Y-74705454D01*
X99387943Y-74696398D01*
X99806502Y-74645747D01*
X100051277Y-74542835D01*
X100100380Y-74493198D01*
X100370723Y-74247961D01*
X100763290Y-74087856D01*
X101312518Y-73999511D01*
X101387827Y-73993306D01*
X101756164Y-73968477D01*
X102055703Y-73953951D01*
X102209600Y-73952613D01*
X102369275Y-73959798D01*
X102683285Y-73971368D01*
X103102856Y-73985593D01*
X103479600Y-73997654D01*
X104153436Y-74035649D01*
X104754347Y-74102084D01*
X105245932Y-74191011D01*
X105591797Y-74296478D01*
X105710645Y-74362383D01*
X105881718Y-74445083D01*
X106109686Y-74515012D01*
X106383995Y-74624126D01*
X106687318Y-74803977D01*
X106743649Y-74845089D01*
X107015648Y-75001018D01*
X107241452Y-75040650D01*
X107374239Y-74961289D01*
X107391200Y-74882389D01*
X107486802Y-74819982D01*
X107754202Y-74787377D01*
X108164293Y-74783932D01*
X108687966Y-74809007D01*
X109296112Y-74861961D01*
X109931200Y-74938272D01*
X110563576Y-75013261D01*
X111281835Y-75081490D01*
X111971279Y-75132638D01*
X112268000Y-75148522D01*
X112826846Y-75161539D01*
X113312101Y-75139929D01*
X113776323Y-75073651D01*
X114272076Y-74952665D01*
X114851920Y-74766932D01*
X115504899Y-74530215D01*
X115813762Y-74440776D01*
X116071080Y-74410226D01*
X116139899Y-74418677D01*
X116408490Y-74494236D01*
X116518016Y-74524993D01*
X116670795Y-74512628D01*
X116703103Y-74397993D01*
X116709295Y-73912790D01*
X116740103Y-73590587D01*
X116804846Y-73391760D01*
X116912841Y-73276687D01*
X116974673Y-73243191D01*
X117210946Y-73135537D01*
X116922832Y-72827110D01*
X116721006Y-72567491D01*
X116586742Y-72316025D01*
X116572533Y-72270917D01*
X116582492Y-72012520D01*
X116743684Y-71774776D01*
X116882712Y-71603503D01*
X116872317Y-71532719D01*
X116822657Y-71526400D01*
X116638455Y-71456216D01*
X116500397Y-71340878D01*
X116428241Y-71272204D01*
X116338008Y-71231014D01*
X116197215Y-71219433D01*
X115973378Y-71239586D01*
X115634016Y-71293596D01*
X115146645Y-71383588D01*
X114782850Y-71453204D01*
X114184514Y-71576287D01*
X113600062Y-71710816D01*
X113084994Y-71843058D01*
X112694807Y-71959279D01*
X112596188Y-71994327D01*
X112142792Y-72152891D01*
X111817542Y-72221294D01*
X111567552Y-72201663D01*
X111339933Y-72096122D01*
X111267684Y-72047730D01*
X111010567Y-71891740D01*
X110794800Y-71795901D01*
X110607546Y-71756515D01*
X110264252Y-71699905D01*
X109810705Y-71632431D01*
X109292692Y-71560451D01*
X108756000Y-71490325D01*
X108246416Y-71428412D01*
X107809727Y-71381073D01*
X107804238Y-71380533D01*
X107477566Y-71332764D01*
X107232518Y-71268414D01*
X107151336Y-71225577D01*
X106996177Y-71181198D01*
X106941497Y-71205659D01*
X106614908Y-71392222D01*
X106165611Y-71579830D01*
X105750375Y-71715998D01*
X105750375Y-71447408D01*
X105962792Y-71377860D01*
X106234134Y-71247940D01*
X106558824Y-71104538D01*
X106603800Y-71085663D01*
X106885909Y-70935588D01*
X106979836Y-70802761D01*
X106880053Y-70696081D01*
X106852792Y-70684684D01*
X106703315Y-70699079D01*
X106463828Y-70791429D01*
X106182420Y-70933669D01*
X105907178Y-71097736D01*
X105686190Y-71255563D01*
X105567546Y-71379087D01*
X105573198Y-71431474D01*
X105750375Y-71447408D01*
X105750375Y-71715998D01*
X105672176Y-71741642D01*
X105213174Y-71850818D01*
X104964189Y-71881146D01*
X104325312Y-71989688D01*
X103835200Y-72172968D01*
X103390942Y-72362034D01*
X103095391Y-72432812D01*
X102933878Y-72387841D01*
X102902227Y-72334283D01*
X102795948Y-72312674D01*
X102546370Y-72380368D01*
X102275845Y-72489080D01*
X101882005Y-72642629D01*
X101560759Y-72705462D01*
X101212917Y-72695399D01*
X101159884Y-72689586D01*
X100814938Y-72637913D01*
X100527935Y-72574852D01*
X100431600Y-72543295D01*
X99852806Y-72290336D01*
X99456289Y-72094232D01*
X99231075Y-71949030D01*
X99165764Y-71856600D01*
X99207275Y-71754402D01*
X99355716Y-71748181D01*
X99632322Y-71842423D01*
X100058328Y-72041616D01*
X100070602Y-72047742D01*
X100440365Y-72220172D01*
X100721481Y-72307082D01*
X101000033Y-72326681D01*
X101287726Y-72305213D01*
X101669980Y-72243215D01*
X102015775Y-72150640D01*
X102165896Y-72089398D01*
X102556152Y-71982241D01*
X102783163Y-71993639D01*
X103170262Y-71975565D01*
X103348097Y-71892251D01*
X103620603Y-71752238D01*
X103970641Y-71621590D01*
X104327951Y-71520971D01*
X104622271Y-71471047D01*
X104755975Y-71478168D01*
X104929354Y-71441954D01*
X105129829Y-71280564D01*
X105136303Y-71273209D01*
X105330226Y-71096907D01*
X105496695Y-71018634D01*
X105503132Y-71018400D01*
X105670797Y-70956869D01*
X105900352Y-70804845D01*
X105950271Y-70764400D01*
X106171868Y-70600124D01*
X106339366Y-70514099D01*
X106362530Y-70510400D01*
X106482991Y-70418349D01*
X106542948Y-70163739D01*
X106539467Y-69778883D01*
X106471778Y-69306989D01*
X106397917Y-68846350D01*
X106346520Y-68362700D01*
X106331351Y-68063817D01*
X106324400Y-67496833D01*
X104749600Y-67499199D01*
X103996610Y-67491600D01*
X103299552Y-67463100D01*
X102607004Y-67408748D01*
X101867550Y-67323591D01*
X101029769Y-67202677D01*
X100106824Y-67052017D01*
X99588270Y-66968635D01*
X99218022Y-66923913D01*
X98945252Y-66916073D01*
X98719132Y-66943336D01*
X98513982Y-66996270D01*
X97893293Y-67266954D01*
X97437938Y-67655598D01*
X97233493Y-67965906D01*
X97050146Y-68229438D01*
X96841835Y-68393256D01*
X96655581Y-68429789D01*
X96560678Y-68360424D01*
X96593967Y-68262667D01*
X96717570Y-68204511D01*
X96897908Y-68082262D01*
X97084514Y-67845734D01*
X97136200Y-67754263D01*
X97462962Y-67326193D01*
X97950147Y-66979627D01*
X98563147Y-66739021D01*
X98578608Y-66734887D01*
X98768296Y-66694103D01*
X98983924Y-66671670D01*
X99256532Y-66668900D01*
X99617162Y-66687107D01*
X100096858Y-66727603D01*
X100726660Y-66791701D01*
X101237528Y-66847339D01*
X102504902Y-66967093D01*
X103599836Y-67025546D01*
X104543561Y-67022883D01*
X105357312Y-66959289D01*
X105816400Y-66887333D01*
X106064181Y-66861692D01*
X106440588Y-66847348D01*
X106871232Y-66846874D01*
X106944281Y-66848353D01*
X107508856Y-66831678D01*
X108080721Y-66747237D01*
X108702005Y-66584230D01*
X109414836Y-66331857D01*
X110157152Y-66024737D01*
X110687473Y-65809356D01*
X111104669Y-65687461D01*
X111473224Y-65653820D01*
X111857623Y-65703200D01*
X112322351Y-65830370D01*
X112369600Y-65845224D01*
X112804275Y-65965840D01*
X113332691Y-66088418D01*
X113847157Y-66188172D01*
X113892053Y-66195669D01*
X114754106Y-66337111D01*
X115015212Y-66086956D01*
X115258104Y-65915656D01*
X115495678Y-65837307D01*
X115511181Y-65836800D01*
X115636704Y-65826687D01*
X115657327Y-65772045D01*
X115561169Y-65636421D01*
X115378622Y-65430108D01*
X115107882Y-65061329D01*
X115023880Y-64748612D01*
X115125071Y-64471601D01*
X115292728Y-64298302D01*
X115574256Y-64065149D01*
X115275794Y-63798474D01*
X115044630Y-63483930D01*
X114975197Y-63132463D01*
X115074347Y-62802044D01*
X115146666Y-62705912D01*
X115276529Y-62537860D01*
X115316000Y-62450600D01*
X115220638Y-62414170D01*
X114958399Y-62392181D01*
X114565050Y-62384073D01*
X114076357Y-62389280D01*
X113528089Y-62407241D01*
X112956013Y-62437393D01*
X112395896Y-62479171D01*
X112172353Y-62500096D01*
X111644835Y-62565618D01*
X111151984Y-62649362D01*
X110755212Y-62739757D01*
X110560154Y-62803877D01*
X110284167Y-62912215D01*
X110095725Y-62935756D01*
X109896489Y-62871778D01*
X109711527Y-62780397D01*
X109319180Y-62607759D01*
X108795783Y-62415306D01*
X108209028Y-62225567D01*
X107626604Y-62061069D01*
X107340400Y-61991272D01*
X107038272Y-61935526D01*
X106631164Y-61877670D01*
X106163349Y-61821899D01*
X105679103Y-61772409D01*
X105222701Y-61733394D01*
X104838418Y-61709051D01*
X104570528Y-61703574D01*
X104464925Y-61718808D01*
X104501933Y-61765176D01*
X104605666Y-61779240D01*
X104802121Y-61826562D01*
X105124854Y-61963547D01*
X105586498Y-62196364D01*
X106199691Y-62531184D01*
X106545393Y-62726426D01*
X107058926Y-63037767D01*
X107431988Y-63304634D01*
X107647661Y-63513855D01*
X107696000Y-63622352D01*
X107625293Y-63618401D01*
X107454726Y-63530733D01*
X107246629Y-63398044D01*
X107063329Y-63259029D01*
X106984800Y-63180817D01*
X106854997Y-63088791D01*
X106581422Y-62938108D01*
X106207366Y-62749463D01*
X105776120Y-62543554D01*
X105330976Y-62341078D01*
X104915225Y-62162731D01*
X104587567Y-62034738D01*
X104222123Y-61919232D01*
X103816141Y-61816114D01*
X103416185Y-61733745D01*
X103068819Y-61680487D01*
X102820608Y-61664701D01*
X102718114Y-61694748D01*
X102717600Y-61698949D01*
X102800664Y-61771366D01*
X103012411Y-61893997D01*
X103166173Y-61971825D01*
X103411033Y-62119160D01*
X103717416Y-62343369D01*
X104044000Y-62608678D01*
X104349464Y-62879315D01*
X104592486Y-63119508D01*
X104731744Y-63293485D01*
X104749600Y-63342600D01*
X104679943Y-63322397D01*
X104496344Y-63194207D01*
X104236855Y-62984906D01*
X104206290Y-62958920D01*
X103404666Y-62375113D01*
X102571623Y-61958346D01*
X102217491Y-61837373D01*
X101909608Y-61788001D01*
X101448557Y-61764731D01*
X100882458Y-61765853D01*
X100259430Y-61789658D01*
X99627594Y-61834439D01*
X99035069Y-61898487D01*
X98604374Y-61965658D01*
X98325764Y-62002203D01*
X98076600Y-61987364D01*
X97827443Y-61904335D01*
X97548858Y-61736307D01*
X97211405Y-61466474D01*
X96785647Y-61078028D01*
X96398145Y-60706000D01*
X95876531Y-60205950D01*
X95463036Y-59828630D01*
X95125140Y-59550103D01*
X94830325Y-59346435D01*
X94546071Y-59193687D01*
X94239860Y-59067924D01*
X94110345Y-59022013D01*
X93546633Y-58885569D01*
X92912493Y-58823734D01*
X92277642Y-58836250D01*
X91711795Y-58922858D01*
X91383623Y-59032141D01*
X91040761Y-59171506D01*
X90715950Y-59277208D01*
X90620847Y-59300111D01*
X90426679Y-59367506D01*
X90395159Y-59447271D01*
X90400006Y-59452647D01*
X90539267Y-59473539D01*
X90831812Y-59442113D01*
X91235996Y-59363426D01*
X91346156Y-59337789D01*
X92338768Y-59164986D01*
X93207259Y-59152490D01*
X93952580Y-59300455D01*
X94575677Y-59609039D01*
X94947125Y-59928603D01*
X95162525Y-60126434D01*
X95340649Y-60238971D01*
X95382666Y-60248800D01*
X95467130Y-60305314D01*
X95453199Y-60350400D01*
X95475632Y-60437870D01*
X95545615Y-60452000D01*
X95653685Y-60517328D01*
X95642341Y-60604400D01*
X95659867Y-60732019D01*
X95772529Y-60758356D01*
X95897057Y-60775170D01*
X95831135Y-60843726D01*
X95808800Y-60858400D01*
X95707626Y-60939592D01*
X95784174Y-60968104D01*
X95808800Y-60970476D01*
X95994304Y-60975696D01*
X96037400Y-60972032D01*
X96111199Y-61036712D01*
X96113600Y-61061600D01*
X96036284Y-61160248D01*
X96012000Y-61163200D01*
X95913352Y-61240516D01*
X95910400Y-61264800D01*
X95996615Y-61345498D01*
X96139000Y-61370001D01*
X96290642Y-61378787D01*
X96275275Y-61420442D01*
X96113700Y-61514115D01*
X95859801Y-61654630D01*
X96164500Y-61722602D01*
X96465929Y-61794690D01*
X96579982Y-61837924D01*
X96519174Y-61859975D01*
X96398996Y-61866379D01*
X96141595Y-61908468D01*
X96066024Y-61987030D01*
X96174484Y-62061107D01*
X96387003Y-62089386D01*
X96582203Y-62106763D01*
X96611233Y-62136651D01*
X96570800Y-62150048D01*
X96355125Y-62229254D01*
X96257455Y-62315781D01*
X96305820Y-62374451D01*
X96385639Y-62382400D01*
X96622497Y-62454413D01*
X96727345Y-62539795D01*
X96795975Y-62649385D01*
X96711117Y-62667801D01*
X96603242Y-62650999D01*
X96352116Y-62648782D01*
X96205657Y-62695248D01*
X96126106Y-62767800D01*
X96237402Y-62787214D01*
X96240600Y-62787245D01*
X96391344Y-62841580D01*
X96418400Y-62901271D01*
X96344349Y-62968818D01*
X96264154Y-62954551D01*
X96106412Y-62992678D01*
X95859172Y-63167071D01*
X95551048Y-63448645D01*
X95210650Y-63808317D01*
X94866594Y-64217004D01*
X94547491Y-64645623D01*
X94434309Y-64814492D01*
X94134895Y-65311140D01*
X93811285Y-65904564D01*
X93485558Y-66548284D01*
X93179796Y-67195818D01*
X92916078Y-67800685D01*
X92716485Y-68316405D01*
X92615283Y-68643681D01*
X92539331Y-69071840D01*
X92478902Y-69649098D01*
X92435791Y-70321820D01*
X92411793Y-71036367D01*
X92408704Y-71739104D01*
X92428320Y-72376394D01*
X92472435Y-72894601D01*
X92472876Y-72898000D01*
X92550120Y-73378691D01*
X92652290Y-73867105D01*
X92757685Y-74259870D01*
X92760835Y-74269600D01*
X92881831Y-74708419D01*
X92980640Y-75183234D01*
X93010648Y-75383054D01*
X93049375Y-75641349D01*
X93107994Y-75900291D01*
X93198658Y-76194239D01*
X93333521Y-76557551D01*
X93524736Y-77024588D01*
X93784455Y-77629706D01*
X93894954Y-77883142D01*
X94235199Y-78599569D01*
X94567690Y-79153263D01*
X94922445Y-79581151D01*
X95329481Y-79920159D01*
X95759424Y-80176722D01*
X96171366Y-80369387D01*
X96584073Y-80526550D01*
X96911835Y-80615788D01*
X96926400Y-80618191D01*
X97304972Y-80701154D01*
X97668920Y-80816892D01*
X97739200Y-80845666D01*
X98318588Y-81048524D01*
X98824569Y-81100061D01*
X98824569Y-81492748D01*
X98419887Y-81446118D01*
X97868049Y-81297691D01*
X97692618Y-81240312D01*
X97296908Y-81115571D01*
X96954966Y-81022376D01*
X96728264Y-80977112D01*
X96697939Y-80975200D01*
X96568674Y-80985809D01*
X96591791Y-81042869D01*
X96734898Y-81154554D01*
X97228371Y-81484549D01*
X97672519Y-81685001D01*
X98148422Y-81782202D01*
X98732865Y-81802506D01*
X99142813Y-81808020D01*
X99479463Y-81833003D01*
X99687519Y-81872616D01*
X99719508Y-81888861D01*
X99914994Y-81936266D01*
X100149829Y-81897565D01*
X100439347Y-81861120D01*
X100568035Y-81914276D01*
X100640783Y-81951455D01*
X100640783Y-82498642D01*
X100443825Y-82390107D01*
X100211032Y-82298228D01*
X99882324Y-82191733D01*
X99572561Y-82139616D01*
X99203189Y-82133950D01*
X98814633Y-82157333D01*
X98340203Y-82182794D01*
X98012001Y-82169388D01*
X97776020Y-82112840D01*
X97676109Y-82067250D01*
X97390137Y-81915283D01*
X97057698Y-81738203D01*
X96994696Y-81704592D01*
X96728001Y-81534527D01*
X96382219Y-81276760D01*
X96026133Y-80982964D01*
X95978696Y-80941298D01*
X95490188Y-80513151D01*
X95125132Y-80205566D01*
X94859334Y-79999494D01*
X94668603Y-79875887D01*
X94563452Y-79826994D01*
X94427764Y-79712798D01*
X94231603Y-79474610D01*
X94011637Y-79166915D01*
X93804535Y-78844198D01*
X93646966Y-78560945D01*
X93575597Y-78371640D01*
X93574565Y-78357622D01*
X93529147Y-78162382D01*
X93481474Y-78052822D01*
X93331484Y-77726978D01*
X93146294Y-77268636D01*
X92948878Y-76739993D01*
X92762209Y-76203245D01*
X92609261Y-75720590D01*
X92571933Y-75590400D01*
X92351132Y-74679055D01*
X92195427Y-73753245D01*
X92098588Y-72759434D01*
X92054386Y-71644087D01*
X92050008Y-71105303D01*
X92056526Y-70324163D01*
X92084131Y-69693224D01*
X92144301Y-69159712D01*
X92248518Y-68670855D01*
X92408259Y-68173879D01*
X92635005Y-67616013D01*
X92940234Y-66944484D01*
X92968014Y-66885069D01*
X93416497Y-65971522D01*
X93844100Y-65201109D01*
X94282449Y-64520664D01*
X94739816Y-63906400D01*
X95141289Y-63387121D01*
X95423506Y-62982565D01*
X95603157Y-62656430D01*
X95696934Y-62372414D01*
X95721528Y-62094215D01*
X95698614Y-61821069D01*
X95550000Y-61252047D01*
X95276339Y-60660466D01*
X94921176Y-60137204D01*
X94855252Y-60060944D01*
X94394319Y-59692083D01*
X93797614Y-59438769D01*
X93106625Y-59317208D01*
X92931331Y-59309438D01*
X92503324Y-59332423D01*
X91946926Y-59406063D01*
X91326743Y-59517430D01*
X90707380Y-59653595D01*
X90153441Y-59801632D01*
X89729533Y-59948613D01*
X89722744Y-59951487D01*
X89487689Y-60001196D01*
X89384905Y-59961546D01*
X89411589Y-59889716D01*
X89615832Y-59822982D01*
X89753593Y-59798412D01*
X90045293Y-59734420D01*
X90245051Y-59653330D01*
X90284332Y-59618599D01*
X90295334Y-59561551D01*
X90212693Y-59550883D01*
X90008835Y-59591246D01*
X89814400Y-59644199D01*
X89814400Y-59537600D01*
X89898028Y-59500427D01*
X89882133Y-59469867D01*
X89761557Y-59457708D01*
X89746666Y-59469867D01*
X89760613Y-59530268D01*
X89814400Y-59537600D01*
X89814400Y-59644199D01*
X89656185Y-59687288D01*
X89357200Y-59774911D01*
X89118262Y-59857900D01*
X89025703Y-59916450D01*
X89071803Y-59934916D01*
X89275337Y-59981455D01*
X89353662Y-60039877D01*
X89307913Y-60136139D01*
X89135326Y-60281424D01*
X88893458Y-60439376D01*
X88639863Y-60573638D01*
X88432096Y-60647856D01*
X88383073Y-60652969D01*
X88378071Y-60616175D01*
X88525438Y-60524936D01*
X88525438Y-60524936D01*
G37*
X88525438Y-60524936D02*
X88658865Y-60460348D01*
X88947622Y-60308649D01*
X89128531Y-60174506D01*
X89181437Y-60081674D01*
X89086180Y-60053909D01*
X88991300Y-60068604D01*
X88706402Y-60141433D01*
X88544400Y-60191953D01*
X88455178Y-60209483D01*
X88547197Y-60137073D01*
X88595200Y-60107018D01*
X88758581Y-59997086D01*
X88754940Y-59951249D01*
X88646000Y-59937775D01*
X88631227Y-59906768D01*
X88780988Y-59837472D01*
X89063525Y-59744148D01*
X89103200Y-59732489D01*
X89763600Y-59540628D01*
X89230200Y-59593414D01*
X88881029Y-59619578D01*
X88724389Y-59613078D01*
X88753219Y-59579367D01*
X88960455Y-59523899D01*
X89339037Y-59452127D01*
X89433400Y-59436506D01*
X90403486Y-59239195D01*
X91225091Y-58982393D01*
X91462136Y-58886569D01*
X91882906Y-58777681D01*
X92494363Y-58729043D01*
X92732136Y-58726279D01*
X93497939Y-58770451D01*
X94139355Y-58910479D01*
X94718629Y-59161848D01*
X94894400Y-59264237D01*
X95110028Y-59416805D01*
X95419039Y-59660356D01*
X95784499Y-59962883D01*
X96169476Y-60292381D01*
X96537036Y-60616845D01*
X96850247Y-60904270D01*
X97072175Y-61122649D01*
X97160049Y-61227603D01*
X97301715Y-61366952D01*
X97536979Y-61519075D01*
X97559211Y-61530804D01*
X97676710Y-61589533D01*
X97788038Y-61629361D01*
X97924133Y-61648819D01*
X98115934Y-61646436D01*
X98394381Y-61620742D01*
X98790412Y-61570268D01*
X99334966Y-61493544D01*
X99822000Y-61423299D01*
X100477821Y-61353894D01*
X101253078Y-61313629D01*
X102117680Y-61300490D01*
X103041534Y-61312461D01*
X103994549Y-61347530D01*
X104946632Y-61403681D01*
X105867692Y-61478900D01*
X106727638Y-61571173D01*
X107496376Y-61678486D01*
X108143815Y-61798823D01*
X108639864Y-61930172D01*
X108885577Y-62030009D01*
X109110464Y-62134410D01*
X109254647Y-62178569D01*
X109255115Y-62178575D01*
X109388111Y-62233143D01*
X109603240Y-62366393D01*
X109641886Y-62393428D01*
X109942741Y-62607656D01*
X110825970Y-62377956D01*
X111191596Y-62291663D01*
X111561272Y-62226478D01*
X111976824Y-62178385D01*
X112480078Y-62143366D01*
X113112860Y-62117405D01*
X113707144Y-62101236D01*
X115705089Y-62054216D01*
X115863749Y-62361031D01*
X116024040Y-62769317D01*
X116171073Y-63323942D01*
X116294579Y-63968069D01*
X116384288Y-64644859D01*
X116429932Y-65297474D01*
X116433600Y-65515178D01*
X116421006Y-66055446D01*
X116371097Y-66428637D01*
X116265682Y-66669969D01*
X116086568Y-66814664D01*
X115815563Y-66897941D01*
X115709601Y-66916866D01*
X115700648Y-66918312D01*
X115700648Y-66734702D01*
X115858639Y-66719493D01*
X115987761Y-66603659D01*
X116036897Y-66541818D01*
X116188683Y-66266426D01*
X116158754Y-66073777D01*
X116020791Y-66006495D01*
X116020791Y-65735200D01*
X116202343Y-65697733D01*
X116323032Y-65618151D01*
X116331411Y-65591267D01*
X116316138Y-65495423D01*
X116277089Y-65255217D01*
X116233402Y-64987938D01*
X116145200Y-64548956D01*
X116043238Y-64289644D01*
X115907827Y-64186556D01*
X115906223Y-64186808D01*
X115906223Y-63955265D01*
X115952945Y-63940300D01*
X115997331Y-63807304D01*
X115982798Y-63543949D01*
X115917649Y-63211631D01*
X115810187Y-62871751D01*
X115807546Y-62865000D01*
X115687099Y-62664938D01*
X115560016Y-62585600D01*
X115376623Y-62674913D01*
X115230592Y-62893700D01*
X115159477Y-63168237D01*
X115172404Y-63346509D01*
X115285956Y-63553994D01*
X115487576Y-63756160D01*
X115715065Y-63905690D01*
X115906223Y-63955265D01*
X115906223Y-64186808D01*
X115719281Y-64216247D01*
X115622892Y-64260919D01*
X115329195Y-64497949D01*
X115216383Y-64818809D01*
X115214400Y-64876375D01*
X115285668Y-65058509D01*
X115461594Y-65295403D01*
X115685361Y-65526547D01*
X115900152Y-65691427D01*
X116020791Y-65735200D01*
X116020791Y-66006495D01*
X115949286Y-65971623D01*
X115873967Y-65961562D01*
X115633489Y-65986987D01*
X115364495Y-66080275D01*
X115125370Y-66210545D01*
X114974501Y-66346914D01*
X114959636Y-66445165D01*
X115087535Y-66532848D01*
X115334832Y-66634634D01*
X115432332Y-66666018D01*
X115700648Y-66734702D01*
X115700648Y-66918312D01*
X115366800Y-66972245D01*
X115399655Y-67652029D01*
X115395769Y-68124073D01*
X115310333Y-68437657D01*
X115113973Y-68621000D01*
X114974956Y-68654580D01*
X114974956Y-68375905D01*
X115135924Y-68275563D01*
X115246054Y-67988294D01*
X115301338Y-67519951D01*
X115302163Y-67501890D01*
X115293791Y-67285853D01*
X115209645Y-67218276D01*
X115059073Y-67234893D01*
X114996829Y-67265862D01*
X114996829Y-67055892D01*
X115151243Y-66983690D01*
X115132885Y-66883155D01*
X114990863Y-66738775D01*
X114782952Y-66598191D01*
X114579400Y-66512161D01*
X114437748Y-66490919D01*
X114420742Y-66557401D01*
X114526790Y-66745648D01*
X114565685Y-66805575D01*
X114769539Y-67001021D01*
X114996829Y-67055892D01*
X114996829Y-67265862D01*
X114778201Y-67374639D01*
X114610117Y-67624426D01*
X114572687Y-67920086D01*
X114683775Y-68197446D01*
X114767157Y-68283464D01*
X114974956Y-68375905D01*
X114974956Y-68654580D01*
X114777316Y-68702322D01*
X114566222Y-68706005D01*
X114566222Y-68451421D01*
X114649431Y-68422460D01*
X114628667Y-68357532D01*
X114582416Y-68301321D01*
X114422699Y-68053520D01*
X114354391Y-67889226D01*
X114360991Y-67583853D01*
X114442830Y-67411947D01*
X114534976Y-67241085D01*
X114530310Y-67092244D01*
X114419400Y-66881900D01*
X114375055Y-66811622D01*
X114195106Y-66575749D01*
X114001299Y-66473179D01*
X113741200Y-66450687D01*
X113448092Y-66417826D01*
X113042081Y-66334799D01*
X112602166Y-66218247D01*
X112522000Y-66193911D01*
X112033465Y-66049251D01*
X111686492Y-65970664D01*
X111431694Y-65954723D01*
X111219687Y-65997999D01*
X111015795Y-66089346D01*
X110469449Y-66347426D01*
X109834554Y-66604284D01*
X109157324Y-66845349D01*
X108483969Y-67056051D01*
X107860703Y-67221818D01*
X107333736Y-67328080D01*
X106983341Y-67360800D01*
X106778592Y-67381181D01*
X106695317Y-67483586D01*
X106680000Y-67711797D01*
X106698654Y-67945409D01*
X106794224Y-68062180D01*
X107026115Y-68128061D01*
X107061000Y-68134750D01*
X107364455Y-68168953D01*
X107809444Y-68191312D01*
X108334639Y-68201712D01*
X108878714Y-68200036D01*
X109380340Y-68186167D01*
X109778190Y-68159990D01*
X109931200Y-68140192D01*
X110538836Y-68006394D01*
X111225081Y-67813407D01*
X111483576Y-67789662D01*
X111631481Y-67821894D01*
X111835302Y-67904362D01*
X111912400Y-67931753D01*
X112057052Y-67981117D01*
X112328160Y-68076099D01*
X112593826Y-68170150D01*
X113001358Y-68282936D01*
X113500367Y-68376433D01*
X113956424Y-68428063D01*
X114346175Y-68451071D01*
X114566222Y-68451421D01*
X114566222Y-68706005D01*
X114297722Y-68710691D01*
X113547093Y-68642503D01*
X112784601Y-68493791D01*
X112096199Y-68283378D01*
X111823445Y-68168876D01*
X111536547Y-68045807D01*
X111346026Y-68012715D01*
X111169687Y-68062606D01*
X111081716Y-68105779D01*
X110768085Y-68233244D01*
X110438025Y-68323644D01*
X110104339Y-68387906D01*
X109718201Y-68462239D01*
X109626400Y-68479906D01*
X109338133Y-68515994D01*
X108908868Y-68546077D01*
X108400794Y-68566637D01*
X107964529Y-68573944D01*
X107452474Y-68579268D01*
X107112602Y-68592227D01*
X106913919Y-68617480D01*
X106825431Y-68659686D01*
X106816143Y-68723504D01*
X106823360Y-68745482D01*
X106960603Y-69192050D01*
X107046895Y-69651893D01*
X107067893Y-70039942D01*
X107058087Y-70137510D01*
X107046154Y-70426518D01*
X107134554Y-70644193D01*
X107348480Y-70809287D01*
X107713126Y-70940550D01*
X108253685Y-71056732D01*
X108305600Y-71065993D01*
X108831249Y-71161229D01*
X109379704Y-71264621D01*
X109854139Y-71357812D01*
X109969062Y-71381348D01*
X110355402Y-71455050D01*
X110689350Y-71507268D01*
X110893253Y-71526400D01*
X111141650Y-71571593D01*
X111428388Y-71680684D01*
X111435851Y-71684376D01*
X111736970Y-71783384D01*
X111936412Y-71743937D01*
X112106463Y-71687179D01*
X112428908Y-71607601D01*
X112855777Y-71516227D01*
X113287978Y-71433310D01*
X113874960Y-71318278D01*
X114504411Y-71181409D01*
X115082981Y-71043555D01*
X115368426Y-70968612D01*
X116116886Y-70791277D01*
X116698124Y-70720531D01*
X117117814Y-70756201D01*
X117381628Y-70898114D01*
X117390105Y-70907193D01*
X117580617Y-71205252D01*
X117718289Y-71630777D01*
X117806880Y-72204069D01*
X117850152Y-72945429D01*
X117856000Y-73422148D01*
X117853298Y-73979211D01*
X117841933Y-74370339D01*
X117817017Y-74632759D01*
X117773662Y-74803700D01*
X117706979Y-74920391D01*
X117651117Y-74982483D01*
X117553319Y-75042146D01*
X117553319Y-72997855D01*
X117561847Y-72993020D01*
X117611574Y-72859245D01*
X117616810Y-72589215D01*
X117581423Y-72244036D01*
X117509282Y-71884816D01*
X117486418Y-71801555D01*
X117386556Y-71672439D01*
X117212805Y-71686989D01*
X117183334Y-71700961D01*
X117183334Y-71411741D01*
X117235904Y-71353025D01*
X117226421Y-71312139D01*
X117103144Y-71208047D01*
X116863868Y-71141693D01*
X116832175Y-71138157D01*
X116619595Y-71143685D01*
X116580785Y-71201417D01*
X116701134Y-71287377D01*
X116966033Y-71377590D01*
X116980246Y-71381150D01*
X117183334Y-71411741D01*
X117183334Y-71700961D01*
X116896686Y-71836867D01*
X116746748Y-72031663D01*
X116738400Y-72092860D01*
X116800306Y-72349684D01*
X116956715Y-72616654D01*
X117163663Y-72845713D01*
X117377186Y-72988800D01*
X117553319Y-72997855D01*
X117553319Y-75042146D01*
X117415989Y-75125927D01*
X117257547Y-75124713D01*
X117257547Y-74880079D01*
X117420407Y-74815047D01*
X117481164Y-74701400D01*
X117508887Y-74504450D01*
X117530872Y-74186484D01*
X117539414Y-73939400D01*
X117539989Y-73610270D01*
X117511938Y-73435567D01*
X117436165Y-73366743D01*
X117309640Y-73355200D01*
X117026555Y-73417640D01*
X116899395Y-73589443D01*
X116930144Y-73847336D01*
X117120788Y-74168046D01*
X117229502Y-74295000D01*
X117368230Y-74471746D01*
X117396271Y-74568306D01*
X117379448Y-74574400D01*
X117230057Y-74504075D01*
X117144800Y-74422000D01*
X116975669Y-74283364D01*
X116865826Y-74320820D01*
X116840000Y-74452480D01*
X116906631Y-74675225D01*
X117066051Y-74825615D01*
X117257547Y-74880079D01*
X117257547Y-75124713D01*
X117118646Y-75123647D01*
X116723779Y-74974101D01*
X116654111Y-74938953D01*
X116307064Y-74811722D01*
X115930345Y-74793470D01*
X115469720Y-74885936D01*
X115153970Y-74987054D01*
X114784533Y-75101178D01*
X114295782Y-75232012D01*
X113768085Y-75358629D01*
X113515636Y-75413632D01*
X113061500Y-75506170D01*
X112722822Y-75561183D01*
X112433645Y-75579653D01*
X112128015Y-75562563D01*
X111739974Y-75510897D01*
X111331236Y-75446191D01*
X110751961Y-75362448D01*
X110131291Y-75288850D01*
X109508656Y-75228330D01*
X108923490Y-75183818D01*
X108415223Y-75158246D01*
X108023289Y-75154545D01*
X107787120Y-75175646D01*
X107767201Y-75181254D01*
X107651869Y-75237011D01*
X107665274Y-75324869D01*
X107792601Y-75483038D01*
X107950268Y-75692259D01*
X107990148Y-75852654D01*
X107893150Y-75990383D01*
X107640179Y-76131609D01*
X107212142Y-76302494D01*
X107188000Y-76311471D01*
X106533860Y-76629811D01*
X105962168Y-77054057D01*
X105527928Y-77541863D01*
X105466290Y-77636941D01*
X105321083Y-77849624D01*
X105262039Y-77886474D01*
X105297098Y-77759199D01*
X105401331Y-77541155D01*
X105738658Y-77084849D01*
X106239840Y-76660996D01*
X106865544Y-76299754D01*
X107213400Y-76151809D01*
X107487550Y-76036761D01*
X107661327Y-75942070D01*
X107693740Y-75906797D01*
X107593053Y-75691900D01*
X107318395Y-75433660D01*
X106890433Y-75147110D01*
X106329828Y-74847283D01*
X106070400Y-74725794D01*
X105771658Y-74588243D01*
X105516260Y-74466347D01*
X105495887Y-74456263D01*
X105284686Y-74396438D01*
X105168557Y-74414239D01*
X105013655Y-74412662D01*
X104814983Y-74320613D01*
X104673935Y-74247983D01*
X104489814Y-74201832D01*
X104222748Y-74178725D01*
X103832863Y-74175223D01*
X103280289Y-74187892D01*
X103276400Y-74188010D01*
X103033235Y-74188457D01*
X102726931Y-74181010D01*
X102717600Y-74180660D01*
X102123750Y-74169054D01*
X101573991Y-74178457D01*
X101110803Y-74206573D01*
X100776669Y-74251106D01*
X100637885Y-74293063D01*
X100418961Y-74432231D01*
X100161208Y-74626587D01*
X100136869Y-74646635D01*
X99887646Y-74811095D01*
X99634199Y-74848257D01*
X99451897Y-74825950D01*
X99191510Y-74797344D01*
X99054591Y-74848064D01*
X98967702Y-75007242D01*
X98962821Y-75019972D01*
X98787114Y-75250938D01*
X98604573Y-75345034D01*
X98422008Y-75435162D01*
X98372380Y-75538780D01*
X98320579Y-75688860D01*
X98164783Y-75858399D01*
X97997350Y-76067986D01*
X97994252Y-76216906D01*
X98144004Y-76374186D01*
X98454219Y-76543215D01*
X98884178Y-76707177D01*
X99393159Y-76849253D01*
X99664810Y-76906876D01*
X100087323Y-77006309D01*
X100496993Y-77133960D01*
X100731610Y-77228917D01*
X101102565Y-77473624D01*
X101417738Y-77800814D01*
X101632095Y-78153964D01*
X101701600Y-78446377D01*
X101701599Y-78729632D01*
X102082600Y-78568187D01*
X102490653Y-78457959D01*
X102976765Y-78416224D01*
X103456136Y-78443232D01*
X103843964Y-78539229D01*
X103895574Y-78562874D01*
X104269008Y-78705901D01*
X104776835Y-78839483D01*
X105350290Y-78950086D01*
X105920608Y-79024173D01*
X106362262Y-79048401D01*
X106749626Y-79069767D01*
X107084765Y-79121791D01*
X107271682Y-79182980D01*
X107359387Y-79243994D01*
X107333629Y-79278529D01*
X107168827Y-79290029D01*
X106839399Y-79281942D01*
X106611282Y-79271926D01*
X106128643Y-79235005D01*
X105654834Y-79174906D01*
X105277021Y-79103200D01*
X105212945Y-79086304D01*
X104896323Y-79008609D01*
X104718651Y-79004921D01*
X104633316Y-79068559D01*
X104536292Y-79139377D01*
X104353825Y-79109353D01*
X104220771Y-79059878D01*
X103413925Y-78814610D01*
X102677543Y-78758237D01*
X102004414Y-78891885D01*
X101387328Y-79216680D01*
X100976739Y-79566461D01*
X100649205Y-79998593D01*
X100488007Y-80446852D01*
X100486634Y-80877646D01*
X100638574Y-81257383D01*
X100937316Y-81552474D01*
X101376349Y-81729326D01*
X101396800Y-81733478D01*
X101828293Y-81834534D01*
X102060640Y-81937221D01*
X102097616Y-82053801D01*
X101942997Y-82196536D01*
X101600558Y-82377689D01*
X101595835Y-82379906D01*
X101273546Y-82555752D01*
X101125352Y-82729951D01*
X101130411Y-82958220D01*
X101259587Y-83278855D01*
X101430332Y-83570942D01*
X101641265Y-83764536D01*
X101935125Y-83878134D01*
X102354655Y-83930231D01*
X102787569Y-83940073D01*
X103398387Y-83963712D01*
X103822271Y-84035569D01*
X103978828Y-84095734D01*
X104219692Y-84192088D01*
X104399741Y-84169383D01*
X104488561Y-84121050D01*
X104705188Y-84011306D01*
X105023225Y-83877720D01*
X105206039Y-83809269D01*
X105502173Y-83693675D01*
X105651282Y-83588895D01*
X105700460Y-83445675D01*
X105700473Y-83292118D01*
X105695110Y-83074631D01*
X105717931Y-83044911D01*
X105786787Y-83187788D01*
X105796638Y-83210400D01*
X105882567Y-83405614D01*
X105921490Y-83490259D01*
X106021868Y-83481949D01*
X106256056Y-83413004D01*
X106571146Y-83302952D01*
X106914232Y-83171324D01*
X107232405Y-83037651D01*
X107472758Y-82921462D01*
X107492800Y-82910229D01*
X107604608Y-82767927D01*
X107605912Y-82686455D01*
X107557011Y-82482803D01*
X107519059Y-82296000D01*
X107492870Y-82121232D01*
X107534940Y-82131830D01*
X107622333Y-82245200D01*
X107756741Y-82470586D01*
X107810786Y-82611922D01*
X107853549Y-82704415D01*
X107955275Y-82709960D01*
X108169234Y-82625452D01*
X108254800Y-82586026D01*
X108687115Y-82369963D01*
X109098391Y-82139097D01*
X109442573Y-81921681D01*
X109673605Y-81745967D01*
X109735542Y-81677676D01*
X109800921Y-81481411D01*
X109836422Y-81199514D01*
X109837207Y-81178400D01*
X109847926Y-80822800D01*
X109943268Y-81153000D01*
X110038291Y-81387488D01*
X110167491Y-81465371D01*
X110369134Y-81390540D01*
X110611483Y-81220922D01*
X110821831Y-81042277D01*
X110911713Y-80878073D01*
X110916186Y-80640024D01*
X110900571Y-80492886D01*
X110875249Y-80196453D01*
X110893513Y-80096177D01*
X110957538Y-80192296D01*
X111069497Y-80485047D01*
X111078998Y-80512367D01*
X111212460Y-80897864D01*
X111503163Y-80647812D01*
X111732250Y-80368011D01*
X111793866Y-80072883D01*
X111812790Y-79873853D01*
X111866703Y-79864358D01*
X111876977Y-79879003D01*
X111952913Y-80095952D01*
X111961644Y-80182616D01*
X111979443Y-80285725D01*
X112065120Y-80299613D01*
X112271100Y-80226340D01*
X112340681Y-80197510D01*
X112722619Y-79982376D01*
X112930487Y-79715128D01*
X112989804Y-79451200D01*
X113005303Y-79280356D01*
X113026263Y-79305662D01*
X113050923Y-79425957D01*
X113117157Y-79585735D01*
X113270274Y-79609330D01*
X113367286Y-79589820D01*
X113599073Y-79502574D01*
X113922513Y-79342471D01*
X114198400Y-79185244D01*
X114551534Y-78992160D01*
X114890814Y-78841795D01*
X115090880Y-78779384D01*
X115303538Y-78726979D01*
X115340805Y-78670771D01*
X115243280Y-78588557D01*
X115002310Y-78486086D01*
X114592763Y-78382029D01*
X114049137Y-78281933D01*
X113405931Y-78191345D01*
X112697642Y-78115812D01*
X111963200Y-78061138D01*
X111436883Y-78028940D01*
X111099791Y-78003083D01*
X110938131Y-77981184D01*
X110938117Y-77960859D01*
X111085957Y-77939726D01*
X111199296Y-77929122D01*
X111543907Y-77890253D01*
X111741510Y-77831922D01*
X111848184Y-77727858D01*
X111904012Y-77598983D01*
X111953437Y-77378534D01*
X111934587Y-77255122D01*
X111816369Y-77250689D01*
X111554969Y-77287689D01*
X111203413Y-77354711D01*
X110814730Y-77440349D01*
X110441947Y-77533193D01*
X110138090Y-77621834D01*
X110007400Y-77669751D01*
X109860250Y-77689492D01*
X109829600Y-77642727D01*
X109880050Y-77577829D01*
X110045390Y-77495672D01*
X110346599Y-77388768D01*
X110804656Y-77249627D01*
X111403176Y-77081045D01*
X111909953Y-76941424D01*
X111606376Y-76785190D01*
X111201419Y-76611789D01*
X110696326Y-76444270D01*
X110171788Y-76305258D01*
X109708496Y-76217379D01*
X109517058Y-76199338D01*
X109052999Y-76187779D01*
X108770335Y-76199803D01*
X108648425Y-76237301D01*
X108647257Y-76279041D01*
X108625398Y-76405291D01*
X108505214Y-76601468D01*
X108499171Y-76609241D01*
X108302236Y-76860400D01*
X108403003Y-76581000D01*
X108463651Y-76378478D01*
X108424995Y-76315371D01*
X108256118Y-76376577D01*
X108122754Y-76444105D01*
X107608164Y-76782122D01*
X107058507Y-77269844D01*
X106641518Y-77720600D01*
X106264603Y-78113146D01*
X105876208Y-78433998D01*
X105519291Y-78652179D01*
X105236811Y-78736715D01*
X105232200Y-78736830D01*
X105081674Y-78692129D01*
X105088178Y-78544521D01*
X105253719Y-78285970D01*
X105384600Y-78126669D01*
X105656987Y-77789013D01*
X105928734Y-77420918D01*
X105993234Y-77326955D01*
X106177725Y-77085190D01*
X106335612Y-76935254D01*
X106391944Y-76911200D01*
X106419753Y-76973349D01*
X106318583Y-77127476D01*
X106307719Y-77139800D01*
X106134311Y-77356471D01*
X105914587Y-77660477D01*
X105785447Y-77851000D01*
X105610571Y-78148834D01*
X105563030Y-78305980D01*
X105628123Y-78327062D01*
X105791147Y-78216704D01*
X106037400Y-77979529D01*
X106293056Y-77691356D01*
X106922789Y-77021527D01*
X107559197Y-76496241D01*
X108093145Y-76178048D01*
X108522428Y-76054284D01*
X109084259Y-76009389D01*
X109726516Y-76037454D01*
X110397077Y-76132571D01*
X111043820Y-76288830D01*
X111614623Y-76500323D01*
X111810800Y-76599505D01*
X112000637Y-76704417D01*
X112160735Y-76778800D01*
X112326305Y-76824318D01*
X112532562Y-76842635D01*
X112814718Y-76835418D01*
X113207987Y-76804330D01*
X113747583Y-76751036D01*
X114147600Y-76709979D01*
X114688294Y-76666989D01*
X115234940Y-76644469D01*
X115707990Y-76644784D01*
X115925600Y-76657121D01*
X116576677Y-76719261D01*
X117056586Y-76768873D01*
X117396648Y-76810423D01*
X117628184Y-76848375D01*
X117782515Y-76887194D01*
X117890960Y-76931345D01*
X117906800Y-76939549D01*
X118134948Y-77002774D01*
X118453806Y-77027442D01*
X118550600Y-77025114D01*
X118854873Y-77035948D01*
X119084028Y-77090340D01*
X119128285Y-77116297D01*
X119320345Y-77204007D01*
X119598151Y-77260899D01*
X119613668Y-77262439D01*
X120109297Y-77406599D01*
X120617878Y-77743437D01*
X120812373Y-77921230D01*
X121039509Y-78174255D01*
X121203091Y-78444845D01*
X121328120Y-78789858D01*
X121439598Y-79266151D01*
X121468430Y-79413179D01*
X121566329Y-80009621D01*
X121599569Y-80472400D01*
X121569380Y-80860069D01*
X121504760Y-81140540D01*
X121339012Y-81425693D01*
X121026261Y-81611496D01*
X120549639Y-81706269D01*
X120330076Y-81719870D01*
X120308751Y-81720619D01*
X120308751Y-81587893D01*
X120659789Y-81541161D01*
X120894439Y-81471309D01*
X121118992Y-81362961D01*
X121193486Y-81214391D01*
X121189001Y-81090309D01*
X121123600Y-80891106D01*
X120947235Y-80805923D01*
X120847789Y-80792454D01*
X120543756Y-80834140D01*
X120255869Y-80985275D01*
X120222031Y-81020598D01*
X120222031Y-80760128D01*
X120353933Y-80725401D01*
X120773432Y-80600532D01*
X121101642Y-80624411D01*
X121209170Y-80670599D01*
X121370375Y-80740591D01*
X121401066Y-80693572D01*
X121391735Y-80660406D01*
X121270100Y-80540634D01*
X121065495Y-80453536D01*
X120733694Y-80432695D01*
X120425057Y-80521923D01*
X120236802Y-80681399D01*
X120222031Y-80760128D01*
X120222031Y-81020598D01*
X120050310Y-81199860D01*
X119989600Y-81388975D01*
X120074710Y-81536196D01*
X120308751Y-81587893D01*
X120308751Y-81720619D01*
X119912641Y-81734547D01*
X119912641Y-81061410D01*
X119976561Y-81027320D01*
X120034360Y-80980213D01*
X120136015Y-80821455D01*
X120133952Y-80736865D01*
X120177906Y-80602345D01*
X120361374Y-80457756D01*
X120625190Y-80335641D01*
X120910184Y-80268542D01*
X120993677Y-80264000D01*
X121181714Y-80253005D01*
X121271882Y-80184186D01*
X121297827Y-80003792D01*
X121295773Y-79781400D01*
X121265976Y-79398741D01*
X121204093Y-79032737D01*
X121180958Y-78943200D01*
X120959304Y-78463537D01*
X120607861Y-78004905D01*
X120271436Y-77707649D01*
X119971181Y-77554392D01*
X119675446Y-77499026D01*
X119450112Y-77548836D01*
X119387713Y-77609919D01*
X119286593Y-77619787D01*
X119118690Y-77454922D01*
X119085034Y-77410773D01*
X118899873Y-77203621D01*
X118726093Y-77142017D01*
X118583165Y-77162115D01*
X118335693Y-77266139D01*
X118195272Y-77380973D01*
X118095409Y-77474441D01*
X118031192Y-77386591D01*
X118014185Y-77335828D01*
X117865127Y-77144265D01*
X117629973Y-77082064D01*
X117385087Y-77156532D01*
X117269195Y-77264544D01*
X117099076Y-77490076D01*
X117084583Y-77471652D01*
X117084583Y-77161752D01*
X117209080Y-77103213D01*
X117331739Y-76978449D01*
X117284195Y-76922895D01*
X117081559Y-76911200D01*
X116902652Y-76928172D01*
X116895369Y-77001425D01*
X116942639Y-77064853D01*
X117084583Y-77161752D01*
X117084583Y-77471652D01*
X116911364Y-77251438D01*
X116722406Y-77079744D01*
X116636800Y-77047506D01*
X116636800Y-76911200D01*
X116720428Y-76874027D01*
X116704533Y-76843467D01*
X116583957Y-76831308D01*
X116569066Y-76843467D01*
X116583013Y-76903868D01*
X116636800Y-76911200D01*
X116636800Y-77047506D01*
X116553225Y-77016032D01*
X116325282Y-77082427D01*
X116122131Y-77231638D01*
X116027589Y-77400784D01*
X116027200Y-77410667D01*
X115971958Y-77425359D01*
X115835408Y-77307555D01*
X115798302Y-77266022D01*
X115563155Y-77082337D01*
X115360412Y-77083843D01*
X115224493Y-77262776D01*
X115193904Y-77402399D01*
X115161570Y-77673200D01*
X115010185Y-77419200D01*
X114914248Y-77283198D01*
X114795405Y-77213088D01*
X114596674Y-77194859D01*
X114261073Y-77214502D01*
X114198400Y-77219603D01*
X113851771Y-77257076D01*
X113696792Y-77298243D01*
X113721914Y-77346522D01*
X113741200Y-77354867D01*
X114337704Y-77596642D01*
X114779928Y-77788327D01*
X115104868Y-77948412D01*
X115349522Y-78095387D01*
X115550887Y-78247742D01*
X115583627Y-78275638D01*
X115836726Y-78474646D01*
X116031245Y-78554707D01*
X116249195Y-78543588D01*
X116327511Y-78527490D01*
X116562757Y-78493985D01*
X116924012Y-78464689D01*
X117372343Y-78440402D01*
X117868818Y-78421919D01*
X118374505Y-78410039D01*
X118850471Y-78405559D01*
X119257784Y-78409277D01*
X119557512Y-78421989D01*
X119710721Y-78444494D01*
X119721525Y-78457974D01*
X119775831Y-78495834D01*
X119973872Y-78490655D01*
X120070962Y-78477452D01*
X120377336Y-78459628D01*
X120537822Y-78520271D01*
X120541635Y-78525856D01*
X120531673Y-78626535D01*
X120480989Y-78638400D01*
X120457728Y-78685400D01*
X120580325Y-78799115D01*
X120588973Y-78805233D01*
X120744117Y-78931947D01*
X120738970Y-79012765D01*
X120660243Y-79065478D01*
X120546567Y-79190050D01*
X120608328Y-79300217D01*
X120819751Y-79353197D01*
X120833796Y-79353577D01*
X120957687Y-79367216D01*
X120913826Y-79414782D01*
X120751560Y-79490409D01*
X120492900Y-79628278D01*
X120314139Y-79806617D01*
X120221089Y-79990498D01*
X120221089Y-79601025D01*
X120340743Y-79562502D01*
X120396000Y-79529222D01*
X120552964Y-79421528D01*
X120599200Y-79375961D01*
X120513662Y-79354502D01*
X120396000Y-79349600D01*
X120230171Y-79413534D01*
X120217054Y-79444887D01*
X120217054Y-79174228D01*
X120333241Y-79122972D01*
X120406265Y-79063237D01*
X120512297Y-78916717D01*
X120449150Y-78843375D01*
X120247001Y-78877055D01*
X120241961Y-78878971D01*
X120142611Y-79004637D01*
X120151607Y-79084001D01*
X120217054Y-79174228D01*
X120217054Y-79444887D01*
X120192800Y-79502861D01*
X120221089Y-79601025D01*
X120221089Y-79990498D01*
X120175699Y-80080196D01*
X120056917Y-80441529D01*
X120056917Y-78788511D01*
X120142000Y-78776742D01*
X120276445Y-78677014D01*
X120294400Y-78627530D01*
X120211948Y-78546987D01*
X120142000Y-78536800D01*
X120007264Y-78616495D01*
X119989600Y-78686012D01*
X120056917Y-78788511D01*
X120056917Y-80441529D01*
X120050766Y-80460241D01*
X119948694Y-80811160D01*
X119903002Y-81000453D01*
X119912641Y-81061410D01*
X119912641Y-81734547D01*
X119837200Y-81737200D01*
X119807155Y-81381166D01*
X119814280Y-81083207D01*
X119864395Y-80692055D01*
X119919087Y-80415966D01*
X119999775Y-79867939D01*
X119990258Y-79355065D01*
X119893811Y-78940947D01*
X119837200Y-78826230D01*
X119749014Y-78747634D01*
X119571877Y-78688958D01*
X119272240Y-78643948D01*
X118816558Y-78606351D01*
X118579638Y-78591788D01*
X117423677Y-78525116D01*
X117491265Y-78810358D01*
X117555737Y-79148169D01*
X117626563Y-79622833D01*
X117695742Y-80168511D01*
X117755272Y-80719364D01*
X117797153Y-81209551D01*
X117809890Y-81432400D01*
X117837398Y-81854931D01*
X117880198Y-82271481D01*
X117909020Y-82471517D01*
X117944978Y-82745185D01*
X117909686Y-82891380D01*
X117774595Y-82981292D01*
X117690820Y-83015640D01*
X117480441Y-83063615D01*
X117268830Y-83074747D01*
X117268830Y-82829066D01*
X117359135Y-82789959D01*
X117415291Y-82720247D01*
X117540185Y-82417271D01*
X117464973Y-82114292D01*
X117455787Y-82099334D01*
X117396069Y-82044929D01*
X117396069Y-81910296D01*
X117519852Y-81620548D01*
X117623778Y-81337805D01*
X117627988Y-81143317D01*
X117528843Y-80946288D01*
X117490589Y-80890426D01*
X117274199Y-80710537D01*
X117174534Y-80698115D01*
X117174534Y-80493203D01*
X117308467Y-80251602D01*
X117431941Y-79921351D01*
X117415658Y-79659671D01*
X117262979Y-79507738D01*
X117247309Y-79502289D01*
X117035948Y-79476958D01*
X116982495Y-79490962D01*
X116982495Y-79311487D01*
X117094000Y-79284742D01*
X117232515Y-79140326D01*
X117210617Y-78873433D01*
X117184729Y-78799110D01*
X117047909Y-78654638D01*
X116852347Y-78640233D01*
X116669135Y-78729649D01*
X116569365Y-78896641D01*
X116578995Y-79022730D01*
X116736585Y-79247334D01*
X116982495Y-79311487D01*
X116982495Y-79490962D01*
X116942509Y-79501439D01*
X116850803Y-79664313D01*
X116863007Y-79922503D01*
X116972645Y-80200721D01*
X117007267Y-80254395D01*
X117174534Y-80493203D01*
X117174534Y-80698115D01*
X117109589Y-80690020D01*
X116952274Y-80798293D01*
X116887777Y-81022695D01*
X116913199Y-81300108D01*
X117025637Y-81567419D01*
X117156777Y-81716530D01*
X117396069Y-81910296D01*
X117396069Y-82044929D01*
X117353836Y-82006452D01*
X117214626Y-82077108D01*
X117203343Y-82086374D01*
X117056976Y-82305282D01*
X117099219Y-82575602D01*
X117164522Y-82696226D01*
X117268830Y-82829066D01*
X117268830Y-83074747D01*
X117153431Y-83080818D01*
X116681124Y-83067454D01*
X116078000Y-83027120D01*
X115414109Y-82984131D01*
X114887577Y-82973548D01*
X114434997Y-82996401D01*
X113992964Y-83053722D01*
X113944400Y-83061814D01*
X113535403Y-83113198D01*
X112988643Y-83156721D01*
X112369518Y-83188363D01*
X111743428Y-83204102D01*
X111615289Y-83205017D01*
X110098979Y-83210401D01*
X110314727Y-83440053D01*
X110508665Y-83695544D01*
X110725622Y-84055309D01*
X110936753Y-84461144D01*
X111113217Y-84854849D01*
X111226168Y-85178219D01*
X111252000Y-85331368D01*
X111166249Y-85665466D01*
X110934664Y-86043320D01*
X110595745Y-86423177D01*
X110187993Y-86763290D01*
X109749909Y-87021908D01*
X109655168Y-87062962D01*
X109396048Y-87193742D01*
X109216134Y-87330087D01*
X109210928Y-87336131D01*
X109020164Y-87450885D01*
X108864400Y-87477600D01*
X108624949Y-87541593D01*
X108508800Y-87630000D01*
X108316488Y-87745874D01*
X108109378Y-87782400D01*
X107823167Y-87838190D01*
X107639218Y-87931569D01*
X107397803Y-88038769D01*
X107105120Y-88083969D01*
X106795510Y-88123307D01*
X106546320Y-88208374D01*
X106307459Y-88301122D01*
X105978695Y-88386411D01*
X105867200Y-88407727D01*
X105499083Y-88472921D01*
X105152201Y-88537821D01*
X105079608Y-88552114D01*
X105023477Y-88551487D01*
X105023477Y-88317570D01*
X105105200Y-88288087D01*
X105272053Y-88220403D01*
X105619868Y-88130680D01*
X106128166Y-88023570D01*
X106776469Y-87903726D01*
X106862766Y-87888699D01*
X107159971Y-87816139D01*
X107376742Y-87725760D01*
X107416486Y-87696154D01*
X107602036Y-87606347D01*
X107798501Y-87579200D01*
X108083420Y-87521640D01*
X108260781Y-87430032D01*
X108477263Y-87310647D01*
X108612215Y-87277632D01*
X108787066Y-87221376D01*
X109041752Y-87084073D01*
X109140224Y-87020400D01*
X109393706Y-86864993D01*
X109588122Y-86775211D01*
X109631789Y-86766400D01*
X109810404Y-86695797D01*
X110065966Y-86514382D01*
X110345695Y-86267745D01*
X110596815Y-86001477D01*
X110738103Y-85810741D01*
X110908333Y-85437758D01*
X110917246Y-85087263D01*
X110762694Y-84697569D01*
X110695338Y-84582000D01*
X110521489Y-84285911D01*
X110381577Y-84027514D01*
X110348997Y-83960343D01*
X110199686Y-83749929D01*
X109973467Y-83537765D01*
X109964187Y-83530761D01*
X109604107Y-83239636D01*
X109398967Y-83012830D01*
X109323402Y-82820953D01*
X109321600Y-82786224D01*
X109380996Y-82631490D01*
X109511964Y-82615605D01*
X109643667Y-82732464D01*
X109681397Y-82817227D01*
X109711896Y-82893671D01*
X109766558Y-82948552D01*
X109873947Y-82984265D01*
X110062624Y-83003206D01*
X110361154Y-83007768D01*
X110798099Y-83000347D01*
X111402023Y-82983339D01*
X111593244Y-82977540D01*
X112856337Y-82911436D01*
X113991030Y-82795522D01*
X114976796Y-82632800D01*
X115793111Y-82426268D01*
X116103429Y-82318396D01*
X116401710Y-82219546D01*
X116616576Y-82178881D01*
X116687375Y-82194038D01*
X116629547Y-82269922D01*
X116427183Y-82378975D01*
X116224515Y-82460383D01*
X115938927Y-82585418D01*
X115854068Y-82682329D01*
X115969324Y-82750402D01*
X116284083Y-82788927D01*
X116514403Y-82796860D01*
X116950807Y-82804000D01*
X116886758Y-82462588D01*
X116865863Y-82209177D01*
X116940084Y-82082210D01*
X116992609Y-82055979D01*
X117089154Y-81994846D01*
X117066688Y-81892658D01*
X116920725Y-81703437D01*
X116755390Y-81445046D01*
X116709712Y-81156257D01*
X116719342Y-80992446D01*
X116762508Y-80731641D01*
X116822651Y-80582420D01*
X116845487Y-80568800D01*
X116864932Y-80487058D01*
X116809472Y-80282757D01*
X116776623Y-80198771D01*
X116689177Y-79898394D01*
X116672977Y-79635321D01*
X116679484Y-79599763D01*
X116671426Y-79384867D01*
X116589420Y-79314172D01*
X116463967Y-79183971D01*
X116361205Y-78945620D01*
X116356993Y-78929947D01*
X116288620Y-78719986D01*
X116216728Y-78680890D01*
X116131780Y-78752549D01*
X115918232Y-78856683D01*
X115816310Y-78859201D01*
X115816310Y-78739621D01*
X115876035Y-78690624D01*
X115795240Y-78562488D01*
X115605193Y-78384601D01*
X115337166Y-78186353D01*
X115031400Y-78001938D01*
X114723769Y-77858444D01*
X114291317Y-77684765D01*
X113804116Y-77508220D01*
X113538000Y-77419729D01*
X113355663Y-77360867D01*
X113355663Y-77192610D01*
X113472705Y-77141570D01*
X113598984Y-77092251D01*
X113877431Y-77049423D01*
X114257058Y-77015290D01*
X114686878Y-76992055D01*
X115115902Y-76981922D01*
X115493144Y-76987096D01*
X115767617Y-77009781D01*
X115872357Y-77037843D01*
X116092798Y-77059525D01*
X116200803Y-76995426D01*
X116291771Y-76896358D01*
X116224389Y-76841354D01*
X116073555Y-76809481D01*
X115860310Y-76795925D01*
X115496002Y-76796918D01*
X115032177Y-76811510D01*
X114534493Y-76837852D01*
X114030522Y-76875640D01*
X113583497Y-76919788D01*
X113242215Y-76964784D01*
X113056220Y-77004826D01*
X112907605Y-77069935D01*
X112929994Y-77113947D01*
X113117105Y-77168007D01*
X113355663Y-77192610D01*
X113355663Y-77360867D01*
X113093159Y-77276124D01*
X112704237Y-77148591D01*
X112422649Y-77054098D01*
X112318800Y-77017405D01*
X112200986Y-76991154D01*
X112137684Y-77055087D01*
X112109157Y-77251252D01*
X112099458Y-77484696D01*
X112083317Y-78028800D01*
X112732395Y-78028800D01*
X113231650Y-78054991D01*
X113790696Y-78125773D01*
X114350860Y-78229466D01*
X114853466Y-78354385D01*
X115239841Y-78488850D01*
X115366724Y-78553315D01*
X115613506Y-78680110D01*
X115804856Y-78739092D01*
X115816310Y-78739621D01*
X115816310Y-78859201D01*
X115712190Y-78861774D01*
X115334882Y-78880204D01*
X114869346Y-79014349D01*
X114379431Y-79245155D01*
X114328200Y-79274797D01*
X113984255Y-79477729D01*
X114723267Y-79845465D01*
X115126911Y-80053520D01*
X115386232Y-80211223D01*
X115492218Y-80324685D01*
X115435853Y-80400017D01*
X115208124Y-80443328D01*
X114800017Y-80460731D01*
X114375472Y-80459029D01*
X114375472Y-80352244D01*
X114761825Y-80344473D01*
X115066862Y-80326196D01*
X115244913Y-80297490D01*
X115270605Y-80272747D01*
X115154015Y-80193258D01*
X114898263Y-80068013D01*
X114554742Y-79921816D01*
X114491623Y-79896785D01*
X113770027Y-79613677D01*
X113198753Y-79912777D01*
X112892974Y-80075639D01*
X112747919Y-80170623D01*
X112744231Y-80223980D01*
X112862549Y-80261958D01*
X112930340Y-80276718D01*
X113185238Y-80311746D01*
X113541507Y-80335958D01*
X113953476Y-80349431D01*
X114375472Y-80352244D01*
X114375472Y-80459029D01*
X114202518Y-80458335D01*
X113829135Y-80451606D01*
X112115600Y-80416400D01*
X110947200Y-81224159D01*
X110521276Y-81520025D01*
X110157347Y-81775491D01*
X109887186Y-81968050D01*
X109742563Y-82075199D01*
X109728000Y-82087759D01*
X109606646Y-82165480D01*
X109344184Y-82305244D01*
X108984863Y-82485832D01*
X108572934Y-82686026D01*
X108152645Y-82884607D01*
X107768248Y-83060356D01*
X107463991Y-83192056D01*
X107289600Y-83257011D01*
X107060655Y-83329916D01*
X106736218Y-83449495D01*
X106288443Y-83626530D01*
X105689487Y-83871804D01*
X105511600Y-83945574D01*
X104971494Y-84179372D01*
X104545524Y-84395209D01*
X104188706Y-84627812D01*
X103856062Y-84911911D01*
X103502610Y-85282233D01*
X103083371Y-85773506D01*
X102976580Y-85902800D01*
X102696144Y-86283678D01*
X102437542Y-86707066D01*
X102214599Y-87139228D01*
X102041139Y-87546433D01*
X101930986Y-87894945D01*
X101897963Y-88151031D01*
X101955893Y-88280957D01*
X101998166Y-88290400D01*
X102143467Y-88243706D01*
X102370467Y-88130206D01*
X102389610Y-88119327D01*
X102598999Y-88015772D01*
X102767723Y-88007466D01*
X102996080Y-88094853D01*
X103054430Y-88122284D01*
X103316782Y-88228505D01*
X103520310Y-88235312D01*
X103781721Y-88145656D01*
X103792993Y-88140958D01*
X104149417Y-88021347D01*
X104410275Y-87991741D01*
X104539003Y-88054590D01*
X104546400Y-88090474D01*
X104631786Y-88207503D01*
X104823190Y-88294651D01*
X105023477Y-88317570D01*
X105023477Y-88551487D01*
X104706652Y-88547947D01*
X104483576Y-88444265D01*
X104299986Y-88340389D01*
X104143481Y-88326708D01*
X103923790Y-88403496D01*
X103827532Y-88446258D01*
X103564838Y-88551857D01*
X103376441Y-88565789D01*
X103155125Y-88487731D01*
X103061275Y-88443951D01*
X102806078Y-88336387D01*
X102633953Y-88324149D01*
X102449582Y-88405265D01*
X102406434Y-88430399D01*
X102074671Y-88575393D01*
X101841284Y-88553042D01*
X101711642Y-88410765D01*
X101660826Y-88111758D01*
X101757721Y-87678843D01*
X102002823Y-87110254D01*
X102162639Y-86807783D01*
X102367039Y-86435560D01*
X102547931Y-86101642D01*
X102669989Y-85871309D01*
X102679885Y-85852000D01*
X102812287Y-85650790D01*
X103037356Y-85363527D01*
X103307336Y-85051034D01*
X103318093Y-85039200D01*
X103595463Y-84710768D01*
X103722300Y-84480727D01*
X103687468Y-84332791D01*
X103479832Y-84250672D01*
X103088255Y-84218085D01*
X102754952Y-84215567D01*
X102270236Y-84203209D01*
X101937420Y-84153383D01*
X101707379Y-84058275D01*
X101687886Y-84045807D01*
X101309132Y-83722215D01*
X101007769Y-83327997D01*
X100833899Y-82931492D01*
X100819352Y-82861170D01*
X100766542Y-82649475D01*
X100658752Y-82508543D01*
X100640783Y-82498642D01*
X100640783Y-81951455D01*
X100633893Y-81859037D01*
X100564613Y-81686042D01*
X100450191Y-81481490D01*
X100380609Y-81381600D01*
X100188118Y-81127600D01*
X99700259Y-81321435D01*
X99276887Y-81455602D01*
X98869798Y-81497959D01*
X98824569Y-81492748D01*
X98824569Y-81100061D01*
X99317707Y-81001734D01*
X99592640Y-80890254D01*
X99935582Y-80713573D01*
X100136369Y-80552871D01*
X100246364Y-80362147D01*
X100272446Y-80281450D01*
X100461563Y-79861888D01*
X100761708Y-79444756D01*
X101106807Y-79117782D01*
X101191913Y-79060679D01*
X101471490Y-78890658D01*
X101316384Y-78404667D01*
X101105570Y-77963802D01*
X100771431Y-77616313D01*
X100288431Y-77342838D01*
X99631032Y-77124018D01*
X99625108Y-77122463D01*
X99154841Y-76984855D01*
X98676990Y-76821802D01*
X98293152Y-76668035D01*
X98285564Y-76664576D01*
X97967387Y-76503073D01*
X97800176Y-76365958D01*
X97741793Y-76214362D01*
X97739200Y-76160583D01*
X97810096Y-75911660D01*
X97926276Y-75773962D01*
X98124461Y-75576170D01*
X98234650Y-75412600D01*
X98370860Y-75238751D01*
X98480682Y-75184000D01*
X98612869Y-75101227D01*
X98705707Y-74955400D01*
X98796526Y-74820309D01*
X98956118Y-74744177D01*
X99241247Y-74705454D01*
X99387943Y-74696398D01*
X99806502Y-74645747D01*
X100051277Y-74542835D01*
X100100380Y-74493198D01*
X100370723Y-74247961D01*
X100763290Y-74087856D01*
X101312518Y-73999511D01*
X101387827Y-73993306D01*
X101756164Y-73968477D01*
X102055703Y-73953951D01*
X102209600Y-73952613D01*
X102369275Y-73959798D01*
X102683285Y-73971368D01*
X103102856Y-73985593D01*
X103479600Y-73997654D01*
X104153436Y-74035649D01*
X104754347Y-74102084D01*
X105245932Y-74191011D01*
X105591797Y-74296478D01*
X105710645Y-74362383D01*
X105881718Y-74445083D01*
X106109686Y-74515012D01*
X106383995Y-74624126D01*
X106687318Y-74803977D01*
X106743649Y-74845089D01*
X107015648Y-75001018D01*
X107241452Y-75040650D01*
X107374239Y-74961289D01*
X107391200Y-74882389D01*
X107486802Y-74819982D01*
X107754202Y-74787377D01*
X108164293Y-74783932D01*
X108687966Y-74809007D01*
X109296112Y-74861961D01*
X109931200Y-74938272D01*
X110563576Y-75013261D01*
X111281835Y-75081490D01*
X111971279Y-75132638D01*
X112268000Y-75148522D01*
X112826846Y-75161539D01*
X113312101Y-75139929D01*
X113776323Y-75073651D01*
X114272076Y-74952665D01*
X114851920Y-74766932D01*
X115504899Y-74530215D01*
X115813762Y-74440776D01*
X116071080Y-74410226D01*
X116139899Y-74418677D01*
X116408490Y-74494236D01*
X116518016Y-74524993D01*
X116670795Y-74512628D01*
X116703103Y-74397993D01*
X116709295Y-73912790D01*
X116740103Y-73590587D01*
X116804846Y-73391760D01*
X116912841Y-73276687D01*
X116974673Y-73243191D01*
X117210946Y-73135537D01*
X116922832Y-72827110D01*
X116721006Y-72567491D01*
X116586742Y-72316025D01*
X116572533Y-72270917D01*
X116582492Y-72012520D01*
X116743684Y-71774776D01*
X116882712Y-71603503D01*
X116872317Y-71532719D01*
X116822657Y-71526400D01*
X116638455Y-71456216D01*
X116500397Y-71340878D01*
X116428241Y-71272204D01*
X116338008Y-71231014D01*
X116197215Y-71219433D01*
X115973378Y-71239586D01*
X115634016Y-71293596D01*
X115146645Y-71383588D01*
X114782850Y-71453204D01*
X114184514Y-71576287D01*
X113600062Y-71710816D01*
X113084994Y-71843058D01*
X112694807Y-71959279D01*
X112596188Y-71994327D01*
X112142792Y-72152891D01*
X111817542Y-72221294D01*
X111567552Y-72201663D01*
X111339933Y-72096122D01*
X111267684Y-72047730D01*
X111010567Y-71891740D01*
X110794800Y-71795901D01*
X110607546Y-71756515D01*
X110264252Y-71699905D01*
X109810705Y-71632431D01*
X109292692Y-71560451D01*
X108756000Y-71490325D01*
X108246416Y-71428412D01*
X107809727Y-71381073D01*
X107804238Y-71380533D01*
X107477566Y-71332764D01*
X107232518Y-71268414D01*
X107151336Y-71225577D01*
X106996177Y-71181198D01*
X106941497Y-71205659D01*
X106614908Y-71392222D01*
X106165611Y-71579830D01*
X105750375Y-71715998D01*
X105750375Y-71447408D01*
X105962792Y-71377860D01*
X106234134Y-71247940D01*
X106558824Y-71104538D01*
X106603800Y-71085663D01*
X106885909Y-70935588D01*
X106979836Y-70802761D01*
X106880053Y-70696081D01*
X106852792Y-70684684D01*
X106703315Y-70699079D01*
X106463828Y-70791429D01*
X106182420Y-70933669D01*
X105907178Y-71097736D01*
X105686190Y-71255563D01*
X105567546Y-71379087D01*
X105573198Y-71431474D01*
X105750375Y-71447408D01*
X105750375Y-71715998D01*
X105672176Y-71741642D01*
X105213174Y-71850818D01*
X104964189Y-71881146D01*
X104325312Y-71989688D01*
X103835200Y-72172968D01*
X103390942Y-72362034D01*
X103095391Y-72432812D01*
X102933878Y-72387841D01*
X102902227Y-72334283D01*
X102795948Y-72312674D01*
X102546370Y-72380368D01*
X102275845Y-72489080D01*
X101882005Y-72642629D01*
X101560759Y-72705462D01*
X101212917Y-72695399D01*
X101159884Y-72689586D01*
X100814938Y-72637913D01*
X100527935Y-72574852D01*
X100431600Y-72543295D01*
X99852806Y-72290336D01*
X99456289Y-72094232D01*
X99231075Y-71949030D01*
X99165764Y-71856600D01*
X99207275Y-71754402D01*
X99355716Y-71748181D01*
X99632322Y-71842423D01*
X100058328Y-72041616D01*
X100070602Y-72047742D01*
X100440365Y-72220172D01*
X100721481Y-72307082D01*
X101000033Y-72326681D01*
X101287726Y-72305213D01*
X101669980Y-72243215D01*
X102015775Y-72150640D01*
X102165896Y-72089398D01*
X102556152Y-71982241D01*
X102783163Y-71993639D01*
X103170262Y-71975565D01*
X103348097Y-71892251D01*
X103620603Y-71752238D01*
X103970641Y-71621590D01*
X104327951Y-71520971D01*
X104622271Y-71471047D01*
X104755975Y-71478168D01*
X104929354Y-71441954D01*
X105129829Y-71280564D01*
X105136303Y-71273209D01*
X105330226Y-71096907D01*
X105496695Y-71018634D01*
X105503132Y-71018400D01*
X105670797Y-70956869D01*
X105900352Y-70804845D01*
X105950271Y-70764400D01*
X106171868Y-70600124D01*
X106339366Y-70514099D01*
X106362530Y-70510400D01*
X106482991Y-70418349D01*
X106542948Y-70163739D01*
X106539467Y-69778883D01*
X106471778Y-69306989D01*
X106397917Y-68846350D01*
X106346520Y-68362700D01*
X106331351Y-68063817D01*
X106324400Y-67496833D01*
X104749600Y-67499199D01*
X103996610Y-67491600D01*
X103299552Y-67463100D01*
X102607004Y-67408748D01*
X101867550Y-67323591D01*
X101029769Y-67202677D01*
X100106824Y-67052017D01*
X99588270Y-66968635D01*
X99218022Y-66923913D01*
X98945252Y-66916073D01*
X98719132Y-66943336D01*
X98513982Y-66996270D01*
X97893293Y-67266954D01*
X97437938Y-67655598D01*
X97233493Y-67965906D01*
X97050146Y-68229438D01*
X96841835Y-68393256D01*
X96655581Y-68429789D01*
X96560678Y-68360424D01*
X96593967Y-68262667D01*
X96717570Y-68204511D01*
X96897908Y-68082262D01*
X97084514Y-67845734D01*
X97136200Y-67754263D01*
X97462962Y-67326193D01*
X97950147Y-66979627D01*
X98563147Y-66739021D01*
X98578608Y-66734887D01*
X98768296Y-66694103D01*
X98983924Y-66671670D01*
X99256532Y-66668900D01*
X99617162Y-66687107D01*
X100096858Y-66727603D01*
X100726660Y-66791701D01*
X101237528Y-66847339D01*
X102504902Y-66967093D01*
X103599836Y-67025546D01*
X104543561Y-67022883D01*
X105357312Y-66959289D01*
X105816400Y-66887333D01*
X106064181Y-66861692D01*
X106440588Y-66847348D01*
X106871232Y-66846874D01*
X106944281Y-66848353D01*
X107508856Y-66831678D01*
X108080721Y-66747237D01*
X108702005Y-66584230D01*
X109414836Y-66331857D01*
X110157152Y-66024737D01*
X110687473Y-65809356D01*
X111104669Y-65687461D01*
X111473224Y-65653820D01*
X111857623Y-65703200D01*
X112322351Y-65830370D01*
X112369600Y-65845224D01*
X112804275Y-65965840D01*
X113332691Y-66088418D01*
X113847157Y-66188172D01*
X113892053Y-66195669D01*
X114754106Y-66337111D01*
X115015212Y-66086956D01*
X115258104Y-65915656D01*
X115495678Y-65837307D01*
X115511181Y-65836800D01*
X115636704Y-65826687D01*
X115657327Y-65772045D01*
X115561169Y-65636421D01*
X115378622Y-65430108D01*
X115107882Y-65061329D01*
X115023880Y-64748612D01*
X115125071Y-64471601D01*
X115292728Y-64298302D01*
X115574256Y-64065149D01*
X115275794Y-63798474D01*
X115044630Y-63483930D01*
X114975197Y-63132463D01*
X115074347Y-62802044D01*
X115146666Y-62705912D01*
X115276529Y-62537860D01*
X115316000Y-62450600D01*
X115220638Y-62414170D01*
X114958399Y-62392181D01*
X114565050Y-62384073D01*
X114076357Y-62389280D01*
X113528089Y-62407241D01*
X112956013Y-62437393D01*
X112395896Y-62479171D01*
X112172353Y-62500096D01*
X111644835Y-62565618D01*
X111151984Y-62649362D01*
X110755212Y-62739757D01*
X110560154Y-62803877D01*
X110284167Y-62912215D01*
X110095725Y-62935756D01*
X109896489Y-62871778D01*
X109711527Y-62780397D01*
X109319180Y-62607759D01*
X108795783Y-62415306D01*
X108209028Y-62225567D01*
X107626604Y-62061069D01*
X107340400Y-61991272D01*
X107038272Y-61935526D01*
X106631164Y-61877670D01*
X106163349Y-61821899D01*
X105679103Y-61772409D01*
X105222701Y-61733394D01*
X104838418Y-61709051D01*
X104570528Y-61703574D01*
X104464925Y-61718808D01*
X104501933Y-61765176D01*
X104605666Y-61779240D01*
X104802121Y-61826562D01*
X105124854Y-61963547D01*
X105586498Y-62196364D01*
X106199691Y-62531184D01*
X106545393Y-62726426D01*
X107058926Y-63037767D01*
X107431988Y-63304634D01*
X107647661Y-63513855D01*
X107696000Y-63622352D01*
X107625293Y-63618401D01*
X107454726Y-63530733D01*
X107246629Y-63398044D01*
X107063329Y-63259029D01*
X106984800Y-63180817D01*
X106854997Y-63088791D01*
X106581422Y-62938108D01*
X106207366Y-62749463D01*
X105776120Y-62543554D01*
X105330976Y-62341078D01*
X104915225Y-62162731D01*
X104587567Y-62034738D01*
X104222123Y-61919232D01*
X103816141Y-61816114D01*
X103416185Y-61733745D01*
X103068819Y-61680487D01*
X102820608Y-61664701D01*
X102718114Y-61694748D01*
X102717600Y-61698949D01*
X102800664Y-61771366D01*
X103012411Y-61893997D01*
X103166173Y-61971825D01*
X103411033Y-62119160D01*
X103717416Y-62343369D01*
X104044000Y-62608678D01*
X104349464Y-62879315D01*
X104592486Y-63119508D01*
X104731744Y-63293485D01*
X104749600Y-63342600D01*
X104679943Y-63322397D01*
X104496344Y-63194207D01*
X104236855Y-62984906D01*
X104206290Y-62958920D01*
X103404666Y-62375113D01*
X102571623Y-61958346D01*
X102217491Y-61837373D01*
X101909608Y-61788001D01*
X101448557Y-61764731D01*
X100882458Y-61765853D01*
X100259430Y-61789658D01*
X99627594Y-61834439D01*
X99035069Y-61898487D01*
X98604374Y-61965658D01*
X98325764Y-62002203D01*
X98076600Y-61987364D01*
X97827443Y-61904335D01*
X97548858Y-61736307D01*
X97211405Y-61466474D01*
X96785647Y-61078028D01*
X96398145Y-60706000D01*
X95876531Y-60205950D01*
X95463036Y-59828630D01*
X95125140Y-59550103D01*
X94830325Y-59346435D01*
X94546071Y-59193687D01*
X94239860Y-59067924D01*
X94110345Y-59022013D01*
X93546633Y-58885569D01*
X92912493Y-58823734D01*
X92277642Y-58836250D01*
X91711795Y-58922858D01*
X91383623Y-59032141D01*
X91040761Y-59171506D01*
X90715950Y-59277208D01*
X90620847Y-59300111D01*
X90426679Y-59367506D01*
X90395159Y-59447271D01*
X90400006Y-59452647D01*
X90539267Y-59473539D01*
X90831812Y-59442113D01*
X91235996Y-59363426D01*
X91346156Y-59337789D01*
X92338768Y-59164986D01*
X93207259Y-59152490D01*
X93952580Y-59300455D01*
X94575677Y-59609039D01*
X94947125Y-59928603D01*
X95162525Y-60126434D01*
X95340649Y-60238971D01*
X95382666Y-60248800D01*
X95467130Y-60305314D01*
X95453199Y-60350400D01*
X95475632Y-60437870D01*
X95545615Y-60452000D01*
X95653685Y-60517328D01*
X95642341Y-60604400D01*
X95659867Y-60732019D01*
X95772529Y-60758356D01*
X95897057Y-60775170D01*
X95831135Y-60843726D01*
X95808800Y-60858400D01*
X95707626Y-60939592D01*
X95784174Y-60968104D01*
X95808800Y-60970476D01*
X95994304Y-60975696D01*
X96037400Y-60972032D01*
X96111199Y-61036712D01*
X96113600Y-61061600D01*
X96036284Y-61160248D01*
X96012000Y-61163200D01*
X95913352Y-61240516D01*
X95910400Y-61264800D01*
X95996615Y-61345498D01*
X96139000Y-61370001D01*
X96290642Y-61378787D01*
X96275275Y-61420442D01*
X96113700Y-61514115D01*
X95859801Y-61654630D01*
X96164500Y-61722602D01*
X96465929Y-61794690D01*
X96579982Y-61837924D01*
X96519174Y-61859975D01*
X96398996Y-61866379D01*
X96141595Y-61908468D01*
X96066024Y-61987030D01*
X96174484Y-62061107D01*
X96387003Y-62089386D01*
X96582203Y-62106763D01*
X96611233Y-62136651D01*
X96570800Y-62150048D01*
X96355125Y-62229254D01*
X96257455Y-62315781D01*
X96305820Y-62374451D01*
X96385639Y-62382400D01*
X96622497Y-62454413D01*
X96727345Y-62539795D01*
X96795975Y-62649385D01*
X96711117Y-62667801D01*
X96603242Y-62650999D01*
X96352116Y-62648782D01*
X96205657Y-62695248D01*
X96126106Y-62767800D01*
X96237402Y-62787214D01*
X96240600Y-62787245D01*
X96391344Y-62841580D01*
X96418400Y-62901271D01*
X96344349Y-62968818D01*
X96264154Y-62954551D01*
X96106412Y-62992678D01*
X95859172Y-63167071D01*
X95551048Y-63448645D01*
X95210650Y-63808317D01*
X94866594Y-64217004D01*
X94547491Y-64645623D01*
X94434309Y-64814492D01*
X94134895Y-65311140D01*
X93811285Y-65904564D01*
X93485558Y-66548284D01*
X93179796Y-67195818D01*
X92916078Y-67800685D01*
X92716485Y-68316405D01*
X92615283Y-68643681D01*
X92539331Y-69071840D01*
X92478902Y-69649098D01*
X92435791Y-70321820D01*
X92411793Y-71036367D01*
X92408704Y-71739104D01*
X92428320Y-72376394D01*
X92472435Y-72894601D01*
X92472876Y-72898000D01*
X92550120Y-73378691D01*
X92652290Y-73867105D01*
X92757685Y-74259870D01*
X92760835Y-74269600D01*
X92881831Y-74708419D01*
X92980640Y-75183234D01*
X93010648Y-75383054D01*
X93049375Y-75641349D01*
X93107994Y-75900291D01*
X93198658Y-76194239D01*
X93333521Y-76557551D01*
X93524736Y-77024588D01*
X93784455Y-77629706D01*
X93894954Y-77883142D01*
X94235199Y-78599569D01*
X94567690Y-79153263D01*
X94922445Y-79581151D01*
X95329481Y-79920159D01*
X95759424Y-80176722D01*
X96171366Y-80369387D01*
X96584073Y-80526550D01*
X96911835Y-80615788D01*
X96926400Y-80618191D01*
X97304972Y-80701154D01*
X97668920Y-80816892D01*
X97739200Y-80845666D01*
X98318588Y-81048524D01*
X98824569Y-81100061D01*
X98824569Y-81492748D01*
X98419887Y-81446118D01*
X97868049Y-81297691D01*
X97692618Y-81240312D01*
X97296908Y-81115571D01*
X96954966Y-81022376D01*
X96728264Y-80977112D01*
X96697939Y-80975200D01*
X96568674Y-80985809D01*
X96591791Y-81042869D01*
X96734898Y-81154554D01*
X97228371Y-81484549D01*
X97672519Y-81685001D01*
X98148422Y-81782202D01*
X98732865Y-81802506D01*
X99142813Y-81808020D01*
X99479463Y-81833003D01*
X99687519Y-81872616D01*
X99719508Y-81888861D01*
X99914994Y-81936266D01*
X100149829Y-81897565D01*
X100439347Y-81861120D01*
X100568035Y-81914276D01*
X100640783Y-81951455D01*
X100640783Y-82498642D01*
X100443825Y-82390107D01*
X100211032Y-82298228D01*
X99882324Y-82191733D01*
X99572561Y-82139616D01*
X99203189Y-82133950D01*
X98814633Y-82157333D01*
X98340203Y-82182794D01*
X98012001Y-82169388D01*
X97776020Y-82112840D01*
X97676109Y-82067250D01*
X97390137Y-81915283D01*
X97057698Y-81738203D01*
X96994696Y-81704592D01*
X96728001Y-81534527D01*
X96382219Y-81276760D01*
X96026133Y-80982964D01*
X95978696Y-80941298D01*
X95490188Y-80513151D01*
X95125132Y-80205566D01*
X94859334Y-79999494D01*
X94668603Y-79875887D01*
X94563452Y-79826994D01*
X94427764Y-79712798D01*
X94231603Y-79474610D01*
X94011637Y-79166915D01*
X93804535Y-78844198D01*
X93646966Y-78560945D01*
X93575597Y-78371640D01*
X93574565Y-78357622D01*
X93529147Y-78162382D01*
X93481474Y-78052822D01*
X93331484Y-77726978D01*
X93146294Y-77268636D01*
X92948878Y-76739993D01*
X92762209Y-76203245D01*
X92609261Y-75720590D01*
X92571933Y-75590400D01*
X92351132Y-74679055D01*
X92195427Y-73753245D01*
X92098588Y-72759434D01*
X92054386Y-71644087D01*
X92050008Y-71105303D01*
X92056526Y-70324163D01*
X92084131Y-69693224D01*
X92144301Y-69159712D01*
X92248518Y-68670855D01*
X92408259Y-68173879D01*
X92635005Y-67616013D01*
X92940234Y-66944484D01*
X92968014Y-66885069D01*
X93416497Y-65971522D01*
X93844100Y-65201109D01*
X94282449Y-64520664D01*
X94739816Y-63906400D01*
X95141289Y-63387121D01*
X95423506Y-62982565D01*
X95603157Y-62656430D01*
X95696934Y-62372414D01*
X95721528Y-62094215D01*
X95698614Y-61821069D01*
X95550000Y-61252047D01*
X95276339Y-60660466D01*
X94921176Y-60137204D01*
X94855252Y-60060944D01*
X94394319Y-59692083D01*
X93797614Y-59438769D01*
X93106625Y-59317208D01*
X92931331Y-59309438D01*
X92503324Y-59332423D01*
X91946926Y-59406063D01*
X91326743Y-59517430D01*
X90707380Y-59653595D01*
X90153441Y-59801632D01*
X89729533Y-59948613D01*
X89722744Y-59951487D01*
X89487689Y-60001196D01*
X89384905Y-59961546D01*
X89411589Y-59889716D01*
X89615832Y-59822982D01*
X89753593Y-59798412D01*
X90045293Y-59734420D01*
X90245051Y-59653330D01*
X90284332Y-59618599D01*
X90295334Y-59561551D01*
X90212693Y-59550883D01*
X90008835Y-59591246D01*
X89814400Y-59644199D01*
X89814400Y-59537600D01*
X89898028Y-59500427D01*
X89882133Y-59469867D01*
X89761557Y-59457708D01*
X89746666Y-59469867D01*
X89760613Y-59530268D01*
X89814400Y-59537600D01*
X89814400Y-59644199D01*
X89656185Y-59687288D01*
X89357200Y-59774911D01*
X89118262Y-59857900D01*
X89025703Y-59916450D01*
X89071803Y-59934916D01*
X89275337Y-59981455D01*
X89353662Y-60039877D01*
X89307913Y-60136139D01*
X89135326Y-60281424D01*
X88893458Y-60439376D01*
X88639863Y-60573638D01*
X88432096Y-60647856D01*
X88383073Y-60652969D01*
X88378071Y-60616175D01*
X88525438Y-60524936D01*
D10*
G04 #@! TO.C,L3*
X115366000Y-71560000D02*
X115366000Y-60060000D01*
X114716000Y-72210000D02*
X111966000Y-72210000D01*
X102566000Y-60060000D02*
X102566000Y-71560000D01*
X114716000Y-59410000D02*
X111966000Y-59410000D01*
X105966000Y-72210000D02*
X103216000Y-72210000D01*
X105966000Y-59410000D02*
X103216000Y-59410000D01*
X114716000Y-72210000D02*
G75*
G03X115366000Y-71560000I0J650000D01*
G01*
X102566000Y-71560000D02*
G75*
G03X103216000Y-72210000I650000J0D01*
G01*
X103216000Y-59410000D02*
G75*
G03X102566000Y-60060000I0J-650000D01*
G01*
X115366000Y-60060000D02*
G75*
G03X114716000Y-59410000I-650000J0D01*
G01*
G04 #@! TO.C,L4*
X128574000Y-60060000D02*
G75*
G03X127924000Y-59410000I-650000J0D01*
G01*
X116424000Y-59410000D02*
G75*
G03X115774000Y-60060000I0J-650000D01*
G01*
X115774000Y-71560000D02*
G75*
G03X116424000Y-72210000I650000J0D01*
G01*
X127924000Y-72210000D02*
G75*
G03X128574000Y-71560000I0J650000D01*
G01*
X119174000Y-59410000D02*
X116424000Y-59410000D01*
X119174000Y-72210000D02*
X116424000Y-72210000D01*
X127924000Y-59410000D02*
X125174000Y-59410000D01*
X115774000Y-60060000D02*
X115774000Y-71560000D01*
X127924000Y-72210000D02*
X125174000Y-72210000D01*
X128574000Y-71560000D02*
X128574000Y-60060000D01*
G04 #@! TO.C,L5*
X141782000Y-71560000D02*
X141782000Y-60060000D01*
X141132000Y-72210000D02*
X138382000Y-72210000D01*
X128982000Y-60060000D02*
X128982000Y-71560000D01*
X141132000Y-59410000D02*
X138382000Y-59410000D01*
X132382000Y-72210000D02*
X129632000Y-72210000D01*
X132382000Y-59410000D02*
X129632000Y-59410000D01*
X141132000Y-72210000D02*
G75*
G03X141782000Y-71560000I0J650000D01*
G01*
X128982000Y-71560000D02*
G75*
G03X129632000Y-72210000I650000J0D01*
G01*
X129632000Y-59410000D02*
G75*
G03X128982000Y-60060000I0J-650000D01*
G01*
X141782000Y-60060000D02*
G75*
G03X141132000Y-59410000I-650000J0D01*
G01*
G04 #@! TO.C,C1*
D11*
X128681666Y-84303142D02*
X128729285Y-84350761D01*
X128872142Y-84398380D01*
X128967380Y-84398380D01*
X129110238Y-84350761D01*
X129205476Y-84255523D01*
X129253095Y-84160285D01*
X129300714Y-83969809D01*
X129300714Y-83826952D01*
X129253095Y-83636476D01*
X129205476Y-83541238D01*
X129110238Y-83446000D01*
X128967380Y-83398380D01*
X128872142Y-83398380D01*
X128729285Y-83446000D01*
X128681666Y-83493619D01*
X127729285Y-84398380D02*
X128300714Y-84398380D01*
X128015000Y-84398380D02*
X128015000Y-83398380D01*
X128110238Y-83541238D01*
X128205476Y-83636476D01*
X128300714Y-83684095D01*
G04 #@! TO.C,C2*
X123927142Y-88733333D02*
X123974761Y-88685714D01*
X124022380Y-88542857D01*
X124022380Y-88447619D01*
X123974761Y-88304761D01*
X123879523Y-88209523D01*
X123784285Y-88161904D01*
X123593809Y-88114285D01*
X123450952Y-88114285D01*
X123260476Y-88161904D01*
X123165238Y-88209523D01*
X123070000Y-88304761D01*
X123022380Y-88447619D01*
X123022380Y-88542857D01*
X123070000Y-88685714D01*
X123117619Y-88733333D01*
X123117619Y-89114285D02*
X123070000Y-89161904D01*
X123022380Y-89257142D01*
X123022380Y-89495238D01*
X123070000Y-89590476D01*
X123117619Y-89638095D01*
X123212857Y-89685714D01*
X123308095Y-89685714D01*
X123450952Y-89638095D01*
X124022380Y-89066666D01*
X124022380Y-89685714D01*
G04 #@! TO.C,C9*
X120562666Y-79605142D02*
X120610285Y-79652761D01*
X120753142Y-79700380D01*
X120848380Y-79700380D01*
X120991238Y-79652761D01*
X121086476Y-79557523D01*
X121134095Y-79462285D01*
X121181714Y-79271809D01*
X121181714Y-79128952D01*
X121134095Y-78938476D01*
X121086476Y-78843238D01*
X120991238Y-78748000D01*
X120848380Y-78700380D01*
X120753142Y-78700380D01*
X120610285Y-78748000D01*
X120562666Y-78795619D01*
X120086476Y-79700380D02*
X119896000Y-79700380D01*
X119800761Y-79652761D01*
X119753142Y-79605142D01*
X119657904Y-79462285D01*
X119610285Y-79271809D01*
X119610285Y-78890857D01*
X119657904Y-78795619D01*
X119705523Y-78748000D01*
X119800761Y-78700380D01*
X119991238Y-78700380D01*
X120086476Y-78748000D01*
X120134095Y-78795619D01*
X120181714Y-78890857D01*
X120181714Y-79128952D01*
X120134095Y-79224190D01*
X120086476Y-79271809D01*
X119991238Y-79319428D01*
X119800761Y-79319428D01*
X119705523Y-79271809D01*
X119657904Y-79224190D01*
X119610285Y-79128952D01*
G04 #@! TO.C,C10*
X119103142Y-77598142D02*
X119150761Y-77550523D01*
X119198380Y-77407666D01*
X119198380Y-77312428D01*
X119150761Y-77169571D01*
X119055523Y-77074333D01*
X118960285Y-77026714D01*
X118769809Y-76979095D01*
X118626952Y-76979095D01*
X118436476Y-77026714D01*
X118341238Y-77074333D01*
X118246000Y-77169571D01*
X118198380Y-77312428D01*
X118198380Y-77407666D01*
X118246000Y-77550523D01*
X118293619Y-77598142D01*
X119198380Y-78550523D02*
X119198380Y-77979095D01*
X119198380Y-78264809D02*
X118198380Y-78264809D01*
X118341238Y-78169571D01*
X118436476Y-78074333D01*
X118484095Y-77979095D01*
X118198380Y-79169571D02*
X118198380Y-79264809D01*
X118246000Y-79360047D01*
X118293619Y-79407666D01*
X118388857Y-79455285D01*
X118579333Y-79502904D01*
X118817428Y-79502904D01*
X119007904Y-79455285D01*
X119103142Y-79407666D01*
X119150761Y-79360047D01*
X119198380Y-79264809D01*
X119198380Y-79169571D01*
X119150761Y-79074333D01*
X119103142Y-79026714D01*
X119007904Y-78979095D01*
X118817428Y-78931476D01*
X118579333Y-78931476D01*
X118388857Y-78979095D01*
X118293619Y-79026714D01*
X118246000Y-79074333D01*
X118198380Y-79169571D01*
G04 #@! TO.C,JP1*
X117816380Y-81462666D02*
X118530666Y-81462666D01*
X118673523Y-81415047D01*
X118768761Y-81319809D01*
X118816380Y-81176952D01*
X118816380Y-81081714D01*
X118816380Y-81938857D02*
X117816380Y-81938857D01*
X117816380Y-82319809D01*
X117864000Y-82415047D01*
X117911619Y-82462666D01*
X118006857Y-82510285D01*
X118149714Y-82510285D01*
X118244952Y-82462666D01*
X118292571Y-82415047D01*
X118340190Y-82319809D01*
X118340190Y-81938857D01*
X118816380Y-83462666D02*
X118816380Y-82891238D01*
X118816380Y-83176952D02*
X117816380Y-83176952D01*
X117959238Y-83081714D01*
X118054476Y-82986476D01*
X118102095Y-82891238D01*
G04 #@! TO.C,L1*
X126150666Y-80335380D02*
X126626857Y-80335380D01*
X126626857Y-79335380D01*
X125293523Y-80335380D02*
X125864952Y-80335380D01*
X125579238Y-80335380D02*
X125579238Y-79335380D01*
X125674476Y-79478238D01*
X125769714Y-79573476D01*
X125864952Y-79621095D01*
G04 #@! TO.C,L2*
X120721380Y-88604333D02*
X120721380Y-88128142D01*
X119721380Y-88128142D01*
X119816619Y-88890047D02*
X119769000Y-88937666D01*
X119721380Y-89032904D01*
X119721380Y-89271000D01*
X119769000Y-89366238D01*
X119816619Y-89413857D01*
X119911857Y-89461476D01*
X120007095Y-89461476D01*
X120149952Y-89413857D01*
X120721380Y-88842428D01*
X120721380Y-89461476D01*
G04 #@! TO.C,Q1*
X135069619Y-76544761D02*
X135022000Y-76449523D01*
X134926761Y-76354285D01*
X134783904Y-76211428D01*
X134736285Y-76116190D01*
X134736285Y-76020952D01*
X134974380Y-76068571D02*
X134926761Y-75973333D01*
X134831523Y-75878095D01*
X134641047Y-75830476D01*
X134307714Y-75830476D01*
X134117238Y-75878095D01*
X134022000Y-75973333D01*
X133974380Y-76068571D01*
X133974380Y-76259047D01*
X134022000Y-76354285D01*
X134117238Y-76449523D01*
X134307714Y-76497142D01*
X134641047Y-76497142D01*
X134831523Y-76449523D01*
X134926761Y-76354285D01*
X134974380Y-76259047D01*
X134974380Y-76068571D01*
X134974380Y-77449523D02*
X134974380Y-76878095D01*
X134974380Y-77163809D02*
X133974380Y-77163809D01*
X134117238Y-77068571D01*
X134212476Y-76973333D01*
X134260095Y-76878095D01*
G04 #@! TO.C,R1*
X122299828Y-76106652D02*
X121823638Y-75773319D01*
X122299828Y-75535223D02*
X121299828Y-75535223D01*
X121299828Y-75916176D01*
X121347448Y-76011414D01*
X121395067Y-76059033D01*
X121490305Y-76106652D01*
X121633162Y-76106652D01*
X121728400Y-76059033D01*
X121776019Y-76011414D01*
X121823638Y-75916176D01*
X121823638Y-75535223D01*
X122299828Y-77059033D02*
X122299828Y-76487604D01*
X122299828Y-76773319D02*
X121299828Y-76773319D01*
X121442686Y-76678080D01*
X121537924Y-76582842D01*
X121585543Y-76487604D01*
G04 #@! TO.C,R2*
X119591114Y-77368699D02*
X119924448Y-76892509D01*
X120162543Y-77368699D02*
X120162543Y-76368699D01*
X119781590Y-76368699D01*
X119686352Y-76416319D01*
X119638733Y-76463938D01*
X119591114Y-76559176D01*
X119591114Y-76702033D01*
X119638733Y-76797271D01*
X119686352Y-76844890D01*
X119781590Y-76892509D01*
X120162543Y-76892509D01*
X119210162Y-76463938D02*
X119162543Y-76416319D01*
X119067305Y-76368699D01*
X118829209Y-76368699D01*
X118733971Y-76416319D01*
X118686352Y-76463938D01*
X118638733Y-76559176D01*
X118638733Y-76654414D01*
X118686352Y-76797271D01*
X119257781Y-77368699D01*
X118638733Y-77368699D01*
G04 #@! TO.C,U5*
X130195352Y-72107699D02*
X130195352Y-72917223D01*
X130147733Y-73012461D01*
X130100114Y-73060080D01*
X130004876Y-73107699D01*
X129814400Y-73107699D01*
X129719162Y-73060080D01*
X129671543Y-73012461D01*
X129623924Y-72917223D01*
X129623924Y-72107699D01*
X128671543Y-72107699D02*
X129147733Y-72107699D01*
X129195352Y-72583890D01*
X129147733Y-72536271D01*
X129052495Y-72488652D01*
X128814400Y-72488652D01*
X128719162Y-72536271D01*
X128671543Y-72583890D01*
X128623924Y-72679128D01*
X128623924Y-72917223D01*
X128671543Y-73012461D01*
X128719162Y-73060080D01*
X128814400Y-73107699D01*
X129052495Y-73107699D01*
X129147733Y-73060080D01*
X129195352Y-73012461D01*
G04 #@! TO.C,L3*
X116668380Y-65643333D02*
X116668380Y-65167142D01*
X115668380Y-65167142D01*
X115668380Y-65881428D02*
X115668380Y-66500476D01*
X116049333Y-66167142D01*
X116049333Y-66310000D01*
X116096952Y-66405238D01*
X116144571Y-66452857D01*
X116239809Y-66500476D01*
X116477904Y-66500476D01*
X116573142Y-66452857D01*
X116620761Y-66405238D01*
X116668380Y-66310000D01*
X116668380Y-66024285D01*
X116620761Y-65929047D01*
X116573142Y-65881428D01*
G04 #@! TO.C,L4*
X129876380Y-65643333D02*
X129876380Y-65167142D01*
X128876380Y-65167142D01*
X129209714Y-66405238D02*
X129876380Y-66405238D01*
X128828761Y-66167142D02*
X129543047Y-65929047D01*
X129543047Y-66548095D01*
G04 #@! TO.C,L5*
X143084380Y-65643333D02*
X143084380Y-65167142D01*
X142084380Y-65167142D01*
X142084380Y-66452857D02*
X142084380Y-65976666D01*
X142560571Y-65929047D01*
X142512952Y-65976666D01*
X142465333Y-66071904D01*
X142465333Y-66310000D01*
X142512952Y-66405238D01*
X142560571Y-66452857D01*
X142655809Y-66500476D01*
X142893904Y-66500476D01*
X142989142Y-66452857D01*
X143036761Y-66405238D01*
X143084380Y-66310000D01*
X143084380Y-66071904D01*
X143036761Y-65976666D01*
X142989142Y-65929047D01*
G04 #@! TD*
M02*
