G04 #@! TF.GenerationSoftware,KiCad,Pcbnew,5.0.1*
G04 #@! TF.CreationDate,2019-02-04T14:07:25-06:00*
G04 #@! TF.ProjectId,PowerRDP,506F7765725244502E6B696361645F70,2*
G04 #@! TF.SameCoordinates,Original*
G04 #@! TF.FileFunction,Paste,Top*
G04 #@! TF.FilePolarity,Positive*
%FSLAX46Y46*%
G04 Gerber Fmt 4.6, Leading zero omitted, Abs format (unit mm)*
G04 Created by KiCad (PCBNEW 5.0.1) date Mon 04 Feb 2019 02:07:25 PM CST*
%MOMM*%
%LPD*%
G01*
G04 APERTURE LIST*
%ADD10C,0.100000*%
%ADD11C,1.150000*%
%ADD12R,1.300000X1.600000*%
%ADD13R,2.000000X1.600000*%
%ADD14R,5.250000X4.550000*%
%ADD15R,1.100000X4.600000*%
%ADD16R,1.200000X0.900000*%
G04 APERTURE END LIST*
D10*
G04 #@! TO.C,C3*
G36*
X115790505Y-62418204D02*
X115814773Y-62421804D01*
X115838572Y-62427765D01*
X115861671Y-62436030D01*
X115883850Y-62446520D01*
X115904893Y-62459132D01*
X115924599Y-62473747D01*
X115942777Y-62490223D01*
X115959253Y-62508401D01*
X115973868Y-62528107D01*
X115986480Y-62549150D01*
X115996970Y-62571329D01*
X116005235Y-62594428D01*
X116011196Y-62618227D01*
X116014796Y-62642495D01*
X116016000Y-62666999D01*
X116016000Y-63317001D01*
X116014796Y-63341505D01*
X116011196Y-63365773D01*
X116005235Y-63389572D01*
X115996970Y-63412671D01*
X115986480Y-63434850D01*
X115973868Y-63455893D01*
X115959253Y-63475599D01*
X115942777Y-63493777D01*
X115924599Y-63510253D01*
X115904893Y-63524868D01*
X115883850Y-63537480D01*
X115861671Y-63547970D01*
X115838572Y-63556235D01*
X115814773Y-63562196D01*
X115790505Y-63565796D01*
X115766001Y-63567000D01*
X114865999Y-63567000D01*
X114841495Y-63565796D01*
X114817227Y-63562196D01*
X114793428Y-63556235D01*
X114770329Y-63547970D01*
X114748150Y-63537480D01*
X114727107Y-63524868D01*
X114707401Y-63510253D01*
X114689223Y-63493777D01*
X114672747Y-63475599D01*
X114658132Y-63455893D01*
X114645520Y-63434850D01*
X114635030Y-63412671D01*
X114626765Y-63389572D01*
X114620804Y-63365773D01*
X114617204Y-63341505D01*
X114616000Y-63317001D01*
X114616000Y-62666999D01*
X114617204Y-62642495D01*
X114620804Y-62618227D01*
X114626765Y-62594428D01*
X114635030Y-62571329D01*
X114645520Y-62549150D01*
X114658132Y-62528107D01*
X114672747Y-62508401D01*
X114689223Y-62490223D01*
X114707401Y-62473747D01*
X114727107Y-62459132D01*
X114748150Y-62446520D01*
X114770329Y-62436030D01*
X114793428Y-62427765D01*
X114817227Y-62421804D01*
X114841495Y-62418204D01*
X114865999Y-62417000D01*
X115766001Y-62417000D01*
X115790505Y-62418204D01*
X115790505Y-62418204D01*
G37*
D11*
X115316000Y-62992000D03*
D10*
G36*
X115790505Y-60368204D02*
X115814773Y-60371804D01*
X115838572Y-60377765D01*
X115861671Y-60386030D01*
X115883850Y-60396520D01*
X115904893Y-60409132D01*
X115924599Y-60423747D01*
X115942777Y-60440223D01*
X115959253Y-60458401D01*
X115973868Y-60478107D01*
X115986480Y-60499150D01*
X115996970Y-60521329D01*
X116005235Y-60544428D01*
X116011196Y-60568227D01*
X116014796Y-60592495D01*
X116016000Y-60616999D01*
X116016000Y-61267001D01*
X116014796Y-61291505D01*
X116011196Y-61315773D01*
X116005235Y-61339572D01*
X115996970Y-61362671D01*
X115986480Y-61384850D01*
X115973868Y-61405893D01*
X115959253Y-61425599D01*
X115942777Y-61443777D01*
X115924599Y-61460253D01*
X115904893Y-61474868D01*
X115883850Y-61487480D01*
X115861671Y-61497970D01*
X115838572Y-61506235D01*
X115814773Y-61512196D01*
X115790505Y-61515796D01*
X115766001Y-61517000D01*
X114865999Y-61517000D01*
X114841495Y-61515796D01*
X114817227Y-61512196D01*
X114793428Y-61506235D01*
X114770329Y-61497970D01*
X114748150Y-61487480D01*
X114727107Y-61474868D01*
X114707401Y-61460253D01*
X114689223Y-61443777D01*
X114672747Y-61425599D01*
X114658132Y-61405893D01*
X114645520Y-61384850D01*
X114635030Y-61362671D01*
X114626765Y-61339572D01*
X114620804Y-61315773D01*
X114617204Y-61291505D01*
X114616000Y-61267001D01*
X114616000Y-60616999D01*
X114617204Y-60592495D01*
X114620804Y-60568227D01*
X114626765Y-60544428D01*
X114635030Y-60521329D01*
X114645520Y-60499150D01*
X114658132Y-60478107D01*
X114672747Y-60458401D01*
X114689223Y-60440223D01*
X114707401Y-60423747D01*
X114727107Y-60409132D01*
X114748150Y-60396520D01*
X114770329Y-60386030D01*
X114793428Y-60377765D01*
X114817227Y-60371804D01*
X114841495Y-60368204D01*
X114865999Y-60367000D01*
X115766001Y-60367000D01*
X115790505Y-60368204D01*
X115790505Y-60368204D01*
G37*
D11*
X115316000Y-60942000D03*
G04 #@! TD*
D10*
G04 #@! TO.C,C4*
G36*
X128998505Y-62436204D02*
X129022773Y-62439804D01*
X129046572Y-62445765D01*
X129069671Y-62454030D01*
X129091850Y-62464520D01*
X129112893Y-62477132D01*
X129132599Y-62491747D01*
X129150777Y-62508223D01*
X129167253Y-62526401D01*
X129181868Y-62546107D01*
X129194480Y-62567150D01*
X129204970Y-62589329D01*
X129213235Y-62612428D01*
X129219196Y-62636227D01*
X129222796Y-62660495D01*
X129224000Y-62684999D01*
X129224000Y-63335001D01*
X129222796Y-63359505D01*
X129219196Y-63383773D01*
X129213235Y-63407572D01*
X129204970Y-63430671D01*
X129194480Y-63452850D01*
X129181868Y-63473893D01*
X129167253Y-63493599D01*
X129150777Y-63511777D01*
X129132599Y-63528253D01*
X129112893Y-63542868D01*
X129091850Y-63555480D01*
X129069671Y-63565970D01*
X129046572Y-63574235D01*
X129022773Y-63580196D01*
X128998505Y-63583796D01*
X128974001Y-63585000D01*
X128073999Y-63585000D01*
X128049495Y-63583796D01*
X128025227Y-63580196D01*
X128001428Y-63574235D01*
X127978329Y-63565970D01*
X127956150Y-63555480D01*
X127935107Y-63542868D01*
X127915401Y-63528253D01*
X127897223Y-63511777D01*
X127880747Y-63493599D01*
X127866132Y-63473893D01*
X127853520Y-63452850D01*
X127843030Y-63430671D01*
X127834765Y-63407572D01*
X127828804Y-63383773D01*
X127825204Y-63359505D01*
X127824000Y-63335001D01*
X127824000Y-62684999D01*
X127825204Y-62660495D01*
X127828804Y-62636227D01*
X127834765Y-62612428D01*
X127843030Y-62589329D01*
X127853520Y-62567150D01*
X127866132Y-62546107D01*
X127880747Y-62526401D01*
X127897223Y-62508223D01*
X127915401Y-62491747D01*
X127935107Y-62477132D01*
X127956150Y-62464520D01*
X127978329Y-62454030D01*
X128001428Y-62445765D01*
X128025227Y-62439804D01*
X128049495Y-62436204D01*
X128073999Y-62435000D01*
X128974001Y-62435000D01*
X128998505Y-62436204D01*
X128998505Y-62436204D01*
G37*
D11*
X128524000Y-63010000D03*
D10*
G36*
X128998505Y-60386204D02*
X129022773Y-60389804D01*
X129046572Y-60395765D01*
X129069671Y-60404030D01*
X129091850Y-60414520D01*
X129112893Y-60427132D01*
X129132599Y-60441747D01*
X129150777Y-60458223D01*
X129167253Y-60476401D01*
X129181868Y-60496107D01*
X129194480Y-60517150D01*
X129204970Y-60539329D01*
X129213235Y-60562428D01*
X129219196Y-60586227D01*
X129222796Y-60610495D01*
X129224000Y-60634999D01*
X129224000Y-61285001D01*
X129222796Y-61309505D01*
X129219196Y-61333773D01*
X129213235Y-61357572D01*
X129204970Y-61380671D01*
X129194480Y-61402850D01*
X129181868Y-61423893D01*
X129167253Y-61443599D01*
X129150777Y-61461777D01*
X129132599Y-61478253D01*
X129112893Y-61492868D01*
X129091850Y-61505480D01*
X129069671Y-61515970D01*
X129046572Y-61524235D01*
X129022773Y-61530196D01*
X128998505Y-61533796D01*
X128974001Y-61535000D01*
X128073999Y-61535000D01*
X128049495Y-61533796D01*
X128025227Y-61530196D01*
X128001428Y-61524235D01*
X127978329Y-61515970D01*
X127956150Y-61505480D01*
X127935107Y-61492868D01*
X127915401Y-61478253D01*
X127897223Y-61461777D01*
X127880747Y-61443599D01*
X127866132Y-61423893D01*
X127853520Y-61402850D01*
X127843030Y-61380671D01*
X127834765Y-61357572D01*
X127828804Y-61333773D01*
X127825204Y-61309505D01*
X127824000Y-61285001D01*
X127824000Y-60634999D01*
X127825204Y-60610495D01*
X127828804Y-60586227D01*
X127834765Y-60562428D01*
X127843030Y-60539329D01*
X127853520Y-60517150D01*
X127866132Y-60496107D01*
X127880747Y-60476401D01*
X127897223Y-60458223D01*
X127915401Y-60441747D01*
X127935107Y-60427132D01*
X127956150Y-60414520D01*
X127978329Y-60404030D01*
X128001428Y-60395765D01*
X128025227Y-60389804D01*
X128049495Y-60386204D01*
X128073999Y-60385000D01*
X128974001Y-60385000D01*
X128998505Y-60386204D01*
X128998505Y-60386204D01*
G37*
D11*
X128524000Y-60960000D03*
G04 #@! TD*
D10*
G04 #@! TO.C,C5*
G36*
X141190505Y-60386204D02*
X141214773Y-60389804D01*
X141238572Y-60395765D01*
X141261671Y-60404030D01*
X141283850Y-60414520D01*
X141304893Y-60427132D01*
X141324599Y-60441747D01*
X141342777Y-60458223D01*
X141359253Y-60476401D01*
X141373868Y-60496107D01*
X141386480Y-60517150D01*
X141396970Y-60539329D01*
X141405235Y-60562428D01*
X141411196Y-60586227D01*
X141414796Y-60610495D01*
X141416000Y-60634999D01*
X141416000Y-61285001D01*
X141414796Y-61309505D01*
X141411196Y-61333773D01*
X141405235Y-61357572D01*
X141396970Y-61380671D01*
X141386480Y-61402850D01*
X141373868Y-61423893D01*
X141359253Y-61443599D01*
X141342777Y-61461777D01*
X141324599Y-61478253D01*
X141304893Y-61492868D01*
X141283850Y-61505480D01*
X141261671Y-61515970D01*
X141238572Y-61524235D01*
X141214773Y-61530196D01*
X141190505Y-61533796D01*
X141166001Y-61535000D01*
X140265999Y-61535000D01*
X140241495Y-61533796D01*
X140217227Y-61530196D01*
X140193428Y-61524235D01*
X140170329Y-61515970D01*
X140148150Y-61505480D01*
X140127107Y-61492868D01*
X140107401Y-61478253D01*
X140089223Y-61461777D01*
X140072747Y-61443599D01*
X140058132Y-61423893D01*
X140045520Y-61402850D01*
X140035030Y-61380671D01*
X140026765Y-61357572D01*
X140020804Y-61333773D01*
X140017204Y-61309505D01*
X140016000Y-61285001D01*
X140016000Y-60634999D01*
X140017204Y-60610495D01*
X140020804Y-60586227D01*
X140026765Y-60562428D01*
X140035030Y-60539329D01*
X140045520Y-60517150D01*
X140058132Y-60496107D01*
X140072747Y-60476401D01*
X140089223Y-60458223D01*
X140107401Y-60441747D01*
X140127107Y-60427132D01*
X140148150Y-60414520D01*
X140170329Y-60404030D01*
X140193428Y-60395765D01*
X140217227Y-60389804D01*
X140241495Y-60386204D01*
X140265999Y-60385000D01*
X141166001Y-60385000D01*
X141190505Y-60386204D01*
X141190505Y-60386204D01*
G37*
D11*
X140716000Y-60960000D03*
D10*
G36*
X141190505Y-62436204D02*
X141214773Y-62439804D01*
X141238572Y-62445765D01*
X141261671Y-62454030D01*
X141283850Y-62464520D01*
X141304893Y-62477132D01*
X141324599Y-62491747D01*
X141342777Y-62508223D01*
X141359253Y-62526401D01*
X141373868Y-62546107D01*
X141386480Y-62567150D01*
X141396970Y-62589329D01*
X141405235Y-62612428D01*
X141411196Y-62636227D01*
X141414796Y-62660495D01*
X141416000Y-62684999D01*
X141416000Y-63335001D01*
X141414796Y-63359505D01*
X141411196Y-63383773D01*
X141405235Y-63407572D01*
X141396970Y-63430671D01*
X141386480Y-63452850D01*
X141373868Y-63473893D01*
X141359253Y-63493599D01*
X141342777Y-63511777D01*
X141324599Y-63528253D01*
X141304893Y-63542868D01*
X141283850Y-63555480D01*
X141261671Y-63565970D01*
X141238572Y-63574235D01*
X141214773Y-63580196D01*
X141190505Y-63583796D01*
X141166001Y-63585000D01*
X140265999Y-63585000D01*
X140241495Y-63583796D01*
X140217227Y-63580196D01*
X140193428Y-63574235D01*
X140170329Y-63565970D01*
X140148150Y-63555480D01*
X140127107Y-63542868D01*
X140107401Y-63528253D01*
X140089223Y-63511777D01*
X140072747Y-63493599D01*
X140058132Y-63473893D01*
X140045520Y-63452850D01*
X140035030Y-63430671D01*
X140026765Y-63407572D01*
X140020804Y-63383773D01*
X140017204Y-63359505D01*
X140016000Y-63335001D01*
X140016000Y-62684999D01*
X140017204Y-62660495D01*
X140020804Y-62636227D01*
X140026765Y-62612428D01*
X140035030Y-62589329D01*
X140045520Y-62567150D01*
X140058132Y-62546107D01*
X140072747Y-62526401D01*
X140089223Y-62508223D01*
X140107401Y-62491747D01*
X140127107Y-62477132D01*
X140148150Y-62464520D01*
X140170329Y-62454030D01*
X140193428Y-62445765D01*
X140217227Y-62439804D01*
X140241495Y-62436204D01*
X140265999Y-62435000D01*
X141166001Y-62435000D01*
X141190505Y-62436204D01*
X141190505Y-62436204D01*
G37*
D11*
X140716000Y-63010000D03*
G04 #@! TD*
D10*
G04 #@! TO.C,C6*
G36*
X108553505Y-58737204D02*
X108577773Y-58740804D01*
X108601572Y-58746765D01*
X108624671Y-58755030D01*
X108646850Y-58765520D01*
X108667893Y-58778132D01*
X108687599Y-58792747D01*
X108705777Y-58809223D01*
X108722253Y-58827401D01*
X108736868Y-58847107D01*
X108749480Y-58868150D01*
X108759970Y-58890329D01*
X108768235Y-58913428D01*
X108774196Y-58937227D01*
X108777796Y-58961495D01*
X108779000Y-58985999D01*
X108779000Y-59886001D01*
X108777796Y-59910505D01*
X108774196Y-59934773D01*
X108768235Y-59958572D01*
X108759970Y-59981671D01*
X108749480Y-60003850D01*
X108736868Y-60024893D01*
X108722253Y-60044599D01*
X108705777Y-60062777D01*
X108687599Y-60079253D01*
X108667893Y-60093868D01*
X108646850Y-60106480D01*
X108624671Y-60116970D01*
X108601572Y-60125235D01*
X108577773Y-60131196D01*
X108553505Y-60134796D01*
X108529001Y-60136000D01*
X107878999Y-60136000D01*
X107854495Y-60134796D01*
X107830227Y-60131196D01*
X107806428Y-60125235D01*
X107783329Y-60116970D01*
X107761150Y-60106480D01*
X107740107Y-60093868D01*
X107720401Y-60079253D01*
X107702223Y-60062777D01*
X107685747Y-60044599D01*
X107671132Y-60024893D01*
X107658520Y-60003850D01*
X107648030Y-59981671D01*
X107639765Y-59958572D01*
X107633804Y-59934773D01*
X107630204Y-59910505D01*
X107629000Y-59886001D01*
X107629000Y-58985999D01*
X107630204Y-58961495D01*
X107633804Y-58937227D01*
X107639765Y-58913428D01*
X107648030Y-58890329D01*
X107658520Y-58868150D01*
X107671132Y-58847107D01*
X107685747Y-58827401D01*
X107702223Y-58809223D01*
X107720401Y-58792747D01*
X107740107Y-58778132D01*
X107761150Y-58765520D01*
X107783329Y-58755030D01*
X107806428Y-58746765D01*
X107830227Y-58740804D01*
X107854495Y-58737204D01*
X107878999Y-58736000D01*
X108529001Y-58736000D01*
X108553505Y-58737204D01*
X108553505Y-58737204D01*
G37*
D11*
X108204000Y-59436000D03*
D10*
G36*
X110603505Y-58737204D02*
X110627773Y-58740804D01*
X110651572Y-58746765D01*
X110674671Y-58755030D01*
X110696850Y-58765520D01*
X110717893Y-58778132D01*
X110737599Y-58792747D01*
X110755777Y-58809223D01*
X110772253Y-58827401D01*
X110786868Y-58847107D01*
X110799480Y-58868150D01*
X110809970Y-58890329D01*
X110818235Y-58913428D01*
X110824196Y-58937227D01*
X110827796Y-58961495D01*
X110829000Y-58985999D01*
X110829000Y-59886001D01*
X110827796Y-59910505D01*
X110824196Y-59934773D01*
X110818235Y-59958572D01*
X110809970Y-59981671D01*
X110799480Y-60003850D01*
X110786868Y-60024893D01*
X110772253Y-60044599D01*
X110755777Y-60062777D01*
X110737599Y-60079253D01*
X110717893Y-60093868D01*
X110696850Y-60106480D01*
X110674671Y-60116970D01*
X110651572Y-60125235D01*
X110627773Y-60131196D01*
X110603505Y-60134796D01*
X110579001Y-60136000D01*
X109928999Y-60136000D01*
X109904495Y-60134796D01*
X109880227Y-60131196D01*
X109856428Y-60125235D01*
X109833329Y-60116970D01*
X109811150Y-60106480D01*
X109790107Y-60093868D01*
X109770401Y-60079253D01*
X109752223Y-60062777D01*
X109735747Y-60044599D01*
X109721132Y-60024893D01*
X109708520Y-60003850D01*
X109698030Y-59981671D01*
X109689765Y-59958572D01*
X109683804Y-59934773D01*
X109680204Y-59910505D01*
X109679000Y-59886001D01*
X109679000Y-58985999D01*
X109680204Y-58961495D01*
X109683804Y-58937227D01*
X109689765Y-58913428D01*
X109698030Y-58890329D01*
X109708520Y-58868150D01*
X109721132Y-58847107D01*
X109735747Y-58827401D01*
X109752223Y-58809223D01*
X109770401Y-58792747D01*
X109790107Y-58778132D01*
X109811150Y-58765520D01*
X109833329Y-58755030D01*
X109856428Y-58746765D01*
X109880227Y-58740804D01*
X109904495Y-58737204D01*
X109928999Y-58736000D01*
X110579001Y-58736000D01*
X110603505Y-58737204D01*
X110603505Y-58737204D01*
G37*
D11*
X110254000Y-59436000D03*
G04 #@! TD*
D10*
G04 #@! TO.C,C7*
G36*
X123285505Y-58737204D02*
X123309773Y-58740804D01*
X123333572Y-58746765D01*
X123356671Y-58755030D01*
X123378850Y-58765520D01*
X123399893Y-58778132D01*
X123419599Y-58792747D01*
X123437777Y-58809223D01*
X123454253Y-58827401D01*
X123468868Y-58847107D01*
X123481480Y-58868150D01*
X123491970Y-58890329D01*
X123500235Y-58913428D01*
X123506196Y-58937227D01*
X123509796Y-58961495D01*
X123511000Y-58985999D01*
X123511000Y-59886001D01*
X123509796Y-59910505D01*
X123506196Y-59934773D01*
X123500235Y-59958572D01*
X123491970Y-59981671D01*
X123481480Y-60003850D01*
X123468868Y-60024893D01*
X123454253Y-60044599D01*
X123437777Y-60062777D01*
X123419599Y-60079253D01*
X123399893Y-60093868D01*
X123378850Y-60106480D01*
X123356671Y-60116970D01*
X123333572Y-60125235D01*
X123309773Y-60131196D01*
X123285505Y-60134796D01*
X123261001Y-60136000D01*
X122610999Y-60136000D01*
X122586495Y-60134796D01*
X122562227Y-60131196D01*
X122538428Y-60125235D01*
X122515329Y-60116970D01*
X122493150Y-60106480D01*
X122472107Y-60093868D01*
X122452401Y-60079253D01*
X122434223Y-60062777D01*
X122417747Y-60044599D01*
X122403132Y-60024893D01*
X122390520Y-60003850D01*
X122380030Y-59981671D01*
X122371765Y-59958572D01*
X122365804Y-59934773D01*
X122362204Y-59910505D01*
X122361000Y-59886001D01*
X122361000Y-58985999D01*
X122362204Y-58961495D01*
X122365804Y-58937227D01*
X122371765Y-58913428D01*
X122380030Y-58890329D01*
X122390520Y-58868150D01*
X122403132Y-58847107D01*
X122417747Y-58827401D01*
X122434223Y-58809223D01*
X122452401Y-58792747D01*
X122472107Y-58778132D01*
X122493150Y-58765520D01*
X122515329Y-58755030D01*
X122538428Y-58746765D01*
X122562227Y-58740804D01*
X122586495Y-58737204D01*
X122610999Y-58736000D01*
X123261001Y-58736000D01*
X123285505Y-58737204D01*
X123285505Y-58737204D01*
G37*
D11*
X122936000Y-59436000D03*
D10*
G36*
X121235505Y-58737204D02*
X121259773Y-58740804D01*
X121283572Y-58746765D01*
X121306671Y-58755030D01*
X121328850Y-58765520D01*
X121349893Y-58778132D01*
X121369599Y-58792747D01*
X121387777Y-58809223D01*
X121404253Y-58827401D01*
X121418868Y-58847107D01*
X121431480Y-58868150D01*
X121441970Y-58890329D01*
X121450235Y-58913428D01*
X121456196Y-58937227D01*
X121459796Y-58961495D01*
X121461000Y-58985999D01*
X121461000Y-59886001D01*
X121459796Y-59910505D01*
X121456196Y-59934773D01*
X121450235Y-59958572D01*
X121441970Y-59981671D01*
X121431480Y-60003850D01*
X121418868Y-60024893D01*
X121404253Y-60044599D01*
X121387777Y-60062777D01*
X121369599Y-60079253D01*
X121349893Y-60093868D01*
X121328850Y-60106480D01*
X121306671Y-60116970D01*
X121283572Y-60125235D01*
X121259773Y-60131196D01*
X121235505Y-60134796D01*
X121211001Y-60136000D01*
X120560999Y-60136000D01*
X120536495Y-60134796D01*
X120512227Y-60131196D01*
X120488428Y-60125235D01*
X120465329Y-60116970D01*
X120443150Y-60106480D01*
X120422107Y-60093868D01*
X120402401Y-60079253D01*
X120384223Y-60062777D01*
X120367747Y-60044599D01*
X120353132Y-60024893D01*
X120340520Y-60003850D01*
X120330030Y-59981671D01*
X120321765Y-59958572D01*
X120315804Y-59934773D01*
X120312204Y-59910505D01*
X120311000Y-59886001D01*
X120311000Y-58985999D01*
X120312204Y-58961495D01*
X120315804Y-58937227D01*
X120321765Y-58913428D01*
X120330030Y-58890329D01*
X120340520Y-58868150D01*
X120353132Y-58847107D01*
X120367747Y-58827401D01*
X120384223Y-58809223D01*
X120402401Y-58792747D01*
X120422107Y-58778132D01*
X120443150Y-58765520D01*
X120465329Y-58755030D01*
X120488428Y-58746765D01*
X120512227Y-58740804D01*
X120536495Y-58737204D01*
X120560999Y-58736000D01*
X121211001Y-58736000D01*
X121235505Y-58737204D01*
X121235505Y-58737204D01*
G37*
D11*
X120886000Y-59436000D03*
G04 #@! TD*
D10*
G04 #@! TO.C,C8*
G36*
X134443505Y-58737204D02*
X134467773Y-58740804D01*
X134491572Y-58746765D01*
X134514671Y-58755030D01*
X134536850Y-58765520D01*
X134557893Y-58778132D01*
X134577599Y-58792747D01*
X134595777Y-58809223D01*
X134612253Y-58827401D01*
X134626868Y-58847107D01*
X134639480Y-58868150D01*
X134649970Y-58890329D01*
X134658235Y-58913428D01*
X134664196Y-58937227D01*
X134667796Y-58961495D01*
X134669000Y-58985999D01*
X134669000Y-59886001D01*
X134667796Y-59910505D01*
X134664196Y-59934773D01*
X134658235Y-59958572D01*
X134649970Y-59981671D01*
X134639480Y-60003850D01*
X134626868Y-60024893D01*
X134612253Y-60044599D01*
X134595777Y-60062777D01*
X134577599Y-60079253D01*
X134557893Y-60093868D01*
X134536850Y-60106480D01*
X134514671Y-60116970D01*
X134491572Y-60125235D01*
X134467773Y-60131196D01*
X134443505Y-60134796D01*
X134419001Y-60136000D01*
X133768999Y-60136000D01*
X133744495Y-60134796D01*
X133720227Y-60131196D01*
X133696428Y-60125235D01*
X133673329Y-60116970D01*
X133651150Y-60106480D01*
X133630107Y-60093868D01*
X133610401Y-60079253D01*
X133592223Y-60062777D01*
X133575747Y-60044599D01*
X133561132Y-60024893D01*
X133548520Y-60003850D01*
X133538030Y-59981671D01*
X133529765Y-59958572D01*
X133523804Y-59934773D01*
X133520204Y-59910505D01*
X133519000Y-59886001D01*
X133519000Y-58985999D01*
X133520204Y-58961495D01*
X133523804Y-58937227D01*
X133529765Y-58913428D01*
X133538030Y-58890329D01*
X133548520Y-58868150D01*
X133561132Y-58847107D01*
X133575747Y-58827401D01*
X133592223Y-58809223D01*
X133610401Y-58792747D01*
X133630107Y-58778132D01*
X133651150Y-58765520D01*
X133673329Y-58755030D01*
X133696428Y-58746765D01*
X133720227Y-58740804D01*
X133744495Y-58737204D01*
X133768999Y-58736000D01*
X134419001Y-58736000D01*
X134443505Y-58737204D01*
X134443505Y-58737204D01*
G37*
D11*
X134094000Y-59436000D03*
D10*
G36*
X136493505Y-58737204D02*
X136517773Y-58740804D01*
X136541572Y-58746765D01*
X136564671Y-58755030D01*
X136586850Y-58765520D01*
X136607893Y-58778132D01*
X136627599Y-58792747D01*
X136645777Y-58809223D01*
X136662253Y-58827401D01*
X136676868Y-58847107D01*
X136689480Y-58868150D01*
X136699970Y-58890329D01*
X136708235Y-58913428D01*
X136714196Y-58937227D01*
X136717796Y-58961495D01*
X136719000Y-58985999D01*
X136719000Y-59886001D01*
X136717796Y-59910505D01*
X136714196Y-59934773D01*
X136708235Y-59958572D01*
X136699970Y-59981671D01*
X136689480Y-60003850D01*
X136676868Y-60024893D01*
X136662253Y-60044599D01*
X136645777Y-60062777D01*
X136627599Y-60079253D01*
X136607893Y-60093868D01*
X136586850Y-60106480D01*
X136564671Y-60116970D01*
X136541572Y-60125235D01*
X136517773Y-60131196D01*
X136493505Y-60134796D01*
X136469001Y-60136000D01*
X135818999Y-60136000D01*
X135794495Y-60134796D01*
X135770227Y-60131196D01*
X135746428Y-60125235D01*
X135723329Y-60116970D01*
X135701150Y-60106480D01*
X135680107Y-60093868D01*
X135660401Y-60079253D01*
X135642223Y-60062777D01*
X135625747Y-60044599D01*
X135611132Y-60024893D01*
X135598520Y-60003850D01*
X135588030Y-59981671D01*
X135579765Y-59958572D01*
X135573804Y-59934773D01*
X135570204Y-59910505D01*
X135569000Y-59886001D01*
X135569000Y-58985999D01*
X135570204Y-58961495D01*
X135573804Y-58937227D01*
X135579765Y-58913428D01*
X135588030Y-58890329D01*
X135598520Y-58868150D01*
X135611132Y-58847107D01*
X135625747Y-58827401D01*
X135642223Y-58809223D01*
X135660401Y-58792747D01*
X135680107Y-58778132D01*
X135701150Y-58765520D01*
X135723329Y-58755030D01*
X135746428Y-58746765D01*
X135770227Y-58740804D01*
X135794495Y-58737204D01*
X135818999Y-58736000D01*
X136469001Y-58736000D01*
X136493505Y-58737204D01*
X136493505Y-58737204D01*
G37*
D11*
X136144000Y-59436000D03*
G04 #@! TD*
D10*
G04 #@! TO.C,L3*
G36*
X110594505Y-61277204D02*
X110618773Y-61280804D01*
X110642572Y-61286765D01*
X110665671Y-61295030D01*
X110687850Y-61305520D01*
X110708893Y-61318132D01*
X110728599Y-61332747D01*
X110746777Y-61349223D01*
X110763253Y-61367401D01*
X110777868Y-61387107D01*
X110790480Y-61408150D01*
X110800970Y-61430329D01*
X110809235Y-61453428D01*
X110815196Y-61477227D01*
X110818796Y-61501495D01*
X110820000Y-61525999D01*
X110820000Y-62426001D01*
X110818796Y-62450505D01*
X110815196Y-62474773D01*
X110809235Y-62498572D01*
X110800970Y-62521671D01*
X110790480Y-62543850D01*
X110777868Y-62564893D01*
X110763253Y-62584599D01*
X110746777Y-62602777D01*
X110728599Y-62619253D01*
X110708893Y-62633868D01*
X110687850Y-62646480D01*
X110665671Y-62656970D01*
X110642572Y-62665235D01*
X110618773Y-62671196D01*
X110594505Y-62674796D01*
X110570001Y-62676000D01*
X109919999Y-62676000D01*
X109895495Y-62674796D01*
X109871227Y-62671196D01*
X109847428Y-62665235D01*
X109824329Y-62656970D01*
X109802150Y-62646480D01*
X109781107Y-62633868D01*
X109761401Y-62619253D01*
X109743223Y-62602777D01*
X109726747Y-62584599D01*
X109712132Y-62564893D01*
X109699520Y-62543850D01*
X109689030Y-62521671D01*
X109680765Y-62498572D01*
X109674804Y-62474773D01*
X109671204Y-62450505D01*
X109670000Y-62426001D01*
X109670000Y-61525999D01*
X109671204Y-61501495D01*
X109674804Y-61477227D01*
X109680765Y-61453428D01*
X109689030Y-61430329D01*
X109699520Y-61408150D01*
X109712132Y-61387107D01*
X109726747Y-61367401D01*
X109743223Y-61349223D01*
X109761401Y-61332747D01*
X109781107Y-61318132D01*
X109802150Y-61305520D01*
X109824329Y-61295030D01*
X109847428Y-61286765D01*
X109871227Y-61280804D01*
X109895495Y-61277204D01*
X109919999Y-61276000D01*
X110570001Y-61276000D01*
X110594505Y-61277204D01*
X110594505Y-61277204D01*
G37*
D11*
X110245000Y-61976000D03*
D10*
G36*
X108544505Y-61277204D02*
X108568773Y-61280804D01*
X108592572Y-61286765D01*
X108615671Y-61295030D01*
X108637850Y-61305520D01*
X108658893Y-61318132D01*
X108678599Y-61332747D01*
X108696777Y-61349223D01*
X108713253Y-61367401D01*
X108727868Y-61387107D01*
X108740480Y-61408150D01*
X108750970Y-61430329D01*
X108759235Y-61453428D01*
X108765196Y-61477227D01*
X108768796Y-61501495D01*
X108770000Y-61525999D01*
X108770000Y-62426001D01*
X108768796Y-62450505D01*
X108765196Y-62474773D01*
X108759235Y-62498572D01*
X108750970Y-62521671D01*
X108740480Y-62543850D01*
X108727868Y-62564893D01*
X108713253Y-62584599D01*
X108696777Y-62602777D01*
X108678599Y-62619253D01*
X108658893Y-62633868D01*
X108637850Y-62646480D01*
X108615671Y-62656970D01*
X108592572Y-62665235D01*
X108568773Y-62671196D01*
X108544505Y-62674796D01*
X108520001Y-62676000D01*
X107869999Y-62676000D01*
X107845495Y-62674796D01*
X107821227Y-62671196D01*
X107797428Y-62665235D01*
X107774329Y-62656970D01*
X107752150Y-62646480D01*
X107731107Y-62633868D01*
X107711401Y-62619253D01*
X107693223Y-62602777D01*
X107676747Y-62584599D01*
X107662132Y-62564893D01*
X107649520Y-62543850D01*
X107639030Y-62521671D01*
X107630765Y-62498572D01*
X107624804Y-62474773D01*
X107621204Y-62450505D01*
X107620000Y-62426001D01*
X107620000Y-61525999D01*
X107621204Y-61501495D01*
X107624804Y-61477227D01*
X107630765Y-61453428D01*
X107639030Y-61430329D01*
X107649520Y-61408150D01*
X107662132Y-61387107D01*
X107676747Y-61367401D01*
X107693223Y-61349223D01*
X107711401Y-61332747D01*
X107731107Y-61318132D01*
X107752150Y-61305520D01*
X107774329Y-61295030D01*
X107797428Y-61286765D01*
X107821227Y-61280804D01*
X107845495Y-61277204D01*
X107869999Y-61276000D01*
X108520001Y-61276000D01*
X108544505Y-61277204D01*
X108544505Y-61277204D01*
G37*
D11*
X108195000Y-61976000D03*
G04 #@! TD*
D10*
G04 #@! TO.C,L4*
G36*
X121235505Y-61277204D02*
X121259773Y-61280804D01*
X121283572Y-61286765D01*
X121306671Y-61295030D01*
X121328850Y-61305520D01*
X121349893Y-61318132D01*
X121369599Y-61332747D01*
X121387777Y-61349223D01*
X121404253Y-61367401D01*
X121418868Y-61387107D01*
X121431480Y-61408150D01*
X121441970Y-61430329D01*
X121450235Y-61453428D01*
X121456196Y-61477227D01*
X121459796Y-61501495D01*
X121461000Y-61525999D01*
X121461000Y-62426001D01*
X121459796Y-62450505D01*
X121456196Y-62474773D01*
X121450235Y-62498572D01*
X121441970Y-62521671D01*
X121431480Y-62543850D01*
X121418868Y-62564893D01*
X121404253Y-62584599D01*
X121387777Y-62602777D01*
X121369599Y-62619253D01*
X121349893Y-62633868D01*
X121328850Y-62646480D01*
X121306671Y-62656970D01*
X121283572Y-62665235D01*
X121259773Y-62671196D01*
X121235505Y-62674796D01*
X121211001Y-62676000D01*
X120560999Y-62676000D01*
X120536495Y-62674796D01*
X120512227Y-62671196D01*
X120488428Y-62665235D01*
X120465329Y-62656970D01*
X120443150Y-62646480D01*
X120422107Y-62633868D01*
X120402401Y-62619253D01*
X120384223Y-62602777D01*
X120367747Y-62584599D01*
X120353132Y-62564893D01*
X120340520Y-62543850D01*
X120330030Y-62521671D01*
X120321765Y-62498572D01*
X120315804Y-62474773D01*
X120312204Y-62450505D01*
X120311000Y-62426001D01*
X120311000Y-61525999D01*
X120312204Y-61501495D01*
X120315804Y-61477227D01*
X120321765Y-61453428D01*
X120330030Y-61430329D01*
X120340520Y-61408150D01*
X120353132Y-61387107D01*
X120367747Y-61367401D01*
X120384223Y-61349223D01*
X120402401Y-61332747D01*
X120422107Y-61318132D01*
X120443150Y-61305520D01*
X120465329Y-61295030D01*
X120488428Y-61286765D01*
X120512227Y-61280804D01*
X120536495Y-61277204D01*
X120560999Y-61276000D01*
X121211001Y-61276000D01*
X121235505Y-61277204D01*
X121235505Y-61277204D01*
G37*
D11*
X120886000Y-61976000D03*
D10*
G36*
X123285505Y-61277204D02*
X123309773Y-61280804D01*
X123333572Y-61286765D01*
X123356671Y-61295030D01*
X123378850Y-61305520D01*
X123399893Y-61318132D01*
X123419599Y-61332747D01*
X123437777Y-61349223D01*
X123454253Y-61367401D01*
X123468868Y-61387107D01*
X123481480Y-61408150D01*
X123491970Y-61430329D01*
X123500235Y-61453428D01*
X123506196Y-61477227D01*
X123509796Y-61501495D01*
X123511000Y-61525999D01*
X123511000Y-62426001D01*
X123509796Y-62450505D01*
X123506196Y-62474773D01*
X123500235Y-62498572D01*
X123491970Y-62521671D01*
X123481480Y-62543850D01*
X123468868Y-62564893D01*
X123454253Y-62584599D01*
X123437777Y-62602777D01*
X123419599Y-62619253D01*
X123399893Y-62633868D01*
X123378850Y-62646480D01*
X123356671Y-62656970D01*
X123333572Y-62665235D01*
X123309773Y-62671196D01*
X123285505Y-62674796D01*
X123261001Y-62676000D01*
X122610999Y-62676000D01*
X122586495Y-62674796D01*
X122562227Y-62671196D01*
X122538428Y-62665235D01*
X122515329Y-62656970D01*
X122493150Y-62646480D01*
X122472107Y-62633868D01*
X122452401Y-62619253D01*
X122434223Y-62602777D01*
X122417747Y-62584599D01*
X122403132Y-62564893D01*
X122390520Y-62543850D01*
X122380030Y-62521671D01*
X122371765Y-62498572D01*
X122365804Y-62474773D01*
X122362204Y-62450505D01*
X122361000Y-62426001D01*
X122361000Y-61525999D01*
X122362204Y-61501495D01*
X122365804Y-61477227D01*
X122371765Y-61453428D01*
X122380030Y-61430329D01*
X122390520Y-61408150D01*
X122403132Y-61387107D01*
X122417747Y-61367401D01*
X122434223Y-61349223D01*
X122452401Y-61332747D01*
X122472107Y-61318132D01*
X122493150Y-61305520D01*
X122515329Y-61295030D01*
X122538428Y-61286765D01*
X122562227Y-61280804D01*
X122586495Y-61277204D01*
X122610999Y-61276000D01*
X123261001Y-61276000D01*
X123285505Y-61277204D01*
X123285505Y-61277204D01*
G37*
D11*
X122936000Y-61976000D03*
G04 #@! TD*
D10*
G04 #@! TO.C,L5*
G36*
X136502505Y-61277204D02*
X136526773Y-61280804D01*
X136550572Y-61286765D01*
X136573671Y-61295030D01*
X136595850Y-61305520D01*
X136616893Y-61318132D01*
X136636599Y-61332747D01*
X136654777Y-61349223D01*
X136671253Y-61367401D01*
X136685868Y-61387107D01*
X136698480Y-61408150D01*
X136708970Y-61430329D01*
X136717235Y-61453428D01*
X136723196Y-61477227D01*
X136726796Y-61501495D01*
X136728000Y-61525999D01*
X136728000Y-62426001D01*
X136726796Y-62450505D01*
X136723196Y-62474773D01*
X136717235Y-62498572D01*
X136708970Y-62521671D01*
X136698480Y-62543850D01*
X136685868Y-62564893D01*
X136671253Y-62584599D01*
X136654777Y-62602777D01*
X136636599Y-62619253D01*
X136616893Y-62633868D01*
X136595850Y-62646480D01*
X136573671Y-62656970D01*
X136550572Y-62665235D01*
X136526773Y-62671196D01*
X136502505Y-62674796D01*
X136478001Y-62676000D01*
X135827999Y-62676000D01*
X135803495Y-62674796D01*
X135779227Y-62671196D01*
X135755428Y-62665235D01*
X135732329Y-62656970D01*
X135710150Y-62646480D01*
X135689107Y-62633868D01*
X135669401Y-62619253D01*
X135651223Y-62602777D01*
X135634747Y-62584599D01*
X135620132Y-62564893D01*
X135607520Y-62543850D01*
X135597030Y-62521671D01*
X135588765Y-62498572D01*
X135582804Y-62474773D01*
X135579204Y-62450505D01*
X135578000Y-62426001D01*
X135578000Y-61525999D01*
X135579204Y-61501495D01*
X135582804Y-61477227D01*
X135588765Y-61453428D01*
X135597030Y-61430329D01*
X135607520Y-61408150D01*
X135620132Y-61387107D01*
X135634747Y-61367401D01*
X135651223Y-61349223D01*
X135669401Y-61332747D01*
X135689107Y-61318132D01*
X135710150Y-61305520D01*
X135732329Y-61295030D01*
X135755428Y-61286765D01*
X135779227Y-61280804D01*
X135803495Y-61277204D01*
X135827999Y-61276000D01*
X136478001Y-61276000D01*
X136502505Y-61277204D01*
X136502505Y-61277204D01*
G37*
D11*
X136153000Y-61976000D03*
D10*
G36*
X134452505Y-61277204D02*
X134476773Y-61280804D01*
X134500572Y-61286765D01*
X134523671Y-61295030D01*
X134545850Y-61305520D01*
X134566893Y-61318132D01*
X134586599Y-61332747D01*
X134604777Y-61349223D01*
X134621253Y-61367401D01*
X134635868Y-61387107D01*
X134648480Y-61408150D01*
X134658970Y-61430329D01*
X134667235Y-61453428D01*
X134673196Y-61477227D01*
X134676796Y-61501495D01*
X134678000Y-61525999D01*
X134678000Y-62426001D01*
X134676796Y-62450505D01*
X134673196Y-62474773D01*
X134667235Y-62498572D01*
X134658970Y-62521671D01*
X134648480Y-62543850D01*
X134635868Y-62564893D01*
X134621253Y-62584599D01*
X134604777Y-62602777D01*
X134586599Y-62619253D01*
X134566893Y-62633868D01*
X134545850Y-62646480D01*
X134523671Y-62656970D01*
X134500572Y-62665235D01*
X134476773Y-62671196D01*
X134452505Y-62674796D01*
X134428001Y-62676000D01*
X133777999Y-62676000D01*
X133753495Y-62674796D01*
X133729227Y-62671196D01*
X133705428Y-62665235D01*
X133682329Y-62656970D01*
X133660150Y-62646480D01*
X133639107Y-62633868D01*
X133619401Y-62619253D01*
X133601223Y-62602777D01*
X133584747Y-62584599D01*
X133570132Y-62564893D01*
X133557520Y-62543850D01*
X133547030Y-62521671D01*
X133538765Y-62498572D01*
X133532804Y-62474773D01*
X133529204Y-62450505D01*
X133528000Y-62426001D01*
X133528000Y-61525999D01*
X133529204Y-61501495D01*
X133532804Y-61477227D01*
X133538765Y-61453428D01*
X133547030Y-61430329D01*
X133557520Y-61408150D01*
X133570132Y-61387107D01*
X133584747Y-61367401D01*
X133601223Y-61349223D01*
X133619401Y-61332747D01*
X133639107Y-61318132D01*
X133660150Y-61305520D01*
X133682329Y-61295030D01*
X133705428Y-61286765D01*
X133729227Y-61280804D01*
X133753495Y-61277204D01*
X133777999Y-61276000D01*
X134428001Y-61276000D01*
X134452505Y-61277204D01*
X134452505Y-61277204D01*
G37*
D11*
X134103000Y-61976000D03*
G04 #@! TD*
D12*
G04 #@! TO.C,RV1*
X141264000Y-88392000D03*
D13*
X142514000Y-85492000D03*
D12*
X143764000Y-88392000D03*
G04 #@! TD*
D14*
G04 #@! TO.C,U2*
X106210000Y-73152000D03*
X111760000Y-78002000D03*
X111760000Y-73152000D03*
X106210000Y-78002000D03*
D15*
X105585000Y-66427000D03*
X107285000Y-66427000D03*
X108985000Y-66427000D03*
X110685000Y-66427000D03*
X112385000Y-66427000D03*
G04 #@! TD*
G04 #@! TO.C,U3*
X125320000Y-66542000D03*
X123620000Y-66542000D03*
X121920000Y-66542000D03*
X120220000Y-66542000D03*
X118520000Y-66542000D03*
D14*
X119145000Y-78117000D03*
X124695000Y-73267000D03*
X124695000Y-78117000D03*
X119145000Y-73267000D03*
G04 #@! TD*
D15*
G04 #@! TO.C,U4*
X138528000Y-66542000D03*
X136828000Y-66542000D03*
X135128000Y-66542000D03*
X133428000Y-66542000D03*
X131728000Y-66542000D03*
D14*
X132353000Y-78117000D03*
X137903000Y-73267000D03*
X137903000Y-78117000D03*
X132353000Y-73267000D03*
G04 #@! TD*
D16*
G04 #@! TO.C,D1*
X112776000Y-62230000D03*
X112776000Y-58930000D03*
G04 #@! TD*
G04 #@! TO.C,D2*
X125730000Y-58928000D03*
X125730000Y-62228000D03*
G04 #@! TD*
G04 #@! TO.C,D3*
X138430000Y-61974000D03*
X138430000Y-58674000D03*
G04 #@! TD*
M02*
