G04 #@! TF.GenerationSoftware,KiCad,Pcbnew,5.1.4*
G04 #@! TF.CreationDate,2019-08-14T00:52:13-04:00*
G04 #@! TF.ProjectId,PowerRDP,506f7765-7252-4445-902e-6b696361645f,3*
G04 #@! TF.SameCoordinates,Original*
G04 #@! TF.FileFunction,Copper,L2,Bot*
G04 #@! TF.FilePolarity,Positive*
%FSLAX46Y46*%
G04 Gerber Fmt 4.6, Leading zero omitted, Abs format (unit mm)*
G04 Created by KiCad (PCBNEW 5.1.4) date 2019-08-14 00:52:13*
%MOMM*%
%LPD*%
G04 APERTURE LIST*
%ADD10C,0.100000*%
%ADD11C,1.150000*%
%ADD12C,1.740000*%
%ADD13O,1.740000X2.200000*%
%ADD14R,1.520000X3.050000*%
%ADD15R,3.050000X1.520000*%
%ADD16R,0.650000X2.000000*%
%ADD17C,1.700000*%
%ADD18R,1.550000X0.600000*%
%ADD19R,5.400000X2.900000*%
%ADD20C,4.000000*%
%ADD21C,2.050000*%
%ADD22C,2.250000*%
%ADD23C,0.800000*%
%ADD24C,0.250000*%
%ADD25C,0.254000*%
G04 APERTURE END LIST*
D10*
G36*
X127839505Y-81597204D02*
G01*
X127863773Y-81600804D01*
X127887572Y-81606765D01*
X127910671Y-81615030D01*
X127932850Y-81625520D01*
X127953893Y-81638132D01*
X127973599Y-81652747D01*
X127991777Y-81669223D01*
X128008253Y-81687401D01*
X128022868Y-81707107D01*
X128035480Y-81728150D01*
X128045970Y-81750329D01*
X128054235Y-81773428D01*
X128060196Y-81797227D01*
X128063796Y-81821495D01*
X128065000Y-81845999D01*
X128065000Y-82746001D01*
X128063796Y-82770505D01*
X128060196Y-82794773D01*
X128054235Y-82818572D01*
X128045970Y-82841671D01*
X128035480Y-82863850D01*
X128022868Y-82884893D01*
X128008253Y-82904599D01*
X127991777Y-82922777D01*
X127973599Y-82939253D01*
X127953893Y-82953868D01*
X127932850Y-82966480D01*
X127910671Y-82976970D01*
X127887572Y-82985235D01*
X127863773Y-82991196D01*
X127839505Y-82994796D01*
X127815001Y-82996000D01*
X127164999Y-82996000D01*
X127140495Y-82994796D01*
X127116227Y-82991196D01*
X127092428Y-82985235D01*
X127069329Y-82976970D01*
X127047150Y-82966480D01*
X127026107Y-82953868D01*
X127006401Y-82939253D01*
X126988223Y-82922777D01*
X126971747Y-82904599D01*
X126957132Y-82884893D01*
X126944520Y-82863850D01*
X126934030Y-82841671D01*
X126925765Y-82818572D01*
X126919804Y-82794773D01*
X126916204Y-82770505D01*
X126915000Y-82746001D01*
X126915000Y-81845999D01*
X126916204Y-81821495D01*
X126919804Y-81797227D01*
X126925765Y-81773428D01*
X126934030Y-81750329D01*
X126944520Y-81728150D01*
X126957132Y-81707107D01*
X126971747Y-81687401D01*
X126988223Y-81669223D01*
X127006401Y-81652747D01*
X127026107Y-81638132D01*
X127047150Y-81625520D01*
X127069329Y-81615030D01*
X127092428Y-81606765D01*
X127116227Y-81600804D01*
X127140495Y-81597204D01*
X127164999Y-81596000D01*
X127815001Y-81596000D01*
X127839505Y-81597204D01*
X127839505Y-81597204D01*
G37*
D11*
X127490000Y-82296000D03*
D10*
G36*
X129889505Y-81597204D02*
G01*
X129913773Y-81600804D01*
X129937572Y-81606765D01*
X129960671Y-81615030D01*
X129982850Y-81625520D01*
X130003893Y-81638132D01*
X130023599Y-81652747D01*
X130041777Y-81669223D01*
X130058253Y-81687401D01*
X130072868Y-81707107D01*
X130085480Y-81728150D01*
X130095970Y-81750329D01*
X130104235Y-81773428D01*
X130110196Y-81797227D01*
X130113796Y-81821495D01*
X130115000Y-81845999D01*
X130115000Y-82746001D01*
X130113796Y-82770505D01*
X130110196Y-82794773D01*
X130104235Y-82818572D01*
X130095970Y-82841671D01*
X130085480Y-82863850D01*
X130072868Y-82884893D01*
X130058253Y-82904599D01*
X130041777Y-82922777D01*
X130023599Y-82939253D01*
X130003893Y-82953868D01*
X129982850Y-82966480D01*
X129960671Y-82976970D01*
X129937572Y-82985235D01*
X129913773Y-82991196D01*
X129889505Y-82994796D01*
X129865001Y-82996000D01*
X129214999Y-82996000D01*
X129190495Y-82994796D01*
X129166227Y-82991196D01*
X129142428Y-82985235D01*
X129119329Y-82976970D01*
X129097150Y-82966480D01*
X129076107Y-82953868D01*
X129056401Y-82939253D01*
X129038223Y-82922777D01*
X129021747Y-82904599D01*
X129007132Y-82884893D01*
X128994520Y-82863850D01*
X128984030Y-82841671D01*
X128975765Y-82818572D01*
X128969804Y-82794773D01*
X128966204Y-82770505D01*
X128965000Y-82746001D01*
X128965000Y-81845999D01*
X128966204Y-81821495D01*
X128969804Y-81797227D01*
X128975765Y-81773428D01*
X128984030Y-81750329D01*
X128994520Y-81728150D01*
X129007132Y-81707107D01*
X129021747Y-81687401D01*
X129038223Y-81669223D01*
X129056401Y-81652747D01*
X129076107Y-81638132D01*
X129097150Y-81625520D01*
X129119329Y-81615030D01*
X129142428Y-81606765D01*
X129166227Y-81600804D01*
X129190495Y-81597204D01*
X129214999Y-81596000D01*
X129865001Y-81596000D01*
X129889505Y-81597204D01*
X129889505Y-81597204D01*
G37*
D11*
X129540000Y-82296000D03*
D10*
G36*
X122394505Y-89351204D02*
G01*
X122418773Y-89354804D01*
X122442572Y-89360765D01*
X122465671Y-89369030D01*
X122487850Y-89379520D01*
X122508893Y-89392132D01*
X122528599Y-89406747D01*
X122546777Y-89423223D01*
X122563253Y-89441401D01*
X122577868Y-89461107D01*
X122590480Y-89482150D01*
X122600970Y-89504329D01*
X122609235Y-89527428D01*
X122615196Y-89551227D01*
X122618796Y-89575495D01*
X122620000Y-89599999D01*
X122620000Y-90250001D01*
X122618796Y-90274505D01*
X122615196Y-90298773D01*
X122609235Y-90322572D01*
X122600970Y-90345671D01*
X122590480Y-90367850D01*
X122577868Y-90388893D01*
X122563253Y-90408599D01*
X122546777Y-90426777D01*
X122528599Y-90443253D01*
X122508893Y-90457868D01*
X122487850Y-90470480D01*
X122465671Y-90480970D01*
X122442572Y-90489235D01*
X122418773Y-90495196D01*
X122394505Y-90498796D01*
X122370001Y-90500000D01*
X121469999Y-90500000D01*
X121445495Y-90498796D01*
X121421227Y-90495196D01*
X121397428Y-90489235D01*
X121374329Y-90480970D01*
X121352150Y-90470480D01*
X121331107Y-90457868D01*
X121311401Y-90443253D01*
X121293223Y-90426777D01*
X121276747Y-90408599D01*
X121262132Y-90388893D01*
X121249520Y-90367850D01*
X121239030Y-90345671D01*
X121230765Y-90322572D01*
X121224804Y-90298773D01*
X121221204Y-90274505D01*
X121220000Y-90250001D01*
X121220000Y-89599999D01*
X121221204Y-89575495D01*
X121224804Y-89551227D01*
X121230765Y-89527428D01*
X121239030Y-89504329D01*
X121249520Y-89482150D01*
X121262132Y-89461107D01*
X121276747Y-89441401D01*
X121293223Y-89423223D01*
X121311401Y-89406747D01*
X121331107Y-89392132D01*
X121352150Y-89379520D01*
X121374329Y-89369030D01*
X121397428Y-89360765D01*
X121421227Y-89354804D01*
X121445495Y-89351204D01*
X121469999Y-89350000D01*
X122370001Y-89350000D01*
X122394505Y-89351204D01*
X122394505Y-89351204D01*
G37*
D11*
X121920000Y-89925000D03*
D10*
G36*
X122394505Y-87301204D02*
G01*
X122418773Y-87304804D01*
X122442572Y-87310765D01*
X122465671Y-87319030D01*
X122487850Y-87329520D01*
X122508893Y-87342132D01*
X122528599Y-87356747D01*
X122546777Y-87373223D01*
X122563253Y-87391401D01*
X122577868Y-87411107D01*
X122590480Y-87432150D01*
X122600970Y-87454329D01*
X122609235Y-87477428D01*
X122615196Y-87501227D01*
X122618796Y-87525495D01*
X122620000Y-87549999D01*
X122620000Y-88200001D01*
X122618796Y-88224505D01*
X122615196Y-88248773D01*
X122609235Y-88272572D01*
X122600970Y-88295671D01*
X122590480Y-88317850D01*
X122577868Y-88338893D01*
X122563253Y-88358599D01*
X122546777Y-88376777D01*
X122528599Y-88393253D01*
X122508893Y-88407868D01*
X122487850Y-88420480D01*
X122465671Y-88430970D01*
X122442572Y-88439235D01*
X122418773Y-88445196D01*
X122394505Y-88448796D01*
X122370001Y-88450000D01*
X121469999Y-88450000D01*
X121445495Y-88448796D01*
X121421227Y-88445196D01*
X121397428Y-88439235D01*
X121374329Y-88430970D01*
X121352150Y-88420480D01*
X121331107Y-88407868D01*
X121311401Y-88393253D01*
X121293223Y-88376777D01*
X121276747Y-88358599D01*
X121262132Y-88338893D01*
X121249520Y-88317850D01*
X121239030Y-88295671D01*
X121230765Y-88272572D01*
X121224804Y-88248773D01*
X121221204Y-88224505D01*
X121220000Y-88200001D01*
X121220000Y-87549999D01*
X121221204Y-87525495D01*
X121224804Y-87501227D01*
X121230765Y-87477428D01*
X121239030Y-87454329D01*
X121249520Y-87432150D01*
X121262132Y-87411107D01*
X121276747Y-87391401D01*
X121293223Y-87373223D01*
X121311401Y-87356747D01*
X121331107Y-87342132D01*
X121352150Y-87329520D01*
X121374329Y-87319030D01*
X121397428Y-87310765D01*
X121421227Y-87304804D01*
X121445495Y-87301204D01*
X121469999Y-87300000D01*
X122370001Y-87300000D01*
X122394505Y-87301204D01*
X122394505Y-87301204D01*
G37*
D11*
X121920000Y-87875000D03*
D10*
G36*
X122768505Y-78549204D02*
G01*
X122792773Y-78552804D01*
X122816572Y-78558765D01*
X122839671Y-78567030D01*
X122861850Y-78577520D01*
X122882893Y-78590132D01*
X122902599Y-78604747D01*
X122920777Y-78621223D01*
X122937253Y-78639401D01*
X122951868Y-78659107D01*
X122964480Y-78680150D01*
X122974970Y-78702329D01*
X122983235Y-78725428D01*
X122989196Y-78749227D01*
X122992796Y-78773495D01*
X122994000Y-78797999D01*
X122994000Y-79698001D01*
X122992796Y-79722505D01*
X122989196Y-79746773D01*
X122983235Y-79770572D01*
X122974970Y-79793671D01*
X122964480Y-79815850D01*
X122951868Y-79836893D01*
X122937253Y-79856599D01*
X122920777Y-79874777D01*
X122902599Y-79891253D01*
X122882893Y-79905868D01*
X122861850Y-79918480D01*
X122839671Y-79928970D01*
X122816572Y-79937235D01*
X122792773Y-79943196D01*
X122768505Y-79946796D01*
X122744001Y-79948000D01*
X122093999Y-79948000D01*
X122069495Y-79946796D01*
X122045227Y-79943196D01*
X122021428Y-79937235D01*
X121998329Y-79928970D01*
X121976150Y-79918480D01*
X121955107Y-79905868D01*
X121935401Y-79891253D01*
X121917223Y-79874777D01*
X121900747Y-79856599D01*
X121886132Y-79836893D01*
X121873520Y-79815850D01*
X121863030Y-79793671D01*
X121854765Y-79770572D01*
X121848804Y-79746773D01*
X121845204Y-79722505D01*
X121844000Y-79698001D01*
X121844000Y-78797999D01*
X121845204Y-78773495D01*
X121848804Y-78749227D01*
X121854765Y-78725428D01*
X121863030Y-78702329D01*
X121873520Y-78680150D01*
X121886132Y-78659107D01*
X121900747Y-78639401D01*
X121917223Y-78621223D01*
X121935401Y-78604747D01*
X121955107Y-78590132D01*
X121976150Y-78577520D01*
X121998329Y-78567030D01*
X122021428Y-78558765D01*
X122045227Y-78552804D01*
X122069495Y-78549204D01*
X122093999Y-78548000D01*
X122744001Y-78548000D01*
X122768505Y-78549204D01*
X122768505Y-78549204D01*
G37*
D11*
X122419000Y-79248000D03*
D10*
G36*
X124818505Y-78549204D02*
G01*
X124842773Y-78552804D01*
X124866572Y-78558765D01*
X124889671Y-78567030D01*
X124911850Y-78577520D01*
X124932893Y-78590132D01*
X124952599Y-78604747D01*
X124970777Y-78621223D01*
X124987253Y-78639401D01*
X125001868Y-78659107D01*
X125014480Y-78680150D01*
X125024970Y-78702329D01*
X125033235Y-78725428D01*
X125039196Y-78749227D01*
X125042796Y-78773495D01*
X125044000Y-78797999D01*
X125044000Y-79698001D01*
X125042796Y-79722505D01*
X125039196Y-79746773D01*
X125033235Y-79770572D01*
X125024970Y-79793671D01*
X125014480Y-79815850D01*
X125001868Y-79836893D01*
X124987253Y-79856599D01*
X124970777Y-79874777D01*
X124952599Y-79891253D01*
X124932893Y-79905868D01*
X124911850Y-79918480D01*
X124889671Y-79928970D01*
X124866572Y-79937235D01*
X124842773Y-79943196D01*
X124818505Y-79946796D01*
X124794001Y-79948000D01*
X124143999Y-79948000D01*
X124119495Y-79946796D01*
X124095227Y-79943196D01*
X124071428Y-79937235D01*
X124048329Y-79928970D01*
X124026150Y-79918480D01*
X124005107Y-79905868D01*
X123985401Y-79891253D01*
X123967223Y-79874777D01*
X123950747Y-79856599D01*
X123936132Y-79836893D01*
X123923520Y-79815850D01*
X123913030Y-79793671D01*
X123904765Y-79770572D01*
X123898804Y-79746773D01*
X123895204Y-79722505D01*
X123894000Y-79698001D01*
X123894000Y-78797999D01*
X123895204Y-78773495D01*
X123898804Y-78749227D01*
X123904765Y-78725428D01*
X123913030Y-78702329D01*
X123923520Y-78680150D01*
X123936132Y-78659107D01*
X123950747Y-78639401D01*
X123967223Y-78621223D01*
X123985401Y-78604747D01*
X124005107Y-78590132D01*
X124026150Y-78577520D01*
X124048329Y-78567030D01*
X124071428Y-78558765D01*
X124095227Y-78552804D01*
X124119495Y-78549204D01*
X124143999Y-78548000D01*
X124794001Y-78548000D01*
X124818505Y-78549204D01*
X124818505Y-78549204D01*
G37*
D11*
X124469000Y-79248000D03*
D10*
G36*
X120870505Y-78692204D02*
G01*
X120894773Y-78695804D01*
X120918572Y-78701765D01*
X120941671Y-78710030D01*
X120963850Y-78720520D01*
X120984893Y-78733132D01*
X121004599Y-78747747D01*
X121022777Y-78764223D01*
X121039253Y-78782401D01*
X121053868Y-78802107D01*
X121066480Y-78823150D01*
X121076970Y-78845329D01*
X121085235Y-78868428D01*
X121091196Y-78892227D01*
X121094796Y-78916495D01*
X121096000Y-78940999D01*
X121096000Y-79591001D01*
X121094796Y-79615505D01*
X121091196Y-79639773D01*
X121085235Y-79663572D01*
X121076970Y-79686671D01*
X121066480Y-79708850D01*
X121053868Y-79729893D01*
X121039253Y-79749599D01*
X121022777Y-79767777D01*
X121004599Y-79784253D01*
X120984893Y-79798868D01*
X120963850Y-79811480D01*
X120941671Y-79821970D01*
X120918572Y-79830235D01*
X120894773Y-79836196D01*
X120870505Y-79839796D01*
X120846001Y-79841000D01*
X119945999Y-79841000D01*
X119921495Y-79839796D01*
X119897227Y-79836196D01*
X119873428Y-79830235D01*
X119850329Y-79821970D01*
X119828150Y-79811480D01*
X119807107Y-79798868D01*
X119787401Y-79784253D01*
X119769223Y-79767777D01*
X119752747Y-79749599D01*
X119738132Y-79729893D01*
X119725520Y-79708850D01*
X119715030Y-79686671D01*
X119706765Y-79663572D01*
X119700804Y-79639773D01*
X119697204Y-79615505D01*
X119696000Y-79591001D01*
X119696000Y-78940999D01*
X119697204Y-78916495D01*
X119700804Y-78892227D01*
X119706765Y-78868428D01*
X119715030Y-78845329D01*
X119725520Y-78823150D01*
X119738132Y-78802107D01*
X119752747Y-78782401D01*
X119769223Y-78764223D01*
X119787401Y-78747747D01*
X119807107Y-78733132D01*
X119828150Y-78720520D01*
X119850329Y-78710030D01*
X119873428Y-78701765D01*
X119897227Y-78695804D01*
X119921495Y-78692204D01*
X119945999Y-78691000D01*
X120846001Y-78691000D01*
X120870505Y-78692204D01*
X120870505Y-78692204D01*
G37*
D11*
X120396000Y-79266000D03*
D10*
G36*
X120870505Y-76642204D02*
G01*
X120894773Y-76645804D01*
X120918572Y-76651765D01*
X120941671Y-76660030D01*
X120963850Y-76670520D01*
X120984893Y-76683132D01*
X121004599Y-76697747D01*
X121022777Y-76714223D01*
X121039253Y-76732401D01*
X121053868Y-76752107D01*
X121066480Y-76773150D01*
X121076970Y-76795329D01*
X121085235Y-76818428D01*
X121091196Y-76842227D01*
X121094796Y-76866495D01*
X121096000Y-76890999D01*
X121096000Y-77541001D01*
X121094796Y-77565505D01*
X121091196Y-77589773D01*
X121085235Y-77613572D01*
X121076970Y-77636671D01*
X121066480Y-77658850D01*
X121053868Y-77679893D01*
X121039253Y-77699599D01*
X121022777Y-77717777D01*
X121004599Y-77734253D01*
X120984893Y-77748868D01*
X120963850Y-77761480D01*
X120941671Y-77771970D01*
X120918572Y-77780235D01*
X120894773Y-77786196D01*
X120870505Y-77789796D01*
X120846001Y-77791000D01*
X119945999Y-77791000D01*
X119921495Y-77789796D01*
X119897227Y-77786196D01*
X119873428Y-77780235D01*
X119850329Y-77771970D01*
X119828150Y-77761480D01*
X119807107Y-77748868D01*
X119787401Y-77734253D01*
X119769223Y-77717777D01*
X119752747Y-77699599D01*
X119738132Y-77679893D01*
X119725520Y-77658850D01*
X119715030Y-77636671D01*
X119706765Y-77613572D01*
X119700804Y-77589773D01*
X119697204Y-77565505D01*
X119696000Y-77541001D01*
X119696000Y-76890999D01*
X119697204Y-76866495D01*
X119700804Y-76842227D01*
X119706765Y-76818428D01*
X119715030Y-76795329D01*
X119725520Y-76773150D01*
X119738132Y-76752107D01*
X119752747Y-76732401D01*
X119769223Y-76714223D01*
X119787401Y-76697747D01*
X119807107Y-76683132D01*
X119828150Y-76670520D01*
X119850329Y-76660030D01*
X119873428Y-76651765D01*
X119897227Y-76645804D01*
X119921495Y-76642204D01*
X119945999Y-76641000D01*
X120846001Y-76641000D01*
X120870505Y-76642204D01*
X120870505Y-76642204D01*
G37*
D11*
X120396000Y-77216000D03*
D10*
G36*
X88244505Y-75601204D02*
G01*
X88268773Y-75604804D01*
X88292572Y-75610765D01*
X88315671Y-75619030D01*
X88337850Y-75629520D01*
X88358893Y-75642132D01*
X88378599Y-75656747D01*
X88396777Y-75673223D01*
X88413253Y-75691401D01*
X88427868Y-75711107D01*
X88440480Y-75732150D01*
X88450970Y-75754329D01*
X88459235Y-75777428D01*
X88465196Y-75801227D01*
X88468796Y-75825495D01*
X88470000Y-75849999D01*
X88470000Y-77550001D01*
X88468796Y-77574505D01*
X88465196Y-77598773D01*
X88459235Y-77622572D01*
X88450970Y-77645671D01*
X88440480Y-77667850D01*
X88427868Y-77688893D01*
X88413253Y-77708599D01*
X88396777Y-77726777D01*
X88378599Y-77743253D01*
X88358893Y-77757868D01*
X88337850Y-77770480D01*
X88315671Y-77780970D01*
X88292572Y-77789235D01*
X88268773Y-77795196D01*
X88244505Y-77798796D01*
X88220001Y-77800000D01*
X86979999Y-77800000D01*
X86955495Y-77798796D01*
X86931227Y-77795196D01*
X86907428Y-77789235D01*
X86884329Y-77780970D01*
X86862150Y-77770480D01*
X86841107Y-77757868D01*
X86821401Y-77743253D01*
X86803223Y-77726777D01*
X86786747Y-77708599D01*
X86772132Y-77688893D01*
X86759520Y-77667850D01*
X86749030Y-77645671D01*
X86740765Y-77622572D01*
X86734804Y-77598773D01*
X86731204Y-77574505D01*
X86730000Y-77550001D01*
X86730000Y-75849999D01*
X86731204Y-75825495D01*
X86734804Y-75801227D01*
X86740765Y-75777428D01*
X86749030Y-75754329D01*
X86759520Y-75732150D01*
X86772132Y-75711107D01*
X86786747Y-75691401D01*
X86803223Y-75673223D01*
X86821401Y-75656747D01*
X86841107Y-75642132D01*
X86862150Y-75629520D01*
X86884329Y-75619030D01*
X86907428Y-75610765D01*
X86931227Y-75604804D01*
X86955495Y-75601204D01*
X86979999Y-75600000D01*
X88220001Y-75600000D01*
X88244505Y-75601204D01*
X88244505Y-75601204D01*
G37*
D12*
X87600000Y-76700000D03*
D13*
X90140000Y-76700000D03*
X153924000Y-72136000D03*
D10*
G36*
X152028505Y-71037204D02*
G01*
X152052773Y-71040804D01*
X152076572Y-71046765D01*
X152099671Y-71055030D01*
X152121850Y-71065520D01*
X152142893Y-71078132D01*
X152162599Y-71092747D01*
X152180777Y-71109223D01*
X152197253Y-71127401D01*
X152211868Y-71147107D01*
X152224480Y-71168150D01*
X152234970Y-71190329D01*
X152243235Y-71213428D01*
X152249196Y-71237227D01*
X152252796Y-71261495D01*
X152254000Y-71285999D01*
X152254000Y-72986001D01*
X152252796Y-73010505D01*
X152249196Y-73034773D01*
X152243235Y-73058572D01*
X152234970Y-73081671D01*
X152224480Y-73103850D01*
X152211868Y-73124893D01*
X152197253Y-73144599D01*
X152180777Y-73162777D01*
X152162599Y-73179253D01*
X152142893Y-73193868D01*
X152121850Y-73206480D01*
X152099671Y-73216970D01*
X152076572Y-73225235D01*
X152052773Y-73231196D01*
X152028505Y-73234796D01*
X152004001Y-73236000D01*
X150763999Y-73236000D01*
X150739495Y-73234796D01*
X150715227Y-73231196D01*
X150691428Y-73225235D01*
X150668329Y-73216970D01*
X150646150Y-73206480D01*
X150625107Y-73193868D01*
X150605401Y-73179253D01*
X150587223Y-73162777D01*
X150570747Y-73144599D01*
X150556132Y-73124893D01*
X150543520Y-73103850D01*
X150533030Y-73081671D01*
X150524765Y-73058572D01*
X150518804Y-73034773D01*
X150515204Y-73010505D01*
X150514000Y-72986001D01*
X150514000Y-71285999D01*
X150515204Y-71261495D01*
X150518804Y-71237227D01*
X150524765Y-71213428D01*
X150533030Y-71190329D01*
X150543520Y-71168150D01*
X150556132Y-71147107D01*
X150570747Y-71127401D01*
X150587223Y-71109223D01*
X150605401Y-71092747D01*
X150625107Y-71078132D01*
X150646150Y-71065520D01*
X150668329Y-71055030D01*
X150691428Y-71046765D01*
X150715227Y-71040804D01*
X150739495Y-71037204D01*
X150763999Y-71036000D01*
X152004001Y-71036000D01*
X152028505Y-71037204D01*
X152028505Y-71037204D01*
G37*
D12*
X151384000Y-72136000D03*
D10*
G36*
X152028505Y-78657204D02*
G01*
X152052773Y-78660804D01*
X152076572Y-78666765D01*
X152099671Y-78675030D01*
X152121850Y-78685520D01*
X152142893Y-78698132D01*
X152162599Y-78712747D01*
X152180777Y-78729223D01*
X152197253Y-78747401D01*
X152211868Y-78767107D01*
X152224480Y-78788150D01*
X152234970Y-78810329D01*
X152243235Y-78833428D01*
X152249196Y-78857227D01*
X152252796Y-78881495D01*
X152254000Y-78905999D01*
X152254000Y-80606001D01*
X152252796Y-80630505D01*
X152249196Y-80654773D01*
X152243235Y-80678572D01*
X152234970Y-80701671D01*
X152224480Y-80723850D01*
X152211868Y-80744893D01*
X152197253Y-80764599D01*
X152180777Y-80782777D01*
X152162599Y-80799253D01*
X152142893Y-80813868D01*
X152121850Y-80826480D01*
X152099671Y-80836970D01*
X152076572Y-80845235D01*
X152052773Y-80851196D01*
X152028505Y-80854796D01*
X152004001Y-80856000D01*
X150763999Y-80856000D01*
X150739495Y-80854796D01*
X150715227Y-80851196D01*
X150691428Y-80845235D01*
X150668329Y-80836970D01*
X150646150Y-80826480D01*
X150625107Y-80813868D01*
X150605401Y-80799253D01*
X150587223Y-80782777D01*
X150570747Y-80764599D01*
X150556132Y-80744893D01*
X150543520Y-80723850D01*
X150533030Y-80701671D01*
X150524765Y-80678572D01*
X150518804Y-80654773D01*
X150515204Y-80630505D01*
X150514000Y-80606001D01*
X150514000Y-78905999D01*
X150515204Y-78881495D01*
X150518804Y-78857227D01*
X150524765Y-78833428D01*
X150533030Y-78810329D01*
X150543520Y-78788150D01*
X150556132Y-78767107D01*
X150570747Y-78747401D01*
X150587223Y-78729223D01*
X150605401Y-78712747D01*
X150625107Y-78698132D01*
X150646150Y-78685520D01*
X150668329Y-78675030D01*
X150691428Y-78666765D01*
X150715227Y-78660804D01*
X150739495Y-78657204D01*
X150763999Y-78656000D01*
X152004001Y-78656000D01*
X152028505Y-78657204D01*
X152028505Y-78657204D01*
G37*
D12*
X151384000Y-79756000D03*
D13*
X153924000Y-79756000D03*
D10*
G36*
X145424505Y-71037204D02*
G01*
X145448773Y-71040804D01*
X145472572Y-71046765D01*
X145495671Y-71055030D01*
X145517850Y-71065520D01*
X145538893Y-71078132D01*
X145558599Y-71092747D01*
X145576777Y-71109223D01*
X145593253Y-71127401D01*
X145607868Y-71147107D01*
X145620480Y-71168150D01*
X145630970Y-71190329D01*
X145639235Y-71213428D01*
X145645196Y-71237227D01*
X145648796Y-71261495D01*
X145650000Y-71285999D01*
X145650000Y-72986001D01*
X145648796Y-73010505D01*
X145645196Y-73034773D01*
X145639235Y-73058572D01*
X145630970Y-73081671D01*
X145620480Y-73103850D01*
X145607868Y-73124893D01*
X145593253Y-73144599D01*
X145576777Y-73162777D01*
X145558599Y-73179253D01*
X145538893Y-73193868D01*
X145517850Y-73206480D01*
X145495671Y-73216970D01*
X145472572Y-73225235D01*
X145448773Y-73231196D01*
X145424505Y-73234796D01*
X145400001Y-73236000D01*
X144159999Y-73236000D01*
X144135495Y-73234796D01*
X144111227Y-73231196D01*
X144087428Y-73225235D01*
X144064329Y-73216970D01*
X144042150Y-73206480D01*
X144021107Y-73193868D01*
X144001401Y-73179253D01*
X143983223Y-73162777D01*
X143966747Y-73144599D01*
X143952132Y-73124893D01*
X143939520Y-73103850D01*
X143929030Y-73081671D01*
X143920765Y-73058572D01*
X143914804Y-73034773D01*
X143911204Y-73010505D01*
X143910000Y-72986001D01*
X143910000Y-71285999D01*
X143911204Y-71261495D01*
X143914804Y-71237227D01*
X143920765Y-71213428D01*
X143929030Y-71190329D01*
X143939520Y-71168150D01*
X143952132Y-71147107D01*
X143966747Y-71127401D01*
X143983223Y-71109223D01*
X144001401Y-71092747D01*
X144021107Y-71078132D01*
X144042150Y-71065520D01*
X144064329Y-71055030D01*
X144087428Y-71046765D01*
X144111227Y-71040804D01*
X144135495Y-71037204D01*
X144159999Y-71036000D01*
X145400001Y-71036000D01*
X145424505Y-71037204D01*
X145424505Y-71037204D01*
G37*
D12*
X144780000Y-72136000D03*
D13*
X147320000Y-72136000D03*
D10*
G36*
X128152505Y-85769204D02*
G01*
X128176773Y-85772804D01*
X128200572Y-85778765D01*
X128223671Y-85787030D01*
X128245850Y-85797520D01*
X128266893Y-85810132D01*
X128286599Y-85824747D01*
X128304777Y-85841223D01*
X128321253Y-85859401D01*
X128335868Y-85879107D01*
X128348480Y-85900150D01*
X128358970Y-85922329D01*
X128367235Y-85945428D01*
X128373196Y-85969227D01*
X128376796Y-85993495D01*
X128378000Y-86017999D01*
X128378000Y-87718001D01*
X128376796Y-87742505D01*
X128373196Y-87766773D01*
X128367235Y-87790572D01*
X128358970Y-87813671D01*
X128348480Y-87835850D01*
X128335868Y-87856893D01*
X128321253Y-87876599D01*
X128304777Y-87894777D01*
X128286599Y-87911253D01*
X128266893Y-87925868D01*
X128245850Y-87938480D01*
X128223671Y-87948970D01*
X128200572Y-87957235D01*
X128176773Y-87963196D01*
X128152505Y-87966796D01*
X128128001Y-87968000D01*
X126887999Y-87968000D01*
X126863495Y-87966796D01*
X126839227Y-87963196D01*
X126815428Y-87957235D01*
X126792329Y-87948970D01*
X126770150Y-87938480D01*
X126749107Y-87925868D01*
X126729401Y-87911253D01*
X126711223Y-87894777D01*
X126694747Y-87876599D01*
X126680132Y-87856893D01*
X126667520Y-87835850D01*
X126657030Y-87813671D01*
X126648765Y-87790572D01*
X126642804Y-87766773D01*
X126639204Y-87742505D01*
X126638000Y-87718001D01*
X126638000Y-86017999D01*
X126639204Y-85993495D01*
X126642804Y-85969227D01*
X126648765Y-85945428D01*
X126657030Y-85922329D01*
X126667520Y-85900150D01*
X126680132Y-85879107D01*
X126694747Y-85859401D01*
X126711223Y-85841223D01*
X126729401Y-85824747D01*
X126749107Y-85810132D01*
X126770150Y-85797520D01*
X126792329Y-85787030D01*
X126815428Y-85778765D01*
X126839227Y-85772804D01*
X126863495Y-85769204D01*
X126887999Y-85768000D01*
X128128001Y-85768000D01*
X128152505Y-85769204D01*
X128152505Y-85769204D01*
G37*
D12*
X127508000Y-86868000D03*
D13*
X130048000Y-86868000D03*
X132588000Y-86868000D03*
X135128000Y-86868000D03*
X137668000Y-86868000D03*
D10*
G36*
X145424505Y-78657204D02*
G01*
X145448773Y-78660804D01*
X145472572Y-78666765D01*
X145495671Y-78675030D01*
X145517850Y-78685520D01*
X145538893Y-78698132D01*
X145558599Y-78712747D01*
X145576777Y-78729223D01*
X145593253Y-78747401D01*
X145607868Y-78767107D01*
X145620480Y-78788150D01*
X145630970Y-78810329D01*
X145639235Y-78833428D01*
X145645196Y-78857227D01*
X145648796Y-78881495D01*
X145650000Y-78905999D01*
X145650000Y-80606001D01*
X145648796Y-80630505D01*
X145645196Y-80654773D01*
X145639235Y-80678572D01*
X145630970Y-80701671D01*
X145620480Y-80723850D01*
X145607868Y-80744893D01*
X145593253Y-80764599D01*
X145576777Y-80782777D01*
X145558599Y-80799253D01*
X145538893Y-80813868D01*
X145517850Y-80826480D01*
X145495671Y-80836970D01*
X145472572Y-80845235D01*
X145448773Y-80851196D01*
X145424505Y-80854796D01*
X145400001Y-80856000D01*
X144159999Y-80856000D01*
X144135495Y-80854796D01*
X144111227Y-80851196D01*
X144087428Y-80845235D01*
X144064329Y-80836970D01*
X144042150Y-80826480D01*
X144021107Y-80813868D01*
X144001401Y-80799253D01*
X143983223Y-80782777D01*
X143966747Y-80764599D01*
X143952132Y-80744893D01*
X143939520Y-80723850D01*
X143929030Y-80701671D01*
X143920765Y-80678572D01*
X143914804Y-80654773D01*
X143911204Y-80630505D01*
X143910000Y-80606001D01*
X143910000Y-78905999D01*
X143911204Y-78881495D01*
X143914804Y-78857227D01*
X143920765Y-78833428D01*
X143929030Y-78810329D01*
X143939520Y-78788150D01*
X143952132Y-78767107D01*
X143966747Y-78747401D01*
X143983223Y-78729223D01*
X144001401Y-78712747D01*
X144021107Y-78698132D01*
X144042150Y-78685520D01*
X144064329Y-78675030D01*
X144087428Y-78666765D01*
X144111227Y-78660804D01*
X144135495Y-78657204D01*
X144159999Y-78656000D01*
X145400001Y-78656000D01*
X145424505Y-78657204D01*
X145424505Y-78657204D01*
G37*
D12*
X144780000Y-79756000D03*
D13*
X147320000Y-79756000D03*
X98040000Y-76708000D03*
D10*
G36*
X96144505Y-75609204D02*
G01*
X96168773Y-75612804D01*
X96192572Y-75618765D01*
X96215671Y-75627030D01*
X96237850Y-75637520D01*
X96258893Y-75650132D01*
X96278599Y-75664747D01*
X96296777Y-75681223D01*
X96313253Y-75699401D01*
X96327868Y-75719107D01*
X96340480Y-75740150D01*
X96350970Y-75762329D01*
X96359235Y-75785428D01*
X96365196Y-75809227D01*
X96368796Y-75833495D01*
X96370000Y-75857999D01*
X96370000Y-77558001D01*
X96368796Y-77582505D01*
X96365196Y-77606773D01*
X96359235Y-77630572D01*
X96350970Y-77653671D01*
X96340480Y-77675850D01*
X96327868Y-77696893D01*
X96313253Y-77716599D01*
X96296777Y-77734777D01*
X96278599Y-77751253D01*
X96258893Y-77765868D01*
X96237850Y-77778480D01*
X96215671Y-77788970D01*
X96192572Y-77797235D01*
X96168773Y-77803196D01*
X96144505Y-77806796D01*
X96120001Y-77808000D01*
X94879999Y-77808000D01*
X94855495Y-77806796D01*
X94831227Y-77803196D01*
X94807428Y-77797235D01*
X94784329Y-77788970D01*
X94762150Y-77778480D01*
X94741107Y-77765868D01*
X94721401Y-77751253D01*
X94703223Y-77734777D01*
X94686747Y-77716599D01*
X94672132Y-77696893D01*
X94659520Y-77675850D01*
X94649030Y-77653671D01*
X94640765Y-77630572D01*
X94634804Y-77606773D01*
X94631204Y-77582505D01*
X94630000Y-77558001D01*
X94630000Y-75857999D01*
X94631204Y-75833495D01*
X94634804Y-75809227D01*
X94640765Y-75785428D01*
X94649030Y-75762329D01*
X94659520Y-75740150D01*
X94672132Y-75719107D01*
X94686747Y-75699401D01*
X94703223Y-75681223D01*
X94721401Y-75664747D01*
X94741107Y-75650132D01*
X94762150Y-75637520D01*
X94784329Y-75627030D01*
X94807428Y-75618765D01*
X94831227Y-75612804D01*
X94855495Y-75609204D01*
X94879999Y-75608000D01*
X96120001Y-75608000D01*
X96144505Y-75609204D01*
X96144505Y-75609204D01*
G37*
D12*
X95500000Y-76708000D03*
D14*
X125605000Y-82296000D03*
X123315000Y-82296000D03*
D15*
X117856000Y-87626000D03*
X117856000Y-89916000D03*
D16*
X136022000Y-74930000D03*
X137922000Y-74930000D03*
X136972000Y-78350000D03*
D10*
G36*
X123971953Y-74674523D02*
G01*
X123996221Y-74678123D01*
X124020020Y-74684084D01*
X124043119Y-74692349D01*
X124065298Y-74702839D01*
X124086341Y-74715451D01*
X124106047Y-74730066D01*
X124124225Y-74746542D01*
X124140701Y-74764720D01*
X124155316Y-74784426D01*
X124167928Y-74805469D01*
X124178418Y-74827648D01*
X124186683Y-74850747D01*
X124192644Y-74874546D01*
X124196244Y-74898814D01*
X124197448Y-74923318D01*
X124197448Y-75573320D01*
X124196244Y-75597824D01*
X124192644Y-75622092D01*
X124186683Y-75645891D01*
X124178418Y-75668990D01*
X124167928Y-75691169D01*
X124155316Y-75712212D01*
X124140701Y-75731918D01*
X124124225Y-75750096D01*
X124106047Y-75766572D01*
X124086341Y-75781187D01*
X124065298Y-75793799D01*
X124043119Y-75804289D01*
X124020020Y-75812554D01*
X123996221Y-75818515D01*
X123971953Y-75822115D01*
X123947449Y-75823319D01*
X123047447Y-75823319D01*
X123022943Y-75822115D01*
X122998675Y-75818515D01*
X122974876Y-75812554D01*
X122951777Y-75804289D01*
X122929598Y-75793799D01*
X122908555Y-75781187D01*
X122888849Y-75766572D01*
X122870671Y-75750096D01*
X122854195Y-75731918D01*
X122839580Y-75712212D01*
X122826968Y-75691169D01*
X122816478Y-75668990D01*
X122808213Y-75645891D01*
X122802252Y-75622092D01*
X122798652Y-75597824D01*
X122797448Y-75573320D01*
X122797448Y-74923318D01*
X122798652Y-74898814D01*
X122802252Y-74874546D01*
X122808213Y-74850747D01*
X122816478Y-74827648D01*
X122826968Y-74805469D01*
X122839580Y-74784426D01*
X122854195Y-74764720D01*
X122870671Y-74746542D01*
X122888849Y-74730066D01*
X122908555Y-74715451D01*
X122929598Y-74702839D01*
X122951777Y-74692349D01*
X122974876Y-74684084D01*
X122998675Y-74678123D01*
X123022943Y-74674523D01*
X123047447Y-74673319D01*
X123947449Y-74673319D01*
X123971953Y-74674523D01*
X123971953Y-74674523D01*
G37*
D11*
X123497448Y-75248319D03*
D10*
G36*
X123971953Y-76724523D02*
G01*
X123996221Y-76728123D01*
X124020020Y-76734084D01*
X124043119Y-76742349D01*
X124065298Y-76752839D01*
X124086341Y-76765451D01*
X124106047Y-76780066D01*
X124124225Y-76796542D01*
X124140701Y-76814720D01*
X124155316Y-76834426D01*
X124167928Y-76855469D01*
X124178418Y-76877648D01*
X124186683Y-76900747D01*
X124192644Y-76924546D01*
X124196244Y-76948814D01*
X124197448Y-76973318D01*
X124197448Y-77623320D01*
X124196244Y-77647824D01*
X124192644Y-77672092D01*
X124186683Y-77695891D01*
X124178418Y-77718990D01*
X124167928Y-77741169D01*
X124155316Y-77762212D01*
X124140701Y-77781918D01*
X124124225Y-77800096D01*
X124106047Y-77816572D01*
X124086341Y-77831187D01*
X124065298Y-77843799D01*
X124043119Y-77854289D01*
X124020020Y-77862554D01*
X123996221Y-77868515D01*
X123971953Y-77872115D01*
X123947449Y-77873319D01*
X123047447Y-77873319D01*
X123022943Y-77872115D01*
X122998675Y-77868515D01*
X122974876Y-77862554D01*
X122951777Y-77854289D01*
X122929598Y-77843799D01*
X122908555Y-77831187D01*
X122888849Y-77816572D01*
X122870671Y-77800096D01*
X122854195Y-77781918D01*
X122839580Y-77762212D01*
X122826968Y-77741169D01*
X122816478Y-77718990D01*
X122808213Y-77695891D01*
X122802252Y-77672092D01*
X122798652Y-77647824D01*
X122797448Y-77623320D01*
X122797448Y-76973318D01*
X122798652Y-76948814D01*
X122802252Y-76924546D01*
X122808213Y-76900747D01*
X122816478Y-76877648D01*
X122826968Y-76855469D01*
X122839580Y-76834426D01*
X122854195Y-76814720D01*
X122870671Y-76796542D01*
X122888849Y-76780066D01*
X122908555Y-76765451D01*
X122929598Y-76752839D01*
X122951777Y-76742349D01*
X122974876Y-76734084D01*
X122998675Y-76728123D01*
X123022943Y-76724523D01*
X123047447Y-76723319D01*
X123947449Y-76723319D01*
X123971953Y-76724523D01*
X123971953Y-76724523D01*
G37*
D11*
X123497448Y-77298319D03*
D10*
G36*
X120798953Y-74567523D02*
G01*
X120823221Y-74571123D01*
X120847020Y-74577084D01*
X120870119Y-74585349D01*
X120892298Y-74595839D01*
X120913341Y-74608451D01*
X120933047Y-74623066D01*
X120951225Y-74639542D01*
X120967701Y-74657720D01*
X120982316Y-74677426D01*
X120994928Y-74698469D01*
X121005418Y-74720648D01*
X121013683Y-74743747D01*
X121019644Y-74767546D01*
X121023244Y-74791814D01*
X121024448Y-74816318D01*
X121024448Y-75716320D01*
X121023244Y-75740824D01*
X121019644Y-75765092D01*
X121013683Y-75788891D01*
X121005418Y-75811990D01*
X120994928Y-75834169D01*
X120982316Y-75855212D01*
X120967701Y-75874918D01*
X120951225Y-75893096D01*
X120933047Y-75909572D01*
X120913341Y-75924187D01*
X120892298Y-75936799D01*
X120870119Y-75947289D01*
X120847020Y-75955554D01*
X120823221Y-75961515D01*
X120798953Y-75965115D01*
X120774449Y-75966319D01*
X120124447Y-75966319D01*
X120099943Y-75965115D01*
X120075675Y-75961515D01*
X120051876Y-75955554D01*
X120028777Y-75947289D01*
X120006598Y-75936799D01*
X119985555Y-75924187D01*
X119965849Y-75909572D01*
X119947671Y-75893096D01*
X119931195Y-75874918D01*
X119916580Y-75855212D01*
X119903968Y-75834169D01*
X119893478Y-75811990D01*
X119885213Y-75788891D01*
X119879252Y-75765092D01*
X119875652Y-75740824D01*
X119874448Y-75716320D01*
X119874448Y-74816318D01*
X119875652Y-74791814D01*
X119879252Y-74767546D01*
X119885213Y-74743747D01*
X119893478Y-74720648D01*
X119903968Y-74698469D01*
X119916580Y-74677426D01*
X119931195Y-74657720D01*
X119947671Y-74639542D01*
X119965849Y-74623066D01*
X119985555Y-74608451D01*
X120006598Y-74595839D01*
X120028777Y-74585349D01*
X120051876Y-74577084D01*
X120075675Y-74571123D01*
X120099943Y-74567523D01*
X120124447Y-74566319D01*
X120774449Y-74566319D01*
X120798953Y-74567523D01*
X120798953Y-74567523D01*
G37*
D11*
X120449448Y-75266319D03*
D10*
G36*
X118748953Y-74567523D02*
G01*
X118773221Y-74571123D01*
X118797020Y-74577084D01*
X118820119Y-74585349D01*
X118842298Y-74595839D01*
X118863341Y-74608451D01*
X118883047Y-74623066D01*
X118901225Y-74639542D01*
X118917701Y-74657720D01*
X118932316Y-74677426D01*
X118944928Y-74698469D01*
X118955418Y-74720648D01*
X118963683Y-74743747D01*
X118969644Y-74767546D01*
X118973244Y-74791814D01*
X118974448Y-74816318D01*
X118974448Y-75716320D01*
X118973244Y-75740824D01*
X118969644Y-75765092D01*
X118963683Y-75788891D01*
X118955418Y-75811990D01*
X118944928Y-75834169D01*
X118932316Y-75855212D01*
X118917701Y-75874918D01*
X118901225Y-75893096D01*
X118883047Y-75909572D01*
X118863341Y-75924187D01*
X118842298Y-75936799D01*
X118820119Y-75947289D01*
X118797020Y-75955554D01*
X118773221Y-75961515D01*
X118748953Y-75965115D01*
X118724449Y-75966319D01*
X118074447Y-75966319D01*
X118049943Y-75965115D01*
X118025675Y-75961515D01*
X118001876Y-75955554D01*
X117978777Y-75947289D01*
X117956598Y-75936799D01*
X117935555Y-75924187D01*
X117915849Y-75909572D01*
X117897671Y-75893096D01*
X117881195Y-75874918D01*
X117866580Y-75855212D01*
X117853968Y-75834169D01*
X117843478Y-75811990D01*
X117835213Y-75788891D01*
X117829252Y-75765092D01*
X117825652Y-75740824D01*
X117824448Y-75716320D01*
X117824448Y-74816318D01*
X117825652Y-74791814D01*
X117829252Y-74767546D01*
X117835213Y-74743747D01*
X117843478Y-74720648D01*
X117853968Y-74698469D01*
X117866580Y-74677426D01*
X117881195Y-74657720D01*
X117897671Y-74639542D01*
X117915849Y-74623066D01*
X117935555Y-74608451D01*
X117956598Y-74595839D01*
X117978777Y-74585349D01*
X118001876Y-74577084D01*
X118025675Y-74571123D01*
X118049943Y-74567523D01*
X118074447Y-74566319D01*
X118724449Y-74566319D01*
X118748953Y-74567523D01*
X118748953Y-74567523D01*
G37*
D11*
X118399448Y-75266319D03*
D17*
X105156000Y-85344000D03*
X107696000Y-85344000D03*
X110236000Y-85344000D03*
X115316000Y-85344000D03*
X117856000Y-85344000D03*
X120396000Y-85344000D03*
X122936000Y-85344000D03*
D18*
X132133448Y-74250319D03*
X132133448Y-75520319D03*
X132133448Y-76790319D03*
X132133448Y-78060319D03*
X126733448Y-78060319D03*
X126733448Y-76790319D03*
X126733448Y-75520319D03*
X126733448Y-74250319D03*
D19*
X108966000Y-60960000D03*
X108966000Y-70660000D03*
X122174000Y-70660000D03*
X122174000Y-60960000D03*
X135382000Y-60960000D03*
X135382000Y-70660000D03*
D20*
X152400000Y-86360000D03*
X99314000Y-86360000D03*
X87630000Y-50800000D03*
X152400000Y-50800000D03*
D21*
X94234000Y-49530000D03*
D22*
X96774000Y-52070000D03*
X96774000Y-46990000D03*
X91694000Y-46990000D03*
X91694000Y-52070000D03*
X100076000Y-52070000D03*
X100076000Y-46990000D03*
X105156000Y-46990000D03*
X105156000Y-52070000D03*
D21*
X102616000Y-49530000D03*
X110998000Y-49530000D03*
D22*
X113538000Y-52070000D03*
X113538000Y-46990000D03*
X108458000Y-46990000D03*
X108458000Y-52070000D03*
D10*
G36*
X113849505Y-55301204D02*
G01*
X113873773Y-55304804D01*
X113897572Y-55310765D01*
X113920671Y-55319030D01*
X113942850Y-55329520D01*
X113963893Y-55342132D01*
X113983599Y-55356747D01*
X114001777Y-55373223D01*
X114018253Y-55391401D01*
X114032868Y-55411107D01*
X114045480Y-55432150D01*
X114055970Y-55454329D01*
X114064235Y-55477428D01*
X114070196Y-55501227D01*
X114073796Y-55525495D01*
X114075000Y-55549999D01*
X114075000Y-56450001D01*
X114073796Y-56474505D01*
X114070196Y-56498773D01*
X114064235Y-56522572D01*
X114055970Y-56545671D01*
X114045480Y-56567850D01*
X114032868Y-56588893D01*
X114018253Y-56608599D01*
X114001777Y-56626777D01*
X113983599Y-56643253D01*
X113963893Y-56657868D01*
X113942850Y-56670480D01*
X113920671Y-56680970D01*
X113897572Y-56689235D01*
X113873773Y-56695196D01*
X113849505Y-56698796D01*
X113825001Y-56700000D01*
X113174999Y-56700000D01*
X113150495Y-56698796D01*
X113126227Y-56695196D01*
X113102428Y-56689235D01*
X113079329Y-56680970D01*
X113057150Y-56670480D01*
X113036107Y-56657868D01*
X113016401Y-56643253D01*
X112998223Y-56626777D01*
X112981747Y-56608599D01*
X112967132Y-56588893D01*
X112954520Y-56567850D01*
X112944030Y-56545671D01*
X112935765Y-56522572D01*
X112929804Y-56498773D01*
X112926204Y-56474505D01*
X112925000Y-56450001D01*
X112925000Y-55549999D01*
X112926204Y-55525495D01*
X112929804Y-55501227D01*
X112935765Y-55477428D01*
X112944030Y-55454329D01*
X112954520Y-55432150D01*
X112967132Y-55411107D01*
X112981747Y-55391401D01*
X112998223Y-55373223D01*
X113016401Y-55356747D01*
X113036107Y-55342132D01*
X113057150Y-55329520D01*
X113079329Y-55319030D01*
X113102428Y-55310765D01*
X113126227Y-55304804D01*
X113150495Y-55301204D01*
X113174999Y-55300000D01*
X113825001Y-55300000D01*
X113849505Y-55301204D01*
X113849505Y-55301204D01*
G37*
D11*
X113500000Y-56000000D03*
D10*
G36*
X111799505Y-55301204D02*
G01*
X111823773Y-55304804D01*
X111847572Y-55310765D01*
X111870671Y-55319030D01*
X111892850Y-55329520D01*
X111913893Y-55342132D01*
X111933599Y-55356747D01*
X111951777Y-55373223D01*
X111968253Y-55391401D01*
X111982868Y-55411107D01*
X111995480Y-55432150D01*
X112005970Y-55454329D01*
X112014235Y-55477428D01*
X112020196Y-55501227D01*
X112023796Y-55525495D01*
X112025000Y-55549999D01*
X112025000Y-56450001D01*
X112023796Y-56474505D01*
X112020196Y-56498773D01*
X112014235Y-56522572D01*
X112005970Y-56545671D01*
X111995480Y-56567850D01*
X111982868Y-56588893D01*
X111968253Y-56608599D01*
X111951777Y-56626777D01*
X111933599Y-56643253D01*
X111913893Y-56657868D01*
X111892850Y-56670480D01*
X111870671Y-56680970D01*
X111847572Y-56689235D01*
X111823773Y-56695196D01*
X111799505Y-56698796D01*
X111775001Y-56700000D01*
X111124999Y-56700000D01*
X111100495Y-56698796D01*
X111076227Y-56695196D01*
X111052428Y-56689235D01*
X111029329Y-56680970D01*
X111007150Y-56670480D01*
X110986107Y-56657868D01*
X110966401Y-56643253D01*
X110948223Y-56626777D01*
X110931747Y-56608599D01*
X110917132Y-56588893D01*
X110904520Y-56567850D01*
X110894030Y-56545671D01*
X110885765Y-56522572D01*
X110879804Y-56498773D01*
X110876204Y-56474505D01*
X110875000Y-56450001D01*
X110875000Y-55549999D01*
X110876204Y-55525495D01*
X110879804Y-55501227D01*
X110885765Y-55477428D01*
X110894030Y-55454329D01*
X110904520Y-55432150D01*
X110917132Y-55411107D01*
X110931747Y-55391401D01*
X110948223Y-55373223D01*
X110966401Y-55356747D01*
X110986107Y-55342132D01*
X111007150Y-55329520D01*
X111029329Y-55319030D01*
X111052428Y-55310765D01*
X111076227Y-55304804D01*
X111100495Y-55301204D01*
X111124999Y-55300000D01*
X111775001Y-55300000D01*
X111799505Y-55301204D01*
X111799505Y-55301204D01*
G37*
D11*
X111450000Y-56000000D03*
D10*
G36*
X109399505Y-55301204D02*
G01*
X109423773Y-55304804D01*
X109447572Y-55310765D01*
X109470671Y-55319030D01*
X109492850Y-55329520D01*
X109513893Y-55342132D01*
X109533599Y-55356747D01*
X109551777Y-55373223D01*
X109568253Y-55391401D01*
X109582868Y-55411107D01*
X109595480Y-55432150D01*
X109605970Y-55454329D01*
X109614235Y-55477428D01*
X109620196Y-55501227D01*
X109623796Y-55525495D01*
X109625000Y-55549999D01*
X109625000Y-56450001D01*
X109623796Y-56474505D01*
X109620196Y-56498773D01*
X109614235Y-56522572D01*
X109605970Y-56545671D01*
X109595480Y-56567850D01*
X109582868Y-56588893D01*
X109568253Y-56608599D01*
X109551777Y-56626777D01*
X109533599Y-56643253D01*
X109513893Y-56657868D01*
X109492850Y-56670480D01*
X109470671Y-56680970D01*
X109447572Y-56689235D01*
X109423773Y-56695196D01*
X109399505Y-56698796D01*
X109375001Y-56700000D01*
X108724999Y-56700000D01*
X108700495Y-56698796D01*
X108676227Y-56695196D01*
X108652428Y-56689235D01*
X108629329Y-56680970D01*
X108607150Y-56670480D01*
X108586107Y-56657868D01*
X108566401Y-56643253D01*
X108548223Y-56626777D01*
X108531747Y-56608599D01*
X108517132Y-56588893D01*
X108504520Y-56567850D01*
X108494030Y-56545671D01*
X108485765Y-56522572D01*
X108479804Y-56498773D01*
X108476204Y-56474505D01*
X108475000Y-56450001D01*
X108475000Y-55549999D01*
X108476204Y-55525495D01*
X108479804Y-55501227D01*
X108485765Y-55477428D01*
X108494030Y-55454329D01*
X108504520Y-55432150D01*
X108517132Y-55411107D01*
X108531747Y-55391401D01*
X108548223Y-55373223D01*
X108566401Y-55356747D01*
X108586107Y-55342132D01*
X108607150Y-55329520D01*
X108629329Y-55319030D01*
X108652428Y-55310765D01*
X108676227Y-55304804D01*
X108700495Y-55301204D01*
X108724999Y-55300000D01*
X109375001Y-55300000D01*
X109399505Y-55301204D01*
X109399505Y-55301204D01*
G37*
D11*
X109050000Y-56000000D03*
D10*
G36*
X107349505Y-55301204D02*
G01*
X107373773Y-55304804D01*
X107397572Y-55310765D01*
X107420671Y-55319030D01*
X107442850Y-55329520D01*
X107463893Y-55342132D01*
X107483599Y-55356747D01*
X107501777Y-55373223D01*
X107518253Y-55391401D01*
X107532868Y-55411107D01*
X107545480Y-55432150D01*
X107555970Y-55454329D01*
X107564235Y-55477428D01*
X107570196Y-55501227D01*
X107573796Y-55525495D01*
X107575000Y-55549999D01*
X107575000Y-56450001D01*
X107573796Y-56474505D01*
X107570196Y-56498773D01*
X107564235Y-56522572D01*
X107555970Y-56545671D01*
X107545480Y-56567850D01*
X107532868Y-56588893D01*
X107518253Y-56608599D01*
X107501777Y-56626777D01*
X107483599Y-56643253D01*
X107463893Y-56657868D01*
X107442850Y-56670480D01*
X107420671Y-56680970D01*
X107397572Y-56689235D01*
X107373773Y-56695196D01*
X107349505Y-56698796D01*
X107325001Y-56700000D01*
X106674999Y-56700000D01*
X106650495Y-56698796D01*
X106626227Y-56695196D01*
X106602428Y-56689235D01*
X106579329Y-56680970D01*
X106557150Y-56670480D01*
X106536107Y-56657868D01*
X106516401Y-56643253D01*
X106498223Y-56626777D01*
X106481747Y-56608599D01*
X106467132Y-56588893D01*
X106454520Y-56567850D01*
X106444030Y-56545671D01*
X106435765Y-56522572D01*
X106429804Y-56498773D01*
X106426204Y-56474505D01*
X106425000Y-56450001D01*
X106425000Y-55549999D01*
X106426204Y-55525495D01*
X106429804Y-55501227D01*
X106435765Y-55477428D01*
X106444030Y-55454329D01*
X106454520Y-55432150D01*
X106467132Y-55411107D01*
X106481747Y-55391401D01*
X106498223Y-55373223D01*
X106516401Y-55356747D01*
X106536107Y-55342132D01*
X106557150Y-55329520D01*
X106579329Y-55319030D01*
X106602428Y-55310765D01*
X106626227Y-55304804D01*
X106650495Y-55301204D01*
X106674999Y-55300000D01*
X107325001Y-55300000D01*
X107349505Y-55301204D01*
X107349505Y-55301204D01*
G37*
D11*
X107000000Y-56000000D03*
D23*
X115316000Y-66040000D03*
X115316000Y-66040000D03*
X128524000Y-66040000D03*
X141732000Y-66040000D03*
X105410000Y-60960000D03*
X120142000Y-63246000D03*
X134112000Y-63246000D03*
X128524000Y-74168000D03*
X128778000Y-77470000D03*
X112522000Y-70104000D03*
X125476000Y-70104000D03*
X139954000Y-69342000D03*
D24*
X125605000Y-82296000D02*
X127490000Y-82296000D01*
X132588000Y-84836000D02*
X132588000Y-86868000D01*
X128722000Y-84328000D02*
X132080000Y-84328000D01*
X127490000Y-82296000D02*
X127490000Y-83096000D01*
X132080000Y-84328000D02*
X132588000Y-84836000D01*
X127490000Y-83096000D02*
X128722000Y-84328000D01*
X121911000Y-89916000D02*
X121920000Y-89925000D01*
X117856000Y-89916000D02*
X121911000Y-89916000D01*
X129023000Y-89925000D02*
X121920000Y-89925000D01*
X130048000Y-86868000D02*
X130048000Y-88900000D01*
X130048000Y-88900000D02*
X129023000Y-89925000D01*
X115316000Y-66040000D02*
X128524000Y-66040000D01*
X128524000Y-66040000D02*
X141732000Y-66040000D01*
X98040000Y-76478000D02*
X98040000Y-76708000D01*
X108478000Y-66040000D02*
X98040000Y-76478000D01*
X115316000Y-66040000D02*
X108478000Y-66040000D01*
X105410000Y-60960000D02*
X108966000Y-60960000D01*
X121588000Y-63246000D02*
X120142000Y-63246000D01*
X122174000Y-60960000D02*
X122174000Y-62660000D01*
X122174000Y-62660000D02*
X121588000Y-63246000D01*
X125124000Y-60960000D02*
X128172000Y-57912000D01*
X122174000Y-60960000D02*
X125124000Y-60960000D01*
X128172000Y-57912000D02*
X141732000Y-57912000D01*
X141732000Y-57912000D02*
X149352000Y-65532000D01*
X153924000Y-79526000D02*
X153924000Y-79756000D01*
X149352000Y-74954000D02*
X153924000Y-79526000D01*
X149352000Y-65532000D02*
X149352000Y-74954000D01*
X118399448Y-74203448D02*
X118399448Y-75266319D01*
X125668129Y-73660000D02*
X118872000Y-73660000D01*
X126733448Y-74250319D02*
X126258448Y-74250319D01*
X126258448Y-74250319D02*
X125668129Y-73660000D01*
X118872000Y-73660000D02*
X118364000Y-74168000D01*
X135382000Y-61976000D02*
X135382000Y-60960000D01*
X134112000Y-63246000D02*
X135382000Y-61976000D01*
X132133448Y-78060319D02*
X131108448Y-78060319D01*
X126815767Y-74168000D02*
X126733448Y-74250319D01*
X128524000Y-74168000D02*
X126815767Y-74168000D01*
X129368319Y-78060319D02*
X132133448Y-78060319D01*
X128778000Y-77470000D02*
X129368319Y-78060319D01*
X125656681Y-78060319D02*
X124469000Y-79248000D01*
X126733448Y-78060319D02*
X125656681Y-78060319D01*
X124005448Y-76790319D02*
X123497448Y-77298319D01*
X126733448Y-76790319D02*
X124005448Y-76790319D01*
X120478319Y-77298319D02*
X120396000Y-77216000D01*
X123497448Y-77298319D02*
X120478319Y-77298319D01*
X129028448Y-75520319D02*
X131108448Y-75520319D01*
X127758448Y-76790319D02*
X129028448Y-75520319D01*
X131108448Y-75520319D02*
X132133448Y-75520319D01*
X126733448Y-76790319D02*
X127758448Y-76790319D01*
X109522000Y-70104000D02*
X108966000Y-70660000D01*
X112522000Y-70104000D02*
X109522000Y-70104000D01*
X122730000Y-70104000D02*
X122174000Y-70660000D01*
X125476000Y-70104000D02*
X122730000Y-70104000D01*
X136700000Y-69342000D02*
X135382000Y-70660000D01*
X139954000Y-69342000D02*
X136700000Y-69342000D01*
X147320000Y-78232000D02*
X147320000Y-79756000D01*
X138937000Y-77216000D02*
X146304000Y-77216000D01*
X146304000Y-77216000D02*
X147320000Y-78232000D01*
X137160000Y-78418000D02*
X137735000Y-78418000D01*
X137735000Y-78418000D02*
X138937000Y-77216000D01*
X122936000Y-82675000D02*
X123315000Y-82296000D01*
X122936000Y-85344000D02*
X122936000Y-82675000D01*
X117856000Y-85344000D02*
X117856000Y-87626000D01*
X136210000Y-75673000D02*
X136210000Y-74998000D01*
X135092681Y-76790319D02*
X136210000Y-75673000D01*
X132133448Y-76790319D02*
X135092681Y-76790319D01*
X123479448Y-75266319D02*
X123497448Y-75248319D01*
X120449448Y-75266319D02*
X123479448Y-75266319D01*
X123769448Y-75520319D02*
X123497448Y-75248319D01*
X126733448Y-75520319D02*
X123769448Y-75520319D01*
X102616000Y-51616000D02*
X107000000Y-56000000D01*
X102616000Y-49530000D02*
X102616000Y-51616000D01*
X110998000Y-54052000D02*
X110998000Y-49530000D01*
X109050000Y-56000000D02*
X110998000Y-54052000D01*
X109050000Y-56000000D02*
X111450000Y-56000000D01*
X100871000Y-62484000D02*
X101346000Y-62484000D01*
D25*
G36*
X90469467Y-45945075D02*
G01*
X90192286Y-46055921D01*
X90038911Y-46366840D01*
X89949140Y-46701705D01*
X89926424Y-47047650D01*
X89971634Y-47391380D01*
X90083034Y-47719685D01*
X90192286Y-47924079D01*
X90469469Y-48034926D01*
X91514395Y-46990000D01*
X91500253Y-46975858D01*
X91679858Y-46796253D01*
X91694000Y-46810395D01*
X91708143Y-46796253D01*
X91887748Y-46975858D01*
X91873605Y-46990000D01*
X92918531Y-48034926D01*
X93195714Y-47924079D01*
X93349089Y-47613160D01*
X93438860Y-47278295D01*
X93461576Y-46932350D01*
X93416366Y-46588620D01*
X93304966Y-46260315D01*
X93195714Y-46055921D01*
X92918533Y-45945075D01*
X92966608Y-45897000D01*
X95501392Y-45897000D01*
X95549467Y-45945075D01*
X95272286Y-46055921D01*
X95118911Y-46366840D01*
X95029140Y-46701705D01*
X95006424Y-47047650D01*
X95051634Y-47391380D01*
X95163034Y-47719685D01*
X95272286Y-47924079D01*
X95549469Y-48034926D01*
X96594395Y-46990000D01*
X96580253Y-46975858D01*
X96759858Y-46796253D01*
X96774000Y-46810395D01*
X96788143Y-46796253D01*
X96967748Y-46975858D01*
X96953605Y-46990000D01*
X97998531Y-48034926D01*
X98275714Y-47924079D01*
X98428970Y-47613401D01*
X98465034Y-47719685D01*
X98574286Y-47924079D01*
X98851469Y-48034926D01*
X99896395Y-46990000D01*
X99882253Y-46975858D01*
X100061858Y-46796253D01*
X100076000Y-46810395D01*
X100090143Y-46796253D01*
X100269748Y-46975858D01*
X100255605Y-46990000D01*
X101300531Y-48034926D01*
X101577714Y-47924079D01*
X101731089Y-47613160D01*
X101820860Y-47278295D01*
X101843576Y-46932350D01*
X101798366Y-46588620D01*
X101686966Y-46260315D01*
X101577714Y-46055921D01*
X101300533Y-45945075D01*
X101348608Y-45897000D01*
X103883392Y-45897000D01*
X103931467Y-45945075D01*
X103654286Y-46055921D01*
X103500911Y-46366840D01*
X103411140Y-46701705D01*
X103388424Y-47047650D01*
X103433634Y-47391380D01*
X103545034Y-47719685D01*
X103654286Y-47924079D01*
X103931469Y-48034926D01*
X104976395Y-46990000D01*
X104962253Y-46975858D01*
X105141858Y-46796253D01*
X105156000Y-46810395D01*
X105170143Y-46796253D01*
X105349748Y-46975858D01*
X105335605Y-46990000D01*
X106380531Y-48034926D01*
X106657714Y-47924079D01*
X106810970Y-47613401D01*
X106847034Y-47719685D01*
X106956286Y-47924079D01*
X107233469Y-48034926D01*
X108278395Y-46990000D01*
X108264253Y-46975858D01*
X108443858Y-46796253D01*
X108458000Y-46810395D01*
X108472143Y-46796253D01*
X108651748Y-46975858D01*
X108637605Y-46990000D01*
X109682531Y-48034926D01*
X109959714Y-47924079D01*
X110113089Y-47613160D01*
X110202860Y-47278295D01*
X110225576Y-46932350D01*
X110180366Y-46588620D01*
X110068966Y-46260315D01*
X109959714Y-46055921D01*
X109682533Y-45945075D01*
X109730608Y-45897000D01*
X112265392Y-45897000D01*
X112313467Y-45945075D01*
X112036286Y-46055921D01*
X111882911Y-46366840D01*
X111793140Y-46701705D01*
X111770424Y-47047650D01*
X111815634Y-47391380D01*
X111927034Y-47719685D01*
X112036286Y-47924079D01*
X112313469Y-48034926D01*
X113358395Y-46990000D01*
X113344253Y-46975858D01*
X113523858Y-46796253D01*
X113538000Y-46810395D01*
X113552143Y-46796253D01*
X113731748Y-46975858D01*
X113717605Y-46990000D01*
X114762531Y-48034926D01*
X115039714Y-47924079D01*
X115193089Y-47613160D01*
X115282860Y-47278295D01*
X115305576Y-46932350D01*
X115260366Y-46588620D01*
X115148966Y-46260315D01*
X115039714Y-46055921D01*
X114762533Y-45945075D01*
X114810608Y-45897000D01*
X155779000Y-45897000D01*
X155779001Y-55846344D01*
X155779000Y-55846354D01*
X155779001Y-91263000D01*
X119629861Y-91263000D01*
X119735494Y-91206537D01*
X119832185Y-91127185D01*
X119911537Y-91030494D01*
X119970502Y-90920180D01*
X120006812Y-90800482D01*
X120019072Y-90676000D01*
X120695576Y-90676000D01*
X120731595Y-90743387D01*
X120842038Y-90877962D01*
X120976613Y-90988405D01*
X121130149Y-91070472D01*
X121296745Y-91121008D01*
X121469999Y-91138072D01*
X122370001Y-91138072D01*
X122543255Y-91121008D01*
X122709851Y-91070472D01*
X122863387Y-90988405D01*
X122997962Y-90877962D01*
X123108405Y-90743387D01*
X123139614Y-90685000D01*
X128985678Y-90685000D01*
X129023000Y-90688676D01*
X129060322Y-90685000D01*
X129060333Y-90685000D01*
X129171986Y-90674003D01*
X129315247Y-90630546D01*
X129447276Y-90559974D01*
X129563001Y-90465001D01*
X129586804Y-90435998D01*
X130559003Y-89463799D01*
X130588001Y-89440001D01*
X130660057Y-89352201D01*
X130682974Y-89324277D01*
X130753546Y-89192247D01*
X130779522Y-89106613D01*
X130797003Y-89048986D01*
X130808000Y-88937333D01*
X130808000Y-88937323D01*
X130811676Y-88900000D01*
X130808000Y-88862677D01*
X130808000Y-88398273D01*
X130888179Y-88355417D01*
X131117345Y-88167345D01*
X131305417Y-87938179D01*
X131318000Y-87914638D01*
X131330583Y-87938179D01*
X131518655Y-88167345D01*
X131747822Y-88355417D01*
X132009276Y-88495166D01*
X132292969Y-88581224D01*
X132588000Y-88610282D01*
X132883032Y-88581224D01*
X133166725Y-88495166D01*
X133428179Y-88355417D01*
X133657345Y-88167345D01*
X133845417Y-87938179D01*
X133858000Y-87914638D01*
X133870583Y-87938179D01*
X134058655Y-88167345D01*
X134287822Y-88355417D01*
X134549276Y-88495166D01*
X134832969Y-88581224D01*
X135128000Y-88610282D01*
X135423032Y-88581224D01*
X135706725Y-88495166D01*
X135968179Y-88355417D01*
X136197345Y-88167345D01*
X136385417Y-87938179D01*
X136398000Y-87914638D01*
X136410583Y-87938179D01*
X136598655Y-88167345D01*
X136827822Y-88355417D01*
X137089276Y-88495166D01*
X137372969Y-88581224D01*
X137668000Y-88610282D01*
X137963032Y-88581224D01*
X138246725Y-88495166D01*
X138508179Y-88355417D01*
X138737345Y-88167345D01*
X138925417Y-87938179D01*
X139065166Y-87676724D01*
X139151224Y-87393031D01*
X139173000Y-87171935D01*
X139173000Y-86564064D01*
X139151224Y-86342968D01*
X139077664Y-86100475D01*
X149765000Y-86100475D01*
X149765000Y-86619525D01*
X149866261Y-87128601D01*
X150064893Y-87608141D01*
X150353262Y-88039715D01*
X150720285Y-88406738D01*
X151151859Y-88695107D01*
X151631399Y-88893739D01*
X152140475Y-88995000D01*
X152659525Y-88995000D01*
X153168601Y-88893739D01*
X153648141Y-88695107D01*
X154079715Y-88406738D01*
X154446738Y-88039715D01*
X154735107Y-87608141D01*
X154933739Y-87128601D01*
X155035000Y-86619525D01*
X155035000Y-86100475D01*
X154933739Y-85591399D01*
X154735107Y-85111859D01*
X154446738Y-84680285D01*
X154079715Y-84313262D01*
X153648141Y-84024893D01*
X153168601Y-83826261D01*
X152659525Y-83725000D01*
X152140475Y-83725000D01*
X151631399Y-83826261D01*
X151151859Y-84024893D01*
X150720285Y-84313262D01*
X150353262Y-84680285D01*
X150064893Y-85111859D01*
X149866261Y-85591399D01*
X149765000Y-86100475D01*
X139077664Y-86100475D01*
X139065166Y-86059275D01*
X138925417Y-85797821D01*
X138737345Y-85568655D01*
X138508178Y-85380583D01*
X138246724Y-85240834D01*
X137963031Y-85154776D01*
X137668000Y-85125718D01*
X137372968Y-85154776D01*
X137089275Y-85240834D01*
X136827821Y-85380583D01*
X136598655Y-85568655D01*
X136410583Y-85797822D01*
X136398000Y-85821363D01*
X136385417Y-85797821D01*
X136197345Y-85568655D01*
X135968178Y-85380583D01*
X135706724Y-85240834D01*
X135423031Y-85154776D01*
X135128000Y-85125718D01*
X134832968Y-85154776D01*
X134549275Y-85240834D01*
X134287821Y-85380583D01*
X134058655Y-85568655D01*
X133870583Y-85797822D01*
X133858000Y-85821363D01*
X133845417Y-85797821D01*
X133657345Y-85568655D01*
X133428178Y-85380583D01*
X133348000Y-85337727D01*
X133348000Y-84873322D01*
X133351676Y-84835999D01*
X133348000Y-84798676D01*
X133348000Y-84798667D01*
X133337003Y-84687014D01*
X133293546Y-84543753D01*
X133222974Y-84411724D01*
X133128001Y-84295999D01*
X133099003Y-84272202D01*
X132643803Y-83817002D01*
X132620001Y-83787999D01*
X132504276Y-83693026D01*
X132372247Y-83622454D01*
X132228986Y-83578997D01*
X132117333Y-83568000D01*
X132117322Y-83568000D01*
X132080000Y-83564324D01*
X132042678Y-83568000D01*
X130391923Y-83568000D01*
X130469494Y-83526537D01*
X130566185Y-83447185D01*
X130645537Y-83350494D01*
X130704502Y-83240180D01*
X130740812Y-83120482D01*
X130753072Y-82996000D01*
X130750000Y-82581750D01*
X130591250Y-82423000D01*
X129667000Y-82423000D01*
X129667000Y-82443000D01*
X129413000Y-82443000D01*
X129413000Y-82423000D01*
X129393000Y-82423000D01*
X129393000Y-82169000D01*
X129413000Y-82169000D01*
X129413000Y-81119750D01*
X129667000Y-81119750D01*
X129667000Y-82169000D01*
X130591250Y-82169000D01*
X130750000Y-82010250D01*
X130753072Y-81596000D01*
X130740812Y-81471518D01*
X130704502Y-81351820D01*
X130645537Y-81241506D01*
X130566185Y-81144815D01*
X130469494Y-81065463D01*
X130359180Y-81006498D01*
X130239482Y-80970188D01*
X130115000Y-80957928D01*
X129825750Y-80961000D01*
X129667000Y-81119750D01*
X129413000Y-81119750D01*
X129254250Y-80961000D01*
X128965000Y-80957928D01*
X128840518Y-80970188D01*
X128720820Y-81006498D01*
X128610506Y-81065463D01*
X128513815Y-81144815D01*
X128448342Y-81224594D01*
X128442962Y-81218038D01*
X128308387Y-81107595D01*
X128154851Y-81025528D01*
X127988255Y-80974992D01*
X127815001Y-80957928D01*
X127164999Y-80957928D01*
X127003072Y-80973876D01*
X127003072Y-80771000D01*
X126990812Y-80646518D01*
X126954502Y-80526820D01*
X126895537Y-80416506D01*
X126816185Y-80319815D01*
X126719494Y-80240463D01*
X126609180Y-80181498D01*
X126489482Y-80145188D01*
X126365000Y-80132928D01*
X125563652Y-80132928D01*
X125614472Y-80037851D01*
X125665008Y-79871255D01*
X125682072Y-79698001D01*
X125682072Y-79109730D01*
X125812256Y-78979545D01*
X125833966Y-78986131D01*
X125958448Y-78998391D01*
X127508448Y-78998391D01*
X127632930Y-78986131D01*
X127752628Y-78949821D01*
X127862942Y-78890856D01*
X127959633Y-78811504D01*
X128038985Y-78714813D01*
X128097950Y-78604499D01*
X128134260Y-78484801D01*
X128146520Y-78360319D01*
X128146520Y-78292842D01*
X128287744Y-78387205D01*
X128476102Y-78465226D01*
X128676061Y-78505000D01*
X128738198Y-78505000D01*
X128804519Y-78571321D01*
X128828318Y-78600320D01*
X128857316Y-78624118D01*
X128944042Y-78695293D01*
X129022066Y-78736998D01*
X129076072Y-78765865D01*
X129219333Y-78809322D01*
X129330986Y-78820319D01*
X129330995Y-78820319D01*
X129368318Y-78823995D01*
X129405641Y-78820319D01*
X130918004Y-78820319D01*
X131003954Y-78890856D01*
X131114268Y-78949821D01*
X131233966Y-78986131D01*
X131358448Y-78998391D01*
X132908448Y-78998391D01*
X133032930Y-78986131D01*
X133152628Y-78949821D01*
X133262942Y-78890856D01*
X133359633Y-78811504D01*
X133438985Y-78714813D01*
X133497950Y-78604499D01*
X133534260Y-78484801D01*
X133546520Y-78360319D01*
X133546520Y-77760319D01*
X133534260Y-77635837D01*
X133508318Y-77550319D01*
X135055359Y-77550319D01*
X135092681Y-77553995D01*
X135130003Y-77550319D01*
X135130014Y-77550319D01*
X135241667Y-77539322D01*
X135384928Y-77495865D01*
X135516957Y-77425293D01*
X135608701Y-77350000D01*
X136008928Y-77350000D01*
X136008928Y-79350000D01*
X136021188Y-79474482D01*
X136057498Y-79594180D01*
X136116463Y-79704494D01*
X136195815Y-79801185D01*
X136292506Y-79880537D01*
X136402820Y-79939502D01*
X136522518Y-79975812D01*
X136647000Y-79988072D01*
X137297000Y-79988072D01*
X137421482Y-79975812D01*
X137541180Y-79939502D01*
X137651494Y-79880537D01*
X137748185Y-79801185D01*
X137827537Y-79704494D01*
X137886502Y-79594180D01*
X137922812Y-79474482D01*
X137935072Y-79350000D01*
X137935072Y-79151506D01*
X138027247Y-79123546D01*
X138159276Y-79052974D01*
X138275001Y-78958001D01*
X138298804Y-78928997D01*
X139251802Y-77976000D01*
X145989199Y-77976000D01*
X146371049Y-78357850D01*
X146250655Y-78456655D01*
X146196935Y-78522114D01*
X146138405Y-78412613D01*
X146027962Y-78278038D01*
X145893387Y-78167595D01*
X145739851Y-78085528D01*
X145573255Y-78034992D01*
X145400001Y-78017928D01*
X144159999Y-78017928D01*
X143986745Y-78034992D01*
X143820149Y-78085528D01*
X143666613Y-78167595D01*
X143532038Y-78278038D01*
X143421595Y-78412613D01*
X143339528Y-78566149D01*
X143288992Y-78732745D01*
X143271928Y-78905999D01*
X143271928Y-80606001D01*
X143288992Y-80779255D01*
X143339528Y-80945851D01*
X143421595Y-81099387D01*
X143532038Y-81233962D01*
X143666613Y-81344405D01*
X143820149Y-81426472D01*
X143986745Y-81477008D01*
X144159999Y-81494072D01*
X145400001Y-81494072D01*
X145573255Y-81477008D01*
X145739851Y-81426472D01*
X145893387Y-81344405D01*
X146027962Y-81233962D01*
X146138405Y-81099387D01*
X146196934Y-80989886D01*
X146250655Y-81055345D01*
X146479822Y-81243417D01*
X146741276Y-81383166D01*
X147024969Y-81469224D01*
X147320000Y-81498282D01*
X147615032Y-81469224D01*
X147898725Y-81383166D01*
X148160179Y-81243417D01*
X148389345Y-81055345D01*
X148552943Y-80856000D01*
X149875928Y-80856000D01*
X149888188Y-80980482D01*
X149924498Y-81100180D01*
X149983463Y-81210494D01*
X150062815Y-81307185D01*
X150159506Y-81386537D01*
X150269820Y-81445502D01*
X150389518Y-81481812D01*
X150514000Y-81494072D01*
X151098250Y-81491000D01*
X151257000Y-81332250D01*
X151257000Y-79883000D01*
X150037750Y-79883000D01*
X149879000Y-80041750D01*
X149875928Y-80856000D01*
X148552943Y-80856000D01*
X148577417Y-80826179D01*
X148717166Y-80564724D01*
X148803224Y-80281031D01*
X148825000Y-80059935D01*
X148825000Y-79452064D01*
X148803224Y-79230968D01*
X148717166Y-78947275D01*
X148577417Y-78685821D01*
X148389345Y-78456655D01*
X148160178Y-78268583D01*
X148083228Y-78227453D01*
X148080000Y-78194677D01*
X148080000Y-78194667D01*
X148069003Y-78083014D01*
X148025546Y-77939753D01*
X148010355Y-77911333D01*
X147954974Y-77807723D01*
X147883799Y-77720997D01*
X147860001Y-77691999D01*
X147831004Y-77668202D01*
X146867804Y-76705002D01*
X146844001Y-76675999D01*
X146728276Y-76581026D01*
X146596247Y-76510454D01*
X146452986Y-76466997D01*
X146341333Y-76456000D01*
X146341322Y-76456000D01*
X146304000Y-76452324D01*
X146266678Y-76456000D01*
X138974325Y-76456000D01*
X138937000Y-76452324D01*
X138899675Y-76456000D01*
X138899667Y-76456000D01*
X138788014Y-76466997D01*
X138644753Y-76510454D01*
X138512724Y-76581026D01*
X138396999Y-76675999D01*
X138373201Y-76704997D01*
X137906489Y-77171709D01*
X137886502Y-77105820D01*
X137827537Y-76995506D01*
X137748185Y-76898815D01*
X137651494Y-76819463D01*
X137541180Y-76760498D01*
X137421482Y-76724188D01*
X137297000Y-76711928D01*
X136647000Y-76711928D01*
X136522518Y-76724188D01*
X136402820Y-76760498D01*
X136292506Y-76819463D01*
X136195815Y-76898815D01*
X136116463Y-76995506D01*
X136057498Y-77105820D01*
X136021188Y-77225518D01*
X136008928Y-77350000D01*
X135608701Y-77350000D01*
X135632682Y-77330320D01*
X135656485Y-77301317D01*
X136394398Y-76563404D01*
X136471482Y-76555812D01*
X136591180Y-76519502D01*
X136701494Y-76460537D01*
X136798185Y-76381185D01*
X136877537Y-76284494D01*
X136936502Y-76174180D01*
X136972000Y-76057159D01*
X137007498Y-76174180D01*
X137066463Y-76284494D01*
X137145815Y-76381185D01*
X137242506Y-76460537D01*
X137352820Y-76519502D01*
X137472518Y-76555812D01*
X137597000Y-76568072D01*
X137636250Y-76565000D01*
X137795000Y-76406250D01*
X137795000Y-75057000D01*
X138049000Y-75057000D01*
X138049000Y-76406250D01*
X138207750Y-76565000D01*
X138247000Y-76568072D01*
X138371482Y-76555812D01*
X138491180Y-76519502D01*
X138601494Y-76460537D01*
X138698185Y-76381185D01*
X138777537Y-76284494D01*
X138836502Y-76174180D01*
X138872812Y-76054482D01*
X138885072Y-75930000D01*
X138882000Y-75215750D01*
X138723250Y-75057000D01*
X138049000Y-75057000D01*
X137795000Y-75057000D01*
X137775000Y-75057000D01*
X137775000Y-74803000D01*
X137795000Y-74803000D01*
X137795000Y-73453750D01*
X138049000Y-73453750D01*
X138049000Y-74803000D01*
X138723250Y-74803000D01*
X138882000Y-74644250D01*
X138885072Y-73930000D01*
X138872812Y-73805518D01*
X138836502Y-73685820D01*
X138777537Y-73575506D01*
X138698185Y-73478815D01*
X138601494Y-73399463D01*
X138491180Y-73340498D01*
X138371482Y-73304188D01*
X138247000Y-73291928D01*
X138207750Y-73295000D01*
X138049000Y-73453750D01*
X137795000Y-73453750D01*
X137636250Y-73295000D01*
X137597000Y-73291928D01*
X137472518Y-73304188D01*
X137352820Y-73340498D01*
X137242506Y-73399463D01*
X137145815Y-73478815D01*
X137066463Y-73575506D01*
X137007498Y-73685820D01*
X136972000Y-73802841D01*
X136936502Y-73685820D01*
X136877537Y-73575506D01*
X136798185Y-73478815D01*
X136701494Y-73399463D01*
X136591180Y-73340498D01*
X136471482Y-73304188D01*
X136347000Y-73291928D01*
X135697000Y-73291928D01*
X135572518Y-73304188D01*
X135452820Y-73340498D01*
X135342506Y-73399463D01*
X135245815Y-73478815D01*
X135166463Y-73575506D01*
X135107498Y-73685820D01*
X135071188Y-73805518D01*
X135058928Y-73930000D01*
X135058928Y-75749271D01*
X134777880Y-76030319D01*
X133508318Y-76030319D01*
X133534260Y-75944801D01*
X133546520Y-75820319D01*
X133546520Y-75220319D01*
X133534260Y-75095837D01*
X133497950Y-74976139D01*
X133449405Y-74885319D01*
X133497950Y-74794499D01*
X133534260Y-74674801D01*
X133546520Y-74550319D01*
X133543448Y-74536069D01*
X133384698Y-74377319D01*
X132260448Y-74377319D01*
X132260448Y-74397319D01*
X132006448Y-74397319D01*
X132006448Y-74377319D01*
X130882198Y-74377319D01*
X130723448Y-74536069D01*
X130720376Y-74550319D01*
X130732636Y-74674801D01*
X130758578Y-74760319D01*
X129373009Y-74760319D01*
X129441205Y-74658256D01*
X129519226Y-74469898D01*
X129559000Y-74269939D01*
X129559000Y-74066061D01*
X129535978Y-73950319D01*
X130720376Y-73950319D01*
X130723448Y-73964569D01*
X130882198Y-74123319D01*
X132006448Y-74123319D01*
X132006448Y-73474069D01*
X132260448Y-73474069D01*
X132260448Y-74123319D01*
X133384698Y-74123319D01*
X133543448Y-73964569D01*
X133546520Y-73950319D01*
X133534260Y-73825837D01*
X133497950Y-73706139D01*
X133438985Y-73595825D01*
X133359633Y-73499134D01*
X133262942Y-73419782D01*
X133152628Y-73360817D01*
X133032930Y-73324507D01*
X132908448Y-73312247D01*
X132419198Y-73315319D01*
X132260448Y-73474069D01*
X132006448Y-73474069D01*
X131847698Y-73315319D01*
X131358448Y-73312247D01*
X131233966Y-73324507D01*
X131114268Y-73360817D01*
X131003954Y-73419782D01*
X130907263Y-73499134D01*
X130827911Y-73595825D01*
X130768946Y-73706139D01*
X130732636Y-73825837D01*
X130720376Y-73950319D01*
X129535978Y-73950319D01*
X129519226Y-73866102D01*
X129441205Y-73677744D01*
X129327937Y-73508226D01*
X129183774Y-73364063D01*
X129014256Y-73250795D01*
X128978538Y-73236000D01*
X143271928Y-73236000D01*
X143284188Y-73360482D01*
X143320498Y-73480180D01*
X143379463Y-73590494D01*
X143458815Y-73687185D01*
X143555506Y-73766537D01*
X143665820Y-73825502D01*
X143785518Y-73861812D01*
X143910000Y-73874072D01*
X144494250Y-73871000D01*
X144653000Y-73712250D01*
X144653000Y-72263000D01*
X143433750Y-72263000D01*
X143275000Y-72421750D01*
X143271928Y-73236000D01*
X128978538Y-73236000D01*
X128825898Y-73172774D01*
X128625939Y-73133000D01*
X128422061Y-73133000D01*
X128222102Y-73172774D01*
X128033744Y-73250795D01*
X127864226Y-73364063D01*
X127827468Y-73400821D01*
X127752628Y-73360817D01*
X127632930Y-73324507D01*
X127508448Y-73312247D01*
X126395177Y-73312247D01*
X126231932Y-73149002D01*
X126208130Y-73119999D01*
X126092405Y-73025026D01*
X125960376Y-72954454D01*
X125817115Y-72910997D01*
X125705462Y-72900000D01*
X125705451Y-72900000D01*
X125668129Y-72896324D01*
X125630807Y-72900000D01*
X118909322Y-72900000D01*
X118871999Y-72896324D01*
X118834676Y-72900000D01*
X118834667Y-72900000D01*
X118723014Y-72910997D01*
X118579753Y-72954454D01*
X118447724Y-73025026D01*
X118331999Y-73119999D01*
X118308200Y-73148998D01*
X117800201Y-73656998D01*
X117729026Y-73743724D01*
X117658454Y-73875754D01*
X117614998Y-74019015D01*
X117610760Y-74062039D01*
X117581061Y-74077914D01*
X117446486Y-74188357D01*
X117336043Y-74322932D01*
X117253976Y-74476468D01*
X117203440Y-74643064D01*
X117186376Y-74816318D01*
X117186376Y-75716320D01*
X117203440Y-75889574D01*
X117253976Y-76056170D01*
X117336043Y-76209706D01*
X117446486Y-76344281D01*
X117581061Y-76454724D01*
X117734597Y-76536791D01*
X117901193Y-76587327D01*
X118074447Y-76604391D01*
X118724449Y-76604391D01*
X118897703Y-76587327D01*
X119064299Y-76536791D01*
X119160763Y-76485230D01*
X119125528Y-76551149D01*
X119074992Y-76717745D01*
X119057928Y-76890999D01*
X119057928Y-77541001D01*
X119074992Y-77714255D01*
X119125528Y-77880851D01*
X119207595Y-78034387D01*
X119318038Y-78168962D01*
X119324594Y-78174342D01*
X119244815Y-78239815D01*
X119165463Y-78336506D01*
X119106498Y-78446820D01*
X119070188Y-78566518D01*
X119057928Y-78691000D01*
X119061000Y-78980250D01*
X119219750Y-79139000D01*
X120269000Y-79139000D01*
X120269000Y-79119000D01*
X120523000Y-79119000D01*
X120523000Y-79139000D01*
X121572250Y-79139000D01*
X121590250Y-79121000D01*
X122292000Y-79121000D01*
X122292000Y-79101000D01*
X122546000Y-79101000D01*
X122546000Y-79121000D01*
X122566000Y-79121000D01*
X122566000Y-79375000D01*
X122546000Y-79375000D01*
X122546000Y-79395000D01*
X122292000Y-79395000D01*
X122292000Y-79375000D01*
X121367750Y-79375000D01*
X121349750Y-79393000D01*
X120523000Y-79393000D01*
X120523000Y-80317250D01*
X120681750Y-80476000D01*
X121096000Y-80479072D01*
X121220482Y-80466812D01*
X121340180Y-80430502D01*
X121395163Y-80401112D01*
X121489506Y-80478537D01*
X121599820Y-80537502D01*
X121719518Y-80573812D01*
X121844000Y-80586072D01*
X121947859Y-80584969D01*
X121929188Y-80646518D01*
X121916928Y-80771000D01*
X121916928Y-83821000D01*
X121929188Y-83945482D01*
X121965498Y-84065180D01*
X122021147Y-84169291D01*
X121989368Y-84190525D01*
X121782525Y-84397368D01*
X121666689Y-84570729D01*
X121424397Y-84495208D01*
X120575605Y-85344000D01*
X121424397Y-86192792D01*
X121666689Y-86117271D01*
X121782525Y-86290632D01*
X121989368Y-86497475D01*
X122232589Y-86659990D01*
X122243999Y-86664716D01*
X122205750Y-86665000D01*
X122047000Y-86823750D01*
X122047000Y-87748000D01*
X123096250Y-87748000D01*
X123255000Y-87589250D01*
X123258072Y-87300000D01*
X123245812Y-87175518D01*
X123209502Y-87055820D01*
X123150537Y-86945506D01*
X123071185Y-86848815D01*
X123047040Y-86829000D01*
X123082260Y-86829000D01*
X123369158Y-86771932D01*
X123639411Y-86659990D01*
X123882632Y-86497475D01*
X124089475Y-86290632D01*
X124251990Y-86047411D01*
X124363932Y-85777158D01*
X124365753Y-85768000D01*
X125999928Y-85768000D01*
X126003000Y-86582250D01*
X126161750Y-86741000D01*
X127381000Y-86741000D01*
X127381000Y-85291750D01*
X127222250Y-85133000D01*
X126638000Y-85129928D01*
X126513518Y-85142188D01*
X126393820Y-85178498D01*
X126283506Y-85237463D01*
X126186815Y-85316815D01*
X126107463Y-85413506D01*
X126048498Y-85523820D01*
X126012188Y-85643518D01*
X125999928Y-85768000D01*
X124365753Y-85768000D01*
X124421000Y-85490260D01*
X124421000Y-85197740D01*
X124363932Y-84910842D01*
X124251990Y-84640589D01*
X124127265Y-84453925D01*
X124199482Y-84446812D01*
X124319180Y-84410502D01*
X124429494Y-84351537D01*
X124460000Y-84326501D01*
X124490506Y-84351537D01*
X124600820Y-84410502D01*
X124720518Y-84446812D01*
X124845000Y-84459072D01*
X126365000Y-84459072D01*
X126489482Y-84446812D01*
X126609180Y-84410502D01*
X126719494Y-84351537D01*
X126816185Y-84272185D01*
X126895537Y-84175494D01*
X126954502Y-84065180D01*
X126990812Y-83945482D01*
X127003072Y-83821000D01*
X127003072Y-83683873D01*
X128158200Y-84839002D01*
X128181999Y-84868001D01*
X128210997Y-84891799D01*
X128297723Y-84962974D01*
X128340766Y-84985981D01*
X128429753Y-85033546D01*
X128573014Y-85077003D01*
X128684667Y-85088000D01*
X128684676Y-85088000D01*
X128721999Y-85091676D01*
X128759322Y-85088000D01*
X131765199Y-85088000D01*
X131828000Y-85150802D01*
X131828000Y-85337727D01*
X131747821Y-85380583D01*
X131518655Y-85568655D01*
X131330583Y-85797822D01*
X131318000Y-85821363D01*
X131305417Y-85797821D01*
X131117345Y-85568655D01*
X130888178Y-85380583D01*
X130626724Y-85240834D01*
X130343031Y-85154776D01*
X130048000Y-85125718D01*
X129752968Y-85154776D01*
X129469275Y-85240834D01*
X129207821Y-85380583D01*
X128980615Y-85567047D01*
X128967502Y-85523820D01*
X128908537Y-85413506D01*
X128829185Y-85316815D01*
X128732494Y-85237463D01*
X128622180Y-85178498D01*
X128502482Y-85142188D01*
X128378000Y-85129928D01*
X127793750Y-85133000D01*
X127635000Y-85291750D01*
X127635000Y-86741000D01*
X127655000Y-86741000D01*
X127655000Y-86995000D01*
X127635000Y-86995000D01*
X127635000Y-88444250D01*
X127793750Y-88603000D01*
X128378000Y-88606072D01*
X128502482Y-88593812D01*
X128622180Y-88557502D01*
X128732494Y-88498537D01*
X128829185Y-88419185D01*
X128908537Y-88322494D01*
X128967502Y-88212180D01*
X128980615Y-88168953D01*
X129207822Y-88355417D01*
X129288001Y-88398273D01*
X129288001Y-88585197D01*
X128708199Y-89165000D01*
X123139614Y-89165000D01*
X123108405Y-89106613D01*
X122997962Y-88972038D01*
X122991406Y-88966658D01*
X123071185Y-88901185D01*
X123150537Y-88804494D01*
X123209502Y-88694180D01*
X123245812Y-88574482D01*
X123258072Y-88450000D01*
X123255000Y-88160750D01*
X123096250Y-88002000D01*
X122047000Y-88002000D01*
X122047000Y-88022000D01*
X121793000Y-88022000D01*
X121793000Y-88002000D01*
X120743750Y-88002000D01*
X120585000Y-88160750D01*
X120581928Y-88450000D01*
X120594188Y-88574482D01*
X120630498Y-88694180D01*
X120689463Y-88804494D01*
X120768815Y-88901185D01*
X120848594Y-88966658D01*
X120842038Y-88972038D01*
X120731595Y-89106613D01*
X120705197Y-89156000D01*
X120019072Y-89156000D01*
X120006812Y-89031518D01*
X119970502Y-88911820D01*
X119911537Y-88801506D01*
X119886501Y-88771000D01*
X119911537Y-88740494D01*
X119970502Y-88630180D01*
X120006812Y-88510482D01*
X120019072Y-88386000D01*
X120019072Y-87968000D01*
X125999928Y-87968000D01*
X126012188Y-88092482D01*
X126048498Y-88212180D01*
X126107463Y-88322494D01*
X126186815Y-88419185D01*
X126283506Y-88498537D01*
X126393820Y-88557502D01*
X126513518Y-88593812D01*
X126638000Y-88606072D01*
X127222250Y-88603000D01*
X127381000Y-88444250D01*
X127381000Y-86995000D01*
X126161750Y-86995000D01*
X126003000Y-87153750D01*
X125999928Y-87968000D01*
X120019072Y-87968000D01*
X120019072Y-86866000D01*
X120010427Y-86778223D01*
X120172411Y-86819339D01*
X120464531Y-86834611D01*
X120754019Y-86792599D01*
X120956263Y-86720952D01*
X120865506Y-86769463D01*
X120768815Y-86848815D01*
X120689463Y-86945506D01*
X120630498Y-87055820D01*
X120594188Y-87175518D01*
X120581928Y-87300000D01*
X120585000Y-87589250D01*
X120743750Y-87748000D01*
X121793000Y-87748000D01*
X121793000Y-86823750D01*
X121634250Y-86665000D01*
X121220000Y-86661928D01*
X121095518Y-86674188D01*
X121033119Y-86693116D01*
X121167157Y-86621472D01*
X121244792Y-86372397D01*
X120396000Y-85523605D01*
X120381858Y-85537748D01*
X120202253Y-85358143D01*
X120216395Y-85344000D01*
X119367603Y-84495208D01*
X119125311Y-84570729D01*
X119009475Y-84397368D01*
X118927710Y-84315603D01*
X119547208Y-84315603D01*
X120396000Y-85164395D01*
X121244792Y-84315603D01*
X121167157Y-84066528D01*
X120903117Y-83940629D01*
X120619589Y-83868661D01*
X120327469Y-83853389D01*
X120037981Y-83895401D01*
X119762253Y-83993081D01*
X119624843Y-84066528D01*
X119547208Y-84315603D01*
X118927710Y-84315603D01*
X118802632Y-84190525D01*
X118559411Y-84028010D01*
X118289158Y-83916068D01*
X118002260Y-83859000D01*
X117709740Y-83859000D01*
X117422842Y-83916068D01*
X117152589Y-84028010D01*
X116909368Y-84190525D01*
X116702525Y-84397368D01*
X116586000Y-84571760D01*
X116469475Y-84397368D01*
X116262632Y-84190525D01*
X116019411Y-84028010D01*
X115749158Y-83916068D01*
X115462260Y-83859000D01*
X115169740Y-83859000D01*
X114882842Y-83916068D01*
X114612589Y-84028010D01*
X114369368Y-84190525D01*
X114162525Y-84397368D01*
X114000010Y-84640589D01*
X113888068Y-84910842D01*
X113831000Y-85197740D01*
X113831000Y-85490260D01*
X113888068Y-85777158D01*
X114000010Y-86047411D01*
X114162525Y-86290632D01*
X114369368Y-86497475D01*
X114612589Y-86659990D01*
X114882842Y-86771932D01*
X115169740Y-86829000D01*
X115462260Y-86829000D01*
X115701254Y-86781461D01*
X115692928Y-86866000D01*
X115692928Y-88386000D01*
X115705188Y-88510482D01*
X115741498Y-88630180D01*
X115800463Y-88740494D01*
X115825499Y-88771000D01*
X115800463Y-88801506D01*
X115741498Y-88911820D01*
X115705188Y-89031518D01*
X115692928Y-89156000D01*
X115692928Y-90676000D01*
X115705188Y-90800482D01*
X115741498Y-90920180D01*
X115800463Y-91030494D01*
X115879815Y-91127185D01*
X115976506Y-91206537D01*
X116082139Y-91263000D01*
X84505000Y-91263000D01*
X84505000Y-86100475D01*
X96679000Y-86100475D01*
X96679000Y-86619525D01*
X96780261Y-87128601D01*
X96978893Y-87608141D01*
X97267262Y-88039715D01*
X97634285Y-88406738D01*
X98065859Y-88695107D01*
X98545399Y-88893739D01*
X99054475Y-88995000D01*
X99573525Y-88995000D01*
X100082601Y-88893739D01*
X100562141Y-88695107D01*
X100993715Y-88406738D01*
X101360738Y-88039715D01*
X101649107Y-87608141D01*
X101847739Y-87128601D01*
X101949000Y-86619525D01*
X101949000Y-86372397D01*
X104307208Y-86372397D01*
X104384843Y-86621472D01*
X104648883Y-86747371D01*
X104932411Y-86819339D01*
X105224531Y-86834611D01*
X105514019Y-86792599D01*
X105789747Y-86694919D01*
X105927157Y-86621472D01*
X106004792Y-86372397D01*
X105156000Y-85523605D01*
X104307208Y-86372397D01*
X101949000Y-86372397D01*
X101949000Y-86100475D01*
X101847739Y-85591399D01*
X101773650Y-85412531D01*
X103665389Y-85412531D01*
X103707401Y-85702019D01*
X103805081Y-85977747D01*
X103878528Y-86115157D01*
X104127603Y-86192792D01*
X104976395Y-85344000D01*
X105335605Y-85344000D01*
X106184397Y-86192792D01*
X106426689Y-86117271D01*
X106542525Y-86290632D01*
X106749368Y-86497475D01*
X106992589Y-86659990D01*
X107262842Y-86771932D01*
X107549740Y-86829000D01*
X107842260Y-86829000D01*
X108129158Y-86771932D01*
X108399411Y-86659990D01*
X108642632Y-86497475D01*
X108849475Y-86290632D01*
X108966000Y-86116240D01*
X109082525Y-86290632D01*
X109289368Y-86497475D01*
X109532589Y-86659990D01*
X109802842Y-86771932D01*
X110089740Y-86829000D01*
X110382260Y-86829000D01*
X110669158Y-86771932D01*
X110939411Y-86659990D01*
X111182632Y-86497475D01*
X111389475Y-86290632D01*
X111551990Y-86047411D01*
X111663932Y-85777158D01*
X111721000Y-85490260D01*
X111721000Y-85197740D01*
X111663932Y-84910842D01*
X111551990Y-84640589D01*
X111389475Y-84397368D01*
X111182632Y-84190525D01*
X110939411Y-84028010D01*
X110669158Y-83916068D01*
X110382260Y-83859000D01*
X110089740Y-83859000D01*
X109802842Y-83916068D01*
X109532589Y-84028010D01*
X109289368Y-84190525D01*
X109082525Y-84397368D01*
X108966000Y-84571760D01*
X108849475Y-84397368D01*
X108642632Y-84190525D01*
X108399411Y-84028010D01*
X108129158Y-83916068D01*
X107842260Y-83859000D01*
X107549740Y-83859000D01*
X107262842Y-83916068D01*
X106992589Y-84028010D01*
X106749368Y-84190525D01*
X106542525Y-84397368D01*
X106426689Y-84570729D01*
X106184397Y-84495208D01*
X105335605Y-85344000D01*
X104976395Y-85344000D01*
X104127603Y-84495208D01*
X103878528Y-84572843D01*
X103752629Y-84836883D01*
X103680661Y-85120411D01*
X103665389Y-85412531D01*
X101773650Y-85412531D01*
X101649107Y-85111859D01*
X101360738Y-84680285D01*
X100996056Y-84315603D01*
X104307208Y-84315603D01*
X105156000Y-85164395D01*
X106004792Y-84315603D01*
X105927157Y-84066528D01*
X105663117Y-83940629D01*
X105379589Y-83868661D01*
X105087469Y-83853389D01*
X104797981Y-83895401D01*
X104522253Y-83993081D01*
X104384843Y-84066528D01*
X104307208Y-84315603D01*
X100996056Y-84315603D01*
X100993715Y-84313262D01*
X100562141Y-84024893D01*
X100082601Y-83826261D01*
X99573525Y-83725000D01*
X99054475Y-83725000D01*
X98545399Y-83826261D01*
X98065859Y-84024893D01*
X97634285Y-84313262D01*
X97267262Y-84680285D01*
X96978893Y-85111859D01*
X96780261Y-85591399D01*
X96679000Y-86100475D01*
X84505000Y-86100475D01*
X84505000Y-79841000D01*
X119057928Y-79841000D01*
X119070188Y-79965482D01*
X119106498Y-80085180D01*
X119165463Y-80195494D01*
X119244815Y-80292185D01*
X119341506Y-80371537D01*
X119451820Y-80430502D01*
X119571518Y-80466812D01*
X119696000Y-80479072D01*
X120110250Y-80476000D01*
X120269000Y-80317250D01*
X120269000Y-79393000D01*
X119219750Y-79393000D01*
X119061000Y-79551750D01*
X119057928Y-79841000D01*
X84505000Y-79841000D01*
X84505000Y-77800000D01*
X86091928Y-77800000D01*
X86104188Y-77924482D01*
X86140498Y-78044180D01*
X86199463Y-78154494D01*
X86278815Y-78251185D01*
X86375506Y-78330537D01*
X86485820Y-78389502D01*
X86605518Y-78425812D01*
X86730000Y-78438072D01*
X87314250Y-78435000D01*
X87473000Y-78276250D01*
X87473000Y-76827000D01*
X86253750Y-76827000D01*
X86095000Y-76985750D01*
X86091928Y-77800000D01*
X84505000Y-77800000D01*
X84505000Y-75600000D01*
X86091928Y-75600000D01*
X86095000Y-76414250D01*
X86253750Y-76573000D01*
X87473000Y-76573000D01*
X87473000Y-75123750D01*
X87727000Y-75123750D01*
X87727000Y-76573000D01*
X87747000Y-76573000D01*
X87747000Y-76827000D01*
X87727000Y-76827000D01*
X87727000Y-78276250D01*
X87885750Y-78435000D01*
X88470000Y-78438072D01*
X88594482Y-78425812D01*
X88714180Y-78389502D01*
X88824494Y-78330537D01*
X88921185Y-78251185D01*
X89000537Y-78154494D01*
X89059502Y-78044180D01*
X89072615Y-78000953D01*
X89299822Y-78187417D01*
X89561276Y-78327166D01*
X89844969Y-78413224D01*
X90140000Y-78442282D01*
X90435032Y-78413224D01*
X90718725Y-78327166D01*
X90980179Y-78187417D01*
X91209345Y-77999345D01*
X91397417Y-77770179D01*
X91537166Y-77508724D01*
X91623224Y-77225031D01*
X91645000Y-77003935D01*
X91645000Y-76396064D01*
X91623224Y-76174968D01*
X91537166Y-75891275D01*
X91519380Y-75857999D01*
X93991928Y-75857999D01*
X93991928Y-77558001D01*
X94008992Y-77731255D01*
X94059528Y-77897851D01*
X94141595Y-78051387D01*
X94252038Y-78185962D01*
X94386613Y-78296405D01*
X94540149Y-78378472D01*
X94706745Y-78429008D01*
X94879999Y-78446072D01*
X96120001Y-78446072D01*
X96293255Y-78429008D01*
X96459851Y-78378472D01*
X96613387Y-78296405D01*
X96747962Y-78185962D01*
X96858405Y-78051387D01*
X96916934Y-77941886D01*
X96970655Y-78007345D01*
X97199822Y-78195417D01*
X97461276Y-78335166D01*
X97744969Y-78421224D01*
X98040000Y-78450282D01*
X98335032Y-78421224D01*
X98618725Y-78335166D01*
X98880179Y-78195417D01*
X99109345Y-78007345D01*
X99297417Y-77778179D01*
X99437166Y-77516724D01*
X99523224Y-77233031D01*
X99545000Y-77011935D01*
X99545000Y-76404064D01*
X99523224Y-76182968D01*
X99496833Y-76095968D01*
X105627928Y-69964874D01*
X105627928Y-72110000D01*
X105640188Y-72234482D01*
X105676498Y-72354180D01*
X105735463Y-72464494D01*
X105814815Y-72561185D01*
X105911506Y-72640537D01*
X106021820Y-72699502D01*
X106141518Y-72735812D01*
X106266000Y-72748072D01*
X111666000Y-72748072D01*
X111790482Y-72735812D01*
X111910180Y-72699502D01*
X112020494Y-72640537D01*
X112117185Y-72561185D01*
X112196537Y-72464494D01*
X112255502Y-72354180D01*
X112291812Y-72234482D01*
X112304072Y-72110000D01*
X112304072Y-71115929D01*
X112420061Y-71139000D01*
X112623939Y-71139000D01*
X112823898Y-71099226D01*
X113012256Y-71021205D01*
X113181774Y-70907937D01*
X113325937Y-70763774D01*
X113439205Y-70594256D01*
X113517226Y-70405898D01*
X113557000Y-70205939D01*
X113557000Y-70002061D01*
X113517226Y-69802102D01*
X113439205Y-69613744D01*
X113325937Y-69444226D01*
X113181774Y-69300063D01*
X113046985Y-69210000D01*
X118835928Y-69210000D01*
X118835928Y-72110000D01*
X118848188Y-72234482D01*
X118884498Y-72354180D01*
X118943463Y-72464494D01*
X119022815Y-72561185D01*
X119119506Y-72640537D01*
X119229820Y-72699502D01*
X119349518Y-72735812D01*
X119474000Y-72748072D01*
X124874000Y-72748072D01*
X124998482Y-72735812D01*
X125118180Y-72699502D01*
X125228494Y-72640537D01*
X125325185Y-72561185D01*
X125404537Y-72464494D01*
X125463502Y-72354180D01*
X125499812Y-72234482D01*
X125512072Y-72110000D01*
X125512072Y-71139000D01*
X125577939Y-71139000D01*
X125777898Y-71099226D01*
X125966256Y-71021205D01*
X126135774Y-70907937D01*
X126279937Y-70763774D01*
X126393205Y-70594256D01*
X126471226Y-70405898D01*
X126511000Y-70205939D01*
X126511000Y-70002061D01*
X126471226Y-69802102D01*
X126393205Y-69613744D01*
X126279937Y-69444226D01*
X126135774Y-69300063D01*
X126000985Y-69210000D01*
X132043928Y-69210000D01*
X132043928Y-72110000D01*
X132056188Y-72234482D01*
X132092498Y-72354180D01*
X132151463Y-72464494D01*
X132230815Y-72561185D01*
X132327506Y-72640537D01*
X132437820Y-72699502D01*
X132557518Y-72735812D01*
X132682000Y-72748072D01*
X138082000Y-72748072D01*
X138206482Y-72735812D01*
X138326180Y-72699502D01*
X138436494Y-72640537D01*
X138533185Y-72561185D01*
X138612537Y-72464494D01*
X138671502Y-72354180D01*
X138707812Y-72234482D01*
X138720072Y-72110000D01*
X138720072Y-71036000D01*
X143271928Y-71036000D01*
X143275000Y-71850250D01*
X143433750Y-72009000D01*
X144653000Y-72009000D01*
X144653000Y-70559750D01*
X144494250Y-70401000D01*
X143910000Y-70397928D01*
X143785518Y-70410188D01*
X143665820Y-70446498D01*
X143555506Y-70505463D01*
X143458815Y-70584815D01*
X143379463Y-70681506D01*
X143320498Y-70791820D01*
X143284188Y-70911518D01*
X143271928Y-71036000D01*
X138720072Y-71036000D01*
X138720072Y-70102000D01*
X139250289Y-70102000D01*
X139294226Y-70145937D01*
X139463744Y-70259205D01*
X139652102Y-70337226D01*
X139852061Y-70377000D01*
X140055939Y-70377000D01*
X140255898Y-70337226D01*
X140444256Y-70259205D01*
X140613774Y-70145937D01*
X140757937Y-70001774D01*
X140871205Y-69832256D01*
X140949226Y-69643898D01*
X140989000Y-69443939D01*
X140989000Y-69240061D01*
X140949226Y-69040102D01*
X140871205Y-68851744D01*
X140757937Y-68682226D01*
X140613774Y-68538063D01*
X140444256Y-68424795D01*
X140255898Y-68346774D01*
X140055939Y-68307000D01*
X139852061Y-68307000D01*
X139652102Y-68346774D01*
X139463744Y-68424795D01*
X139294226Y-68538063D01*
X139250289Y-68582000D01*
X138184266Y-68582000D01*
X138082000Y-68571928D01*
X132682000Y-68571928D01*
X132557518Y-68584188D01*
X132437820Y-68620498D01*
X132327506Y-68679463D01*
X132230815Y-68758815D01*
X132151463Y-68855506D01*
X132092498Y-68965820D01*
X132056188Y-69085518D01*
X132043928Y-69210000D01*
X126000985Y-69210000D01*
X125966256Y-69186795D01*
X125777898Y-69108774D01*
X125577939Y-69069000D01*
X125494801Y-69069000D01*
X125463502Y-68965820D01*
X125404537Y-68855506D01*
X125325185Y-68758815D01*
X125228494Y-68679463D01*
X125118180Y-68620498D01*
X124998482Y-68584188D01*
X124874000Y-68571928D01*
X119474000Y-68571928D01*
X119349518Y-68584188D01*
X119229820Y-68620498D01*
X119119506Y-68679463D01*
X119022815Y-68758815D01*
X118943463Y-68855506D01*
X118884498Y-68965820D01*
X118848188Y-69085518D01*
X118835928Y-69210000D01*
X113046985Y-69210000D01*
X113012256Y-69186795D01*
X112823898Y-69108774D01*
X112623939Y-69069000D01*
X112420061Y-69069000D01*
X112292681Y-69094337D01*
X112291812Y-69085518D01*
X112255502Y-68965820D01*
X112196537Y-68855506D01*
X112117185Y-68758815D01*
X112020494Y-68679463D01*
X111910180Y-68620498D01*
X111790482Y-68584188D01*
X111666000Y-68571928D01*
X107020874Y-68571928D01*
X108792802Y-66800000D01*
X114612289Y-66800000D01*
X114656226Y-66843937D01*
X114825744Y-66957205D01*
X115014102Y-67035226D01*
X115214061Y-67075000D01*
X115417939Y-67075000D01*
X115617898Y-67035226D01*
X115806256Y-66957205D01*
X115975774Y-66843937D01*
X116019711Y-66800000D01*
X127820289Y-66800000D01*
X127864226Y-66843937D01*
X128033744Y-66957205D01*
X128222102Y-67035226D01*
X128422061Y-67075000D01*
X128625939Y-67075000D01*
X128825898Y-67035226D01*
X129014256Y-66957205D01*
X129183774Y-66843937D01*
X129227711Y-66800000D01*
X141028289Y-66800000D01*
X141072226Y-66843937D01*
X141241744Y-66957205D01*
X141430102Y-67035226D01*
X141630061Y-67075000D01*
X141833939Y-67075000D01*
X142033898Y-67035226D01*
X142222256Y-66957205D01*
X142391774Y-66843937D01*
X142535937Y-66699774D01*
X142649205Y-66530256D01*
X142727226Y-66341898D01*
X142767000Y-66141939D01*
X142767000Y-65938061D01*
X142727226Y-65738102D01*
X142649205Y-65549744D01*
X142535937Y-65380226D01*
X142391774Y-65236063D01*
X142222256Y-65122795D01*
X142033898Y-65044774D01*
X141833939Y-65005000D01*
X141630061Y-65005000D01*
X141430102Y-65044774D01*
X141241744Y-65122795D01*
X141072226Y-65236063D01*
X141028289Y-65280000D01*
X129227711Y-65280000D01*
X129183774Y-65236063D01*
X129014256Y-65122795D01*
X128825898Y-65044774D01*
X128625939Y-65005000D01*
X128422061Y-65005000D01*
X128222102Y-65044774D01*
X128033744Y-65122795D01*
X127864226Y-65236063D01*
X127820289Y-65280000D01*
X116019711Y-65280000D01*
X115975774Y-65236063D01*
X115806256Y-65122795D01*
X115617898Y-65044774D01*
X115417939Y-65005000D01*
X115214061Y-65005000D01*
X115014102Y-65044774D01*
X114825744Y-65122795D01*
X114656226Y-65236063D01*
X114612289Y-65280000D01*
X108515322Y-65280000D01*
X108477999Y-65276324D01*
X108440676Y-65280000D01*
X108440667Y-65280000D01*
X108329014Y-65290997D01*
X108185753Y-65334454D01*
X108053724Y-65405026D01*
X107937999Y-65499999D01*
X107914201Y-65528997D01*
X98422031Y-75021167D01*
X98335031Y-74994776D01*
X98040000Y-74965718D01*
X97744968Y-74994776D01*
X97461275Y-75080834D01*
X97199821Y-75220583D01*
X96970655Y-75408655D01*
X96916935Y-75474114D01*
X96858405Y-75364613D01*
X96747962Y-75230038D01*
X96613387Y-75119595D01*
X96459851Y-75037528D01*
X96293255Y-74986992D01*
X96120001Y-74969928D01*
X94879999Y-74969928D01*
X94706745Y-74986992D01*
X94540149Y-75037528D01*
X94386613Y-75119595D01*
X94252038Y-75230038D01*
X94141595Y-75364613D01*
X94059528Y-75518149D01*
X94008992Y-75684745D01*
X93991928Y-75857999D01*
X91519380Y-75857999D01*
X91397417Y-75629821D01*
X91209345Y-75400655D01*
X90980178Y-75212583D01*
X90718724Y-75072834D01*
X90435031Y-74986776D01*
X90140000Y-74957718D01*
X89844968Y-74986776D01*
X89561275Y-75072834D01*
X89299821Y-75212583D01*
X89072615Y-75399047D01*
X89059502Y-75355820D01*
X89000537Y-75245506D01*
X88921185Y-75148815D01*
X88824494Y-75069463D01*
X88714180Y-75010498D01*
X88594482Y-74974188D01*
X88470000Y-74961928D01*
X87885750Y-74965000D01*
X87727000Y-75123750D01*
X87473000Y-75123750D01*
X87314250Y-74965000D01*
X86730000Y-74961928D01*
X86605518Y-74974188D01*
X86485820Y-75010498D01*
X86375506Y-75069463D01*
X86278815Y-75148815D01*
X86199463Y-75245506D01*
X86140498Y-75355820D01*
X86104188Y-75475518D01*
X86091928Y-75600000D01*
X84505000Y-75600000D01*
X84505000Y-62484000D01*
X100107323Y-62484000D01*
X100121997Y-62632986D01*
X100165454Y-62776247D01*
X100236026Y-62908276D01*
X100330999Y-63024001D01*
X100446724Y-63118974D01*
X100578753Y-63189546D01*
X100722014Y-63233003D01*
X100833667Y-63244000D01*
X101383333Y-63244000D01*
X101494986Y-63233003D01*
X101638247Y-63189546D01*
X101770276Y-63118974D01*
X101886001Y-63024001D01*
X101980974Y-62908276D01*
X102051546Y-62776247D01*
X102095003Y-62632986D01*
X102109677Y-62484000D01*
X102095003Y-62335014D01*
X102051546Y-62191753D01*
X101980974Y-62059724D01*
X101886001Y-61943999D01*
X101770276Y-61849026D01*
X101638247Y-61778454D01*
X101494986Y-61734997D01*
X101383333Y-61724000D01*
X100833667Y-61724000D01*
X100722014Y-61734997D01*
X100578753Y-61778454D01*
X100446724Y-61849026D01*
X100330999Y-61943999D01*
X100236026Y-62059724D01*
X100165454Y-62191753D01*
X100121997Y-62335014D01*
X100107323Y-62484000D01*
X84505000Y-62484000D01*
X84505000Y-60858061D01*
X104375000Y-60858061D01*
X104375000Y-61061939D01*
X104414774Y-61261898D01*
X104492795Y-61450256D01*
X104606063Y-61619774D01*
X104750226Y-61763937D01*
X104919744Y-61877205D01*
X105108102Y-61955226D01*
X105308061Y-61995000D01*
X105511939Y-61995000D01*
X105627928Y-61971929D01*
X105627928Y-62410000D01*
X105640188Y-62534482D01*
X105676498Y-62654180D01*
X105735463Y-62764494D01*
X105814815Y-62861185D01*
X105911506Y-62940537D01*
X106021820Y-62999502D01*
X106141518Y-63035812D01*
X106266000Y-63048072D01*
X111666000Y-63048072D01*
X111790482Y-63035812D01*
X111910180Y-62999502D01*
X112020494Y-62940537D01*
X112117185Y-62861185D01*
X112196537Y-62764494D01*
X112255502Y-62654180D01*
X112291812Y-62534482D01*
X112304072Y-62410000D01*
X112304072Y-59510000D01*
X118835928Y-59510000D01*
X118835928Y-62410000D01*
X118848188Y-62534482D01*
X118884498Y-62654180D01*
X118943463Y-62764494D01*
X119022815Y-62861185D01*
X119119506Y-62940537D01*
X119144794Y-62954054D01*
X119107000Y-63144061D01*
X119107000Y-63347939D01*
X119146774Y-63547898D01*
X119224795Y-63736256D01*
X119338063Y-63905774D01*
X119482226Y-64049937D01*
X119651744Y-64163205D01*
X119840102Y-64241226D01*
X120040061Y-64281000D01*
X120243939Y-64281000D01*
X120443898Y-64241226D01*
X120632256Y-64163205D01*
X120801774Y-64049937D01*
X120845711Y-64006000D01*
X121550678Y-64006000D01*
X121588000Y-64009676D01*
X121625322Y-64006000D01*
X121625333Y-64006000D01*
X121736986Y-63995003D01*
X121880247Y-63951546D01*
X122012276Y-63880974D01*
X122128001Y-63786001D01*
X122151803Y-63756998D01*
X122685002Y-63223800D01*
X122714001Y-63200001D01*
X122759910Y-63144061D01*
X122808974Y-63084277D01*
X122828326Y-63048072D01*
X124874000Y-63048072D01*
X124998482Y-63035812D01*
X125118180Y-62999502D01*
X125228494Y-62940537D01*
X125325185Y-62861185D01*
X125404537Y-62764494D01*
X125463502Y-62654180D01*
X125499812Y-62534482D01*
X125512072Y-62410000D01*
X125512072Y-61614326D01*
X125548276Y-61594974D01*
X125664001Y-61500001D01*
X125687804Y-61470997D01*
X127648801Y-59510000D01*
X132043928Y-59510000D01*
X132043928Y-62410000D01*
X132056188Y-62534482D01*
X132092498Y-62654180D01*
X132151463Y-62764494D01*
X132230815Y-62861185D01*
X132327506Y-62940537D01*
X132437820Y-62999502D01*
X132557518Y-63035812D01*
X132682000Y-63048072D01*
X133096093Y-63048072D01*
X133077000Y-63144061D01*
X133077000Y-63347939D01*
X133116774Y-63547898D01*
X133194795Y-63736256D01*
X133308063Y-63905774D01*
X133452226Y-64049937D01*
X133621744Y-64163205D01*
X133810102Y-64241226D01*
X134010061Y-64281000D01*
X134213939Y-64281000D01*
X134413898Y-64241226D01*
X134602256Y-64163205D01*
X134771774Y-64049937D01*
X134915937Y-63905774D01*
X135029205Y-63736256D01*
X135107226Y-63547898D01*
X135147000Y-63347939D01*
X135147000Y-63285801D01*
X135384730Y-63048072D01*
X138082000Y-63048072D01*
X138206482Y-63035812D01*
X138326180Y-62999502D01*
X138436494Y-62940537D01*
X138533185Y-62861185D01*
X138612537Y-62764494D01*
X138671502Y-62654180D01*
X138707812Y-62534482D01*
X138720072Y-62410000D01*
X138720072Y-59510000D01*
X138707812Y-59385518D01*
X138671502Y-59265820D01*
X138612537Y-59155506D01*
X138533185Y-59058815D01*
X138436494Y-58979463D01*
X138326180Y-58920498D01*
X138206482Y-58884188D01*
X138082000Y-58871928D01*
X132682000Y-58871928D01*
X132557518Y-58884188D01*
X132437820Y-58920498D01*
X132327506Y-58979463D01*
X132230815Y-59058815D01*
X132151463Y-59155506D01*
X132092498Y-59265820D01*
X132056188Y-59385518D01*
X132043928Y-59510000D01*
X127648801Y-59510000D01*
X128486802Y-58672000D01*
X141417199Y-58672000D01*
X148592000Y-65846802D01*
X148592001Y-71093105D01*
X148577417Y-71065821D01*
X148389345Y-70836655D01*
X148160178Y-70648583D01*
X147898724Y-70508834D01*
X147615031Y-70422776D01*
X147320000Y-70393718D01*
X147024968Y-70422776D01*
X146741275Y-70508834D01*
X146479821Y-70648583D01*
X146252615Y-70835047D01*
X146239502Y-70791820D01*
X146180537Y-70681506D01*
X146101185Y-70584815D01*
X146004494Y-70505463D01*
X145894180Y-70446498D01*
X145774482Y-70410188D01*
X145650000Y-70397928D01*
X145065750Y-70401000D01*
X144907000Y-70559750D01*
X144907000Y-72009000D01*
X144927000Y-72009000D01*
X144927000Y-72263000D01*
X144907000Y-72263000D01*
X144907000Y-73712250D01*
X145065750Y-73871000D01*
X145650000Y-73874072D01*
X145774482Y-73861812D01*
X145894180Y-73825502D01*
X146004494Y-73766537D01*
X146101185Y-73687185D01*
X146180537Y-73590494D01*
X146239502Y-73480180D01*
X146252615Y-73436953D01*
X146479822Y-73623417D01*
X146741276Y-73763166D01*
X147024969Y-73849224D01*
X147320000Y-73878282D01*
X147615032Y-73849224D01*
X147898725Y-73763166D01*
X148160179Y-73623417D01*
X148389345Y-73435345D01*
X148577417Y-73206179D01*
X148592001Y-73178894D01*
X148592001Y-74916668D01*
X148588324Y-74954000D01*
X148592001Y-74991333D01*
X148602998Y-75102986D01*
X148608036Y-75119595D01*
X148646454Y-75246246D01*
X148717026Y-75378276D01*
X148788201Y-75465002D01*
X148812000Y-75494001D01*
X148840998Y-75517799D01*
X151344198Y-78021000D01*
X151256998Y-78021000D01*
X151256998Y-78179748D01*
X151098250Y-78021000D01*
X150514000Y-78017928D01*
X150389518Y-78030188D01*
X150269820Y-78066498D01*
X150159506Y-78125463D01*
X150062815Y-78204815D01*
X149983463Y-78301506D01*
X149924498Y-78411820D01*
X149888188Y-78531518D01*
X149875928Y-78656000D01*
X149879000Y-79470250D01*
X150037750Y-79629000D01*
X151257000Y-79629000D01*
X151257000Y-79609000D01*
X151511000Y-79609000D01*
X151511000Y-79629000D01*
X151531000Y-79629000D01*
X151531000Y-79883000D01*
X151511000Y-79883000D01*
X151511000Y-81332250D01*
X151669750Y-81491000D01*
X152254000Y-81494072D01*
X152378482Y-81481812D01*
X152498180Y-81445502D01*
X152608494Y-81386537D01*
X152705185Y-81307185D01*
X152784537Y-81210494D01*
X152843502Y-81100180D01*
X152856615Y-81056953D01*
X153083822Y-81243417D01*
X153345276Y-81383166D01*
X153628969Y-81469224D01*
X153924000Y-81498282D01*
X154219032Y-81469224D01*
X154502725Y-81383166D01*
X154764179Y-81243417D01*
X154993345Y-81055345D01*
X155181417Y-80826179D01*
X155321166Y-80564724D01*
X155407224Y-80281031D01*
X155429000Y-80059935D01*
X155429000Y-79452064D01*
X155407224Y-79230968D01*
X155321166Y-78947275D01*
X155181417Y-78685821D01*
X154993345Y-78456655D01*
X154764178Y-78268583D01*
X154502724Y-78128834D01*
X154219031Y-78042776D01*
X153924000Y-78013718D01*
X153628968Y-78042776D01*
X153541970Y-78069167D01*
X150112000Y-74639199D01*
X150112000Y-73727550D01*
X150159506Y-73766537D01*
X150269820Y-73825502D01*
X150389518Y-73861812D01*
X150514000Y-73874072D01*
X151098250Y-73871000D01*
X151257000Y-73712250D01*
X151257000Y-72263000D01*
X151237000Y-72263000D01*
X151237000Y-72009000D01*
X151257000Y-72009000D01*
X151257000Y-70559750D01*
X151511000Y-70559750D01*
X151511000Y-72009000D01*
X151531000Y-72009000D01*
X151531000Y-72263000D01*
X151511000Y-72263000D01*
X151511000Y-73712250D01*
X151669750Y-73871000D01*
X152254000Y-73874072D01*
X152378482Y-73861812D01*
X152498180Y-73825502D01*
X152608494Y-73766537D01*
X152705185Y-73687185D01*
X152784537Y-73590494D01*
X152843502Y-73480180D01*
X152856615Y-73436953D01*
X153083822Y-73623417D01*
X153345276Y-73763166D01*
X153628969Y-73849224D01*
X153924000Y-73878282D01*
X154219032Y-73849224D01*
X154502725Y-73763166D01*
X154764179Y-73623417D01*
X154993345Y-73435345D01*
X155181417Y-73206179D01*
X155321166Y-72944724D01*
X155407224Y-72661031D01*
X155429000Y-72439935D01*
X155429000Y-71832064D01*
X155407224Y-71610968D01*
X155321166Y-71327275D01*
X155181417Y-71065821D01*
X154993345Y-70836655D01*
X154764178Y-70648583D01*
X154502724Y-70508834D01*
X154219031Y-70422776D01*
X153924000Y-70393718D01*
X153628968Y-70422776D01*
X153345275Y-70508834D01*
X153083821Y-70648583D01*
X152856615Y-70835047D01*
X152843502Y-70791820D01*
X152784537Y-70681506D01*
X152705185Y-70584815D01*
X152608494Y-70505463D01*
X152498180Y-70446498D01*
X152378482Y-70410188D01*
X152254000Y-70397928D01*
X151669750Y-70401000D01*
X151511000Y-70559750D01*
X151257000Y-70559750D01*
X151098250Y-70401000D01*
X150514000Y-70397928D01*
X150389518Y-70410188D01*
X150269820Y-70446498D01*
X150159506Y-70505463D01*
X150112000Y-70544450D01*
X150112000Y-65569322D01*
X150115676Y-65531999D01*
X150112000Y-65494676D01*
X150112000Y-65494667D01*
X150101003Y-65383014D01*
X150057546Y-65239753D01*
X149986974Y-65107724D01*
X149892001Y-64991999D01*
X149863004Y-64968202D01*
X142295804Y-57401003D01*
X142272001Y-57371999D01*
X142156276Y-57277026D01*
X142024247Y-57206454D01*
X141880986Y-57162997D01*
X141769333Y-57152000D01*
X141769322Y-57152000D01*
X141732000Y-57148324D01*
X141694678Y-57152000D01*
X128209323Y-57152000D01*
X128172000Y-57148324D01*
X128134677Y-57152000D01*
X128134667Y-57152000D01*
X128023014Y-57162997D01*
X127879753Y-57206454D01*
X127747723Y-57277026D01*
X127688278Y-57325812D01*
X127631999Y-57371999D01*
X127608201Y-57400997D01*
X125510918Y-59498281D01*
X125499812Y-59385518D01*
X125463502Y-59265820D01*
X125404537Y-59155506D01*
X125325185Y-59058815D01*
X125228494Y-58979463D01*
X125118180Y-58920498D01*
X124998482Y-58884188D01*
X124874000Y-58871928D01*
X119474000Y-58871928D01*
X119349518Y-58884188D01*
X119229820Y-58920498D01*
X119119506Y-58979463D01*
X119022815Y-59058815D01*
X118943463Y-59155506D01*
X118884498Y-59265820D01*
X118848188Y-59385518D01*
X118835928Y-59510000D01*
X112304072Y-59510000D01*
X112291812Y-59385518D01*
X112255502Y-59265820D01*
X112196537Y-59155506D01*
X112117185Y-59058815D01*
X112020494Y-58979463D01*
X111910180Y-58920498D01*
X111790482Y-58884188D01*
X111666000Y-58871928D01*
X106266000Y-58871928D01*
X106141518Y-58884188D01*
X106021820Y-58920498D01*
X105911506Y-58979463D01*
X105814815Y-59058815D01*
X105735463Y-59155506D01*
X105676498Y-59265820D01*
X105640188Y-59385518D01*
X105627928Y-59510000D01*
X105627928Y-59948071D01*
X105511939Y-59925000D01*
X105308061Y-59925000D01*
X105108102Y-59964774D01*
X104919744Y-60042795D01*
X104750226Y-60156063D01*
X104606063Y-60300226D01*
X104492795Y-60469744D01*
X104414774Y-60658102D01*
X104375000Y-60858061D01*
X84505000Y-60858061D01*
X84505000Y-50540475D01*
X84995000Y-50540475D01*
X84995000Y-51059525D01*
X85096261Y-51568601D01*
X85294893Y-52048141D01*
X85583262Y-52479715D01*
X85950285Y-52846738D01*
X86381859Y-53135107D01*
X86861399Y-53333739D01*
X87370475Y-53435000D01*
X87889525Y-53435000D01*
X88398601Y-53333739D01*
X88493257Y-53294531D01*
X90649074Y-53294531D01*
X90759921Y-53571714D01*
X91070840Y-53725089D01*
X91405705Y-53814860D01*
X91751650Y-53837576D01*
X92095380Y-53792366D01*
X92423685Y-53680966D01*
X92628079Y-53571714D01*
X92738926Y-53294531D01*
X95729074Y-53294531D01*
X95839921Y-53571714D01*
X96150840Y-53725089D01*
X96485705Y-53814860D01*
X96831650Y-53837576D01*
X97175380Y-53792366D01*
X97503685Y-53680966D01*
X97708079Y-53571714D01*
X97818926Y-53294531D01*
X99031074Y-53294531D01*
X99141921Y-53571714D01*
X99452840Y-53725089D01*
X99787705Y-53814860D01*
X100133650Y-53837576D01*
X100477380Y-53792366D01*
X100805685Y-53680966D01*
X101010079Y-53571714D01*
X101120926Y-53294531D01*
X100076000Y-52249605D01*
X99031074Y-53294531D01*
X97818926Y-53294531D01*
X96774000Y-52249605D01*
X95729074Y-53294531D01*
X92738926Y-53294531D01*
X91694000Y-52249605D01*
X90649074Y-53294531D01*
X88493257Y-53294531D01*
X88878141Y-53135107D01*
X89309715Y-52846738D01*
X89676738Y-52479715D01*
X89927998Y-52103678D01*
X89926424Y-52127650D01*
X89971634Y-52471380D01*
X90083034Y-52799685D01*
X90192286Y-53004079D01*
X90469469Y-53114926D01*
X91514395Y-52070000D01*
X91873605Y-52070000D01*
X92918531Y-53114926D01*
X93195714Y-53004079D01*
X93349089Y-52693160D01*
X93438860Y-52358295D01*
X93454004Y-52127650D01*
X95006424Y-52127650D01*
X95051634Y-52471380D01*
X95163034Y-52799685D01*
X95272286Y-53004079D01*
X95549469Y-53114926D01*
X96594395Y-52070000D01*
X96953605Y-52070000D01*
X97998531Y-53114926D01*
X98275714Y-53004079D01*
X98428970Y-52693401D01*
X98465034Y-52799685D01*
X98574286Y-53004079D01*
X98851469Y-53114926D01*
X99896395Y-52070000D01*
X100255605Y-52070000D01*
X101300531Y-53114926D01*
X101577714Y-53004079D01*
X101731089Y-52693160D01*
X101820860Y-52358295D01*
X101843576Y-52012350D01*
X101798366Y-51668620D01*
X101686966Y-51340315D01*
X101577714Y-51135921D01*
X101300531Y-51025074D01*
X100255605Y-52070000D01*
X99896395Y-52070000D01*
X98851469Y-51025074D01*
X98574286Y-51135921D01*
X98421030Y-51446599D01*
X98384966Y-51340315D01*
X98275714Y-51135921D01*
X97998531Y-51025074D01*
X96953605Y-52070000D01*
X96594395Y-52070000D01*
X95549469Y-51025074D01*
X95272286Y-51135921D01*
X95118911Y-51446840D01*
X95029140Y-51781705D01*
X95006424Y-52127650D01*
X93454004Y-52127650D01*
X93461576Y-52012350D01*
X93416366Y-51668620D01*
X93304966Y-51340315D01*
X93195714Y-51135921D01*
X92918531Y-51025074D01*
X91873605Y-52070000D01*
X91514395Y-52070000D01*
X90469469Y-51025074D01*
X90254775Y-51110931D01*
X90265000Y-51059525D01*
X90265000Y-50845469D01*
X90649074Y-50845469D01*
X91694000Y-51890395D01*
X92738926Y-50845469D01*
X92628079Y-50568286D01*
X92317160Y-50414911D01*
X91982295Y-50325140D01*
X91636350Y-50302424D01*
X91292620Y-50347634D01*
X90964315Y-50459034D01*
X90759921Y-50568286D01*
X90649074Y-50845469D01*
X90265000Y-50845469D01*
X90265000Y-50540475D01*
X90163739Y-50031399D01*
X89965107Y-49551859D01*
X89841257Y-49366504D01*
X92574000Y-49366504D01*
X92574000Y-49693496D01*
X92637793Y-50014204D01*
X92762927Y-50316305D01*
X92944594Y-50588188D01*
X93175812Y-50819406D01*
X93447695Y-51001073D01*
X93749796Y-51126207D01*
X94070504Y-51190000D01*
X94397496Y-51190000D01*
X94718204Y-51126207D01*
X95020305Y-51001073D01*
X95253182Y-50845469D01*
X95729074Y-50845469D01*
X96774000Y-51890395D01*
X97818926Y-50845469D01*
X99031074Y-50845469D01*
X100076000Y-51890395D01*
X101120926Y-50845469D01*
X101010079Y-50568286D01*
X100699160Y-50414911D01*
X100364295Y-50325140D01*
X100018350Y-50302424D01*
X99674620Y-50347634D01*
X99346315Y-50459034D01*
X99141921Y-50568286D01*
X99031074Y-50845469D01*
X97818926Y-50845469D01*
X97708079Y-50568286D01*
X97397160Y-50414911D01*
X97062295Y-50325140D01*
X96716350Y-50302424D01*
X96372620Y-50347634D01*
X96044315Y-50459034D01*
X95839921Y-50568286D01*
X95729074Y-50845469D01*
X95253182Y-50845469D01*
X95292188Y-50819406D01*
X95523406Y-50588188D01*
X95705073Y-50316305D01*
X95830207Y-50014204D01*
X95894000Y-49693496D01*
X95894000Y-49366504D01*
X100956000Y-49366504D01*
X100956000Y-49693496D01*
X101019793Y-50014204D01*
X101144927Y-50316305D01*
X101326594Y-50588188D01*
X101557812Y-50819406D01*
X101829695Y-51001073D01*
X101856001Y-51011969D01*
X101856001Y-51578668D01*
X101852324Y-51616000D01*
X101866998Y-51764985D01*
X101910454Y-51908246D01*
X101981026Y-52040276D01*
X102052201Y-52127002D01*
X102076000Y-52156001D01*
X102104998Y-52179799D01*
X105786928Y-55861730D01*
X105786928Y-56450001D01*
X105803992Y-56623255D01*
X105854528Y-56789851D01*
X105936595Y-56943387D01*
X106047038Y-57077962D01*
X106181613Y-57188405D01*
X106335149Y-57270472D01*
X106501745Y-57321008D01*
X106674999Y-57338072D01*
X107325001Y-57338072D01*
X107498255Y-57321008D01*
X107664851Y-57270472D01*
X107818387Y-57188405D01*
X107952962Y-57077962D01*
X108025000Y-56990184D01*
X108097038Y-57077962D01*
X108231613Y-57188405D01*
X108385149Y-57270472D01*
X108551745Y-57321008D01*
X108724999Y-57338072D01*
X109375001Y-57338072D01*
X109548255Y-57321008D01*
X109714851Y-57270472D01*
X109868387Y-57188405D01*
X110002962Y-57077962D01*
X110113405Y-56943387D01*
X110195472Y-56789851D01*
X110204527Y-56760000D01*
X110295473Y-56760000D01*
X110304528Y-56789851D01*
X110386595Y-56943387D01*
X110497038Y-57077962D01*
X110631613Y-57188405D01*
X110785149Y-57270472D01*
X110951745Y-57321008D01*
X111124999Y-57338072D01*
X111775001Y-57338072D01*
X111948255Y-57321008D01*
X112114851Y-57270472D01*
X112268387Y-57188405D01*
X112402962Y-57077962D01*
X112408342Y-57071406D01*
X112473815Y-57151185D01*
X112570506Y-57230537D01*
X112680820Y-57289502D01*
X112800518Y-57325812D01*
X112925000Y-57338072D01*
X113214250Y-57335000D01*
X113373000Y-57176250D01*
X113373000Y-56127000D01*
X113627000Y-56127000D01*
X113627000Y-57176250D01*
X113785750Y-57335000D01*
X114075000Y-57338072D01*
X114199482Y-57325812D01*
X114319180Y-57289502D01*
X114429494Y-57230537D01*
X114526185Y-57151185D01*
X114605537Y-57054494D01*
X114664502Y-56944180D01*
X114700812Y-56824482D01*
X114713072Y-56700000D01*
X114710000Y-56285750D01*
X114551250Y-56127000D01*
X113627000Y-56127000D01*
X113373000Y-56127000D01*
X113353000Y-56127000D01*
X113353000Y-55873000D01*
X113373000Y-55873000D01*
X113373000Y-54823750D01*
X113627000Y-54823750D01*
X113627000Y-55873000D01*
X114551250Y-55873000D01*
X114710000Y-55714250D01*
X114713072Y-55300000D01*
X114700812Y-55175518D01*
X114664502Y-55055820D01*
X114605537Y-54945506D01*
X114526185Y-54848815D01*
X114429494Y-54769463D01*
X114319180Y-54710498D01*
X114199482Y-54674188D01*
X114075000Y-54661928D01*
X113785750Y-54665000D01*
X113627000Y-54823750D01*
X113373000Y-54823750D01*
X113214250Y-54665000D01*
X112925000Y-54661928D01*
X112800518Y-54674188D01*
X112680820Y-54710498D01*
X112570506Y-54769463D01*
X112473815Y-54848815D01*
X112408342Y-54928594D01*
X112402962Y-54922038D01*
X112268387Y-54811595D01*
X112114851Y-54729528D01*
X111948255Y-54678992D01*
X111775001Y-54661928D01*
X111462874Y-54661928D01*
X111509004Y-54615798D01*
X111538001Y-54592001D01*
X111564332Y-54559917D01*
X111632974Y-54476277D01*
X111703546Y-54344247D01*
X111703546Y-54344246D01*
X111747003Y-54200986D01*
X111758000Y-54089333D01*
X111758000Y-54089323D01*
X111761676Y-54052001D01*
X111758000Y-54014678D01*
X111758000Y-53294531D01*
X112493074Y-53294531D01*
X112603921Y-53571714D01*
X112914840Y-53725089D01*
X113249705Y-53814860D01*
X113595650Y-53837576D01*
X113939380Y-53792366D01*
X114267685Y-53680966D01*
X114472079Y-53571714D01*
X114582926Y-53294531D01*
X113538000Y-52249605D01*
X112493074Y-53294531D01*
X111758000Y-53294531D01*
X111758000Y-52127650D01*
X111770424Y-52127650D01*
X111815634Y-52471380D01*
X111927034Y-52799685D01*
X112036286Y-53004079D01*
X112313469Y-53114926D01*
X113358395Y-52070000D01*
X113717605Y-52070000D01*
X114762531Y-53114926D01*
X115039714Y-53004079D01*
X115193089Y-52693160D01*
X115282860Y-52358295D01*
X115305576Y-52012350D01*
X115260366Y-51668620D01*
X115148966Y-51340315D01*
X115039714Y-51135921D01*
X114762531Y-51025074D01*
X113717605Y-52070000D01*
X113358395Y-52070000D01*
X112313469Y-51025074D01*
X112036286Y-51135921D01*
X111882911Y-51446840D01*
X111793140Y-51781705D01*
X111770424Y-52127650D01*
X111758000Y-52127650D01*
X111758000Y-51011969D01*
X111784305Y-51001073D01*
X112017182Y-50845469D01*
X112493074Y-50845469D01*
X113538000Y-51890395D01*
X114582926Y-50845469D01*
X114472079Y-50568286D01*
X114415702Y-50540475D01*
X149765000Y-50540475D01*
X149765000Y-51059525D01*
X149866261Y-51568601D01*
X150064893Y-52048141D01*
X150353262Y-52479715D01*
X150720285Y-52846738D01*
X151151859Y-53135107D01*
X151631399Y-53333739D01*
X152140475Y-53435000D01*
X152659525Y-53435000D01*
X153168601Y-53333739D01*
X153648141Y-53135107D01*
X154079715Y-52846738D01*
X154446738Y-52479715D01*
X154735107Y-52048141D01*
X154933739Y-51568601D01*
X155035000Y-51059525D01*
X155035000Y-50540475D01*
X154933739Y-50031399D01*
X154735107Y-49551859D01*
X154446738Y-49120285D01*
X154079715Y-48753262D01*
X153648141Y-48464893D01*
X153168601Y-48266261D01*
X152659525Y-48165000D01*
X152140475Y-48165000D01*
X151631399Y-48266261D01*
X151151859Y-48464893D01*
X150720285Y-48753262D01*
X150353262Y-49120285D01*
X150064893Y-49551859D01*
X149866261Y-50031399D01*
X149765000Y-50540475D01*
X114415702Y-50540475D01*
X114161160Y-50414911D01*
X113826295Y-50325140D01*
X113480350Y-50302424D01*
X113136620Y-50347634D01*
X112808315Y-50459034D01*
X112603921Y-50568286D01*
X112493074Y-50845469D01*
X112017182Y-50845469D01*
X112056188Y-50819406D01*
X112287406Y-50588188D01*
X112469073Y-50316305D01*
X112594207Y-50014204D01*
X112658000Y-49693496D01*
X112658000Y-49366504D01*
X112594207Y-49045796D01*
X112469073Y-48743695D01*
X112287406Y-48471812D01*
X112056188Y-48240594D01*
X112017183Y-48214531D01*
X112493074Y-48214531D01*
X112603921Y-48491714D01*
X112914840Y-48645089D01*
X113249705Y-48734860D01*
X113595650Y-48757576D01*
X113939380Y-48712366D01*
X114267685Y-48600966D01*
X114472079Y-48491714D01*
X114582926Y-48214531D01*
X113538000Y-47169605D01*
X112493074Y-48214531D01*
X112017183Y-48214531D01*
X111784305Y-48058927D01*
X111482204Y-47933793D01*
X111161496Y-47870000D01*
X110834504Y-47870000D01*
X110513796Y-47933793D01*
X110211695Y-48058927D01*
X109939812Y-48240594D01*
X109708594Y-48471812D01*
X109526927Y-48743695D01*
X109401793Y-49045796D01*
X109338000Y-49366504D01*
X109338000Y-49693496D01*
X109401793Y-50014204D01*
X109526927Y-50316305D01*
X109708594Y-50588188D01*
X109939812Y-50819406D01*
X110211695Y-51001073D01*
X110238001Y-51011969D01*
X110238000Y-53737198D01*
X109313271Y-54661928D01*
X108724999Y-54661928D01*
X108551745Y-54678992D01*
X108385149Y-54729528D01*
X108231613Y-54811595D01*
X108097038Y-54922038D01*
X108025000Y-55009816D01*
X107952962Y-54922038D01*
X107818387Y-54811595D01*
X107664851Y-54729528D01*
X107498255Y-54678992D01*
X107325001Y-54661928D01*
X106736730Y-54661928D01*
X105788682Y-53713881D01*
X105885685Y-53680966D01*
X106090079Y-53571714D01*
X106200926Y-53294531D01*
X107413074Y-53294531D01*
X107523921Y-53571714D01*
X107834840Y-53725089D01*
X108169705Y-53814860D01*
X108515650Y-53837576D01*
X108859380Y-53792366D01*
X109187685Y-53680966D01*
X109392079Y-53571714D01*
X109502926Y-53294531D01*
X108458000Y-52249605D01*
X107413074Y-53294531D01*
X106200926Y-53294531D01*
X105156000Y-52249605D01*
X105141858Y-52263748D01*
X104962253Y-52084143D01*
X104976395Y-52070000D01*
X105335605Y-52070000D01*
X106380531Y-53114926D01*
X106657714Y-53004079D01*
X106810970Y-52693401D01*
X106847034Y-52799685D01*
X106956286Y-53004079D01*
X107233469Y-53114926D01*
X108278395Y-52070000D01*
X108637605Y-52070000D01*
X109682531Y-53114926D01*
X109959714Y-53004079D01*
X110113089Y-52693160D01*
X110202860Y-52358295D01*
X110225576Y-52012350D01*
X110180366Y-51668620D01*
X110068966Y-51340315D01*
X109959714Y-51135921D01*
X109682531Y-51025074D01*
X108637605Y-52070000D01*
X108278395Y-52070000D01*
X107233469Y-51025074D01*
X106956286Y-51135921D01*
X106803030Y-51446599D01*
X106766966Y-51340315D01*
X106657714Y-51135921D01*
X106380531Y-51025074D01*
X105335605Y-52070000D01*
X104976395Y-52070000D01*
X103931469Y-51025074D01*
X103654286Y-51135921D01*
X103507759Y-51432958D01*
X103376000Y-51301199D01*
X103376000Y-51011969D01*
X103402305Y-51001073D01*
X103635182Y-50845469D01*
X104111074Y-50845469D01*
X105156000Y-51890395D01*
X106200926Y-50845469D01*
X107413074Y-50845469D01*
X108458000Y-51890395D01*
X109502926Y-50845469D01*
X109392079Y-50568286D01*
X109081160Y-50414911D01*
X108746295Y-50325140D01*
X108400350Y-50302424D01*
X108056620Y-50347634D01*
X107728315Y-50459034D01*
X107523921Y-50568286D01*
X107413074Y-50845469D01*
X106200926Y-50845469D01*
X106090079Y-50568286D01*
X105779160Y-50414911D01*
X105444295Y-50325140D01*
X105098350Y-50302424D01*
X104754620Y-50347634D01*
X104426315Y-50459034D01*
X104221921Y-50568286D01*
X104111074Y-50845469D01*
X103635182Y-50845469D01*
X103674188Y-50819406D01*
X103905406Y-50588188D01*
X104087073Y-50316305D01*
X104212207Y-50014204D01*
X104276000Y-49693496D01*
X104276000Y-49366504D01*
X104212207Y-49045796D01*
X104087073Y-48743695D01*
X103905406Y-48471812D01*
X103674188Y-48240594D01*
X103635183Y-48214531D01*
X104111074Y-48214531D01*
X104221921Y-48491714D01*
X104532840Y-48645089D01*
X104867705Y-48734860D01*
X105213650Y-48757576D01*
X105557380Y-48712366D01*
X105885685Y-48600966D01*
X106090079Y-48491714D01*
X106200926Y-48214531D01*
X107413074Y-48214531D01*
X107523921Y-48491714D01*
X107834840Y-48645089D01*
X108169705Y-48734860D01*
X108515650Y-48757576D01*
X108859380Y-48712366D01*
X109187685Y-48600966D01*
X109392079Y-48491714D01*
X109502926Y-48214531D01*
X108458000Y-47169605D01*
X107413074Y-48214531D01*
X106200926Y-48214531D01*
X105156000Y-47169605D01*
X104111074Y-48214531D01*
X103635183Y-48214531D01*
X103402305Y-48058927D01*
X103100204Y-47933793D01*
X102779496Y-47870000D01*
X102452504Y-47870000D01*
X102131796Y-47933793D01*
X101829695Y-48058927D01*
X101557812Y-48240594D01*
X101326594Y-48471812D01*
X101144927Y-48743695D01*
X101019793Y-49045796D01*
X100956000Y-49366504D01*
X95894000Y-49366504D01*
X95830207Y-49045796D01*
X95705073Y-48743695D01*
X95523406Y-48471812D01*
X95292188Y-48240594D01*
X95253183Y-48214531D01*
X95729074Y-48214531D01*
X95839921Y-48491714D01*
X96150840Y-48645089D01*
X96485705Y-48734860D01*
X96831650Y-48757576D01*
X97175380Y-48712366D01*
X97503685Y-48600966D01*
X97708079Y-48491714D01*
X97818926Y-48214531D01*
X99031074Y-48214531D01*
X99141921Y-48491714D01*
X99452840Y-48645089D01*
X99787705Y-48734860D01*
X100133650Y-48757576D01*
X100477380Y-48712366D01*
X100805685Y-48600966D01*
X101010079Y-48491714D01*
X101120926Y-48214531D01*
X100076000Y-47169605D01*
X99031074Y-48214531D01*
X97818926Y-48214531D01*
X96774000Y-47169605D01*
X95729074Y-48214531D01*
X95253183Y-48214531D01*
X95020305Y-48058927D01*
X94718204Y-47933793D01*
X94397496Y-47870000D01*
X94070504Y-47870000D01*
X93749796Y-47933793D01*
X93447695Y-48058927D01*
X93175812Y-48240594D01*
X92944594Y-48471812D01*
X92762927Y-48743695D01*
X92637793Y-49045796D01*
X92574000Y-49366504D01*
X89841257Y-49366504D01*
X89676738Y-49120285D01*
X89309715Y-48753262D01*
X88878141Y-48464893D01*
X88398601Y-48266261D01*
X88138536Y-48214531D01*
X90649074Y-48214531D01*
X90759921Y-48491714D01*
X91070840Y-48645089D01*
X91405705Y-48734860D01*
X91751650Y-48757576D01*
X92095380Y-48712366D01*
X92423685Y-48600966D01*
X92628079Y-48491714D01*
X92738926Y-48214531D01*
X91694000Y-47169605D01*
X90649074Y-48214531D01*
X88138536Y-48214531D01*
X87889525Y-48165000D01*
X87370475Y-48165000D01*
X86861399Y-48266261D01*
X86381859Y-48464893D01*
X85950285Y-48753262D01*
X85583262Y-49120285D01*
X85294893Y-49551859D01*
X85096261Y-50031399D01*
X84995000Y-50540475D01*
X84505000Y-50540475D01*
X84505000Y-45897000D01*
X90421392Y-45897000D01*
X90469467Y-45945075D01*
X90469467Y-45945075D01*
G37*
X90469467Y-45945075D02*
X90192286Y-46055921D01*
X90038911Y-46366840D01*
X89949140Y-46701705D01*
X89926424Y-47047650D01*
X89971634Y-47391380D01*
X90083034Y-47719685D01*
X90192286Y-47924079D01*
X90469469Y-48034926D01*
X91514395Y-46990000D01*
X91500253Y-46975858D01*
X91679858Y-46796253D01*
X91694000Y-46810395D01*
X91708143Y-46796253D01*
X91887748Y-46975858D01*
X91873605Y-46990000D01*
X92918531Y-48034926D01*
X93195714Y-47924079D01*
X93349089Y-47613160D01*
X93438860Y-47278295D01*
X93461576Y-46932350D01*
X93416366Y-46588620D01*
X93304966Y-46260315D01*
X93195714Y-46055921D01*
X92918533Y-45945075D01*
X92966608Y-45897000D01*
X95501392Y-45897000D01*
X95549467Y-45945075D01*
X95272286Y-46055921D01*
X95118911Y-46366840D01*
X95029140Y-46701705D01*
X95006424Y-47047650D01*
X95051634Y-47391380D01*
X95163034Y-47719685D01*
X95272286Y-47924079D01*
X95549469Y-48034926D01*
X96594395Y-46990000D01*
X96580253Y-46975858D01*
X96759858Y-46796253D01*
X96774000Y-46810395D01*
X96788143Y-46796253D01*
X96967748Y-46975858D01*
X96953605Y-46990000D01*
X97998531Y-48034926D01*
X98275714Y-47924079D01*
X98428970Y-47613401D01*
X98465034Y-47719685D01*
X98574286Y-47924079D01*
X98851469Y-48034926D01*
X99896395Y-46990000D01*
X99882253Y-46975858D01*
X100061858Y-46796253D01*
X100076000Y-46810395D01*
X100090143Y-46796253D01*
X100269748Y-46975858D01*
X100255605Y-46990000D01*
X101300531Y-48034926D01*
X101577714Y-47924079D01*
X101731089Y-47613160D01*
X101820860Y-47278295D01*
X101843576Y-46932350D01*
X101798366Y-46588620D01*
X101686966Y-46260315D01*
X101577714Y-46055921D01*
X101300533Y-45945075D01*
X101348608Y-45897000D01*
X103883392Y-45897000D01*
X103931467Y-45945075D01*
X103654286Y-46055921D01*
X103500911Y-46366840D01*
X103411140Y-46701705D01*
X103388424Y-47047650D01*
X103433634Y-47391380D01*
X103545034Y-47719685D01*
X103654286Y-47924079D01*
X103931469Y-48034926D01*
X104976395Y-46990000D01*
X104962253Y-46975858D01*
X105141858Y-46796253D01*
X105156000Y-46810395D01*
X105170143Y-46796253D01*
X105349748Y-46975858D01*
X105335605Y-46990000D01*
X106380531Y-48034926D01*
X106657714Y-47924079D01*
X106810970Y-47613401D01*
X106847034Y-47719685D01*
X106956286Y-47924079D01*
X107233469Y-48034926D01*
X108278395Y-46990000D01*
X108264253Y-46975858D01*
X108443858Y-46796253D01*
X108458000Y-46810395D01*
X108472143Y-46796253D01*
X108651748Y-46975858D01*
X108637605Y-46990000D01*
X109682531Y-48034926D01*
X109959714Y-47924079D01*
X110113089Y-47613160D01*
X110202860Y-47278295D01*
X110225576Y-46932350D01*
X110180366Y-46588620D01*
X110068966Y-46260315D01*
X109959714Y-46055921D01*
X109682533Y-45945075D01*
X109730608Y-45897000D01*
X112265392Y-45897000D01*
X112313467Y-45945075D01*
X112036286Y-46055921D01*
X111882911Y-46366840D01*
X111793140Y-46701705D01*
X111770424Y-47047650D01*
X111815634Y-47391380D01*
X111927034Y-47719685D01*
X112036286Y-47924079D01*
X112313469Y-48034926D01*
X113358395Y-46990000D01*
X113344253Y-46975858D01*
X113523858Y-46796253D01*
X113538000Y-46810395D01*
X113552143Y-46796253D01*
X113731748Y-46975858D01*
X113717605Y-46990000D01*
X114762531Y-48034926D01*
X115039714Y-47924079D01*
X115193089Y-47613160D01*
X115282860Y-47278295D01*
X115305576Y-46932350D01*
X115260366Y-46588620D01*
X115148966Y-46260315D01*
X115039714Y-46055921D01*
X114762533Y-45945075D01*
X114810608Y-45897000D01*
X155779000Y-45897000D01*
X155779001Y-55846344D01*
X155779000Y-55846354D01*
X155779001Y-91263000D01*
X119629861Y-91263000D01*
X119735494Y-91206537D01*
X119832185Y-91127185D01*
X119911537Y-91030494D01*
X119970502Y-90920180D01*
X120006812Y-90800482D01*
X120019072Y-90676000D01*
X120695576Y-90676000D01*
X120731595Y-90743387D01*
X120842038Y-90877962D01*
X120976613Y-90988405D01*
X121130149Y-91070472D01*
X121296745Y-91121008D01*
X121469999Y-91138072D01*
X122370001Y-91138072D01*
X122543255Y-91121008D01*
X122709851Y-91070472D01*
X122863387Y-90988405D01*
X122997962Y-90877962D01*
X123108405Y-90743387D01*
X123139614Y-90685000D01*
X128985678Y-90685000D01*
X129023000Y-90688676D01*
X129060322Y-90685000D01*
X129060333Y-90685000D01*
X129171986Y-90674003D01*
X129315247Y-90630546D01*
X129447276Y-90559974D01*
X129563001Y-90465001D01*
X129586804Y-90435998D01*
X130559003Y-89463799D01*
X130588001Y-89440001D01*
X130660057Y-89352201D01*
X130682974Y-89324277D01*
X130753546Y-89192247D01*
X130779522Y-89106613D01*
X130797003Y-89048986D01*
X130808000Y-88937333D01*
X130808000Y-88937323D01*
X130811676Y-88900000D01*
X130808000Y-88862677D01*
X130808000Y-88398273D01*
X130888179Y-88355417D01*
X131117345Y-88167345D01*
X131305417Y-87938179D01*
X131318000Y-87914638D01*
X131330583Y-87938179D01*
X131518655Y-88167345D01*
X131747822Y-88355417D01*
X132009276Y-88495166D01*
X132292969Y-88581224D01*
X132588000Y-88610282D01*
X132883032Y-88581224D01*
X133166725Y-88495166D01*
X133428179Y-88355417D01*
X133657345Y-88167345D01*
X133845417Y-87938179D01*
X133858000Y-87914638D01*
X133870583Y-87938179D01*
X134058655Y-88167345D01*
X134287822Y-88355417D01*
X134549276Y-88495166D01*
X134832969Y-88581224D01*
X135128000Y-88610282D01*
X135423032Y-88581224D01*
X135706725Y-88495166D01*
X135968179Y-88355417D01*
X136197345Y-88167345D01*
X136385417Y-87938179D01*
X136398000Y-87914638D01*
X136410583Y-87938179D01*
X136598655Y-88167345D01*
X136827822Y-88355417D01*
X137089276Y-88495166D01*
X137372969Y-88581224D01*
X137668000Y-88610282D01*
X137963032Y-88581224D01*
X138246725Y-88495166D01*
X138508179Y-88355417D01*
X138737345Y-88167345D01*
X138925417Y-87938179D01*
X139065166Y-87676724D01*
X139151224Y-87393031D01*
X139173000Y-87171935D01*
X139173000Y-86564064D01*
X139151224Y-86342968D01*
X139077664Y-86100475D01*
X149765000Y-86100475D01*
X149765000Y-86619525D01*
X149866261Y-87128601D01*
X150064893Y-87608141D01*
X150353262Y-88039715D01*
X150720285Y-88406738D01*
X151151859Y-88695107D01*
X151631399Y-88893739D01*
X152140475Y-88995000D01*
X152659525Y-88995000D01*
X153168601Y-88893739D01*
X153648141Y-88695107D01*
X154079715Y-88406738D01*
X154446738Y-88039715D01*
X154735107Y-87608141D01*
X154933739Y-87128601D01*
X155035000Y-86619525D01*
X155035000Y-86100475D01*
X154933739Y-85591399D01*
X154735107Y-85111859D01*
X154446738Y-84680285D01*
X154079715Y-84313262D01*
X153648141Y-84024893D01*
X153168601Y-83826261D01*
X152659525Y-83725000D01*
X152140475Y-83725000D01*
X151631399Y-83826261D01*
X151151859Y-84024893D01*
X150720285Y-84313262D01*
X150353262Y-84680285D01*
X150064893Y-85111859D01*
X149866261Y-85591399D01*
X149765000Y-86100475D01*
X139077664Y-86100475D01*
X139065166Y-86059275D01*
X138925417Y-85797821D01*
X138737345Y-85568655D01*
X138508178Y-85380583D01*
X138246724Y-85240834D01*
X137963031Y-85154776D01*
X137668000Y-85125718D01*
X137372968Y-85154776D01*
X137089275Y-85240834D01*
X136827821Y-85380583D01*
X136598655Y-85568655D01*
X136410583Y-85797822D01*
X136398000Y-85821363D01*
X136385417Y-85797821D01*
X136197345Y-85568655D01*
X135968178Y-85380583D01*
X135706724Y-85240834D01*
X135423031Y-85154776D01*
X135128000Y-85125718D01*
X134832968Y-85154776D01*
X134549275Y-85240834D01*
X134287821Y-85380583D01*
X134058655Y-85568655D01*
X133870583Y-85797822D01*
X133858000Y-85821363D01*
X133845417Y-85797821D01*
X133657345Y-85568655D01*
X133428178Y-85380583D01*
X133348000Y-85337727D01*
X133348000Y-84873322D01*
X133351676Y-84835999D01*
X133348000Y-84798676D01*
X133348000Y-84798667D01*
X133337003Y-84687014D01*
X133293546Y-84543753D01*
X133222974Y-84411724D01*
X133128001Y-84295999D01*
X133099003Y-84272202D01*
X132643803Y-83817002D01*
X132620001Y-83787999D01*
X132504276Y-83693026D01*
X132372247Y-83622454D01*
X132228986Y-83578997D01*
X132117333Y-83568000D01*
X132117322Y-83568000D01*
X132080000Y-83564324D01*
X132042678Y-83568000D01*
X130391923Y-83568000D01*
X130469494Y-83526537D01*
X130566185Y-83447185D01*
X130645537Y-83350494D01*
X130704502Y-83240180D01*
X130740812Y-83120482D01*
X130753072Y-82996000D01*
X130750000Y-82581750D01*
X130591250Y-82423000D01*
X129667000Y-82423000D01*
X129667000Y-82443000D01*
X129413000Y-82443000D01*
X129413000Y-82423000D01*
X129393000Y-82423000D01*
X129393000Y-82169000D01*
X129413000Y-82169000D01*
X129413000Y-81119750D01*
X129667000Y-81119750D01*
X129667000Y-82169000D01*
X130591250Y-82169000D01*
X130750000Y-82010250D01*
X130753072Y-81596000D01*
X130740812Y-81471518D01*
X130704502Y-81351820D01*
X130645537Y-81241506D01*
X130566185Y-81144815D01*
X130469494Y-81065463D01*
X130359180Y-81006498D01*
X130239482Y-80970188D01*
X130115000Y-80957928D01*
X129825750Y-80961000D01*
X129667000Y-81119750D01*
X129413000Y-81119750D01*
X129254250Y-80961000D01*
X128965000Y-80957928D01*
X128840518Y-80970188D01*
X128720820Y-81006498D01*
X128610506Y-81065463D01*
X128513815Y-81144815D01*
X128448342Y-81224594D01*
X128442962Y-81218038D01*
X128308387Y-81107595D01*
X128154851Y-81025528D01*
X127988255Y-80974992D01*
X127815001Y-80957928D01*
X127164999Y-80957928D01*
X127003072Y-80973876D01*
X127003072Y-80771000D01*
X126990812Y-80646518D01*
X126954502Y-80526820D01*
X126895537Y-80416506D01*
X126816185Y-80319815D01*
X126719494Y-80240463D01*
X126609180Y-80181498D01*
X126489482Y-80145188D01*
X126365000Y-80132928D01*
X125563652Y-80132928D01*
X125614472Y-80037851D01*
X125665008Y-79871255D01*
X125682072Y-79698001D01*
X125682072Y-79109730D01*
X125812256Y-78979545D01*
X125833966Y-78986131D01*
X125958448Y-78998391D01*
X127508448Y-78998391D01*
X127632930Y-78986131D01*
X127752628Y-78949821D01*
X127862942Y-78890856D01*
X127959633Y-78811504D01*
X128038985Y-78714813D01*
X128097950Y-78604499D01*
X128134260Y-78484801D01*
X128146520Y-78360319D01*
X128146520Y-78292842D01*
X128287744Y-78387205D01*
X128476102Y-78465226D01*
X128676061Y-78505000D01*
X128738198Y-78505000D01*
X128804519Y-78571321D01*
X128828318Y-78600320D01*
X128857316Y-78624118D01*
X128944042Y-78695293D01*
X129022066Y-78736998D01*
X129076072Y-78765865D01*
X129219333Y-78809322D01*
X129330986Y-78820319D01*
X129330995Y-78820319D01*
X129368318Y-78823995D01*
X129405641Y-78820319D01*
X130918004Y-78820319D01*
X131003954Y-78890856D01*
X131114268Y-78949821D01*
X131233966Y-78986131D01*
X131358448Y-78998391D01*
X132908448Y-78998391D01*
X133032930Y-78986131D01*
X133152628Y-78949821D01*
X133262942Y-78890856D01*
X133359633Y-78811504D01*
X133438985Y-78714813D01*
X133497950Y-78604499D01*
X133534260Y-78484801D01*
X133546520Y-78360319D01*
X133546520Y-77760319D01*
X133534260Y-77635837D01*
X133508318Y-77550319D01*
X135055359Y-77550319D01*
X135092681Y-77553995D01*
X135130003Y-77550319D01*
X135130014Y-77550319D01*
X135241667Y-77539322D01*
X135384928Y-77495865D01*
X135516957Y-77425293D01*
X135608701Y-77350000D01*
X136008928Y-77350000D01*
X136008928Y-79350000D01*
X136021188Y-79474482D01*
X136057498Y-79594180D01*
X136116463Y-79704494D01*
X136195815Y-79801185D01*
X136292506Y-79880537D01*
X136402820Y-79939502D01*
X136522518Y-79975812D01*
X136647000Y-79988072D01*
X137297000Y-79988072D01*
X137421482Y-79975812D01*
X137541180Y-79939502D01*
X137651494Y-79880537D01*
X137748185Y-79801185D01*
X137827537Y-79704494D01*
X137886502Y-79594180D01*
X137922812Y-79474482D01*
X137935072Y-79350000D01*
X137935072Y-79151506D01*
X138027247Y-79123546D01*
X138159276Y-79052974D01*
X138275001Y-78958001D01*
X138298804Y-78928997D01*
X139251802Y-77976000D01*
X145989199Y-77976000D01*
X146371049Y-78357850D01*
X146250655Y-78456655D01*
X146196935Y-78522114D01*
X146138405Y-78412613D01*
X146027962Y-78278038D01*
X145893387Y-78167595D01*
X145739851Y-78085528D01*
X145573255Y-78034992D01*
X145400001Y-78017928D01*
X144159999Y-78017928D01*
X143986745Y-78034992D01*
X143820149Y-78085528D01*
X143666613Y-78167595D01*
X143532038Y-78278038D01*
X143421595Y-78412613D01*
X143339528Y-78566149D01*
X143288992Y-78732745D01*
X143271928Y-78905999D01*
X143271928Y-80606001D01*
X143288992Y-80779255D01*
X143339528Y-80945851D01*
X143421595Y-81099387D01*
X143532038Y-81233962D01*
X143666613Y-81344405D01*
X143820149Y-81426472D01*
X143986745Y-81477008D01*
X144159999Y-81494072D01*
X145400001Y-81494072D01*
X145573255Y-81477008D01*
X145739851Y-81426472D01*
X145893387Y-81344405D01*
X146027962Y-81233962D01*
X146138405Y-81099387D01*
X146196934Y-80989886D01*
X146250655Y-81055345D01*
X146479822Y-81243417D01*
X146741276Y-81383166D01*
X147024969Y-81469224D01*
X147320000Y-81498282D01*
X147615032Y-81469224D01*
X147898725Y-81383166D01*
X148160179Y-81243417D01*
X148389345Y-81055345D01*
X148552943Y-80856000D01*
X149875928Y-80856000D01*
X149888188Y-80980482D01*
X149924498Y-81100180D01*
X149983463Y-81210494D01*
X150062815Y-81307185D01*
X150159506Y-81386537D01*
X150269820Y-81445502D01*
X150389518Y-81481812D01*
X150514000Y-81494072D01*
X151098250Y-81491000D01*
X151257000Y-81332250D01*
X151257000Y-79883000D01*
X150037750Y-79883000D01*
X149879000Y-80041750D01*
X149875928Y-80856000D01*
X148552943Y-80856000D01*
X148577417Y-80826179D01*
X148717166Y-80564724D01*
X148803224Y-80281031D01*
X148825000Y-80059935D01*
X148825000Y-79452064D01*
X148803224Y-79230968D01*
X148717166Y-78947275D01*
X148577417Y-78685821D01*
X148389345Y-78456655D01*
X148160178Y-78268583D01*
X148083228Y-78227453D01*
X148080000Y-78194677D01*
X148080000Y-78194667D01*
X148069003Y-78083014D01*
X148025546Y-77939753D01*
X148010355Y-77911333D01*
X147954974Y-77807723D01*
X147883799Y-77720997D01*
X147860001Y-77691999D01*
X147831004Y-77668202D01*
X146867804Y-76705002D01*
X146844001Y-76675999D01*
X146728276Y-76581026D01*
X146596247Y-76510454D01*
X146452986Y-76466997D01*
X146341333Y-76456000D01*
X146341322Y-76456000D01*
X146304000Y-76452324D01*
X146266678Y-76456000D01*
X138974325Y-76456000D01*
X138937000Y-76452324D01*
X138899675Y-76456000D01*
X138899667Y-76456000D01*
X138788014Y-76466997D01*
X138644753Y-76510454D01*
X138512724Y-76581026D01*
X138396999Y-76675999D01*
X138373201Y-76704997D01*
X137906489Y-77171709D01*
X137886502Y-77105820D01*
X137827537Y-76995506D01*
X137748185Y-76898815D01*
X137651494Y-76819463D01*
X137541180Y-76760498D01*
X137421482Y-76724188D01*
X137297000Y-76711928D01*
X136647000Y-76711928D01*
X136522518Y-76724188D01*
X136402820Y-76760498D01*
X136292506Y-76819463D01*
X136195815Y-76898815D01*
X136116463Y-76995506D01*
X136057498Y-77105820D01*
X136021188Y-77225518D01*
X136008928Y-77350000D01*
X135608701Y-77350000D01*
X135632682Y-77330320D01*
X135656485Y-77301317D01*
X136394398Y-76563404D01*
X136471482Y-76555812D01*
X136591180Y-76519502D01*
X136701494Y-76460537D01*
X136798185Y-76381185D01*
X136877537Y-76284494D01*
X136936502Y-76174180D01*
X136972000Y-76057159D01*
X137007498Y-76174180D01*
X137066463Y-76284494D01*
X137145815Y-76381185D01*
X137242506Y-76460537D01*
X137352820Y-76519502D01*
X137472518Y-76555812D01*
X137597000Y-76568072D01*
X137636250Y-76565000D01*
X137795000Y-76406250D01*
X137795000Y-75057000D01*
X138049000Y-75057000D01*
X138049000Y-76406250D01*
X138207750Y-76565000D01*
X138247000Y-76568072D01*
X138371482Y-76555812D01*
X138491180Y-76519502D01*
X138601494Y-76460537D01*
X138698185Y-76381185D01*
X138777537Y-76284494D01*
X138836502Y-76174180D01*
X138872812Y-76054482D01*
X138885072Y-75930000D01*
X138882000Y-75215750D01*
X138723250Y-75057000D01*
X138049000Y-75057000D01*
X137795000Y-75057000D01*
X137775000Y-75057000D01*
X137775000Y-74803000D01*
X137795000Y-74803000D01*
X137795000Y-73453750D01*
X138049000Y-73453750D01*
X138049000Y-74803000D01*
X138723250Y-74803000D01*
X138882000Y-74644250D01*
X138885072Y-73930000D01*
X138872812Y-73805518D01*
X138836502Y-73685820D01*
X138777537Y-73575506D01*
X138698185Y-73478815D01*
X138601494Y-73399463D01*
X138491180Y-73340498D01*
X138371482Y-73304188D01*
X138247000Y-73291928D01*
X138207750Y-73295000D01*
X138049000Y-73453750D01*
X137795000Y-73453750D01*
X137636250Y-73295000D01*
X137597000Y-73291928D01*
X137472518Y-73304188D01*
X137352820Y-73340498D01*
X137242506Y-73399463D01*
X137145815Y-73478815D01*
X137066463Y-73575506D01*
X137007498Y-73685820D01*
X136972000Y-73802841D01*
X136936502Y-73685820D01*
X136877537Y-73575506D01*
X136798185Y-73478815D01*
X136701494Y-73399463D01*
X136591180Y-73340498D01*
X136471482Y-73304188D01*
X136347000Y-73291928D01*
X135697000Y-73291928D01*
X135572518Y-73304188D01*
X135452820Y-73340498D01*
X135342506Y-73399463D01*
X135245815Y-73478815D01*
X135166463Y-73575506D01*
X135107498Y-73685820D01*
X135071188Y-73805518D01*
X135058928Y-73930000D01*
X135058928Y-75749271D01*
X134777880Y-76030319D01*
X133508318Y-76030319D01*
X133534260Y-75944801D01*
X133546520Y-75820319D01*
X133546520Y-75220319D01*
X133534260Y-75095837D01*
X133497950Y-74976139D01*
X133449405Y-74885319D01*
X133497950Y-74794499D01*
X133534260Y-74674801D01*
X133546520Y-74550319D01*
X133543448Y-74536069D01*
X133384698Y-74377319D01*
X132260448Y-74377319D01*
X132260448Y-74397319D01*
X132006448Y-74397319D01*
X132006448Y-74377319D01*
X130882198Y-74377319D01*
X130723448Y-74536069D01*
X130720376Y-74550319D01*
X130732636Y-74674801D01*
X130758578Y-74760319D01*
X129373009Y-74760319D01*
X129441205Y-74658256D01*
X129519226Y-74469898D01*
X129559000Y-74269939D01*
X129559000Y-74066061D01*
X129535978Y-73950319D01*
X130720376Y-73950319D01*
X130723448Y-73964569D01*
X130882198Y-74123319D01*
X132006448Y-74123319D01*
X132006448Y-73474069D01*
X132260448Y-73474069D01*
X132260448Y-74123319D01*
X133384698Y-74123319D01*
X133543448Y-73964569D01*
X133546520Y-73950319D01*
X133534260Y-73825837D01*
X133497950Y-73706139D01*
X133438985Y-73595825D01*
X133359633Y-73499134D01*
X133262942Y-73419782D01*
X133152628Y-73360817D01*
X133032930Y-73324507D01*
X132908448Y-73312247D01*
X132419198Y-73315319D01*
X132260448Y-73474069D01*
X132006448Y-73474069D01*
X131847698Y-73315319D01*
X131358448Y-73312247D01*
X131233966Y-73324507D01*
X131114268Y-73360817D01*
X131003954Y-73419782D01*
X130907263Y-73499134D01*
X130827911Y-73595825D01*
X130768946Y-73706139D01*
X130732636Y-73825837D01*
X130720376Y-73950319D01*
X129535978Y-73950319D01*
X129519226Y-73866102D01*
X129441205Y-73677744D01*
X129327937Y-73508226D01*
X129183774Y-73364063D01*
X129014256Y-73250795D01*
X128978538Y-73236000D01*
X143271928Y-73236000D01*
X143284188Y-73360482D01*
X143320498Y-73480180D01*
X143379463Y-73590494D01*
X143458815Y-73687185D01*
X143555506Y-73766537D01*
X143665820Y-73825502D01*
X143785518Y-73861812D01*
X143910000Y-73874072D01*
X144494250Y-73871000D01*
X144653000Y-73712250D01*
X144653000Y-72263000D01*
X143433750Y-72263000D01*
X143275000Y-72421750D01*
X143271928Y-73236000D01*
X128978538Y-73236000D01*
X128825898Y-73172774D01*
X128625939Y-73133000D01*
X128422061Y-73133000D01*
X128222102Y-73172774D01*
X128033744Y-73250795D01*
X127864226Y-73364063D01*
X127827468Y-73400821D01*
X127752628Y-73360817D01*
X127632930Y-73324507D01*
X127508448Y-73312247D01*
X126395177Y-73312247D01*
X126231932Y-73149002D01*
X126208130Y-73119999D01*
X126092405Y-73025026D01*
X125960376Y-72954454D01*
X125817115Y-72910997D01*
X125705462Y-72900000D01*
X125705451Y-72900000D01*
X125668129Y-72896324D01*
X125630807Y-72900000D01*
X118909322Y-72900000D01*
X118871999Y-72896324D01*
X118834676Y-72900000D01*
X118834667Y-72900000D01*
X118723014Y-72910997D01*
X118579753Y-72954454D01*
X118447724Y-73025026D01*
X118331999Y-73119999D01*
X118308200Y-73148998D01*
X117800201Y-73656998D01*
X117729026Y-73743724D01*
X117658454Y-73875754D01*
X117614998Y-74019015D01*
X117610760Y-74062039D01*
X117581061Y-74077914D01*
X117446486Y-74188357D01*
X117336043Y-74322932D01*
X117253976Y-74476468D01*
X117203440Y-74643064D01*
X117186376Y-74816318D01*
X117186376Y-75716320D01*
X117203440Y-75889574D01*
X117253976Y-76056170D01*
X117336043Y-76209706D01*
X117446486Y-76344281D01*
X117581061Y-76454724D01*
X117734597Y-76536791D01*
X117901193Y-76587327D01*
X118074447Y-76604391D01*
X118724449Y-76604391D01*
X118897703Y-76587327D01*
X119064299Y-76536791D01*
X119160763Y-76485230D01*
X119125528Y-76551149D01*
X119074992Y-76717745D01*
X119057928Y-76890999D01*
X119057928Y-77541001D01*
X119074992Y-77714255D01*
X119125528Y-77880851D01*
X119207595Y-78034387D01*
X119318038Y-78168962D01*
X119324594Y-78174342D01*
X119244815Y-78239815D01*
X119165463Y-78336506D01*
X119106498Y-78446820D01*
X119070188Y-78566518D01*
X119057928Y-78691000D01*
X119061000Y-78980250D01*
X119219750Y-79139000D01*
X120269000Y-79139000D01*
X120269000Y-79119000D01*
X120523000Y-79119000D01*
X120523000Y-79139000D01*
X121572250Y-79139000D01*
X121590250Y-79121000D01*
X122292000Y-79121000D01*
X122292000Y-79101000D01*
X122546000Y-79101000D01*
X122546000Y-79121000D01*
X122566000Y-79121000D01*
X122566000Y-79375000D01*
X122546000Y-79375000D01*
X122546000Y-79395000D01*
X122292000Y-79395000D01*
X122292000Y-79375000D01*
X121367750Y-79375000D01*
X121349750Y-79393000D01*
X120523000Y-79393000D01*
X120523000Y-80317250D01*
X120681750Y-80476000D01*
X121096000Y-80479072D01*
X121220482Y-80466812D01*
X121340180Y-80430502D01*
X121395163Y-80401112D01*
X121489506Y-80478537D01*
X121599820Y-80537502D01*
X121719518Y-80573812D01*
X121844000Y-80586072D01*
X121947859Y-80584969D01*
X121929188Y-80646518D01*
X121916928Y-80771000D01*
X121916928Y-83821000D01*
X121929188Y-83945482D01*
X121965498Y-84065180D01*
X122021147Y-84169291D01*
X121989368Y-84190525D01*
X121782525Y-84397368D01*
X121666689Y-84570729D01*
X121424397Y-84495208D01*
X120575605Y-85344000D01*
X121424397Y-86192792D01*
X121666689Y-86117271D01*
X121782525Y-86290632D01*
X121989368Y-86497475D01*
X122232589Y-86659990D01*
X122243999Y-86664716D01*
X122205750Y-86665000D01*
X122047000Y-86823750D01*
X122047000Y-87748000D01*
X123096250Y-87748000D01*
X123255000Y-87589250D01*
X123258072Y-87300000D01*
X123245812Y-87175518D01*
X123209502Y-87055820D01*
X123150537Y-86945506D01*
X123071185Y-86848815D01*
X123047040Y-86829000D01*
X123082260Y-86829000D01*
X123369158Y-86771932D01*
X123639411Y-86659990D01*
X123882632Y-86497475D01*
X124089475Y-86290632D01*
X124251990Y-86047411D01*
X124363932Y-85777158D01*
X124365753Y-85768000D01*
X125999928Y-85768000D01*
X126003000Y-86582250D01*
X126161750Y-86741000D01*
X127381000Y-86741000D01*
X127381000Y-85291750D01*
X127222250Y-85133000D01*
X126638000Y-85129928D01*
X126513518Y-85142188D01*
X126393820Y-85178498D01*
X126283506Y-85237463D01*
X126186815Y-85316815D01*
X126107463Y-85413506D01*
X126048498Y-85523820D01*
X126012188Y-85643518D01*
X125999928Y-85768000D01*
X124365753Y-85768000D01*
X124421000Y-85490260D01*
X124421000Y-85197740D01*
X124363932Y-84910842D01*
X124251990Y-84640589D01*
X124127265Y-84453925D01*
X124199482Y-84446812D01*
X124319180Y-84410502D01*
X124429494Y-84351537D01*
X124460000Y-84326501D01*
X124490506Y-84351537D01*
X124600820Y-84410502D01*
X124720518Y-84446812D01*
X124845000Y-84459072D01*
X126365000Y-84459072D01*
X126489482Y-84446812D01*
X126609180Y-84410502D01*
X126719494Y-84351537D01*
X126816185Y-84272185D01*
X126895537Y-84175494D01*
X126954502Y-84065180D01*
X126990812Y-83945482D01*
X127003072Y-83821000D01*
X127003072Y-83683873D01*
X128158200Y-84839002D01*
X128181999Y-84868001D01*
X128210997Y-84891799D01*
X128297723Y-84962974D01*
X128340766Y-84985981D01*
X128429753Y-85033546D01*
X128573014Y-85077003D01*
X128684667Y-85088000D01*
X128684676Y-85088000D01*
X128721999Y-85091676D01*
X128759322Y-85088000D01*
X131765199Y-85088000D01*
X131828000Y-85150802D01*
X131828000Y-85337727D01*
X131747821Y-85380583D01*
X131518655Y-85568655D01*
X131330583Y-85797822D01*
X131318000Y-85821363D01*
X131305417Y-85797821D01*
X131117345Y-85568655D01*
X130888178Y-85380583D01*
X130626724Y-85240834D01*
X130343031Y-85154776D01*
X130048000Y-85125718D01*
X129752968Y-85154776D01*
X129469275Y-85240834D01*
X129207821Y-85380583D01*
X128980615Y-85567047D01*
X128967502Y-85523820D01*
X128908537Y-85413506D01*
X128829185Y-85316815D01*
X128732494Y-85237463D01*
X128622180Y-85178498D01*
X128502482Y-85142188D01*
X128378000Y-85129928D01*
X127793750Y-85133000D01*
X127635000Y-85291750D01*
X127635000Y-86741000D01*
X127655000Y-86741000D01*
X127655000Y-86995000D01*
X127635000Y-86995000D01*
X127635000Y-88444250D01*
X127793750Y-88603000D01*
X128378000Y-88606072D01*
X128502482Y-88593812D01*
X128622180Y-88557502D01*
X128732494Y-88498537D01*
X128829185Y-88419185D01*
X128908537Y-88322494D01*
X128967502Y-88212180D01*
X128980615Y-88168953D01*
X129207822Y-88355417D01*
X129288001Y-88398273D01*
X129288001Y-88585197D01*
X128708199Y-89165000D01*
X123139614Y-89165000D01*
X123108405Y-89106613D01*
X122997962Y-88972038D01*
X122991406Y-88966658D01*
X123071185Y-88901185D01*
X123150537Y-88804494D01*
X123209502Y-88694180D01*
X123245812Y-88574482D01*
X123258072Y-88450000D01*
X123255000Y-88160750D01*
X123096250Y-88002000D01*
X122047000Y-88002000D01*
X122047000Y-88022000D01*
X121793000Y-88022000D01*
X121793000Y-88002000D01*
X120743750Y-88002000D01*
X120585000Y-88160750D01*
X120581928Y-88450000D01*
X120594188Y-88574482D01*
X120630498Y-88694180D01*
X120689463Y-88804494D01*
X120768815Y-88901185D01*
X120848594Y-88966658D01*
X120842038Y-88972038D01*
X120731595Y-89106613D01*
X120705197Y-89156000D01*
X120019072Y-89156000D01*
X120006812Y-89031518D01*
X119970502Y-88911820D01*
X119911537Y-88801506D01*
X119886501Y-88771000D01*
X119911537Y-88740494D01*
X119970502Y-88630180D01*
X120006812Y-88510482D01*
X120019072Y-88386000D01*
X120019072Y-87968000D01*
X125999928Y-87968000D01*
X126012188Y-88092482D01*
X126048498Y-88212180D01*
X126107463Y-88322494D01*
X126186815Y-88419185D01*
X126283506Y-88498537D01*
X126393820Y-88557502D01*
X126513518Y-88593812D01*
X126638000Y-88606072D01*
X127222250Y-88603000D01*
X127381000Y-88444250D01*
X127381000Y-86995000D01*
X126161750Y-86995000D01*
X126003000Y-87153750D01*
X125999928Y-87968000D01*
X120019072Y-87968000D01*
X120019072Y-86866000D01*
X120010427Y-86778223D01*
X120172411Y-86819339D01*
X120464531Y-86834611D01*
X120754019Y-86792599D01*
X120956263Y-86720952D01*
X120865506Y-86769463D01*
X120768815Y-86848815D01*
X120689463Y-86945506D01*
X120630498Y-87055820D01*
X120594188Y-87175518D01*
X120581928Y-87300000D01*
X120585000Y-87589250D01*
X120743750Y-87748000D01*
X121793000Y-87748000D01*
X121793000Y-86823750D01*
X121634250Y-86665000D01*
X121220000Y-86661928D01*
X121095518Y-86674188D01*
X121033119Y-86693116D01*
X121167157Y-86621472D01*
X121244792Y-86372397D01*
X120396000Y-85523605D01*
X120381858Y-85537748D01*
X120202253Y-85358143D01*
X120216395Y-85344000D01*
X119367603Y-84495208D01*
X119125311Y-84570729D01*
X119009475Y-84397368D01*
X118927710Y-84315603D01*
X119547208Y-84315603D01*
X120396000Y-85164395D01*
X121244792Y-84315603D01*
X121167157Y-84066528D01*
X120903117Y-83940629D01*
X120619589Y-83868661D01*
X120327469Y-83853389D01*
X120037981Y-83895401D01*
X119762253Y-83993081D01*
X119624843Y-84066528D01*
X119547208Y-84315603D01*
X118927710Y-84315603D01*
X118802632Y-84190525D01*
X118559411Y-84028010D01*
X118289158Y-83916068D01*
X118002260Y-83859000D01*
X117709740Y-83859000D01*
X117422842Y-83916068D01*
X117152589Y-84028010D01*
X116909368Y-84190525D01*
X116702525Y-84397368D01*
X116586000Y-84571760D01*
X116469475Y-84397368D01*
X116262632Y-84190525D01*
X116019411Y-84028010D01*
X115749158Y-83916068D01*
X115462260Y-83859000D01*
X115169740Y-83859000D01*
X114882842Y-83916068D01*
X114612589Y-84028010D01*
X114369368Y-84190525D01*
X114162525Y-84397368D01*
X114000010Y-84640589D01*
X113888068Y-84910842D01*
X113831000Y-85197740D01*
X113831000Y-85490260D01*
X113888068Y-85777158D01*
X114000010Y-86047411D01*
X114162525Y-86290632D01*
X114369368Y-86497475D01*
X114612589Y-86659990D01*
X114882842Y-86771932D01*
X115169740Y-86829000D01*
X115462260Y-86829000D01*
X115701254Y-86781461D01*
X115692928Y-86866000D01*
X115692928Y-88386000D01*
X115705188Y-88510482D01*
X115741498Y-88630180D01*
X115800463Y-88740494D01*
X115825499Y-88771000D01*
X115800463Y-88801506D01*
X115741498Y-88911820D01*
X115705188Y-89031518D01*
X115692928Y-89156000D01*
X115692928Y-90676000D01*
X115705188Y-90800482D01*
X115741498Y-90920180D01*
X115800463Y-91030494D01*
X115879815Y-91127185D01*
X115976506Y-91206537D01*
X116082139Y-91263000D01*
X84505000Y-91263000D01*
X84505000Y-86100475D01*
X96679000Y-86100475D01*
X96679000Y-86619525D01*
X96780261Y-87128601D01*
X96978893Y-87608141D01*
X97267262Y-88039715D01*
X97634285Y-88406738D01*
X98065859Y-88695107D01*
X98545399Y-88893739D01*
X99054475Y-88995000D01*
X99573525Y-88995000D01*
X100082601Y-88893739D01*
X100562141Y-88695107D01*
X100993715Y-88406738D01*
X101360738Y-88039715D01*
X101649107Y-87608141D01*
X101847739Y-87128601D01*
X101949000Y-86619525D01*
X101949000Y-86372397D01*
X104307208Y-86372397D01*
X104384843Y-86621472D01*
X104648883Y-86747371D01*
X104932411Y-86819339D01*
X105224531Y-86834611D01*
X105514019Y-86792599D01*
X105789747Y-86694919D01*
X105927157Y-86621472D01*
X106004792Y-86372397D01*
X105156000Y-85523605D01*
X104307208Y-86372397D01*
X101949000Y-86372397D01*
X101949000Y-86100475D01*
X101847739Y-85591399D01*
X101773650Y-85412531D01*
X103665389Y-85412531D01*
X103707401Y-85702019D01*
X103805081Y-85977747D01*
X103878528Y-86115157D01*
X104127603Y-86192792D01*
X104976395Y-85344000D01*
X105335605Y-85344000D01*
X106184397Y-86192792D01*
X106426689Y-86117271D01*
X106542525Y-86290632D01*
X106749368Y-86497475D01*
X106992589Y-86659990D01*
X107262842Y-86771932D01*
X107549740Y-86829000D01*
X107842260Y-86829000D01*
X108129158Y-86771932D01*
X108399411Y-86659990D01*
X108642632Y-86497475D01*
X108849475Y-86290632D01*
X108966000Y-86116240D01*
X109082525Y-86290632D01*
X109289368Y-86497475D01*
X109532589Y-86659990D01*
X109802842Y-86771932D01*
X110089740Y-86829000D01*
X110382260Y-86829000D01*
X110669158Y-86771932D01*
X110939411Y-86659990D01*
X111182632Y-86497475D01*
X111389475Y-86290632D01*
X111551990Y-86047411D01*
X111663932Y-85777158D01*
X111721000Y-85490260D01*
X111721000Y-85197740D01*
X111663932Y-84910842D01*
X111551990Y-84640589D01*
X111389475Y-84397368D01*
X111182632Y-84190525D01*
X110939411Y-84028010D01*
X110669158Y-83916068D01*
X110382260Y-83859000D01*
X110089740Y-83859000D01*
X109802842Y-83916068D01*
X109532589Y-84028010D01*
X109289368Y-84190525D01*
X109082525Y-84397368D01*
X108966000Y-84571760D01*
X108849475Y-84397368D01*
X108642632Y-84190525D01*
X108399411Y-84028010D01*
X108129158Y-83916068D01*
X107842260Y-83859000D01*
X107549740Y-83859000D01*
X107262842Y-83916068D01*
X106992589Y-84028010D01*
X106749368Y-84190525D01*
X106542525Y-84397368D01*
X106426689Y-84570729D01*
X106184397Y-84495208D01*
X105335605Y-85344000D01*
X104976395Y-85344000D01*
X104127603Y-84495208D01*
X103878528Y-84572843D01*
X103752629Y-84836883D01*
X103680661Y-85120411D01*
X103665389Y-85412531D01*
X101773650Y-85412531D01*
X101649107Y-85111859D01*
X101360738Y-84680285D01*
X100996056Y-84315603D01*
X104307208Y-84315603D01*
X105156000Y-85164395D01*
X106004792Y-84315603D01*
X105927157Y-84066528D01*
X105663117Y-83940629D01*
X105379589Y-83868661D01*
X105087469Y-83853389D01*
X104797981Y-83895401D01*
X104522253Y-83993081D01*
X104384843Y-84066528D01*
X104307208Y-84315603D01*
X100996056Y-84315603D01*
X100993715Y-84313262D01*
X100562141Y-84024893D01*
X100082601Y-83826261D01*
X99573525Y-83725000D01*
X99054475Y-83725000D01*
X98545399Y-83826261D01*
X98065859Y-84024893D01*
X97634285Y-84313262D01*
X97267262Y-84680285D01*
X96978893Y-85111859D01*
X96780261Y-85591399D01*
X96679000Y-86100475D01*
X84505000Y-86100475D01*
X84505000Y-79841000D01*
X119057928Y-79841000D01*
X119070188Y-79965482D01*
X119106498Y-80085180D01*
X119165463Y-80195494D01*
X119244815Y-80292185D01*
X119341506Y-80371537D01*
X119451820Y-80430502D01*
X119571518Y-80466812D01*
X119696000Y-80479072D01*
X120110250Y-80476000D01*
X120269000Y-80317250D01*
X120269000Y-79393000D01*
X119219750Y-79393000D01*
X119061000Y-79551750D01*
X119057928Y-79841000D01*
X84505000Y-79841000D01*
X84505000Y-77800000D01*
X86091928Y-77800000D01*
X86104188Y-77924482D01*
X86140498Y-78044180D01*
X86199463Y-78154494D01*
X86278815Y-78251185D01*
X86375506Y-78330537D01*
X86485820Y-78389502D01*
X86605518Y-78425812D01*
X86730000Y-78438072D01*
X87314250Y-78435000D01*
X87473000Y-78276250D01*
X87473000Y-76827000D01*
X86253750Y-76827000D01*
X86095000Y-76985750D01*
X86091928Y-77800000D01*
X84505000Y-77800000D01*
X84505000Y-75600000D01*
X86091928Y-75600000D01*
X86095000Y-76414250D01*
X86253750Y-76573000D01*
X87473000Y-76573000D01*
X87473000Y-75123750D01*
X87727000Y-75123750D01*
X87727000Y-76573000D01*
X87747000Y-76573000D01*
X87747000Y-76827000D01*
X87727000Y-76827000D01*
X87727000Y-78276250D01*
X87885750Y-78435000D01*
X88470000Y-78438072D01*
X88594482Y-78425812D01*
X88714180Y-78389502D01*
X88824494Y-78330537D01*
X88921185Y-78251185D01*
X89000537Y-78154494D01*
X89059502Y-78044180D01*
X89072615Y-78000953D01*
X89299822Y-78187417D01*
X89561276Y-78327166D01*
X89844969Y-78413224D01*
X90140000Y-78442282D01*
X90435032Y-78413224D01*
X90718725Y-78327166D01*
X90980179Y-78187417D01*
X91209345Y-77999345D01*
X91397417Y-77770179D01*
X91537166Y-77508724D01*
X91623224Y-77225031D01*
X91645000Y-77003935D01*
X91645000Y-76396064D01*
X91623224Y-76174968D01*
X91537166Y-75891275D01*
X91519380Y-75857999D01*
X93991928Y-75857999D01*
X93991928Y-77558001D01*
X94008992Y-77731255D01*
X94059528Y-77897851D01*
X94141595Y-78051387D01*
X94252038Y-78185962D01*
X94386613Y-78296405D01*
X94540149Y-78378472D01*
X94706745Y-78429008D01*
X94879999Y-78446072D01*
X96120001Y-78446072D01*
X96293255Y-78429008D01*
X96459851Y-78378472D01*
X96613387Y-78296405D01*
X96747962Y-78185962D01*
X96858405Y-78051387D01*
X96916934Y-77941886D01*
X96970655Y-78007345D01*
X97199822Y-78195417D01*
X97461276Y-78335166D01*
X97744969Y-78421224D01*
X98040000Y-78450282D01*
X98335032Y-78421224D01*
X98618725Y-78335166D01*
X98880179Y-78195417D01*
X99109345Y-78007345D01*
X99297417Y-77778179D01*
X99437166Y-77516724D01*
X99523224Y-77233031D01*
X99545000Y-77011935D01*
X99545000Y-76404064D01*
X99523224Y-76182968D01*
X99496833Y-76095968D01*
X105627928Y-69964874D01*
X105627928Y-72110000D01*
X105640188Y-72234482D01*
X105676498Y-72354180D01*
X105735463Y-72464494D01*
X105814815Y-72561185D01*
X105911506Y-72640537D01*
X106021820Y-72699502D01*
X106141518Y-72735812D01*
X106266000Y-72748072D01*
X111666000Y-72748072D01*
X111790482Y-72735812D01*
X111910180Y-72699502D01*
X112020494Y-72640537D01*
X112117185Y-72561185D01*
X112196537Y-72464494D01*
X112255502Y-72354180D01*
X112291812Y-72234482D01*
X112304072Y-72110000D01*
X112304072Y-71115929D01*
X112420061Y-71139000D01*
X112623939Y-71139000D01*
X112823898Y-71099226D01*
X113012256Y-71021205D01*
X113181774Y-70907937D01*
X113325937Y-70763774D01*
X113439205Y-70594256D01*
X113517226Y-70405898D01*
X113557000Y-70205939D01*
X113557000Y-70002061D01*
X113517226Y-69802102D01*
X113439205Y-69613744D01*
X113325937Y-69444226D01*
X113181774Y-69300063D01*
X113046985Y-69210000D01*
X118835928Y-69210000D01*
X118835928Y-72110000D01*
X118848188Y-72234482D01*
X118884498Y-72354180D01*
X118943463Y-72464494D01*
X119022815Y-72561185D01*
X119119506Y-72640537D01*
X119229820Y-72699502D01*
X119349518Y-72735812D01*
X119474000Y-72748072D01*
X124874000Y-72748072D01*
X124998482Y-72735812D01*
X125118180Y-72699502D01*
X125228494Y-72640537D01*
X125325185Y-72561185D01*
X125404537Y-72464494D01*
X125463502Y-72354180D01*
X125499812Y-72234482D01*
X125512072Y-72110000D01*
X125512072Y-71139000D01*
X125577939Y-71139000D01*
X125777898Y-71099226D01*
X125966256Y-71021205D01*
X126135774Y-70907937D01*
X126279937Y-70763774D01*
X126393205Y-70594256D01*
X126471226Y-70405898D01*
X126511000Y-70205939D01*
X126511000Y-70002061D01*
X126471226Y-69802102D01*
X126393205Y-69613744D01*
X126279937Y-69444226D01*
X126135774Y-69300063D01*
X126000985Y-69210000D01*
X132043928Y-69210000D01*
X132043928Y-72110000D01*
X132056188Y-72234482D01*
X132092498Y-72354180D01*
X132151463Y-72464494D01*
X132230815Y-72561185D01*
X132327506Y-72640537D01*
X132437820Y-72699502D01*
X132557518Y-72735812D01*
X132682000Y-72748072D01*
X138082000Y-72748072D01*
X138206482Y-72735812D01*
X138326180Y-72699502D01*
X138436494Y-72640537D01*
X138533185Y-72561185D01*
X138612537Y-72464494D01*
X138671502Y-72354180D01*
X138707812Y-72234482D01*
X138720072Y-72110000D01*
X138720072Y-71036000D01*
X143271928Y-71036000D01*
X143275000Y-71850250D01*
X143433750Y-72009000D01*
X144653000Y-72009000D01*
X144653000Y-70559750D01*
X144494250Y-70401000D01*
X143910000Y-70397928D01*
X143785518Y-70410188D01*
X143665820Y-70446498D01*
X143555506Y-70505463D01*
X143458815Y-70584815D01*
X143379463Y-70681506D01*
X143320498Y-70791820D01*
X143284188Y-70911518D01*
X143271928Y-71036000D01*
X138720072Y-71036000D01*
X138720072Y-70102000D01*
X139250289Y-70102000D01*
X139294226Y-70145937D01*
X139463744Y-70259205D01*
X139652102Y-70337226D01*
X139852061Y-70377000D01*
X140055939Y-70377000D01*
X140255898Y-70337226D01*
X140444256Y-70259205D01*
X140613774Y-70145937D01*
X140757937Y-70001774D01*
X140871205Y-69832256D01*
X140949226Y-69643898D01*
X140989000Y-69443939D01*
X140989000Y-69240061D01*
X140949226Y-69040102D01*
X140871205Y-68851744D01*
X140757937Y-68682226D01*
X140613774Y-68538063D01*
X140444256Y-68424795D01*
X140255898Y-68346774D01*
X140055939Y-68307000D01*
X139852061Y-68307000D01*
X139652102Y-68346774D01*
X139463744Y-68424795D01*
X139294226Y-68538063D01*
X139250289Y-68582000D01*
X138184266Y-68582000D01*
X138082000Y-68571928D01*
X132682000Y-68571928D01*
X132557518Y-68584188D01*
X132437820Y-68620498D01*
X132327506Y-68679463D01*
X132230815Y-68758815D01*
X132151463Y-68855506D01*
X132092498Y-68965820D01*
X132056188Y-69085518D01*
X132043928Y-69210000D01*
X126000985Y-69210000D01*
X125966256Y-69186795D01*
X125777898Y-69108774D01*
X125577939Y-69069000D01*
X125494801Y-69069000D01*
X125463502Y-68965820D01*
X125404537Y-68855506D01*
X125325185Y-68758815D01*
X125228494Y-68679463D01*
X125118180Y-68620498D01*
X124998482Y-68584188D01*
X124874000Y-68571928D01*
X119474000Y-68571928D01*
X119349518Y-68584188D01*
X119229820Y-68620498D01*
X119119506Y-68679463D01*
X119022815Y-68758815D01*
X118943463Y-68855506D01*
X118884498Y-68965820D01*
X118848188Y-69085518D01*
X118835928Y-69210000D01*
X113046985Y-69210000D01*
X113012256Y-69186795D01*
X112823898Y-69108774D01*
X112623939Y-69069000D01*
X112420061Y-69069000D01*
X112292681Y-69094337D01*
X112291812Y-69085518D01*
X112255502Y-68965820D01*
X112196537Y-68855506D01*
X112117185Y-68758815D01*
X112020494Y-68679463D01*
X111910180Y-68620498D01*
X111790482Y-68584188D01*
X111666000Y-68571928D01*
X107020874Y-68571928D01*
X108792802Y-66800000D01*
X114612289Y-66800000D01*
X114656226Y-66843937D01*
X114825744Y-66957205D01*
X115014102Y-67035226D01*
X115214061Y-67075000D01*
X115417939Y-67075000D01*
X115617898Y-67035226D01*
X115806256Y-66957205D01*
X115975774Y-66843937D01*
X116019711Y-66800000D01*
X127820289Y-66800000D01*
X127864226Y-66843937D01*
X128033744Y-66957205D01*
X128222102Y-67035226D01*
X128422061Y-67075000D01*
X128625939Y-67075000D01*
X128825898Y-67035226D01*
X129014256Y-66957205D01*
X129183774Y-66843937D01*
X129227711Y-66800000D01*
X141028289Y-66800000D01*
X141072226Y-66843937D01*
X141241744Y-66957205D01*
X141430102Y-67035226D01*
X141630061Y-67075000D01*
X141833939Y-67075000D01*
X142033898Y-67035226D01*
X142222256Y-66957205D01*
X142391774Y-66843937D01*
X142535937Y-66699774D01*
X142649205Y-66530256D01*
X142727226Y-66341898D01*
X142767000Y-66141939D01*
X142767000Y-65938061D01*
X142727226Y-65738102D01*
X142649205Y-65549744D01*
X142535937Y-65380226D01*
X142391774Y-65236063D01*
X142222256Y-65122795D01*
X142033898Y-65044774D01*
X141833939Y-65005000D01*
X141630061Y-65005000D01*
X141430102Y-65044774D01*
X141241744Y-65122795D01*
X141072226Y-65236063D01*
X141028289Y-65280000D01*
X129227711Y-65280000D01*
X129183774Y-65236063D01*
X129014256Y-65122795D01*
X128825898Y-65044774D01*
X128625939Y-65005000D01*
X128422061Y-65005000D01*
X128222102Y-65044774D01*
X128033744Y-65122795D01*
X127864226Y-65236063D01*
X127820289Y-65280000D01*
X116019711Y-65280000D01*
X115975774Y-65236063D01*
X115806256Y-65122795D01*
X115617898Y-65044774D01*
X115417939Y-65005000D01*
X115214061Y-65005000D01*
X115014102Y-65044774D01*
X114825744Y-65122795D01*
X114656226Y-65236063D01*
X114612289Y-65280000D01*
X108515322Y-65280000D01*
X108477999Y-65276324D01*
X108440676Y-65280000D01*
X108440667Y-65280000D01*
X108329014Y-65290997D01*
X108185753Y-65334454D01*
X108053724Y-65405026D01*
X107937999Y-65499999D01*
X107914201Y-65528997D01*
X98422031Y-75021167D01*
X98335031Y-74994776D01*
X98040000Y-74965718D01*
X97744968Y-74994776D01*
X97461275Y-75080834D01*
X97199821Y-75220583D01*
X96970655Y-75408655D01*
X96916935Y-75474114D01*
X96858405Y-75364613D01*
X96747962Y-75230038D01*
X96613387Y-75119595D01*
X96459851Y-75037528D01*
X96293255Y-74986992D01*
X96120001Y-74969928D01*
X94879999Y-74969928D01*
X94706745Y-74986992D01*
X94540149Y-75037528D01*
X94386613Y-75119595D01*
X94252038Y-75230038D01*
X94141595Y-75364613D01*
X94059528Y-75518149D01*
X94008992Y-75684745D01*
X93991928Y-75857999D01*
X91519380Y-75857999D01*
X91397417Y-75629821D01*
X91209345Y-75400655D01*
X90980178Y-75212583D01*
X90718724Y-75072834D01*
X90435031Y-74986776D01*
X90140000Y-74957718D01*
X89844968Y-74986776D01*
X89561275Y-75072834D01*
X89299821Y-75212583D01*
X89072615Y-75399047D01*
X89059502Y-75355820D01*
X89000537Y-75245506D01*
X88921185Y-75148815D01*
X88824494Y-75069463D01*
X88714180Y-75010498D01*
X88594482Y-74974188D01*
X88470000Y-74961928D01*
X87885750Y-74965000D01*
X87727000Y-75123750D01*
X87473000Y-75123750D01*
X87314250Y-74965000D01*
X86730000Y-74961928D01*
X86605518Y-74974188D01*
X86485820Y-75010498D01*
X86375506Y-75069463D01*
X86278815Y-75148815D01*
X86199463Y-75245506D01*
X86140498Y-75355820D01*
X86104188Y-75475518D01*
X86091928Y-75600000D01*
X84505000Y-75600000D01*
X84505000Y-62484000D01*
X100107323Y-62484000D01*
X100121997Y-62632986D01*
X100165454Y-62776247D01*
X100236026Y-62908276D01*
X100330999Y-63024001D01*
X100446724Y-63118974D01*
X100578753Y-63189546D01*
X100722014Y-63233003D01*
X100833667Y-63244000D01*
X101383333Y-63244000D01*
X101494986Y-63233003D01*
X101638247Y-63189546D01*
X101770276Y-63118974D01*
X101886001Y-63024001D01*
X101980974Y-62908276D01*
X102051546Y-62776247D01*
X102095003Y-62632986D01*
X102109677Y-62484000D01*
X102095003Y-62335014D01*
X102051546Y-62191753D01*
X101980974Y-62059724D01*
X101886001Y-61943999D01*
X101770276Y-61849026D01*
X101638247Y-61778454D01*
X101494986Y-61734997D01*
X101383333Y-61724000D01*
X100833667Y-61724000D01*
X100722014Y-61734997D01*
X100578753Y-61778454D01*
X100446724Y-61849026D01*
X100330999Y-61943999D01*
X100236026Y-62059724D01*
X100165454Y-62191753D01*
X100121997Y-62335014D01*
X100107323Y-62484000D01*
X84505000Y-62484000D01*
X84505000Y-60858061D01*
X104375000Y-60858061D01*
X104375000Y-61061939D01*
X104414774Y-61261898D01*
X104492795Y-61450256D01*
X104606063Y-61619774D01*
X104750226Y-61763937D01*
X104919744Y-61877205D01*
X105108102Y-61955226D01*
X105308061Y-61995000D01*
X105511939Y-61995000D01*
X105627928Y-61971929D01*
X105627928Y-62410000D01*
X105640188Y-62534482D01*
X105676498Y-62654180D01*
X105735463Y-62764494D01*
X105814815Y-62861185D01*
X105911506Y-62940537D01*
X106021820Y-62999502D01*
X106141518Y-63035812D01*
X106266000Y-63048072D01*
X111666000Y-63048072D01*
X111790482Y-63035812D01*
X111910180Y-62999502D01*
X112020494Y-62940537D01*
X112117185Y-62861185D01*
X112196537Y-62764494D01*
X112255502Y-62654180D01*
X112291812Y-62534482D01*
X112304072Y-62410000D01*
X112304072Y-59510000D01*
X118835928Y-59510000D01*
X118835928Y-62410000D01*
X118848188Y-62534482D01*
X118884498Y-62654180D01*
X118943463Y-62764494D01*
X119022815Y-62861185D01*
X119119506Y-62940537D01*
X119144794Y-62954054D01*
X119107000Y-63144061D01*
X119107000Y-63347939D01*
X119146774Y-63547898D01*
X119224795Y-63736256D01*
X119338063Y-63905774D01*
X119482226Y-64049937D01*
X119651744Y-64163205D01*
X119840102Y-64241226D01*
X120040061Y-64281000D01*
X120243939Y-64281000D01*
X120443898Y-64241226D01*
X120632256Y-64163205D01*
X120801774Y-64049937D01*
X120845711Y-64006000D01*
X121550678Y-64006000D01*
X121588000Y-64009676D01*
X121625322Y-64006000D01*
X121625333Y-64006000D01*
X121736986Y-63995003D01*
X121880247Y-63951546D01*
X122012276Y-63880974D01*
X122128001Y-63786001D01*
X122151803Y-63756998D01*
X122685002Y-63223800D01*
X122714001Y-63200001D01*
X122759910Y-63144061D01*
X122808974Y-63084277D01*
X122828326Y-63048072D01*
X124874000Y-63048072D01*
X124998482Y-63035812D01*
X125118180Y-62999502D01*
X125228494Y-62940537D01*
X125325185Y-62861185D01*
X125404537Y-62764494D01*
X125463502Y-62654180D01*
X125499812Y-62534482D01*
X125512072Y-62410000D01*
X125512072Y-61614326D01*
X125548276Y-61594974D01*
X125664001Y-61500001D01*
X125687804Y-61470997D01*
X127648801Y-59510000D01*
X132043928Y-59510000D01*
X132043928Y-62410000D01*
X132056188Y-62534482D01*
X132092498Y-62654180D01*
X132151463Y-62764494D01*
X132230815Y-62861185D01*
X132327506Y-62940537D01*
X132437820Y-62999502D01*
X132557518Y-63035812D01*
X132682000Y-63048072D01*
X133096093Y-63048072D01*
X133077000Y-63144061D01*
X133077000Y-63347939D01*
X133116774Y-63547898D01*
X133194795Y-63736256D01*
X133308063Y-63905774D01*
X133452226Y-64049937D01*
X133621744Y-64163205D01*
X133810102Y-64241226D01*
X134010061Y-64281000D01*
X134213939Y-64281000D01*
X134413898Y-64241226D01*
X134602256Y-64163205D01*
X134771774Y-64049937D01*
X134915937Y-63905774D01*
X135029205Y-63736256D01*
X135107226Y-63547898D01*
X135147000Y-63347939D01*
X135147000Y-63285801D01*
X135384730Y-63048072D01*
X138082000Y-63048072D01*
X138206482Y-63035812D01*
X138326180Y-62999502D01*
X138436494Y-62940537D01*
X138533185Y-62861185D01*
X138612537Y-62764494D01*
X138671502Y-62654180D01*
X138707812Y-62534482D01*
X138720072Y-62410000D01*
X138720072Y-59510000D01*
X138707812Y-59385518D01*
X138671502Y-59265820D01*
X138612537Y-59155506D01*
X138533185Y-59058815D01*
X138436494Y-58979463D01*
X138326180Y-58920498D01*
X138206482Y-58884188D01*
X138082000Y-58871928D01*
X132682000Y-58871928D01*
X132557518Y-58884188D01*
X132437820Y-58920498D01*
X132327506Y-58979463D01*
X132230815Y-59058815D01*
X132151463Y-59155506D01*
X132092498Y-59265820D01*
X132056188Y-59385518D01*
X132043928Y-59510000D01*
X127648801Y-59510000D01*
X128486802Y-58672000D01*
X141417199Y-58672000D01*
X148592000Y-65846802D01*
X148592001Y-71093105D01*
X148577417Y-71065821D01*
X148389345Y-70836655D01*
X148160178Y-70648583D01*
X147898724Y-70508834D01*
X147615031Y-70422776D01*
X147320000Y-70393718D01*
X147024968Y-70422776D01*
X146741275Y-70508834D01*
X146479821Y-70648583D01*
X146252615Y-70835047D01*
X146239502Y-70791820D01*
X146180537Y-70681506D01*
X146101185Y-70584815D01*
X146004494Y-70505463D01*
X145894180Y-70446498D01*
X145774482Y-70410188D01*
X145650000Y-70397928D01*
X145065750Y-70401000D01*
X144907000Y-70559750D01*
X144907000Y-72009000D01*
X144927000Y-72009000D01*
X144927000Y-72263000D01*
X144907000Y-72263000D01*
X144907000Y-73712250D01*
X145065750Y-73871000D01*
X145650000Y-73874072D01*
X145774482Y-73861812D01*
X145894180Y-73825502D01*
X146004494Y-73766537D01*
X146101185Y-73687185D01*
X146180537Y-73590494D01*
X146239502Y-73480180D01*
X146252615Y-73436953D01*
X146479822Y-73623417D01*
X146741276Y-73763166D01*
X147024969Y-73849224D01*
X147320000Y-73878282D01*
X147615032Y-73849224D01*
X147898725Y-73763166D01*
X148160179Y-73623417D01*
X148389345Y-73435345D01*
X148577417Y-73206179D01*
X148592001Y-73178894D01*
X148592001Y-74916668D01*
X148588324Y-74954000D01*
X148592001Y-74991333D01*
X148602998Y-75102986D01*
X148608036Y-75119595D01*
X148646454Y-75246246D01*
X148717026Y-75378276D01*
X148788201Y-75465002D01*
X148812000Y-75494001D01*
X148840998Y-75517799D01*
X151344198Y-78021000D01*
X151256998Y-78021000D01*
X151256998Y-78179748D01*
X151098250Y-78021000D01*
X150514000Y-78017928D01*
X150389518Y-78030188D01*
X150269820Y-78066498D01*
X150159506Y-78125463D01*
X150062815Y-78204815D01*
X149983463Y-78301506D01*
X149924498Y-78411820D01*
X149888188Y-78531518D01*
X149875928Y-78656000D01*
X149879000Y-79470250D01*
X150037750Y-79629000D01*
X151257000Y-79629000D01*
X151257000Y-79609000D01*
X151511000Y-79609000D01*
X151511000Y-79629000D01*
X151531000Y-79629000D01*
X151531000Y-79883000D01*
X151511000Y-79883000D01*
X151511000Y-81332250D01*
X151669750Y-81491000D01*
X152254000Y-81494072D01*
X152378482Y-81481812D01*
X152498180Y-81445502D01*
X152608494Y-81386537D01*
X152705185Y-81307185D01*
X152784537Y-81210494D01*
X152843502Y-81100180D01*
X152856615Y-81056953D01*
X153083822Y-81243417D01*
X153345276Y-81383166D01*
X153628969Y-81469224D01*
X153924000Y-81498282D01*
X154219032Y-81469224D01*
X154502725Y-81383166D01*
X154764179Y-81243417D01*
X154993345Y-81055345D01*
X155181417Y-80826179D01*
X155321166Y-80564724D01*
X155407224Y-80281031D01*
X155429000Y-80059935D01*
X155429000Y-79452064D01*
X155407224Y-79230968D01*
X155321166Y-78947275D01*
X155181417Y-78685821D01*
X154993345Y-78456655D01*
X154764178Y-78268583D01*
X154502724Y-78128834D01*
X154219031Y-78042776D01*
X153924000Y-78013718D01*
X153628968Y-78042776D01*
X153541970Y-78069167D01*
X150112000Y-74639199D01*
X150112000Y-73727550D01*
X150159506Y-73766537D01*
X150269820Y-73825502D01*
X150389518Y-73861812D01*
X150514000Y-73874072D01*
X151098250Y-73871000D01*
X151257000Y-73712250D01*
X151257000Y-72263000D01*
X151237000Y-72263000D01*
X151237000Y-72009000D01*
X151257000Y-72009000D01*
X151257000Y-70559750D01*
X151511000Y-70559750D01*
X151511000Y-72009000D01*
X151531000Y-72009000D01*
X151531000Y-72263000D01*
X151511000Y-72263000D01*
X151511000Y-73712250D01*
X151669750Y-73871000D01*
X152254000Y-73874072D01*
X152378482Y-73861812D01*
X152498180Y-73825502D01*
X152608494Y-73766537D01*
X152705185Y-73687185D01*
X152784537Y-73590494D01*
X152843502Y-73480180D01*
X152856615Y-73436953D01*
X153083822Y-73623417D01*
X153345276Y-73763166D01*
X153628969Y-73849224D01*
X153924000Y-73878282D01*
X154219032Y-73849224D01*
X154502725Y-73763166D01*
X154764179Y-73623417D01*
X154993345Y-73435345D01*
X155181417Y-73206179D01*
X155321166Y-72944724D01*
X155407224Y-72661031D01*
X155429000Y-72439935D01*
X155429000Y-71832064D01*
X155407224Y-71610968D01*
X155321166Y-71327275D01*
X155181417Y-71065821D01*
X154993345Y-70836655D01*
X154764178Y-70648583D01*
X154502724Y-70508834D01*
X154219031Y-70422776D01*
X153924000Y-70393718D01*
X153628968Y-70422776D01*
X153345275Y-70508834D01*
X153083821Y-70648583D01*
X152856615Y-70835047D01*
X152843502Y-70791820D01*
X152784537Y-70681506D01*
X152705185Y-70584815D01*
X152608494Y-70505463D01*
X152498180Y-70446498D01*
X152378482Y-70410188D01*
X152254000Y-70397928D01*
X151669750Y-70401000D01*
X151511000Y-70559750D01*
X151257000Y-70559750D01*
X151098250Y-70401000D01*
X150514000Y-70397928D01*
X150389518Y-70410188D01*
X150269820Y-70446498D01*
X150159506Y-70505463D01*
X150112000Y-70544450D01*
X150112000Y-65569322D01*
X150115676Y-65531999D01*
X150112000Y-65494676D01*
X150112000Y-65494667D01*
X150101003Y-65383014D01*
X150057546Y-65239753D01*
X149986974Y-65107724D01*
X149892001Y-64991999D01*
X149863004Y-64968202D01*
X142295804Y-57401003D01*
X142272001Y-57371999D01*
X142156276Y-57277026D01*
X142024247Y-57206454D01*
X141880986Y-57162997D01*
X141769333Y-57152000D01*
X141769322Y-57152000D01*
X141732000Y-57148324D01*
X141694678Y-57152000D01*
X128209323Y-57152000D01*
X128172000Y-57148324D01*
X128134677Y-57152000D01*
X128134667Y-57152000D01*
X128023014Y-57162997D01*
X127879753Y-57206454D01*
X127747723Y-57277026D01*
X127688278Y-57325812D01*
X127631999Y-57371999D01*
X127608201Y-57400997D01*
X125510918Y-59498281D01*
X125499812Y-59385518D01*
X125463502Y-59265820D01*
X125404537Y-59155506D01*
X125325185Y-59058815D01*
X125228494Y-58979463D01*
X125118180Y-58920498D01*
X124998482Y-58884188D01*
X124874000Y-58871928D01*
X119474000Y-58871928D01*
X119349518Y-58884188D01*
X119229820Y-58920498D01*
X119119506Y-58979463D01*
X119022815Y-59058815D01*
X118943463Y-59155506D01*
X118884498Y-59265820D01*
X118848188Y-59385518D01*
X118835928Y-59510000D01*
X112304072Y-59510000D01*
X112291812Y-59385518D01*
X112255502Y-59265820D01*
X112196537Y-59155506D01*
X112117185Y-59058815D01*
X112020494Y-58979463D01*
X111910180Y-58920498D01*
X111790482Y-58884188D01*
X111666000Y-58871928D01*
X106266000Y-58871928D01*
X106141518Y-58884188D01*
X106021820Y-58920498D01*
X105911506Y-58979463D01*
X105814815Y-59058815D01*
X105735463Y-59155506D01*
X105676498Y-59265820D01*
X105640188Y-59385518D01*
X105627928Y-59510000D01*
X105627928Y-59948071D01*
X105511939Y-59925000D01*
X105308061Y-59925000D01*
X105108102Y-59964774D01*
X104919744Y-60042795D01*
X104750226Y-60156063D01*
X104606063Y-60300226D01*
X104492795Y-60469744D01*
X104414774Y-60658102D01*
X104375000Y-60858061D01*
X84505000Y-60858061D01*
X84505000Y-50540475D01*
X84995000Y-50540475D01*
X84995000Y-51059525D01*
X85096261Y-51568601D01*
X85294893Y-52048141D01*
X85583262Y-52479715D01*
X85950285Y-52846738D01*
X86381859Y-53135107D01*
X86861399Y-53333739D01*
X87370475Y-53435000D01*
X87889525Y-53435000D01*
X88398601Y-53333739D01*
X88493257Y-53294531D01*
X90649074Y-53294531D01*
X90759921Y-53571714D01*
X91070840Y-53725089D01*
X91405705Y-53814860D01*
X91751650Y-53837576D01*
X92095380Y-53792366D01*
X92423685Y-53680966D01*
X92628079Y-53571714D01*
X92738926Y-53294531D01*
X95729074Y-53294531D01*
X95839921Y-53571714D01*
X96150840Y-53725089D01*
X96485705Y-53814860D01*
X96831650Y-53837576D01*
X97175380Y-53792366D01*
X97503685Y-53680966D01*
X97708079Y-53571714D01*
X97818926Y-53294531D01*
X99031074Y-53294531D01*
X99141921Y-53571714D01*
X99452840Y-53725089D01*
X99787705Y-53814860D01*
X100133650Y-53837576D01*
X100477380Y-53792366D01*
X100805685Y-53680966D01*
X101010079Y-53571714D01*
X101120926Y-53294531D01*
X100076000Y-52249605D01*
X99031074Y-53294531D01*
X97818926Y-53294531D01*
X96774000Y-52249605D01*
X95729074Y-53294531D01*
X92738926Y-53294531D01*
X91694000Y-52249605D01*
X90649074Y-53294531D01*
X88493257Y-53294531D01*
X88878141Y-53135107D01*
X89309715Y-52846738D01*
X89676738Y-52479715D01*
X89927998Y-52103678D01*
X89926424Y-52127650D01*
X89971634Y-52471380D01*
X90083034Y-52799685D01*
X90192286Y-53004079D01*
X90469469Y-53114926D01*
X91514395Y-52070000D01*
X91873605Y-52070000D01*
X92918531Y-53114926D01*
X93195714Y-53004079D01*
X93349089Y-52693160D01*
X93438860Y-52358295D01*
X93454004Y-52127650D01*
X95006424Y-52127650D01*
X95051634Y-52471380D01*
X95163034Y-52799685D01*
X95272286Y-53004079D01*
X95549469Y-53114926D01*
X96594395Y-52070000D01*
X96953605Y-52070000D01*
X97998531Y-53114926D01*
X98275714Y-53004079D01*
X98428970Y-52693401D01*
X98465034Y-52799685D01*
X98574286Y-53004079D01*
X98851469Y-53114926D01*
X99896395Y-52070000D01*
X100255605Y-52070000D01*
X101300531Y-53114926D01*
X101577714Y-53004079D01*
X101731089Y-52693160D01*
X101820860Y-52358295D01*
X101843576Y-52012350D01*
X101798366Y-51668620D01*
X101686966Y-51340315D01*
X101577714Y-51135921D01*
X101300531Y-51025074D01*
X100255605Y-52070000D01*
X99896395Y-52070000D01*
X98851469Y-51025074D01*
X98574286Y-51135921D01*
X98421030Y-51446599D01*
X98384966Y-51340315D01*
X98275714Y-51135921D01*
X97998531Y-51025074D01*
X96953605Y-52070000D01*
X96594395Y-52070000D01*
X95549469Y-51025074D01*
X95272286Y-51135921D01*
X95118911Y-51446840D01*
X95029140Y-51781705D01*
X95006424Y-52127650D01*
X93454004Y-52127650D01*
X93461576Y-52012350D01*
X93416366Y-51668620D01*
X93304966Y-51340315D01*
X93195714Y-51135921D01*
X92918531Y-51025074D01*
X91873605Y-52070000D01*
X91514395Y-52070000D01*
X90469469Y-51025074D01*
X90254775Y-51110931D01*
X90265000Y-51059525D01*
X90265000Y-50845469D01*
X90649074Y-50845469D01*
X91694000Y-51890395D01*
X92738926Y-50845469D01*
X92628079Y-50568286D01*
X92317160Y-50414911D01*
X91982295Y-50325140D01*
X91636350Y-50302424D01*
X91292620Y-50347634D01*
X90964315Y-50459034D01*
X90759921Y-50568286D01*
X90649074Y-50845469D01*
X90265000Y-50845469D01*
X90265000Y-50540475D01*
X90163739Y-50031399D01*
X89965107Y-49551859D01*
X89841257Y-49366504D01*
X92574000Y-49366504D01*
X92574000Y-49693496D01*
X92637793Y-50014204D01*
X92762927Y-50316305D01*
X92944594Y-50588188D01*
X93175812Y-50819406D01*
X93447695Y-51001073D01*
X93749796Y-51126207D01*
X94070504Y-51190000D01*
X94397496Y-51190000D01*
X94718204Y-51126207D01*
X95020305Y-51001073D01*
X95253182Y-50845469D01*
X95729074Y-50845469D01*
X96774000Y-51890395D01*
X97818926Y-50845469D01*
X99031074Y-50845469D01*
X100076000Y-51890395D01*
X101120926Y-50845469D01*
X101010079Y-50568286D01*
X100699160Y-50414911D01*
X100364295Y-50325140D01*
X100018350Y-50302424D01*
X99674620Y-50347634D01*
X99346315Y-50459034D01*
X99141921Y-50568286D01*
X99031074Y-50845469D01*
X97818926Y-50845469D01*
X97708079Y-50568286D01*
X97397160Y-50414911D01*
X97062295Y-50325140D01*
X96716350Y-50302424D01*
X96372620Y-50347634D01*
X96044315Y-50459034D01*
X95839921Y-50568286D01*
X95729074Y-50845469D01*
X95253182Y-50845469D01*
X95292188Y-50819406D01*
X95523406Y-50588188D01*
X95705073Y-50316305D01*
X95830207Y-50014204D01*
X95894000Y-49693496D01*
X95894000Y-49366504D01*
X100956000Y-49366504D01*
X100956000Y-49693496D01*
X101019793Y-50014204D01*
X101144927Y-50316305D01*
X101326594Y-50588188D01*
X101557812Y-50819406D01*
X101829695Y-51001073D01*
X101856001Y-51011969D01*
X101856001Y-51578668D01*
X101852324Y-51616000D01*
X101866998Y-51764985D01*
X101910454Y-51908246D01*
X101981026Y-52040276D01*
X102052201Y-52127002D01*
X102076000Y-52156001D01*
X102104998Y-52179799D01*
X105786928Y-55861730D01*
X105786928Y-56450001D01*
X105803992Y-56623255D01*
X105854528Y-56789851D01*
X105936595Y-56943387D01*
X106047038Y-57077962D01*
X106181613Y-57188405D01*
X106335149Y-57270472D01*
X106501745Y-57321008D01*
X106674999Y-57338072D01*
X107325001Y-57338072D01*
X107498255Y-57321008D01*
X107664851Y-57270472D01*
X107818387Y-57188405D01*
X107952962Y-57077962D01*
X108025000Y-56990184D01*
X108097038Y-57077962D01*
X108231613Y-57188405D01*
X108385149Y-57270472D01*
X108551745Y-57321008D01*
X108724999Y-57338072D01*
X109375001Y-57338072D01*
X109548255Y-57321008D01*
X109714851Y-57270472D01*
X109868387Y-57188405D01*
X110002962Y-57077962D01*
X110113405Y-56943387D01*
X110195472Y-56789851D01*
X110204527Y-56760000D01*
X110295473Y-56760000D01*
X110304528Y-56789851D01*
X110386595Y-56943387D01*
X110497038Y-57077962D01*
X110631613Y-57188405D01*
X110785149Y-57270472D01*
X110951745Y-57321008D01*
X111124999Y-57338072D01*
X111775001Y-57338072D01*
X111948255Y-57321008D01*
X112114851Y-57270472D01*
X112268387Y-57188405D01*
X112402962Y-57077962D01*
X112408342Y-57071406D01*
X112473815Y-57151185D01*
X112570506Y-57230537D01*
X112680820Y-57289502D01*
X112800518Y-57325812D01*
X112925000Y-57338072D01*
X113214250Y-57335000D01*
X113373000Y-57176250D01*
X113373000Y-56127000D01*
X113627000Y-56127000D01*
X113627000Y-57176250D01*
X113785750Y-57335000D01*
X114075000Y-57338072D01*
X114199482Y-57325812D01*
X114319180Y-57289502D01*
X114429494Y-57230537D01*
X114526185Y-57151185D01*
X114605537Y-57054494D01*
X114664502Y-56944180D01*
X114700812Y-56824482D01*
X114713072Y-56700000D01*
X114710000Y-56285750D01*
X114551250Y-56127000D01*
X113627000Y-56127000D01*
X113373000Y-56127000D01*
X113353000Y-56127000D01*
X113353000Y-55873000D01*
X113373000Y-55873000D01*
X113373000Y-54823750D01*
X113627000Y-54823750D01*
X113627000Y-55873000D01*
X114551250Y-55873000D01*
X114710000Y-55714250D01*
X114713072Y-55300000D01*
X114700812Y-55175518D01*
X114664502Y-55055820D01*
X114605537Y-54945506D01*
X114526185Y-54848815D01*
X114429494Y-54769463D01*
X114319180Y-54710498D01*
X114199482Y-54674188D01*
X114075000Y-54661928D01*
X113785750Y-54665000D01*
X113627000Y-54823750D01*
X113373000Y-54823750D01*
X113214250Y-54665000D01*
X112925000Y-54661928D01*
X112800518Y-54674188D01*
X112680820Y-54710498D01*
X112570506Y-54769463D01*
X112473815Y-54848815D01*
X112408342Y-54928594D01*
X112402962Y-54922038D01*
X112268387Y-54811595D01*
X112114851Y-54729528D01*
X111948255Y-54678992D01*
X111775001Y-54661928D01*
X111462874Y-54661928D01*
X111509004Y-54615798D01*
X111538001Y-54592001D01*
X111564332Y-54559917D01*
X111632974Y-54476277D01*
X111703546Y-54344247D01*
X111703546Y-54344246D01*
X111747003Y-54200986D01*
X111758000Y-54089333D01*
X111758000Y-54089323D01*
X111761676Y-54052001D01*
X111758000Y-54014678D01*
X111758000Y-53294531D01*
X112493074Y-53294531D01*
X112603921Y-53571714D01*
X112914840Y-53725089D01*
X113249705Y-53814860D01*
X113595650Y-53837576D01*
X113939380Y-53792366D01*
X114267685Y-53680966D01*
X114472079Y-53571714D01*
X114582926Y-53294531D01*
X113538000Y-52249605D01*
X112493074Y-53294531D01*
X111758000Y-53294531D01*
X111758000Y-52127650D01*
X111770424Y-52127650D01*
X111815634Y-52471380D01*
X111927034Y-52799685D01*
X112036286Y-53004079D01*
X112313469Y-53114926D01*
X113358395Y-52070000D01*
X113717605Y-52070000D01*
X114762531Y-53114926D01*
X115039714Y-53004079D01*
X115193089Y-52693160D01*
X115282860Y-52358295D01*
X115305576Y-52012350D01*
X115260366Y-51668620D01*
X115148966Y-51340315D01*
X115039714Y-51135921D01*
X114762531Y-51025074D01*
X113717605Y-52070000D01*
X113358395Y-52070000D01*
X112313469Y-51025074D01*
X112036286Y-51135921D01*
X111882911Y-51446840D01*
X111793140Y-51781705D01*
X111770424Y-52127650D01*
X111758000Y-52127650D01*
X111758000Y-51011969D01*
X111784305Y-51001073D01*
X112017182Y-50845469D01*
X112493074Y-50845469D01*
X113538000Y-51890395D01*
X114582926Y-50845469D01*
X114472079Y-50568286D01*
X114415702Y-50540475D01*
X149765000Y-50540475D01*
X149765000Y-51059525D01*
X149866261Y-51568601D01*
X150064893Y-52048141D01*
X150353262Y-52479715D01*
X150720285Y-52846738D01*
X151151859Y-53135107D01*
X151631399Y-53333739D01*
X152140475Y-53435000D01*
X152659525Y-53435000D01*
X153168601Y-53333739D01*
X153648141Y-53135107D01*
X154079715Y-52846738D01*
X154446738Y-52479715D01*
X154735107Y-52048141D01*
X154933739Y-51568601D01*
X155035000Y-51059525D01*
X155035000Y-50540475D01*
X154933739Y-50031399D01*
X154735107Y-49551859D01*
X154446738Y-49120285D01*
X154079715Y-48753262D01*
X153648141Y-48464893D01*
X153168601Y-48266261D01*
X152659525Y-48165000D01*
X152140475Y-48165000D01*
X151631399Y-48266261D01*
X151151859Y-48464893D01*
X150720285Y-48753262D01*
X150353262Y-49120285D01*
X150064893Y-49551859D01*
X149866261Y-50031399D01*
X149765000Y-50540475D01*
X114415702Y-50540475D01*
X114161160Y-50414911D01*
X113826295Y-50325140D01*
X113480350Y-50302424D01*
X113136620Y-50347634D01*
X112808315Y-50459034D01*
X112603921Y-50568286D01*
X112493074Y-50845469D01*
X112017182Y-50845469D01*
X112056188Y-50819406D01*
X112287406Y-50588188D01*
X112469073Y-50316305D01*
X112594207Y-50014204D01*
X112658000Y-49693496D01*
X112658000Y-49366504D01*
X112594207Y-49045796D01*
X112469073Y-48743695D01*
X112287406Y-48471812D01*
X112056188Y-48240594D01*
X112017183Y-48214531D01*
X112493074Y-48214531D01*
X112603921Y-48491714D01*
X112914840Y-48645089D01*
X113249705Y-48734860D01*
X113595650Y-48757576D01*
X113939380Y-48712366D01*
X114267685Y-48600966D01*
X114472079Y-48491714D01*
X114582926Y-48214531D01*
X113538000Y-47169605D01*
X112493074Y-48214531D01*
X112017183Y-48214531D01*
X111784305Y-48058927D01*
X111482204Y-47933793D01*
X111161496Y-47870000D01*
X110834504Y-47870000D01*
X110513796Y-47933793D01*
X110211695Y-48058927D01*
X109939812Y-48240594D01*
X109708594Y-48471812D01*
X109526927Y-48743695D01*
X109401793Y-49045796D01*
X109338000Y-49366504D01*
X109338000Y-49693496D01*
X109401793Y-50014204D01*
X109526927Y-50316305D01*
X109708594Y-50588188D01*
X109939812Y-50819406D01*
X110211695Y-51001073D01*
X110238001Y-51011969D01*
X110238000Y-53737198D01*
X109313271Y-54661928D01*
X108724999Y-54661928D01*
X108551745Y-54678992D01*
X108385149Y-54729528D01*
X108231613Y-54811595D01*
X108097038Y-54922038D01*
X108025000Y-55009816D01*
X107952962Y-54922038D01*
X107818387Y-54811595D01*
X107664851Y-54729528D01*
X107498255Y-54678992D01*
X107325001Y-54661928D01*
X106736730Y-54661928D01*
X105788682Y-53713881D01*
X105885685Y-53680966D01*
X106090079Y-53571714D01*
X106200926Y-53294531D01*
X107413074Y-53294531D01*
X107523921Y-53571714D01*
X107834840Y-53725089D01*
X108169705Y-53814860D01*
X108515650Y-53837576D01*
X108859380Y-53792366D01*
X109187685Y-53680966D01*
X109392079Y-53571714D01*
X109502926Y-53294531D01*
X108458000Y-52249605D01*
X107413074Y-53294531D01*
X106200926Y-53294531D01*
X105156000Y-52249605D01*
X105141858Y-52263748D01*
X104962253Y-52084143D01*
X104976395Y-52070000D01*
X105335605Y-52070000D01*
X106380531Y-53114926D01*
X106657714Y-53004079D01*
X106810970Y-52693401D01*
X106847034Y-52799685D01*
X106956286Y-53004079D01*
X107233469Y-53114926D01*
X108278395Y-52070000D01*
X108637605Y-52070000D01*
X109682531Y-53114926D01*
X109959714Y-53004079D01*
X110113089Y-52693160D01*
X110202860Y-52358295D01*
X110225576Y-52012350D01*
X110180366Y-51668620D01*
X110068966Y-51340315D01*
X109959714Y-51135921D01*
X109682531Y-51025074D01*
X108637605Y-52070000D01*
X108278395Y-52070000D01*
X107233469Y-51025074D01*
X106956286Y-51135921D01*
X106803030Y-51446599D01*
X106766966Y-51340315D01*
X106657714Y-51135921D01*
X106380531Y-51025074D01*
X105335605Y-52070000D01*
X104976395Y-52070000D01*
X103931469Y-51025074D01*
X103654286Y-51135921D01*
X103507759Y-51432958D01*
X103376000Y-51301199D01*
X103376000Y-51011969D01*
X103402305Y-51001073D01*
X103635182Y-50845469D01*
X104111074Y-50845469D01*
X105156000Y-51890395D01*
X106200926Y-50845469D01*
X107413074Y-50845469D01*
X108458000Y-51890395D01*
X109502926Y-50845469D01*
X109392079Y-50568286D01*
X109081160Y-50414911D01*
X108746295Y-50325140D01*
X108400350Y-50302424D01*
X108056620Y-50347634D01*
X107728315Y-50459034D01*
X107523921Y-50568286D01*
X107413074Y-50845469D01*
X106200926Y-50845469D01*
X106090079Y-50568286D01*
X105779160Y-50414911D01*
X105444295Y-50325140D01*
X105098350Y-50302424D01*
X104754620Y-50347634D01*
X104426315Y-50459034D01*
X104221921Y-50568286D01*
X104111074Y-50845469D01*
X103635182Y-50845469D01*
X103674188Y-50819406D01*
X103905406Y-50588188D01*
X104087073Y-50316305D01*
X104212207Y-50014204D01*
X104276000Y-49693496D01*
X104276000Y-49366504D01*
X104212207Y-49045796D01*
X104087073Y-48743695D01*
X103905406Y-48471812D01*
X103674188Y-48240594D01*
X103635183Y-48214531D01*
X104111074Y-48214531D01*
X104221921Y-48491714D01*
X104532840Y-48645089D01*
X104867705Y-48734860D01*
X105213650Y-48757576D01*
X105557380Y-48712366D01*
X105885685Y-48600966D01*
X106090079Y-48491714D01*
X106200926Y-48214531D01*
X107413074Y-48214531D01*
X107523921Y-48491714D01*
X107834840Y-48645089D01*
X108169705Y-48734860D01*
X108515650Y-48757576D01*
X108859380Y-48712366D01*
X109187685Y-48600966D01*
X109392079Y-48491714D01*
X109502926Y-48214531D01*
X108458000Y-47169605D01*
X107413074Y-48214531D01*
X106200926Y-48214531D01*
X105156000Y-47169605D01*
X104111074Y-48214531D01*
X103635183Y-48214531D01*
X103402305Y-48058927D01*
X103100204Y-47933793D01*
X102779496Y-47870000D01*
X102452504Y-47870000D01*
X102131796Y-47933793D01*
X101829695Y-48058927D01*
X101557812Y-48240594D01*
X101326594Y-48471812D01*
X101144927Y-48743695D01*
X101019793Y-49045796D01*
X100956000Y-49366504D01*
X95894000Y-49366504D01*
X95830207Y-49045796D01*
X95705073Y-48743695D01*
X95523406Y-48471812D01*
X95292188Y-48240594D01*
X95253183Y-48214531D01*
X95729074Y-48214531D01*
X95839921Y-48491714D01*
X96150840Y-48645089D01*
X96485705Y-48734860D01*
X96831650Y-48757576D01*
X97175380Y-48712366D01*
X97503685Y-48600966D01*
X97708079Y-48491714D01*
X97818926Y-48214531D01*
X99031074Y-48214531D01*
X99141921Y-48491714D01*
X99452840Y-48645089D01*
X99787705Y-48734860D01*
X100133650Y-48757576D01*
X100477380Y-48712366D01*
X100805685Y-48600966D01*
X101010079Y-48491714D01*
X101120926Y-48214531D01*
X100076000Y-47169605D01*
X99031074Y-48214531D01*
X97818926Y-48214531D01*
X96774000Y-47169605D01*
X95729074Y-48214531D01*
X95253183Y-48214531D01*
X95020305Y-48058927D01*
X94718204Y-47933793D01*
X94397496Y-47870000D01*
X94070504Y-47870000D01*
X93749796Y-47933793D01*
X93447695Y-48058927D01*
X93175812Y-48240594D01*
X92944594Y-48471812D01*
X92762927Y-48743695D01*
X92637793Y-49045796D01*
X92574000Y-49366504D01*
X89841257Y-49366504D01*
X89676738Y-49120285D01*
X89309715Y-48753262D01*
X88878141Y-48464893D01*
X88398601Y-48266261D01*
X88138536Y-48214531D01*
X90649074Y-48214531D01*
X90759921Y-48491714D01*
X91070840Y-48645089D01*
X91405705Y-48734860D01*
X91751650Y-48757576D01*
X92095380Y-48712366D01*
X92423685Y-48600966D01*
X92628079Y-48491714D01*
X92738926Y-48214531D01*
X91694000Y-47169605D01*
X90649074Y-48214531D01*
X88138536Y-48214531D01*
X87889525Y-48165000D01*
X87370475Y-48165000D01*
X86861399Y-48266261D01*
X86381859Y-48464893D01*
X85950285Y-48753262D01*
X85583262Y-49120285D01*
X85294893Y-49551859D01*
X85096261Y-50031399D01*
X84995000Y-50540475D01*
X84505000Y-50540475D01*
X84505000Y-45897000D01*
X90421392Y-45897000D01*
X90469467Y-45945075D01*
M02*
