%TF.GenerationSoftware,KiCad,Pcbnew,5.0.1*%
%TF.CreationDate,2019-01-10T14:59:40-06:00*%
%TF.ProjectId,PowerRDP,506F7765725244502E6B696361645F70,01*%
%TF.SameCoordinates,Original*%
%TF.FileFunction,Paste,Bot*%
%TF.FilePolarity,Positive*%
%FSLAX46Y46*%
G04 Gerber Fmt 4.6, Leading zero omitted, Abs format (unit mm)*
G04 Created by KiCad (PCBNEW 5.0.1) date Thu 10 Jan 2019 02:59:40 PM CST*
%MOMM*%
%LPD*%
G01*
G04 APERTURE LIST*
%ADD10C,0.100000*%
%ADD11C,1.150000*%
%ADD12R,3.050000X1.520000*%
G04 APERTURE END LIST*
D10*
G36*
X145147505Y-52641204D02*
X145171773Y-52644804D01*
X145195572Y-52650765D01*
X145218671Y-52659030D01*
X145240850Y-52669520D01*
X145261893Y-52682132D01*
X145281599Y-52696747D01*
X145299777Y-52713223D01*
X145316253Y-52731401D01*
X145330868Y-52751107D01*
X145343480Y-52772150D01*
X145353970Y-52794329D01*
X145362235Y-52817428D01*
X145368196Y-52841227D01*
X145371796Y-52865495D01*
X145373000Y-52889999D01*
X145373000Y-53790001D01*
X145371796Y-53814505D01*
X145368196Y-53838773D01*
X145362235Y-53862572D01*
X145353970Y-53885671D01*
X145343480Y-53907850D01*
X145330868Y-53928893D01*
X145316253Y-53948599D01*
X145299777Y-53966777D01*
X145281599Y-53983253D01*
X145261893Y-53997868D01*
X145240850Y-54010480D01*
X145218671Y-54020970D01*
X145195572Y-54029235D01*
X145171773Y-54035196D01*
X145147505Y-54038796D01*
X145123001Y-54040000D01*
X144472999Y-54040000D01*
X144448495Y-54038796D01*
X144424227Y-54035196D01*
X144400428Y-54029235D01*
X144377329Y-54020970D01*
X144355150Y-54010480D01*
X144334107Y-53997868D01*
X144314401Y-53983253D01*
X144296223Y-53966777D01*
X144279747Y-53948599D01*
X144265132Y-53928893D01*
X144252520Y-53907850D01*
X144242030Y-53885671D01*
X144233765Y-53862572D01*
X144227804Y-53838773D01*
X144224204Y-53814505D01*
X144223000Y-53790001D01*
X144223000Y-52889999D01*
X144224204Y-52865495D01*
X144227804Y-52841227D01*
X144233765Y-52817428D01*
X144242030Y-52794329D01*
X144252520Y-52772150D01*
X144265132Y-52751107D01*
X144279747Y-52731401D01*
X144296223Y-52713223D01*
X144314401Y-52696747D01*
X144334107Y-52682132D01*
X144355150Y-52669520D01*
X144377329Y-52659030D01*
X144400428Y-52650765D01*
X144424227Y-52644804D01*
X144448495Y-52641204D01*
X144472999Y-52640000D01*
X145123001Y-52640000D01*
X145147505Y-52641204D01*
X145147505Y-52641204D01*
G37*
D11*
X144798000Y-53340000D03*
D10*
G36*
X143097505Y-52641204D02*
X143121773Y-52644804D01*
X143145572Y-52650765D01*
X143168671Y-52659030D01*
X143190850Y-52669520D01*
X143211893Y-52682132D01*
X143231599Y-52696747D01*
X143249777Y-52713223D01*
X143266253Y-52731401D01*
X143280868Y-52751107D01*
X143293480Y-52772150D01*
X143303970Y-52794329D01*
X143312235Y-52817428D01*
X143318196Y-52841227D01*
X143321796Y-52865495D01*
X143323000Y-52889999D01*
X143323000Y-53790001D01*
X143321796Y-53814505D01*
X143318196Y-53838773D01*
X143312235Y-53862572D01*
X143303970Y-53885671D01*
X143293480Y-53907850D01*
X143280868Y-53928893D01*
X143266253Y-53948599D01*
X143249777Y-53966777D01*
X143231599Y-53983253D01*
X143211893Y-53997868D01*
X143190850Y-54010480D01*
X143168671Y-54020970D01*
X143145572Y-54029235D01*
X143121773Y-54035196D01*
X143097505Y-54038796D01*
X143073001Y-54040000D01*
X142422999Y-54040000D01*
X142398495Y-54038796D01*
X142374227Y-54035196D01*
X142350428Y-54029235D01*
X142327329Y-54020970D01*
X142305150Y-54010480D01*
X142284107Y-53997868D01*
X142264401Y-53983253D01*
X142246223Y-53966777D01*
X142229747Y-53948599D01*
X142215132Y-53928893D01*
X142202520Y-53907850D01*
X142192030Y-53885671D01*
X142183765Y-53862572D01*
X142177804Y-53838773D01*
X142174204Y-53814505D01*
X142173000Y-53790001D01*
X142173000Y-52889999D01*
X142174204Y-52865495D01*
X142177804Y-52841227D01*
X142183765Y-52817428D01*
X142192030Y-52794329D01*
X142202520Y-52772150D01*
X142215132Y-52751107D01*
X142229747Y-52731401D01*
X142246223Y-52713223D01*
X142264401Y-52696747D01*
X142284107Y-52682132D01*
X142305150Y-52669520D01*
X142327329Y-52659030D01*
X142350428Y-52650765D01*
X142374227Y-52644804D01*
X142398495Y-52641204D01*
X142422999Y-52640000D01*
X143073001Y-52640000D01*
X143097505Y-52641204D01*
X143097505Y-52641204D01*
G37*
D11*
X142748000Y-53340000D03*
D10*
G36*
X144619505Y-66101204D02*
X144643773Y-66104804D01*
X144667572Y-66110765D01*
X144690671Y-66119030D01*
X144712850Y-66129520D01*
X144733893Y-66142132D01*
X144753599Y-66156747D01*
X144771777Y-66173223D01*
X144788253Y-66191401D01*
X144802868Y-66211107D01*
X144815480Y-66232150D01*
X144825970Y-66254329D01*
X144834235Y-66277428D01*
X144840196Y-66301227D01*
X144843796Y-66325495D01*
X144845000Y-66349999D01*
X144845000Y-67000001D01*
X144843796Y-67024505D01*
X144840196Y-67048773D01*
X144834235Y-67072572D01*
X144825970Y-67095671D01*
X144815480Y-67117850D01*
X144802868Y-67138893D01*
X144788253Y-67158599D01*
X144771777Y-67176777D01*
X144753599Y-67193253D01*
X144733893Y-67207868D01*
X144712850Y-67220480D01*
X144690671Y-67230970D01*
X144667572Y-67239235D01*
X144643773Y-67245196D01*
X144619505Y-67248796D01*
X144595001Y-67250000D01*
X143694999Y-67250000D01*
X143670495Y-67248796D01*
X143646227Y-67245196D01*
X143622428Y-67239235D01*
X143599329Y-67230970D01*
X143577150Y-67220480D01*
X143556107Y-67207868D01*
X143536401Y-67193253D01*
X143518223Y-67176777D01*
X143501747Y-67158599D01*
X143487132Y-67138893D01*
X143474520Y-67117850D01*
X143464030Y-67095671D01*
X143455765Y-67072572D01*
X143449804Y-67048773D01*
X143446204Y-67024505D01*
X143445000Y-67000001D01*
X143445000Y-66349999D01*
X143446204Y-66325495D01*
X143449804Y-66301227D01*
X143455765Y-66277428D01*
X143464030Y-66254329D01*
X143474520Y-66232150D01*
X143487132Y-66211107D01*
X143501747Y-66191401D01*
X143518223Y-66173223D01*
X143536401Y-66156747D01*
X143556107Y-66142132D01*
X143577150Y-66129520D01*
X143599329Y-66119030D01*
X143622428Y-66110765D01*
X143646227Y-66104804D01*
X143670495Y-66101204D01*
X143694999Y-66100000D01*
X144595001Y-66100000D01*
X144619505Y-66101204D01*
X144619505Y-66101204D01*
G37*
D11*
X144145000Y-66675000D03*
D10*
G36*
X144619505Y-64051204D02*
X144643773Y-64054804D01*
X144667572Y-64060765D01*
X144690671Y-64069030D01*
X144712850Y-64079520D01*
X144733893Y-64092132D01*
X144753599Y-64106747D01*
X144771777Y-64123223D01*
X144788253Y-64141401D01*
X144802868Y-64161107D01*
X144815480Y-64182150D01*
X144825970Y-64204329D01*
X144834235Y-64227428D01*
X144840196Y-64251227D01*
X144843796Y-64275495D01*
X144845000Y-64299999D01*
X144845000Y-64950001D01*
X144843796Y-64974505D01*
X144840196Y-64998773D01*
X144834235Y-65022572D01*
X144825970Y-65045671D01*
X144815480Y-65067850D01*
X144802868Y-65088893D01*
X144788253Y-65108599D01*
X144771777Y-65126777D01*
X144753599Y-65143253D01*
X144733893Y-65157868D01*
X144712850Y-65170480D01*
X144690671Y-65180970D01*
X144667572Y-65189235D01*
X144643773Y-65195196D01*
X144619505Y-65198796D01*
X144595001Y-65200000D01*
X143694999Y-65200000D01*
X143670495Y-65198796D01*
X143646227Y-65195196D01*
X143622428Y-65189235D01*
X143599329Y-65180970D01*
X143577150Y-65170480D01*
X143556107Y-65157868D01*
X143536401Y-65143253D01*
X143518223Y-65126777D01*
X143501747Y-65108599D01*
X143487132Y-65088893D01*
X143474520Y-65067850D01*
X143464030Y-65045671D01*
X143455765Y-65022572D01*
X143449804Y-64998773D01*
X143446204Y-64974505D01*
X143445000Y-64950001D01*
X143445000Y-64299999D01*
X143446204Y-64275495D01*
X143449804Y-64251227D01*
X143455765Y-64227428D01*
X143464030Y-64204329D01*
X143474520Y-64182150D01*
X143487132Y-64161107D01*
X143501747Y-64141401D01*
X143518223Y-64123223D01*
X143536401Y-64106747D01*
X143556107Y-64092132D01*
X143577150Y-64079520D01*
X143599329Y-64069030D01*
X143622428Y-64060765D01*
X143646227Y-64054804D01*
X143670495Y-64051204D01*
X143694999Y-64050000D01*
X144595001Y-64050000D01*
X144619505Y-64051204D01*
X144619505Y-64051204D01*
G37*
D11*
X144145000Y-64625000D03*
D10*
G36*
X153509505Y-65956204D02*
X153533773Y-65959804D01*
X153557572Y-65965765D01*
X153580671Y-65974030D01*
X153602850Y-65984520D01*
X153623893Y-65997132D01*
X153643599Y-66011747D01*
X153661777Y-66028223D01*
X153678253Y-66046401D01*
X153692868Y-66066107D01*
X153705480Y-66087150D01*
X153715970Y-66109329D01*
X153724235Y-66132428D01*
X153730196Y-66156227D01*
X153733796Y-66180495D01*
X153735000Y-66204999D01*
X153735000Y-66855001D01*
X153733796Y-66879505D01*
X153730196Y-66903773D01*
X153724235Y-66927572D01*
X153715970Y-66950671D01*
X153705480Y-66972850D01*
X153692868Y-66993893D01*
X153678253Y-67013599D01*
X153661777Y-67031777D01*
X153643599Y-67048253D01*
X153623893Y-67062868D01*
X153602850Y-67075480D01*
X153580671Y-67085970D01*
X153557572Y-67094235D01*
X153533773Y-67100196D01*
X153509505Y-67103796D01*
X153485001Y-67105000D01*
X152584999Y-67105000D01*
X152560495Y-67103796D01*
X152536227Y-67100196D01*
X152512428Y-67094235D01*
X152489329Y-67085970D01*
X152467150Y-67075480D01*
X152446107Y-67062868D01*
X152426401Y-67048253D01*
X152408223Y-67031777D01*
X152391747Y-67013599D01*
X152377132Y-66993893D01*
X152364520Y-66972850D01*
X152354030Y-66950671D01*
X152345765Y-66927572D01*
X152339804Y-66903773D01*
X152336204Y-66879505D01*
X152335000Y-66855001D01*
X152335000Y-66204999D01*
X152336204Y-66180495D01*
X152339804Y-66156227D01*
X152345765Y-66132428D01*
X152354030Y-66109329D01*
X152364520Y-66087150D01*
X152377132Y-66066107D01*
X152391747Y-66046401D01*
X152408223Y-66028223D01*
X152426401Y-66011747D01*
X152446107Y-65997132D01*
X152467150Y-65984520D01*
X152489329Y-65974030D01*
X152512428Y-65965765D01*
X152536227Y-65959804D01*
X152560495Y-65956204D01*
X152584999Y-65955000D01*
X153485001Y-65955000D01*
X153509505Y-65956204D01*
X153509505Y-65956204D01*
G37*
D11*
X153035000Y-66530000D03*
D10*
G36*
X153509505Y-68006204D02*
X153533773Y-68009804D01*
X153557572Y-68015765D01*
X153580671Y-68024030D01*
X153602850Y-68034520D01*
X153623893Y-68047132D01*
X153643599Y-68061747D01*
X153661777Y-68078223D01*
X153678253Y-68096401D01*
X153692868Y-68116107D01*
X153705480Y-68137150D01*
X153715970Y-68159329D01*
X153724235Y-68182428D01*
X153730196Y-68206227D01*
X153733796Y-68230495D01*
X153735000Y-68254999D01*
X153735000Y-68905001D01*
X153733796Y-68929505D01*
X153730196Y-68953773D01*
X153724235Y-68977572D01*
X153715970Y-69000671D01*
X153705480Y-69022850D01*
X153692868Y-69043893D01*
X153678253Y-69063599D01*
X153661777Y-69081777D01*
X153643599Y-69098253D01*
X153623893Y-69112868D01*
X153602850Y-69125480D01*
X153580671Y-69135970D01*
X153557572Y-69144235D01*
X153533773Y-69150196D01*
X153509505Y-69153796D01*
X153485001Y-69155000D01*
X152584999Y-69155000D01*
X152560495Y-69153796D01*
X152536227Y-69150196D01*
X152512428Y-69144235D01*
X152489329Y-69135970D01*
X152467150Y-69125480D01*
X152446107Y-69112868D01*
X152426401Y-69098253D01*
X152408223Y-69081777D01*
X152391747Y-69063599D01*
X152377132Y-69043893D01*
X152364520Y-69022850D01*
X152354030Y-69000671D01*
X152345765Y-68977572D01*
X152339804Y-68953773D01*
X152336204Y-68929505D01*
X152335000Y-68905001D01*
X152335000Y-68254999D01*
X152336204Y-68230495D01*
X152339804Y-68206227D01*
X152345765Y-68182428D01*
X152354030Y-68159329D01*
X152364520Y-68137150D01*
X152377132Y-68116107D01*
X152391747Y-68096401D01*
X152408223Y-68078223D01*
X152426401Y-68061747D01*
X152446107Y-68047132D01*
X152467150Y-68034520D01*
X152489329Y-68024030D01*
X152512428Y-68015765D01*
X152536227Y-68009804D01*
X152560495Y-68006204D01*
X152584999Y-68005000D01*
X153485001Y-68005000D01*
X153509505Y-68006204D01*
X153509505Y-68006204D01*
G37*
D11*
X153035000Y-68580000D03*
D12*
X144780000Y-68834000D03*
X144780000Y-71124000D03*
X149860000Y-71120000D03*
X149860000Y-68830000D03*
M02*
