G04 #@! TF.GenerationSoftware,KiCad,Pcbnew,5.0.1*
G04 #@! TF.CreationDate,2019-02-04T15:42:07-06:00*
G04 #@! TF.ProjectId,PowerRDP,506F7765725244502E6B696361645F70,2*
G04 #@! TF.SameCoordinates,Original*
G04 #@! TF.FileFunction,Paste,Bot*
G04 #@! TF.FilePolarity,Positive*
%FSLAX46Y46*%
G04 Gerber Fmt 4.6, Leading zero omitted, Abs format (unit mm)*
G04 Created by KiCad (PCBNEW 5.0.1) date Mon 04 Feb 2019 03:42:07 PM CST*
%MOMM*%
%LPD*%
G01*
G04 APERTURE LIST*
%ADD10C,0.100000*%
%ADD11C,1.150000*%
%ADD12R,1.520000X3.050000*%
%ADD13R,3.050000X1.520000*%
%ADD14R,0.650000X2.000000*%
%ADD15R,1.550000X0.600000*%
%ADD16R,5.400000X2.900000*%
G04 APERTURE END LIST*
D10*
G04 #@! TO.C,C1*
G36*
X127839505Y-81597204D02*
X127863773Y-81600804D01*
X127887572Y-81606765D01*
X127910671Y-81615030D01*
X127932850Y-81625520D01*
X127953893Y-81638132D01*
X127973599Y-81652747D01*
X127991777Y-81669223D01*
X128008253Y-81687401D01*
X128022868Y-81707107D01*
X128035480Y-81728150D01*
X128045970Y-81750329D01*
X128054235Y-81773428D01*
X128060196Y-81797227D01*
X128063796Y-81821495D01*
X128065000Y-81845999D01*
X128065000Y-82746001D01*
X128063796Y-82770505D01*
X128060196Y-82794773D01*
X128054235Y-82818572D01*
X128045970Y-82841671D01*
X128035480Y-82863850D01*
X128022868Y-82884893D01*
X128008253Y-82904599D01*
X127991777Y-82922777D01*
X127973599Y-82939253D01*
X127953893Y-82953868D01*
X127932850Y-82966480D01*
X127910671Y-82976970D01*
X127887572Y-82985235D01*
X127863773Y-82991196D01*
X127839505Y-82994796D01*
X127815001Y-82996000D01*
X127164999Y-82996000D01*
X127140495Y-82994796D01*
X127116227Y-82991196D01*
X127092428Y-82985235D01*
X127069329Y-82976970D01*
X127047150Y-82966480D01*
X127026107Y-82953868D01*
X127006401Y-82939253D01*
X126988223Y-82922777D01*
X126971747Y-82904599D01*
X126957132Y-82884893D01*
X126944520Y-82863850D01*
X126934030Y-82841671D01*
X126925765Y-82818572D01*
X126919804Y-82794773D01*
X126916204Y-82770505D01*
X126915000Y-82746001D01*
X126915000Y-81845999D01*
X126916204Y-81821495D01*
X126919804Y-81797227D01*
X126925765Y-81773428D01*
X126934030Y-81750329D01*
X126944520Y-81728150D01*
X126957132Y-81707107D01*
X126971747Y-81687401D01*
X126988223Y-81669223D01*
X127006401Y-81652747D01*
X127026107Y-81638132D01*
X127047150Y-81625520D01*
X127069329Y-81615030D01*
X127092428Y-81606765D01*
X127116227Y-81600804D01*
X127140495Y-81597204D01*
X127164999Y-81596000D01*
X127815001Y-81596000D01*
X127839505Y-81597204D01*
X127839505Y-81597204D01*
G37*
D11*
X127490000Y-82296000D03*
D10*
G36*
X129889505Y-81597204D02*
X129913773Y-81600804D01*
X129937572Y-81606765D01*
X129960671Y-81615030D01*
X129982850Y-81625520D01*
X130003893Y-81638132D01*
X130023599Y-81652747D01*
X130041777Y-81669223D01*
X130058253Y-81687401D01*
X130072868Y-81707107D01*
X130085480Y-81728150D01*
X130095970Y-81750329D01*
X130104235Y-81773428D01*
X130110196Y-81797227D01*
X130113796Y-81821495D01*
X130115000Y-81845999D01*
X130115000Y-82746001D01*
X130113796Y-82770505D01*
X130110196Y-82794773D01*
X130104235Y-82818572D01*
X130095970Y-82841671D01*
X130085480Y-82863850D01*
X130072868Y-82884893D01*
X130058253Y-82904599D01*
X130041777Y-82922777D01*
X130023599Y-82939253D01*
X130003893Y-82953868D01*
X129982850Y-82966480D01*
X129960671Y-82976970D01*
X129937572Y-82985235D01*
X129913773Y-82991196D01*
X129889505Y-82994796D01*
X129865001Y-82996000D01*
X129214999Y-82996000D01*
X129190495Y-82994796D01*
X129166227Y-82991196D01*
X129142428Y-82985235D01*
X129119329Y-82976970D01*
X129097150Y-82966480D01*
X129076107Y-82953868D01*
X129056401Y-82939253D01*
X129038223Y-82922777D01*
X129021747Y-82904599D01*
X129007132Y-82884893D01*
X128994520Y-82863850D01*
X128984030Y-82841671D01*
X128975765Y-82818572D01*
X128969804Y-82794773D01*
X128966204Y-82770505D01*
X128965000Y-82746001D01*
X128965000Y-81845999D01*
X128966204Y-81821495D01*
X128969804Y-81797227D01*
X128975765Y-81773428D01*
X128984030Y-81750329D01*
X128994520Y-81728150D01*
X129007132Y-81707107D01*
X129021747Y-81687401D01*
X129038223Y-81669223D01*
X129056401Y-81652747D01*
X129076107Y-81638132D01*
X129097150Y-81625520D01*
X129119329Y-81615030D01*
X129142428Y-81606765D01*
X129166227Y-81600804D01*
X129190495Y-81597204D01*
X129214999Y-81596000D01*
X129865001Y-81596000D01*
X129889505Y-81597204D01*
X129889505Y-81597204D01*
G37*
D11*
X129540000Y-82296000D03*
G04 #@! TD*
D10*
G04 #@! TO.C,C2*
G36*
X122394505Y-89351204D02*
X122418773Y-89354804D01*
X122442572Y-89360765D01*
X122465671Y-89369030D01*
X122487850Y-89379520D01*
X122508893Y-89392132D01*
X122528599Y-89406747D01*
X122546777Y-89423223D01*
X122563253Y-89441401D01*
X122577868Y-89461107D01*
X122590480Y-89482150D01*
X122600970Y-89504329D01*
X122609235Y-89527428D01*
X122615196Y-89551227D01*
X122618796Y-89575495D01*
X122620000Y-89599999D01*
X122620000Y-90250001D01*
X122618796Y-90274505D01*
X122615196Y-90298773D01*
X122609235Y-90322572D01*
X122600970Y-90345671D01*
X122590480Y-90367850D01*
X122577868Y-90388893D01*
X122563253Y-90408599D01*
X122546777Y-90426777D01*
X122528599Y-90443253D01*
X122508893Y-90457868D01*
X122487850Y-90470480D01*
X122465671Y-90480970D01*
X122442572Y-90489235D01*
X122418773Y-90495196D01*
X122394505Y-90498796D01*
X122370001Y-90500000D01*
X121469999Y-90500000D01*
X121445495Y-90498796D01*
X121421227Y-90495196D01*
X121397428Y-90489235D01*
X121374329Y-90480970D01*
X121352150Y-90470480D01*
X121331107Y-90457868D01*
X121311401Y-90443253D01*
X121293223Y-90426777D01*
X121276747Y-90408599D01*
X121262132Y-90388893D01*
X121249520Y-90367850D01*
X121239030Y-90345671D01*
X121230765Y-90322572D01*
X121224804Y-90298773D01*
X121221204Y-90274505D01*
X121220000Y-90250001D01*
X121220000Y-89599999D01*
X121221204Y-89575495D01*
X121224804Y-89551227D01*
X121230765Y-89527428D01*
X121239030Y-89504329D01*
X121249520Y-89482150D01*
X121262132Y-89461107D01*
X121276747Y-89441401D01*
X121293223Y-89423223D01*
X121311401Y-89406747D01*
X121331107Y-89392132D01*
X121352150Y-89379520D01*
X121374329Y-89369030D01*
X121397428Y-89360765D01*
X121421227Y-89354804D01*
X121445495Y-89351204D01*
X121469999Y-89350000D01*
X122370001Y-89350000D01*
X122394505Y-89351204D01*
X122394505Y-89351204D01*
G37*
D11*
X121920000Y-89925000D03*
D10*
G36*
X122394505Y-87301204D02*
X122418773Y-87304804D01*
X122442572Y-87310765D01*
X122465671Y-87319030D01*
X122487850Y-87329520D01*
X122508893Y-87342132D01*
X122528599Y-87356747D01*
X122546777Y-87373223D01*
X122563253Y-87391401D01*
X122577868Y-87411107D01*
X122590480Y-87432150D01*
X122600970Y-87454329D01*
X122609235Y-87477428D01*
X122615196Y-87501227D01*
X122618796Y-87525495D01*
X122620000Y-87549999D01*
X122620000Y-88200001D01*
X122618796Y-88224505D01*
X122615196Y-88248773D01*
X122609235Y-88272572D01*
X122600970Y-88295671D01*
X122590480Y-88317850D01*
X122577868Y-88338893D01*
X122563253Y-88358599D01*
X122546777Y-88376777D01*
X122528599Y-88393253D01*
X122508893Y-88407868D01*
X122487850Y-88420480D01*
X122465671Y-88430970D01*
X122442572Y-88439235D01*
X122418773Y-88445196D01*
X122394505Y-88448796D01*
X122370001Y-88450000D01*
X121469999Y-88450000D01*
X121445495Y-88448796D01*
X121421227Y-88445196D01*
X121397428Y-88439235D01*
X121374329Y-88430970D01*
X121352150Y-88420480D01*
X121331107Y-88407868D01*
X121311401Y-88393253D01*
X121293223Y-88376777D01*
X121276747Y-88358599D01*
X121262132Y-88338893D01*
X121249520Y-88317850D01*
X121239030Y-88295671D01*
X121230765Y-88272572D01*
X121224804Y-88248773D01*
X121221204Y-88224505D01*
X121220000Y-88200001D01*
X121220000Y-87549999D01*
X121221204Y-87525495D01*
X121224804Y-87501227D01*
X121230765Y-87477428D01*
X121239030Y-87454329D01*
X121249520Y-87432150D01*
X121262132Y-87411107D01*
X121276747Y-87391401D01*
X121293223Y-87373223D01*
X121311401Y-87356747D01*
X121331107Y-87342132D01*
X121352150Y-87329520D01*
X121374329Y-87319030D01*
X121397428Y-87310765D01*
X121421227Y-87304804D01*
X121445495Y-87301204D01*
X121469999Y-87300000D01*
X122370001Y-87300000D01*
X122394505Y-87301204D01*
X122394505Y-87301204D01*
G37*
D11*
X121920000Y-87875000D03*
G04 #@! TD*
D10*
G04 #@! TO.C,C9*
G36*
X122768505Y-78549204D02*
X122792773Y-78552804D01*
X122816572Y-78558765D01*
X122839671Y-78567030D01*
X122861850Y-78577520D01*
X122882893Y-78590132D01*
X122902599Y-78604747D01*
X122920777Y-78621223D01*
X122937253Y-78639401D01*
X122951868Y-78659107D01*
X122964480Y-78680150D01*
X122974970Y-78702329D01*
X122983235Y-78725428D01*
X122989196Y-78749227D01*
X122992796Y-78773495D01*
X122994000Y-78797999D01*
X122994000Y-79698001D01*
X122992796Y-79722505D01*
X122989196Y-79746773D01*
X122983235Y-79770572D01*
X122974970Y-79793671D01*
X122964480Y-79815850D01*
X122951868Y-79836893D01*
X122937253Y-79856599D01*
X122920777Y-79874777D01*
X122902599Y-79891253D01*
X122882893Y-79905868D01*
X122861850Y-79918480D01*
X122839671Y-79928970D01*
X122816572Y-79937235D01*
X122792773Y-79943196D01*
X122768505Y-79946796D01*
X122744001Y-79948000D01*
X122093999Y-79948000D01*
X122069495Y-79946796D01*
X122045227Y-79943196D01*
X122021428Y-79937235D01*
X121998329Y-79928970D01*
X121976150Y-79918480D01*
X121955107Y-79905868D01*
X121935401Y-79891253D01*
X121917223Y-79874777D01*
X121900747Y-79856599D01*
X121886132Y-79836893D01*
X121873520Y-79815850D01*
X121863030Y-79793671D01*
X121854765Y-79770572D01*
X121848804Y-79746773D01*
X121845204Y-79722505D01*
X121844000Y-79698001D01*
X121844000Y-78797999D01*
X121845204Y-78773495D01*
X121848804Y-78749227D01*
X121854765Y-78725428D01*
X121863030Y-78702329D01*
X121873520Y-78680150D01*
X121886132Y-78659107D01*
X121900747Y-78639401D01*
X121917223Y-78621223D01*
X121935401Y-78604747D01*
X121955107Y-78590132D01*
X121976150Y-78577520D01*
X121998329Y-78567030D01*
X122021428Y-78558765D01*
X122045227Y-78552804D01*
X122069495Y-78549204D01*
X122093999Y-78548000D01*
X122744001Y-78548000D01*
X122768505Y-78549204D01*
X122768505Y-78549204D01*
G37*
D11*
X122419000Y-79248000D03*
D10*
G36*
X124818505Y-78549204D02*
X124842773Y-78552804D01*
X124866572Y-78558765D01*
X124889671Y-78567030D01*
X124911850Y-78577520D01*
X124932893Y-78590132D01*
X124952599Y-78604747D01*
X124970777Y-78621223D01*
X124987253Y-78639401D01*
X125001868Y-78659107D01*
X125014480Y-78680150D01*
X125024970Y-78702329D01*
X125033235Y-78725428D01*
X125039196Y-78749227D01*
X125042796Y-78773495D01*
X125044000Y-78797999D01*
X125044000Y-79698001D01*
X125042796Y-79722505D01*
X125039196Y-79746773D01*
X125033235Y-79770572D01*
X125024970Y-79793671D01*
X125014480Y-79815850D01*
X125001868Y-79836893D01*
X124987253Y-79856599D01*
X124970777Y-79874777D01*
X124952599Y-79891253D01*
X124932893Y-79905868D01*
X124911850Y-79918480D01*
X124889671Y-79928970D01*
X124866572Y-79937235D01*
X124842773Y-79943196D01*
X124818505Y-79946796D01*
X124794001Y-79948000D01*
X124143999Y-79948000D01*
X124119495Y-79946796D01*
X124095227Y-79943196D01*
X124071428Y-79937235D01*
X124048329Y-79928970D01*
X124026150Y-79918480D01*
X124005107Y-79905868D01*
X123985401Y-79891253D01*
X123967223Y-79874777D01*
X123950747Y-79856599D01*
X123936132Y-79836893D01*
X123923520Y-79815850D01*
X123913030Y-79793671D01*
X123904765Y-79770572D01*
X123898804Y-79746773D01*
X123895204Y-79722505D01*
X123894000Y-79698001D01*
X123894000Y-78797999D01*
X123895204Y-78773495D01*
X123898804Y-78749227D01*
X123904765Y-78725428D01*
X123913030Y-78702329D01*
X123923520Y-78680150D01*
X123936132Y-78659107D01*
X123950747Y-78639401D01*
X123967223Y-78621223D01*
X123985401Y-78604747D01*
X124005107Y-78590132D01*
X124026150Y-78577520D01*
X124048329Y-78567030D01*
X124071428Y-78558765D01*
X124095227Y-78552804D01*
X124119495Y-78549204D01*
X124143999Y-78548000D01*
X124794001Y-78548000D01*
X124818505Y-78549204D01*
X124818505Y-78549204D01*
G37*
D11*
X124469000Y-79248000D03*
G04 #@! TD*
D10*
G04 #@! TO.C,C10*
G36*
X120870505Y-78692204D02*
X120894773Y-78695804D01*
X120918572Y-78701765D01*
X120941671Y-78710030D01*
X120963850Y-78720520D01*
X120984893Y-78733132D01*
X121004599Y-78747747D01*
X121022777Y-78764223D01*
X121039253Y-78782401D01*
X121053868Y-78802107D01*
X121066480Y-78823150D01*
X121076970Y-78845329D01*
X121085235Y-78868428D01*
X121091196Y-78892227D01*
X121094796Y-78916495D01*
X121096000Y-78940999D01*
X121096000Y-79591001D01*
X121094796Y-79615505D01*
X121091196Y-79639773D01*
X121085235Y-79663572D01*
X121076970Y-79686671D01*
X121066480Y-79708850D01*
X121053868Y-79729893D01*
X121039253Y-79749599D01*
X121022777Y-79767777D01*
X121004599Y-79784253D01*
X120984893Y-79798868D01*
X120963850Y-79811480D01*
X120941671Y-79821970D01*
X120918572Y-79830235D01*
X120894773Y-79836196D01*
X120870505Y-79839796D01*
X120846001Y-79841000D01*
X119945999Y-79841000D01*
X119921495Y-79839796D01*
X119897227Y-79836196D01*
X119873428Y-79830235D01*
X119850329Y-79821970D01*
X119828150Y-79811480D01*
X119807107Y-79798868D01*
X119787401Y-79784253D01*
X119769223Y-79767777D01*
X119752747Y-79749599D01*
X119738132Y-79729893D01*
X119725520Y-79708850D01*
X119715030Y-79686671D01*
X119706765Y-79663572D01*
X119700804Y-79639773D01*
X119697204Y-79615505D01*
X119696000Y-79591001D01*
X119696000Y-78940999D01*
X119697204Y-78916495D01*
X119700804Y-78892227D01*
X119706765Y-78868428D01*
X119715030Y-78845329D01*
X119725520Y-78823150D01*
X119738132Y-78802107D01*
X119752747Y-78782401D01*
X119769223Y-78764223D01*
X119787401Y-78747747D01*
X119807107Y-78733132D01*
X119828150Y-78720520D01*
X119850329Y-78710030D01*
X119873428Y-78701765D01*
X119897227Y-78695804D01*
X119921495Y-78692204D01*
X119945999Y-78691000D01*
X120846001Y-78691000D01*
X120870505Y-78692204D01*
X120870505Y-78692204D01*
G37*
D11*
X120396000Y-79266000D03*
D10*
G36*
X120870505Y-76642204D02*
X120894773Y-76645804D01*
X120918572Y-76651765D01*
X120941671Y-76660030D01*
X120963850Y-76670520D01*
X120984893Y-76683132D01*
X121004599Y-76697747D01*
X121022777Y-76714223D01*
X121039253Y-76732401D01*
X121053868Y-76752107D01*
X121066480Y-76773150D01*
X121076970Y-76795329D01*
X121085235Y-76818428D01*
X121091196Y-76842227D01*
X121094796Y-76866495D01*
X121096000Y-76890999D01*
X121096000Y-77541001D01*
X121094796Y-77565505D01*
X121091196Y-77589773D01*
X121085235Y-77613572D01*
X121076970Y-77636671D01*
X121066480Y-77658850D01*
X121053868Y-77679893D01*
X121039253Y-77699599D01*
X121022777Y-77717777D01*
X121004599Y-77734253D01*
X120984893Y-77748868D01*
X120963850Y-77761480D01*
X120941671Y-77771970D01*
X120918572Y-77780235D01*
X120894773Y-77786196D01*
X120870505Y-77789796D01*
X120846001Y-77791000D01*
X119945999Y-77791000D01*
X119921495Y-77789796D01*
X119897227Y-77786196D01*
X119873428Y-77780235D01*
X119850329Y-77771970D01*
X119828150Y-77761480D01*
X119807107Y-77748868D01*
X119787401Y-77734253D01*
X119769223Y-77717777D01*
X119752747Y-77699599D01*
X119738132Y-77679893D01*
X119725520Y-77658850D01*
X119715030Y-77636671D01*
X119706765Y-77613572D01*
X119700804Y-77589773D01*
X119697204Y-77565505D01*
X119696000Y-77541001D01*
X119696000Y-76890999D01*
X119697204Y-76866495D01*
X119700804Y-76842227D01*
X119706765Y-76818428D01*
X119715030Y-76795329D01*
X119725520Y-76773150D01*
X119738132Y-76752107D01*
X119752747Y-76732401D01*
X119769223Y-76714223D01*
X119787401Y-76697747D01*
X119807107Y-76683132D01*
X119828150Y-76670520D01*
X119850329Y-76660030D01*
X119873428Y-76651765D01*
X119897227Y-76645804D01*
X119921495Y-76642204D01*
X119945999Y-76641000D01*
X120846001Y-76641000D01*
X120870505Y-76642204D01*
X120870505Y-76642204D01*
G37*
D11*
X120396000Y-77216000D03*
G04 #@! TD*
D12*
G04 #@! TO.C,L1*
X125605000Y-82296000D03*
X123315000Y-82296000D03*
G04 #@! TD*
D13*
G04 #@! TO.C,L2*
X117856000Y-87626000D03*
X117856000Y-89916000D03*
G04 #@! TD*
D14*
G04 #@! TO.C,Q1*
X136022000Y-74930000D03*
X137922000Y-74930000D03*
X136972000Y-78350000D03*
G04 #@! TD*
D10*
G04 #@! TO.C,R1*
G36*
X123971953Y-74674523D02*
X123996221Y-74678123D01*
X124020020Y-74684084D01*
X124043119Y-74692349D01*
X124065298Y-74702839D01*
X124086341Y-74715451D01*
X124106047Y-74730066D01*
X124124225Y-74746542D01*
X124140701Y-74764720D01*
X124155316Y-74784426D01*
X124167928Y-74805469D01*
X124178418Y-74827648D01*
X124186683Y-74850747D01*
X124192644Y-74874546D01*
X124196244Y-74898814D01*
X124197448Y-74923318D01*
X124197448Y-75573320D01*
X124196244Y-75597824D01*
X124192644Y-75622092D01*
X124186683Y-75645891D01*
X124178418Y-75668990D01*
X124167928Y-75691169D01*
X124155316Y-75712212D01*
X124140701Y-75731918D01*
X124124225Y-75750096D01*
X124106047Y-75766572D01*
X124086341Y-75781187D01*
X124065298Y-75793799D01*
X124043119Y-75804289D01*
X124020020Y-75812554D01*
X123996221Y-75818515D01*
X123971953Y-75822115D01*
X123947449Y-75823319D01*
X123047447Y-75823319D01*
X123022943Y-75822115D01*
X122998675Y-75818515D01*
X122974876Y-75812554D01*
X122951777Y-75804289D01*
X122929598Y-75793799D01*
X122908555Y-75781187D01*
X122888849Y-75766572D01*
X122870671Y-75750096D01*
X122854195Y-75731918D01*
X122839580Y-75712212D01*
X122826968Y-75691169D01*
X122816478Y-75668990D01*
X122808213Y-75645891D01*
X122802252Y-75622092D01*
X122798652Y-75597824D01*
X122797448Y-75573320D01*
X122797448Y-74923318D01*
X122798652Y-74898814D01*
X122802252Y-74874546D01*
X122808213Y-74850747D01*
X122816478Y-74827648D01*
X122826968Y-74805469D01*
X122839580Y-74784426D01*
X122854195Y-74764720D01*
X122870671Y-74746542D01*
X122888849Y-74730066D01*
X122908555Y-74715451D01*
X122929598Y-74702839D01*
X122951777Y-74692349D01*
X122974876Y-74684084D01*
X122998675Y-74678123D01*
X123022943Y-74674523D01*
X123047447Y-74673319D01*
X123947449Y-74673319D01*
X123971953Y-74674523D01*
X123971953Y-74674523D01*
G37*
D11*
X123497448Y-75248319D03*
D10*
G36*
X123971953Y-76724523D02*
X123996221Y-76728123D01*
X124020020Y-76734084D01*
X124043119Y-76742349D01*
X124065298Y-76752839D01*
X124086341Y-76765451D01*
X124106047Y-76780066D01*
X124124225Y-76796542D01*
X124140701Y-76814720D01*
X124155316Y-76834426D01*
X124167928Y-76855469D01*
X124178418Y-76877648D01*
X124186683Y-76900747D01*
X124192644Y-76924546D01*
X124196244Y-76948814D01*
X124197448Y-76973318D01*
X124197448Y-77623320D01*
X124196244Y-77647824D01*
X124192644Y-77672092D01*
X124186683Y-77695891D01*
X124178418Y-77718990D01*
X124167928Y-77741169D01*
X124155316Y-77762212D01*
X124140701Y-77781918D01*
X124124225Y-77800096D01*
X124106047Y-77816572D01*
X124086341Y-77831187D01*
X124065298Y-77843799D01*
X124043119Y-77854289D01*
X124020020Y-77862554D01*
X123996221Y-77868515D01*
X123971953Y-77872115D01*
X123947449Y-77873319D01*
X123047447Y-77873319D01*
X123022943Y-77872115D01*
X122998675Y-77868515D01*
X122974876Y-77862554D01*
X122951777Y-77854289D01*
X122929598Y-77843799D01*
X122908555Y-77831187D01*
X122888849Y-77816572D01*
X122870671Y-77800096D01*
X122854195Y-77781918D01*
X122839580Y-77762212D01*
X122826968Y-77741169D01*
X122816478Y-77718990D01*
X122808213Y-77695891D01*
X122802252Y-77672092D01*
X122798652Y-77647824D01*
X122797448Y-77623320D01*
X122797448Y-76973318D01*
X122798652Y-76948814D01*
X122802252Y-76924546D01*
X122808213Y-76900747D01*
X122816478Y-76877648D01*
X122826968Y-76855469D01*
X122839580Y-76834426D01*
X122854195Y-76814720D01*
X122870671Y-76796542D01*
X122888849Y-76780066D01*
X122908555Y-76765451D01*
X122929598Y-76752839D01*
X122951777Y-76742349D01*
X122974876Y-76734084D01*
X122998675Y-76728123D01*
X123022943Y-76724523D01*
X123047447Y-76723319D01*
X123947449Y-76723319D01*
X123971953Y-76724523D01*
X123971953Y-76724523D01*
G37*
D11*
X123497448Y-77298319D03*
G04 #@! TD*
D10*
G04 #@! TO.C,R2*
G36*
X120798953Y-74567523D02*
X120823221Y-74571123D01*
X120847020Y-74577084D01*
X120870119Y-74585349D01*
X120892298Y-74595839D01*
X120913341Y-74608451D01*
X120933047Y-74623066D01*
X120951225Y-74639542D01*
X120967701Y-74657720D01*
X120982316Y-74677426D01*
X120994928Y-74698469D01*
X121005418Y-74720648D01*
X121013683Y-74743747D01*
X121019644Y-74767546D01*
X121023244Y-74791814D01*
X121024448Y-74816318D01*
X121024448Y-75716320D01*
X121023244Y-75740824D01*
X121019644Y-75765092D01*
X121013683Y-75788891D01*
X121005418Y-75811990D01*
X120994928Y-75834169D01*
X120982316Y-75855212D01*
X120967701Y-75874918D01*
X120951225Y-75893096D01*
X120933047Y-75909572D01*
X120913341Y-75924187D01*
X120892298Y-75936799D01*
X120870119Y-75947289D01*
X120847020Y-75955554D01*
X120823221Y-75961515D01*
X120798953Y-75965115D01*
X120774449Y-75966319D01*
X120124447Y-75966319D01*
X120099943Y-75965115D01*
X120075675Y-75961515D01*
X120051876Y-75955554D01*
X120028777Y-75947289D01*
X120006598Y-75936799D01*
X119985555Y-75924187D01*
X119965849Y-75909572D01*
X119947671Y-75893096D01*
X119931195Y-75874918D01*
X119916580Y-75855212D01*
X119903968Y-75834169D01*
X119893478Y-75811990D01*
X119885213Y-75788891D01*
X119879252Y-75765092D01*
X119875652Y-75740824D01*
X119874448Y-75716320D01*
X119874448Y-74816318D01*
X119875652Y-74791814D01*
X119879252Y-74767546D01*
X119885213Y-74743747D01*
X119893478Y-74720648D01*
X119903968Y-74698469D01*
X119916580Y-74677426D01*
X119931195Y-74657720D01*
X119947671Y-74639542D01*
X119965849Y-74623066D01*
X119985555Y-74608451D01*
X120006598Y-74595839D01*
X120028777Y-74585349D01*
X120051876Y-74577084D01*
X120075675Y-74571123D01*
X120099943Y-74567523D01*
X120124447Y-74566319D01*
X120774449Y-74566319D01*
X120798953Y-74567523D01*
X120798953Y-74567523D01*
G37*
D11*
X120449448Y-75266319D03*
D10*
G36*
X118748953Y-74567523D02*
X118773221Y-74571123D01*
X118797020Y-74577084D01*
X118820119Y-74585349D01*
X118842298Y-74595839D01*
X118863341Y-74608451D01*
X118883047Y-74623066D01*
X118901225Y-74639542D01*
X118917701Y-74657720D01*
X118932316Y-74677426D01*
X118944928Y-74698469D01*
X118955418Y-74720648D01*
X118963683Y-74743747D01*
X118969644Y-74767546D01*
X118973244Y-74791814D01*
X118974448Y-74816318D01*
X118974448Y-75716320D01*
X118973244Y-75740824D01*
X118969644Y-75765092D01*
X118963683Y-75788891D01*
X118955418Y-75811990D01*
X118944928Y-75834169D01*
X118932316Y-75855212D01*
X118917701Y-75874918D01*
X118901225Y-75893096D01*
X118883047Y-75909572D01*
X118863341Y-75924187D01*
X118842298Y-75936799D01*
X118820119Y-75947289D01*
X118797020Y-75955554D01*
X118773221Y-75961515D01*
X118748953Y-75965115D01*
X118724449Y-75966319D01*
X118074447Y-75966319D01*
X118049943Y-75965115D01*
X118025675Y-75961515D01*
X118001876Y-75955554D01*
X117978777Y-75947289D01*
X117956598Y-75936799D01*
X117935555Y-75924187D01*
X117915849Y-75909572D01*
X117897671Y-75893096D01*
X117881195Y-75874918D01*
X117866580Y-75855212D01*
X117853968Y-75834169D01*
X117843478Y-75811990D01*
X117835213Y-75788891D01*
X117829252Y-75765092D01*
X117825652Y-75740824D01*
X117824448Y-75716320D01*
X117824448Y-74816318D01*
X117825652Y-74791814D01*
X117829252Y-74767546D01*
X117835213Y-74743747D01*
X117843478Y-74720648D01*
X117853968Y-74698469D01*
X117866580Y-74677426D01*
X117881195Y-74657720D01*
X117897671Y-74639542D01*
X117915849Y-74623066D01*
X117935555Y-74608451D01*
X117956598Y-74595839D01*
X117978777Y-74585349D01*
X118001876Y-74577084D01*
X118025675Y-74571123D01*
X118049943Y-74567523D01*
X118074447Y-74566319D01*
X118724449Y-74566319D01*
X118748953Y-74567523D01*
X118748953Y-74567523D01*
G37*
D11*
X118399448Y-75266319D03*
G04 #@! TD*
D15*
G04 #@! TO.C,U5*
X132133448Y-74250319D03*
X132133448Y-75520319D03*
X132133448Y-76790319D03*
X132133448Y-78060319D03*
X126733448Y-78060319D03*
X126733448Y-76790319D03*
X126733448Y-75520319D03*
X126733448Y-74250319D03*
G04 #@! TD*
D16*
G04 #@! TO.C,L3*
X108966000Y-60960000D03*
X108966000Y-70660000D03*
G04 #@! TD*
G04 #@! TO.C,L4*
X122174000Y-70660000D03*
X122174000Y-60960000D03*
G04 #@! TD*
G04 #@! TO.C,L5*
X135382000Y-60960000D03*
X135382000Y-70660000D03*
G04 #@! TD*
M02*
