%TF.GenerationSoftware,KiCad,Pcbnew,5.0.1*%
%TF.CreationDate,2019-02-02T13:29:00-06:00*%
%TF.ProjectId,PowerRDP,506F7765725244502E6B696361645F70,01*%
%TF.SameCoordinates,Original*%
%TF.FileFunction,Paste,Top*%
%TF.FilePolarity,Positive*%
%FSLAX46Y46*%
G04 Gerber Fmt 4.6, Leading zero omitted, Abs format (unit mm)*
G04 Created by KiCad (PCBNEW 5.0.1) date Sat 02 Feb 2019 01:29:00 PM CST*
%MOMM*%
%LPD*%
G01*
G04 APERTURE LIST*
%ADD10R,2.000000X1.500000*%
%ADD11R,2.000000X3.800000*%
%ADD12C,0.100000*%
%ADD13C,1.150000*%
%ADD14R,1.600000X1.300000*%
%ADD15R,1.600000X2.000000*%
G04 APERTURE END LIST*
D10*
X139090000Y-51040000D03*
X139090000Y-55640000D03*
X139090000Y-53340000D03*
D11*
X145390000Y-53340000D03*
D12*
G36*
X136221505Y-58728204D02*
X136245773Y-58731804D01*
X136269572Y-58737765D01*
X136292671Y-58746030D01*
X136314850Y-58756520D01*
X136335893Y-58769132D01*
X136355599Y-58783747D01*
X136373777Y-58800223D01*
X136390253Y-58818401D01*
X136404868Y-58838107D01*
X136417480Y-58859150D01*
X136427970Y-58881329D01*
X136436235Y-58904428D01*
X136442196Y-58928227D01*
X136445796Y-58952495D01*
X136447000Y-58976999D01*
X136447000Y-59877001D01*
X136445796Y-59901505D01*
X136442196Y-59925773D01*
X136436235Y-59949572D01*
X136427970Y-59972671D01*
X136417480Y-59994850D01*
X136404868Y-60015893D01*
X136390253Y-60035599D01*
X136373777Y-60053777D01*
X136355599Y-60070253D01*
X136335893Y-60084868D01*
X136314850Y-60097480D01*
X136292671Y-60107970D01*
X136269572Y-60116235D01*
X136245773Y-60122196D01*
X136221505Y-60125796D01*
X136197001Y-60127000D01*
X135546999Y-60127000D01*
X135522495Y-60125796D01*
X135498227Y-60122196D01*
X135474428Y-60116235D01*
X135451329Y-60107970D01*
X135429150Y-60097480D01*
X135408107Y-60084868D01*
X135388401Y-60070253D01*
X135370223Y-60053777D01*
X135353747Y-60035599D01*
X135339132Y-60015893D01*
X135326520Y-59994850D01*
X135316030Y-59972671D01*
X135307765Y-59949572D01*
X135301804Y-59925773D01*
X135298204Y-59901505D01*
X135297000Y-59877001D01*
X135297000Y-58976999D01*
X135298204Y-58952495D01*
X135301804Y-58928227D01*
X135307765Y-58904428D01*
X135316030Y-58881329D01*
X135326520Y-58859150D01*
X135339132Y-58838107D01*
X135353747Y-58818401D01*
X135370223Y-58800223D01*
X135388401Y-58783747D01*
X135408107Y-58769132D01*
X135429150Y-58756520D01*
X135451329Y-58746030D01*
X135474428Y-58737765D01*
X135498227Y-58731804D01*
X135522495Y-58728204D01*
X135546999Y-58727000D01*
X136197001Y-58727000D01*
X136221505Y-58728204D01*
X136221505Y-58728204D01*
G37*
D13*
X135872000Y-59427000D03*
D12*
G36*
X138271505Y-58728204D02*
X138295773Y-58731804D01*
X138319572Y-58737765D01*
X138342671Y-58746030D01*
X138364850Y-58756520D01*
X138385893Y-58769132D01*
X138405599Y-58783747D01*
X138423777Y-58800223D01*
X138440253Y-58818401D01*
X138454868Y-58838107D01*
X138467480Y-58859150D01*
X138477970Y-58881329D01*
X138486235Y-58904428D01*
X138492196Y-58928227D01*
X138495796Y-58952495D01*
X138497000Y-58976999D01*
X138497000Y-59877001D01*
X138495796Y-59901505D01*
X138492196Y-59925773D01*
X138486235Y-59949572D01*
X138477970Y-59972671D01*
X138467480Y-59994850D01*
X138454868Y-60015893D01*
X138440253Y-60035599D01*
X138423777Y-60053777D01*
X138405599Y-60070253D01*
X138385893Y-60084868D01*
X138364850Y-60097480D01*
X138342671Y-60107970D01*
X138319572Y-60116235D01*
X138295773Y-60122196D01*
X138271505Y-60125796D01*
X138247001Y-60127000D01*
X137596999Y-60127000D01*
X137572495Y-60125796D01*
X137548227Y-60122196D01*
X137524428Y-60116235D01*
X137501329Y-60107970D01*
X137479150Y-60097480D01*
X137458107Y-60084868D01*
X137438401Y-60070253D01*
X137420223Y-60053777D01*
X137403747Y-60035599D01*
X137389132Y-60015893D01*
X137376520Y-59994850D01*
X137366030Y-59972671D01*
X137357765Y-59949572D01*
X137351804Y-59925773D01*
X137348204Y-59901505D01*
X137347000Y-59877001D01*
X137347000Y-58976999D01*
X137348204Y-58952495D01*
X137351804Y-58928227D01*
X137357765Y-58904428D01*
X137366030Y-58881329D01*
X137376520Y-58859150D01*
X137389132Y-58838107D01*
X137403747Y-58818401D01*
X137420223Y-58800223D01*
X137438401Y-58783747D01*
X137458107Y-58769132D01*
X137479150Y-58756520D01*
X137501329Y-58746030D01*
X137524428Y-58737765D01*
X137548227Y-58731804D01*
X137572495Y-58728204D01*
X137596999Y-58727000D01*
X138247001Y-58727000D01*
X138271505Y-58728204D01*
X138271505Y-58728204D01*
G37*
D13*
X137922000Y-59427000D03*
D12*
G36*
X148685505Y-58229204D02*
X148709773Y-58232804D01*
X148733572Y-58238765D01*
X148756671Y-58247030D01*
X148778850Y-58257520D01*
X148799893Y-58270132D01*
X148819599Y-58284747D01*
X148837777Y-58301223D01*
X148854253Y-58319401D01*
X148868868Y-58339107D01*
X148881480Y-58360150D01*
X148891970Y-58382329D01*
X148900235Y-58405428D01*
X148906196Y-58429227D01*
X148909796Y-58453495D01*
X148911000Y-58477999D01*
X148911000Y-59378001D01*
X148909796Y-59402505D01*
X148906196Y-59426773D01*
X148900235Y-59450572D01*
X148891970Y-59473671D01*
X148881480Y-59495850D01*
X148868868Y-59516893D01*
X148854253Y-59536599D01*
X148837777Y-59554777D01*
X148819599Y-59571253D01*
X148799893Y-59585868D01*
X148778850Y-59598480D01*
X148756671Y-59608970D01*
X148733572Y-59617235D01*
X148709773Y-59623196D01*
X148685505Y-59626796D01*
X148661001Y-59628000D01*
X148010999Y-59628000D01*
X147986495Y-59626796D01*
X147962227Y-59623196D01*
X147938428Y-59617235D01*
X147915329Y-59608970D01*
X147893150Y-59598480D01*
X147872107Y-59585868D01*
X147852401Y-59571253D01*
X147834223Y-59554777D01*
X147817747Y-59536599D01*
X147803132Y-59516893D01*
X147790520Y-59495850D01*
X147780030Y-59473671D01*
X147771765Y-59450572D01*
X147765804Y-59426773D01*
X147762204Y-59402505D01*
X147761000Y-59378001D01*
X147761000Y-58477999D01*
X147762204Y-58453495D01*
X147765804Y-58429227D01*
X147771765Y-58405428D01*
X147780030Y-58382329D01*
X147790520Y-58360150D01*
X147803132Y-58339107D01*
X147817747Y-58319401D01*
X147834223Y-58301223D01*
X147852401Y-58284747D01*
X147872107Y-58270132D01*
X147893150Y-58257520D01*
X147915329Y-58247030D01*
X147938428Y-58238765D01*
X147962227Y-58232804D01*
X147986495Y-58229204D01*
X148010999Y-58228000D01*
X148661001Y-58228000D01*
X148685505Y-58229204D01*
X148685505Y-58229204D01*
G37*
D13*
X148336000Y-58928000D03*
D12*
G36*
X146635505Y-58229204D02*
X146659773Y-58232804D01*
X146683572Y-58238765D01*
X146706671Y-58247030D01*
X146728850Y-58257520D01*
X146749893Y-58270132D01*
X146769599Y-58284747D01*
X146787777Y-58301223D01*
X146804253Y-58319401D01*
X146818868Y-58339107D01*
X146831480Y-58360150D01*
X146841970Y-58382329D01*
X146850235Y-58405428D01*
X146856196Y-58429227D01*
X146859796Y-58453495D01*
X146861000Y-58477999D01*
X146861000Y-59378001D01*
X146859796Y-59402505D01*
X146856196Y-59426773D01*
X146850235Y-59450572D01*
X146841970Y-59473671D01*
X146831480Y-59495850D01*
X146818868Y-59516893D01*
X146804253Y-59536599D01*
X146787777Y-59554777D01*
X146769599Y-59571253D01*
X146749893Y-59585868D01*
X146728850Y-59598480D01*
X146706671Y-59608970D01*
X146683572Y-59617235D01*
X146659773Y-59623196D01*
X146635505Y-59626796D01*
X146611001Y-59628000D01*
X145960999Y-59628000D01*
X145936495Y-59626796D01*
X145912227Y-59623196D01*
X145888428Y-59617235D01*
X145865329Y-59608970D01*
X145843150Y-59598480D01*
X145822107Y-59585868D01*
X145802401Y-59571253D01*
X145784223Y-59554777D01*
X145767747Y-59536599D01*
X145753132Y-59516893D01*
X145740520Y-59495850D01*
X145730030Y-59473671D01*
X145721765Y-59450572D01*
X145715804Y-59426773D01*
X145712204Y-59402505D01*
X145711000Y-59378001D01*
X145711000Y-58477999D01*
X145712204Y-58453495D01*
X145715804Y-58429227D01*
X145721765Y-58405428D01*
X145730030Y-58382329D01*
X145740520Y-58360150D01*
X145753132Y-58339107D01*
X145767747Y-58319401D01*
X145784223Y-58301223D01*
X145802401Y-58284747D01*
X145822107Y-58270132D01*
X145843150Y-58257520D01*
X145865329Y-58247030D01*
X145888428Y-58238765D01*
X145912227Y-58232804D01*
X145936495Y-58229204D01*
X145960999Y-58228000D01*
X146611001Y-58228000D01*
X146635505Y-58229204D01*
X146635505Y-58229204D01*
G37*
D13*
X146286000Y-58928000D03*
D12*
G36*
X136364505Y-54816204D02*
X136388773Y-54819804D01*
X136412572Y-54825765D01*
X136435671Y-54834030D01*
X136457850Y-54844520D01*
X136478893Y-54857132D01*
X136498599Y-54871747D01*
X136516777Y-54888223D01*
X136533253Y-54906401D01*
X136547868Y-54926107D01*
X136560480Y-54947150D01*
X136570970Y-54969329D01*
X136579235Y-54992428D01*
X136585196Y-55016227D01*
X136588796Y-55040495D01*
X136590000Y-55064999D01*
X136590000Y-55715001D01*
X136588796Y-55739505D01*
X136585196Y-55763773D01*
X136579235Y-55787572D01*
X136570970Y-55810671D01*
X136560480Y-55832850D01*
X136547868Y-55853893D01*
X136533253Y-55873599D01*
X136516777Y-55891777D01*
X136498599Y-55908253D01*
X136478893Y-55922868D01*
X136457850Y-55935480D01*
X136435671Y-55945970D01*
X136412572Y-55954235D01*
X136388773Y-55960196D01*
X136364505Y-55963796D01*
X136340001Y-55965000D01*
X135439999Y-55965000D01*
X135415495Y-55963796D01*
X135391227Y-55960196D01*
X135367428Y-55954235D01*
X135344329Y-55945970D01*
X135322150Y-55935480D01*
X135301107Y-55922868D01*
X135281401Y-55908253D01*
X135263223Y-55891777D01*
X135246747Y-55873599D01*
X135232132Y-55853893D01*
X135219520Y-55832850D01*
X135209030Y-55810671D01*
X135200765Y-55787572D01*
X135194804Y-55763773D01*
X135191204Y-55739505D01*
X135190000Y-55715001D01*
X135190000Y-55064999D01*
X135191204Y-55040495D01*
X135194804Y-55016227D01*
X135200765Y-54992428D01*
X135209030Y-54969329D01*
X135219520Y-54947150D01*
X135232132Y-54926107D01*
X135246747Y-54906401D01*
X135263223Y-54888223D01*
X135281401Y-54871747D01*
X135301107Y-54857132D01*
X135322150Y-54844520D01*
X135344329Y-54834030D01*
X135367428Y-54825765D01*
X135391227Y-54819804D01*
X135415495Y-54816204D01*
X135439999Y-54815000D01*
X136340001Y-54815000D01*
X136364505Y-54816204D01*
X136364505Y-54816204D01*
G37*
D13*
X135890000Y-55390000D03*
D12*
G36*
X136364505Y-52766204D02*
X136388773Y-52769804D01*
X136412572Y-52775765D01*
X136435671Y-52784030D01*
X136457850Y-52794520D01*
X136478893Y-52807132D01*
X136498599Y-52821747D01*
X136516777Y-52838223D01*
X136533253Y-52856401D01*
X136547868Y-52876107D01*
X136560480Y-52897150D01*
X136570970Y-52919329D01*
X136579235Y-52942428D01*
X136585196Y-52966227D01*
X136588796Y-52990495D01*
X136590000Y-53014999D01*
X136590000Y-53665001D01*
X136588796Y-53689505D01*
X136585196Y-53713773D01*
X136579235Y-53737572D01*
X136570970Y-53760671D01*
X136560480Y-53782850D01*
X136547868Y-53803893D01*
X136533253Y-53823599D01*
X136516777Y-53841777D01*
X136498599Y-53858253D01*
X136478893Y-53872868D01*
X136457850Y-53885480D01*
X136435671Y-53895970D01*
X136412572Y-53904235D01*
X136388773Y-53910196D01*
X136364505Y-53913796D01*
X136340001Y-53915000D01*
X135439999Y-53915000D01*
X135415495Y-53913796D01*
X135391227Y-53910196D01*
X135367428Y-53904235D01*
X135344329Y-53895970D01*
X135322150Y-53885480D01*
X135301107Y-53872868D01*
X135281401Y-53858253D01*
X135263223Y-53841777D01*
X135246747Y-53823599D01*
X135232132Y-53803893D01*
X135219520Y-53782850D01*
X135209030Y-53760671D01*
X135200765Y-53737572D01*
X135194804Y-53713773D01*
X135191204Y-53689505D01*
X135190000Y-53665001D01*
X135190000Y-53014999D01*
X135191204Y-52990495D01*
X135194804Y-52966227D01*
X135200765Y-52942428D01*
X135209030Y-52919329D01*
X135219520Y-52897150D01*
X135232132Y-52876107D01*
X135246747Y-52856401D01*
X135263223Y-52838223D01*
X135281401Y-52821747D01*
X135301107Y-52807132D01*
X135322150Y-52794520D01*
X135344329Y-52784030D01*
X135367428Y-52775765D01*
X135391227Y-52769804D01*
X135415495Y-52766204D01*
X135439999Y-52765000D01*
X136340001Y-52765000D01*
X136364505Y-52766204D01*
X136364505Y-52766204D01*
G37*
D13*
X135890000Y-53340000D03*
D14*
X166878000Y-63246000D03*
D15*
X163978000Y-61996000D03*
D14*
X166878000Y-60746000D03*
M02*
