M48
;DRILL file {KiCad 5.0.1} date Sat 02 Feb 2019 01:29:04 PM CST
;FORMAT={-:-/ absolute / inch / decimal}
FMAT,2
INCH,TZ
T1C0.0157
T2C0.0394
T3C0.0433
T4C0.0472
T5C0.0969
%
G90
G05
M72
T1
X5.55Y-2.1
X6.12Y-3.01
X6.37Y-2.38
T2
X5.4096Y-2.9249
X5.5096Y-2.9249
X5.6096Y-2.9249
X5.8096Y-2.9249
X5.9096Y-2.9249
X6.0096Y-2.9249
X6.1096Y-2.9249
T3
X5.58Y-2.37
X5.58Y-2.47
X5.58Y-2.57
X5.58Y-2.67
T4
X4.85Y-2.1
X4.95Y-2.1
X5.1Y-2.1
X5.2Y-2.1
X5.35Y-2.59
X5.45Y-2.59
X6.51Y-2.7
X6.51Y-2.8
X6.51Y-2.9
X6.51Y-3.
X6.51Y-3.1
X5.87Y-2.52
X5.97Y-2.52
X4.85Y-2.55
X4.95Y-2.55
X6.175Y-2.1
X6.275Y-2.1
X5.1Y-3.
X5.2Y-3.
X5.1Y-2.55
X5.2Y-2.55
X4.85Y-3.
X4.95Y-3.
X6.47Y-2.1
X6.57Y-2.1
T5
X5.025Y-2.775
X5.95Y-2.
X5.025Y-2.325
T0
M30
