G04 #@! TF.GenerationSoftware,KiCad,Pcbnew,5.0.1*
G04 #@! TF.CreationDate,2019-02-04T13:48:04-06:00*
G04 #@! TF.ProjectId,PowerRDP,506F7765725244502E6B696361645F70,2*
G04 #@! TF.SameCoordinates,Original*
G04 #@! TF.FileFunction,Soldermask,Bot*
G04 #@! TF.FilePolarity,Negative*
%FSLAX46Y46*%
G04 Gerber Fmt 4.6, Leading zero omitted, Abs format (unit mm)*
G04 Created by KiCad (PCBNEW 5.0.1) date Mon 04 Feb 2019 01:48:04 PM CST*
%MOMM*%
%LPD*%
G01*
G04 APERTURE LIST*
%ADD10C,0.100000*%
%ADD11C,1.150000*%
%ADD12C,1.740000*%
%ADD13O,1.740000X2.200000*%
%ADD14R,1.500000X1.000000*%
%ADD15R,1.520000X3.050000*%
%ADD16R,3.050000X1.520000*%
%ADD17R,0.650000X2.000000*%
%ADD18C,1.700000*%
%ADD19R,1.550000X0.600000*%
%ADD20C,4.000000*%
G04 APERTURE END LIST*
D10*
G04 #@! TO.C,C1*
G36*
X127839505Y-81597204D02*
X127863773Y-81600804D01*
X127887572Y-81606765D01*
X127910671Y-81615030D01*
X127932850Y-81625520D01*
X127953893Y-81638132D01*
X127973599Y-81652747D01*
X127991777Y-81669223D01*
X128008253Y-81687401D01*
X128022868Y-81707107D01*
X128035480Y-81728150D01*
X128045970Y-81750329D01*
X128054235Y-81773428D01*
X128060196Y-81797227D01*
X128063796Y-81821495D01*
X128065000Y-81845999D01*
X128065000Y-82746001D01*
X128063796Y-82770505D01*
X128060196Y-82794773D01*
X128054235Y-82818572D01*
X128045970Y-82841671D01*
X128035480Y-82863850D01*
X128022868Y-82884893D01*
X128008253Y-82904599D01*
X127991777Y-82922777D01*
X127973599Y-82939253D01*
X127953893Y-82953868D01*
X127932850Y-82966480D01*
X127910671Y-82976970D01*
X127887572Y-82985235D01*
X127863773Y-82991196D01*
X127839505Y-82994796D01*
X127815001Y-82996000D01*
X127164999Y-82996000D01*
X127140495Y-82994796D01*
X127116227Y-82991196D01*
X127092428Y-82985235D01*
X127069329Y-82976970D01*
X127047150Y-82966480D01*
X127026107Y-82953868D01*
X127006401Y-82939253D01*
X126988223Y-82922777D01*
X126971747Y-82904599D01*
X126957132Y-82884893D01*
X126944520Y-82863850D01*
X126934030Y-82841671D01*
X126925765Y-82818572D01*
X126919804Y-82794773D01*
X126916204Y-82770505D01*
X126915000Y-82746001D01*
X126915000Y-81845999D01*
X126916204Y-81821495D01*
X126919804Y-81797227D01*
X126925765Y-81773428D01*
X126934030Y-81750329D01*
X126944520Y-81728150D01*
X126957132Y-81707107D01*
X126971747Y-81687401D01*
X126988223Y-81669223D01*
X127006401Y-81652747D01*
X127026107Y-81638132D01*
X127047150Y-81625520D01*
X127069329Y-81615030D01*
X127092428Y-81606765D01*
X127116227Y-81600804D01*
X127140495Y-81597204D01*
X127164999Y-81596000D01*
X127815001Y-81596000D01*
X127839505Y-81597204D01*
X127839505Y-81597204D01*
G37*
D11*
X127490000Y-82296000D03*
D10*
G36*
X129889505Y-81597204D02*
X129913773Y-81600804D01*
X129937572Y-81606765D01*
X129960671Y-81615030D01*
X129982850Y-81625520D01*
X130003893Y-81638132D01*
X130023599Y-81652747D01*
X130041777Y-81669223D01*
X130058253Y-81687401D01*
X130072868Y-81707107D01*
X130085480Y-81728150D01*
X130095970Y-81750329D01*
X130104235Y-81773428D01*
X130110196Y-81797227D01*
X130113796Y-81821495D01*
X130115000Y-81845999D01*
X130115000Y-82746001D01*
X130113796Y-82770505D01*
X130110196Y-82794773D01*
X130104235Y-82818572D01*
X130095970Y-82841671D01*
X130085480Y-82863850D01*
X130072868Y-82884893D01*
X130058253Y-82904599D01*
X130041777Y-82922777D01*
X130023599Y-82939253D01*
X130003893Y-82953868D01*
X129982850Y-82966480D01*
X129960671Y-82976970D01*
X129937572Y-82985235D01*
X129913773Y-82991196D01*
X129889505Y-82994796D01*
X129865001Y-82996000D01*
X129214999Y-82996000D01*
X129190495Y-82994796D01*
X129166227Y-82991196D01*
X129142428Y-82985235D01*
X129119329Y-82976970D01*
X129097150Y-82966480D01*
X129076107Y-82953868D01*
X129056401Y-82939253D01*
X129038223Y-82922777D01*
X129021747Y-82904599D01*
X129007132Y-82884893D01*
X128994520Y-82863850D01*
X128984030Y-82841671D01*
X128975765Y-82818572D01*
X128969804Y-82794773D01*
X128966204Y-82770505D01*
X128965000Y-82746001D01*
X128965000Y-81845999D01*
X128966204Y-81821495D01*
X128969804Y-81797227D01*
X128975765Y-81773428D01*
X128984030Y-81750329D01*
X128994520Y-81728150D01*
X129007132Y-81707107D01*
X129021747Y-81687401D01*
X129038223Y-81669223D01*
X129056401Y-81652747D01*
X129076107Y-81638132D01*
X129097150Y-81625520D01*
X129119329Y-81615030D01*
X129142428Y-81606765D01*
X129166227Y-81600804D01*
X129190495Y-81597204D01*
X129214999Y-81596000D01*
X129865001Y-81596000D01*
X129889505Y-81597204D01*
X129889505Y-81597204D01*
G37*
D11*
X129540000Y-82296000D03*
G04 #@! TD*
D10*
G04 #@! TO.C,C2*
G36*
X122394505Y-89351204D02*
X122418773Y-89354804D01*
X122442572Y-89360765D01*
X122465671Y-89369030D01*
X122487850Y-89379520D01*
X122508893Y-89392132D01*
X122528599Y-89406747D01*
X122546777Y-89423223D01*
X122563253Y-89441401D01*
X122577868Y-89461107D01*
X122590480Y-89482150D01*
X122600970Y-89504329D01*
X122609235Y-89527428D01*
X122615196Y-89551227D01*
X122618796Y-89575495D01*
X122620000Y-89599999D01*
X122620000Y-90250001D01*
X122618796Y-90274505D01*
X122615196Y-90298773D01*
X122609235Y-90322572D01*
X122600970Y-90345671D01*
X122590480Y-90367850D01*
X122577868Y-90388893D01*
X122563253Y-90408599D01*
X122546777Y-90426777D01*
X122528599Y-90443253D01*
X122508893Y-90457868D01*
X122487850Y-90470480D01*
X122465671Y-90480970D01*
X122442572Y-90489235D01*
X122418773Y-90495196D01*
X122394505Y-90498796D01*
X122370001Y-90500000D01*
X121469999Y-90500000D01*
X121445495Y-90498796D01*
X121421227Y-90495196D01*
X121397428Y-90489235D01*
X121374329Y-90480970D01*
X121352150Y-90470480D01*
X121331107Y-90457868D01*
X121311401Y-90443253D01*
X121293223Y-90426777D01*
X121276747Y-90408599D01*
X121262132Y-90388893D01*
X121249520Y-90367850D01*
X121239030Y-90345671D01*
X121230765Y-90322572D01*
X121224804Y-90298773D01*
X121221204Y-90274505D01*
X121220000Y-90250001D01*
X121220000Y-89599999D01*
X121221204Y-89575495D01*
X121224804Y-89551227D01*
X121230765Y-89527428D01*
X121239030Y-89504329D01*
X121249520Y-89482150D01*
X121262132Y-89461107D01*
X121276747Y-89441401D01*
X121293223Y-89423223D01*
X121311401Y-89406747D01*
X121331107Y-89392132D01*
X121352150Y-89379520D01*
X121374329Y-89369030D01*
X121397428Y-89360765D01*
X121421227Y-89354804D01*
X121445495Y-89351204D01*
X121469999Y-89350000D01*
X122370001Y-89350000D01*
X122394505Y-89351204D01*
X122394505Y-89351204D01*
G37*
D11*
X121920000Y-89925000D03*
D10*
G36*
X122394505Y-87301204D02*
X122418773Y-87304804D01*
X122442572Y-87310765D01*
X122465671Y-87319030D01*
X122487850Y-87329520D01*
X122508893Y-87342132D01*
X122528599Y-87356747D01*
X122546777Y-87373223D01*
X122563253Y-87391401D01*
X122577868Y-87411107D01*
X122590480Y-87432150D01*
X122600970Y-87454329D01*
X122609235Y-87477428D01*
X122615196Y-87501227D01*
X122618796Y-87525495D01*
X122620000Y-87549999D01*
X122620000Y-88200001D01*
X122618796Y-88224505D01*
X122615196Y-88248773D01*
X122609235Y-88272572D01*
X122600970Y-88295671D01*
X122590480Y-88317850D01*
X122577868Y-88338893D01*
X122563253Y-88358599D01*
X122546777Y-88376777D01*
X122528599Y-88393253D01*
X122508893Y-88407868D01*
X122487850Y-88420480D01*
X122465671Y-88430970D01*
X122442572Y-88439235D01*
X122418773Y-88445196D01*
X122394505Y-88448796D01*
X122370001Y-88450000D01*
X121469999Y-88450000D01*
X121445495Y-88448796D01*
X121421227Y-88445196D01*
X121397428Y-88439235D01*
X121374329Y-88430970D01*
X121352150Y-88420480D01*
X121331107Y-88407868D01*
X121311401Y-88393253D01*
X121293223Y-88376777D01*
X121276747Y-88358599D01*
X121262132Y-88338893D01*
X121249520Y-88317850D01*
X121239030Y-88295671D01*
X121230765Y-88272572D01*
X121224804Y-88248773D01*
X121221204Y-88224505D01*
X121220000Y-88200001D01*
X121220000Y-87549999D01*
X121221204Y-87525495D01*
X121224804Y-87501227D01*
X121230765Y-87477428D01*
X121239030Y-87454329D01*
X121249520Y-87432150D01*
X121262132Y-87411107D01*
X121276747Y-87391401D01*
X121293223Y-87373223D01*
X121311401Y-87356747D01*
X121331107Y-87342132D01*
X121352150Y-87329520D01*
X121374329Y-87319030D01*
X121397428Y-87310765D01*
X121421227Y-87304804D01*
X121445495Y-87301204D01*
X121469999Y-87300000D01*
X122370001Y-87300000D01*
X122394505Y-87301204D01*
X122394505Y-87301204D01*
G37*
D11*
X121920000Y-87875000D03*
G04 #@! TD*
D10*
G04 #@! TO.C,C9*
G36*
X122768505Y-78549204D02*
X122792773Y-78552804D01*
X122816572Y-78558765D01*
X122839671Y-78567030D01*
X122861850Y-78577520D01*
X122882893Y-78590132D01*
X122902599Y-78604747D01*
X122920777Y-78621223D01*
X122937253Y-78639401D01*
X122951868Y-78659107D01*
X122964480Y-78680150D01*
X122974970Y-78702329D01*
X122983235Y-78725428D01*
X122989196Y-78749227D01*
X122992796Y-78773495D01*
X122994000Y-78797999D01*
X122994000Y-79698001D01*
X122992796Y-79722505D01*
X122989196Y-79746773D01*
X122983235Y-79770572D01*
X122974970Y-79793671D01*
X122964480Y-79815850D01*
X122951868Y-79836893D01*
X122937253Y-79856599D01*
X122920777Y-79874777D01*
X122902599Y-79891253D01*
X122882893Y-79905868D01*
X122861850Y-79918480D01*
X122839671Y-79928970D01*
X122816572Y-79937235D01*
X122792773Y-79943196D01*
X122768505Y-79946796D01*
X122744001Y-79948000D01*
X122093999Y-79948000D01*
X122069495Y-79946796D01*
X122045227Y-79943196D01*
X122021428Y-79937235D01*
X121998329Y-79928970D01*
X121976150Y-79918480D01*
X121955107Y-79905868D01*
X121935401Y-79891253D01*
X121917223Y-79874777D01*
X121900747Y-79856599D01*
X121886132Y-79836893D01*
X121873520Y-79815850D01*
X121863030Y-79793671D01*
X121854765Y-79770572D01*
X121848804Y-79746773D01*
X121845204Y-79722505D01*
X121844000Y-79698001D01*
X121844000Y-78797999D01*
X121845204Y-78773495D01*
X121848804Y-78749227D01*
X121854765Y-78725428D01*
X121863030Y-78702329D01*
X121873520Y-78680150D01*
X121886132Y-78659107D01*
X121900747Y-78639401D01*
X121917223Y-78621223D01*
X121935401Y-78604747D01*
X121955107Y-78590132D01*
X121976150Y-78577520D01*
X121998329Y-78567030D01*
X122021428Y-78558765D01*
X122045227Y-78552804D01*
X122069495Y-78549204D01*
X122093999Y-78548000D01*
X122744001Y-78548000D01*
X122768505Y-78549204D01*
X122768505Y-78549204D01*
G37*
D11*
X122419000Y-79248000D03*
D10*
G36*
X124818505Y-78549204D02*
X124842773Y-78552804D01*
X124866572Y-78558765D01*
X124889671Y-78567030D01*
X124911850Y-78577520D01*
X124932893Y-78590132D01*
X124952599Y-78604747D01*
X124970777Y-78621223D01*
X124987253Y-78639401D01*
X125001868Y-78659107D01*
X125014480Y-78680150D01*
X125024970Y-78702329D01*
X125033235Y-78725428D01*
X125039196Y-78749227D01*
X125042796Y-78773495D01*
X125044000Y-78797999D01*
X125044000Y-79698001D01*
X125042796Y-79722505D01*
X125039196Y-79746773D01*
X125033235Y-79770572D01*
X125024970Y-79793671D01*
X125014480Y-79815850D01*
X125001868Y-79836893D01*
X124987253Y-79856599D01*
X124970777Y-79874777D01*
X124952599Y-79891253D01*
X124932893Y-79905868D01*
X124911850Y-79918480D01*
X124889671Y-79928970D01*
X124866572Y-79937235D01*
X124842773Y-79943196D01*
X124818505Y-79946796D01*
X124794001Y-79948000D01*
X124143999Y-79948000D01*
X124119495Y-79946796D01*
X124095227Y-79943196D01*
X124071428Y-79937235D01*
X124048329Y-79928970D01*
X124026150Y-79918480D01*
X124005107Y-79905868D01*
X123985401Y-79891253D01*
X123967223Y-79874777D01*
X123950747Y-79856599D01*
X123936132Y-79836893D01*
X123923520Y-79815850D01*
X123913030Y-79793671D01*
X123904765Y-79770572D01*
X123898804Y-79746773D01*
X123895204Y-79722505D01*
X123894000Y-79698001D01*
X123894000Y-78797999D01*
X123895204Y-78773495D01*
X123898804Y-78749227D01*
X123904765Y-78725428D01*
X123913030Y-78702329D01*
X123923520Y-78680150D01*
X123936132Y-78659107D01*
X123950747Y-78639401D01*
X123967223Y-78621223D01*
X123985401Y-78604747D01*
X124005107Y-78590132D01*
X124026150Y-78577520D01*
X124048329Y-78567030D01*
X124071428Y-78558765D01*
X124095227Y-78552804D01*
X124119495Y-78549204D01*
X124143999Y-78548000D01*
X124794001Y-78548000D01*
X124818505Y-78549204D01*
X124818505Y-78549204D01*
G37*
D11*
X124469000Y-79248000D03*
G04 #@! TD*
D10*
G04 #@! TO.C,C10*
G36*
X125878953Y-71011523D02*
X125903221Y-71015123D01*
X125927020Y-71021084D01*
X125950119Y-71029349D01*
X125972298Y-71039839D01*
X125993341Y-71052451D01*
X126013047Y-71067066D01*
X126031225Y-71083542D01*
X126047701Y-71101720D01*
X126062316Y-71121426D01*
X126074928Y-71142469D01*
X126085418Y-71164648D01*
X126093683Y-71187747D01*
X126099644Y-71211546D01*
X126103244Y-71235814D01*
X126104448Y-71260318D01*
X126104448Y-72160320D01*
X126103244Y-72184824D01*
X126099644Y-72209092D01*
X126093683Y-72232891D01*
X126085418Y-72255990D01*
X126074928Y-72278169D01*
X126062316Y-72299212D01*
X126047701Y-72318918D01*
X126031225Y-72337096D01*
X126013047Y-72353572D01*
X125993341Y-72368187D01*
X125972298Y-72380799D01*
X125950119Y-72391289D01*
X125927020Y-72399554D01*
X125903221Y-72405515D01*
X125878953Y-72409115D01*
X125854449Y-72410319D01*
X125204447Y-72410319D01*
X125179943Y-72409115D01*
X125155675Y-72405515D01*
X125131876Y-72399554D01*
X125108777Y-72391289D01*
X125086598Y-72380799D01*
X125065555Y-72368187D01*
X125045849Y-72353572D01*
X125027671Y-72337096D01*
X125011195Y-72318918D01*
X124996580Y-72299212D01*
X124983968Y-72278169D01*
X124973478Y-72255990D01*
X124965213Y-72232891D01*
X124959252Y-72209092D01*
X124955652Y-72184824D01*
X124954448Y-72160320D01*
X124954448Y-71260318D01*
X124955652Y-71235814D01*
X124959252Y-71211546D01*
X124965213Y-71187747D01*
X124973478Y-71164648D01*
X124983968Y-71142469D01*
X124996580Y-71121426D01*
X125011195Y-71101720D01*
X125027671Y-71083542D01*
X125045849Y-71067066D01*
X125065555Y-71052451D01*
X125086598Y-71039839D01*
X125108777Y-71029349D01*
X125131876Y-71021084D01*
X125155675Y-71015123D01*
X125179943Y-71011523D01*
X125204447Y-71010319D01*
X125854449Y-71010319D01*
X125878953Y-71011523D01*
X125878953Y-71011523D01*
G37*
D11*
X125529448Y-71710319D03*
D10*
G36*
X127928953Y-71011523D02*
X127953221Y-71015123D01*
X127977020Y-71021084D01*
X128000119Y-71029349D01*
X128022298Y-71039839D01*
X128043341Y-71052451D01*
X128063047Y-71067066D01*
X128081225Y-71083542D01*
X128097701Y-71101720D01*
X128112316Y-71121426D01*
X128124928Y-71142469D01*
X128135418Y-71164648D01*
X128143683Y-71187747D01*
X128149644Y-71211546D01*
X128153244Y-71235814D01*
X128154448Y-71260318D01*
X128154448Y-72160320D01*
X128153244Y-72184824D01*
X128149644Y-72209092D01*
X128143683Y-72232891D01*
X128135418Y-72255990D01*
X128124928Y-72278169D01*
X128112316Y-72299212D01*
X128097701Y-72318918D01*
X128081225Y-72337096D01*
X128063047Y-72353572D01*
X128043341Y-72368187D01*
X128022298Y-72380799D01*
X128000119Y-72391289D01*
X127977020Y-72399554D01*
X127953221Y-72405515D01*
X127928953Y-72409115D01*
X127904449Y-72410319D01*
X127254447Y-72410319D01*
X127229943Y-72409115D01*
X127205675Y-72405515D01*
X127181876Y-72399554D01*
X127158777Y-72391289D01*
X127136598Y-72380799D01*
X127115555Y-72368187D01*
X127095849Y-72353572D01*
X127077671Y-72337096D01*
X127061195Y-72318918D01*
X127046580Y-72299212D01*
X127033968Y-72278169D01*
X127023478Y-72255990D01*
X127015213Y-72232891D01*
X127009252Y-72209092D01*
X127005652Y-72184824D01*
X127004448Y-72160320D01*
X127004448Y-71260318D01*
X127005652Y-71235814D01*
X127009252Y-71211546D01*
X127015213Y-71187747D01*
X127023478Y-71164648D01*
X127033968Y-71142469D01*
X127046580Y-71121426D01*
X127061195Y-71101720D01*
X127077671Y-71083542D01*
X127095849Y-71067066D01*
X127115555Y-71052451D01*
X127136598Y-71039839D01*
X127158777Y-71029349D01*
X127181876Y-71021084D01*
X127205675Y-71015123D01*
X127229943Y-71011523D01*
X127254447Y-71010319D01*
X127904449Y-71010319D01*
X127928953Y-71011523D01*
X127928953Y-71011523D01*
G37*
D11*
X127579448Y-71710319D03*
G04 #@! TD*
D10*
G04 #@! TO.C,J1*
G36*
X87004505Y-66465204D02*
X87028773Y-66468804D01*
X87052572Y-66474765D01*
X87075671Y-66483030D01*
X87097850Y-66493520D01*
X87118893Y-66506132D01*
X87138599Y-66520747D01*
X87156777Y-66537223D01*
X87173253Y-66555401D01*
X87187868Y-66575107D01*
X87200480Y-66596150D01*
X87210970Y-66618329D01*
X87219235Y-66641428D01*
X87225196Y-66665227D01*
X87228796Y-66689495D01*
X87230000Y-66713999D01*
X87230000Y-68414001D01*
X87228796Y-68438505D01*
X87225196Y-68462773D01*
X87219235Y-68486572D01*
X87210970Y-68509671D01*
X87200480Y-68531850D01*
X87187868Y-68552893D01*
X87173253Y-68572599D01*
X87156777Y-68590777D01*
X87138599Y-68607253D01*
X87118893Y-68621868D01*
X87097850Y-68634480D01*
X87075671Y-68644970D01*
X87052572Y-68653235D01*
X87028773Y-68659196D01*
X87004505Y-68662796D01*
X86980001Y-68664000D01*
X85739999Y-68664000D01*
X85715495Y-68662796D01*
X85691227Y-68659196D01*
X85667428Y-68653235D01*
X85644329Y-68644970D01*
X85622150Y-68634480D01*
X85601107Y-68621868D01*
X85581401Y-68607253D01*
X85563223Y-68590777D01*
X85546747Y-68572599D01*
X85532132Y-68552893D01*
X85519520Y-68531850D01*
X85509030Y-68509671D01*
X85500765Y-68486572D01*
X85494804Y-68462773D01*
X85491204Y-68438505D01*
X85490000Y-68414001D01*
X85490000Y-66713999D01*
X85491204Y-66689495D01*
X85494804Y-66665227D01*
X85500765Y-66641428D01*
X85509030Y-66618329D01*
X85519520Y-66596150D01*
X85532132Y-66575107D01*
X85546747Y-66555401D01*
X85563223Y-66537223D01*
X85581401Y-66520747D01*
X85601107Y-66506132D01*
X85622150Y-66493520D01*
X85644329Y-66483030D01*
X85667428Y-66474765D01*
X85691227Y-66468804D01*
X85715495Y-66465204D01*
X85739999Y-66464000D01*
X86980001Y-66464000D01*
X87004505Y-66465204D01*
X87004505Y-66465204D01*
G37*
D12*
X86360000Y-67564000D03*
D13*
X88900000Y-67564000D03*
G04 #@! TD*
D10*
G04 #@! TO.C,J2*
G36*
X93100505Y-66465204D02*
X93124773Y-66468804D01*
X93148572Y-66474765D01*
X93171671Y-66483030D01*
X93193850Y-66493520D01*
X93214893Y-66506132D01*
X93234599Y-66520747D01*
X93252777Y-66537223D01*
X93269253Y-66555401D01*
X93283868Y-66575107D01*
X93296480Y-66596150D01*
X93306970Y-66618329D01*
X93315235Y-66641428D01*
X93321196Y-66665227D01*
X93324796Y-66689495D01*
X93326000Y-66713999D01*
X93326000Y-68414001D01*
X93324796Y-68438505D01*
X93321196Y-68462773D01*
X93315235Y-68486572D01*
X93306970Y-68509671D01*
X93296480Y-68531850D01*
X93283868Y-68552893D01*
X93269253Y-68572599D01*
X93252777Y-68590777D01*
X93234599Y-68607253D01*
X93214893Y-68621868D01*
X93193850Y-68634480D01*
X93171671Y-68644970D01*
X93148572Y-68653235D01*
X93124773Y-68659196D01*
X93100505Y-68662796D01*
X93076001Y-68664000D01*
X91835999Y-68664000D01*
X91811495Y-68662796D01*
X91787227Y-68659196D01*
X91763428Y-68653235D01*
X91740329Y-68644970D01*
X91718150Y-68634480D01*
X91697107Y-68621868D01*
X91677401Y-68607253D01*
X91659223Y-68590777D01*
X91642747Y-68572599D01*
X91628132Y-68552893D01*
X91615520Y-68531850D01*
X91605030Y-68509671D01*
X91596765Y-68486572D01*
X91590804Y-68462773D01*
X91587204Y-68438505D01*
X91586000Y-68414001D01*
X91586000Y-66713999D01*
X91587204Y-66689495D01*
X91590804Y-66665227D01*
X91596765Y-66641428D01*
X91605030Y-66618329D01*
X91615520Y-66596150D01*
X91628132Y-66575107D01*
X91642747Y-66555401D01*
X91659223Y-66537223D01*
X91677401Y-66520747D01*
X91697107Y-66506132D01*
X91718150Y-66493520D01*
X91740329Y-66483030D01*
X91763428Y-66474765D01*
X91787227Y-66468804D01*
X91811495Y-66465204D01*
X91835999Y-66464000D01*
X93076001Y-66464000D01*
X93100505Y-66465204D01*
X93100505Y-66465204D01*
G37*
D12*
X92456000Y-67564000D03*
D13*
X94996000Y-67564000D03*
G04 #@! TD*
G04 #@! TO.C,J3*
X88900000Y-76708000D03*
D10*
G36*
X87004505Y-75609204D02*
X87028773Y-75612804D01*
X87052572Y-75618765D01*
X87075671Y-75627030D01*
X87097850Y-75637520D01*
X87118893Y-75650132D01*
X87138599Y-75664747D01*
X87156777Y-75681223D01*
X87173253Y-75699401D01*
X87187868Y-75719107D01*
X87200480Y-75740150D01*
X87210970Y-75762329D01*
X87219235Y-75785428D01*
X87225196Y-75809227D01*
X87228796Y-75833495D01*
X87230000Y-75857999D01*
X87230000Y-77558001D01*
X87228796Y-77582505D01*
X87225196Y-77606773D01*
X87219235Y-77630572D01*
X87210970Y-77653671D01*
X87200480Y-77675850D01*
X87187868Y-77696893D01*
X87173253Y-77716599D01*
X87156777Y-77734777D01*
X87138599Y-77751253D01*
X87118893Y-77765868D01*
X87097850Y-77778480D01*
X87075671Y-77788970D01*
X87052572Y-77797235D01*
X87028773Y-77803196D01*
X87004505Y-77806796D01*
X86980001Y-77808000D01*
X85739999Y-77808000D01*
X85715495Y-77806796D01*
X85691227Y-77803196D01*
X85667428Y-77797235D01*
X85644329Y-77788970D01*
X85622150Y-77778480D01*
X85601107Y-77765868D01*
X85581401Y-77751253D01*
X85563223Y-77734777D01*
X85546747Y-77716599D01*
X85532132Y-77696893D01*
X85519520Y-77675850D01*
X85509030Y-77653671D01*
X85500765Y-77630572D01*
X85494804Y-77606773D01*
X85491204Y-77582505D01*
X85490000Y-77558001D01*
X85490000Y-75857999D01*
X85491204Y-75833495D01*
X85494804Y-75809227D01*
X85500765Y-75785428D01*
X85509030Y-75762329D01*
X85519520Y-75740150D01*
X85532132Y-75719107D01*
X85546747Y-75699401D01*
X85563223Y-75681223D01*
X85581401Y-75664747D01*
X85601107Y-75650132D01*
X85622150Y-75637520D01*
X85644329Y-75627030D01*
X85667428Y-75618765D01*
X85691227Y-75612804D01*
X85715495Y-75609204D01*
X85739999Y-75608000D01*
X86980001Y-75608000D01*
X87004505Y-75609204D01*
X87004505Y-75609204D01*
G37*
D12*
X86360000Y-76708000D03*
G04 #@! TD*
D10*
G04 #@! TO.C,J4*
G36*
X93100505Y-75609204D02*
X93124773Y-75612804D01*
X93148572Y-75618765D01*
X93171671Y-75627030D01*
X93193850Y-75637520D01*
X93214893Y-75650132D01*
X93234599Y-75664747D01*
X93252777Y-75681223D01*
X93269253Y-75699401D01*
X93283868Y-75719107D01*
X93296480Y-75740150D01*
X93306970Y-75762329D01*
X93315235Y-75785428D01*
X93321196Y-75809227D01*
X93324796Y-75833495D01*
X93326000Y-75857999D01*
X93326000Y-77558001D01*
X93324796Y-77582505D01*
X93321196Y-77606773D01*
X93315235Y-77630572D01*
X93306970Y-77653671D01*
X93296480Y-77675850D01*
X93283868Y-77696893D01*
X93269253Y-77716599D01*
X93252777Y-77734777D01*
X93234599Y-77751253D01*
X93214893Y-77765868D01*
X93193850Y-77778480D01*
X93171671Y-77788970D01*
X93148572Y-77797235D01*
X93124773Y-77803196D01*
X93100505Y-77806796D01*
X93076001Y-77808000D01*
X91835999Y-77808000D01*
X91811495Y-77806796D01*
X91787227Y-77803196D01*
X91763428Y-77797235D01*
X91740329Y-77788970D01*
X91718150Y-77778480D01*
X91697107Y-77765868D01*
X91677401Y-77751253D01*
X91659223Y-77734777D01*
X91642747Y-77716599D01*
X91628132Y-77696893D01*
X91615520Y-77675850D01*
X91605030Y-77653671D01*
X91596765Y-77630572D01*
X91590804Y-77606773D01*
X91587204Y-77582505D01*
X91586000Y-77558001D01*
X91586000Y-75857999D01*
X91587204Y-75833495D01*
X91590804Y-75809227D01*
X91596765Y-75785428D01*
X91605030Y-75762329D01*
X91615520Y-75740150D01*
X91628132Y-75719107D01*
X91642747Y-75699401D01*
X91659223Y-75681223D01*
X91677401Y-75664747D01*
X91697107Y-75650132D01*
X91718150Y-75637520D01*
X91740329Y-75627030D01*
X91763428Y-75618765D01*
X91787227Y-75612804D01*
X91811495Y-75609204D01*
X91835999Y-75608000D01*
X93076001Y-75608000D01*
X93100505Y-75609204D01*
X93100505Y-75609204D01*
G37*
D12*
X92456000Y-76708000D03*
D13*
X94996000Y-76708000D03*
G04 #@! TD*
G04 #@! TO.C,J5*
X88900000Y-85852000D03*
D10*
G36*
X87004505Y-84753204D02*
X87028773Y-84756804D01*
X87052572Y-84762765D01*
X87075671Y-84771030D01*
X87097850Y-84781520D01*
X87118893Y-84794132D01*
X87138599Y-84808747D01*
X87156777Y-84825223D01*
X87173253Y-84843401D01*
X87187868Y-84863107D01*
X87200480Y-84884150D01*
X87210970Y-84906329D01*
X87219235Y-84929428D01*
X87225196Y-84953227D01*
X87228796Y-84977495D01*
X87230000Y-85001999D01*
X87230000Y-86702001D01*
X87228796Y-86726505D01*
X87225196Y-86750773D01*
X87219235Y-86774572D01*
X87210970Y-86797671D01*
X87200480Y-86819850D01*
X87187868Y-86840893D01*
X87173253Y-86860599D01*
X87156777Y-86878777D01*
X87138599Y-86895253D01*
X87118893Y-86909868D01*
X87097850Y-86922480D01*
X87075671Y-86932970D01*
X87052572Y-86941235D01*
X87028773Y-86947196D01*
X87004505Y-86950796D01*
X86980001Y-86952000D01*
X85739999Y-86952000D01*
X85715495Y-86950796D01*
X85691227Y-86947196D01*
X85667428Y-86941235D01*
X85644329Y-86932970D01*
X85622150Y-86922480D01*
X85601107Y-86909868D01*
X85581401Y-86895253D01*
X85563223Y-86878777D01*
X85546747Y-86860599D01*
X85532132Y-86840893D01*
X85519520Y-86819850D01*
X85509030Y-86797671D01*
X85500765Y-86774572D01*
X85494804Y-86750773D01*
X85491204Y-86726505D01*
X85490000Y-86702001D01*
X85490000Y-85001999D01*
X85491204Y-84977495D01*
X85494804Y-84953227D01*
X85500765Y-84929428D01*
X85509030Y-84906329D01*
X85519520Y-84884150D01*
X85532132Y-84863107D01*
X85546747Y-84843401D01*
X85563223Y-84825223D01*
X85581401Y-84808747D01*
X85601107Y-84794132D01*
X85622150Y-84781520D01*
X85644329Y-84771030D01*
X85667428Y-84762765D01*
X85691227Y-84756804D01*
X85715495Y-84753204D01*
X85739999Y-84752000D01*
X86980001Y-84752000D01*
X87004505Y-84753204D01*
X87004505Y-84753204D01*
G37*
D12*
X86360000Y-85852000D03*
G04 #@! TD*
D13*
G04 #@! TO.C,J6*
X94996000Y-85852000D03*
D10*
G36*
X93100505Y-84753204D02*
X93124773Y-84756804D01*
X93148572Y-84762765D01*
X93171671Y-84771030D01*
X93193850Y-84781520D01*
X93214893Y-84794132D01*
X93234599Y-84808747D01*
X93252777Y-84825223D01*
X93269253Y-84843401D01*
X93283868Y-84863107D01*
X93296480Y-84884150D01*
X93306970Y-84906329D01*
X93315235Y-84929428D01*
X93321196Y-84953227D01*
X93324796Y-84977495D01*
X93326000Y-85001999D01*
X93326000Y-86702001D01*
X93324796Y-86726505D01*
X93321196Y-86750773D01*
X93315235Y-86774572D01*
X93306970Y-86797671D01*
X93296480Y-86819850D01*
X93283868Y-86840893D01*
X93269253Y-86860599D01*
X93252777Y-86878777D01*
X93234599Y-86895253D01*
X93214893Y-86909868D01*
X93193850Y-86922480D01*
X93171671Y-86932970D01*
X93148572Y-86941235D01*
X93124773Y-86947196D01*
X93100505Y-86950796D01*
X93076001Y-86952000D01*
X91835999Y-86952000D01*
X91811495Y-86950796D01*
X91787227Y-86947196D01*
X91763428Y-86941235D01*
X91740329Y-86932970D01*
X91718150Y-86922480D01*
X91697107Y-86909868D01*
X91677401Y-86895253D01*
X91659223Y-86878777D01*
X91642747Y-86860599D01*
X91628132Y-86840893D01*
X91615520Y-86819850D01*
X91605030Y-86797671D01*
X91596765Y-86774572D01*
X91590804Y-86750773D01*
X91587204Y-86726505D01*
X91586000Y-86702001D01*
X91586000Y-85001999D01*
X91587204Y-84977495D01*
X91590804Y-84953227D01*
X91596765Y-84929428D01*
X91605030Y-84906329D01*
X91615520Y-84884150D01*
X91628132Y-84863107D01*
X91642747Y-84843401D01*
X91659223Y-84825223D01*
X91677401Y-84808747D01*
X91697107Y-84794132D01*
X91718150Y-84781520D01*
X91740329Y-84771030D01*
X91763428Y-84762765D01*
X91787227Y-84756804D01*
X91811495Y-84753204D01*
X91835999Y-84752000D01*
X93076001Y-84752000D01*
X93100505Y-84753204D01*
X93100505Y-84753204D01*
G37*
D12*
X92456000Y-85852000D03*
G04 #@! TD*
D13*
G04 #@! TO.C,J7*
X153924000Y-72136000D03*
D10*
G36*
X152028505Y-71037204D02*
X152052773Y-71040804D01*
X152076572Y-71046765D01*
X152099671Y-71055030D01*
X152121850Y-71065520D01*
X152142893Y-71078132D01*
X152162599Y-71092747D01*
X152180777Y-71109223D01*
X152197253Y-71127401D01*
X152211868Y-71147107D01*
X152224480Y-71168150D01*
X152234970Y-71190329D01*
X152243235Y-71213428D01*
X152249196Y-71237227D01*
X152252796Y-71261495D01*
X152254000Y-71285999D01*
X152254000Y-72986001D01*
X152252796Y-73010505D01*
X152249196Y-73034773D01*
X152243235Y-73058572D01*
X152234970Y-73081671D01*
X152224480Y-73103850D01*
X152211868Y-73124893D01*
X152197253Y-73144599D01*
X152180777Y-73162777D01*
X152162599Y-73179253D01*
X152142893Y-73193868D01*
X152121850Y-73206480D01*
X152099671Y-73216970D01*
X152076572Y-73225235D01*
X152052773Y-73231196D01*
X152028505Y-73234796D01*
X152004001Y-73236000D01*
X150763999Y-73236000D01*
X150739495Y-73234796D01*
X150715227Y-73231196D01*
X150691428Y-73225235D01*
X150668329Y-73216970D01*
X150646150Y-73206480D01*
X150625107Y-73193868D01*
X150605401Y-73179253D01*
X150587223Y-73162777D01*
X150570747Y-73144599D01*
X150556132Y-73124893D01*
X150543520Y-73103850D01*
X150533030Y-73081671D01*
X150524765Y-73058572D01*
X150518804Y-73034773D01*
X150515204Y-73010505D01*
X150514000Y-72986001D01*
X150514000Y-71285999D01*
X150515204Y-71261495D01*
X150518804Y-71237227D01*
X150524765Y-71213428D01*
X150533030Y-71190329D01*
X150543520Y-71168150D01*
X150556132Y-71147107D01*
X150570747Y-71127401D01*
X150587223Y-71109223D01*
X150605401Y-71092747D01*
X150625107Y-71078132D01*
X150646150Y-71065520D01*
X150668329Y-71055030D01*
X150691428Y-71046765D01*
X150715227Y-71040804D01*
X150739495Y-71037204D01*
X150763999Y-71036000D01*
X152004001Y-71036000D01*
X152028505Y-71037204D01*
X152028505Y-71037204D01*
G37*
D12*
X151384000Y-72136000D03*
G04 #@! TD*
D10*
G04 #@! TO.C,J8*
G36*
X152028505Y-78657204D02*
X152052773Y-78660804D01*
X152076572Y-78666765D01*
X152099671Y-78675030D01*
X152121850Y-78685520D01*
X152142893Y-78698132D01*
X152162599Y-78712747D01*
X152180777Y-78729223D01*
X152197253Y-78747401D01*
X152211868Y-78767107D01*
X152224480Y-78788150D01*
X152234970Y-78810329D01*
X152243235Y-78833428D01*
X152249196Y-78857227D01*
X152252796Y-78881495D01*
X152254000Y-78905999D01*
X152254000Y-80606001D01*
X152252796Y-80630505D01*
X152249196Y-80654773D01*
X152243235Y-80678572D01*
X152234970Y-80701671D01*
X152224480Y-80723850D01*
X152211868Y-80744893D01*
X152197253Y-80764599D01*
X152180777Y-80782777D01*
X152162599Y-80799253D01*
X152142893Y-80813868D01*
X152121850Y-80826480D01*
X152099671Y-80836970D01*
X152076572Y-80845235D01*
X152052773Y-80851196D01*
X152028505Y-80854796D01*
X152004001Y-80856000D01*
X150763999Y-80856000D01*
X150739495Y-80854796D01*
X150715227Y-80851196D01*
X150691428Y-80845235D01*
X150668329Y-80836970D01*
X150646150Y-80826480D01*
X150625107Y-80813868D01*
X150605401Y-80799253D01*
X150587223Y-80782777D01*
X150570747Y-80764599D01*
X150556132Y-80744893D01*
X150543520Y-80723850D01*
X150533030Y-80701671D01*
X150524765Y-80678572D01*
X150518804Y-80654773D01*
X150515204Y-80630505D01*
X150514000Y-80606001D01*
X150514000Y-78905999D01*
X150515204Y-78881495D01*
X150518804Y-78857227D01*
X150524765Y-78833428D01*
X150533030Y-78810329D01*
X150543520Y-78788150D01*
X150556132Y-78767107D01*
X150570747Y-78747401D01*
X150587223Y-78729223D01*
X150605401Y-78712747D01*
X150625107Y-78698132D01*
X150646150Y-78685520D01*
X150668329Y-78675030D01*
X150691428Y-78666765D01*
X150715227Y-78660804D01*
X150739495Y-78657204D01*
X150763999Y-78656000D01*
X152004001Y-78656000D01*
X152028505Y-78657204D01*
X152028505Y-78657204D01*
G37*
D12*
X151384000Y-79756000D03*
D13*
X153924000Y-79756000D03*
G04 #@! TD*
D10*
G04 #@! TO.C,J9*
G36*
X145424505Y-71037204D02*
X145448773Y-71040804D01*
X145472572Y-71046765D01*
X145495671Y-71055030D01*
X145517850Y-71065520D01*
X145538893Y-71078132D01*
X145558599Y-71092747D01*
X145576777Y-71109223D01*
X145593253Y-71127401D01*
X145607868Y-71147107D01*
X145620480Y-71168150D01*
X145630970Y-71190329D01*
X145639235Y-71213428D01*
X145645196Y-71237227D01*
X145648796Y-71261495D01*
X145650000Y-71285999D01*
X145650000Y-72986001D01*
X145648796Y-73010505D01*
X145645196Y-73034773D01*
X145639235Y-73058572D01*
X145630970Y-73081671D01*
X145620480Y-73103850D01*
X145607868Y-73124893D01*
X145593253Y-73144599D01*
X145576777Y-73162777D01*
X145558599Y-73179253D01*
X145538893Y-73193868D01*
X145517850Y-73206480D01*
X145495671Y-73216970D01*
X145472572Y-73225235D01*
X145448773Y-73231196D01*
X145424505Y-73234796D01*
X145400001Y-73236000D01*
X144159999Y-73236000D01*
X144135495Y-73234796D01*
X144111227Y-73231196D01*
X144087428Y-73225235D01*
X144064329Y-73216970D01*
X144042150Y-73206480D01*
X144021107Y-73193868D01*
X144001401Y-73179253D01*
X143983223Y-73162777D01*
X143966747Y-73144599D01*
X143952132Y-73124893D01*
X143939520Y-73103850D01*
X143929030Y-73081671D01*
X143920765Y-73058572D01*
X143914804Y-73034773D01*
X143911204Y-73010505D01*
X143910000Y-72986001D01*
X143910000Y-71285999D01*
X143911204Y-71261495D01*
X143914804Y-71237227D01*
X143920765Y-71213428D01*
X143929030Y-71190329D01*
X143939520Y-71168150D01*
X143952132Y-71147107D01*
X143966747Y-71127401D01*
X143983223Y-71109223D01*
X144001401Y-71092747D01*
X144021107Y-71078132D01*
X144042150Y-71065520D01*
X144064329Y-71055030D01*
X144087428Y-71046765D01*
X144111227Y-71040804D01*
X144135495Y-71037204D01*
X144159999Y-71036000D01*
X145400001Y-71036000D01*
X145424505Y-71037204D01*
X145424505Y-71037204D01*
G37*
D12*
X144780000Y-72136000D03*
D13*
X147320000Y-72136000D03*
G04 #@! TD*
D10*
G04 #@! TO.C,J10*
G36*
X128152505Y-85769204D02*
X128176773Y-85772804D01*
X128200572Y-85778765D01*
X128223671Y-85787030D01*
X128245850Y-85797520D01*
X128266893Y-85810132D01*
X128286599Y-85824747D01*
X128304777Y-85841223D01*
X128321253Y-85859401D01*
X128335868Y-85879107D01*
X128348480Y-85900150D01*
X128358970Y-85922329D01*
X128367235Y-85945428D01*
X128373196Y-85969227D01*
X128376796Y-85993495D01*
X128378000Y-86017999D01*
X128378000Y-87718001D01*
X128376796Y-87742505D01*
X128373196Y-87766773D01*
X128367235Y-87790572D01*
X128358970Y-87813671D01*
X128348480Y-87835850D01*
X128335868Y-87856893D01*
X128321253Y-87876599D01*
X128304777Y-87894777D01*
X128286599Y-87911253D01*
X128266893Y-87925868D01*
X128245850Y-87938480D01*
X128223671Y-87948970D01*
X128200572Y-87957235D01*
X128176773Y-87963196D01*
X128152505Y-87966796D01*
X128128001Y-87968000D01*
X126887999Y-87968000D01*
X126863495Y-87966796D01*
X126839227Y-87963196D01*
X126815428Y-87957235D01*
X126792329Y-87948970D01*
X126770150Y-87938480D01*
X126749107Y-87925868D01*
X126729401Y-87911253D01*
X126711223Y-87894777D01*
X126694747Y-87876599D01*
X126680132Y-87856893D01*
X126667520Y-87835850D01*
X126657030Y-87813671D01*
X126648765Y-87790572D01*
X126642804Y-87766773D01*
X126639204Y-87742505D01*
X126638000Y-87718001D01*
X126638000Y-86017999D01*
X126639204Y-85993495D01*
X126642804Y-85969227D01*
X126648765Y-85945428D01*
X126657030Y-85922329D01*
X126667520Y-85900150D01*
X126680132Y-85879107D01*
X126694747Y-85859401D01*
X126711223Y-85841223D01*
X126729401Y-85824747D01*
X126749107Y-85810132D01*
X126770150Y-85797520D01*
X126792329Y-85787030D01*
X126815428Y-85778765D01*
X126839227Y-85772804D01*
X126863495Y-85769204D01*
X126887999Y-85768000D01*
X128128001Y-85768000D01*
X128152505Y-85769204D01*
X128152505Y-85769204D01*
G37*
D12*
X127508000Y-86868000D03*
D13*
X130048000Y-86868000D03*
X132588000Y-86868000D03*
X135128000Y-86868000D03*
X137668000Y-86868000D03*
G04 #@! TD*
D10*
G04 #@! TO.C,J11*
G36*
X145424505Y-78657204D02*
X145448773Y-78660804D01*
X145472572Y-78666765D01*
X145495671Y-78675030D01*
X145517850Y-78685520D01*
X145538893Y-78698132D01*
X145558599Y-78712747D01*
X145576777Y-78729223D01*
X145593253Y-78747401D01*
X145607868Y-78767107D01*
X145620480Y-78788150D01*
X145630970Y-78810329D01*
X145639235Y-78833428D01*
X145645196Y-78857227D01*
X145648796Y-78881495D01*
X145650000Y-78905999D01*
X145650000Y-80606001D01*
X145648796Y-80630505D01*
X145645196Y-80654773D01*
X145639235Y-80678572D01*
X145630970Y-80701671D01*
X145620480Y-80723850D01*
X145607868Y-80744893D01*
X145593253Y-80764599D01*
X145576777Y-80782777D01*
X145558599Y-80799253D01*
X145538893Y-80813868D01*
X145517850Y-80826480D01*
X145495671Y-80836970D01*
X145472572Y-80845235D01*
X145448773Y-80851196D01*
X145424505Y-80854796D01*
X145400001Y-80856000D01*
X144159999Y-80856000D01*
X144135495Y-80854796D01*
X144111227Y-80851196D01*
X144087428Y-80845235D01*
X144064329Y-80836970D01*
X144042150Y-80826480D01*
X144021107Y-80813868D01*
X144001401Y-80799253D01*
X143983223Y-80782777D01*
X143966747Y-80764599D01*
X143952132Y-80744893D01*
X143939520Y-80723850D01*
X143929030Y-80701671D01*
X143920765Y-80678572D01*
X143914804Y-80654773D01*
X143911204Y-80630505D01*
X143910000Y-80606001D01*
X143910000Y-78905999D01*
X143911204Y-78881495D01*
X143914804Y-78857227D01*
X143920765Y-78833428D01*
X143929030Y-78810329D01*
X143939520Y-78788150D01*
X143952132Y-78767107D01*
X143966747Y-78747401D01*
X143983223Y-78729223D01*
X144001401Y-78712747D01*
X144021107Y-78698132D01*
X144042150Y-78685520D01*
X144064329Y-78675030D01*
X144087428Y-78666765D01*
X144111227Y-78660804D01*
X144135495Y-78657204D01*
X144159999Y-78656000D01*
X145400001Y-78656000D01*
X145424505Y-78657204D01*
X145424505Y-78657204D01*
G37*
D12*
X144780000Y-79756000D03*
D13*
X147320000Y-79756000D03*
G04 #@! TD*
G04 #@! TO.C,J12*
X101092000Y-76708000D03*
D10*
G36*
X99196505Y-75609204D02*
X99220773Y-75612804D01*
X99244572Y-75618765D01*
X99267671Y-75627030D01*
X99289850Y-75637520D01*
X99310893Y-75650132D01*
X99330599Y-75664747D01*
X99348777Y-75681223D01*
X99365253Y-75699401D01*
X99379868Y-75719107D01*
X99392480Y-75740150D01*
X99402970Y-75762329D01*
X99411235Y-75785428D01*
X99417196Y-75809227D01*
X99420796Y-75833495D01*
X99422000Y-75857999D01*
X99422000Y-77558001D01*
X99420796Y-77582505D01*
X99417196Y-77606773D01*
X99411235Y-77630572D01*
X99402970Y-77653671D01*
X99392480Y-77675850D01*
X99379868Y-77696893D01*
X99365253Y-77716599D01*
X99348777Y-77734777D01*
X99330599Y-77751253D01*
X99310893Y-77765868D01*
X99289850Y-77778480D01*
X99267671Y-77788970D01*
X99244572Y-77797235D01*
X99220773Y-77803196D01*
X99196505Y-77806796D01*
X99172001Y-77808000D01*
X97931999Y-77808000D01*
X97907495Y-77806796D01*
X97883227Y-77803196D01*
X97859428Y-77797235D01*
X97836329Y-77788970D01*
X97814150Y-77778480D01*
X97793107Y-77765868D01*
X97773401Y-77751253D01*
X97755223Y-77734777D01*
X97738747Y-77716599D01*
X97724132Y-77696893D01*
X97711520Y-77675850D01*
X97701030Y-77653671D01*
X97692765Y-77630572D01*
X97686804Y-77606773D01*
X97683204Y-77582505D01*
X97682000Y-77558001D01*
X97682000Y-75857999D01*
X97683204Y-75833495D01*
X97686804Y-75809227D01*
X97692765Y-75785428D01*
X97701030Y-75762329D01*
X97711520Y-75740150D01*
X97724132Y-75719107D01*
X97738747Y-75699401D01*
X97755223Y-75681223D01*
X97773401Y-75664747D01*
X97793107Y-75650132D01*
X97814150Y-75637520D01*
X97836329Y-75627030D01*
X97859428Y-75618765D01*
X97883227Y-75612804D01*
X97907495Y-75609204D01*
X97931999Y-75608000D01*
X99172001Y-75608000D01*
X99196505Y-75609204D01*
X99196505Y-75609204D01*
G37*
D12*
X98552000Y-76708000D03*
G04 #@! TD*
D14*
G04 #@! TO.C,JP1*
X120396000Y-81646000D03*
X120396000Y-82946000D03*
G04 #@! TD*
D15*
G04 #@! TO.C,L1*
X125605000Y-82296000D03*
X123315000Y-82296000D03*
G04 #@! TD*
D16*
G04 #@! TO.C,L2*
X117856000Y-87626000D03*
X117856000Y-89916000D03*
G04 #@! TD*
D17*
G04 #@! TO.C,Q1*
X136210000Y-74998000D03*
X138110000Y-74998000D03*
X137160000Y-78418000D03*
G04 #@! TD*
D10*
G04 #@! TO.C,R1*
G36*
X123971953Y-74674523D02*
X123996221Y-74678123D01*
X124020020Y-74684084D01*
X124043119Y-74692349D01*
X124065298Y-74702839D01*
X124086341Y-74715451D01*
X124106047Y-74730066D01*
X124124225Y-74746542D01*
X124140701Y-74764720D01*
X124155316Y-74784426D01*
X124167928Y-74805469D01*
X124178418Y-74827648D01*
X124186683Y-74850747D01*
X124192644Y-74874546D01*
X124196244Y-74898814D01*
X124197448Y-74923318D01*
X124197448Y-75573320D01*
X124196244Y-75597824D01*
X124192644Y-75622092D01*
X124186683Y-75645891D01*
X124178418Y-75668990D01*
X124167928Y-75691169D01*
X124155316Y-75712212D01*
X124140701Y-75731918D01*
X124124225Y-75750096D01*
X124106047Y-75766572D01*
X124086341Y-75781187D01*
X124065298Y-75793799D01*
X124043119Y-75804289D01*
X124020020Y-75812554D01*
X123996221Y-75818515D01*
X123971953Y-75822115D01*
X123947449Y-75823319D01*
X123047447Y-75823319D01*
X123022943Y-75822115D01*
X122998675Y-75818515D01*
X122974876Y-75812554D01*
X122951777Y-75804289D01*
X122929598Y-75793799D01*
X122908555Y-75781187D01*
X122888849Y-75766572D01*
X122870671Y-75750096D01*
X122854195Y-75731918D01*
X122839580Y-75712212D01*
X122826968Y-75691169D01*
X122816478Y-75668990D01*
X122808213Y-75645891D01*
X122802252Y-75622092D01*
X122798652Y-75597824D01*
X122797448Y-75573320D01*
X122797448Y-74923318D01*
X122798652Y-74898814D01*
X122802252Y-74874546D01*
X122808213Y-74850747D01*
X122816478Y-74827648D01*
X122826968Y-74805469D01*
X122839580Y-74784426D01*
X122854195Y-74764720D01*
X122870671Y-74746542D01*
X122888849Y-74730066D01*
X122908555Y-74715451D01*
X122929598Y-74702839D01*
X122951777Y-74692349D01*
X122974876Y-74684084D01*
X122998675Y-74678123D01*
X123022943Y-74674523D01*
X123047447Y-74673319D01*
X123947449Y-74673319D01*
X123971953Y-74674523D01*
X123971953Y-74674523D01*
G37*
D11*
X123497448Y-75248319D03*
D10*
G36*
X123971953Y-76724523D02*
X123996221Y-76728123D01*
X124020020Y-76734084D01*
X124043119Y-76742349D01*
X124065298Y-76752839D01*
X124086341Y-76765451D01*
X124106047Y-76780066D01*
X124124225Y-76796542D01*
X124140701Y-76814720D01*
X124155316Y-76834426D01*
X124167928Y-76855469D01*
X124178418Y-76877648D01*
X124186683Y-76900747D01*
X124192644Y-76924546D01*
X124196244Y-76948814D01*
X124197448Y-76973318D01*
X124197448Y-77623320D01*
X124196244Y-77647824D01*
X124192644Y-77672092D01*
X124186683Y-77695891D01*
X124178418Y-77718990D01*
X124167928Y-77741169D01*
X124155316Y-77762212D01*
X124140701Y-77781918D01*
X124124225Y-77800096D01*
X124106047Y-77816572D01*
X124086341Y-77831187D01*
X124065298Y-77843799D01*
X124043119Y-77854289D01*
X124020020Y-77862554D01*
X123996221Y-77868515D01*
X123971953Y-77872115D01*
X123947449Y-77873319D01*
X123047447Y-77873319D01*
X123022943Y-77872115D01*
X122998675Y-77868515D01*
X122974876Y-77862554D01*
X122951777Y-77854289D01*
X122929598Y-77843799D01*
X122908555Y-77831187D01*
X122888849Y-77816572D01*
X122870671Y-77800096D01*
X122854195Y-77781918D01*
X122839580Y-77762212D01*
X122826968Y-77741169D01*
X122816478Y-77718990D01*
X122808213Y-77695891D01*
X122802252Y-77672092D01*
X122798652Y-77647824D01*
X122797448Y-77623320D01*
X122797448Y-76973318D01*
X122798652Y-76948814D01*
X122802252Y-76924546D01*
X122808213Y-76900747D01*
X122816478Y-76877648D01*
X122826968Y-76855469D01*
X122839580Y-76834426D01*
X122854195Y-76814720D01*
X122870671Y-76796542D01*
X122888849Y-76780066D01*
X122908555Y-76765451D01*
X122929598Y-76752839D01*
X122951777Y-76742349D01*
X122974876Y-76734084D01*
X122998675Y-76728123D01*
X123022943Y-76724523D01*
X123047447Y-76723319D01*
X123947449Y-76723319D01*
X123971953Y-76724523D01*
X123971953Y-76724523D01*
G37*
D11*
X123497448Y-77298319D03*
G04 #@! TD*
D10*
G04 #@! TO.C,R2*
G36*
X120798953Y-74567523D02*
X120823221Y-74571123D01*
X120847020Y-74577084D01*
X120870119Y-74585349D01*
X120892298Y-74595839D01*
X120913341Y-74608451D01*
X120933047Y-74623066D01*
X120951225Y-74639542D01*
X120967701Y-74657720D01*
X120982316Y-74677426D01*
X120994928Y-74698469D01*
X121005418Y-74720648D01*
X121013683Y-74743747D01*
X121019644Y-74767546D01*
X121023244Y-74791814D01*
X121024448Y-74816318D01*
X121024448Y-75716320D01*
X121023244Y-75740824D01*
X121019644Y-75765092D01*
X121013683Y-75788891D01*
X121005418Y-75811990D01*
X120994928Y-75834169D01*
X120982316Y-75855212D01*
X120967701Y-75874918D01*
X120951225Y-75893096D01*
X120933047Y-75909572D01*
X120913341Y-75924187D01*
X120892298Y-75936799D01*
X120870119Y-75947289D01*
X120847020Y-75955554D01*
X120823221Y-75961515D01*
X120798953Y-75965115D01*
X120774449Y-75966319D01*
X120124447Y-75966319D01*
X120099943Y-75965115D01*
X120075675Y-75961515D01*
X120051876Y-75955554D01*
X120028777Y-75947289D01*
X120006598Y-75936799D01*
X119985555Y-75924187D01*
X119965849Y-75909572D01*
X119947671Y-75893096D01*
X119931195Y-75874918D01*
X119916580Y-75855212D01*
X119903968Y-75834169D01*
X119893478Y-75811990D01*
X119885213Y-75788891D01*
X119879252Y-75765092D01*
X119875652Y-75740824D01*
X119874448Y-75716320D01*
X119874448Y-74816318D01*
X119875652Y-74791814D01*
X119879252Y-74767546D01*
X119885213Y-74743747D01*
X119893478Y-74720648D01*
X119903968Y-74698469D01*
X119916580Y-74677426D01*
X119931195Y-74657720D01*
X119947671Y-74639542D01*
X119965849Y-74623066D01*
X119985555Y-74608451D01*
X120006598Y-74595839D01*
X120028777Y-74585349D01*
X120051876Y-74577084D01*
X120075675Y-74571123D01*
X120099943Y-74567523D01*
X120124447Y-74566319D01*
X120774449Y-74566319D01*
X120798953Y-74567523D01*
X120798953Y-74567523D01*
G37*
D11*
X120449448Y-75266319D03*
D10*
G36*
X118748953Y-74567523D02*
X118773221Y-74571123D01*
X118797020Y-74577084D01*
X118820119Y-74585349D01*
X118842298Y-74595839D01*
X118863341Y-74608451D01*
X118883047Y-74623066D01*
X118901225Y-74639542D01*
X118917701Y-74657720D01*
X118932316Y-74677426D01*
X118944928Y-74698469D01*
X118955418Y-74720648D01*
X118963683Y-74743747D01*
X118969644Y-74767546D01*
X118973244Y-74791814D01*
X118974448Y-74816318D01*
X118974448Y-75716320D01*
X118973244Y-75740824D01*
X118969644Y-75765092D01*
X118963683Y-75788891D01*
X118955418Y-75811990D01*
X118944928Y-75834169D01*
X118932316Y-75855212D01*
X118917701Y-75874918D01*
X118901225Y-75893096D01*
X118883047Y-75909572D01*
X118863341Y-75924187D01*
X118842298Y-75936799D01*
X118820119Y-75947289D01*
X118797020Y-75955554D01*
X118773221Y-75961515D01*
X118748953Y-75965115D01*
X118724449Y-75966319D01*
X118074447Y-75966319D01*
X118049943Y-75965115D01*
X118025675Y-75961515D01*
X118001876Y-75955554D01*
X117978777Y-75947289D01*
X117956598Y-75936799D01*
X117935555Y-75924187D01*
X117915849Y-75909572D01*
X117897671Y-75893096D01*
X117881195Y-75874918D01*
X117866580Y-75855212D01*
X117853968Y-75834169D01*
X117843478Y-75811990D01*
X117835213Y-75788891D01*
X117829252Y-75765092D01*
X117825652Y-75740824D01*
X117824448Y-75716320D01*
X117824448Y-74816318D01*
X117825652Y-74791814D01*
X117829252Y-74767546D01*
X117835213Y-74743747D01*
X117843478Y-74720648D01*
X117853968Y-74698469D01*
X117866580Y-74677426D01*
X117881195Y-74657720D01*
X117897671Y-74639542D01*
X117915849Y-74623066D01*
X117935555Y-74608451D01*
X117956598Y-74595839D01*
X117978777Y-74585349D01*
X118001876Y-74577084D01*
X118025675Y-74571123D01*
X118049943Y-74567523D01*
X118074447Y-74566319D01*
X118724449Y-74566319D01*
X118748953Y-74567523D01*
X118748953Y-74567523D01*
G37*
D11*
X118399448Y-75266319D03*
G04 #@! TD*
D18*
G04 #@! TO.C,U1*
X105156000Y-85344000D03*
X107696000Y-85344000D03*
X110236000Y-85344000D03*
X115316000Y-85344000D03*
X117856000Y-85344000D03*
X120396000Y-85344000D03*
X122936000Y-85344000D03*
G04 #@! TD*
D19*
G04 #@! TO.C,U5*
X132133448Y-74250319D03*
X132133448Y-75520319D03*
X132133448Y-76790319D03*
X132133448Y-78060319D03*
X126733448Y-78060319D03*
X126733448Y-76790319D03*
X126733448Y-75520319D03*
X126733448Y-74250319D03*
G04 #@! TD*
D20*
G04 #@! TO.C,REF\002A\002A*
X99568000Y-85852000D03*
G04 #@! TD*
G04 #@! TO.C,REF\002A\002A*
X100076000Y-61976000D03*
G04 #@! TD*
G04 #@! TO.C,REF\002A\002A*
X151892000Y-59944000D03*
G04 #@! TD*
G04 #@! TO.C,REF\002A\002A*
X150876000Y-87884000D03*
G04 #@! TD*
M02*
