M48
;DRILL file {KiCad 5.0.0} date Thu Sep 27 13:21:55 2018
;FORMAT={-:-/ absolute / inch / decimal}
FMAT,2
INCH,TZ
T1C0.0335
T2C0.0433
T3C0.0472
%
G90
G05
M72
T1
X5.55Y-2.95
X5.65Y-2.95
X5.75Y-2.95
X5.85Y-2.95
X5.95Y-2.95
X6.05Y-2.95
X6.15Y-2.95
X6.25Y-2.95
T2
X5.5Y-2.35
X5.5Y-2.45
X5.5Y-2.55
X5.5Y-2.65
T3
X5.8Y-2.5
X5.9Y-2.5
X5.1Y-2.1
X5.2Y-2.1
X4.85Y-2.1
X4.95Y-2.1
X4.85Y-2.55
X4.95Y-2.55
X4.85Y-3.
X4.95Y-3.
X5.1Y-2.55
X5.2Y-2.55
X5.1Y-3.
X5.2Y-3.
X6.086Y-2.6
X6.186Y-2.6
X6.286Y-2.6
X6.175Y-2.1
X6.275Y-2.1
T0
M30
