G04 #@! TF.GenerationSoftware,KiCad,Pcbnew,5.0.1*
G04 #@! TF.CreationDate,2018-10-18T17:34:51-05:00*
G04 #@! TF.ProjectId,PowerRDP,506F7765725244502E6B696361645F70,01*
G04 #@! TF.SameCoordinates,Original*
G04 #@! TF.FileFunction,Soldermask,Bot*
G04 #@! TF.FilePolarity,Negative*
%FSLAX46Y46*%
G04 Gerber Fmt 4.6, Leading zero omitted, Abs format (unit mm)*
G04 Created by KiCad (PCBNEW 5.0.1) date Thu 18 Oct 2018 05:34:51 PM CDT*
%MOMM*%
%LPD*%
G01*
G04 APERTURE LIST*
%ADD10C,0.150000*%
%ADD11C,0.100000*%
G04 APERTURE END LIST*
D10*
X120650000Y-47625000D02*
X120650000Y-48260000D01*
X161925000Y-47625000D02*
X120650000Y-47625000D01*
X161925000Y-81280000D02*
X161925000Y-47625000D01*
X120650000Y-81280000D02*
X161925000Y-81280000D01*
X120650000Y-48260000D02*
X120650000Y-81280000D01*
D11*
G36*
X153096000Y-79582000D02*
X151196000Y-79582000D01*
X151196000Y-76882000D01*
X153096000Y-76882000D01*
X153096000Y-79582000D01*
X153096000Y-79582000D01*
G37*
G36*
X125939756Y-74915482D02*
X126088970Y-74960746D01*
X126141455Y-74976667D01*
X126327336Y-75076022D01*
X126490265Y-75209735D01*
X126623978Y-75372663D01*
X126723333Y-75558544D01*
X126739254Y-75611029D01*
X126784518Y-75760243D01*
X126800000Y-75917436D01*
X126800000Y-76482563D01*
X126784518Y-76639756D01*
X126739254Y-76788970D01*
X126723333Y-76841455D01*
X126623978Y-77027337D01*
X126490265Y-77190265D01*
X126327337Y-77323978D01*
X126141456Y-77423333D01*
X126088971Y-77439254D01*
X125939757Y-77484518D01*
X125730000Y-77505177D01*
X125520244Y-77484518D01*
X125371030Y-77439254D01*
X125318545Y-77423333D01*
X125132664Y-77323978D01*
X124969736Y-77190265D01*
X124836024Y-77027338D01*
X124736666Y-76841453D01*
X124716271Y-76774220D01*
X124675482Y-76639757D01*
X124660000Y-76482564D01*
X124660000Y-75917437D01*
X124675482Y-75760244D01*
X124736666Y-75558549D01*
X124736667Y-75558545D01*
X124836022Y-75372664D01*
X124969735Y-75209735D01*
X125132663Y-75076022D01*
X125318544Y-74976667D01*
X125371029Y-74960746D01*
X125520243Y-74915482D01*
X125730000Y-74894823D01*
X125939756Y-74915482D01*
X125939756Y-74915482D01*
G37*
G36*
X132289756Y-74915482D02*
X132438970Y-74960746D01*
X132491455Y-74976667D01*
X132677336Y-75076022D01*
X132840265Y-75209735D01*
X132973978Y-75372663D01*
X133073333Y-75558544D01*
X133089254Y-75611029D01*
X133134518Y-75760243D01*
X133150000Y-75917436D01*
X133150000Y-76482563D01*
X133134518Y-76639756D01*
X133089254Y-76788970D01*
X133073333Y-76841455D01*
X132973978Y-77027337D01*
X132840265Y-77190265D01*
X132677337Y-77323978D01*
X132491456Y-77423333D01*
X132438971Y-77439254D01*
X132289757Y-77484518D01*
X132080000Y-77505177D01*
X131870244Y-77484518D01*
X131721030Y-77439254D01*
X131668545Y-77423333D01*
X131482664Y-77323978D01*
X131319736Y-77190265D01*
X131186024Y-77027338D01*
X131086666Y-76841453D01*
X131066271Y-76774220D01*
X131025482Y-76639757D01*
X131010000Y-76482564D01*
X131010000Y-75917437D01*
X131025482Y-75760244D01*
X131086666Y-75558549D01*
X131086667Y-75558545D01*
X131186022Y-75372664D01*
X131319735Y-75209735D01*
X131482663Y-75076022D01*
X131668544Y-74976667D01*
X131721029Y-74960746D01*
X131870243Y-74915482D01*
X132080000Y-74894823D01*
X132289756Y-74915482D01*
X132289756Y-74915482D01*
G37*
G36*
X124260000Y-77500000D02*
X122120000Y-77500000D01*
X122120000Y-74900000D01*
X124260000Y-74900000D01*
X124260000Y-77500000D01*
X124260000Y-77500000D01*
G37*
G36*
X130610000Y-77500000D02*
X128470000Y-77500000D01*
X128470000Y-74900000D01*
X130610000Y-74900000D01*
X130610000Y-77500000D01*
X130610000Y-77500000D01*
G37*
G36*
X159713000Y-75636000D02*
X156263000Y-75636000D01*
X156263000Y-73716000D01*
X159713000Y-73716000D01*
X159713000Y-75636000D01*
X159713000Y-75636000D01*
G37*
G36*
X154872231Y-71973746D02*
X154961769Y-72000907D01*
X155051308Y-72028068D01*
X155216347Y-72116283D01*
X155361001Y-72234999D01*
X155479717Y-72379653D01*
X155567932Y-72544691D01*
X155622254Y-72723769D01*
X155636000Y-72863334D01*
X155636000Y-74456666D01*
X155622254Y-74596231D01*
X155567932Y-74775309D01*
X155479717Y-74940347D01*
X155361001Y-75085001D01*
X155216347Y-75203717D01*
X155051309Y-75291932D01*
X154961770Y-75319093D01*
X154872232Y-75346254D01*
X154686000Y-75364596D01*
X154499769Y-75346254D01*
X154410231Y-75319093D01*
X154320692Y-75291932D01*
X154155654Y-75203717D01*
X154011000Y-75085001D01*
X153892284Y-74940347D01*
X153804068Y-74775306D01*
X153749746Y-74596234D01*
X153736000Y-74456666D01*
X153736000Y-72863335D01*
X153749746Y-72723770D01*
X153749747Y-72723768D01*
X153804068Y-72544693D01*
X153804068Y-72544692D01*
X153892283Y-72379653D01*
X154010999Y-72234999D01*
X154155653Y-72116283D01*
X154320691Y-72028068D01*
X154410230Y-72000907D01*
X154499768Y-71973746D01*
X154686000Y-71955404D01*
X154872231Y-71973746D01*
X154872231Y-71973746D01*
G37*
G36*
X149792231Y-71973746D02*
X149881769Y-72000907D01*
X149971308Y-72028068D01*
X150136347Y-72116283D01*
X150281001Y-72234999D01*
X150399717Y-72379653D01*
X150487932Y-72544691D01*
X150542254Y-72723769D01*
X150556000Y-72863334D01*
X150556000Y-74456666D01*
X150542254Y-74596231D01*
X150487932Y-74775309D01*
X150399717Y-74940347D01*
X150281001Y-75085001D01*
X150136347Y-75203717D01*
X149971309Y-75291932D01*
X149881770Y-75319093D01*
X149792232Y-75346254D01*
X149606000Y-75364596D01*
X149419769Y-75346254D01*
X149330231Y-75319093D01*
X149240692Y-75291932D01*
X149075654Y-75203717D01*
X148931000Y-75085001D01*
X148812284Y-74940347D01*
X148724068Y-74775306D01*
X148669746Y-74596234D01*
X148656000Y-74456666D01*
X148656000Y-72863335D01*
X148669746Y-72723770D01*
X148669747Y-72723768D01*
X148724068Y-72544693D01*
X148724068Y-72544692D01*
X148812283Y-72379653D01*
X148930999Y-72234999D01*
X149075653Y-72116283D01*
X149240691Y-72028068D01*
X149330230Y-72000907D01*
X149419768Y-71973746D01*
X149606000Y-71955404D01*
X149792231Y-71973746D01*
X149792231Y-71973746D01*
G37*
G36*
X152332231Y-71973746D02*
X152421769Y-72000907D01*
X152511308Y-72028068D01*
X152676347Y-72116283D01*
X152821001Y-72234999D01*
X152939717Y-72379653D01*
X153027932Y-72544691D01*
X153082254Y-72723769D01*
X153096000Y-72863334D01*
X153096000Y-74456666D01*
X153082254Y-74596231D01*
X153027932Y-74775309D01*
X152939717Y-74940347D01*
X152821001Y-75085001D01*
X152676347Y-75203717D01*
X152511309Y-75291932D01*
X152421770Y-75319093D01*
X152332232Y-75346254D01*
X152146000Y-75364596D01*
X151959769Y-75346254D01*
X151870231Y-75319093D01*
X151780692Y-75291932D01*
X151615654Y-75203717D01*
X151471000Y-75085001D01*
X151352284Y-74940347D01*
X151264068Y-74775306D01*
X151209746Y-74596234D01*
X151196000Y-74456666D01*
X151196000Y-72863335D01*
X151209746Y-72723770D01*
X151209747Y-72723768D01*
X151264068Y-72544693D01*
X151264068Y-72544692D01*
X151352283Y-72379653D01*
X151470999Y-72234999D01*
X151615653Y-72116283D01*
X151780691Y-72028068D01*
X151870230Y-72000907D01*
X151959768Y-71973746D01*
X152146000Y-71955404D01*
X152332231Y-71973746D01*
X152332231Y-71973746D01*
G37*
G36*
X144712231Y-71973746D02*
X144801769Y-72000907D01*
X144891308Y-72028068D01*
X145056347Y-72116283D01*
X145201001Y-72234999D01*
X145319717Y-72379653D01*
X145407932Y-72544691D01*
X145462254Y-72723769D01*
X145476000Y-72863334D01*
X145476000Y-74456666D01*
X145462254Y-74596231D01*
X145407932Y-74775309D01*
X145319717Y-74940347D01*
X145201001Y-75085001D01*
X145056347Y-75203717D01*
X144891309Y-75291932D01*
X144801770Y-75319093D01*
X144712232Y-75346254D01*
X144526000Y-75364596D01*
X144339769Y-75346254D01*
X144250231Y-75319093D01*
X144160692Y-75291932D01*
X143995654Y-75203717D01*
X143851000Y-75085001D01*
X143732284Y-74940347D01*
X143644068Y-74775306D01*
X143589746Y-74596234D01*
X143576000Y-74456666D01*
X143576000Y-72863335D01*
X143589746Y-72723770D01*
X143589747Y-72723768D01*
X143644068Y-72544693D01*
X143644068Y-72544692D01*
X143732283Y-72379653D01*
X143850999Y-72234999D01*
X143995653Y-72116283D01*
X144160691Y-72028068D01*
X144250230Y-72000907D01*
X144339768Y-71973746D01*
X144526000Y-71955404D01*
X144712231Y-71973746D01*
X144712231Y-71973746D01*
G37*
G36*
X142936000Y-75360000D02*
X141036000Y-75360000D01*
X141036000Y-71960000D01*
X142936000Y-71960000D01*
X142936000Y-75360000D01*
X142936000Y-75360000D01*
G37*
G36*
X159713000Y-73346000D02*
X156263000Y-73346000D01*
X156263000Y-71426000D01*
X159713000Y-71426000D01*
X159713000Y-73346000D01*
X159713000Y-73346000D01*
G37*
G36*
X155117530Y-69842710D02*
X155167379Y-69857831D01*
X155213311Y-69882382D01*
X155253574Y-69915426D01*
X155286618Y-69955689D01*
X155311169Y-70001621D01*
X155326290Y-70051470D01*
X155332000Y-70109444D01*
X155332000Y-71114556D01*
X155326290Y-71172530D01*
X155311169Y-71222379D01*
X155286618Y-71268311D01*
X155253574Y-71308574D01*
X155213311Y-71341618D01*
X155167379Y-71366169D01*
X155117530Y-71381290D01*
X155059556Y-71387000D01*
X153804444Y-71387000D01*
X153746470Y-71381290D01*
X153696621Y-71366169D01*
X153650689Y-71341618D01*
X153610426Y-71308574D01*
X153577382Y-71268311D01*
X153552831Y-71222379D01*
X153537710Y-71172530D01*
X153532000Y-71114556D01*
X153532000Y-70109444D01*
X153537710Y-70051470D01*
X153552831Y-70001621D01*
X153577382Y-69955689D01*
X153610426Y-69915426D01*
X153650689Y-69882382D01*
X153696621Y-69857831D01*
X153746470Y-69842710D01*
X153804444Y-69837000D01*
X155059556Y-69837000D01*
X155117530Y-69842710D01*
X155117530Y-69842710D01*
G37*
G36*
X152856000Y-71067000D02*
X150936000Y-71067000D01*
X150936000Y-67617000D01*
X152856000Y-67617000D01*
X152856000Y-71067000D01*
X152856000Y-71067000D01*
G37*
G36*
X150566000Y-71067000D02*
X148646000Y-71067000D01*
X148646000Y-67617000D01*
X150566000Y-67617000D01*
X150566000Y-71067000D01*
X150566000Y-71067000D01*
G37*
G36*
X160852530Y-69209710D02*
X160902379Y-69224831D01*
X160948311Y-69249382D01*
X160988574Y-69282426D01*
X161021618Y-69322689D01*
X161046169Y-69368621D01*
X161061290Y-69418470D01*
X161067000Y-69476444D01*
X161067000Y-70731556D01*
X161061290Y-70789530D01*
X161046169Y-70839379D01*
X161021618Y-70885311D01*
X160988574Y-70925574D01*
X160948311Y-70958618D01*
X160902379Y-70983169D01*
X160852530Y-70998290D01*
X160794556Y-71004000D01*
X159789444Y-71004000D01*
X159731470Y-70998290D01*
X159681621Y-70983169D01*
X159635689Y-70958618D01*
X159595426Y-70925574D01*
X159562382Y-70885311D01*
X159537831Y-70839379D01*
X159522710Y-70789530D01*
X159517000Y-70731556D01*
X159517000Y-69476444D01*
X159522710Y-69418470D01*
X159537831Y-69368621D01*
X159562382Y-69322689D01*
X159595426Y-69282426D01*
X159635689Y-69249382D01*
X159681621Y-69224831D01*
X159731470Y-69209710D01*
X159789444Y-69204000D01*
X160794556Y-69204000D01*
X160852530Y-69209710D01*
X160852530Y-69209710D01*
G37*
G36*
X158802530Y-69209710D02*
X158852379Y-69224831D01*
X158898311Y-69249382D01*
X158938574Y-69282426D01*
X158971618Y-69322689D01*
X158996169Y-69368621D01*
X159011290Y-69418470D01*
X159017000Y-69476444D01*
X159017000Y-70731556D01*
X159011290Y-70789530D01*
X158996169Y-70839379D01*
X158971618Y-70885311D01*
X158938574Y-70925574D01*
X158898311Y-70958618D01*
X158852379Y-70983169D01*
X158802530Y-70998290D01*
X158744556Y-71004000D01*
X157739444Y-71004000D01*
X157681470Y-70998290D01*
X157631621Y-70983169D01*
X157585689Y-70958618D01*
X157545426Y-70925574D01*
X157512382Y-70885311D01*
X157487831Y-70839379D01*
X157472710Y-70789530D01*
X157467000Y-70731556D01*
X157467000Y-69476444D01*
X157472710Y-69418470D01*
X157487831Y-69368621D01*
X157512382Y-69322689D01*
X157545426Y-69282426D01*
X157585689Y-69249382D01*
X157631621Y-69224831D01*
X157681470Y-69209710D01*
X157739444Y-69204000D01*
X158744556Y-69204000D01*
X158802530Y-69209710D01*
X158802530Y-69209710D01*
G37*
G36*
X155117530Y-67792710D02*
X155167379Y-67807831D01*
X155213311Y-67832382D01*
X155253574Y-67865426D01*
X155286618Y-67905689D01*
X155311169Y-67951621D01*
X155326290Y-68001470D01*
X155332000Y-68059444D01*
X155332000Y-69064556D01*
X155326290Y-69122530D01*
X155311169Y-69172379D01*
X155286618Y-69218311D01*
X155253574Y-69258574D01*
X155213311Y-69291618D01*
X155167379Y-69316169D01*
X155117530Y-69331290D01*
X155059556Y-69337000D01*
X153804444Y-69337000D01*
X153746470Y-69331290D01*
X153696621Y-69316169D01*
X153650689Y-69291618D01*
X153610426Y-69258574D01*
X153577382Y-69218311D01*
X153552831Y-69172379D01*
X153537710Y-69122530D01*
X153532000Y-69064556D01*
X153532000Y-68059444D01*
X153537710Y-68001470D01*
X153552831Y-67951621D01*
X153577382Y-67905689D01*
X153610426Y-67865426D01*
X153650689Y-67832382D01*
X153696621Y-67807831D01*
X153746470Y-67792710D01*
X153804444Y-67787000D01*
X155059556Y-67787000D01*
X155117530Y-67792710D01*
X155117530Y-67792710D01*
G37*
G36*
X140900000Y-60842500D02*
X139962551Y-60842500D01*
X139938165Y-60844902D01*
X139914716Y-60852015D01*
X139893105Y-60863566D01*
X139874163Y-60879112D01*
X139858617Y-60898054D01*
X139847066Y-60919665D01*
X139839953Y-60943114D01*
X139837551Y-60967500D01*
X139839953Y-60991886D01*
X139847066Y-61015335D01*
X139858617Y-61036946D01*
X139874163Y-61055888D01*
X139893105Y-61071434D01*
X139914716Y-61082985D01*
X139950298Y-61091898D01*
X139973429Y-61094176D01*
X140082052Y-61127126D01*
X140190677Y-61160077D01*
X140390895Y-61267096D01*
X140566384Y-61411116D01*
X140710404Y-61586605D01*
X140817423Y-61786823D01*
X140883324Y-62004072D01*
X140905576Y-62230000D01*
X140883324Y-62455928D01*
X140817423Y-62673177D01*
X140710404Y-62873395D01*
X140566384Y-63048884D01*
X140390895Y-63192904D01*
X140190677Y-63299923D01*
X140082053Y-63332873D01*
X139973429Y-63365824D01*
X139885451Y-63374489D01*
X139874151Y-63375602D01*
X139850117Y-63380383D01*
X139827478Y-63389760D01*
X139807104Y-63403374D01*
X139789777Y-63420701D01*
X139776163Y-63441076D01*
X139766785Y-63463715D01*
X139762005Y-63487748D01*
X139762005Y-63512252D01*
X139766786Y-63536286D01*
X139776163Y-63558925D01*
X139789777Y-63579299D01*
X139807104Y-63596626D01*
X139827479Y-63610240D01*
X139850118Y-63619618D01*
X139874151Y-63624398D01*
X139973429Y-63634176D01*
X140012483Y-63646023D01*
X140190677Y-63700077D01*
X140390895Y-63807096D01*
X140566384Y-63951116D01*
X140710404Y-64126605D01*
X140817423Y-64326823D01*
X140883324Y-64544072D01*
X140905576Y-64770000D01*
X140883324Y-64995928D01*
X140817423Y-65213177D01*
X140710404Y-65413395D01*
X140566384Y-65588884D01*
X140390895Y-65732904D01*
X140190677Y-65839923D01*
X140082052Y-65872874D01*
X139973429Y-65905824D01*
X139885451Y-65914489D01*
X139874151Y-65915602D01*
X139850117Y-65920383D01*
X139827478Y-65929760D01*
X139807104Y-65943374D01*
X139789777Y-65960701D01*
X139776163Y-65981076D01*
X139766785Y-66003715D01*
X139762005Y-66027748D01*
X139762005Y-66052252D01*
X139766786Y-66076286D01*
X139776163Y-66098925D01*
X139789777Y-66119299D01*
X139807104Y-66136626D01*
X139827479Y-66150240D01*
X139850118Y-66159618D01*
X139874151Y-66164398D01*
X139973429Y-66174176D01*
X140082052Y-66207126D01*
X140190677Y-66240077D01*
X140390895Y-66347096D01*
X140566384Y-66491116D01*
X140710404Y-66666605D01*
X140817423Y-66866823D01*
X140883324Y-67084072D01*
X140905576Y-67310000D01*
X140883324Y-67535928D01*
X140817423Y-67753177D01*
X140710404Y-67953395D01*
X140566384Y-68128884D01*
X140390895Y-68272904D01*
X140190677Y-68379923D01*
X140082053Y-68412873D01*
X139973429Y-68445824D01*
X139916991Y-68451383D01*
X139804116Y-68462500D01*
X139595884Y-68462500D01*
X139483009Y-68451383D01*
X139426571Y-68445824D01*
X139317947Y-68412873D01*
X139209323Y-68379923D01*
X139009105Y-68272904D01*
X138833616Y-68128884D01*
X138689596Y-67953395D01*
X138582577Y-67753177D01*
X138516676Y-67535928D01*
X138494424Y-67310000D01*
X138516676Y-67084072D01*
X138582577Y-66866823D01*
X138689596Y-66666605D01*
X138833616Y-66491116D01*
X139009105Y-66347096D01*
X139209323Y-66240077D01*
X139317948Y-66207126D01*
X139426571Y-66174176D01*
X139525849Y-66164398D01*
X139549883Y-66159617D01*
X139572522Y-66150240D01*
X139592896Y-66136626D01*
X139610223Y-66119299D01*
X139623837Y-66098924D01*
X139633215Y-66076285D01*
X139637995Y-66052252D01*
X139637995Y-66027748D01*
X139633214Y-66003714D01*
X139623837Y-65981075D01*
X139610223Y-65960701D01*
X139592896Y-65943374D01*
X139572521Y-65929760D01*
X139549882Y-65920382D01*
X139525849Y-65915602D01*
X139514549Y-65914489D01*
X139426571Y-65905824D01*
X139317947Y-65872873D01*
X139209323Y-65839923D01*
X139009105Y-65732904D01*
X138833616Y-65588884D01*
X138689596Y-65413395D01*
X138582577Y-65213177D01*
X138516676Y-64995928D01*
X138494424Y-64770000D01*
X138516676Y-64544072D01*
X138582577Y-64326823D01*
X138689596Y-64126605D01*
X138833616Y-63951116D01*
X139009105Y-63807096D01*
X139209323Y-63700077D01*
X139387517Y-63646023D01*
X139426571Y-63634176D01*
X139525849Y-63624398D01*
X139549883Y-63619617D01*
X139572522Y-63610240D01*
X139592896Y-63596626D01*
X139610223Y-63579299D01*
X139623837Y-63558924D01*
X139633215Y-63536285D01*
X139637995Y-63512252D01*
X139637995Y-63487748D01*
X139633214Y-63463714D01*
X139623837Y-63441075D01*
X139610223Y-63420701D01*
X139592896Y-63403374D01*
X139572521Y-63389760D01*
X139549882Y-63380382D01*
X139525849Y-63375602D01*
X139514549Y-63374489D01*
X139426571Y-63365824D01*
X139317947Y-63332873D01*
X139209323Y-63299923D01*
X139009105Y-63192904D01*
X138833616Y-63048884D01*
X138689596Y-62873395D01*
X138582577Y-62673177D01*
X138516676Y-62455928D01*
X138494424Y-62230000D01*
X138516676Y-62004072D01*
X138582577Y-61786823D01*
X138689596Y-61586605D01*
X138833616Y-61411116D01*
X139009105Y-61267096D01*
X139209323Y-61160077D01*
X139317948Y-61127126D01*
X139426571Y-61094176D01*
X139449702Y-61091898D01*
X139473735Y-61087117D01*
X139496374Y-61077740D01*
X139516748Y-61064126D01*
X139534075Y-61046799D01*
X139547689Y-61026424D01*
X139557067Y-61003785D01*
X139561847Y-60979752D01*
X139561847Y-60955248D01*
X139557066Y-60931214D01*
X139547689Y-60908575D01*
X139534075Y-60888201D01*
X139516748Y-60870874D01*
X139496373Y-60857260D01*
X139473734Y-60847882D01*
X139437449Y-60842500D01*
X138500000Y-60842500D01*
X138500000Y-58537500D01*
X140900000Y-58537500D01*
X140900000Y-60842500D01*
X140900000Y-60842500D01*
G37*
G36*
X157334757Y-64755482D02*
X157481512Y-64800000D01*
X157536456Y-64816667D01*
X157722337Y-64916022D01*
X157885266Y-65049735D01*
X158018979Y-65212663D01*
X158118334Y-65398544D01*
X158122250Y-65411453D01*
X158179519Y-65600243D01*
X158195001Y-65757436D01*
X158195001Y-66322563D01*
X158179519Y-66479756D01*
X158134255Y-66628970D01*
X158118334Y-66681455D01*
X158018979Y-66867337D01*
X157885266Y-67030265D01*
X157722338Y-67163978D01*
X157536457Y-67263333D01*
X157483972Y-67279254D01*
X157334758Y-67324518D01*
X157125001Y-67345177D01*
X156915245Y-67324518D01*
X156766031Y-67279254D01*
X156713546Y-67263333D01*
X156527665Y-67163978D01*
X156364737Y-67030265D01*
X156231025Y-66867338D01*
X156131667Y-66681453D01*
X156111272Y-66614220D01*
X156070483Y-66479757D01*
X156055001Y-66322564D01*
X156055001Y-65757437D01*
X156070483Y-65600244D01*
X156127752Y-65411455D01*
X156131668Y-65398545D01*
X156231023Y-65212664D01*
X156364736Y-65049735D01*
X156527664Y-64916022D01*
X156713545Y-64816667D01*
X156768489Y-64800000D01*
X156915244Y-64755482D01*
X157125001Y-64734823D01*
X157334757Y-64755482D01*
X157334757Y-64755482D01*
G37*
G36*
X159874757Y-64755482D02*
X160021512Y-64800000D01*
X160076456Y-64816667D01*
X160262337Y-64916022D01*
X160425266Y-65049735D01*
X160558979Y-65212663D01*
X160658334Y-65398544D01*
X160662250Y-65411453D01*
X160719519Y-65600243D01*
X160735001Y-65757436D01*
X160735001Y-66322563D01*
X160719519Y-66479756D01*
X160674255Y-66628970D01*
X160658334Y-66681455D01*
X160558979Y-66867337D01*
X160425266Y-67030265D01*
X160262338Y-67163978D01*
X160076457Y-67263333D01*
X160023972Y-67279254D01*
X159874758Y-67324518D01*
X159665001Y-67345177D01*
X159455245Y-67324518D01*
X159306031Y-67279254D01*
X159253546Y-67263333D01*
X159067665Y-67163978D01*
X158904737Y-67030265D01*
X158771025Y-66867338D01*
X158671667Y-66681453D01*
X158651272Y-66614220D01*
X158610483Y-66479757D01*
X158595001Y-66322564D01*
X158595001Y-65757437D01*
X158610483Y-65600244D01*
X158667752Y-65411455D01*
X158671668Y-65398545D01*
X158771023Y-65212664D01*
X158904736Y-65049735D01*
X159067664Y-64916022D01*
X159253545Y-64816667D01*
X159308489Y-64800000D01*
X159455244Y-64755482D01*
X159665001Y-64734823D01*
X159874757Y-64755482D01*
X159874757Y-64755482D01*
G37*
G36*
X155655001Y-67340000D02*
X153515001Y-67340000D01*
X153515001Y-64740000D01*
X155655001Y-64740000D01*
X155655001Y-67340000D01*
X155655001Y-67340000D01*
G37*
G36*
X125939756Y-63485482D02*
X126088970Y-63530746D01*
X126141455Y-63546667D01*
X126327336Y-63646022D01*
X126490265Y-63779735D01*
X126623978Y-63942663D01*
X126723333Y-64128544D01*
X126727249Y-64141453D01*
X126784518Y-64330243D01*
X126800000Y-64487436D01*
X126800000Y-65052563D01*
X126784518Y-65209756D01*
X126783480Y-65213177D01*
X126723333Y-65411455D01*
X126623978Y-65597337D01*
X126490265Y-65760265D01*
X126327337Y-65893978D01*
X126141456Y-65993333D01*
X126107234Y-66003714D01*
X125939757Y-66054518D01*
X125730000Y-66075177D01*
X125520244Y-66054518D01*
X125352767Y-66003714D01*
X125318545Y-65993333D01*
X125132664Y-65893978D01*
X124969736Y-65760265D01*
X124836024Y-65597338D01*
X124736666Y-65411453D01*
X124716271Y-65344220D01*
X124675482Y-65209757D01*
X124660000Y-65052564D01*
X124660000Y-64487437D01*
X124675482Y-64330244D01*
X124732751Y-64141455D01*
X124736667Y-64128545D01*
X124836022Y-63942664D01*
X124969735Y-63779735D01*
X125132663Y-63646022D01*
X125318544Y-63546667D01*
X125371029Y-63530746D01*
X125520243Y-63485482D01*
X125730000Y-63464823D01*
X125939756Y-63485482D01*
X125939756Y-63485482D01*
G37*
G36*
X132289756Y-63485482D02*
X132438970Y-63530746D01*
X132491455Y-63546667D01*
X132677336Y-63646022D01*
X132840265Y-63779735D01*
X132973978Y-63942663D01*
X133073333Y-64128544D01*
X133077249Y-64141453D01*
X133134518Y-64330243D01*
X133150000Y-64487436D01*
X133150000Y-65052563D01*
X133134518Y-65209756D01*
X133133480Y-65213177D01*
X133073333Y-65411455D01*
X132973978Y-65597337D01*
X132840265Y-65760265D01*
X132677337Y-65893978D01*
X132491456Y-65993333D01*
X132457234Y-66003714D01*
X132289757Y-66054518D01*
X132080000Y-66075177D01*
X131870244Y-66054518D01*
X131702767Y-66003714D01*
X131668545Y-65993333D01*
X131482664Y-65893978D01*
X131319736Y-65760265D01*
X131186024Y-65597338D01*
X131086666Y-65411453D01*
X131066271Y-65344220D01*
X131025482Y-65209757D01*
X131010000Y-65052564D01*
X131010000Y-64487437D01*
X131025482Y-64330244D01*
X131082751Y-64141455D01*
X131086667Y-64128545D01*
X131186022Y-63942664D01*
X131319735Y-63779735D01*
X131482663Y-63646022D01*
X131668544Y-63546667D01*
X131721029Y-63530746D01*
X131870243Y-63485482D01*
X132080000Y-63464823D01*
X132289756Y-63485482D01*
X132289756Y-63485482D01*
G37*
G36*
X130610000Y-66070000D02*
X128470000Y-66070000D01*
X128470000Y-63470000D01*
X130610000Y-63470000D01*
X130610000Y-66070000D01*
X130610000Y-66070000D01*
G37*
G36*
X124260000Y-66070000D02*
X122120000Y-66070000D01*
X122120000Y-63470000D01*
X124260000Y-63470000D01*
X124260000Y-66070000D01*
X124260000Y-66070000D01*
G37*
G36*
X150069756Y-62215482D02*
X150218970Y-62260746D01*
X150271455Y-62276667D01*
X150457336Y-62376022D01*
X150620265Y-62509735D01*
X150753978Y-62672663D01*
X150853333Y-62858544D01*
X150857837Y-62873393D01*
X150914518Y-63060243D01*
X150930000Y-63217436D01*
X150930000Y-63782563D01*
X150914518Y-63939756D01*
X150869254Y-64088970D01*
X150853333Y-64141455D01*
X150753978Y-64327337D01*
X150620265Y-64490265D01*
X150457337Y-64623978D01*
X150271456Y-64723333D01*
X150233578Y-64734823D01*
X150069757Y-64784518D01*
X149860000Y-64805177D01*
X149650244Y-64784518D01*
X149486423Y-64734823D01*
X149448545Y-64723333D01*
X149262664Y-64623978D01*
X149099736Y-64490265D01*
X148966024Y-64327338D01*
X148866666Y-64141453D01*
X148846271Y-64074220D01*
X148805482Y-63939757D01*
X148790000Y-63782564D01*
X148790000Y-63217437D01*
X148805482Y-63060244D01*
X148866666Y-62858549D01*
X148866667Y-62858545D01*
X148966022Y-62672664D01*
X149099735Y-62509735D01*
X149262663Y-62376022D01*
X149448544Y-62276667D01*
X149501029Y-62260746D01*
X149650243Y-62215482D01*
X149860000Y-62194823D01*
X150069756Y-62215482D01*
X150069756Y-62215482D01*
G37*
G36*
X148390000Y-64800000D02*
X146250000Y-64800000D01*
X146250000Y-62200000D01*
X148390000Y-62200000D01*
X148390000Y-64800000D01*
X148390000Y-64800000D01*
G37*
G36*
X125939756Y-52055482D02*
X126088970Y-52100746D01*
X126141455Y-52116667D01*
X126327336Y-52216022D01*
X126490265Y-52349735D01*
X126623978Y-52512663D01*
X126723333Y-52698544D01*
X126727178Y-52711219D01*
X126784518Y-52900243D01*
X126800000Y-53057436D01*
X126800000Y-53622563D01*
X126784518Y-53779756D01*
X126747119Y-53903044D01*
X126723333Y-53981455D01*
X126623978Y-54167337D01*
X126490265Y-54330265D01*
X126327337Y-54463978D01*
X126141456Y-54563333D01*
X126088971Y-54579254D01*
X125939757Y-54624518D01*
X125730000Y-54645177D01*
X125520244Y-54624518D01*
X125371030Y-54579254D01*
X125318545Y-54563333D01*
X125132664Y-54463978D01*
X124969736Y-54330265D01*
X124836024Y-54167338D01*
X124736666Y-53981453D01*
X124712881Y-53903044D01*
X124675482Y-53779757D01*
X124660000Y-53622564D01*
X124660000Y-53057437D01*
X124675482Y-52900244D01*
X124732451Y-52712444D01*
X124736667Y-52698545D01*
X124836022Y-52512664D01*
X124969735Y-52349735D01*
X125132663Y-52216022D01*
X125318544Y-52116667D01*
X125371029Y-52100746D01*
X125520243Y-52055482D01*
X125730000Y-52034823D01*
X125939756Y-52055482D01*
X125939756Y-52055482D01*
G37*
G36*
X132289756Y-52055482D02*
X132438970Y-52100746D01*
X132491455Y-52116667D01*
X132677336Y-52216022D01*
X132840265Y-52349735D01*
X132973978Y-52512663D01*
X133073333Y-52698544D01*
X133077178Y-52711219D01*
X133134518Y-52900243D01*
X133150000Y-53057436D01*
X133150000Y-53622563D01*
X133134518Y-53779756D01*
X133097119Y-53903044D01*
X133073333Y-53981455D01*
X132973978Y-54167337D01*
X132840265Y-54330265D01*
X132677337Y-54463978D01*
X132491456Y-54563333D01*
X132438971Y-54579254D01*
X132289757Y-54624518D01*
X132080000Y-54645177D01*
X131870244Y-54624518D01*
X131721030Y-54579254D01*
X131668545Y-54563333D01*
X131482664Y-54463978D01*
X131319736Y-54330265D01*
X131186024Y-54167338D01*
X131086666Y-53981453D01*
X131062881Y-53903044D01*
X131025482Y-53779757D01*
X131010000Y-53622564D01*
X131010000Y-53057437D01*
X131025482Y-52900244D01*
X131082451Y-52712444D01*
X131086667Y-52698545D01*
X131186022Y-52512664D01*
X131319735Y-52349735D01*
X131482663Y-52216022D01*
X131668544Y-52116667D01*
X131721029Y-52100746D01*
X131870243Y-52055482D01*
X132080000Y-52034823D01*
X132289756Y-52055482D01*
X132289756Y-52055482D01*
G37*
G36*
X159594756Y-52055482D02*
X159743970Y-52100746D01*
X159796455Y-52116667D01*
X159982336Y-52216022D01*
X160145265Y-52349735D01*
X160278978Y-52512663D01*
X160378333Y-52698544D01*
X160382178Y-52711219D01*
X160439518Y-52900243D01*
X160455000Y-53057436D01*
X160455000Y-53622563D01*
X160439518Y-53779756D01*
X160402119Y-53903044D01*
X160378333Y-53981455D01*
X160278978Y-54167337D01*
X160145265Y-54330265D01*
X159982337Y-54463978D01*
X159796456Y-54563333D01*
X159743971Y-54579254D01*
X159594757Y-54624518D01*
X159385000Y-54645177D01*
X159175244Y-54624518D01*
X159026030Y-54579254D01*
X158973545Y-54563333D01*
X158787664Y-54463978D01*
X158624736Y-54330265D01*
X158491024Y-54167338D01*
X158391666Y-53981453D01*
X158367881Y-53903044D01*
X158330482Y-53779757D01*
X158315000Y-53622564D01*
X158315000Y-53057437D01*
X158330482Y-52900244D01*
X158387451Y-52712444D01*
X158391667Y-52698545D01*
X158491022Y-52512664D01*
X158624735Y-52349735D01*
X158787663Y-52216022D01*
X158973544Y-52116667D01*
X159026029Y-52100746D01*
X159175243Y-52055482D01*
X159385000Y-52034823D01*
X159594756Y-52055482D01*
X159594756Y-52055482D01*
G37*
G36*
X124260000Y-54640000D02*
X122120000Y-54640000D01*
X122120000Y-52040000D01*
X124260000Y-52040000D01*
X124260000Y-54640000D01*
X124260000Y-54640000D01*
G37*
G36*
X130610000Y-54640000D02*
X128470000Y-54640000D01*
X128470000Y-52040000D01*
X130610000Y-52040000D01*
X130610000Y-54640000D01*
X130610000Y-54640000D01*
G37*
G36*
X157915000Y-54640000D02*
X155775000Y-54640000D01*
X155775000Y-52040000D01*
X157915000Y-52040000D01*
X157915000Y-54640000D01*
X157915000Y-54640000D01*
G37*
G36*
X143308530Y-52445710D02*
X143358379Y-52460831D01*
X143404311Y-52485382D01*
X143444574Y-52518426D01*
X143477618Y-52558689D01*
X143502169Y-52604621D01*
X143517290Y-52654470D01*
X143523000Y-52712444D01*
X143523000Y-53967556D01*
X143517290Y-54025530D01*
X143502169Y-54075379D01*
X143477618Y-54121311D01*
X143444574Y-54161574D01*
X143404311Y-54194618D01*
X143358379Y-54219169D01*
X143308530Y-54234290D01*
X143250556Y-54240000D01*
X142245444Y-54240000D01*
X142187470Y-54234290D01*
X142137621Y-54219169D01*
X142091689Y-54194618D01*
X142051426Y-54161574D01*
X142018382Y-54121311D01*
X141993831Y-54075379D01*
X141978710Y-54025530D01*
X141973000Y-53967556D01*
X141973000Y-52712444D01*
X141978710Y-52654470D01*
X141993831Y-52604621D01*
X142018382Y-52558689D01*
X142051426Y-52518426D01*
X142091689Y-52485382D01*
X142137621Y-52460831D01*
X142187470Y-52445710D01*
X142245444Y-52440000D01*
X143250556Y-52440000D01*
X143308530Y-52445710D01*
X143308530Y-52445710D01*
G37*
G36*
X145358530Y-52445710D02*
X145408379Y-52460831D01*
X145454311Y-52485382D01*
X145494574Y-52518426D01*
X145527618Y-52558689D01*
X145552169Y-52604621D01*
X145567290Y-52654470D01*
X145573000Y-52712444D01*
X145573000Y-53967556D01*
X145567290Y-54025530D01*
X145552169Y-54075379D01*
X145527618Y-54121311D01*
X145494574Y-54161574D01*
X145454311Y-54194618D01*
X145408379Y-54219169D01*
X145358530Y-54234290D01*
X145300556Y-54240000D01*
X144295444Y-54240000D01*
X144237470Y-54234290D01*
X144187621Y-54219169D01*
X144141689Y-54194618D01*
X144101426Y-54161574D01*
X144068382Y-54121311D01*
X144043831Y-54075379D01*
X144028710Y-54025530D01*
X144023000Y-53967556D01*
X144023000Y-52712444D01*
X144028710Y-52654470D01*
X144043831Y-52604621D01*
X144068382Y-52558689D01*
X144101426Y-52518426D01*
X144141689Y-52485382D01*
X144187621Y-52460831D01*
X144237470Y-52445710D01*
X144295444Y-52440000D01*
X145300556Y-52440000D01*
X145358530Y-52445710D01*
X145358530Y-52445710D01*
G37*
M02*
