G04 #@! TF.GenerationSoftware,KiCad,Pcbnew,5.0.1*
G04 #@! TF.CreationDate,2019-02-04T15:42:07-06:00*
G04 #@! TF.ProjectId,PowerRDP,506F7765725244502E6B696361645F70,2*
G04 #@! TF.SameCoordinates,Original*
G04 #@! TF.FileFunction,Paste,Top*
G04 #@! TF.FilePolarity,Positive*
%FSLAX46Y46*%
G04 Gerber Fmt 4.6, Leading zero omitted, Abs format (unit mm)*
G04 Created by KiCad (PCBNEW 5.0.1) date Mon 04 Feb 2019 03:42:07 PM CST*
%MOMM*%
%LPD*%
G01*
G04 APERTURE LIST*
%ADD10R,1.300000X1.600000*%
%ADD11R,2.000000X1.600000*%
%ADD12R,5.250000X4.550000*%
%ADD13R,1.100000X4.600000*%
%ADD14R,1.200000X0.900000*%
%ADD15R,1.600000X3.500000*%
%ADD16R,2.500000X3.500000*%
G04 APERTURE END LIST*
D10*
G04 #@! TO.C,RV1*
X141264000Y-88392000D03*
D11*
X142514000Y-85492000D03*
D10*
X143764000Y-88392000D03*
G04 #@! TD*
D12*
G04 #@! TO.C,U2*
X106210000Y-73152000D03*
X111760000Y-78002000D03*
X111760000Y-73152000D03*
X106210000Y-78002000D03*
D13*
X105585000Y-66427000D03*
X107285000Y-66427000D03*
X108985000Y-66427000D03*
X110685000Y-66427000D03*
X112385000Y-66427000D03*
G04 #@! TD*
G04 #@! TO.C,U3*
X125320000Y-66542000D03*
X123620000Y-66542000D03*
X121920000Y-66542000D03*
X120220000Y-66542000D03*
X118520000Y-66542000D03*
D12*
X119145000Y-78117000D03*
X124695000Y-73267000D03*
X124695000Y-78117000D03*
X119145000Y-73267000D03*
G04 #@! TD*
D13*
G04 #@! TO.C,U4*
X138528000Y-66542000D03*
X136828000Y-66542000D03*
X135128000Y-66542000D03*
X133428000Y-66542000D03*
X131728000Y-66542000D03*
D12*
X132353000Y-78117000D03*
X137903000Y-73267000D03*
X137903000Y-78117000D03*
X132353000Y-73267000D03*
G04 #@! TD*
D14*
G04 #@! TO.C,D1*
X110744000Y-62738000D03*
X110744000Y-59438000D03*
G04 #@! TD*
G04 #@! TO.C,D2*
X123698000Y-59436000D03*
X123698000Y-62736000D03*
G04 #@! TD*
G04 #@! TO.C,D3*
X136906000Y-62738000D03*
X136906000Y-59438000D03*
G04 #@! TD*
D15*
G04 #@! TO.C,C3*
X115570000Y-61722000D03*
X115570000Y-56322000D03*
G04 #@! TD*
G04 #@! TO.C,C4*
X128524000Y-56322000D03*
X128524000Y-61722000D03*
G04 #@! TD*
G04 #@! TO.C,C5*
X141732000Y-56322000D03*
X141732000Y-61722000D03*
G04 #@! TD*
D16*
G04 #@! TO.C,C6*
X101600000Y-62484000D03*
X101600000Y-55984000D03*
G04 #@! TD*
G04 #@! TO.C,C7*
X121920000Y-48364000D03*
X121920000Y-54864000D03*
G04 #@! TD*
G04 #@! TO.C,C8*
X135128000Y-55118000D03*
X135128000Y-48618000D03*
G04 #@! TD*
M02*
