%TF.GenerationSoftware,KiCad,Pcbnew,5.0.1*%
%TF.CreationDate,2019-02-02T13:29:00-06:00*%
%TF.ProjectId,PowerRDP,506F7765725244502E6B696361645F70,01*%
%TF.SameCoordinates,Original*%
%TF.FileFunction,Copper,L1,Top,Signal*%
%TF.FilePolarity,Positive*%
%FSLAX46Y46*%
G04 Gerber Fmt 4.6, Leading zero omitted, Abs format (unit mm)*
G04 Created by KiCad (PCBNEW 5.0.1) date Sat 02 Feb 2019 01:29:00 PM CST*
%MOMM*%
%LPD*%
G01*
G04 APERTURE LIST*
%ADD10C,0.100000*%
%ADD11C,1.740000*%
%ADD12O,2.200000X1.740000*%
%ADD13R,2.000000X1.500000*%
%ADD14R,2.000000X3.800000*%
%ADD15O,2.000000X1.905000*%
%ADD16R,2.000000X1.905000*%
%ADD17O,1.740000X2.200000*%
%ADD18R,1.740000X2.200000*%
%ADD19C,1.150000*%
%ADD20C,4.000000*%
%ADD21R,1.600000X1.300000*%
%ADD22R,1.600000X2.000000*%
%ADD23C,1.700000*%
%ADD24C,0.800000*%
%ADD25C,0.500000*%
%ADD26C,0.250000*%
%ADD27C,0.254000*%
G04 APERTURE END LIST*
D10*
G36*
X166228505Y-77871204D02*
X166252773Y-77874804D01*
X166276572Y-77880765D01*
X166299671Y-77889030D01*
X166321850Y-77899520D01*
X166342893Y-77912132D01*
X166362599Y-77926747D01*
X166380777Y-77943223D01*
X166397253Y-77961401D01*
X166411868Y-77981107D01*
X166424480Y-78002150D01*
X166434970Y-78024329D01*
X166443235Y-78047428D01*
X166449196Y-78071227D01*
X166452796Y-78095495D01*
X166454000Y-78119999D01*
X166454000Y-79360001D01*
X166452796Y-79384505D01*
X166449196Y-79408773D01*
X166443235Y-79432572D01*
X166434970Y-79455671D01*
X166424480Y-79477850D01*
X166411868Y-79498893D01*
X166397253Y-79518599D01*
X166380777Y-79536777D01*
X166362599Y-79553253D01*
X166342893Y-79567868D01*
X166321850Y-79580480D01*
X166299671Y-79590970D01*
X166276572Y-79599235D01*
X166252773Y-79605196D01*
X166228505Y-79608796D01*
X166204001Y-79610000D01*
X164503999Y-79610000D01*
X164479495Y-79608796D01*
X164455227Y-79605196D01*
X164431428Y-79599235D01*
X164408329Y-79590970D01*
X164386150Y-79580480D01*
X164365107Y-79567868D01*
X164345401Y-79553253D01*
X164327223Y-79536777D01*
X164310747Y-79518599D01*
X164296132Y-79498893D01*
X164283520Y-79477850D01*
X164273030Y-79455671D01*
X164264765Y-79432572D01*
X164258804Y-79408773D01*
X164255204Y-79384505D01*
X164254000Y-79360001D01*
X164254000Y-78119999D01*
X164255204Y-78095495D01*
X164258804Y-78071227D01*
X164264765Y-78047428D01*
X164273030Y-78024329D01*
X164283520Y-78002150D01*
X164296132Y-77981107D01*
X164310747Y-77961401D01*
X164327223Y-77943223D01*
X164345401Y-77926747D01*
X164365107Y-77912132D01*
X164386150Y-77899520D01*
X164408329Y-77889030D01*
X164431428Y-77880765D01*
X164455227Y-77874804D01*
X164479495Y-77871204D01*
X164503999Y-77870000D01*
X166204001Y-77870000D01*
X166228505Y-77871204D01*
X166228505Y-77871204D01*
G37*
D11*
X165354000Y-78740000D03*
D12*
X165354000Y-76200000D03*
X165354000Y-73660000D03*
X165354000Y-71120000D03*
X165354000Y-68580000D03*
D13*
X139090000Y-51040000D03*
X139090000Y-55640000D03*
X139090000Y-53340000D03*
D14*
X145390000Y-53340000D03*
D15*
X141732000Y-67818000D03*
X141732000Y-65278000D03*
X141732000Y-62738000D03*
D16*
X141732000Y-60198000D03*
D17*
X125730000Y-76200000D03*
D18*
X123190000Y-76200000D03*
D17*
X132080000Y-76200000D03*
D18*
X129540000Y-76200000D03*
D17*
X125730000Y-64770000D03*
D18*
X123190000Y-64770000D03*
D17*
X132080000Y-64770000D03*
D18*
X129540000Y-64770000D03*
D17*
X125730000Y-53340000D03*
D18*
X123190000Y-53340000D03*
D17*
X132080000Y-53340000D03*
D18*
X129540000Y-53340000D03*
D17*
X159385000Y-53340000D03*
D18*
X156845000Y-53340000D03*
D17*
X151638000Y-64008000D03*
D18*
X149098000Y-64008000D03*
D10*
G36*
X136221505Y-58728204D02*
X136245773Y-58731804D01*
X136269572Y-58737765D01*
X136292671Y-58746030D01*
X136314850Y-58756520D01*
X136335893Y-58769132D01*
X136355599Y-58783747D01*
X136373777Y-58800223D01*
X136390253Y-58818401D01*
X136404868Y-58838107D01*
X136417480Y-58859150D01*
X136427970Y-58881329D01*
X136436235Y-58904428D01*
X136442196Y-58928227D01*
X136445796Y-58952495D01*
X136447000Y-58976999D01*
X136447000Y-59877001D01*
X136445796Y-59901505D01*
X136442196Y-59925773D01*
X136436235Y-59949572D01*
X136427970Y-59972671D01*
X136417480Y-59994850D01*
X136404868Y-60015893D01*
X136390253Y-60035599D01*
X136373777Y-60053777D01*
X136355599Y-60070253D01*
X136335893Y-60084868D01*
X136314850Y-60097480D01*
X136292671Y-60107970D01*
X136269572Y-60116235D01*
X136245773Y-60122196D01*
X136221505Y-60125796D01*
X136197001Y-60127000D01*
X135546999Y-60127000D01*
X135522495Y-60125796D01*
X135498227Y-60122196D01*
X135474428Y-60116235D01*
X135451329Y-60107970D01*
X135429150Y-60097480D01*
X135408107Y-60084868D01*
X135388401Y-60070253D01*
X135370223Y-60053777D01*
X135353747Y-60035599D01*
X135339132Y-60015893D01*
X135326520Y-59994850D01*
X135316030Y-59972671D01*
X135307765Y-59949572D01*
X135301804Y-59925773D01*
X135298204Y-59901505D01*
X135297000Y-59877001D01*
X135297000Y-58976999D01*
X135298204Y-58952495D01*
X135301804Y-58928227D01*
X135307765Y-58904428D01*
X135316030Y-58881329D01*
X135326520Y-58859150D01*
X135339132Y-58838107D01*
X135353747Y-58818401D01*
X135370223Y-58800223D01*
X135388401Y-58783747D01*
X135408107Y-58769132D01*
X135429150Y-58756520D01*
X135451329Y-58746030D01*
X135474428Y-58737765D01*
X135498227Y-58731804D01*
X135522495Y-58728204D01*
X135546999Y-58727000D01*
X136197001Y-58727000D01*
X136221505Y-58728204D01*
X136221505Y-58728204D01*
G37*
D19*
X135872000Y-59427000D03*
D10*
G36*
X138271505Y-58728204D02*
X138295773Y-58731804D01*
X138319572Y-58737765D01*
X138342671Y-58746030D01*
X138364850Y-58756520D01*
X138385893Y-58769132D01*
X138405599Y-58783747D01*
X138423777Y-58800223D01*
X138440253Y-58818401D01*
X138454868Y-58838107D01*
X138467480Y-58859150D01*
X138477970Y-58881329D01*
X138486235Y-58904428D01*
X138492196Y-58928227D01*
X138495796Y-58952495D01*
X138497000Y-58976999D01*
X138497000Y-59877001D01*
X138495796Y-59901505D01*
X138492196Y-59925773D01*
X138486235Y-59949572D01*
X138477970Y-59972671D01*
X138467480Y-59994850D01*
X138454868Y-60015893D01*
X138440253Y-60035599D01*
X138423777Y-60053777D01*
X138405599Y-60070253D01*
X138385893Y-60084868D01*
X138364850Y-60097480D01*
X138342671Y-60107970D01*
X138319572Y-60116235D01*
X138295773Y-60122196D01*
X138271505Y-60125796D01*
X138247001Y-60127000D01*
X137596999Y-60127000D01*
X137572495Y-60125796D01*
X137548227Y-60122196D01*
X137524428Y-60116235D01*
X137501329Y-60107970D01*
X137479150Y-60097480D01*
X137458107Y-60084868D01*
X137438401Y-60070253D01*
X137420223Y-60053777D01*
X137403747Y-60035599D01*
X137389132Y-60015893D01*
X137376520Y-59994850D01*
X137366030Y-59972671D01*
X137357765Y-59949572D01*
X137351804Y-59925773D01*
X137348204Y-59901505D01*
X137347000Y-59877001D01*
X137347000Y-58976999D01*
X137348204Y-58952495D01*
X137351804Y-58928227D01*
X137357765Y-58904428D01*
X137366030Y-58881329D01*
X137376520Y-58859150D01*
X137389132Y-58838107D01*
X137403747Y-58818401D01*
X137420223Y-58800223D01*
X137438401Y-58783747D01*
X137458107Y-58769132D01*
X137479150Y-58756520D01*
X137501329Y-58746030D01*
X137524428Y-58737765D01*
X137548227Y-58731804D01*
X137572495Y-58728204D01*
X137596999Y-58727000D01*
X138247001Y-58727000D01*
X138271505Y-58728204D01*
X138271505Y-58728204D01*
G37*
D19*
X137922000Y-59427000D03*
D10*
G36*
X148685505Y-58229204D02*
X148709773Y-58232804D01*
X148733572Y-58238765D01*
X148756671Y-58247030D01*
X148778850Y-58257520D01*
X148799893Y-58270132D01*
X148819599Y-58284747D01*
X148837777Y-58301223D01*
X148854253Y-58319401D01*
X148868868Y-58339107D01*
X148881480Y-58360150D01*
X148891970Y-58382329D01*
X148900235Y-58405428D01*
X148906196Y-58429227D01*
X148909796Y-58453495D01*
X148911000Y-58477999D01*
X148911000Y-59378001D01*
X148909796Y-59402505D01*
X148906196Y-59426773D01*
X148900235Y-59450572D01*
X148891970Y-59473671D01*
X148881480Y-59495850D01*
X148868868Y-59516893D01*
X148854253Y-59536599D01*
X148837777Y-59554777D01*
X148819599Y-59571253D01*
X148799893Y-59585868D01*
X148778850Y-59598480D01*
X148756671Y-59608970D01*
X148733572Y-59617235D01*
X148709773Y-59623196D01*
X148685505Y-59626796D01*
X148661001Y-59628000D01*
X148010999Y-59628000D01*
X147986495Y-59626796D01*
X147962227Y-59623196D01*
X147938428Y-59617235D01*
X147915329Y-59608970D01*
X147893150Y-59598480D01*
X147872107Y-59585868D01*
X147852401Y-59571253D01*
X147834223Y-59554777D01*
X147817747Y-59536599D01*
X147803132Y-59516893D01*
X147790520Y-59495850D01*
X147780030Y-59473671D01*
X147771765Y-59450572D01*
X147765804Y-59426773D01*
X147762204Y-59402505D01*
X147761000Y-59378001D01*
X147761000Y-58477999D01*
X147762204Y-58453495D01*
X147765804Y-58429227D01*
X147771765Y-58405428D01*
X147780030Y-58382329D01*
X147790520Y-58360150D01*
X147803132Y-58339107D01*
X147817747Y-58319401D01*
X147834223Y-58301223D01*
X147852401Y-58284747D01*
X147872107Y-58270132D01*
X147893150Y-58257520D01*
X147915329Y-58247030D01*
X147938428Y-58238765D01*
X147962227Y-58232804D01*
X147986495Y-58229204D01*
X148010999Y-58228000D01*
X148661001Y-58228000D01*
X148685505Y-58229204D01*
X148685505Y-58229204D01*
G37*
D19*
X148336000Y-58928000D03*
D10*
G36*
X146635505Y-58229204D02*
X146659773Y-58232804D01*
X146683572Y-58238765D01*
X146706671Y-58247030D01*
X146728850Y-58257520D01*
X146749893Y-58270132D01*
X146769599Y-58284747D01*
X146787777Y-58301223D01*
X146804253Y-58319401D01*
X146818868Y-58339107D01*
X146831480Y-58360150D01*
X146841970Y-58382329D01*
X146850235Y-58405428D01*
X146856196Y-58429227D01*
X146859796Y-58453495D01*
X146861000Y-58477999D01*
X146861000Y-59378001D01*
X146859796Y-59402505D01*
X146856196Y-59426773D01*
X146850235Y-59450572D01*
X146841970Y-59473671D01*
X146831480Y-59495850D01*
X146818868Y-59516893D01*
X146804253Y-59536599D01*
X146787777Y-59554777D01*
X146769599Y-59571253D01*
X146749893Y-59585868D01*
X146728850Y-59598480D01*
X146706671Y-59608970D01*
X146683572Y-59617235D01*
X146659773Y-59623196D01*
X146635505Y-59626796D01*
X146611001Y-59628000D01*
X145960999Y-59628000D01*
X145936495Y-59626796D01*
X145912227Y-59623196D01*
X145888428Y-59617235D01*
X145865329Y-59608970D01*
X145843150Y-59598480D01*
X145822107Y-59585868D01*
X145802401Y-59571253D01*
X145784223Y-59554777D01*
X145767747Y-59536599D01*
X145753132Y-59516893D01*
X145740520Y-59495850D01*
X145730030Y-59473671D01*
X145721765Y-59450572D01*
X145715804Y-59426773D01*
X145712204Y-59402505D01*
X145711000Y-59378001D01*
X145711000Y-58477999D01*
X145712204Y-58453495D01*
X145715804Y-58429227D01*
X145721765Y-58405428D01*
X145730030Y-58382329D01*
X145740520Y-58360150D01*
X145753132Y-58339107D01*
X145767747Y-58319401D01*
X145784223Y-58301223D01*
X145802401Y-58284747D01*
X145822107Y-58270132D01*
X145843150Y-58257520D01*
X145865329Y-58247030D01*
X145888428Y-58238765D01*
X145912227Y-58232804D01*
X145936495Y-58229204D01*
X145960999Y-58228000D01*
X146611001Y-58228000D01*
X146635505Y-58229204D01*
X146635505Y-58229204D01*
G37*
D19*
X146286000Y-58928000D03*
D10*
G36*
X136364505Y-54816204D02*
X136388773Y-54819804D01*
X136412572Y-54825765D01*
X136435671Y-54834030D01*
X136457850Y-54844520D01*
X136478893Y-54857132D01*
X136498599Y-54871747D01*
X136516777Y-54888223D01*
X136533253Y-54906401D01*
X136547868Y-54926107D01*
X136560480Y-54947150D01*
X136570970Y-54969329D01*
X136579235Y-54992428D01*
X136585196Y-55016227D01*
X136588796Y-55040495D01*
X136590000Y-55064999D01*
X136590000Y-55715001D01*
X136588796Y-55739505D01*
X136585196Y-55763773D01*
X136579235Y-55787572D01*
X136570970Y-55810671D01*
X136560480Y-55832850D01*
X136547868Y-55853893D01*
X136533253Y-55873599D01*
X136516777Y-55891777D01*
X136498599Y-55908253D01*
X136478893Y-55922868D01*
X136457850Y-55935480D01*
X136435671Y-55945970D01*
X136412572Y-55954235D01*
X136388773Y-55960196D01*
X136364505Y-55963796D01*
X136340001Y-55965000D01*
X135439999Y-55965000D01*
X135415495Y-55963796D01*
X135391227Y-55960196D01*
X135367428Y-55954235D01*
X135344329Y-55945970D01*
X135322150Y-55935480D01*
X135301107Y-55922868D01*
X135281401Y-55908253D01*
X135263223Y-55891777D01*
X135246747Y-55873599D01*
X135232132Y-55853893D01*
X135219520Y-55832850D01*
X135209030Y-55810671D01*
X135200765Y-55787572D01*
X135194804Y-55763773D01*
X135191204Y-55739505D01*
X135190000Y-55715001D01*
X135190000Y-55064999D01*
X135191204Y-55040495D01*
X135194804Y-55016227D01*
X135200765Y-54992428D01*
X135209030Y-54969329D01*
X135219520Y-54947150D01*
X135232132Y-54926107D01*
X135246747Y-54906401D01*
X135263223Y-54888223D01*
X135281401Y-54871747D01*
X135301107Y-54857132D01*
X135322150Y-54844520D01*
X135344329Y-54834030D01*
X135367428Y-54825765D01*
X135391227Y-54819804D01*
X135415495Y-54816204D01*
X135439999Y-54815000D01*
X136340001Y-54815000D01*
X136364505Y-54816204D01*
X136364505Y-54816204D01*
G37*
D19*
X135890000Y-55390000D03*
D10*
G36*
X136364505Y-52766204D02*
X136388773Y-52769804D01*
X136412572Y-52775765D01*
X136435671Y-52784030D01*
X136457850Y-52794520D01*
X136478893Y-52807132D01*
X136498599Y-52821747D01*
X136516777Y-52838223D01*
X136533253Y-52856401D01*
X136547868Y-52876107D01*
X136560480Y-52897150D01*
X136570970Y-52919329D01*
X136579235Y-52942428D01*
X136585196Y-52966227D01*
X136588796Y-52990495D01*
X136590000Y-53014999D01*
X136590000Y-53665001D01*
X136588796Y-53689505D01*
X136585196Y-53713773D01*
X136579235Y-53737572D01*
X136570970Y-53760671D01*
X136560480Y-53782850D01*
X136547868Y-53803893D01*
X136533253Y-53823599D01*
X136516777Y-53841777D01*
X136498599Y-53858253D01*
X136478893Y-53872868D01*
X136457850Y-53885480D01*
X136435671Y-53895970D01*
X136412572Y-53904235D01*
X136388773Y-53910196D01*
X136364505Y-53913796D01*
X136340001Y-53915000D01*
X135439999Y-53915000D01*
X135415495Y-53913796D01*
X135391227Y-53910196D01*
X135367428Y-53904235D01*
X135344329Y-53895970D01*
X135322150Y-53885480D01*
X135301107Y-53872868D01*
X135281401Y-53858253D01*
X135263223Y-53841777D01*
X135246747Y-53823599D01*
X135232132Y-53803893D01*
X135219520Y-53782850D01*
X135209030Y-53760671D01*
X135200765Y-53737572D01*
X135194804Y-53713773D01*
X135191204Y-53689505D01*
X135190000Y-53665001D01*
X135190000Y-53014999D01*
X135191204Y-52990495D01*
X135194804Y-52966227D01*
X135200765Y-52942428D01*
X135209030Y-52919329D01*
X135219520Y-52897150D01*
X135232132Y-52876107D01*
X135246747Y-52856401D01*
X135263223Y-52838223D01*
X135281401Y-52821747D01*
X135301107Y-52807132D01*
X135322150Y-52794520D01*
X135344329Y-52784030D01*
X135367428Y-52775765D01*
X135391227Y-52769804D01*
X135415495Y-52766204D01*
X135439999Y-52765000D01*
X136340001Y-52765000D01*
X136364505Y-52766204D01*
X136364505Y-52766204D01*
G37*
D19*
X135890000Y-53340000D03*
D20*
X151130000Y-50800000D03*
X127635000Y-70485000D03*
X127635000Y-59055000D03*
D21*
X166878000Y-63246000D03*
D22*
X163978000Y-61996000D03*
D21*
X166878000Y-60746000D03*
D17*
X166878000Y-53340000D03*
D10*
G36*
X164982505Y-52241204D02*
X165006773Y-52244804D01*
X165030572Y-52250765D01*
X165053671Y-52259030D01*
X165075850Y-52269520D01*
X165096893Y-52282132D01*
X165116599Y-52296747D01*
X165134777Y-52313223D01*
X165151253Y-52331401D01*
X165165868Y-52351107D01*
X165178480Y-52372150D01*
X165188970Y-52394329D01*
X165197235Y-52417428D01*
X165203196Y-52441227D01*
X165206796Y-52465495D01*
X165208000Y-52489999D01*
X165208000Y-54190001D01*
X165206796Y-54214505D01*
X165203196Y-54238773D01*
X165197235Y-54262572D01*
X165188970Y-54285671D01*
X165178480Y-54307850D01*
X165165868Y-54328893D01*
X165151253Y-54348599D01*
X165134777Y-54366777D01*
X165116599Y-54383253D01*
X165096893Y-54397868D01*
X165075850Y-54410480D01*
X165053671Y-54420970D01*
X165030572Y-54429235D01*
X165006773Y-54435196D01*
X164982505Y-54438796D01*
X164958001Y-54440000D01*
X163717999Y-54440000D01*
X163693495Y-54438796D01*
X163669227Y-54435196D01*
X163645428Y-54429235D01*
X163622329Y-54420970D01*
X163600150Y-54410480D01*
X163579107Y-54397868D01*
X163559401Y-54383253D01*
X163541223Y-54366777D01*
X163524747Y-54348599D01*
X163510132Y-54328893D01*
X163497520Y-54307850D01*
X163487030Y-54285671D01*
X163478765Y-54262572D01*
X163472804Y-54238773D01*
X163469204Y-54214505D01*
X163468000Y-54190001D01*
X163468000Y-52489999D01*
X163469204Y-52465495D01*
X163472804Y-52441227D01*
X163478765Y-52417428D01*
X163487030Y-52394329D01*
X163497520Y-52372150D01*
X163510132Y-52351107D01*
X163524747Y-52331401D01*
X163541223Y-52313223D01*
X163559401Y-52296747D01*
X163579107Y-52282132D01*
X163600150Y-52269520D01*
X163622329Y-52259030D01*
X163645428Y-52250765D01*
X163669227Y-52244804D01*
X163693495Y-52241204D01*
X163717999Y-52240000D01*
X164958001Y-52240000D01*
X164982505Y-52241204D01*
X164982505Y-52241204D01*
G37*
D11*
X164338000Y-53340000D03*
D10*
G36*
X136534505Y-64687204D02*
X136558773Y-64690804D01*
X136582572Y-64696765D01*
X136605671Y-64705030D01*
X136627850Y-64715520D01*
X136648893Y-64728132D01*
X136668599Y-64742747D01*
X136686777Y-64759223D01*
X136703253Y-64777401D01*
X136717868Y-64797107D01*
X136730480Y-64818150D01*
X136740970Y-64840329D01*
X136749235Y-64863428D01*
X136755196Y-64887227D01*
X136758796Y-64911495D01*
X136760000Y-64935999D01*
X136760000Y-66636001D01*
X136758796Y-66660505D01*
X136755196Y-66684773D01*
X136749235Y-66708572D01*
X136740970Y-66731671D01*
X136730480Y-66753850D01*
X136717868Y-66774893D01*
X136703253Y-66794599D01*
X136686777Y-66812777D01*
X136668599Y-66829253D01*
X136648893Y-66843868D01*
X136627850Y-66856480D01*
X136605671Y-66866970D01*
X136582572Y-66875235D01*
X136558773Y-66881196D01*
X136534505Y-66884796D01*
X136510001Y-66886000D01*
X135269999Y-66886000D01*
X135245495Y-66884796D01*
X135221227Y-66881196D01*
X135197428Y-66875235D01*
X135174329Y-66866970D01*
X135152150Y-66856480D01*
X135131107Y-66843868D01*
X135111401Y-66829253D01*
X135093223Y-66812777D01*
X135076747Y-66794599D01*
X135062132Y-66774893D01*
X135049520Y-66753850D01*
X135039030Y-66731671D01*
X135030765Y-66708572D01*
X135024804Y-66684773D01*
X135021204Y-66660505D01*
X135020000Y-66636001D01*
X135020000Y-64935999D01*
X135021204Y-64911495D01*
X135024804Y-64887227D01*
X135030765Y-64863428D01*
X135039030Y-64840329D01*
X135049520Y-64818150D01*
X135062132Y-64797107D01*
X135076747Y-64777401D01*
X135093223Y-64759223D01*
X135111401Y-64742747D01*
X135131107Y-64728132D01*
X135152150Y-64715520D01*
X135174329Y-64705030D01*
X135197428Y-64696765D01*
X135221227Y-64690804D01*
X135245495Y-64687204D01*
X135269999Y-64686000D01*
X136510001Y-64686000D01*
X136534505Y-64687204D01*
X136534505Y-64687204D01*
G37*
D11*
X135890000Y-65786000D03*
D17*
X138430000Y-65786000D03*
D23*
X137404000Y-74292000D03*
X139944000Y-74292000D03*
X142484000Y-74292000D03*
X147564000Y-74292000D03*
X150104000Y-74292000D03*
X152644000Y-74292000D03*
X155184000Y-74292000D03*
D24*
X140970000Y-53340000D03*
X161798000Y-60452000D03*
X155448000Y-76454000D03*
D25*
X129540000Y-76200000D02*
X125730000Y-76200000D01*
D26*
X132080000Y-53340000D02*
X132080000Y-57785000D01*
X132080000Y-57785000D02*
X132080000Y-64770000D01*
X132080000Y-72390000D02*
X132080000Y-76200000D01*
X132080000Y-64770000D02*
X132080000Y-71120000D01*
X132080000Y-71120000D02*
X132080000Y-72390000D01*
D25*
X132080000Y-53340000D02*
X132080000Y-64770000D01*
X132080000Y-53340000D02*
X132080000Y-53570000D01*
X132080000Y-72136000D02*
X132080000Y-76200000D01*
X132080000Y-69215000D02*
X132080000Y-72136000D01*
X132080000Y-64770000D02*
X132080000Y-69215000D01*
X134366000Y-64770000D02*
X135382000Y-65786000D01*
X132080000Y-64770000D02*
X134366000Y-64770000D01*
X125730000Y-64770000D02*
X129540000Y-64770000D01*
X125730000Y-53340000D02*
X129540000Y-53340000D01*
X139090000Y-53340000D02*
X140970000Y-53340000D01*
X151638000Y-61468000D02*
X151638000Y-64008000D01*
X151638000Y-54610000D02*
X155956000Y-50292000D01*
X161290000Y-50292000D02*
X164338000Y-53340000D01*
X155956000Y-50292000D02*
X161290000Y-50292000D01*
X164338000Y-53340000D02*
X164338000Y-57912000D01*
X164338000Y-57912000D02*
X161798000Y-60452000D01*
X146286000Y-59684000D02*
X146286000Y-58928000D01*
X143232000Y-62738000D02*
X146286000Y-59684000D01*
X141732000Y-62738000D02*
X143232000Y-62738000D01*
X147772000Y-61214000D02*
X151638000Y-61214000D01*
X146286000Y-59728000D02*
X147772000Y-61214000D01*
X146286000Y-58928000D02*
X146286000Y-59728000D01*
X151638000Y-61468000D02*
X151638000Y-61214000D01*
X151638000Y-61214000D02*
X151638000Y-54610000D01*
X150104000Y-75494081D02*
X151063919Y-76454000D01*
X150104000Y-74292000D02*
X150104000Y-75494081D01*
X151063919Y-76454000D02*
X155448000Y-76454000D01*
X166954000Y-71120000D02*
X165354000Y-71120000D01*
X167894000Y-70180000D02*
X166954000Y-71120000D01*
X167894000Y-65412000D02*
X167894000Y-70180000D01*
X166878000Y-64396000D02*
X167894000Y-65412000D01*
X166878000Y-63246000D02*
X166878000Y-64396000D01*
X163978000Y-67204000D02*
X165354000Y-68580000D01*
X163978000Y-61996000D02*
X163978000Y-67204000D01*
X138840000Y-55390000D02*
X139090000Y-55640000D01*
X135890000Y-55390000D02*
X138840000Y-55390000D01*
X137922000Y-64186000D02*
X137922000Y-59427000D01*
X137922000Y-65786000D02*
X137922000Y-64186000D01*
X137922000Y-57422000D02*
X135890000Y-55390000D01*
X137922000Y-59427000D02*
X137922000Y-57422000D01*
X137922000Y-65786000D02*
X137922000Y-68580000D01*
X139944000Y-70602000D02*
X139944000Y-74292000D01*
X137922000Y-68580000D02*
X139944000Y-70602000D01*
X140707000Y-59427000D02*
X141478000Y-60198000D01*
X137922000Y-59427000D02*
X140707000Y-59427000D01*
D27*
G36*
X149637392Y-48566155D02*
X148896155Y-49307392D01*
X148495000Y-50275866D01*
X148495000Y-51324134D01*
X148896155Y-52292608D01*
X149637392Y-53033845D01*
X150605866Y-53435000D01*
X151561422Y-53435000D01*
X151073845Y-53922577D01*
X150999952Y-53971951D01*
X150950578Y-54045844D01*
X150950576Y-54045846D01*
X150804348Y-54264691D01*
X150735663Y-54610000D01*
X150753001Y-54697165D01*
X150753000Y-60329000D01*
X148138579Y-60329000D01*
X148061414Y-60251836D01*
X148209000Y-60104250D01*
X148209000Y-59055000D01*
X148463000Y-59055000D01*
X148463000Y-60104250D01*
X148621750Y-60263000D01*
X149037309Y-60263000D01*
X149270698Y-60166327D01*
X149449327Y-59987699D01*
X149546000Y-59754310D01*
X149546000Y-59213750D01*
X149387250Y-59055000D01*
X148463000Y-59055000D01*
X148209000Y-59055000D01*
X148189000Y-59055000D01*
X148189000Y-58801000D01*
X148209000Y-58801000D01*
X148209000Y-57751750D01*
X148463000Y-57751750D01*
X148463000Y-58801000D01*
X149387250Y-58801000D01*
X149546000Y-58642250D01*
X149546000Y-58101690D01*
X149449327Y-57868301D01*
X149270698Y-57689673D01*
X149037309Y-57593000D01*
X148621750Y-57593000D01*
X148463000Y-57751750D01*
X148209000Y-57751750D01*
X148050250Y-57593000D01*
X147634691Y-57593000D01*
X147401302Y-57689673D01*
X147246377Y-57844597D01*
X147245586Y-57843414D01*
X146954436Y-57648873D01*
X146611001Y-57580560D01*
X145960999Y-57580560D01*
X145617564Y-57648873D01*
X145326414Y-57843414D01*
X145131873Y-58134564D01*
X145063560Y-58477999D01*
X145063560Y-59378001D01*
X145109494Y-59608927D01*
X143332640Y-61385782D01*
X143379440Y-61150500D01*
X143379440Y-59245500D01*
X143330157Y-58997735D01*
X143189809Y-58787691D01*
X142979765Y-58647343D01*
X142732000Y-58598060D01*
X141059362Y-58598060D01*
X141052310Y-58593348D01*
X140794165Y-58542000D01*
X140794161Y-58542000D01*
X140707000Y-58524663D01*
X140619839Y-58542000D01*
X139014946Y-58542000D01*
X138881586Y-58342414D01*
X138807000Y-58292577D01*
X138807000Y-57509161D01*
X138824337Y-57422000D01*
X138807000Y-57334839D01*
X138807000Y-57334835D01*
X138755652Y-57076690D01*
X138729426Y-57037440D01*
X140090000Y-57037440D01*
X140337765Y-56988157D01*
X140547809Y-56847809D01*
X140688157Y-56637765D01*
X140737440Y-56390000D01*
X140737440Y-54890000D01*
X140688157Y-54642235D01*
X140586436Y-54490000D01*
X140685139Y-54342282D01*
X140764126Y-54375000D01*
X141175874Y-54375000D01*
X141556280Y-54217431D01*
X141847431Y-53926280D01*
X142005000Y-53545874D01*
X142005000Y-53134126D01*
X141847431Y-52753720D01*
X141556280Y-52462569D01*
X141175874Y-52305000D01*
X140764126Y-52305000D01*
X140685139Y-52337718D01*
X140587073Y-52190953D01*
X140628327Y-52149699D01*
X140725000Y-51916310D01*
X140725000Y-51440000D01*
X143742560Y-51440000D01*
X143742560Y-55240000D01*
X143791843Y-55487765D01*
X143932191Y-55697809D01*
X144142235Y-55838157D01*
X144390000Y-55887440D01*
X146390000Y-55887440D01*
X146637765Y-55838157D01*
X146847809Y-55697809D01*
X146988157Y-55487765D01*
X147037440Y-55240000D01*
X147037440Y-51440000D01*
X146988157Y-51192235D01*
X146847809Y-50982191D01*
X146637765Y-50841843D01*
X146390000Y-50792560D01*
X144390000Y-50792560D01*
X144142235Y-50841843D01*
X143932191Y-50982191D01*
X143791843Y-51192235D01*
X143742560Y-51440000D01*
X140725000Y-51440000D01*
X140725000Y-51325750D01*
X140566250Y-51167000D01*
X139217000Y-51167000D01*
X139217000Y-51187000D01*
X138963000Y-51187000D01*
X138963000Y-51167000D01*
X137613750Y-51167000D01*
X137455000Y-51325750D01*
X137455000Y-51916310D01*
X137551673Y-52149699D01*
X137592927Y-52190953D01*
X137491843Y-52342235D01*
X137442560Y-52590000D01*
X137442560Y-54090000D01*
X137491843Y-54337765D01*
X137593564Y-54490000D01*
X137583541Y-54505000D01*
X137024423Y-54505000D01*
X136974586Y-54430414D01*
X136973403Y-54429623D01*
X137128327Y-54274698D01*
X137225000Y-54041309D01*
X137225000Y-53625750D01*
X137066250Y-53467000D01*
X136017000Y-53467000D01*
X136017000Y-53487000D01*
X135763000Y-53487000D01*
X135763000Y-53467000D01*
X134713750Y-53467000D01*
X134555000Y-53625750D01*
X134555000Y-54041309D01*
X134651673Y-54274698D01*
X134806597Y-54429623D01*
X134805414Y-54430414D01*
X134610873Y-54721564D01*
X134542560Y-55064999D01*
X134542560Y-55715001D01*
X134610873Y-56058436D01*
X134805414Y-56349586D01*
X135096564Y-56544127D01*
X135439999Y-56612440D01*
X135860862Y-56612440D01*
X137037001Y-57788580D01*
X137037001Y-58292577D01*
X136962414Y-58342414D01*
X136961623Y-58343597D01*
X136806698Y-58188673D01*
X136573309Y-58092000D01*
X136157750Y-58092000D01*
X135999000Y-58250750D01*
X135999000Y-59300000D01*
X136019000Y-59300000D01*
X136019000Y-59554000D01*
X135999000Y-59554000D01*
X135999000Y-60603250D01*
X136157750Y-60762000D01*
X136573309Y-60762000D01*
X136806698Y-60665327D01*
X136961623Y-60510403D01*
X136962414Y-60511586D01*
X137037001Y-60561423D01*
X137037000Y-64229527D01*
X136853436Y-64106873D01*
X136510001Y-64038560D01*
X135269999Y-64038560D01*
X134957352Y-64100749D01*
X134711310Y-63936348D01*
X134453165Y-63885000D01*
X134453161Y-63885000D01*
X134366000Y-63867663D01*
X134278839Y-63885000D01*
X133452390Y-63885000D01*
X133165044Y-63454956D01*
X132965000Y-63321291D01*
X132965000Y-59712750D01*
X134662000Y-59712750D01*
X134662000Y-60253310D01*
X134758673Y-60486699D01*
X134937302Y-60665327D01*
X135170691Y-60762000D01*
X135586250Y-60762000D01*
X135745000Y-60603250D01*
X135745000Y-59554000D01*
X134820750Y-59554000D01*
X134662000Y-59712750D01*
X132965000Y-59712750D01*
X132965000Y-58600690D01*
X134662000Y-58600690D01*
X134662000Y-59141250D01*
X134820750Y-59300000D01*
X135745000Y-59300000D01*
X135745000Y-58250750D01*
X135586250Y-58092000D01*
X135170691Y-58092000D01*
X134937302Y-58188673D01*
X134758673Y-58367301D01*
X134662000Y-58600690D01*
X132965000Y-58600690D01*
X132965000Y-54788709D01*
X133165044Y-54655044D01*
X133497678Y-54157221D01*
X133585000Y-53718225D01*
X133585000Y-52961774D01*
X133520735Y-52638691D01*
X134555000Y-52638691D01*
X134555000Y-53054250D01*
X134713750Y-53213000D01*
X135763000Y-53213000D01*
X135763000Y-52288750D01*
X136017000Y-52288750D01*
X136017000Y-53213000D01*
X137066250Y-53213000D01*
X137225000Y-53054250D01*
X137225000Y-52638691D01*
X137128327Y-52405302D01*
X136949699Y-52226673D01*
X136716310Y-52130000D01*
X136175750Y-52130000D01*
X136017000Y-52288750D01*
X135763000Y-52288750D01*
X135604250Y-52130000D01*
X135063690Y-52130000D01*
X134830301Y-52226673D01*
X134651673Y-52405302D01*
X134555000Y-52638691D01*
X133520735Y-52638691D01*
X133497678Y-52522778D01*
X133165044Y-52024956D01*
X132667221Y-51692322D01*
X132080000Y-51575516D01*
X131492778Y-51692322D01*
X131012353Y-52013331D01*
X131008157Y-51992235D01*
X130867809Y-51782191D01*
X130657765Y-51641843D01*
X130410000Y-51592560D01*
X128670000Y-51592560D01*
X128422235Y-51641843D01*
X128212191Y-51782191D01*
X128071843Y-51992235D01*
X128022560Y-52240000D01*
X128022560Y-52455000D01*
X127102390Y-52455000D01*
X126815044Y-52024956D01*
X126317221Y-51692322D01*
X125730000Y-51575516D01*
X125142778Y-51692322D01*
X124655364Y-52018001D01*
X124598327Y-51880301D01*
X124419698Y-51701673D01*
X124186309Y-51605000D01*
X123475750Y-51605000D01*
X123317000Y-51763750D01*
X123317000Y-53213000D01*
X123337000Y-53213000D01*
X123337000Y-53467000D01*
X123317000Y-53467000D01*
X123317000Y-54916250D01*
X123475750Y-55075000D01*
X124186309Y-55075000D01*
X124419698Y-54978327D01*
X124598327Y-54799699D01*
X124655364Y-54661999D01*
X125142779Y-54987678D01*
X125730000Y-55104484D01*
X126317222Y-54987678D01*
X126815044Y-54655044D01*
X127102390Y-54225000D01*
X128022560Y-54225000D01*
X128022560Y-54440000D01*
X128071843Y-54687765D01*
X128212191Y-54897809D01*
X128422235Y-55038157D01*
X128670000Y-55087440D01*
X130410000Y-55087440D01*
X130657765Y-55038157D01*
X130867809Y-54897809D01*
X131008157Y-54687765D01*
X131012353Y-54666668D01*
X131195000Y-54788709D01*
X131195001Y-63321290D01*
X131012353Y-63443331D01*
X131008157Y-63422235D01*
X130867809Y-63212191D01*
X130657765Y-63071843D01*
X130410000Y-63022560D01*
X128670000Y-63022560D01*
X128422235Y-63071843D01*
X128212191Y-63212191D01*
X128071843Y-63422235D01*
X128022560Y-63670000D01*
X128022560Y-63885000D01*
X127102390Y-63885000D01*
X126815044Y-63454956D01*
X126317221Y-63122322D01*
X125730000Y-63005516D01*
X125142778Y-63122322D01*
X124655364Y-63448001D01*
X124598327Y-63310301D01*
X124419698Y-63131673D01*
X124186309Y-63035000D01*
X123475750Y-63035000D01*
X123317000Y-63193750D01*
X123317000Y-64643000D01*
X123337000Y-64643000D01*
X123337000Y-64897000D01*
X123317000Y-64897000D01*
X123317000Y-66346250D01*
X123475750Y-66505000D01*
X124186309Y-66505000D01*
X124419698Y-66408327D01*
X124598327Y-66229699D01*
X124655364Y-66091999D01*
X125142779Y-66417678D01*
X125730000Y-66534484D01*
X126317222Y-66417678D01*
X126815044Y-66085044D01*
X127102390Y-65655000D01*
X128022560Y-65655000D01*
X128022560Y-65870000D01*
X128071843Y-66117765D01*
X128212191Y-66327809D01*
X128422235Y-66468157D01*
X128670000Y-66517440D01*
X130410000Y-66517440D01*
X130657765Y-66468157D01*
X130867809Y-66327809D01*
X131008157Y-66117765D01*
X131012353Y-66096668D01*
X131195000Y-66218709D01*
X131195001Y-69127831D01*
X131195000Y-69127836D01*
X131195001Y-72048831D01*
X131195000Y-72048836D01*
X131195001Y-74751290D01*
X131012353Y-74873331D01*
X131008157Y-74852235D01*
X130867809Y-74642191D01*
X130657765Y-74501843D01*
X130410000Y-74452560D01*
X128670000Y-74452560D01*
X128422235Y-74501843D01*
X128212191Y-74642191D01*
X128071843Y-74852235D01*
X128022560Y-75100000D01*
X128022560Y-75315000D01*
X127102390Y-75315000D01*
X126815044Y-74884956D01*
X126317221Y-74552322D01*
X125730000Y-74435516D01*
X125142778Y-74552322D01*
X124655364Y-74878001D01*
X124598327Y-74740301D01*
X124419698Y-74561673D01*
X124186309Y-74465000D01*
X123475750Y-74465000D01*
X123317000Y-74623750D01*
X123317000Y-76073000D01*
X123337000Y-76073000D01*
X123337000Y-76327000D01*
X123317000Y-76327000D01*
X123317000Y-77776250D01*
X123475750Y-77935000D01*
X124186309Y-77935000D01*
X124419698Y-77838327D01*
X124598327Y-77659699D01*
X124655364Y-77521999D01*
X125142779Y-77847678D01*
X125730000Y-77964484D01*
X126317222Y-77847678D01*
X126815044Y-77515044D01*
X127102390Y-77085000D01*
X128022560Y-77085000D01*
X128022560Y-77300000D01*
X128071843Y-77547765D01*
X128212191Y-77757809D01*
X128422235Y-77898157D01*
X128670000Y-77947440D01*
X130410000Y-77947440D01*
X130657765Y-77898157D01*
X130867809Y-77757809D01*
X131008157Y-77547765D01*
X131012353Y-77526668D01*
X131492779Y-77847678D01*
X132080000Y-77964484D01*
X132667222Y-77847678D01*
X133165044Y-77515044D01*
X133497678Y-77017221D01*
X133585000Y-76578225D01*
X133585000Y-75821774D01*
X133497678Y-75382778D01*
X133466394Y-75335958D01*
X136539647Y-75335958D01*
X136619920Y-75587259D01*
X137175279Y-75788718D01*
X137765458Y-75762315D01*
X138188080Y-75587259D01*
X138268353Y-75335958D01*
X137404000Y-74471605D01*
X136539647Y-75335958D01*
X133466394Y-75335958D01*
X133165044Y-74884956D01*
X132965000Y-74751291D01*
X132965000Y-74063279D01*
X135907282Y-74063279D01*
X135933685Y-74653458D01*
X136108741Y-75076080D01*
X136360042Y-75156353D01*
X137224395Y-74292000D01*
X136360042Y-73427647D01*
X136108741Y-73507920D01*
X135907282Y-74063279D01*
X132965000Y-74063279D01*
X132965000Y-73248042D01*
X136539647Y-73248042D01*
X137404000Y-74112395D01*
X138268353Y-73248042D01*
X138188080Y-72996741D01*
X137632721Y-72795282D01*
X137042542Y-72821685D01*
X136619920Y-72996741D01*
X136539647Y-73248042D01*
X132965000Y-73248042D01*
X132965000Y-66218709D01*
X133165044Y-66085044D01*
X133452390Y-65655000D01*
X133999422Y-65655000D01*
X134372560Y-66028139D01*
X134372560Y-66636001D01*
X134440873Y-66979436D01*
X134635414Y-67270586D01*
X134926564Y-67465127D01*
X135269999Y-67533440D01*
X136510001Y-67533440D01*
X136853436Y-67465127D01*
X137037001Y-67342473D01*
X137037001Y-68492835D01*
X137019663Y-68580000D01*
X137088348Y-68925309D01*
X137234576Y-69144154D01*
X137234578Y-69144156D01*
X137283952Y-69218049D01*
X137357845Y-69267423D01*
X139059000Y-70968579D01*
X139059001Y-73076892D01*
X138685078Y-73450815D01*
X138665845Y-73497247D01*
X138447958Y-73427647D01*
X137583605Y-74292000D01*
X138447958Y-75156353D01*
X138665845Y-75086753D01*
X138685078Y-75133185D01*
X139102815Y-75550922D01*
X139648615Y-75777000D01*
X140239385Y-75777000D01*
X140785185Y-75550922D01*
X141202922Y-75133185D01*
X141214000Y-75106440D01*
X141225078Y-75133185D01*
X141642815Y-75550922D01*
X142188615Y-75777000D01*
X142779385Y-75777000D01*
X143325185Y-75550922D01*
X143742922Y-75133185D01*
X143969000Y-74587385D01*
X143969000Y-73996615D01*
X146079000Y-73996615D01*
X146079000Y-74587385D01*
X146305078Y-75133185D01*
X146722815Y-75550922D01*
X147268615Y-75777000D01*
X147859385Y-75777000D01*
X148405185Y-75550922D01*
X148822922Y-75133185D01*
X148834000Y-75106440D01*
X148845078Y-75133185D01*
X149202378Y-75490485D01*
X149201663Y-75494081D01*
X149270348Y-75839390D01*
X149416576Y-76058235D01*
X149416578Y-76058237D01*
X149465952Y-76132130D01*
X149539845Y-76181504D01*
X150376496Y-77018156D01*
X150425870Y-77092049D01*
X150499763Y-77141423D01*
X150499764Y-77141424D01*
X150610799Y-77215615D01*
X150718609Y-77287652D01*
X150976754Y-77339000D01*
X150976758Y-77339000D01*
X151063918Y-77356337D01*
X151151078Y-77339000D01*
X154879993Y-77339000D01*
X155242126Y-77489000D01*
X155653874Y-77489000D01*
X156034280Y-77331431D01*
X156325431Y-77040280D01*
X156483000Y-76659874D01*
X156483000Y-76248126D01*
X156325431Y-75867720D01*
X156034280Y-75576569D01*
X155998774Y-75561862D01*
X156025185Y-75550922D01*
X156442922Y-75133185D01*
X156669000Y-74587385D01*
X156669000Y-73996615D01*
X156442922Y-73450815D01*
X156025185Y-73033078D01*
X155479385Y-72807000D01*
X154888615Y-72807000D01*
X154342815Y-73033078D01*
X153925078Y-73450815D01*
X153914000Y-73477560D01*
X153902922Y-73450815D01*
X153485185Y-73033078D01*
X152939385Y-72807000D01*
X152348615Y-72807000D01*
X151802815Y-73033078D01*
X151385078Y-73450815D01*
X151374000Y-73477560D01*
X151362922Y-73450815D01*
X150945185Y-73033078D01*
X150399385Y-72807000D01*
X149808615Y-72807000D01*
X149262815Y-73033078D01*
X148845078Y-73450815D01*
X148834000Y-73477560D01*
X148822922Y-73450815D01*
X148405185Y-73033078D01*
X147859385Y-72807000D01*
X147268615Y-72807000D01*
X146722815Y-73033078D01*
X146305078Y-73450815D01*
X146079000Y-73996615D01*
X143969000Y-73996615D01*
X143742922Y-73450815D01*
X143325185Y-73033078D01*
X142779385Y-72807000D01*
X142188615Y-72807000D01*
X141642815Y-73033078D01*
X141225078Y-73450815D01*
X141214000Y-73477560D01*
X141202922Y-73450815D01*
X140829000Y-73076893D01*
X140829000Y-70689161D01*
X140846337Y-70602000D01*
X140829000Y-70514839D01*
X140829000Y-70514835D01*
X140777652Y-70256690D01*
X140726409Y-70180000D01*
X140631424Y-70037845D01*
X140631423Y-70037844D01*
X140582049Y-69963951D01*
X140508156Y-69914577D01*
X138807000Y-68213422D01*
X138807000Y-67818000D01*
X140065900Y-67818000D01*
X140189109Y-68437411D01*
X140539977Y-68962523D01*
X141065089Y-69313391D01*
X141528150Y-69405500D01*
X141935850Y-69405500D01*
X142398911Y-69313391D01*
X142924023Y-68962523D01*
X143274891Y-68437411D01*
X143398100Y-67818000D01*
X143274891Y-67198589D01*
X142924023Y-66673477D01*
X142722526Y-66538841D01*
X143107973Y-66144924D01*
X143322563Y-65650980D01*
X143202594Y-65405000D01*
X141859000Y-65405000D01*
X141859000Y-65425000D01*
X141605000Y-65425000D01*
X141605000Y-65405000D01*
X140261406Y-65405000D01*
X140141437Y-65650980D01*
X140356027Y-66144924D01*
X140741474Y-66538841D01*
X140539977Y-66673477D01*
X140189109Y-67198589D01*
X140065900Y-67818000D01*
X138807000Y-67818000D01*
X138807000Y-67475494D01*
X139017222Y-67433678D01*
X139515044Y-67101044D01*
X139847678Y-66603221D01*
X139935000Y-66164225D01*
X139935000Y-65407774D01*
X139847678Y-64968778D01*
X139515044Y-64470956D01*
X139017221Y-64138322D01*
X138807000Y-64096506D01*
X138807000Y-60561423D01*
X138881586Y-60511586D01*
X139014946Y-60312000D01*
X140084560Y-60312000D01*
X140084560Y-61150500D01*
X140133843Y-61398265D01*
X140274191Y-61608309D01*
X140451088Y-61726509D01*
X140189109Y-62118589D01*
X140065900Y-62738000D01*
X140189109Y-63357411D01*
X140539977Y-63882523D01*
X140741474Y-64017159D01*
X140356027Y-64411076D01*
X140141437Y-64905020D01*
X140261406Y-65151000D01*
X141605000Y-65151000D01*
X141605000Y-65131000D01*
X141859000Y-65131000D01*
X141859000Y-65151000D01*
X143202594Y-65151000D01*
X143322563Y-64905020D01*
X143107973Y-64411076D01*
X142993170Y-64293750D01*
X147593000Y-64293750D01*
X147593000Y-65234310D01*
X147689673Y-65467699D01*
X147868302Y-65646327D01*
X148101691Y-65743000D01*
X148812250Y-65743000D01*
X148971000Y-65584250D01*
X148971000Y-64135000D01*
X147751750Y-64135000D01*
X147593000Y-64293750D01*
X142993170Y-64293750D01*
X142722526Y-64017159D01*
X142924023Y-63882523D01*
X143097430Y-63623000D01*
X143144839Y-63623000D01*
X143232000Y-63640337D01*
X143319161Y-63623000D01*
X143319165Y-63623000D01*
X143577310Y-63571652D01*
X143870049Y-63376049D01*
X143919425Y-63302153D01*
X144439888Y-62781690D01*
X147593000Y-62781690D01*
X147593000Y-63722250D01*
X147751750Y-63881000D01*
X148971000Y-63881000D01*
X148971000Y-62431750D01*
X148812250Y-62273000D01*
X148101691Y-62273000D01*
X147868302Y-62369673D01*
X147689673Y-62548301D01*
X147593000Y-62781690D01*
X144439888Y-62781690D01*
X146264000Y-60957579D01*
X147084577Y-61778156D01*
X147133951Y-61852049D01*
X147207844Y-61901423D01*
X147207845Y-61901424D01*
X147218938Y-61908836D01*
X147426690Y-62047652D01*
X147684835Y-62099000D01*
X147684839Y-62099000D01*
X147771999Y-62116337D01*
X147859159Y-62099000D01*
X150753000Y-62099000D01*
X150753000Y-62559291D01*
X150563364Y-62686001D01*
X150506327Y-62548301D01*
X150327698Y-62369673D01*
X150094309Y-62273000D01*
X149383750Y-62273000D01*
X149225000Y-62431750D01*
X149225000Y-63881000D01*
X149245000Y-63881000D01*
X149245000Y-64135000D01*
X149225000Y-64135000D01*
X149225000Y-65584250D01*
X149383750Y-65743000D01*
X150094309Y-65743000D01*
X150327698Y-65646327D01*
X150506327Y-65467699D01*
X150563364Y-65329999D01*
X151050779Y-65655678D01*
X151638000Y-65772484D01*
X152225222Y-65655678D01*
X152723044Y-65323044D01*
X153055678Y-64825221D01*
X153143000Y-64386225D01*
X153143000Y-63629774D01*
X153055678Y-63190778D01*
X152723044Y-62692956D01*
X152523000Y-62559291D01*
X152523000Y-61301164D01*
X152540338Y-61214000D01*
X152523000Y-61126835D01*
X152523000Y-54976578D01*
X153873828Y-53625750D01*
X155340000Y-53625750D01*
X155340000Y-54566310D01*
X155436673Y-54799699D01*
X155615302Y-54978327D01*
X155848691Y-55075000D01*
X156559250Y-55075000D01*
X156718000Y-54916250D01*
X156718000Y-53467000D01*
X155498750Y-53467000D01*
X155340000Y-53625750D01*
X153873828Y-53625750D01*
X155340000Y-52159579D01*
X155340000Y-53054250D01*
X155498750Y-53213000D01*
X156718000Y-53213000D01*
X156718000Y-51763750D01*
X156972000Y-51763750D01*
X156972000Y-53213000D01*
X156992000Y-53213000D01*
X156992000Y-53467000D01*
X156972000Y-53467000D01*
X156972000Y-54916250D01*
X157130750Y-55075000D01*
X157841309Y-55075000D01*
X158074698Y-54978327D01*
X158253327Y-54799699D01*
X158310364Y-54661999D01*
X158797779Y-54987678D01*
X159385000Y-55104484D01*
X159972222Y-54987678D01*
X160470044Y-54655044D01*
X160802678Y-54157221D01*
X160890000Y-53718225D01*
X160890000Y-52961774D01*
X160802678Y-52522778D01*
X160470044Y-52024956D01*
X159972221Y-51692322D01*
X159385000Y-51575516D01*
X158797778Y-51692322D01*
X158310364Y-52018001D01*
X158253327Y-51880301D01*
X158074698Y-51701673D01*
X157841309Y-51605000D01*
X157130750Y-51605000D01*
X156972000Y-51763750D01*
X156718000Y-51763750D01*
X156559250Y-51605000D01*
X155894579Y-51605000D01*
X156322579Y-51177000D01*
X160923422Y-51177000D01*
X162820560Y-53074139D01*
X162820560Y-54190001D01*
X162888873Y-54533436D01*
X163083414Y-54824586D01*
X163374564Y-55019127D01*
X163453000Y-55034729D01*
X163453001Y-57545420D01*
X161573853Y-59424569D01*
X161211720Y-59574569D01*
X160920569Y-59865720D01*
X160763000Y-60246126D01*
X160763000Y-60657874D01*
X160920569Y-61038280D01*
X161211720Y-61329431D01*
X161592126Y-61487000D01*
X162003874Y-61487000D01*
X162384280Y-61329431D01*
X162530560Y-61183151D01*
X162530560Y-62996000D01*
X162579843Y-63243765D01*
X162720191Y-63453809D01*
X162930235Y-63594157D01*
X163093000Y-63626533D01*
X163093001Y-67116835D01*
X163075663Y-67204000D01*
X163144348Y-67549309D01*
X163290576Y-67768154D01*
X163290578Y-67768156D01*
X163339952Y-67842049D01*
X163413845Y-67891423D01*
X163674613Y-68152191D01*
X163589516Y-68580000D01*
X163706322Y-69167222D01*
X164038956Y-69665044D01*
X164315762Y-69850000D01*
X164038956Y-70034956D01*
X163706322Y-70532778D01*
X163589516Y-71120000D01*
X163706322Y-71707222D01*
X164038956Y-72205044D01*
X164315762Y-72390000D01*
X164038956Y-72574956D01*
X163706322Y-73072778D01*
X163589516Y-73660000D01*
X163706322Y-74247222D01*
X164038956Y-74745044D01*
X164315762Y-74930000D01*
X164038956Y-75114956D01*
X163706322Y-75612778D01*
X163589516Y-76200000D01*
X163706322Y-76787222D01*
X164032001Y-77274636D01*
X163894301Y-77331673D01*
X163715673Y-77510302D01*
X163619000Y-77743691D01*
X163619000Y-78454250D01*
X163777750Y-78613000D01*
X165227000Y-78613000D01*
X165227000Y-78593000D01*
X165481000Y-78593000D01*
X165481000Y-78613000D01*
X166930250Y-78613000D01*
X167089000Y-78454250D01*
X167089000Y-77743691D01*
X166992327Y-77510302D01*
X166813699Y-77331673D01*
X166675999Y-77274636D01*
X167001678Y-76787222D01*
X167118484Y-76200000D01*
X167001678Y-75612778D01*
X166669044Y-75114956D01*
X166392238Y-74930000D01*
X166669044Y-74745044D01*
X167001678Y-74247222D01*
X167118484Y-73660000D01*
X167001678Y-73072778D01*
X166669044Y-72574956D01*
X166392238Y-72390000D01*
X166669044Y-72205044D01*
X166802709Y-72005000D01*
X166866839Y-72005000D01*
X166954000Y-72022337D01*
X167041161Y-72005000D01*
X167041165Y-72005000D01*
X167299310Y-71953652D01*
X167592049Y-71758049D01*
X167641425Y-71684153D01*
X168458156Y-70867423D01*
X168532049Y-70818049D01*
X168727652Y-70525310D01*
X168779000Y-70267165D01*
X168779000Y-70267161D01*
X168796337Y-70180000D01*
X168779000Y-70092839D01*
X168779000Y-65499161D01*
X168796337Y-65412000D01*
X168779000Y-65324839D01*
X168779000Y-65324835D01*
X168727652Y-65066690D01*
X168640327Y-64935999D01*
X168581424Y-64847845D01*
X168581423Y-64847844D01*
X168532049Y-64773951D01*
X168458156Y-64724577D01*
X168106783Y-64373204D01*
X168135809Y-64353809D01*
X168276157Y-64143765D01*
X168325440Y-63896000D01*
X168325440Y-62596000D01*
X168276157Y-62348235D01*
X168135809Y-62138191D01*
X167925765Y-61997843D01*
X167897791Y-61992279D01*
X168037699Y-61934327D01*
X168216327Y-61755698D01*
X168313000Y-61522309D01*
X168313000Y-61031750D01*
X168154250Y-60873000D01*
X167005000Y-60873000D01*
X167005000Y-60893000D01*
X166751000Y-60893000D01*
X166751000Y-60873000D01*
X165601750Y-60873000D01*
X165443000Y-61031750D01*
X165443000Y-61522309D01*
X165539673Y-61755698D01*
X165718301Y-61934327D01*
X165858209Y-61992279D01*
X165830235Y-61997843D01*
X165620191Y-62138191D01*
X165479843Y-62348235D01*
X165430560Y-62596000D01*
X165430560Y-63896000D01*
X165479843Y-64143765D01*
X165620191Y-64353809D01*
X165830235Y-64494157D01*
X166001982Y-64528319D01*
X166044348Y-64741309D01*
X166190576Y-64960154D01*
X166190578Y-64960156D01*
X166239952Y-65034049D01*
X166313845Y-65083423D01*
X167009000Y-65778579D01*
X167009001Y-68029591D01*
X167001678Y-67992778D01*
X166669044Y-67494956D01*
X166171222Y-67162322D01*
X165732226Y-67075000D01*
X165100578Y-67075000D01*
X164863000Y-66837422D01*
X164863000Y-63626533D01*
X165025765Y-63594157D01*
X165235809Y-63453809D01*
X165376157Y-63243765D01*
X165425440Y-62996000D01*
X165425440Y-60996000D01*
X165376157Y-60748235D01*
X165235809Y-60538191D01*
X165025765Y-60397843D01*
X164778000Y-60348560D01*
X163178000Y-60348560D01*
X163146815Y-60354763D01*
X163531887Y-59969691D01*
X165443000Y-59969691D01*
X165443000Y-60460250D01*
X165601750Y-60619000D01*
X166751000Y-60619000D01*
X166751000Y-59619750D01*
X167005000Y-59619750D01*
X167005000Y-60619000D01*
X168154250Y-60619000D01*
X168313000Y-60460250D01*
X168313000Y-59969691D01*
X168216327Y-59736302D01*
X168037699Y-59557673D01*
X167804310Y-59461000D01*
X167163750Y-59461000D01*
X167005000Y-59619750D01*
X166751000Y-59619750D01*
X166592250Y-59461000D01*
X165951690Y-59461000D01*
X165718301Y-59557673D01*
X165539673Y-59736302D01*
X165443000Y-59969691D01*
X163531887Y-59969691D01*
X164902156Y-58599423D01*
X164976049Y-58550049D01*
X165171652Y-58257310D01*
X165223000Y-57999165D01*
X165223000Y-57999161D01*
X165240337Y-57912001D01*
X165223000Y-57824841D01*
X165223000Y-55034729D01*
X165301436Y-55019127D01*
X165592586Y-54824586D01*
X165749413Y-54589878D01*
X165792956Y-54655044D01*
X166290779Y-54987678D01*
X166878000Y-55104484D01*
X167465222Y-54987678D01*
X167963044Y-54655044D01*
X168295678Y-54157221D01*
X168383000Y-53718225D01*
X168383000Y-52961774D01*
X168295678Y-52522778D01*
X167963044Y-52024956D01*
X167465221Y-51692322D01*
X166878000Y-51575516D01*
X166290778Y-51692322D01*
X165792956Y-52024956D01*
X165749414Y-52090122D01*
X165592586Y-51855414D01*
X165301436Y-51660873D01*
X164958001Y-51592560D01*
X163842139Y-51592560D01*
X161977425Y-49727847D01*
X161928049Y-49653951D01*
X161635310Y-49458348D01*
X161377165Y-49407000D01*
X161377161Y-49407000D01*
X161290000Y-49389663D01*
X161202839Y-49407000D01*
X156043159Y-49407000D01*
X155955999Y-49389663D01*
X155868839Y-49407000D01*
X155868835Y-49407000D01*
X155610690Y-49458348D01*
X155610688Y-49458349D01*
X155610689Y-49458349D01*
X155391845Y-49604576D01*
X155391844Y-49604577D01*
X155317951Y-49653951D01*
X155268577Y-49727844D01*
X153765000Y-51231421D01*
X153765000Y-50275866D01*
X153363845Y-49307392D01*
X152622608Y-48566155D01*
X152064550Y-48335000D01*
X169470001Y-48335000D01*
X169470000Y-80570000D01*
X121360000Y-80570000D01*
X121360000Y-79025750D01*
X163619000Y-79025750D01*
X163619000Y-79736309D01*
X163715673Y-79969698D01*
X163894301Y-80148327D01*
X164127690Y-80245000D01*
X165068250Y-80245000D01*
X165227000Y-80086250D01*
X165227000Y-78867000D01*
X165481000Y-78867000D01*
X165481000Y-80086250D01*
X165639750Y-80245000D01*
X166580310Y-80245000D01*
X166813699Y-80148327D01*
X166992327Y-79969698D01*
X167089000Y-79736309D01*
X167089000Y-79025750D01*
X166930250Y-78867000D01*
X165481000Y-78867000D01*
X165227000Y-78867000D01*
X163777750Y-78867000D01*
X163619000Y-79025750D01*
X121360000Y-79025750D01*
X121360000Y-76485750D01*
X121685000Y-76485750D01*
X121685000Y-77426310D01*
X121781673Y-77659699D01*
X121960302Y-77838327D01*
X122193691Y-77935000D01*
X122904250Y-77935000D01*
X123063000Y-77776250D01*
X123063000Y-76327000D01*
X121843750Y-76327000D01*
X121685000Y-76485750D01*
X121360000Y-76485750D01*
X121360000Y-74973690D01*
X121685000Y-74973690D01*
X121685000Y-75914250D01*
X121843750Y-76073000D01*
X123063000Y-76073000D01*
X123063000Y-74623750D01*
X122904250Y-74465000D01*
X122193691Y-74465000D01*
X121960302Y-74561673D01*
X121781673Y-74740301D01*
X121685000Y-74973690D01*
X121360000Y-74973690D01*
X121360000Y-69960866D01*
X125000000Y-69960866D01*
X125000000Y-71009134D01*
X125401155Y-71977608D01*
X126142392Y-72718845D01*
X127110866Y-73120000D01*
X128159134Y-73120000D01*
X129127608Y-72718845D01*
X129868845Y-71977608D01*
X130270000Y-71009134D01*
X130270000Y-69960866D01*
X129868845Y-68992392D01*
X129127608Y-68251155D01*
X128159134Y-67850000D01*
X127110866Y-67850000D01*
X126142392Y-68251155D01*
X125401155Y-68992392D01*
X125000000Y-69960866D01*
X121360000Y-69960866D01*
X121360000Y-65055750D01*
X121685000Y-65055750D01*
X121685000Y-65996310D01*
X121781673Y-66229699D01*
X121960302Y-66408327D01*
X122193691Y-66505000D01*
X122904250Y-66505000D01*
X123063000Y-66346250D01*
X123063000Y-64897000D01*
X121843750Y-64897000D01*
X121685000Y-65055750D01*
X121360000Y-65055750D01*
X121360000Y-63543690D01*
X121685000Y-63543690D01*
X121685000Y-64484250D01*
X121843750Y-64643000D01*
X123063000Y-64643000D01*
X123063000Y-63193750D01*
X122904250Y-63035000D01*
X122193691Y-63035000D01*
X121960302Y-63131673D01*
X121781673Y-63310301D01*
X121685000Y-63543690D01*
X121360000Y-63543690D01*
X121360000Y-58530866D01*
X125000000Y-58530866D01*
X125000000Y-59579134D01*
X125401155Y-60547608D01*
X126142392Y-61288845D01*
X127110866Y-61690000D01*
X128159134Y-61690000D01*
X129127608Y-61288845D01*
X129868845Y-60547608D01*
X130270000Y-59579134D01*
X130270000Y-58530866D01*
X129868845Y-57562392D01*
X129127608Y-56821155D01*
X128159134Y-56420000D01*
X127110866Y-56420000D01*
X126142392Y-56821155D01*
X125401155Y-57562392D01*
X125000000Y-58530866D01*
X121360000Y-58530866D01*
X121360000Y-53625750D01*
X121685000Y-53625750D01*
X121685000Y-54566310D01*
X121781673Y-54799699D01*
X121960302Y-54978327D01*
X122193691Y-55075000D01*
X122904250Y-55075000D01*
X123063000Y-54916250D01*
X123063000Y-53467000D01*
X121843750Y-53467000D01*
X121685000Y-53625750D01*
X121360000Y-53625750D01*
X121360000Y-52113690D01*
X121685000Y-52113690D01*
X121685000Y-53054250D01*
X121843750Y-53213000D01*
X123063000Y-53213000D01*
X123063000Y-51763750D01*
X122904250Y-51605000D01*
X122193691Y-51605000D01*
X121960302Y-51701673D01*
X121781673Y-51880301D01*
X121685000Y-52113690D01*
X121360000Y-52113690D01*
X121360000Y-50163690D01*
X137455000Y-50163690D01*
X137455000Y-50754250D01*
X137613750Y-50913000D01*
X138963000Y-50913000D01*
X138963000Y-49813750D01*
X139217000Y-49813750D01*
X139217000Y-50913000D01*
X140566250Y-50913000D01*
X140725000Y-50754250D01*
X140725000Y-50163690D01*
X140628327Y-49930301D01*
X140449698Y-49751673D01*
X140216309Y-49655000D01*
X139375750Y-49655000D01*
X139217000Y-49813750D01*
X138963000Y-49813750D01*
X138804250Y-49655000D01*
X137963691Y-49655000D01*
X137730302Y-49751673D01*
X137551673Y-49930301D01*
X137455000Y-50163690D01*
X121360000Y-50163690D01*
X121360000Y-48335000D01*
X150195450Y-48335000D01*
X149637392Y-48566155D01*
X149637392Y-48566155D01*
G37*
X149637392Y-48566155D02*
X148896155Y-49307392D01*
X148495000Y-50275866D01*
X148495000Y-51324134D01*
X148896155Y-52292608D01*
X149637392Y-53033845D01*
X150605866Y-53435000D01*
X151561422Y-53435000D01*
X151073845Y-53922577D01*
X150999952Y-53971951D01*
X150950578Y-54045844D01*
X150950576Y-54045846D01*
X150804348Y-54264691D01*
X150735663Y-54610000D01*
X150753001Y-54697165D01*
X150753000Y-60329000D01*
X148138579Y-60329000D01*
X148061414Y-60251836D01*
X148209000Y-60104250D01*
X148209000Y-59055000D01*
X148463000Y-59055000D01*
X148463000Y-60104250D01*
X148621750Y-60263000D01*
X149037309Y-60263000D01*
X149270698Y-60166327D01*
X149449327Y-59987699D01*
X149546000Y-59754310D01*
X149546000Y-59213750D01*
X149387250Y-59055000D01*
X148463000Y-59055000D01*
X148209000Y-59055000D01*
X148189000Y-59055000D01*
X148189000Y-58801000D01*
X148209000Y-58801000D01*
X148209000Y-57751750D01*
X148463000Y-57751750D01*
X148463000Y-58801000D01*
X149387250Y-58801000D01*
X149546000Y-58642250D01*
X149546000Y-58101690D01*
X149449327Y-57868301D01*
X149270698Y-57689673D01*
X149037309Y-57593000D01*
X148621750Y-57593000D01*
X148463000Y-57751750D01*
X148209000Y-57751750D01*
X148050250Y-57593000D01*
X147634691Y-57593000D01*
X147401302Y-57689673D01*
X147246377Y-57844597D01*
X147245586Y-57843414D01*
X146954436Y-57648873D01*
X146611001Y-57580560D01*
X145960999Y-57580560D01*
X145617564Y-57648873D01*
X145326414Y-57843414D01*
X145131873Y-58134564D01*
X145063560Y-58477999D01*
X145063560Y-59378001D01*
X145109494Y-59608927D01*
X143332640Y-61385782D01*
X143379440Y-61150500D01*
X143379440Y-59245500D01*
X143330157Y-58997735D01*
X143189809Y-58787691D01*
X142979765Y-58647343D01*
X142732000Y-58598060D01*
X141059362Y-58598060D01*
X141052310Y-58593348D01*
X140794165Y-58542000D01*
X140794161Y-58542000D01*
X140707000Y-58524663D01*
X140619839Y-58542000D01*
X139014946Y-58542000D01*
X138881586Y-58342414D01*
X138807000Y-58292577D01*
X138807000Y-57509161D01*
X138824337Y-57422000D01*
X138807000Y-57334839D01*
X138807000Y-57334835D01*
X138755652Y-57076690D01*
X138729426Y-57037440D01*
X140090000Y-57037440D01*
X140337765Y-56988157D01*
X140547809Y-56847809D01*
X140688157Y-56637765D01*
X140737440Y-56390000D01*
X140737440Y-54890000D01*
X140688157Y-54642235D01*
X140586436Y-54490000D01*
X140685139Y-54342282D01*
X140764126Y-54375000D01*
X141175874Y-54375000D01*
X141556280Y-54217431D01*
X141847431Y-53926280D01*
X142005000Y-53545874D01*
X142005000Y-53134126D01*
X141847431Y-52753720D01*
X141556280Y-52462569D01*
X141175874Y-52305000D01*
X140764126Y-52305000D01*
X140685139Y-52337718D01*
X140587073Y-52190953D01*
X140628327Y-52149699D01*
X140725000Y-51916310D01*
X140725000Y-51440000D01*
X143742560Y-51440000D01*
X143742560Y-55240000D01*
X143791843Y-55487765D01*
X143932191Y-55697809D01*
X144142235Y-55838157D01*
X144390000Y-55887440D01*
X146390000Y-55887440D01*
X146637765Y-55838157D01*
X146847809Y-55697809D01*
X146988157Y-55487765D01*
X147037440Y-55240000D01*
X147037440Y-51440000D01*
X146988157Y-51192235D01*
X146847809Y-50982191D01*
X146637765Y-50841843D01*
X146390000Y-50792560D01*
X144390000Y-50792560D01*
X144142235Y-50841843D01*
X143932191Y-50982191D01*
X143791843Y-51192235D01*
X143742560Y-51440000D01*
X140725000Y-51440000D01*
X140725000Y-51325750D01*
X140566250Y-51167000D01*
X139217000Y-51167000D01*
X139217000Y-51187000D01*
X138963000Y-51187000D01*
X138963000Y-51167000D01*
X137613750Y-51167000D01*
X137455000Y-51325750D01*
X137455000Y-51916310D01*
X137551673Y-52149699D01*
X137592927Y-52190953D01*
X137491843Y-52342235D01*
X137442560Y-52590000D01*
X137442560Y-54090000D01*
X137491843Y-54337765D01*
X137593564Y-54490000D01*
X137583541Y-54505000D01*
X137024423Y-54505000D01*
X136974586Y-54430414D01*
X136973403Y-54429623D01*
X137128327Y-54274698D01*
X137225000Y-54041309D01*
X137225000Y-53625750D01*
X137066250Y-53467000D01*
X136017000Y-53467000D01*
X136017000Y-53487000D01*
X135763000Y-53487000D01*
X135763000Y-53467000D01*
X134713750Y-53467000D01*
X134555000Y-53625750D01*
X134555000Y-54041309D01*
X134651673Y-54274698D01*
X134806597Y-54429623D01*
X134805414Y-54430414D01*
X134610873Y-54721564D01*
X134542560Y-55064999D01*
X134542560Y-55715001D01*
X134610873Y-56058436D01*
X134805414Y-56349586D01*
X135096564Y-56544127D01*
X135439999Y-56612440D01*
X135860862Y-56612440D01*
X137037001Y-57788580D01*
X137037001Y-58292577D01*
X136962414Y-58342414D01*
X136961623Y-58343597D01*
X136806698Y-58188673D01*
X136573309Y-58092000D01*
X136157750Y-58092000D01*
X135999000Y-58250750D01*
X135999000Y-59300000D01*
X136019000Y-59300000D01*
X136019000Y-59554000D01*
X135999000Y-59554000D01*
X135999000Y-60603250D01*
X136157750Y-60762000D01*
X136573309Y-60762000D01*
X136806698Y-60665327D01*
X136961623Y-60510403D01*
X136962414Y-60511586D01*
X137037001Y-60561423D01*
X137037000Y-64229527D01*
X136853436Y-64106873D01*
X136510001Y-64038560D01*
X135269999Y-64038560D01*
X134957352Y-64100749D01*
X134711310Y-63936348D01*
X134453165Y-63885000D01*
X134453161Y-63885000D01*
X134366000Y-63867663D01*
X134278839Y-63885000D01*
X133452390Y-63885000D01*
X133165044Y-63454956D01*
X132965000Y-63321291D01*
X132965000Y-59712750D01*
X134662000Y-59712750D01*
X134662000Y-60253310D01*
X134758673Y-60486699D01*
X134937302Y-60665327D01*
X135170691Y-60762000D01*
X135586250Y-60762000D01*
X135745000Y-60603250D01*
X135745000Y-59554000D01*
X134820750Y-59554000D01*
X134662000Y-59712750D01*
X132965000Y-59712750D01*
X132965000Y-58600690D01*
X134662000Y-58600690D01*
X134662000Y-59141250D01*
X134820750Y-59300000D01*
X135745000Y-59300000D01*
X135745000Y-58250750D01*
X135586250Y-58092000D01*
X135170691Y-58092000D01*
X134937302Y-58188673D01*
X134758673Y-58367301D01*
X134662000Y-58600690D01*
X132965000Y-58600690D01*
X132965000Y-54788709D01*
X133165044Y-54655044D01*
X133497678Y-54157221D01*
X133585000Y-53718225D01*
X133585000Y-52961774D01*
X133520735Y-52638691D01*
X134555000Y-52638691D01*
X134555000Y-53054250D01*
X134713750Y-53213000D01*
X135763000Y-53213000D01*
X135763000Y-52288750D01*
X136017000Y-52288750D01*
X136017000Y-53213000D01*
X137066250Y-53213000D01*
X137225000Y-53054250D01*
X137225000Y-52638691D01*
X137128327Y-52405302D01*
X136949699Y-52226673D01*
X136716310Y-52130000D01*
X136175750Y-52130000D01*
X136017000Y-52288750D01*
X135763000Y-52288750D01*
X135604250Y-52130000D01*
X135063690Y-52130000D01*
X134830301Y-52226673D01*
X134651673Y-52405302D01*
X134555000Y-52638691D01*
X133520735Y-52638691D01*
X133497678Y-52522778D01*
X133165044Y-52024956D01*
X132667221Y-51692322D01*
X132080000Y-51575516D01*
X131492778Y-51692322D01*
X131012353Y-52013331D01*
X131008157Y-51992235D01*
X130867809Y-51782191D01*
X130657765Y-51641843D01*
X130410000Y-51592560D01*
X128670000Y-51592560D01*
X128422235Y-51641843D01*
X128212191Y-51782191D01*
X128071843Y-51992235D01*
X128022560Y-52240000D01*
X128022560Y-52455000D01*
X127102390Y-52455000D01*
X126815044Y-52024956D01*
X126317221Y-51692322D01*
X125730000Y-51575516D01*
X125142778Y-51692322D01*
X124655364Y-52018001D01*
X124598327Y-51880301D01*
X124419698Y-51701673D01*
X124186309Y-51605000D01*
X123475750Y-51605000D01*
X123317000Y-51763750D01*
X123317000Y-53213000D01*
X123337000Y-53213000D01*
X123337000Y-53467000D01*
X123317000Y-53467000D01*
X123317000Y-54916250D01*
X123475750Y-55075000D01*
X124186309Y-55075000D01*
X124419698Y-54978327D01*
X124598327Y-54799699D01*
X124655364Y-54661999D01*
X125142779Y-54987678D01*
X125730000Y-55104484D01*
X126317222Y-54987678D01*
X126815044Y-54655044D01*
X127102390Y-54225000D01*
X128022560Y-54225000D01*
X128022560Y-54440000D01*
X128071843Y-54687765D01*
X128212191Y-54897809D01*
X128422235Y-55038157D01*
X128670000Y-55087440D01*
X130410000Y-55087440D01*
X130657765Y-55038157D01*
X130867809Y-54897809D01*
X131008157Y-54687765D01*
X131012353Y-54666668D01*
X131195000Y-54788709D01*
X131195001Y-63321290D01*
X131012353Y-63443331D01*
X131008157Y-63422235D01*
X130867809Y-63212191D01*
X130657765Y-63071843D01*
X130410000Y-63022560D01*
X128670000Y-63022560D01*
X128422235Y-63071843D01*
X128212191Y-63212191D01*
X128071843Y-63422235D01*
X128022560Y-63670000D01*
X128022560Y-63885000D01*
X127102390Y-63885000D01*
X126815044Y-63454956D01*
X126317221Y-63122322D01*
X125730000Y-63005516D01*
X125142778Y-63122322D01*
X124655364Y-63448001D01*
X124598327Y-63310301D01*
X124419698Y-63131673D01*
X124186309Y-63035000D01*
X123475750Y-63035000D01*
X123317000Y-63193750D01*
X123317000Y-64643000D01*
X123337000Y-64643000D01*
X123337000Y-64897000D01*
X123317000Y-64897000D01*
X123317000Y-66346250D01*
X123475750Y-66505000D01*
X124186309Y-66505000D01*
X124419698Y-66408327D01*
X124598327Y-66229699D01*
X124655364Y-66091999D01*
X125142779Y-66417678D01*
X125730000Y-66534484D01*
X126317222Y-66417678D01*
X126815044Y-66085044D01*
X127102390Y-65655000D01*
X128022560Y-65655000D01*
X128022560Y-65870000D01*
X128071843Y-66117765D01*
X128212191Y-66327809D01*
X128422235Y-66468157D01*
X128670000Y-66517440D01*
X130410000Y-66517440D01*
X130657765Y-66468157D01*
X130867809Y-66327809D01*
X131008157Y-66117765D01*
X131012353Y-66096668D01*
X131195000Y-66218709D01*
X131195001Y-69127831D01*
X131195000Y-69127836D01*
X131195001Y-72048831D01*
X131195000Y-72048836D01*
X131195001Y-74751290D01*
X131012353Y-74873331D01*
X131008157Y-74852235D01*
X130867809Y-74642191D01*
X130657765Y-74501843D01*
X130410000Y-74452560D01*
X128670000Y-74452560D01*
X128422235Y-74501843D01*
X128212191Y-74642191D01*
X128071843Y-74852235D01*
X128022560Y-75100000D01*
X128022560Y-75315000D01*
X127102390Y-75315000D01*
X126815044Y-74884956D01*
X126317221Y-74552322D01*
X125730000Y-74435516D01*
X125142778Y-74552322D01*
X124655364Y-74878001D01*
X124598327Y-74740301D01*
X124419698Y-74561673D01*
X124186309Y-74465000D01*
X123475750Y-74465000D01*
X123317000Y-74623750D01*
X123317000Y-76073000D01*
X123337000Y-76073000D01*
X123337000Y-76327000D01*
X123317000Y-76327000D01*
X123317000Y-77776250D01*
X123475750Y-77935000D01*
X124186309Y-77935000D01*
X124419698Y-77838327D01*
X124598327Y-77659699D01*
X124655364Y-77521999D01*
X125142779Y-77847678D01*
X125730000Y-77964484D01*
X126317222Y-77847678D01*
X126815044Y-77515044D01*
X127102390Y-77085000D01*
X128022560Y-77085000D01*
X128022560Y-77300000D01*
X128071843Y-77547765D01*
X128212191Y-77757809D01*
X128422235Y-77898157D01*
X128670000Y-77947440D01*
X130410000Y-77947440D01*
X130657765Y-77898157D01*
X130867809Y-77757809D01*
X131008157Y-77547765D01*
X131012353Y-77526668D01*
X131492779Y-77847678D01*
X132080000Y-77964484D01*
X132667222Y-77847678D01*
X133165044Y-77515044D01*
X133497678Y-77017221D01*
X133585000Y-76578225D01*
X133585000Y-75821774D01*
X133497678Y-75382778D01*
X133466394Y-75335958D01*
X136539647Y-75335958D01*
X136619920Y-75587259D01*
X137175279Y-75788718D01*
X137765458Y-75762315D01*
X138188080Y-75587259D01*
X138268353Y-75335958D01*
X137404000Y-74471605D01*
X136539647Y-75335958D01*
X133466394Y-75335958D01*
X133165044Y-74884956D01*
X132965000Y-74751291D01*
X132965000Y-74063279D01*
X135907282Y-74063279D01*
X135933685Y-74653458D01*
X136108741Y-75076080D01*
X136360042Y-75156353D01*
X137224395Y-74292000D01*
X136360042Y-73427647D01*
X136108741Y-73507920D01*
X135907282Y-74063279D01*
X132965000Y-74063279D01*
X132965000Y-73248042D01*
X136539647Y-73248042D01*
X137404000Y-74112395D01*
X138268353Y-73248042D01*
X138188080Y-72996741D01*
X137632721Y-72795282D01*
X137042542Y-72821685D01*
X136619920Y-72996741D01*
X136539647Y-73248042D01*
X132965000Y-73248042D01*
X132965000Y-66218709D01*
X133165044Y-66085044D01*
X133452390Y-65655000D01*
X133999422Y-65655000D01*
X134372560Y-66028139D01*
X134372560Y-66636001D01*
X134440873Y-66979436D01*
X134635414Y-67270586D01*
X134926564Y-67465127D01*
X135269999Y-67533440D01*
X136510001Y-67533440D01*
X136853436Y-67465127D01*
X137037001Y-67342473D01*
X137037001Y-68492835D01*
X137019663Y-68580000D01*
X137088348Y-68925309D01*
X137234576Y-69144154D01*
X137234578Y-69144156D01*
X137283952Y-69218049D01*
X137357845Y-69267423D01*
X139059000Y-70968579D01*
X139059001Y-73076892D01*
X138685078Y-73450815D01*
X138665845Y-73497247D01*
X138447958Y-73427647D01*
X137583605Y-74292000D01*
X138447958Y-75156353D01*
X138665845Y-75086753D01*
X138685078Y-75133185D01*
X139102815Y-75550922D01*
X139648615Y-75777000D01*
X140239385Y-75777000D01*
X140785185Y-75550922D01*
X141202922Y-75133185D01*
X141214000Y-75106440D01*
X141225078Y-75133185D01*
X141642815Y-75550922D01*
X142188615Y-75777000D01*
X142779385Y-75777000D01*
X143325185Y-75550922D01*
X143742922Y-75133185D01*
X143969000Y-74587385D01*
X143969000Y-73996615D01*
X146079000Y-73996615D01*
X146079000Y-74587385D01*
X146305078Y-75133185D01*
X146722815Y-75550922D01*
X147268615Y-75777000D01*
X147859385Y-75777000D01*
X148405185Y-75550922D01*
X148822922Y-75133185D01*
X148834000Y-75106440D01*
X148845078Y-75133185D01*
X149202378Y-75490485D01*
X149201663Y-75494081D01*
X149270348Y-75839390D01*
X149416576Y-76058235D01*
X149416578Y-76058237D01*
X149465952Y-76132130D01*
X149539845Y-76181504D01*
X150376496Y-77018156D01*
X150425870Y-77092049D01*
X150499763Y-77141423D01*
X150499764Y-77141424D01*
X150610799Y-77215615D01*
X150718609Y-77287652D01*
X150976754Y-77339000D01*
X150976758Y-77339000D01*
X151063918Y-77356337D01*
X151151078Y-77339000D01*
X154879993Y-77339000D01*
X155242126Y-77489000D01*
X155653874Y-77489000D01*
X156034280Y-77331431D01*
X156325431Y-77040280D01*
X156483000Y-76659874D01*
X156483000Y-76248126D01*
X156325431Y-75867720D01*
X156034280Y-75576569D01*
X155998774Y-75561862D01*
X156025185Y-75550922D01*
X156442922Y-75133185D01*
X156669000Y-74587385D01*
X156669000Y-73996615D01*
X156442922Y-73450815D01*
X156025185Y-73033078D01*
X155479385Y-72807000D01*
X154888615Y-72807000D01*
X154342815Y-73033078D01*
X153925078Y-73450815D01*
X153914000Y-73477560D01*
X153902922Y-73450815D01*
X153485185Y-73033078D01*
X152939385Y-72807000D01*
X152348615Y-72807000D01*
X151802815Y-73033078D01*
X151385078Y-73450815D01*
X151374000Y-73477560D01*
X151362922Y-73450815D01*
X150945185Y-73033078D01*
X150399385Y-72807000D01*
X149808615Y-72807000D01*
X149262815Y-73033078D01*
X148845078Y-73450815D01*
X148834000Y-73477560D01*
X148822922Y-73450815D01*
X148405185Y-73033078D01*
X147859385Y-72807000D01*
X147268615Y-72807000D01*
X146722815Y-73033078D01*
X146305078Y-73450815D01*
X146079000Y-73996615D01*
X143969000Y-73996615D01*
X143742922Y-73450815D01*
X143325185Y-73033078D01*
X142779385Y-72807000D01*
X142188615Y-72807000D01*
X141642815Y-73033078D01*
X141225078Y-73450815D01*
X141214000Y-73477560D01*
X141202922Y-73450815D01*
X140829000Y-73076893D01*
X140829000Y-70689161D01*
X140846337Y-70602000D01*
X140829000Y-70514839D01*
X140829000Y-70514835D01*
X140777652Y-70256690D01*
X140726409Y-70180000D01*
X140631424Y-70037845D01*
X140631423Y-70037844D01*
X140582049Y-69963951D01*
X140508156Y-69914577D01*
X138807000Y-68213422D01*
X138807000Y-67818000D01*
X140065900Y-67818000D01*
X140189109Y-68437411D01*
X140539977Y-68962523D01*
X141065089Y-69313391D01*
X141528150Y-69405500D01*
X141935850Y-69405500D01*
X142398911Y-69313391D01*
X142924023Y-68962523D01*
X143274891Y-68437411D01*
X143398100Y-67818000D01*
X143274891Y-67198589D01*
X142924023Y-66673477D01*
X142722526Y-66538841D01*
X143107973Y-66144924D01*
X143322563Y-65650980D01*
X143202594Y-65405000D01*
X141859000Y-65405000D01*
X141859000Y-65425000D01*
X141605000Y-65425000D01*
X141605000Y-65405000D01*
X140261406Y-65405000D01*
X140141437Y-65650980D01*
X140356027Y-66144924D01*
X140741474Y-66538841D01*
X140539977Y-66673477D01*
X140189109Y-67198589D01*
X140065900Y-67818000D01*
X138807000Y-67818000D01*
X138807000Y-67475494D01*
X139017222Y-67433678D01*
X139515044Y-67101044D01*
X139847678Y-66603221D01*
X139935000Y-66164225D01*
X139935000Y-65407774D01*
X139847678Y-64968778D01*
X139515044Y-64470956D01*
X139017221Y-64138322D01*
X138807000Y-64096506D01*
X138807000Y-60561423D01*
X138881586Y-60511586D01*
X139014946Y-60312000D01*
X140084560Y-60312000D01*
X140084560Y-61150500D01*
X140133843Y-61398265D01*
X140274191Y-61608309D01*
X140451088Y-61726509D01*
X140189109Y-62118589D01*
X140065900Y-62738000D01*
X140189109Y-63357411D01*
X140539977Y-63882523D01*
X140741474Y-64017159D01*
X140356027Y-64411076D01*
X140141437Y-64905020D01*
X140261406Y-65151000D01*
X141605000Y-65151000D01*
X141605000Y-65131000D01*
X141859000Y-65131000D01*
X141859000Y-65151000D01*
X143202594Y-65151000D01*
X143322563Y-64905020D01*
X143107973Y-64411076D01*
X142993170Y-64293750D01*
X147593000Y-64293750D01*
X147593000Y-65234310D01*
X147689673Y-65467699D01*
X147868302Y-65646327D01*
X148101691Y-65743000D01*
X148812250Y-65743000D01*
X148971000Y-65584250D01*
X148971000Y-64135000D01*
X147751750Y-64135000D01*
X147593000Y-64293750D01*
X142993170Y-64293750D01*
X142722526Y-64017159D01*
X142924023Y-63882523D01*
X143097430Y-63623000D01*
X143144839Y-63623000D01*
X143232000Y-63640337D01*
X143319161Y-63623000D01*
X143319165Y-63623000D01*
X143577310Y-63571652D01*
X143870049Y-63376049D01*
X143919425Y-63302153D01*
X144439888Y-62781690D01*
X147593000Y-62781690D01*
X147593000Y-63722250D01*
X147751750Y-63881000D01*
X148971000Y-63881000D01*
X148971000Y-62431750D01*
X148812250Y-62273000D01*
X148101691Y-62273000D01*
X147868302Y-62369673D01*
X147689673Y-62548301D01*
X147593000Y-62781690D01*
X144439888Y-62781690D01*
X146264000Y-60957579D01*
X147084577Y-61778156D01*
X147133951Y-61852049D01*
X147207844Y-61901423D01*
X147207845Y-61901424D01*
X147218938Y-61908836D01*
X147426690Y-62047652D01*
X147684835Y-62099000D01*
X147684839Y-62099000D01*
X147771999Y-62116337D01*
X147859159Y-62099000D01*
X150753000Y-62099000D01*
X150753000Y-62559291D01*
X150563364Y-62686001D01*
X150506327Y-62548301D01*
X150327698Y-62369673D01*
X150094309Y-62273000D01*
X149383750Y-62273000D01*
X149225000Y-62431750D01*
X149225000Y-63881000D01*
X149245000Y-63881000D01*
X149245000Y-64135000D01*
X149225000Y-64135000D01*
X149225000Y-65584250D01*
X149383750Y-65743000D01*
X150094309Y-65743000D01*
X150327698Y-65646327D01*
X150506327Y-65467699D01*
X150563364Y-65329999D01*
X151050779Y-65655678D01*
X151638000Y-65772484D01*
X152225222Y-65655678D01*
X152723044Y-65323044D01*
X153055678Y-64825221D01*
X153143000Y-64386225D01*
X153143000Y-63629774D01*
X153055678Y-63190778D01*
X152723044Y-62692956D01*
X152523000Y-62559291D01*
X152523000Y-61301164D01*
X152540338Y-61214000D01*
X152523000Y-61126835D01*
X152523000Y-54976578D01*
X153873828Y-53625750D01*
X155340000Y-53625750D01*
X155340000Y-54566310D01*
X155436673Y-54799699D01*
X155615302Y-54978327D01*
X155848691Y-55075000D01*
X156559250Y-55075000D01*
X156718000Y-54916250D01*
X156718000Y-53467000D01*
X155498750Y-53467000D01*
X155340000Y-53625750D01*
X153873828Y-53625750D01*
X155340000Y-52159579D01*
X155340000Y-53054250D01*
X155498750Y-53213000D01*
X156718000Y-53213000D01*
X156718000Y-51763750D01*
X156972000Y-51763750D01*
X156972000Y-53213000D01*
X156992000Y-53213000D01*
X156992000Y-53467000D01*
X156972000Y-53467000D01*
X156972000Y-54916250D01*
X157130750Y-55075000D01*
X157841309Y-55075000D01*
X158074698Y-54978327D01*
X158253327Y-54799699D01*
X158310364Y-54661999D01*
X158797779Y-54987678D01*
X159385000Y-55104484D01*
X159972222Y-54987678D01*
X160470044Y-54655044D01*
X160802678Y-54157221D01*
X160890000Y-53718225D01*
X160890000Y-52961774D01*
X160802678Y-52522778D01*
X160470044Y-52024956D01*
X159972221Y-51692322D01*
X159385000Y-51575516D01*
X158797778Y-51692322D01*
X158310364Y-52018001D01*
X158253327Y-51880301D01*
X158074698Y-51701673D01*
X157841309Y-51605000D01*
X157130750Y-51605000D01*
X156972000Y-51763750D01*
X156718000Y-51763750D01*
X156559250Y-51605000D01*
X155894579Y-51605000D01*
X156322579Y-51177000D01*
X160923422Y-51177000D01*
X162820560Y-53074139D01*
X162820560Y-54190001D01*
X162888873Y-54533436D01*
X163083414Y-54824586D01*
X163374564Y-55019127D01*
X163453000Y-55034729D01*
X163453001Y-57545420D01*
X161573853Y-59424569D01*
X161211720Y-59574569D01*
X160920569Y-59865720D01*
X160763000Y-60246126D01*
X160763000Y-60657874D01*
X160920569Y-61038280D01*
X161211720Y-61329431D01*
X161592126Y-61487000D01*
X162003874Y-61487000D01*
X162384280Y-61329431D01*
X162530560Y-61183151D01*
X162530560Y-62996000D01*
X162579843Y-63243765D01*
X162720191Y-63453809D01*
X162930235Y-63594157D01*
X163093000Y-63626533D01*
X163093001Y-67116835D01*
X163075663Y-67204000D01*
X163144348Y-67549309D01*
X163290576Y-67768154D01*
X163290578Y-67768156D01*
X163339952Y-67842049D01*
X163413845Y-67891423D01*
X163674613Y-68152191D01*
X163589516Y-68580000D01*
X163706322Y-69167222D01*
X164038956Y-69665044D01*
X164315762Y-69850000D01*
X164038956Y-70034956D01*
X163706322Y-70532778D01*
X163589516Y-71120000D01*
X163706322Y-71707222D01*
X164038956Y-72205044D01*
X164315762Y-72390000D01*
X164038956Y-72574956D01*
X163706322Y-73072778D01*
X163589516Y-73660000D01*
X163706322Y-74247222D01*
X164038956Y-74745044D01*
X164315762Y-74930000D01*
X164038956Y-75114956D01*
X163706322Y-75612778D01*
X163589516Y-76200000D01*
X163706322Y-76787222D01*
X164032001Y-77274636D01*
X163894301Y-77331673D01*
X163715673Y-77510302D01*
X163619000Y-77743691D01*
X163619000Y-78454250D01*
X163777750Y-78613000D01*
X165227000Y-78613000D01*
X165227000Y-78593000D01*
X165481000Y-78593000D01*
X165481000Y-78613000D01*
X166930250Y-78613000D01*
X167089000Y-78454250D01*
X167089000Y-77743691D01*
X166992327Y-77510302D01*
X166813699Y-77331673D01*
X166675999Y-77274636D01*
X167001678Y-76787222D01*
X167118484Y-76200000D01*
X167001678Y-75612778D01*
X166669044Y-75114956D01*
X166392238Y-74930000D01*
X166669044Y-74745044D01*
X167001678Y-74247222D01*
X167118484Y-73660000D01*
X167001678Y-73072778D01*
X166669044Y-72574956D01*
X166392238Y-72390000D01*
X166669044Y-72205044D01*
X166802709Y-72005000D01*
X166866839Y-72005000D01*
X166954000Y-72022337D01*
X167041161Y-72005000D01*
X167041165Y-72005000D01*
X167299310Y-71953652D01*
X167592049Y-71758049D01*
X167641425Y-71684153D01*
X168458156Y-70867423D01*
X168532049Y-70818049D01*
X168727652Y-70525310D01*
X168779000Y-70267165D01*
X168779000Y-70267161D01*
X168796337Y-70180000D01*
X168779000Y-70092839D01*
X168779000Y-65499161D01*
X168796337Y-65412000D01*
X168779000Y-65324839D01*
X168779000Y-65324835D01*
X168727652Y-65066690D01*
X168640327Y-64935999D01*
X168581424Y-64847845D01*
X168581423Y-64847844D01*
X168532049Y-64773951D01*
X168458156Y-64724577D01*
X168106783Y-64373204D01*
X168135809Y-64353809D01*
X168276157Y-64143765D01*
X168325440Y-63896000D01*
X168325440Y-62596000D01*
X168276157Y-62348235D01*
X168135809Y-62138191D01*
X167925765Y-61997843D01*
X167897791Y-61992279D01*
X168037699Y-61934327D01*
X168216327Y-61755698D01*
X168313000Y-61522309D01*
X168313000Y-61031750D01*
X168154250Y-60873000D01*
X167005000Y-60873000D01*
X167005000Y-60893000D01*
X166751000Y-60893000D01*
X166751000Y-60873000D01*
X165601750Y-60873000D01*
X165443000Y-61031750D01*
X165443000Y-61522309D01*
X165539673Y-61755698D01*
X165718301Y-61934327D01*
X165858209Y-61992279D01*
X165830235Y-61997843D01*
X165620191Y-62138191D01*
X165479843Y-62348235D01*
X165430560Y-62596000D01*
X165430560Y-63896000D01*
X165479843Y-64143765D01*
X165620191Y-64353809D01*
X165830235Y-64494157D01*
X166001982Y-64528319D01*
X166044348Y-64741309D01*
X166190576Y-64960154D01*
X166190578Y-64960156D01*
X166239952Y-65034049D01*
X166313845Y-65083423D01*
X167009000Y-65778579D01*
X167009001Y-68029591D01*
X167001678Y-67992778D01*
X166669044Y-67494956D01*
X166171222Y-67162322D01*
X165732226Y-67075000D01*
X165100578Y-67075000D01*
X164863000Y-66837422D01*
X164863000Y-63626533D01*
X165025765Y-63594157D01*
X165235809Y-63453809D01*
X165376157Y-63243765D01*
X165425440Y-62996000D01*
X165425440Y-60996000D01*
X165376157Y-60748235D01*
X165235809Y-60538191D01*
X165025765Y-60397843D01*
X164778000Y-60348560D01*
X163178000Y-60348560D01*
X163146815Y-60354763D01*
X163531887Y-59969691D01*
X165443000Y-59969691D01*
X165443000Y-60460250D01*
X165601750Y-60619000D01*
X166751000Y-60619000D01*
X166751000Y-59619750D01*
X167005000Y-59619750D01*
X167005000Y-60619000D01*
X168154250Y-60619000D01*
X168313000Y-60460250D01*
X168313000Y-59969691D01*
X168216327Y-59736302D01*
X168037699Y-59557673D01*
X167804310Y-59461000D01*
X167163750Y-59461000D01*
X167005000Y-59619750D01*
X166751000Y-59619750D01*
X166592250Y-59461000D01*
X165951690Y-59461000D01*
X165718301Y-59557673D01*
X165539673Y-59736302D01*
X165443000Y-59969691D01*
X163531887Y-59969691D01*
X164902156Y-58599423D01*
X164976049Y-58550049D01*
X165171652Y-58257310D01*
X165223000Y-57999165D01*
X165223000Y-57999161D01*
X165240337Y-57912001D01*
X165223000Y-57824841D01*
X165223000Y-55034729D01*
X165301436Y-55019127D01*
X165592586Y-54824586D01*
X165749413Y-54589878D01*
X165792956Y-54655044D01*
X166290779Y-54987678D01*
X166878000Y-55104484D01*
X167465222Y-54987678D01*
X167963044Y-54655044D01*
X168295678Y-54157221D01*
X168383000Y-53718225D01*
X168383000Y-52961774D01*
X168295678Y-52522778D01*
X167963044Y-52024956D01*
X167465221Y-51692322D01*
X166878000Y-51575516D01*
X166290778Y-51692322D01*
X165792956Y-52024956D01*
X165749414Y-52090122D01*
X165592586Y-51855414D01*
X165301436Y-51660873D01*
X164958001Y-51592560D01*
X163842139Y-51592560D01*
X161977425Y-49727847D01*
X161928049Y-49653951D01*
X161635310Y-49458348D01*
X161377165Y-49407000D01*
X161377161Y-49407000D01*
X161290000Y-49389663D01*
X161202839Y-49407000D01*
X156043159Y-49407000D01*
X155955999Y-49389663D01*
X155868839Y-49407000D01*
X155868835Y-49407000D01*
X155610690Y-49458348D01*
X155610688Y-49458349D01*
X155610689Y-49458349D01*
X155391845Y-49604576D01*
X155391844Y-49604577D01*
X155317951Y-49653951D01*
X155268577Y-49727844D01*
X153765000Y-51231421D01*
X153765000Y-50275866D01*
X153363845Y-49307392D01*
X152622608Y-48566155D01*
X152064550Y-48335000D01*
X169470001Y-48335000D01*
X169470000Y-80570000D01*
X121360000Y-80570000D01*
X121360000Y-79025750D01*
X163619000Y-79025750D01*
X163619000Y-79736309D01*
X163715673Y-79969698D01*
X163894301Y-80148327D01*
X164127690Y-80245000D01*
X165068250Y-80245000D01*
X165227000Y-80086250D01*
X165227000Y-78867000D01*
X165481000Y-78867000D01*
X165481000Y-80086250D01*
X165639750Y-80245000D01*
X166580310Y-80245000D01*
X166813699Y-80148327D01*
X166992327Y-79969698D01*
X167089000Y-79736309D01*
X167089000Y-79025750D01*
X166930250Y-78867000D01*
X165481000Y-78867000D01*
X165227000Y-78867000D01*
X163777750Y-78867000D01*
X163619000Y-79025750D01*
X121360000Y-79025750D01*
X121360000Y-76485750D01*
X121685000Y-76485750D01*
X121685000Y-77426310D01*
X121781673Y-77659699D01*
X121960302Y-77838327D01*
X122193691Y-77935000D01*
X122904250Y-77935000D01*
X123063000Y-77776250D01*
X123063000Y-76327000D01*
X121843750Y-76327000D01*
X121685000Y-76485750D01*
X121360000Y-76485750D01*
X121360000Y-74973690D01*
X121685000Y-74973690D01*
X121685000Y-75914250D01*
X121843750Y-76073000D01*
X123063000Y-76073000D01*
X123063000Y-74623750D01*
X122904250Y-74465000D01*
X122193691Y-74465000D01*
X121960302Y-74561673D01*
X121781673Y-74740301D01*
X121685000Y-74973690D01*
X121360000Y-74973690D01*
X121360000Y-69960866D01*
X125000000Y-69960866D01*
X125000000Y-71009134D01*
X125401155Y-71977608D01*
X126142392Y-72718845D01*
X127110866Y-73120000D01*
X128159134Y-73120000D01*
X129127608Y-72718845D01*
X129868845Y-71977608D01*
X130270000Y-71009134D01*
X130270000Y-69960866D01*
X129868845Y-68992392D01*
X129127608Y-68251155D01*
X128159134Y-67850000D01*
X127110866Y-67850000D01*
X126142392Y-68251155D01*
X125401155Y-68992392D01*
X125000000Y-69960866D01*
X121360000Y-69960866D01*
X121360000Y-65055750D01*
X121685000Y-65055750D01*
X121685000Y-65996310D01*
X121781673Y-66229699D01*
X121960302Y-66408327D01*
X122193691Y-66505000D01*
X122904250Y-66505000D01*
X123063000Y-66346250D01*
X123063000Y-64897000D01*
X121843750Y-64897000D01*
X121685000Y-65055750D01*
X121360000Y-65055750D01*
X121360000Y-63543690D01*
X121685000Y-63543690D01*
X121685000Y-64484250D01*
X121843750Y-64643000D01*
X123063000Y-64643000D01*
X123063000Y-63193750D01*
X122904250Y-63035000D01*
X122193691Y-63035000D01*
X121960302Y-63131673D01*
X121781673Y-63310301D01*
X121685000Y-63543690D01*
X121360000Y-63543690D01*
X121360000Y-58530866D01*
X125000000Y-58530866D01*
X125000000Y-59579134D01*
X125401155Y-60547608D01*
X126142392Y-61288845D01*
X127110866Y-61690000D01*
X128159134Y-61690000D01*
X129127608Y-61288845D01*
X129868845Y-60547608D01*
X130270000Y-59579134D01*
X130270000Y-58530866D01*
X129868845Y-57562392D01*
X129127608Y-56821155D01*
X128159134Y-56420000D01*
X127110866Y-56420000D01*
X126142392Y-56821155D01*
X125401155Y-57562392D01*
X125000000Y-58530866D01*
X121360000Y-58530866D01*
X121360000Y-53625750D01*
X121685000Y-53625750D01*
X121685000Y-54566310D01*
X121781673Y-54799699D01*
X121960302Y-54978327D01*
X122193691Y-55075000D01*
X122904250Y-55075000D01*
X123063000Y-54916250D01*
X123063000Y-53467000D01*
X121843750Y-53467000D01*
X121685000Y-53625750D01*
X121360000Y-53625750D01*
X121360000Y-52113690D01*
X121685000Y-52113690D01*
X121685000Y-53054250D01*
X121843750Y-53213000D01*
X123063000Y-53213000D01*
X123063000Y-51763750D01*
X122904250Y-51605000D01*
X122193691Y-51605000D01*
X121960302Y-51701673D01*
X121781673Y-51880301D01*
X121685000Y-52113690D01*
X121360000Y-52113690D01*
X121360000Y-50163690D01*
X137455000Y-50163690D01*
X137455000Y-50754250D01*
X137613750Y-50913000D01*
X138963000Y-50913000D01*
X138963000Y-49813750D01*
X139217000Y-49813750D01*
X139217000Y-50913000D01*
X140566250Y-50913000D01*
X140725000Y-50754250D01*
X140725000Y-50163690D01*
X140628327Y-49930301D01*
X140449698Y-49751673D01*
X140216309Y-49655000D01*
X139375750Y-49655000D01*
X139217000Y-49813750D01*
X138963000Y-49813750D01*
X138804250Y-49655000D01*
X137963691Y-49655000D01*
X137730302Y-49751673D01*
X137551673Y-49930301D01*
X137455000Y-50163690D01*
X121360000Y-50163690D01*
X121360000Y-48335000D01*
X150195450Y-48335000D01*
X149637392Y-48566155D01*
M02*
