G04 #@! TF.GenerationSoftware,KiCad,Pcbnew,5.0.1*
G04 #@! TF.CreationDate,2018-10-18T17:34:51-05:00*
G04 #@! TF.ProjectId,PowerRDP,506F7765725244502E6B696361645F70,01*
G04 #@! TF.SameCoordinates,Original*
G04 #@! TF.FileFunction,Legend,Bot*
G04 #@! TF.FilePolarity,Positive*
%FSLAX46Y46*%
G04 Gerber Fmt 4.6, Leading zero omitted, Abs format (unit mm)*
G04 Created by KiCad (PCBNEW 5.0.1) date Thu 18 Oct 2018 05:34:51 PM CDT*
%MOMM*%
%LPD*%
G01*
G04 APERTURE LIST*
%ADD10C,0.200000*%
%ADD11C,0.150000*%
%ADD12C,0.120000*%
%ADD13C,0.010000*%
G04 APERTURE END LIST*
D10*
X160146952Y-63825428D02*
X159385047Y-63825428D01*
X157606952Y-63825428D02*
X156845047Y-63825428D01*
X157226000Y-64206380D02*
X157226000Y-63444476D01*
X154170095Y-63254000D02*
X154265333Y-63206380D01*
X154408190Y-63206380D01*
X154551047Y-63254000D01*
X154646285Y-63349238D01*
X154693904Y-63444476D01*
X154741523Y-63634952D01*
X154741523Y-63777809D01*
X154693904Y-63968285D01*
X154646285Y-64063523D01*
X154551047Y-64158761D01*
X154408190Y-64206380D01*
X154312952Y-64206380D01*
X154170095Y-64158761D01*
X154122476Y-64111142D01*
X154122476Y-63777809D01*
X154312952Y-63777809D01*
D11*
X120650000Y-47625000D02*
X120650000Y-48260000D01*
X161925000Y-47625000D02*
X120650000Y-47625000D01*
X161925000Y-81280000D02*
X161925000Y-47625000D01*
X120650000Y-81280000D02*
X161925000Y-81280000D01*
X120650000Y-48260000D02*
X120650000Y-81280000D01*
D12*
G04 #@! TO.C,C1*
X155142000Y-69848252D02*
X155142000Y-69325748D01*
X153722000Y-69848252D02*
X153722000Y-69325748D01*
G04 #@! TO.C,C2*
X159005748Y-69394000D02*
X159528252Y-69394000D01*
X159005748Y-70814000D02*
X159528252Y-70814000D01*
G04 #@! TO.C,C6*
X143511748Y-52630000D02*
X144034252Y-52630000D01*
X143511748Y-54050000D02*
X144034252Y-54050000D01*
G04 #@! TO.C,JP1*
X153146000Y-76832000D02*
X151146000Y-76832000D01*
X153146000Y-79632000D02*
X153146000Y-76832000D01*
X151146000Y-79632000D02*
X153146000Y-79632000D01*
X151146000Y-76832000D02*
X151146000Y-79632000D01*
D13*
G04 #@! TO.C,G\002A\002A\002A*
G36*
X147166483Y-55467126D02*
X147346583Y-55745828D01*
X147455002Y-55991973D01*
X147655805Y-56543601D01*
X147844378Y-57098336D01*
X148011143Y-57623513D01*
X148146521Y-58086465D01*
X148240935Y-58454524D01*
X148284805Y-58695025D01*
X148271211Y-58775600D01*
X148206344Y-58696207D01*
X148188279Y-58648600D01*
X147840232Y-57684127D01*
X147385456Y-56656169D01*
X147242658Y-56366243D01*
X147053711Y-55970681D01*
X146916258Y-55642166D01*
X146846442Y-55422018D01*
X146847096Y-55353836D01*
X146991092Y-55327125D01*
X147166483Y-55467126D01*
X147166483Y-55467126D01*
G37*
X147166483Y-55467126D02*
X147346583Y-55745828D01*
X147455002Y-55991973D01*
X147655805Y-56543601D01*
X147844378Y-57098336D01*
X148011143Y-57623513D01*
X148146521Y-58086465D01*
X148240935Y-58454524D01*
X148284805Y-58695025D01*
X148271211Y-58775600D01*
X148206344Y-58696207D01*
X148188279Y-58648600D01*
X147840232Y-57684127D01*
X147385456Y-56656169D01*
X147242658Y-56366243D01*
X147053711Y-55970681D01*
X146916258Y-55642166D01*
X146846442Y-55422018D01*
X146847096Y-55353836D01*
X146991092Y-55327125D01*
X147166483Y-55467126D01*
G36*
X148336000Y-58928000D02*
X148285200Y-58978800D01*
X148234400Y-58928000D01*
X148285200Y-58877200D01*
X148336000Y-58928000D01*
X148336000Y-58928000D01*
G37*
X148336000Y-58928000D02*
X148285200Y-58978800D01*
X148234400Y-58928000D01*
X148285200Y-58877200D01*
X148336000Y-58928000D01*
G36*
X130115733Y-79332666D02*
X130101786Y-79393067D01*
X130048000Y-79400400D01*
X129964371Y-79363226D01*
X129980266Y-79332666D01*
X130100842Y-79320507D01*
X130115733Y-79332666D01*
X130115733Y-79332666D01*
G37*
X130115733Y-79332666D02*
X130101786Y-79393067D01*
X130048000Y-79400400D01*
X129964371Y-79363226D01*
X129980266Y-79332666D01*
X130100842Y-79320507D01*
X130115733Y-79332666D01*
G36*
X133609150Y-67877006D02*
X133762381Y-67967168D01*
X133877592Y-68079969D01*
X133838883Y-68111104D01*
X133678574Y-68060170D01*
X133502400Y-67970400D01*
X133357235Y-67864575D01*
X133396919Y-67822011D01*
X133406781Y-67821600D01*
X133609150Y-67877006D01*
X133609150Y-67877006D01*
G37*
X133609150Y-67877006D02*
X133762381Y-67967168D01*
X133877592Y-68079969D01*
X133838883Y-68111104D01*
X133678574Y-68060170D01*
X133502400Y-67970400D01*
X133357235Y-67864575D01*
X133396919Y-67822011D01*
X133406781Y-67821600D01*
X133609150Y-67877006D01*
G36*
X133486984Y-68392351D02*
X133719744Y-68525819D01*
X133867697Y-68654347D01*
X133895060Y-68704186D01*
X133781481Y-68675232D01*
X133506610Y-68567383D01*
X133400800Y-68524190D01*
X133147637Y-68414057D01*
X133069675Y-68356075D01*
X133150823Y-68333849D01*
X133211744Y-68331525D01*
X133486984Y-68392351D01*
X133486984Y-68392351D01*
G37*
X133486984Y-68392351D02*
X133719744Y-68525819D01*
X133867697Y-68654347D01*
X133895060Y-68704186D01*
X133781481Y-68675232D01*
X133506610Y-68567383D01*
X133400800Y-68524190D01*
X133147637Y-68414057D01*
X133069675Y-68356075D01*
X133150823Y-68333849D01*
X133211744Y-68331525D01*
X133486984Y-68392351D01*
G36*
X132105400Y-65811798D02*
X132191638Y-65935928D01*
X132190666Y-66178327D01*
X132110548Y-66477785D01*
X131983659Y-66735628D01*
X131874823Y-66933189D01*
X131859388Y-67090542D01*
X131937653Y-67301806D01*
X131985776Y-67402877D01*
X132122913Y-67728496D01*
X132222785Y-68037866D01*
X132232410Y-68078848D01*
X132230868Y-68148082D01*
X132166677Y-68050324D01*
X132053487Y-67806917D01*
X132043315Y-67783180D01*
X131904339Y-67467200D01*
X131793472Y-67233200D01*
X131739612Y-67138946D01*
X131603992Y-67127284D01*
X131405541Y-67223896D01*
X131212350Y-67381655D01*
X131092515Y-67553434D01*
X131081831Y-67594187D01*
X131083609Y-67756170D01*
X131193555Y-67784694D01*
X131308903Y-67760404D01*
X131512083Y-67746093D01*
X131630953Y-67869946D01*
X131672072Y-67966383D01*
X131768559Y-68402376D01*
X131716060Y-68773338D01*
X131606679Y-68953412D01*
X131496167Y-69136062D01*
X131531760Y-69342603D01*
X131553701Y-69393212D01*
X131694657Y-69619658D01*
X131829115Y-69658141D01*
X131960679Y-69504772D01*
X132092953Y-69155664D01*
X132213213Y-68681600D01*
X132230738Y-68653163D01*
X132228054Y-68795191D01*
X132214141Y-68978574D01*
X132153069Y-69384126D01*
X132058436Y-69681944D01*
X131944841Y-69832076D01*
X131898625Y-69841978D01*
X131745911Y-69800437D01*
X131695897Y-69781677D01*
X131564378Y-69651090D01*
X131398167Y-69379117D01*
X131223320Y-69018275D01*
X131065898Y-68621085D01*
X130973616Y-68326000D01*
X130940968Y-68126182D01*
X131125263Y-68126182D01*
X131184228Y-68267665D01*
X131192433Y-68277158D01*
X131350600Y-68409699D01*
X131452117Y-68352716D01*
X131506022Y-68200752D01*
X131517851Y-67967632D01*
X131423806Y-67872297D01*
X131258830Y-67944171D01*
X131231622Y-67969691D01*
X131125263Y-68126182D01*
X130940968Y-68126182D01*
X130922894Y-68015571D01*
X130916121Y-67679749D01*
X130947676Y-67377177D01*
X131011935Y-67166497D01*
X131090816Y-67103654D01*
X131226159Y-67066015D01*
X131450163Y-66964794D01*
X131466733Y-66956295D01*
X131710687Y-66731527D01*
X131892193Y-66378148D01*
X131975887Y-65968931D01*
X131977833Y-65904533D01*
X132049588Y-65806877D01*
X132105400Y-65811798D01*
X132105400Y-65811798D01*
G37*
X132105400Y-65811798D02*
X132191638Y-65935928D01*
X132190666Y-66178327D01*
X132110548Y-66477785D01*
X131983659Y-66735628D01*
X131874823Y-66933189D01*
X131859388Y-67090542D01*
X131937653Y-67301806D01*
X131985776Y-67402877D01*
X132122913Y-67728496D01*
X132222785Y-68037866D01*
X132232410Y-68078848D01*
X132230868Y-68148082D01*
X132166677Y-68050324D01*
X132053487Y-67806917D01*
X132043315Y-67783180D01*
X131904339Y-67467200D01*
X131793472Y-67233200D01*
X131739612Y-67138946D01*
X131603992Y-67127284D01*
X131405541Y-67223896D01*
X131212350Y-67381655D01*
X131092515Y-67553434D01*
X131081831Y-67594187D01*
X131083609Y-67756170D01*
X131193555Y-67784694D01*
X131308903Y-67760404D01*
X131512083Y-67746093D01*
X131630953Y-67869946D01*
X131672072Y-67966383D01*
X131768559Y-68402376D01*
X131716060Y-68773338D01*
X131606679Y-68953412D01*
X131496167Y-69136062D01*
X131531760Y-69342603D01*
X131553701Y-69393212D01*
X131694657Y-69619658D01*
X131829115Y-69658141D01*
X131960679Y-69504772D01*
X132092953Y-69155664D01*
X132213213Y-68681600D01*
X132230738Y-68653163D01*
X132228054Y-68795191D01*
X132214141Y-68978574D01*
X132153069Y-69384126D01*
X132058436Y-69681944D01*
X131944841Y-69832076D01*
X131898625Y-69841978D01*
X131745911Y-69800437D01*
X131695897Y-69781677D01*
X131564378Y-69651090D01*
X131398167Y-69379117D01*
X131223320Y-69018275D01*
X131065898Y-68621085D01*
X130973616Y-68326000D01*
X130940968Y-68126182D01*
X131125263Y-68126182D01*
X131184228Y-68267665D01*
X131192433Y-68277158D01*
X131350600Y-68409699D01*
X131452117Y-68352716D01*
X131506022Y-68200752D01*
X131517851Y-67967632D01*
X131423806Y-67872297D01*
X131258830Y-67944171D01*
X131231622Y-67969691D01*
X131125263Y-68126182D01*
X130940968Y-68126182D01*
X130922894Y-68015571D01*
X130916121Y-67679749D01*
X130947676Y-67377177D01*
X131011935Y-67166497D01*
X131090816Y-67103654D01*
X131226159Y-67066015D01*
X131450163Y-66964794D01*
X131466733Y-66956295D01*
X131710687Y-66731527D01*
X131892193Y-66378148D01*
X131975887Y-65968931D01*
X131977833Y-65904533D01*
X132049588Y-65806877D01*
X132105400Y-65811798D01*
G36*
X131968986Y-70063700D02*
X132041218Y-70189182D01*
X132133192Y-70402615D01*
X132144564Y-70529762D01*
X132141593Y-70533472D01*
X132071497Y-70492357D01*
X131981378Y-70315034D01*
X131981242Y-70314676D01*
X131895929Y-70059667D01*
X131893181Y-69973211D01*
X131968986Y-70063700D01*
X131968986Y-70063700D01*
G37*
X131968986Y-70063700D02*
X132041218Y-70189182D01*
X132133192Y-70402615D01*
X132144564Y-70529762D01*
X132141593Y-70533472D01*
X132071497Y-70492357D01*
X131981378Y-70315034D01*
X131981242Y-70314676D01*
X131895929Y-70059667D01*
X131893181Y-69973211D01*
X131968986Y-70063700D01*
G36*
X149787064Y-47631438D02*
X149851652Y-47764865D01*
X150003351Y-48053622D01*
X150137494Y-48234531D01*
X150230326Y-48287437D01*
X150258091Y-48192180D01*
X150243396Y-48097300D01*
X150170567Y-47812402D01*
X150120047Y-47650400D01*
X150102517Y-47561178D01*
X150174927Y-47653197D01*
X150204982Y-47701200D01*
X150314914Y-47864581D01*
X150360751Y-47860940D01*
X150374225Y-47752000D01*
X150405232Y-47737227D01*
X150474528Y-47886988D01*
X150567852Y-48169525D01*
X150579511Y-48209200D01*
X150771372Y-48869600D01*
X150718586Y-48336200D01*
X150692422Y-47987029D01*
X150698922Y-47830389D01*
X150732633Y-47859219D01*
X150788101Y-48066455D01*
X150859873Y-48445037D01*
X150875494Y-48539400D01*
X151072805Y-49509486D01*
X151329607Y-50331091D01*
X151425431Y-50568136D01*
X151534319Y-50988906D01*
X151582957Y-51600363D01*
X151585721Y-51838136D01*
X151541549Y-52603939D01*
X151401521Y-53245355D01*
X151150152Y-53824629D01*
X151047763Y-54000400D01*
X150895195Y-54216028D01*
X150651644Y-54525039D01*
X150349117Y-54890499D01*
X150019619Y-55275476D01*
X149695155Y-55643036D01*
X149407730Y-55956247D01*
X149189351Y-56178175D01*
X149084397Y-56266049D01*
X148945048Y-56407715D01*
X148792925Y-56642979D01*
X148781196Y-56665211D01*
X148722467Y-56782710D01*
X148682639Y-56894038D01*
X148663181Y-57030133D01*
X148665564Y-57221934D01*
X148691258Y-57500381D01*
X148741732Y-57896412D01*
X148818456Y-58440966D01*
X148888701Y-58928000D01*
X148958106Y-59583821D01*
X148998371Y-60359078D01*
X149011510Y-61223680D01*
X148999539Y-62147534D01*
X148964470Y-63100549D01*
X148908319Y-64052632D01*
X148833100Y-64973692D01*
X148740827Y-65833638D01*
X148633514Y-66602376D01*
X148513177Y-67249815D01*
X148381828Y-67745864D01*
X148281991Y-67991577D01*
X148177590Y-68216464D01*
X148133431Y-68360647D01*
X148133425Y-68361115D01*
X148078857Y-68494111D01*
X147945607Y-68709240D01*
X147918572Y-68747886D01*
X147704344Y-69048741D01*
X147934044Y-69931970D01*
X148020337Y-70297596D01*
X148085522Y-70667272D01*
X148133615Y-71082824D01*
X148168634Y-71586078D01*
X148194595Y-72218860D01*
X148210764Y-72813144D01*
X148257784Y-74811089D01*
X147950969Y-74969749D01*
X147542683Y-75130040D01*
X146988058Y-75277073D01*
X146343931Y-75400579D01*
X145667141Y-75490288D01*
X145014526Y-75535932D01*
X144796822Y-75539600D01*
X144256554Y-75527006D01*
X143883363Y-75477097D01*
X143642031Y-75371682D01*
X143497336Y-75192568D01*
X143414059Y-74921563D01*
X143395134Y-74815601D01*
X143393688Y-74806648D01*
X143577298Y-74806648D01*
X143592507Y-74964639D01*
X143708341Y-75093761D01*
X143770182Y-75142897D01*
X144045574Y-75294683D01*
X144238223Y-75264754D01*
X144305505Y-75126791D01*
X144576800Y-75126791D01*
X144614267Y-75308343D01*
X144693849Y-75429032D01*
X144720733Y-75437411D01*
X144816577Y-75422138D01*
X145056783Y-75383089D01*
X145324062Y-75339402D01*
X145763044Y-75251200D01*
X146022356Y-75149238D01*
X146125444Y-75013827D01*
X146125192Y-75012223D01*
X146356735Y-75012223D01*
X146371700Y-75058945D01*
X146504696Y-75103331D01*
X146768051Y-75088798D01*
X147100369Y-75023649D01*
X147440249Y-74916187D01*
X147447000Y-74913546D01*
X147647062Y-74793099D01*
X147726400Y-74666016D01*
X147637087Y-74482623D01*
X147418300Y-74336592D01*
X147143763Y-74265477D01*
X146965491Y-74278404D01*
X146758006Y-74391956D01*
X146555840Y-74593576D01*
X146406310Y-74821065D01*
X146356735Y-75012223D01*
X146125192Y-75012223D01*
X146095753Y-74825281D01*
X146051081Y-74728892D01*
X145814051Y-74435195D01*
X145493191Y-74322383D01*
X145435625Y-74320400D01*
X145253491Y-74391668D01*
X145016597Y-74567594D01*
X144785453Y-74791361D01*
X144620573Y-75006152D01*
X144576800Y-75126791D01*
X144305505Y-75126791D01*
X144340377Y-75055286D01*
X144350438Y-74979967D01*
X144325013Y-74739489D01*
X144231725Y-74470495D01*
X144101455Y-74231370D01*
X143965086Y-74080501D01*
X143866835Y-74065636D01*
X143779152Y-74193535D01*
X143677366Y-74440832D01*
X143645982Y-74538332D01*
X143577298Y-74806648D01*
X143393688Y-74806648D01*
X143339755Y-74472800D01*
X142659971Y-74505655D01*
X142187927Y-74501769D01*
X141874343Y-74416333D01*
X141691000Y-74219973D01*
X141657420Y-74080956D01*
X141936095Y-74080956D01*
X142036437Y-74241924D01*
X142323706Y-74352054D01*
X142792049Y-74407338D01*
X142810110Y-74408163D01*
X143026147Y-74399791D01*
X143093724Y-74315645D01*
X143077107Y-74165073D01*
X143046138Y-74102829D01*
X143256108Y-74102829D01*
X143328310Y-74257243D01*
X143428845Y-74238885D01*
X143573225Y-74096863D01*
X143713809Y-73888952D01*
X143799839Y-73685400D01*
X143821081Y-73543748D01*
X143754599Y-73526742D01*
X143566352Y-73632790D01*
X143506425Y-73671685D01*
X143310979Y-73875539D01*
X143256108Y-74102829D01*
X143046138Y-74102829D01*
X142937361Y-73884201D01*
X142687574Y-73716117D01*
X142391914Y-73678687D01*
X142114554Y-73789775D01*
X142028536Y-73873157D01*
X141936095Y-74080956D01*
X141657420Y-74080956D01*
X141609678Y-73883316D01*
X141605995Y-73672222D01*
X141860579Y-73672222D01*
X141889540Y-73755431D01*
X141954468Y-73734667D01*
X142010679Y-73688416D01*
X142258480Y-73528699D01*
X142422774Y-73460391D01*
X142728147Y-73466991D01*
X142900053Y-73548830D01*
X143070915Y-73640976D01*
X143219756Y-73636310D01*
X143430100Y-73525400D01*
X143500378Y-73481055D01*
X143736251Y-73301106D01*
X143838821Y-73107299D01*
X143861313Y-72847200D01*
X143894174Y-72554092D01*
X143977201Y-72148081D01*
X144093753Y-71708166D01*
X144118089Y-71628000D01*
X144262749Y-71139465D01*
X144341336Y-70792492D01*
X144357277Y-70537694D01*
X144314001Y-70325687D01*
X144222654Y-70121795D01*
X143964574Y-69575449D01*
X143707716Y-68940554D01*
X143466651Y-68263324D01*
X143255949Y-67589969D01*
X143090182Y-66966703D01*
X142983920Y-66439736D01*
X142951200Y-66089341D01*
X142930819Y-65884592D01*
X142828414Y-65801317D01*
X142600203Y-65786000D01*
X142366591Y-65804654D01*
X142249820Y-65900224D01*
X142183939Y-66132115D01*
X142177250Y-66167000D01*
X142143047Y-66470455D01*
X142120688Y-66915444D01*
X142110288Y-67440639D01*
X142111964Y-67984714D01*
X142125833Y-68486340D01*
X142152010Y-68884190D01*
X142171808Y-69037200D01*
X142305606Y-69644836D01*
X142498593Y-70331081D01*
X142522338Y-70589576D01*
X142490106Y-70737481D01*
X142407638Y-70941302D01*
X142380247Y-71018400D01*
X142330883Y-71163052D01*
X142235901Y-71434160D01*
X142141850Y-71699826D01*
X142029064Y-72107358D01*
X141935567Y-72606367D01*
X141883937Y-73062424D01*
X141860929Y-73452175D01*
X141860579Y-73672222D01*
X141605995Y-73672222D01*
X141601309Y-73403722D01*
X141669497Y-72653093D01*
X141818209Y-71890601D01*
X142028622Y-71202199D01*
X142143124Y-70929445D01*
X142266193Y-70642547D01*
X142299285Y-70452026D01*
X142249394Y-70275687D01*
X142206221Y-70187716D01*
X142078756Y-69874085D01*
X141988356Y-69544025D01*
X141924094Y-69210339D01*
X141849761Y-68824201D01*
X141832094Y-68732400D01*
X141796006Y-68444133D01*
X141765923Y-68014868D01*
X141745363Y-67506794D01*
X141738056Y-67070529D01*
X141732732Y-66558474D01*
X141719773Y-66218602D01*
X141694520Y-66019919D01*
X141652314Y-65931431D01*
X141588496Y-65922143D01*
X141566518Y-65929360D01*
X141119950Y-66066603D01*
X140660107Y-66152895D01*
X140272058Y-66173893D01*
X140174490Y-66164087D01*
X139885482Y-66152154D01*
X139667807Y-66240554D01*
X139502713Y-66454480D01*
X139371450Y-66819126D01*
X139255268Y-67359685D01*
X139246007Y-67411600D01*
X139150771Y-67937249D01*
X139047379Y-68485704D01*
X138954188Y-68960139D01*
X138930652Y-69075062D01*
X138856950Y-69461402D01*
X138804732Y-69795350D01*
X138785600Y-69999253D01*
X138740407Y-70247650D01*
X138631316Y-70534388D01*
X138627624Y-70541851D01*
X138528616Y-70842970D01*
X138568063Y-71042412D01*
X138624821Y-71212463D01*
X138704399Y-71534908D01*
X138795773Y-71961777D01*
X138878690Y-72393978D01*
X138993722Y-72980960D01*
X139130591Y-73610411D01*
X139268445Y-74188981D01*
X139343388Y-74474426D01*
X139520723Y-75222886D01*
X139591469Y-75804124D01*
X139555799Y-76223814D01*
X139413886Y-76487628D01*
X139404807Y-76496105D01*
X139106748Y-76686617D01*
X138681223Y-76824289D01*
X138107931Y-76912880D01*
X137366571Y-76956152D01*
X136889852Y-76962000D01*
X136332789Y-76959298D01*
X135941661Y-76947933D01*
X135679241Y-76923017D01*
X135508300Y-76879662D01*
X135391609Y-76812979D01*
X135329517Y-76757117D01*
X135269854Y-76659319D01*
X137314145Y-76659319D01*
X137318980Y-76667847D01*
X137452755Y-76717574D01*
X137722785Y-76722810D01*
X138067964Y-76687423D01*
X138427184Y-76615282D01*
X138510445Y-76592418D01*
X138639561Y-76492556D01*
X138625011Y-76318805D01*
X138611039Y-76289334D01*
X138900259Y-76289334D01*
X138958975Y-76341904D01*
X138999861Y-76332421D01*
X139103953Y-76209144D01*
X139170307Y-75969868D01*
X139173843Y-75938175D01*
X139168315Y-75725595D01*
X139110583Y-75686785D01*
X139024623Y-75807134D01*
X138934410Y-76072033D01*
X138930850Y-76086246D01*
X138900259Y-76289334D01*
X138611039Y-76289334D01*
X138475133Y-76002686D01*
X138280337Y-75852748D01*
X138219140Y-75844400D01*
X137962316Y-75906306D01*
X137695346Y-76062715D01*
X137466287Y-76269663D01*
X137323200Y-76483186D01*
X137314145Y-76659319D01*
X135269854Y-76659319D01*
X135186073Y-76521989D01*
X135187287Y-76363547D01*
X135431921Y-76363547D01*
X135496953Y-76526407D01*
X135610600Y-76587164D01*
X135807550Y-76614887D01*
X136125516Y-76636872D01*
X136372600Y-76645414D01*
X136701730Y-76645989D01*
X136876433Y-76617938D01*
X136945257Y-76542165D01*
X136956800Y-76415640D01*
X136894360Y-76132555D01*
X136722557Y-76005395D01*
X136464664Y-76036144D01*
X136143954Y-76226788D01*
X136017000Y-76335502D01*
X135840254Y-76474230D01*
X135743694Y-76502271D01*
X135737600Y-76485448D01*
X135807925Y-76336057D01*
X135890000Y-76250800D01*
X136028636Y-76081669D01*
X135991180Y-75971826D01*
X135859520Y-75946000D01*
X135636775Y-76012631D01*
X135486385Y-76172051D01*
X135431921Y-76363547D01*
X135187287Y-76363547D01*
X135188353Y-76224646D01*
X135337899Y-75829779D01*
X135373047Y-75760111D01*
X135500278Y-75413064D01*
X135518530Y-75036345D01*
X135426064Y-74575720D01*
X135324946Y-74259970D01*
X135210822Y-73890533D01*
X135079988Y-73401782D01*
X134953371Y-72874085D01*
X134898368Y-72621636D01*
X134805830Y-72167500D01*
X134750817Y-71828822D01*
X134732347Y-71539645D01*
X134749437Y-71234015D01*
X134801103Y-70845974D01*
X134865809Y-70437236D01*
X134949552Y-69857961D01*
X135023150Y-69237291D01*
X135083670Y-68614656D01*
X135128182Y-68029490D01*
X135153754Y-67521223D01*
X135157455Y-67129289D01*
X135136354Y-66893120D01*
X135130746Y-66873201D01*
X135074989Y-66757869D01*
X134987131Y-66771274D01*
X134828962Y-66898601D01*
X134619741Y-67056268D01*
X134459346Y-67096148D01*
X134321617Y-66999150D01*
X134180391Y-66746179D01*
X134009506Y-66318142D01*
X134000529Y-66294000D01*
X133682189Y-65639860D01*
X133257943Y-65068168D01*
X132770137Y-64633928D01*
X132675059Y-64572290D01*
X132462376Y-64427083D01*
X132425526Y-64368039D01*
X132552801Y-64403098D01*
X132770845Y-64507331D01*
X133227151Y-64844658D01*
X133651004Y-65345840D01*
X134012246Y-65971544D01*
X134160191Y-66319400D01*
X134275239Y-66593550D01*
X134369930Y-66767327D01*
X134405203Y-66799740D01*
X134620100Y-66699053D01*
X134878340Y-66424395D01*
X135164890Y-65996433D01*
X135464717Y-65435828D01*
X135586206Y-65176400D01*
X135723757Y-64877658D01*
X135845653Y-64622260D01*
X135855737Y-64601887D01*
X135915562Y-64390686D01*
X135897761Y-64274557D01*
X135899338Y-64119655D01*
X135991387Y-63920983D01*
X136064017Y-63779935D01*
X136110168Y-63595814D01*
X136133275Y-63328748D01*
X136136777Y-62938863D01*
X136124108Y-62386289D01*
X136123990Y-62382400D01*
X136123543Y-62139235D01*
X136130990Y-61832931D01*
X136131340Y-61823600D01*
X136142946Y-61229750D01*
X136133543Y-60679991D01*
X136105427Y-60216803D01*
X136060894Y-59882669D01*
X136018937Y-59743885D01*
X135879769Y-59524961D01*
X135685413Y-59267208D01*
X135665365Y-59242869D01*
X135500905Y-58993646D01*
X135463743Y-58740199D01*
X135486050Y-58557897D01*
X135514656Y-58297510D01*
X135463936Y-58160591D01*
X135304758Y-58073702D01*
X135292028Y-58068821D01*
X135061062Y-57893114D01*
X134966966Y-57710573D01*
X134876838Y-57528008D01*
X134773220Y-57478380D01*
X134623140Y-57426579D01*
X134453601Y-57270783D01*
X134244014Y-57103350D01*
X134095094Y-57100252D01*
X133937814Y-57250004D01*
X133768785Y-57560219D01*
X133604823Y-57990178D01*
X133462747Y-58499159D01*
X133405124Y-58770810D01*
X133305691Y-59193323D01*
X133178040Y-59602993D01*
X133083083Y-59837610D01*
X132838376Y-60208565D01*
X132511186Y-60523738D01*
X132158036Y-60738095D01*
X131865623Y-60807600D01*
X131582368Y-60807599D01*
X131743813Y-61188600D01*
X131854041Y-61596653D01*
X131895776Y-62082765D01*
X131868768Y-62562136D01*
X131772771Y-62949964D01*
X131749126Y-63001574D01*
X131606099Y-63375008D01*
X131472517Y-63882835D01*
X131361914Y-64456290D01*
X131287827Y-65026608D01*
X131263599Y-65468262D01*
X131242233Y-65855626D01*
X131190209Y-66190765D01*
X131129020Y-66377682D01*
X131068006Y-66465387D01*
X131033471Y-66439629D01*
X131021971Y-66274827D01*
X131030058Y-65945399D01*
X131040074Y-65717282D01*
X131076995Y-65234643D01*
X131137094Y-64760834D01*
X131208800Y-64383021D01*
X131225696Y-64318945D01*
X131303391Y-64002323D01*
X131307079Y-63824651D01*
X131243441Y-63739316D01*
X131172623Y-63642292D01*
X131202647Y-63459825D01*
X131252122Y-63326771D01*
X131497390Y-62519925D01*
X131553763Y-61783543D01*
X131420115Y-61110414D01*
X131095320Y-60493328D01*
X130745539Y-60082739D01*
X130313407Y-59755205D01*
X129865148Y-59594007D01*
X129434354Y-59592634D01*
X129054617Y-59744574D01*
X128759526Y-60043316D01*
X128582674Y-60482349D01*
X128578522Y-60502800D01*
X128477466Y-60934293D01*
X128374779Y-61166640D01*
X128258199Y-61203616D01*
X128115464Y-61048997D01*
X127934311Y-60706558D01*
X127932094Y-60701835D01*
X127756248Y-60379546D01*
X127582049Y-60231352D01*
X127353780Y-60236411D01*
X127033145Y-60365587D01*
X126741058Y-60536332D01*
X126547464Y-60747265D01*
X126433866Y-61041125D01*
X126381769Y-61460655D01*
X126371927Y-61893569D01*
X126348288Y-62504387D01*
X126276431Y-62928271D01*
X126216266Y-63084828D01*
X126119912Y-63325692D01*
X126142617Y-63505741D01*
X126190950Y-63594561D01*
X126300694Y-63811188D01*
X126434280Y-64129225D01*
X126502731Y-64312039D01*
X126618325Y-64608173D01*
X126723105Y-64757282D01*
X126866325Y-64806460D01*
X127019882Y-64806473D01*
X127237369Y-64801110D01*
X127267089Y-64823931D01*
X127124212Y-64892787D01*
X127101600Y-64902638D01*
X126906386Y-64988567D01*
X126821741Y-65027490D01*
X126830051Y-65127868D01*
X126898996Y-65362056D01*
X127009048Y-65677146D01*
X127140676Y-66020232D01*
X127274349Y-66338405D01*
X127390538Y-66578758D01*
X127401771Y-66598800D01*
X127544073Y-66710608D01*
X127625545Y-66711912D01*
X127829197Y-66663011D01*
X128016000Y-66625059D01*
X128190768Y-66598870D01*
X128180170Y-66640940D01*
X128066800Y-66728333D01*
X127841414Y-66862741D01*
X127700078Y-66916786D01*
X127607585Y-66959549D01*
X127602040Y-67061275D01*
X127686548Y-67275234D01*
X127725974Y-67360800D01*
X127942037Y-67793115D01*
X128172903Y-68204391D01*
X128390319Y-68548573D01*
X128566033Y-68779605D01*
X128634324Y-68841542D01*
X128830589Y-68906921D01*
X129112486Y-68942422D01*
X129133600Y-68943207D01*
X129489200Y-68953926D01*
X129159000Y-69049268D01*
X128924512Y-69144291D01*
X128846629Y-69273491D01*
X128921460Y-69475134D01*
X129091078Y-69717483D01*
X129269723Y-69927831D01*
X129433927Y-70017713D01*
X129671976Y-70022186D01*
X129819114Y-70006571D01*
X130115547Y-69981249D01*
X130215823Y-69999513D01*
X130119704Y-70063538D01*
X129826953Y-70175497D01*
X129799633Y-70184998D01*
X129414136Y-70318460D01*
X129664188Y-70609163D01*
X129943989Y-70838250D01*
X130239117Y-70899866D01*
X130438147Y-70918790D01*
X130447642Y-70972703D01*
X130432997Y-70982977D01*
X130216048Y-71058913D01*
X130129384Y-71067644D01*
X130026275Y-71085443D01*
X130012387Y-71171120D01*
X130085660Y-71377100D01*
X130114490Y-71446681D01*
X130329624Y-71828619D01*
X130596872Y-72036487D01*
X130860800Y-72095804D01*
X131031644Y-72111303D01*
X131006338Y-72132263D01*
X130886043Y-72156923D01*
X130726265Y-72223157D01*
X130702670Y-72376274D01*
X130722180Y-72473286D01*
X130809426Y-72705073D01*
X130969529Y-73028513D01*
X131126756Y-73304400D01*
X131319840Y-73657534D01*
X131470205Y-73996814D01*
X131532616Y-74196880D01*
X131585021Y-74409538D01*
X131641229Y-74446805D01*
X131723443Y-74349280D01*
X131825914Y-74108310D01*
X131929971Y-73698763D01*
X132030067Y-73155137D01*
X132120655Y-72511931D01*
X132196188Y-71803642D01*
X132250862Y-71069200D01*
X132283060Y-70542883D01*
X132308917Y-70205791D01*
X132330816Y-70044131D01*
X132351141Y-70044117D01*
X132372274Y-70191957D01*
X132382878Y-70305296D01*
X132421747Y-70649907D01*
X132480078Y-70847510D01*
X132584142Y-70954184D01*
X132713017Y-71010012D01*
X132933466Y-71059437D01*
X133056878Y-71040587D01*
X133061311Y-70922369D01*
X133024311Y-70660969D01*
X132957289Y-70309413D01*
X132871651Y-69920730D01*
X132778807Y-69547947D01*
X132690166Y-69244090D01*
X132642249Y-69113400D01*
X132622508Y-68966250D01*
X132669273Y-68935600D01*
X132734171Y-68986050D01*
X132816328Y-69151390D01*
X132923232Y-69452599D01*
X133062373Y-69910656D01*
X133230955Y-70509176D01*
X133370576Y-71015953D01*
X133526810Y-70712376D01*
X133700211Y-70307419D01*
X133867730Y-69802326D01*
X134006742Y-69277788D01*
X134094621Y-68814496D01*
X134112662Y-68623058D01*
X134124221Y-68158999D01*
X134112197Y-67876335D01*
X134074699Y-67754425D01*
X134032959Y-67753257D01*
X133906709Y-67731398D01*
X133710532Y-67611214D01*
X133702759Y-67605171D01*
X133451600Y-67408236D01*
X133731000Y-67509003D01*
X133933522Y-67569651D01*
X133996629Y-67530995D01*
X133935423Y-67362118D01*
X133867895Y-67228754D01*
X133529878Y-66714164D01*
X133042156Y-66164507D01*
X132591400Y-65747518D01*
X132198854Y-65370603D01*
X131878002Y-64982208D01*
X131659821Y-64625291D01*
X131575285Y-64342811D01*
X131575170Y-64338200D01*
X131619871Y-64187674D01*
X131767479Y-64194178D01*
X132026030Y-64359719D01*
X132185331Y-64490600D01*
X132522987Y-64762987D01*
X132891082Y-65034734D01*
X132985045Y-65099234D01*
X133226810Y-65283725D01*
X133376746Y-65441612D01*
X133400800Y-65497944D01*
X133338651Y-65525753D01*
X133184524Y-65424583D01*
X133172200Y-65413719D01*
X132955529Y-65240311D01*
X132651523Y-65020587D01*
X132461000Y-64891447D01*
X132163166Y-64716571D01*
X132006020Y-64669030D01*
X131984938Y-64734123D01*
X132095296Y-64897147D01*
X132332471Y-65143400D01*
X132620644Y-65399056D01*
X133290473Y-66028789D01*
X133815759Y-66665197D01*
X134133952Y-67199145D01*
X134257716Y-67628428D01*
X134302611Y-68190259D01*
X134274546Y-68832516D01*
X134179429Y-69503077D01*
X134023170Y-70149820D01*
X133811677Y-70720623D01*
X133712495Y-70916800D01*
X133607583Y-71106637D01*
X133533200Y-71266735D01*
X133487682Y-71432305D01*
X133469365Y-71638562D01*
X133476582Y-71920718D01*
X133507670Y-72313987D01*
X133560964Y-72853583D01*
X133602021Y-73253600D01*
X133645011Y-73794294D01*
X133667531Y-74340940D01*
X133667216Y-74813990D01*
X133654879Y-75031600D01*
X133592739Y-75682677D01*
X133543127Y-76162586D01*
X133501577Y-76502648D01*
X133463625Y-76734184D01*
X133424806Y-76888515D01*
X133380655Y-76996960D01*
X133372451Y-77012800D01*
X133309226Y-77240948D01*
X133284558Y-77559806D01*
X133286886Y-77656600D01*
X133276052Y-77960873D01*
X133221660Y-78190028D01*
X133195703Y-78234285D01*
X133107993Y-78426345D01*
X133051101Y-78704151D01*
X133049561Y-78719668D01*
X132905401Y-79215297D01*
X132568563Y-79723878D01*
X132390770Y-79918373D01*
X132137745Y-80145509D01*
X131867155Y-80309091D01*
X131522142Y-80434120D01*
X131045849Y-80545598D01*
X130898821Y-80574430D01*
X130302379Y-80672329D01*
X129839600Y-80705569D01*
X129451931Y-80675380D01*
X129171460Y-80610760D01*
X128886307Y-80445012D01*
X128700504Y-80132261D01*
X128605731Y-79655639D01*
X128592130Y-79436076D01*
X128591381Y-79414751D01*
X128724107Y-79414751D01*
X128770839Y-79765789D01*
X128840691Y-80000439D01*
X128949039Y-80224992D01*
X129097609Y-80299486D01*
X129221691Y-80295001D01*
X129420894Y-80229600D01*
X129506077Y-80053235D01*
X129519546Y-79953789D01*
X129477860Y-79649756D01*
X129326725Y-79361869D01*
X129291402Y-79328031D01*
X129551872Y-79328031D01*
X129586599Y-79459933D01*
X129711468Y-79879432D01*
X129687589Y-80207642D01*
X129641401Y-80315170D01*
X129571409Y-80476375D01*
X129618428Y-80507066D01*
X129651594Y-80497735D01*
X129771366Y-80376100D01*
X129858464Y-80171495D01*
X129879305Y-79839694D01*
X129790077Y-79531057D01*
X129630601Y-79342802D01*
X129551872Y-79328031D01*
X129291402Y-79328031D01*
X129112140Y-79156310D01*
X128923025Y-79095600D01*
X128775804Y-79180710D01*
X128724107Y-79414751D01*
X128591381Y-79414751D01*
X128577453Y-79018641D01*
X129250590Y-79018641D01*
X129284680Y-79082561D01*
X129331787Y-79140360D01*
X129490545Y-79242015D01*
X129575135Y-79239952D01*
X129709655Y-79283906D01*
X129854244Y-79467374D01*
X129976359Y-79731190D01*
X130043458Y-80016184D01*
X130048000Y-80099677D01*
X130058995Y-80287714D01*
X130127814Y-80377882D01*
X130308208Y-80403827D01*
X130530600Y-80401773D01*
X130913259Y-80371976D01*
X131279263Y-80310093D01*
X131368800Y-80286958D01*
X131848463Y-80065304D01*
X132307095Y-79713861D01*
X132604351Y-79377436D01*
X132757608Y-79077181D01*
X132812974Y-78781446D01*
X132763164Y-78556112D01*
X132702081Y-78493713D01*
X132692213Y-78392593D01*
X132857078Y-78224690D01*
X132901227Y-78191034D01*
X133108379Y-78005873D01*
X133169983Y-77832093D01*
X133149885Y-77689165D01*
X133045861Y-77441693D01*
X132931027Y-77301272D01*
X132837559Y-77201409D01*
X132925409Y-77137192D01*
X132976172Y-77120185D01*
X133167735Y-76971127D01*
X133229936Y-76735973D01*
X133155468Y-76491087D01*
X133047456Y-76375195D01*
X132821924Y-76205076D01*
X132840348Y-76190583D01*
X133150248Y-76190583D01*
X133208787Y-76315080D01*
X133333551Y-76437739D01*
X133389105Y-76390195D01*
X133400800Y-76187559D01*
X133383828Y-76008652D01*
X133310575Y-76001369D01*
X133247147Y-76048639D01*
X133150248Y-76190583D01*
X132840348Y-76190583D01*
X133060562Y-76017364D01*
X133232256Y-75828406D01*
X133264494Y-75742800D01*
X133400800Y-75742800D01*
X133437973Y-75826428D01*
X133468533Y-75810533D01*
X133480692Y-75689957D01*
X133468533Y-75675066D01*
X133408132Y-75689013D01*
X133400800Y-75742800D01*
X133264494Y-75742800D01*
X133295968Y-75659225D01*
X133229573Y-75431282D01*
X133080362Y-75228131D01*
X132911216Y-75133589D01*
X132901333Y-75133200D01*
X132886641Y-75077958D01*
X133004445Y-74941408D01*
X133045978Y-74904302D01*
X133229663Y-74669155D01*
X133228157Y-74466412D01*
X133049224Y-74330493D01*
X132909601Y-74299904D01*
X132638800Y-74267570D01*
X132892800Y-74116185D01*
X133028802Y-74020248D01*
X133098912Y-73901405D01*
X133117141Y-73702674D01*
X133097498Y-73367073D01*
X133092397Y-73304400D01*
X133054924Y-72957771D01*
X133013757Y-72802792D01*
X132965478Y-72827914D01*
X132957133Y-72847200D01*
X132715358Y-73443704D01*
X132523673Y-73885928D01*
X132363588Y-74210868D01*
X132216613Y-74455522D01*
X132064258Y-74656887D01*
X132036362Y-74689627D01*
X131837354Y-74942726D01*
X131757293Y-75137245D01*
X131768412Y-75355195D01*
X131784510Y-75433511D01*
X131818015Y-75668757D01*
X131847311Y-76030012D01*
X131871598Y-76478343D01*
X131890081Y-76974818D01*
X131901961Y-77480505D01*
X131906441Y-77956471D01*
X131902723Y-78363784D01*
X131890011Y-78663512D01*
X131867506Y-78816721D01*
X131854026Y-78827525D01*
X131816166Y-78881831D01*
X131821345Y-79079872D01*
X131834548Y-79176962D01*
X131852372Y-79483336D01*
X131791729Y-79643822D01*
X131786144Y-79647635D01*
X131685465Y-79637673D01*
X131673600Y-79586989D01*
X131626600Y-79563728D01*
X131512885Y-79686325D01*
X131506767Y-79694973D01*
X131380053Y-79850117D01*
X131299235Y-79844970D01*
X131246522Y-79766243D01*
X131121950Y-79652567D01*
X131011783Y-79714328D01*
X130958803Y-79925751D01*
X130958423Y-79939796D01*
X130944784Y-80063687D01*
X130897218Y-80019826D01*
X130821591Y-79857560D01*
X130683722Y-79598900D01*
X130505383Y-79420139D01*
X130321502Y-79327089D01*
X130710975Y-79327089D01*
X130749498Y-79446743D01*
X130782778Y-79502000D01*
X130890472Y-79658964D01*
X130936039Y-79705200D01*
X130957498Y-79619662D01*
X130962400Y-79502000D01*
X130898466Y-79336171D01*
X130867113Y-79323054D01*
X131137772Y-79323054D01*
X131189028Y-79439241D01*
X131248763Y-79512265D01*
X131395283Y-79618297D01*
X131468625Y-79555150D01*
X131434945Y-79353001D01*
X131433029Y-79347961D01*
X131307363Y-79248611D01*
X131227999Y-79257607D01*
X131137772Y-79323054D01*
X130867113Y-79323054D01*
X130809139Y-79298800D01*
X130710975Y-79327089D01*
X130321502Y-79327089D01*
X130231804Y-79281699D01*
X129870471Y-79162917D01*
X131523489Y-79162917D01*
X131535258Y-79248000D01*
X131634986Y-79382445D01*
X131684470Y-79400400D01*
X131765013Y-79317948D01*
X131775200Y-79248000D01*
X131695505Y-79113264D01*
X131625988Y-79095600D01*
X131523489Y-79162917D01*
X129870471Y-79162917D01*
X129851759Y-79156766D01*
X129500840Y-79054694D01*
X129311547Y-79009002D01*
X129250590Y-79018641D01*
X128577453Y-79018641D01*
X128574800Y-78943200D01*
X128930834Y-78913155D01*
X129228793Y-78920280D01*
X129619945Y-78970395D01*
X129896034Y-79025087D01*
X130444061Y-79105775D01*
X130956935Y-79096258D01*
X131371053Y-78999811D01*
X131485770Y-78943200D01*
X131564366Y-78855014D01*
X131623042Y-78677877D01*
X131668052Y-78378240D01*
X131705649Y-77922558D01*
X131720212Y-77685638D01*
X131786884Y-76529677D01*
X131501642Y-76597265D01*
X131163831Y-76661737D01*
X130689167Y-76732563D01*
X130143489Y-76801742D01*
X129592636Y-76861272D01*
X129102449Y-76903153D01*
X128879600Y-76915890D01*
X128457069Y-76943398D01*
X128040519Y-76986198D01*
X127840483Y-77015020D01*
X127566815Y-77050978D01*
X127420620Y-77015686D01*
X127330708Y-76880595D01*
X127296360Y-76796820D01*
X127248385Y-76586441D01*
X127237253Y-76374830D01*
X127482934Y-76374830D01*
X127522041Y-76465135D01*
X127591753Y-76521291D01*
X127894729Y-76646185D01*
X128197708Y-76570973D01*
X128212666Y-76561787D01*
X128267071Y-76502069D01*
X128401704Y-76502069D01*
X128691452Y-76625852D01*
X128974195Y-76729778D01*
X129168683Y-76733988D01*
X129365712Y-76634843D01*
X129421574Y-76596589D01*
X129601463Y-76380199D01*
X129613885Y-76280534D01*
X129818797Y-76280534D01*
X130060398Y-76414467D01*
X130390649Y-76537941D01*
X130652329Y-76521658D01*
X130804262Y-76368979D01*
X130809711Y-76353309D01*
X130835042Y-76141948D01*
X130821038Y-76088495D01*
X131000513Y-76088495D01*
X131027258Y-76200000D01*
X131171674Y-76338515D01*
X131438567Y-76316617D01*
X131512890Y-76290729D01*
X131657362Y-76153909D01*
X131671767Y-75958347D01*
X131582351Y-75775135D01*
X131415359Y-75675365D01*
X131289270Y-75684995D01*
X131064666Y-75842585D01*
X131000513Y-76088495D01*
X130821038Y-76088495D01*
X130810561Y-76048509D01*
X130647687Y-75956803D01*
X130389497Y-75969007D01*
X130111279Y-76078645D01*
X130057605Y-76113267D01*
X129818797Y-76280534D01*
X129613885Y-76280534D01*
X129621980Y-76215589D01*
X129513707Y-76058274D01*
X129289305Y-75993777D01*
X129011892Y-76019199D01*
X128744581Y-76131637D01*
X128595470Y-76262777D01*
X128401704Y-76502069D01*
X128267071Y-76502069D01*
X128305548Y-76459836D01*
X128234892Y-76320626D01*
X128225626Y-76309343D01*
X128006718Y-76162976D01*
X127736398Y-76205219D01*
X127615774Y-76270522D01*
X127482934Y-76374830D01*
X127237253Y-76374830D01*
X127231182Y-76259431D01*
X127244546Y-75787124D01*
X127284880Y-75184000D01*
X127327869Y-74520109D01*
X127338452Y-73993577D01*
X127315599Y-73540997D01*
X127258278Y-73098964D01*
X127250186Y-73050400D01*
X127198802Y-72641403D01*
X127155279Y-72094643D01*
X127123637Y-71475518D01*
X127107898Y-70849428D01*
X127106983Y-70721289D01*
X127101599Y-69204979D01*
X126871947Y-69420727D01*
X126616456Y-69614665D01*
X126256691Y-69831622D01*
X125850856Y-70042753D01*
X125457151Y-70219217D01*
X125133781Y-70332168D01*
X124980632Y-70358000D01*
X124646534Y-70272249D01*
X124268680Y-70040664D01*
X123888823Y-69701745D01*
X123548710Y-69293993D01*
X123290092Y-68855909D01*
X123249038Y-68761168D01*
X123118258Y-68502048D01*
X122981913Y-68322134D01*
X122975869Y-68316928D01*
X122861115Y-68126164D01*
X122834400Y-67970400D01*
X122770407Y-67730949D01*
X122682000Y-67614800D01*
X122566126Y-67422488D01*
X122529600Y-67215378D01*
X122473810Y-66929167D01*
X122380431Y-66745218D01*
X122273231Y-66503803D01*
X122228031Y-66211120D01*
X122188693Y-65901510D01*
X122103626Y-65652320D01*
X122010878Y-65413459D01*
X121925589Y-65084695D01*
X121904273Y-64973200D01*
X121839079Y-64605083D01*
X121774179Y-64258201D01*
X121759886Y-64185608D01*
X121760513Y-64129477D01*
X121994430Y-64129477D01*
X122023913Y-64211200D01*
X122091597Y-64378053D01*
X122181320Y-64725868D01*
X122288430Y-65234166D01*
X122408274Y-65882469D01*
X122423301Y-65968766D01*
X122495861Y-66265971D01*
X122586240Y-66482742D01*
X122615846Y-66522486D01*
X122705653Y-66708036D01*
X122732800Y-66904501D01*
X122790360Y-67189420D01*
X122881968Y-67366781D01*
X123001353Y-67583263D01*
X123034368Y-67718215D01*
X123090624Y-67893066D01*
X123227927Y-68147752D01*
X123291600Y-68246224D01*
X123447007Y-68499706D01*
X123536789Y-68694122D01*
X123545600Y-68737789D01*
X123616203Y-68916404D01*
X123797618Y-69171966D01*
X124044255Y-69451695D01*
X124310523Y-69702815D01*
X124501259Y-69844103D01*
X124874242Y-70014333D01*
X125224737Y-70023246D01*
X125614431Y-69868694D01*
X125730000Y-69801338D01*
X126026089Y-69627489D01*
X126284486Y-69487577D01*
X126351657Y-69454997D01*
X126562071Y-69305686D01*
X126774235Y-69079467D01*
X126781239Y-69070187D01*
X127072364Y-68710107D01*
X127299170Y-68504967D01*
X127491047Y-68429402D01*
X127525776Y-68427600D01*
X127680510Y-68486996D01*
X127696395Y-68617964D01*
X127579536Y-68749667D01*
X127494773Y-68787397D01*
X127418329Y-68817896D01*
X127363448Y-68872558D01*
X127327735Y-68979947D01*
X127308794Y-69168624D01*
X127304232Y-69467154D01*
X127311653Y-69904099D01*
X127328661Y-70508023D01*
X127334460Y-70699244D01*
X127400564Y-71962337D01*
X127516478Y-73097030D01*
X127679200Y-74082796D01*
X127885732Y-74899111D01*
X127993604Y-75209429D01*
X128092454Y-75507710D01*
X128133119Y-75722576D01*
X128117962Y-75793375D01*
X128042078Y-75735547D01*
X127933025Y-75533183D01*
X127851617Y-75330515D01*
X127726582Y-75044927D01*
X127629671Y-74960068D01*
X127561598Y-75075324D01*
X127523073Y-75390083D01*
X127515140Y-75620403D01*
X127508000Y-76056807D01*
X127849412Y-75992758D01*
X128102823Y-75971863D01*
X128229790Y-76046084D01*
X128256021Y-76098609D01*
X128317154Y-76195154D01*
X128419342Y-76172688D01*
X128608563Y-76026725D01*
X128866954Y-75861390D01*
X129155743Y-75815712D01*
X129319554Y-75825342D01*
X129580359Y-75868508D01*
X129729580Y-75928651D01*
X129743200Y-75951487D01*
X129824942Y-75970932D01*
X130029243Y-75915472D01*
X130113229Y-75882623D01*
X130413606Y-75795177D01*
X130676679Y-75778977D01*
X130712237Y-75785484D01*
X130927133Y-75777426D01*
X130997828Y-75695420D01*
X131128029Y-75569967D01*
X131366380Y-75467205D01*
X131382053Y-75462993D01*
X131592014Y-75394620D01*
X131631110Y-75322728D01*
X131559451Y-75237780D01*
X131455317Y-75024232D01*
X131452799Y-74922310D01*
X131572379Y-74922310D01*
X131621376Y-74982035D01*
X131749512Y-74901240D01*
X131927399Y-74711193D01*
X132125647Y-74443166D01*
X132310062Y-74137400D01*
X132453556Y-73829769D01*
X132627235Y-73397317D01*
X132803780Y-72910116D01*
X132892271Y-72644000D01*
X132951133Y-72461663D01*
X133119390Y-72461663D01*
X133170430Y-72578705D01*
X133219749Y-72704984D01*
X133262577Y-72983431D01*
X133296710Y-73363058D01*
X133319945Y-73792878D01*
X133330078Y-74221902D01*
X133324904Y-74599144D01*
X133302219Y-74873617D01*
X133274157Y-74978357D01*
X133252475Y-75198798D01*
X133316574Y-75306803D01*
X133415642Y-75397771D01*
X133470646Y-75330389D01*
X133502519Y-75179555D01*
X133516075Y-74966310D01*
X133515082Y-74602002D01*
X133500490Y-74138177D01*
X133474148Y-73640493D01*
X133436360Y-73136522D01*
X133392212Y-72689497D01*
X133347216Y-72348215D01*
X133307174Y-72162220D01*
X133242065Y-72013605D01*
X133198053Y-72035994D01*
X133143993Y-72223105D01*
X133119390Y-72461663D01*
X132951133Y-72461663D01*
X133035876Y-72199159D01*
X133163409Y-71810237D01*
X133257902Y-71528649D01*
X133294595Y-71424800D01*
X133320846Y-71306986D01*
X133256913Y-71243684D01*
X133060748Y-71215157D01*
X132827304Y-71205458D01*
X132283200Y-71189317D01*
X132283200Y-71838395D01*
X132257009Y-72337650D01*
X132186227Y-72896696D01*
X132082534Y-73456860D01*
X131957615Y-73959466D01*
X131823150Y-74345841D01*
X131758685Y-74472724D01*
X131631890Y-74719506D01*
X131572908Y-74910856D01*
X131572379Y-74922310D01*
X131452799Y-74922310D01*
X131450226Y-74818190D01*
X131431796Y-74440882D01*
X131297651Y-73975346D01*
X131066845Y-73485431D01*
X131037203Y-73434200D01*
X130834271Y-73090255D01*
X130466535Y-73829267D01*
X130258480Y-74232911D01*
X130100777Y-74492232D01*
X129987315Y-74598218D01*
X129911983Y-74541853D01*
X129868672Y-74314124D01*
X129851269Y-73906017D01*
X129852971Y-73481472D01*
X129959756Y-73481472D01*
X129967527Y-73867825D01*
X129985804Y-74172862D01*
X130014510Y-74350913D01*
X130039253Y-74376605D01*
X130118742Y-74260015D01*
X130243987Y-74004263D01*
X130390184Y-73660742D01*
X130415215Y-73597623D01*
X130698323Y-72876027D01*
X130399223Y-72304753D01*
X130236361Y-71998974D01*
X130141377Y-71853919D01*
X130088020Y-71850231D01*
X130050042Y-71968549D01*
X130035282Y-72036340D01*
X130000254Y-72291238D01*
X129976042Y-72647507D01*
X129962569Y-73059476D01*
X129959756Y-73481472D01*
X129852971Y-73481472D01*
X129853665Y-73308518D01*
X129860394Y-72935135D01*
X129895600Y-71221600D01*
X129087841Y-70053200D01*
X128791975Y-69627276D01*
X128536509Y-69263347D01*
X128343950Y-68993186D01*
X128236801Y-68848563D01*
X128224241Y-68834000D01*
X128146520Y-68712646D01*
X128006756Y-68450184D01*
X127826168Y-68090863D01*
X127625974Y-67678934D01*
X127427393Y-67258645D01*
X127251644Y-66874248D01*
X127119944Y-66569991D01*
X127054989Y-66395600D01*
X126982084Y-66166655D01*
X126862505Y-65842218D01*
X126685470Y-65394443D01*
X126440196Y-64795487D01*
X126366426Y-64617600D01*
X126132628Y-64077494D01*
X125916791Y-63651524D01*
X125684188Y-63294706D01*
X125400089Y-62962062D01*
X125029767Y-62608610D01*
X124538494Y-62189371D01*
X124409200Y-62082580D01*
X124028322Y-61802144D01*
X123604934Y-61543542D01*
X123172772Y-61320599D01*
X122765567Y-61147139D01*
X122417055Y-61036986D01*
X122160969Y-61003963D01*
X122031043Y-61061893D01*
X122021600Y-61104166D01*
X122068294Y-61249467D01*
X122181794Y-61476467D01*
X122192673Y-61495610D01*
X122296228Y-61704999D01*
X122304534Y-61873723D01*
X122217147Y-62102080D01*
X122189716Y-62160430D01*
X122083495Y-62422782D01*
X122076688Y-62626310D01*
X122166344Y-62887721D01*
X122171042Y-62898993D01*
X122290653Y-63255417D01*
X122320259Y-63516275D01*
X122257410Y-63645003D01*
X122221526Y-63652400D01*
X122104497Y-63737786D01*
X122017349Y-63929190D01*
X121994430Y-64129477D01*
X121760513Y-64129477D01*
X121764053Y-63812652D01*
X121867735Y-63589576D01*
X121971611Y-63405986D01*
X121985292Y-63249481D01*
X121908504Y-63029790D01*
X121865742Y-62933532D01*
X121760143Y-62670838D01*
X121746211Y-62482441D01*
X121824269Y-62261125D01*
X121868049Y-62167275D01*
X121975613Y-61912078D01*
X121987851Y-61739953D01*
X121906735Y-61555582D01*
X121881601Y-61512434D01*
X121736607Y-61180671D01*
X121758958Y-60947284D01*
X121901235Y-60817642D01*
X122200242Y-60766826D01*
X122633157Y-60863721D01*
X123201746Y-61108823D01*
X123504217Y-61268639D01*
X123876440Y-61473039D01*
X124210358Y-61653931D01*
X124440691Y-61775989D01*
X124460000Y-61785885D01*
X124661210Y-61918287D01*
X124948473Y-62143356D01*
X125260966Y-62413336D01*
X125272800Y-62424093D01*
X125601232Y-62701463D01*
X125831273Y-62828300D01*
X125979209Y-62793468D01*
X126061328Y-62585832D01*
X126093915Y-62194255D01*
X126096433Y-61860952D01*
X126108791Y-61376236D01*
X126158617Y-61043420D01*
X126253725Y-60813379D01*
X126266193Y-60793886D01*
X126589785Y-60415132D01*
X126984003Y-60113769D01*
X127380508Y-59939899D01*
X127450830Y-59925352D01*
X127662525Y-59872542D01*
X127803457Y-59764752D01*
X127813358Y-59746783D01*
X128360545Y-59746783D01*
X128452963Y-59739893D01*
X128625958Y-59670613D01*
X128830510Y-59556191D01*
X128930400Y-59486609D01*
X129184400Y-59294118D01*
X128990565Y-58806259D01*
X128856398Y-58382887D01*
X128814041Y-57975798D01*
X128819252Y-57930569D01*
X129211939Y-57930569D01*
X129310266Y-58423707D01*
X129421746Y-58698640D01*
X129598427Y-59041582D01*
X129759129Y-59242369D01*
X129949853Y-59352364D01*
X130030550Y-59378446D01*
X130450112Y-59567563D01*
X130867244Y-59867708D01*
X131194218Y-60212807D01*
X131251321Y-60297913D01*
X131421342Y-60577490D01*
X131907333Y-60422384D01*
X132348198Y-60211570D01*
X132695687Y-59877431D01*
X132969162Y-59394431D01*
X133187982Y-58737032D01*
X133189537Y-58731108D01*
X133327145Y-58260841D01*
X133490198Y-57782990D01*
X133643965Y-57399152D01*
X133647424Y-57391564D01*
X133808927Y-57073387D01*
X133946042Y-56906176D01*
X134097638Y-56847793D01*
X134151417Y-56845200D01*
X134400340Y-56916096D01*
X134538038Y-57032276D01*
X134735830Y-57230461D01*
X134899400Y-57340650D01*
X135073249Y-57476860D01*
X135128000Y-57586682D01*
X135210773Y-57718869D01*
X135356600Y-57811707D01*
X135491691Y-57902526D01*
X135567823Y-58062118D01*
X135606546Y-58347247D01*
X135615602Y-58493943D01*
X135666253Y-58912502D01*
X135769165Y-59157277D01*
X135818802Y-59206380D01*
X136064039Y-59476723D01*
X136224144Y-59869290D01*
X136312489Y-60418518D01*
X136318694Y-60493827D01*
X136343523Y-60862164D01*
X136358049Y-61161703D01*
X136359387Y-61315600D01*
X136352202Y-61475275D01*
X136340632Y-61789285D01*
X136326407Y-62208856D01*
X136314346Y-62585600D01*
X136276351Y-63259436D01*
X136209916Y-63860347D01*
X136120989Y-64351932D01*
X136015522Y-64697797D01*
X135949617Y-64816645D01*
X135866917Y-64987718D01*
X135796988Y-65215686D01*
X135687874Y-65489995D01*
X135508023Y-65793318D01*
X135466911Y-65849649D01*
X135310982Y-66121648D01*
X135271350Y-66347452D01*
X135350711Y-66480239D01*
X135429611Y-66497200D01*
X135492018Y-66592802D01*
X135524623Y-66860202D01*
X135528068Y-67270293D01*
X135502993Y-67793966D01*
X135450039Y-68402112D01*
X135373728Y-69037200D01*
X135298739Y-69669576D01*
X135230510Y-70387835D01*
X135179362Y-71077279D01*
X135163478Y-71374000D01*
X135150461Y-71932846D01*
X135172071Y-72418101D01*
X135238349Y-72882323D01*
X135359335Y-73378076D01*
X135545068Y-73957920D01*
X135781785Y-74610899D01*
X135871224Y-74919762D01*
X135901774Y-75177080D01*
X135893323Y-75245899D01*
X135817764Y-75514490D01*
X135787007Y-75624016D01*
X135799372Y-75776795D01*
X135914007Y-75809103D01*
X136399210Y-75815295D01*
X136721413Y-75846103D01*
X136920240Y-75910846D01*
X137035313Y-76018841D01*
X137068809Y-76080673D01*
X137176463Y-76316946D01*
X137484890Y-76028832D01*
X137744509Y-75827006D01*
X137995975Y-75692742D01*
X138041083Y-75678533D01*
X138299480Y-75688492D01*
X138537224Y-75849684D01*
X138708497Y-75988712D01*
X138779281Y-75978317D01*
X138785600Y-75928657D01*
X138855784Y-75744455D01*
X138971122Y-75606397D01*
X139039796Y-75534241D01*
X139080986Y-75444008D01*
X139092567Y-75303215D01*
X139072414Y-75079378D01*
X139018404Y-74740016D01*
X138928412Y-74252645D01*
X138858796Y-73888850D01*
X138735713Y-73290514D01*
X138601184Y-72706062D01*
X138468942Y-72190994D01*
X138352721Y-71800807D01*
X138317673Y-71702188D01*
X138159109Y-71248792D01*
X138090706Y-70923542D01*
X138110337Y-70673552D01*
X138215878Y-70445933D01*
X138264270Y-70373684D01*
X138420260Y-70116567D01*
X138516099Y-69900800D01*
X138555485Y-69713546D01*
X138612095Y-69370252D01*
X138679569Y-68916705D01*
X138751549Y-68398692D01*
X138821675Y-67862000D01*
X138883588Y-67352416D01*
X138930927Y-66915727D01*
X138931467Y-66910238D01*
X138979236Y-66583566D01*
X139043586Y-66338518D01*
X139086423Y-66257336D01*
X139130802Y-66102177D01*
X139106341Y-66047497D01*
X138919778Y-65720908D01*
X138732170Y-65271611D01*
X138596002Y-64856375D01*
X138864592Y-64856375D01*
X138934140Y-65068792D01*
X139064060Y-65340134D01*
X139207462Y-65664824D01*
X139226337Y-65709800D01*
X139376412Y-65991909D01*
X139509239Y-66085836D01*
X139615919Y-65986053D01*
X139627316Y-65958792D01*
X139612921Y-65809315D01*
X139520571Y-65569828D01*
X139378331Y-65288420D01*
X139214264Y-65013178D01*
X139056437Y-64792190D01*
X138932913Y-64673546D01*
X138880526Y-64679198D01*
X138864592Y-64856375D01*
X138596002Y-64856375D01*
X138570358Y-64778176D01*
X138461182Y-64319174D01*
X138430854Y-64070189D01*
X138322312Y-63431312D01*
X138139032Y-62941200D01*
X137949966Y-62496942D01*
X137879188Y-62201391D01*
X137924159Y-62039878D01*
X137977717Y-62008227D01*
X137999326Y-61901948D01*
X137931632Y-61652370D01*
X137822920Y-61381845D01*
X137669371Y-60988005D01*
X137606538Y-60666759D01*
X137616601Y-60318917D01*
X137622414Y-60265884D01*
X137674087Y-59920938D01*
X137737148Y-59633935D01*
X137768705Y-59537600D01*
X138021664Y-58958806D01*
X138217768Y-58562289D01*
X138362970Y-58337075D01*
X138455400Y-58271764D01*
X138557598Y-58313275D01*
X138563819Y-58461716D01*
X138469577Y-58738322D01*
X138270384Y-59164328D01*
X138264258Y-59176602D01*
X138091828Y-59546365D01*
X138004918Y-59827481D01*
X137985319Y-60106033D01*
X138006787Y-60393726D01*
X138068785Y-60775980D01*
X138161360Y-61121775D01*
X138222602Y-61271896D01*
X138329759Y-61662152D01*
X138318361Y-61889163D01*
X138336435Y-62276262D01*
X138419749Y-62454097D01*
X138559762Y-62726603D01*
X138690410Y-63076641D01*
X138791029Y-63433951D01*
X138840953Y-63728271D01*
X138833832Y-63861975D01*
X138870046Y-64035354D01*
X139031436Y-64235829D01*
X139038791Y-64242303D01*
X139215093Y-64436226D01*
X139293366Y-64602695D01*
X139293600Y-64609132D01*
X139355131Y-64776797D01*
X139507155Y-65006352D01*
X139547600Y-65056271D01*
X139711876Y-65277868D01*
X139797901Y-65445366D01*
X139801600Y-65468530D01*
X139893651Y-65588991D01*
X140148261Y-65648948D01*
X140533117Y-65645467D01*
X141005011Y-65577778D01*
X141465650Y-65503917D01*
X141949300Y-65452520D01*
X142248183Y-65437351D01*
X142815167Y-65430400D01*
X142812801Y-63855600D01*
X142820400Y-63102610D01*
X142848900Y-62405552D01*
X142903252Y-61713004D01*
X142988409Y-60973550D01*
X143109323Y-60135769D01*
X143259983Y-59212824D01*
X143343365Y-58694270D01*
X143388087Y-58324022D01*
X143395927Y-58051252D01*
X143368664Y-57825132D01*
X143315730Y-57619982D01*
X143045046Y-56999293D01*
X142656402Y-56543938D01*
X142346094Y-56339493D01*
X142082562Y-56156146D01*
X141918744Y-55947835D01*
X141882211Y-55761581D01*
X141951576Y-55666678D01*
X142049333Y-55699967D01*
X142107489Y-55823570D01*
X142229738Y-56003908D01*
X142466266Y-56190514D01*
X142557737Y-56242200D01*
X142985807Y-56568962D01*
X143332373Y-57056147D01*
X143572979Y-57669147D01*
X143577113Y-57684608D01*
X143617897Y-57874296D01*
X143640330Y-58089924D01*
X143643100Y-58362532D01*
X143624893Y-58723162D01*
X143584397Y-59202858D01*
X143520299Y-59832660D01*
X143464661Y-60343528D01*
X143344907Y-61610902D01*
X143286454Y-62705836D01*
X143289117Y-63649561D01*
X143352711Y-64463312D01*
X143424667Y-64922400D01*
X143450308Y-65170181D01*
X143464652Y-65546588D01*
X143465126Y-65977232D01*
X143463647Y-66050281D01*
X143480322Y-66614856D01*
X143564763Y-67186721D01*
X143727770Y-67808005D01*
X143980143Y-68520836D01*
X144287263Y-69263152D01*
X144502644Y-69793473D01*
X144624539Y-70210669D01*
X144658180Y-70579224D01*
X144608800Y-70963623D01*
X144481630Y-71428351D01*
X144466776Y-71475600D01*
X144346160Y-71910275D01*
X144223582Y-72438691D01*
X144123828Y-72953157D01*
X144116331Y-72998053D01*
X143974889Y-73860106D01*
X144225044Y-74121212D01*
X144396344Y-74364104D01*
X144474693Y-74601678D01*
X144475200Y-74617181D01*
X144485313Y-74742704D01*
X144539955Y-74763327D01*
X144675579Y-74667169D01*
X144881892Y-74484622D01*
X145250671Y-74213882D01*
X145563388Y-74129880D01*
X145840399Y-74231071D01*
X146013698Y-74398728D01*
X146246851Y-74680256D01*
X146513526Y-74381794D01*
X146828070Y-74150630D01*
X147179537Y-74081197D01*
X147509956Y-74180347D01*
X147606088Y-74252666D01*
X147774140Y-74382529D01*
X147861400Y-74422000D01*
X147897830Y-74326638D01*
X147919819Y-74064399D01*
X147927927Y-73671050D01*
X147922720Y-73182357D01*
X147904759Y-72634089D01*
X147874607Y-72062013D01*
X147832829Y-71501896D01*
X147811904Y-71278353D01*
X147746382Y-70750835D01*
X147662638Y-70257984D01*
X147572243Y-69861212D01*
X147508123Y-69666154D01*
X147399785Y-69390167D01*
X147376244Y-69201725D01*
X147440222Y-69002489D01*
X147531603Y-68817527D01*
X147704241Y-68425180D01*
X147896694Y-67901783D01*
X148086433Y-67315028D01*
X148250931Y-66732604D01*
X148320728Y-66446400D01*
X148376474Y-66144272D01*
X148434330Y-65737164D01*
X148490101Y-65269349D01*
X148539591Y-64785103D01*
X148578606Y-64328701D01*
X148602949Y-63944418D01*
X148608426Y-63676528D01*
X148593192Y-63570925D01*
X148546824Y-63607933D01*
X148532760Y-63711666D01*
X148485438Y-63908121D01*
X148348453Y-64230854D01*
X148115636Y-64692498D01*
X147780816Y-65305691D01*
X147585574Y-65651393D01*
X147274233Y-66164926D01*
X147007366Y-66537988D01*
X146798145Y-66753661D01*
X146689648Y-66802000D01*
X146693599Y-66731293D01*
X146781267Y-66560726D01*
X146913956Y-66352629D01*
X147052971Y-66169329D01*
X147131183Y-66090800D01*
X147223209Y-65960997D01*
X147373892Y-65687422D01*
X147562537Y-65313366D01*
X147768446Y-64882120D01*
X147970922Y-64436976D01*
X148149269Y-64021225D01*
X148277262Y-63693567D01*
X148392768Y-63328123D01*
X148495886Y-62922141D01*
X148578255Y-62522185D01*
X148631513Y-62174819D01*
X148647299Y-61926608D01*
X148617252Y-61824114D01*
X148613051Y-61823600D01*
X148540634Y-61906664D01*
X148418003Y-62118411D01*
X148340175Y-62272173D01*
X148192840Y-62517033D01*
X147968631Y-62823416D01*
X147703322Y-63150000D01*
X147432685Y-63455464D01*
X147192492Y-63698486D01*
X147018515Y-63837744D01*
X146969400Y-63855600D01*
X146989603Y-63785943D01*
X147117793Y-63602344D01*
X147327094Y-63342855D01*
X147353080Y-63312290D01*
X147936887Y-62510666D01*
X148353654Y-61677623D01*
X148474627Y-61323491D01*
X148523999Y-61015608D01*
X148547269Y-60554557D01*
X148546147Y-59988458D01*
X148522342Y-59365430D01*
X148477561Y-58733594D01*
X148413513Y-58141069D01*
X148346342Y-57710374D01*
X148309797Y-57431764D01*
X148324636Y-57182600D01*
X148407665Y-56933443D01*
X148575693Y-56654858D01*
X148845526Y-56317405D01*
X149233972Y-55891647D01*
X149606000Y-55504145D01*
X150106050Y-54982531D01*
X150483370Y-54569036D01*
X150761897Y-54231140D01*
X150965565Y-53936325D01*
X151118313Y-53652071D01*
X151244076Y-53345860D01*
X151289987Y-53216345D01*
X151426431Y-52652633D01*
X151488266Y-52018493D01*
X151475750Y-51383642D01*
X151389142Y-50817795D01*
X151279859Y-50489623D01*
X151140494Y-50146761D01*
X151034792Y-49821950D01*
X151011889Y-49726847D01*
X150944494Y-49532679D01*
X150864729Y-49501159D01*
X150859353Y-49506006D01*
X150838461Y-49645267D01*
X150869887Y-49937812D01*
X150948574Y-50341996D01*
X150974211Y-50452156D01*
X151147014Y-51444768D01*
X151159510Y-52313259D01*
X151011545Y-53058580D01*
X150702961Y-53681677D01*
X150383397Y-54053125D01*
X150185566Y-54268525D01*
X150073029Y-54446649D01*
X150063200Y-54488666D01*
X150006686Y-54573130D01*
X149961600Y-54559199D01*
X149874130Y-54581632D01*
X149860000Y-54651615D01*
X149794672Y-54759685D01*
X149707600Y-54748341D01*
X149579981Y-54765867D01*
X149553644Y-54878529D01*
X149536830Y-55003057D01*
X149468274Y-54937135D01*
X149453600Y-54914800D01*
X149372408Y-54813626D01*
X149343896Y-54890174D01*
X149341524Y-54914800D01*
X149336304Y-55100304D01*
X149339968Y-55143400D01*
X149275288Y-55217199D01*
X149250400Y-55219600D01*
X149151752Y-55142284D01*
X149148800Y-55118000D01*
X149071484Y-55019352D01*
X149047200Y-55016400D01*
X148966502Y-55102615D01*
X148941999Y-55245000D01*
X148933213Y-55396642D01*
X148891558Y-55381275D01*
X148797885Y-55219700D01*
X148657370Y-54965801D01*
X148589398Y-55270500D01*
X148517310Y-55571929D01*
X148474076Y-55685982D01*
X148452025Y-55625174D01*
X148445621Y-55504996D01*
X148403532Y-55247595D01*
X148324970Y-55172024D01*
X148250893Y-55280484D01*
X148222614Y-55493003D01*
X148205237Y-55688203D01*
X148175349Y-55717233D01*
X148161952Y-55676800D01*
X148082746Y-55461125D01*
X147996219Y-55363455D01*
X147937549Y-55411820D01*
X147929600Y-55491639D01*
X147857587Y-55728497D01*
X147772205Y-55833345D01*
X147662615Y-55901975D01*
X147644199Y-55817117D01*
X147661001Y-55709242D01*
X147663218Y-55458116D01*
X147616752Y-55311657D01*
X147544200Y-55232106D01*
X147524786Y-55343402D01*
X147524755Y-55346600D01*
X147470420Y-55497344D01*
X147410729Y-55524400D01*
X147343182Y-55450349D01*
X147357449Y-55370154D01*
X147319322Y-55212412D01*
X147144929Y-54965172D01*
X146863355Y-54657048D01*
X146503683Y-54316650D01*
X146094996Y-53972594D01*
X145666377Y-53653491D01*
X145497508Y-53540309D01*
X145000860Y-53240895D01*
X144407436Y-52917285D01*
X143763716Y-52591558D01*
X143116182Y-52285796D01*
X142511315Y-52022078D01*
X141995595Y-51822485D01*
X141668319Y-51721283D01*
X141240160Y-51645331D01*
X140662902Y-51584902D01*
X139990180Y-51541791D01*
X139275633Y-51517793D01*
X138572896Y-51514704D01*
X137935606Y-51534320D01*
X137417399Y-51578435D01*
X137414000Y-51578876D01*
X136933309Y-51656120D01*
X136444895Y-51758290D01*
X136052130Y-51863685D01*
X136042400Y-51866835D01*
X135603581Y-51987831D01*
X135128766Y-52086640D01*
X134928946Y-52116648D01*
X134670651Y-52155375D01*
X134411709Y-52213994D01*
X134117761Y-52304658D01*
X133754449Y-52439521D01*
X133287412Y-52630736D01*
X132682294Y-52890455D01*
X132428858Y-53000954D01*
X131712431Y-53341199D01*
X131158737Y-53673690D01*
X130730849Y-54028445D01*
X130391841Y-54435481D01*
X130135278Y-54865424D01*
X129942613Y-55277366D01*
X129785450Y-55690073D01*
X129696212Y-56017835D01*
X129693809Y-56032400D01*
X129610846Y-56410972D01*
X129495108Y-56774920D01*
X129466334Y-56845200D01*
X129263476Y-57424588D01*
X129211939Y-57930569D01*
X128819252Y-57930569D01*
X128865882Y-57525887D01*
X129014309Y-56974049D01*
X129071688Y-56798618D01*
X129196429Y-56402908D01*
X129289624Y-56060966D01*
X129334888Y-55834264D01*
X129336800Y-55803939D01*
X129326191Y-55674674D01*
X129269131Y-55697791D01*
X129157446Y-55840898D01*
X128827451Y-56334371D01*
X128626999Y-56778519D01*
X128529798Y-57254422D01*
X128509494Y-57838865D01*
X128503980Y-58248813D01*
X128478997Y-58585463D01*
X128439384Y-58793519D01*
X128423139Y-58825508D01*
X128375734Y-59020994D01*
X128414435Y-59255829D01*
X128450880Y-59545347D01*
X128397724Y-59674035D01*
X128360545Y-59746783D01*
X127813358Y-59746783D01*
X127921893Y-59549825D01*
X128013772Y-59317032D01*
X128120267Y-58988324D01*
X128172384Y-58678561D01*
X128178050Y-58309189D01*
X128154667Y-57920633D01*
X128129206Y-57446203D01*
X128142612Y-57118001D01*
X128199160Y-56882020D01*
X128244750Y-56782109D01*
X128396717Y-56496137D01*
X128573797Y-56163698D01*
X128607408Y-56100696D01*
X128777473Y-55834001D01*
X129035240Y-55488219D01*
X129329036Y-55132133D01*
X129370702Y-55084696D01*
X129798849Y-54596188D01*
X130106434Y-54231132D01*
X130312506Y-53965334D01*
X130436113Y-53774603D01*
X130485006Y-53669452D01*
X130599202Y-53533764D01*
X130837390Y-53337603D01*
X131145085Y-53117637D01*
X131467802Y-52910535D01*
X131751055Y-52752966D01*
X131940360Y-52681597D01*
X131954378Y-52680565D01*
X132149618Y-52635147D01*
X132259178Y-52587474D01*
X132585022Y-52437484D01*
X133043364Y-52252294D01*
X133572007Y-52054878D01*
X134108755Y-51868209D01*
X134591410Y-51715261D01*
X134721600Y-51677933D01*
X135632945Y-51457132D01*
X136558755Y-51301427D01*
X137552566Y-51204588D01*
X138667913Y-51160386D01*
X139206697Y-51156008D01*
X139987837Y-51162526D01*
X140618776Y-51190131D01*
X141152288Y-51250301D01*
X141641145Y-51354518D01*
X142138121Y-51514259D01*
X142695987Y-51741005D01*
X143367516Y-52046234D01*
X143426931Y-52074014D01*
X144340478Y-52522497D01*
X145110891Y-52950100D01*
X145791336Y-53388449D01*
X146405600Y-53845816D01*
X146924879Y-54247289D01*
X147329435Y-54529506D01*
X147655570Y-54709157D01*
X147939586Y-54802934D01*
X148217785Y-54827528D01*
X148490931Y-54804614D01*
X149059953Y-54656000D01*
X149651534Y-54382339D01*
X150174796Y-54027176D01*
X150251056Y-53961252D01*
X150619917Y-53500319D01*
X150873231Y-52903614D01*
X150994792Y-52212625D01*
X151002562Y-52037331D01*
X150979577Y-51609324D01*
X150905937Y-51052926D01*
X150794570Y-50432743D01*
X150658405Y-49813380D01*
X150510368Y-49259441D01*
X150363387Y-48835533D01*
X150360513Y-48828744D01*
X150310804Y-48593689D01*
X150350454Y-48490905D01*
X150422284Y-48517589D01*
X150489018Y-48721832D01*
X150513588Y-48859593D01*
X150577580Y-49151293D01*
X150658670Y-49351051D01*
X150693401Y-49390332D01*
X150750449Y-49401334D01*
X150761117Y-49318693D01*
X150720754Y-49114835D01*
X150667801Y-48920400D01*
X150774400Y-48920400D01*
X150811573Y-49004028D01*
X150842133Y-48988133D01*
X150854292Y-48867557D01*
X150842133Y-48852666D01*
X150781732Y-48866613D01*
X150774400Y-48920400D01*
X150667801Y-48920400D01*
X150624712Y-48762185D01*
X150537089Y-48463200D01*
X150454100Y-48224262D01*
X150395550Y-48131703D01*
X150377084Y-48177803D01*
X150330545Y-48381337D01*
X150272123Y-48459662D01*
X150175861Y-48413913D01*
X150030576Y-48241326D01*
X149872624Y-47999458D01*
X149738362Y-47745863D01*
X149664144Y-47538096D01*
X149659031Y-47489073D01*
X149695825Y-47484071D01*
X149787064Y-47631438D01*
X149787064Y-47631438D01*
G37*
X149787064Y-47631438D02*
X149851652Y-47764865D01*
X150003351Y-48053622D01*
X150137494Y-48234531D01*
X150230326Y-48287437D01*
X150258091Y-48192180D01*
X150243396Y-48097300D01*
X150170567Y-47812402D01*
X150120047Y-47650400D01*
X150102517Y-47561178D01*
X150174927Y-47653197D01*
X150204982Y-47701200D01*
X150314914Y-47864581D01*
X150360751Y-47860940D01*
X150374225Y-47752000D01*
X150405232Y-47737227D01*
X150474528Y-47886988D01*
X150567852Y-48169525D01*
X150579511Y-48209200D01*
X150771372Y-48869600D01*
X150718586Y-48336200D01*
X150692422Y-47987029D01*
X150698922Y-47830389D01*
X150732633Y-47859219D01*
X150788101Y-48066455D01*
X150859873Y-48445037D01*
X150875494Y-48539400D01*
X151072805Y-49509486D01*
X151329607Y-50331091D01*
X151425431Y-50568136D01*
X151534319Y-50988906D01*
X151582957Y-51600363D01*
X151585721Y-51838136D01*
X151541549Y-52603939D01*
X151401521Y-53245355D01*
X151150152Y-53824629D01*
X151047763Y-54000400D01*
X150895195Y-54216028D01*
X150651644Y-54525039D01*
X150349117Y-54890499D01*
X150019619Y-55275476D01*
X149695155Y-55643036D01*
X149407730Y-55956247D01*
X149189351Y-56178175D01*
X149084397Y-56266049D01*
X148945048Y-56407715D01*
X148792925Y-56642979D01*
X148781196Y-56665211D01*
X148722467Y-56782710D01*
X148682639Y-56894038D01*
X148663181Y-57030133D01*
X148665564Y-57221934D01*
X148691258Y-57500381D01*
X148741732Y-57896412D01*
X148818456Y-58440966D01*
X148888701Y-58928000D01*
X148958106Y-59583821D01*
X148998371Y-60359078D01*
X149011510Y-61223680D01*
X148999539Y-62147534D01*
X148964470Y-63100549D01*
X148908319Y-64052632D01*
X148833100Y-64973692D01*
X148740827Y-65833638D01*
X148633514Y-66602376D01*
X148513177Y-67249815D01*
X148381828Y-67745864D01*
X148281991Y-67991577D01*
X148177590Y-68216464D01*
X148133431Y-68360647D01*
X148133425Y-68361115D01*
X148078857Y-68494111D01*
X147945607Y-68709240D01*
X147918572Y-68747886D01*
X147704344Y-69048741D01*
X147934044Y-69931970D01*
X148020337Y-70297596D01*
X148085522Y-70667272D01*
X148133615Y-71082824D01*
X148168634Y-71586078D01*
X148194595Y-72218860D01*
X148210764Y-72813144D01*
X148257784Y-74811089D01*
X147950969Y-74969749D01*
X147542683Y-75130040D01*
X146988058Y-75277073D01*
X146343931Y-75400579D01*
X145667141Y-75490288D01*
X145014526Y-75535932D01*
X144796822Y-75539600D01*
X144256554Y-75527006D01*
X143883363Y-75477097D01*
X143642031Y-75371682D01*
X143497336Y-75192568D01*
X143414059Y-74921563D01*
X143395134Y-74815601D01*
X143393688Y-74806648D01*
X143577298Y-74806648D01*
X143592507Y-74964639D01*
X143708341Y-75093761D01*
X143770182Y-75142897D01*
X144045574Y-75294683D01*
X144238223Y-75264754D01*
X144305505Y-75126791D01*
X144576800Y-75126791D01*
X144614267Y-75308343D01*
X144693849Y-75429032D01*
X144720733Y-75437411D01*
X144816577Y-75422138D01*
X145056783Y-75383089D01*
X145324062Y-75339402D01*
X145763044Y-75251200D01*
X146022356Y-75149238D01*
X146125444Y-75013827D01*
X146125192Y-75012223D01*
X146356735Y-75012223D01*
X146371700Y-75058945D01*
X146504696Y-75103331D01*
X146768051Y-75088798D01*
X147100369Y-75023649D01*
X147440249Y-74916187D01*
X147447000Y-74913546D01*
X147647062Y-74793099D01*
X147726400Y-74666016D01*
X147637087Y-74482623D01*
X147418300Y-74336592D01*
X147143763Y-74265477D01*
X146965491Y-74278404D01*
X146758006Y-74391956D01*
X146555840Y-74593576D01*
X146406310Y-74821065D01*
X146356735Y-75012223D01*
X146125192Y-75012223D01*
X146095753Y-74825281D01*
X146051081Y-74728892D01*
X145814051Y-74435195D01*
X145493191Y-74322383D01*
X145435625Y-74320400D01*
X145253491Y-74391668D01*
X145016597Y-74567594D01*
X144785453Y-74791361D01*
X144620573Y-75006152D01*
X144576800Y-75126791D01*
X144305505Y-75126791D01*
X144340377Y-75055286D01*
X144350438Y-74979967D01*
X144325013Y-74739489D01*
X144231725Y-74470495D01*
X144101455Y-74231370D01*
X143965086Y-74080501D01*
X143866835Y-74065636D01*
X143779152Y-74193535D01*
X143677366Y-74440832D01*
X143645982Y-74538332D01*
X143577298Y-74806648D01*
X143393688Y-74806648D01*
X143339755Y-74472800D01*
X142659971Y-74505655D01*
X142187927Y-74501769D01*
X141874343Y-74416333D01*
X141691000Y-74219973D01*
X141657420Y-74080956D01*
X141936095Y-74080956D01*
X142036437Y-74241924D01*
X142323706Y-74352054D01*
X142792049Y-74407338D01*
X142810110Y-74408163D01*
X143026147Y-74399791D01*
X143093724Y-74315645D01*
X143077107Y-74165073D01*
X143046138Y-74102829D01*
X143256108Y-74102829D01*
X143328310Y-74257243D01*
X143428845Y-74238885D01*
X143573225Y-74096863D01*
X143713809Y-73888952D01*
X143799839Y-73685400D01*
X143821081Y-73543748D01*
X143754599Y-73526742D01*
X143566352Y-73632790D01*
X143506425Y-73671685D01*
X143310979Y-73875539D01*
X143256108Y-74102829D01*
X143046138Y-74102829D01*
X142937361Y-73884201D01*
X142687574Y-73716117D01*
X142391914Y-73678687D01*
X142114554Y-73789775D01*
X142028536Y-73873157D01*
X141936095Y-74080956D01*
X141657420Y-74080956D01*
X141609678Y-73883316D01*
X141605995Y-73672222D01*
X141860579Y-73672222D01*
X141889540Y-73755431D01*
X141954468Y-73734667D01*
X142010679Y-73688416D01*
X142258480Y-73528699D01*
X142422774Y-73460391D01*
X142728147Y-73466991D01*
X142900053Y-73548830D01*
X143070915Y-73640976D01*
X143219756Y-73636310D01*
X143430100Y-73525400D01*
X143500378Y-73481055D01*
X143736251Y-73301106D01*
X143838821Y-73107299D01*
X143861313Y-72847200D01*
X143894174Y-72554092D01*
X143977201Y-72148081D01*
X144093753Y-71708166D01*
X144118089Y-71628000D01*
X144262749Y-71139465D01*
X144341336Y-70792492D01*
X144357277Y-70537694D01*
X144314001Y-70325687D01*
X144222654Y-70121795D01*
X143964574Y-69575449D01*
X143707716Y-68940554D01*
X143466651Y-68263324D01*
X143255949Y-67589969D01*
X143090182Y-66966703D01*
X142983920Y-66439736D01*
X142951200Y-66089341D01*
X142930819Y-65884592D01*
X142828414Y-65801317D01*
X142600203Y-65786000D01*
X142366591Y-65804654D01*
X142249820Y-65900224D01*
X142183939Y-66132115D01*
X142177250Y-66167000D01*
X142143047Y-66470455D01*
X142120688Y-66915444D01*
X142110288Y-67440639D01*
X142111964Y-67984714D01*
X142125833Y-68486340D01*
X142152010Y-68884190D01*
X142171808Y-69037200D01*
X142305606Y-69644836D01*
X142498593Y-70331081D01*
X142522338Y-70589576D01*
X142490106Y-70737481D01*
X142407638Y-70941302D01*
X142380247Y-71018400D01*
X142330883Y-71163052D01*
X142235901Y-71434160D01*
X142141850Y-71699826D01*
X142029064Y-72107358D01*
X141935567Y-72606367D01*
X141883937Y-73062424D01*
X141860929Y-73452175D01*
X141860579Y-73672222D01*
X141605995Y-73672222D01*
X141601309Y-73403722D01*
X141669497Y-72653093D01*
X141818209Y-71890601D01*
X142028622Y-71202199D01*
X142143124Y-70929445D01*
X142266193Y-70642547D01*
X142299285Y-70452026D01*
X142249394Y-70275687D01*
X142206221Y-70187716D01*
X142078756Y-69874085D01*
X141988356Y-69544025D01*
X141924094Y-69210339D01*
X141849761Y-68824201D01*
X141832094Y-68732400D01*
X141796006Y-68444133D01*
X141765923Y-68014868D01*
X141745363Y-67506794D01*
X141738056Y-67070529D01*
X141732732Y-66558474D01*
X141719773Y-66218602D01*
X141694520Y-66019919D01*
X141652314Y-65931431D01*
X141588496Y-65922143D01*
X141566518Y-65929360D01*
X141119950Y-66066603D01*
X140660107Y-66152895D01*
X140272058Y-66173893D01*
X140174490Y-66164087D01*
X139885482Y-66152154D01*
X139667807Y-66240554D01*
X139502713Y-66454480D01*
X139371450Y-66819126D01*
X139255268Y-67359685D01*
X139246007Y-67411600D01*
X139150771Y-67937249D01*
X139047379Y-68485704D01*
X138954188Y-68960139D01*
X138930652Y-69075062D01*
X138856950Y-69461402D01*
X138804732Y-69795350D01*
X138785600Y-69999253D01*
X138740407Y-70247650D01*
X138631316Y-70534388D01*
X138627624Y-70541851D01*
X138528616Y-70842970D01*
X138568063Y-71042412D01*
X138624821Y-71212463D01*
X138704399Y-71534908D01*
X138795773Y-71961777D01*
X138878690Y-72393978D01*
X138993722Y-72980960D01*
X139130591Y-73610411D01*
X139268445Y-74188981D01*
X139343388Y-74474426D01*
X139520723Y-75222886D01*
X139591469Y-75804124D01*
X139555799Y-76223814D01*
X139413886Y-76487628D01*
X139404807Y-76496105D01*
X139106748Y-76686617D01*
X138681223Y-76824289D01*
X138107931Y-76912880D01*
X137366571Y-76956152D01*
X136889852Y-76962000D01*
X136332789Y-76959298D01*
X135941661Y-76947933D01*
X135679241Y-76923017D01*
X135508300Y-76879662D01*
X135391609Y-76812979D01*
X135329517Y-76757117D01*
X135269854Y-76659319D01*
X137314145Y-76659319D01*
X137318980Y-76667847D01*
X137452755Y-76717574D01*
X137722785Y-76722810D01*
X138067964Y-76687423D01*
X138427184Y-76615282D01*
X138510445Y-76592418D01*
X138639561Y-76492556D01*
X138625011Y-76318805D01*
X138611039Y-76289334D01*
X138900259Y-76289334D01*
X138958975Y-76341904D01*
X138999861Y-76332421D01*
X139103953Y-76209144D01*
X139170307Y-75969868D01*
X139173843Y-75938175D01*
X139168315Y-75725595D01*
X139110583Y-75686785D01*
X139024623Y-75807134D01*
X138934410Y-76072033D01*
X138930850Y-76086246D01*
X138900259Y-76289334D01*
X138611039Y-76289334D01*
X138475133Y-76002686D01*
X138280337Y-75852748D01*
X138219140Y-75844400D01*
X137962316Y-75906306D01*
X137695346Y-76062715D01*
X137466287Y-76269663D01*
X137323200Y-76483186D01*
X137314145Y-76659319D01*
X135269854Y-76659319D01*
X135186073Y-76521989D01*
X135187287Y-76363547D01*
X135431921Y-76363547D01*
X135496953Y-76526407D01*
X135610600Y-76587164D01*
X135807550Y-76614887D01*
X136125516Y-76636872D01*
X136372600Y-76645414D01*
X136701730Y-76645989D01*
X136876433Y-76617938D01*
X136945257Y-76542165D01*
X136956800Y-76415640D01*
X136894360Y-76132555D01*
X136722557Y-76005395D01*
X136464664Y-76036144D01*
X136143954Y-76226788D01*
X136017000Y-76335502D01*
X135840254Y-76474230D01*
X135743694Y-76502271D01*
X135737600Y-76485448D01*
X135807925Y-76336057D01*
X135890000Y-76250800D01*
X136028636Y-76081669D01*
X135991180Y-75971826D01*
X135859520Y-75946000D01*
X135636775Y-76012631D01*
X135486385Y-76172051D01*
X135431921Y-76363547D01*
X135187287Y-76363547D01*
X135188353Y-76224646D01*
X135337899Y-75829779D01*
X135373047Y-75760111D01*
X135500278Y-75413064D01*
X135518530Y-75036345D01*
X135426064Y-74575720D01*
X135324946Y-74259970D01*
X135210822Y-73890533D01*
X135079988Y-73401782D01*
X134953371Y-72874085D01*
X134898368Y-72621636D01*
X134805830Y-72167500D01*
X134750817Y-71828822D01*
X134732347Y-71539645D01*
X134749437Y-71234015D01*
X134801103Y-70845974D01*
X134865809Y-70437236D01*
X134949552Y-69857961D01*
X135023150Y-69237291D01*
X135083670Y-68614656D01*
X135128182Y-68029490D01*
X135153754Y-67521223D01*
X135157455Y-67129289D01*
X135136354Y-66893120D01*
X135130746Y-66873201D01*
X135074989Y-66757869D01*
X134987131Y-66771274D01*
X134828962Y-66898601D01*
X134619741Y-67056268D01*
X134459346Y-67096148D01*
X134321617Y-66999150D01*
X134180391Y-66746179D01*
X134009506Y-66318142D01*
X134000529Y-66294000D01*
X133682189Y-65639860D01*
X133257943Y-65068168D01*
X132770137Y-64633928D01*
X132675059Y-64572290D01*
X132462376Y-64427083D01*
X132425526Y-64368039D01*
X132552801Y-64403098D01*
X132770845Y-64507331D01*
X133227151Y-64844658D01*
X133651004Y-65345840D01*
X134012246Y-65971544D01*
X134160191Y-66319400D01*
X134275239Y-66593550D01*
X134369930Y-66767327D01*
X134405203Y-66799740D01*
X134620100Y-66699053D01*
X134878340Y-66424395D01*
X135164890Y-65996433D01*
X135464717Y-65435828D01*
X135586206Y-65176400D01*
X135723757Y-64877658D01*
X135845653Y-64622260D01*
X135855737Y-64601887D01*
X135915562Y-64390686D01*
X135897761Y-64274557D01*
X135899338Y-64119655D01*
X135991387Y-63920983D01*
X136064017Y-63779935D01*
X136110168Y-63595814D01*
X136133275Y-63328748D01*
X136136777Y-62938863D01*
X136124108Y-62386289D01*
X136123990Y-62382400D01*
X136123543Y-62139235D01*
X136130990Y-61832931D01*
X136131340Y-61823600D01*
X136142946Y-61229750D01*
X136133543Y-60679991D01*
X136105427Y-60216803D01*
X136060894Y-59882669D01*
X136018937Y-59743885D01*
X135879769Y-59524961D01*
X135685413Y-59267208D01*
X135665365Y-59242869D01*
X135500905Y-58993646D01*
X135463743Y-58740199D01*
X135486050Y-58557897D01*
X135514656Y-58297510D01*
X135463936Y-58160591D01*
X135304758Y-58073702D01*
X135292028Y-58068821D01*
X135061062Y-57893114D01*
X134966966Y-57710573D01*
X134876838Y-57528008D01*
X134773220Y-57478380D01*
X134623140Y-57426579D01*
X134453601Y-57270783D01*
X134244014Y-57103350D01*
X134095094Y-57100252D01*
X133937814Y-57250004D01*
X133768785Y-57560219D01*
X133604823Y-57990178D01*
X133462747Y-58499159D01*
X133405124Y-58770810D01*
X133305691Y-59193323D01*
X133178040Y-59602993D01*
X133083083Y-59837610D01*
X132838376Y-60208565D01*
X132511186Y-60523738D01*
X132158036Y-60738095D01*
X131865623Y-60807600D01*
X131582368Y-60807599D01*
X131743813Y-61188600D01*
X131854041Y-61596653D01*
X131895776Y-62082765D01*
X131868768Y-62562136D01*
X131772771Y-62949964D01*
X131749126Y-63001574D01*
X131606099Y-63375008D01*
X131472517Y-63882835D01*
X131361914Y-64456290D01*
X131287827Y-65026608D01*
X131263599Y-65468262D01*
X131242233Y-65855626D01*
X131190209Y-66190765D01*
X131129020Y-66377682D01*
X131068006Y-66465387D01*
X131033471Y-66439629D01*
X131021971Y-66274827D01*
X131030058Y-65945399D01*
X131040074Y-65717282D01*
X131076995Y-65234643D01*
X131137094Y-64760834D01*
X131208800Y-64383021D01*
X131225696Y-64318945D01*
X131303391Y-64002323D01*
X131307079Y-63824651D01*
X131243441Y-63739316D01*
X131172623Y-63642292D01*
X131202647Y-63459825D01*
X131252122Y-63326771D01*
X131497390Y-62519925D01*
X131553763Y-61783543D01*
X131420115Y-61110414D01*
X131095320Y-60493328D01*
X130745539Y-60082739D01*
X130313407Y-59755205D01*
X129865148Y-59594007D01*
X129434354Y-59592634D01*
X129054617Y-59744574D01*
X128759526Y-60043316D01*
X128582674Y-60482349D01*
X128578522Y-60502800D01*
X128477466Y-60934293D01*
X128374779Y-61166640D01*
X128258199Y-61203616D01*
X128115464Y-61048997D01*
X127934311Y-60706558D01*
X127932094Y-60701835D01*
X127756248Y-60379546D01*
X127582049Y-60231352D01*
X127353780Y-60236411D01*
X127033145Y-60365587D01*
X126741058Y-60536332D01*
X126547464Y-60747265D01*
X126433866Y-61041125D01*
X126381769Y-61460655D01*
X126371927Y-61893569D01*
X126348288Y-62504387D01*
X126276431Y-62928271D01*
X126216266Y-63084828D01*
X126119912Y-63325692D01*
X126142617Y-63505741D01*
X126190950Y-63594561D01*
X126300694Y-63811188D01*
X126434280Y-64129225D01*
X126502731Y-64312039D01*
X126618325Y-64608173D01*
X126723105Y-64757282D01*
X126866325Y-64806460D01*
X127019882Y-64806473D01*
X127237369Y-64801110D01*
X127267089Y-64823931D01*
X127124212Y-64892787D01*
X127101600Y-64902638D01*
X126906386Y-64988567D01*
X126821741Y-65027490D01*
X126830051Y-65127868D01*
X126898996Y-65362056D01*
X127009048Y-65677146D01*
X127140676Y-66020232D01*
X127274349Y-66338405D01*
X127390538Y-66578758D01*
X127401771Y-66598800D01*
X127544073Y-66710608D01*
X127625545Y-66711912D01*
X127829197Y-66663011D01*
X128016000Y-66625059D01*
X128190768Y-66598870D01*
X128180170Y-66640940D01*
X128066800Y-66728333D01*
X127841414Y-66862741D01*
X127700078Y-66916786D01*
X127607585Y-66959549D01*
X127602040Y-67061275D01*
X127686548Y-67275234D01*
X127725974Y-67360800D01*
X127942037Y-67793115D01*
X128172903Y-68204391D01*
X128390319Y-68548573D01*
X128566033Y-68779605D01*
X128634324Y-68841542D01*
X128830589Y-68906921D01*
X129112486Y-68942422D01*
X129133600Y-68943207D01*
X129489200Y-68953926D01*
X129159000Y-69049268D01*
X128924512Y-69144291D01*
X128846629Y-69273491D01*
X128921460Y-69475134D01*
X129091078Y-69717483D01*
X129269723Y-69927831D01*
X129433927Y-70017713D01*
X129671976Y-70022186D01*
X129819114Y-70006571D01*
X130115547Y-69981249D01*
X130215823Y-69999513D01*
X130119704Y-70063538D01*
X129826953Y-70175497D01*
X129799633Y-70184998D01*
X129414136Y-70318460D01*
X129664188Y-70609163D01*
X129943989Y-70838250D01*
X130239117Y-70899866D01*
X130438147Y-70918790D01*
X130447642Y-70972703D01*
X130432997Y-70982977D01*
X130216048Y-71058913D01*
X130129384Y-71067644D01*
X130026275Y-71085443D01*
X130012387Y-71171120D01*
X130085660Y-71377100D01*
X130114490Y-71446681D01*
X130329624Y-71828619D01*
X130596872Y-72036487D01*
X130860800Y-72095804D01*
X131031644Y-72111303D01*
X131006338Y-72132263D01*
X130886043Y-72156923D01*
X130726265Y-72223157D01*
X130702670Y-72376274D01*
X130722180Y-72473286D01*
X130809426Y-72705073D01*
X130969529Y-73028513D01*
X131126756Y-73304400D01*
X131319840Y-73657534D01*
X131470205Y-73996814D01*
X131532616Y-74196880D01*
X131585021Y-74409538D01*
X131641229Y-74446805D01*
X131723443Y-74349280D01*
X131825914Y-74108310D01*
X131929971Y-73698763D01*
X132030067Y-73155137D01*
X132120655Y-72511931D01*
X132196188Y-71803642D01*
X132250862Y-71069200D01*
X132283060Y-70542883D01*
X132308917Y-70205791D01*
X132330816Y-70044131D01*
X132351141Y-70044117D01*
X132372274Y-70191957D01*
X132382878Y-70305296D01*
X132421747Y-70649907D01*
X132480078Y-70847510D01*
X132584142Y-70954184D01*
X132713017Y-71010012D01*
X132933466Y-71059437D01*
X133056878Y-71040587D01*
X133061311Y-70922369D01*
X133024311Y-70660969D01*
X132957289Y-70309413D01*
X132871651Y-69920730D01*
X132778807Y-69547947D01*
X132690166Y-69244090D01*
X132642249Y-69113400D01*
X132622508Y-68966250D01*
X132669273Y-68935600D01*
X132734171Y-68986050D01*
X132816328Y-69151390D01*
X132923232Y-69452599D01*
X133062373Y-69910656D01*
X133230955Y-70509176D01*
X133370576Y-71015953D01*
X133526810Y-70712376D01*
X133700211Y-70307419D01*
X133867730Y-69802326D01*
X134006742Y-69277788D01*
X134094621Y-68814496D01*
X134112662Y-68623058D01*
X134124221Y-68158999D01*
X134112197Y-67876335D01*
X134074699Y-67754425D01*
X134032959Y-67753257D01*
X133906709Y-67731398D01*
X133710532Y-67611214D01*
X133702759Y-67605171D01*
X133451600Y-67408236D01*
X133731000Y-67509003D01*
X133933522Y-67569651D01*
X133996629Y-67530995D01*
X133935423Y-67362118D01*
X133867895Y-67228754D01*
X133529878Y-66714164D01*
X133042156Y-66164507D01*
X132591400Y-65747518D01*
X132198854Y-65370603D01*
X131878002Y-64982208D01*
X131659821Y-64625291D01*
X131575285Y-64342811D01*
X131575170Y-64338200D01*
X131619871Y-64187674D01*
X131767479Y-64194178D01*
X132026030Y-64359719D01*
X132185331Y-64490600D01*
X132522987Y-64762987D01*
X132891082Y-65034734D01*
X132985045Y-65099234D01*
X133226810Y-65283725D01*
X133376746Y-65441612D01*
X133400800Y-65497944D01*
X133338651Y-65525753D01*
X133184524Y-65424583D01*
X133172200Y-65413719D01*
X132955529Y-65240311D01*
X132651523Y-65020587D01*
X132461000Y-64891447D01*
X132163166Y-64716571D01*
X132006020Y-64669030D01*
X131984938Y-64734123D01*
X132095296Y-64897147D01*
X132332471Y-65143400D01*
X132620644Y-65399056D01*
X133290473Y-66028789D01*
X133815759Y-66665197D01*
X134133952Y-67199145D01*
X134257716Y-67628428D01*
X134302611Y-68190259D01*
X134274546Y-68832516D01*
X134179429Y-69503077D01*
X134023170Y-70149820D01*
X133811677Y-70720623D01*
X133712495Y-70916800D01*
X133607583Y-71106637D01*
X133533200Y-71266735D01*
X133487682Y-71432305D01*
X133469365Y-71638562D01*
X133476582Y-71920718D01*
X133507670Y-72313987D01*
X133560964Y-72853583D01*
X133602021Y-73253600D01*
X133645011Y-73794294D01*
X133667531Y-74340940D01*
X133667216Y-74813990D01*
X133654879Y-75031600D01*
X133592739Y-75682677D01*
X133543127Y-76162586D01*
X133501577Y-76502648D01*
X133463625Y-76734184D01*
X133424806Y-76888515D01*
X133380655Y-76996960D01*
X133372451Y-77012800D01*
X133309226Y-77240948D01*
X133284558Y-77559806D01*
X133286886Y-77656600D01*
X133276052Y-77960873D01*
X133221660Y-78190028D01*
X133195703Y-78234285D01*
X133107993Y-78426345D01*
X133051101Y-78704151D01*
X133049561Y-78719668D01*
X132905401Y-79215297D01*
X132568563Y-79723878D01*
X132390770Y-79918373D01*
X132137745Y-80145509D01*
X131867155Y-80309091D01*
X131522142Y-80434120D01*
X131045849Y-80545598D01*
X130898821Y-80574430D01*
X130302379Y-80672329D01*
X129839600Y-80705569D01*
X129451931Y-80675380D01*
X129171460Y-80610760D01*
X128886307Y-80445012D01*
X128700504Y-80132261D01*
X128605731Y-79655639D01*
X128592130Y-79436076D01*
X128591381Y-79414751D01*
X128724107Y-79414751D01*
X128770839Y-79765789D01*
X128840691Y-80000439D01*
X128949039Y-80224992D01*
X129097609Y-80299486D01*
X129221691Y-80295001D01*
X129420894Y-80229600D01*
X129506077Y-80053235D01*
X129519546Y-79953789D01*
X129477860Y-79649756D01*
X129326725Y-79361869D01*
X129291402Y-79328031D01*
X129551872Y-79328031D01*
X129586599Y-79459933D01*
X129711468Y-79879432D01*
X129687589Y-80207642D01*
X129641401Y-80315170D01*
X129571409Y-80476375D01*
X129618428Y-80507066D01*
X129651594Y-80497735D01*
X129771366Y-80376100D01*
X129858464Y-80171495D01*
X129879305Y-79839694D01*
X129790077Y-79531057D01*
X129630601Y-79342802D01*
X129551872Y-79328031D01*
X129291402Y-79328031D01*
X129112140Y-79156310D01*
X128923025Y-79095600D01*
X128775804Y-79180710D01*
X128724107Y-79414751D01*
X128591381Y-79414751D01*
X128577453Y-79018641D01*
X129250590Y-79018641D01*
X129284680Y-79082561D01*
X129331787Y-79140360D01*
X129490545Y-79242015D01*
X129575135Y-79239952D01*
X129709655Y-79283906D01*
X129854244Y-79467374D01*
X129976359Y-79731190D01*
X130043458Y-80016184D01*
X130048000Y-80099677D01*
X130058995Y-80287714D01*
X130127814Y-80377882D01*
X130308208Y-80403827D01*
X130530600Y-80401773D01*
X130913259Y-80371976D01*
X131279263Y-80310093D01*
X131368800Y-80286958D01*
X131848463Y-80065304D01*
X132307095Y-79713861D01*
X132604351Y-79377436D01*
X132757608Y-79077181D01*
X132812974Y-78781446D01*
X132763164Y-78556112D01*
X132702081Y-78493713D01*
X132692213Y-78392593D01*
X132857078Y-78224690D01*
X132901227Y-78191034D01*
X133108379Y-78005873D01*
X133169983Y-77832093D01*
X133149885Y-77689165D01*
X133045861Y-77441693D01*
X132931027Y-77301272D01*
X132837559Y-77201409D01*
X132925409Y-77137192D01*
X132976172Y-77120185D01*
X133167735Y-76971127D01*
X133229936Y-76735973D01*
X133155468Y-76491087D01*
X133047456Y-76375195D01*
X132821924Y-76205076D01*
X132840348Y-76190583D01*
X133150248Y-76190583D01*
X133208787Y-76315080D01*
X133333551Y-76437739D01*
X133389105Y-76390195D01*
X133400800Y-76187559D01*
X133383828Y-76008652D01*
X133310575Y-76001369D01*
X133247147Y-76048639D01*
X133150248Y-76190583D01*
X132840348Y-76190583D01*
X133060562Y-76017364D01*
X133232256Y-75828406D01*
X133264494Y-75742800D01*
X133400800Y-75742800D01*
X133437973Y-75826428D01*
X133468533Y-75810533D01*
X133480692Y-75689957D01*
X133468533Y-75675066D01*
X133408132Y-75689013D01*
X133400800Y-75742800D01*
X133264494Y-75742800D01*
X133295968Y-75659225D01*
X133229573Y-75431282D01*
X133080362Y-75228131D01*
X132911216Y-75133589D01*
X132901333Y-75133200D01*
X132886641Y-75077958D01*
X133004445Y-74941408D01*
X133045978Y-74904302D01*
X133229663Y-74669155D01*
X133228157Y-74466412D01*
X133049224Y-74330493D01*
X132909601Y-74299904D01*
X132638800Y-74267570D01*
X132892800Y-74116185D01*
X133028802Y-74020248D01*
X133098912Y-73901405D01*
X133117141Y-73702674D01*
X133097498Y-73367073D01*
X133092397Y-73304400D01*
X133054924Y-72957771D01*
X133013757Y-72802792D01*
X132965478Y-72827914D01*
X132957133Y-72847200D01*
X132715358Y-73443704D01*
X132523673Y-73885928D01*
X132363588Y-74210868D01*
X132216613Y-74455522D01*
X132064258Y-74656887D01*
X132036362Y-74689627D01*
X131837354Y-74942726D01*
X131757293Y-75137245D01*
X131768412Y-75355195D01*
X131784510Y-75433511D01*
X131818015Y-75668757D01*
X131847311Y-76030012D01*
X131871598Y-76478343D01*
X131890081Y-76974818D01*
X131901961Y-77480505D01*
X131906441Y-77956471D01*
X131902723Y-78363784D01*
X131890011Y-78663512D01*
X131867506Y-78816721D01*
X131854026Y-78827525D01*
X131816166Y-78881831D01*
X131821345Y-79079872D01*
X131834548Y-79176962D01*
X131852372Y-79483336D01*
X131791729Y-79643822D01*
X131786144Y-79647635D01*
X131685465Y-79637673D01*
X131673600Y-79586989D01*
X131626600Y-79563728D01*
X131512885Y-79686325D01*
X131506767Y-79694973D01*
X131380053Y-79850117D01*
X131299235Y-79844970D01*
X131246522Y-79766243D01*
X131121950Y-79652567D01*
X131011783Y-79714328D01*
X130958803Y-79925751D01*
X130958423Y-79939796D01*
X130944784Y-80063687D01*
X130897218Y-80019826D01*
X130821591Y-79857560D01*
X130683722Y-79598900D01*
X130505383Y-79420139D01*
X130321502Y-79327089D01*
X130710975Y-79327089D01*
X130749498Y-79446743D01*
X130782778Y-79502000D01*
X130890472Y-79658964D01*
X130936039Y-79705200D01*
X130957498Y-79619662D01*
X130962400Y-79502000D01*
X130898466Y-79336171D01*
X130867113Y-79323054D01*
X131137772Y-79323054D01*
X131189028Y-79439241D01*
X131248763Y-79512265D01*
X131395283Y-79618297D01*
X131468625Y-79555150D01*
X131434945Y-79353001D01*
X131433029Y-79347961D01*
X131307363Y-79248611D01*
X131227999Y-79257607D01*
X131137772Y-79323054D01*
X130867113Y-79323054D01*
X130809139Y-79298800D01*
X130710975Y-79327089D01*
X130321502Y-79327089D01*
X130231804Y-79281699D01*
X129870471Y-79162917D01*
X131523489Y-79162917D01*
X131535258Y-79248000D01*
X131634986Y-79382445D01*
X131684470Y-79400400D01*
X131765013Y-79317948D01*
X131775200Y-79248000D01*
X131695505Y-79113264D01*
X131625988Y-79095600D01*
X131523489Y-79162917D01*
X129870471Y-79162917D01*
X129851759Y-79156766D01*
X129500840Y-79054694D01*
X129311547Y-79009002D01*
X129250590Y-79018641D01*
X128577453Y-79018641D01*
X128574800Y-78943200D01*
X128930834Y-78913155D01*
X129228793Y-78920280D01*
X129619945Y-78970395D01*
X129896034Y-79025087D01*
X130444061Y-79105775D01*
X130956935Y-79096258D01*
X131371053Y-78999811D01*
X131485770Y-78943200D01*
X131564366Y-78855014D01*
X131623042Y-78677877D01*
X131668052Y-78378240D01*
X131705649Y-77922558D01*
X131720212Y-77685638D01*
X131786884Y-76529677D01*
X131501642Y-76597265D01*
X131163831Y-76661737D01*
X130689167Y-76732563D01*
X130143489Y-76801742D01*
X129592636Y-76861272D01*
X129102449Y-76903153D01*
X128879600Y-76915890D01*
X128457069Y-76943398D01*
X128040519Y-76986198D01*
X127840483Y-77015020D01*
X127566815Y-77050978D01*
X127420620Y-77015686D01*
X127330708Y-76880595D01*
X127296360Y-76796820D01*
X127248385Y-76586441D01*
X127237253Y-76374830D01*
X127482934Y-76374830D01*
X127522041Y-76465135D01*
X127591753Y-76521291D01*
X127894729Y-76646185D01*
X128197708Y-76570973D01*
X128212666Y-76561787D01*
X128267071Y-76502069D01*
X128401704Y-76502069D01*
X128691452Y-76625852D01*
X128974195Y-76729778D01*
X129168683Y-76733988D01*
X129365712Y-76634843D01*
X129421574Y-76596589D01*
X129601463Y-76380199D01*
X129613885Y-76280534D01*
X129818797Y-76280534D01*
X130060398Y-76414467D01*
X130390649Y-76537941D01*
X130652329Y-76521658D01*
X130804262Y-76368979D01*
X130809711Y-76353309D01*
X130835042Y-76141948D01*
X130821038Y-76088495D01*
X131000513Y-76088495D01*
X131027258Y-76200000D01*
X131171674Y-76338515D01*
X131438567Y-76316617D01*
X131512890Y-76290729D01*
X131657362Y-76153909D01*
X131671767Y-75958347D01*
X131582351Y-75775135D01*
X131415359Y-75675365D01*
X131289270Y-75684995D01*
X131064666Y-75842585D01*
X131000513Y-76088495D01*
X130821038Y-76088495D01*
X130810561Y-76048509D01*
X130647687Y-75956803D01*
X130389497Y-75969007D01*
X130111279Y-76078645D01*
X130057605Y-76113267D01*
X129818797Y-76280534D01*
X129613885Y-76280534D01*
X129621980Y-76215589D01*
X129513707Y-76058274D01*
X129289305Y-75993777D01*
X129011892Y-76019199D01*
X128744581Y-76131637D01*
X128595470Y-76262777D01*
X128401704Y-76502069D01*
X128267071Y-76502069D01*
X128305548Y-76459836D01*
X128234892Y-76320626D01*
X128225626Y-76309343D01*
X128006718Y-76162976D01*
X127736398Y-76205219D01*
X127615774Y-76270522D01*
X127482934Y-76374830D01*
X127237253Y-76374830D01*
X127231182Y-76259431D01*
X127244546Y-75787124D01*
X127284880Y-75184000D01*
X127327869Y-74520109D01*
X127338452Y-73993577D01*
X127315599Y-73540997D01*
X127258278Y-73098964D01*
X127250186Y-73050400D01*
X127198802Y-72641403D01*
X127155279Y-72094643D01*
X127123637Y-71475518D01*
X127107898Y-70849428D01*
X127106983Y-70721289D01*
X127101599Y-69204979D01*
X126871947Y-69420727D01*
X126616456Y-69614665D01*
X126256691Y-69831622D01*
X125850856Y-70042753D01*
X125457151Y-70219217D01*
X125133781Y-70332168D01*
X124980632Y-70358000D01*
X124646534Y-70272249D01*
X124268680Y-70040664D01*
X123888823Y-69701745D01*
X123548710Y-69293993D01*
X123290092Y-68855909D01*
X123249038Y-68761168D01*
X123118258Y-68502048D01*
X122981913Y-68322134D01*
X122975869Y-68316928D01*
X122861115Y-68126164D01*
X122834400Y-67970400D01*
X122770407Y-67730949D01*
X122682000Y-67614800D01*
X122566126Y-67422488D01*
X122529600Y-67215378D01*
X122473810Y-66929167D01*
X122380431Y-66745218D01*
X122273231Y-66503803D01*
X122228031Y-66211120D01*
X122188693Y-65901510D01*
X122103626Y-65652320D01*
X122010878Y-65413459D01*
X121925589Y-65084695D01*
X121904273Y-64973200D01*
X121839079Y-64605083D01*
X121774179Y-64258201D01*
X121759886Y-64185608D01*
X121760513Y-64129477D01*
X121994430Y-64129477D01*
X122023913Y-64211200D01*
X122091597Y-64378053D01*
X122181320Y-64725868D01*
X122288430Y-65234166D01*
X122408274Y-65882469D01*
X122423301Y-65968766D01*
X122495861Y-66265971D01*
X122586240Y-66482742D01*
X122615846Y-66522486D01*
X122705653Y-66708036D01*
X122732800Y-66904501D01*
X122790360Y-67189420D01*
X122881968Y-67366781D01*
X123001353Y-67583263D01*
X123034368Y-67718215D01*
X123090624Y-67893066D01*
X123227927Y-68147752D01*
X123291600Y-68246224D01*
X123447007Y-68499706D01*
X123536789Y-68694122D01*
X123545600Y-68737789D01*
X123616203Y-68916404D01*
X123797618Y-69171966D01*
X124044255Y-69451695D01*
X124310523Y-69702815D01*
X124501259Y-69844103D01*
X124874242Y-70014333D01*
X125224737Y-70023246D01*
X125614431Y-69868694D01*
X125730000Y-69801338D01*
X126026089Y-69627489D01*
X126284486Y-69487577D01*
X126351657Y-69454997D01*
X126562071Y-69305686D01*
X126774235Y-69079467D01*
X126781239Y-69070187D01*
X127072364Y-68710107D01*
X127299170Y-68504967D01*
X127491047Y-68429402D01*
X127525776Y-68427600D01*
X127680510Y-68486996D01*
X127696395Y-68617964D01*
X127579536Y-68749667D01*
X127494773Y-68787397D01*
X127418329Y-68817896D01*
X127363448Y-68872558D01*
X127327735Y-68979947D01*
X127308794Y-69168624D01*
X127304232Y-69467154D01*
X127311653Y-69904099D01*
X127328661Y-70508023D01*
X127334460Y-70699244D01*
X127400564Y-71962337D01*
X127516478Y-73097030D01*
X127679200Y-74082796D01*
X127885732Y-74899111D01*
X127993604Y-75209429D01*
X128092454Y-75507710D01*
X128133119Y-75722576D01*
X128117962Y-75793375D01*
X128042078Y-75735547D01*
X127933025Y-75533183D01*
X127851617Y-75330515D01*
X127726582Y-75044927D01*
X127629671Y-74960068D01*
X127561598Y-75075324D01*
X127523073Y-75390083D01*
X127515140Y-75620403D01*
X127508000Y-76056807D01*
X127849412Y-75992758D01*
X128102823Y-75971863D01*
X128229790Y-76046084D01*
X128256021Y-76098609D01*
X128317154Y-76195154D01*
X128419342Y-76172688D01*
X128608563Y-76026725D01*
X128866954Y-75861390D01*
X129155743Y-75815712D01*
X129319554Y-75825342D01*
X129580359Y-75868508D01*
X129729580Y-75928651D01*
X129743200Y-75951487D01*
X129824942Y-75970932D01*
X130029243Y-75915472D01*
X130113229Y-75882623D01*
X130413606Y-75795177D01*
X130676679Y-75778977D01*
X130712237Y-75785484D01*
X130927133Y-75777426D01*
X130997828Y-75695420D01*
X131128029Y-75569967D01*
X131366380Y-75467205D01*
X131382053Y-75462993D01*
X131592014Y-75394620D01*
X131631110Y-75322728D01*
X131559451Y-75237780D01*
X131455317Y-75024232D01*
X131452799Y-74922310D01*
X131572379Y-74922310D01*
X131621376Y-74982035D01*
X131749512Y-74901240D01*
X131927399Y-74711193D01*
X132125647Y-74443166D01*
X132310062Y-74137400D01*
X132453556Y-73829769D01*
X132627235Y-73397317D01*
X132803780Y-72910116D01*
X132892271Y-72644000D01*
X132951133Y-72461663D01*
X133119390Y-72461663D01*
X133170430Y-72578705D01*
X133219749Y-72704984D01*
X133262577Y-72983431D01*
X133296710Y-73363058D01*
X133319945Y-73792878D01*
X133330078Y-74221902D01*
X133324904Y-74599144D01*
X133302219Y-74873617D01*
X133274157Y-74978357D01*
X133252475Y-75198798D01*
X133316574Y-75306803D01*
X133415642Y-75397771D01*
X133470646Y-75330389D01*
X133502519Y-75179555D01*
X133516075Y-74966310D01*
X133515082Y-74602002D01*
X133500490Y-74138177D01*
X133474148Y-73640493D01*
X133436360Y-73136522D01*
X133392212Y-72689497D01*
X133347216Y-72348215D01*
X133307174Y-72162220D01*
X133242065Y-72013605D01*
X133198053Y-72035994D01*
X133143993Y-72223105D01*
X133119390Y-72461663D01*
X132951133Y-72461663D01*
X133035876Y-72199159D01*
X133163409Y-71810237D01*
X133257902Y-71528649D01*
X133294595Y-71424800D01*
X133320846Y-71306986D01*
X133256913Y-71243684D01*
X133060748Y-71215157D01*
X132827304Y-71205458D01*
X132283200Y-71189317D01*
X132283200Y-71838395D01*
X132257009Y-72337650D01*
X132186227Y-72896696D01*
X132082534Y-73456860D01*
X131957615Y-73959466D01*
X131823150Y-74345841D01*
X131758685Y-74472724D01*
X131631890Y-74719506D01*
X131572908Y-74910856D01*
X131572379Y-74922310D01*
X131452799Y-74922310D01*
X131450226Y-74818190D01*
X131431796Y-74440882D01*
X131297651Y-73975346D01*
X131066845Y-73485431D01*
X131037203Y-73434200D01*
X130834271Y-73090255D01*
X130466535Y-73829267D01*
X130258480Y-74232911D01*
X130100777Y-74492232D01*
X129987315Y-74598218D01*
X129911983Y-74541853D01*
X129868672Y-74314124D01*
X129851269Y-73906017D01*
X129852971Y-73481472D01*
X129959756Y-73481472D01*
X129967527Y-73867825D01*
X129985804Y-74172862D01*
X130014510Y-74350913D01*
X130039253Y-74376605D01*
X130118742Y-74260015D01*
X130243987Y-74004263D01*
X130390184Y-73660742D01*
X130415215Y-73597623D01*
X130698323Y-72876027D01*
X130399223Y-72304753D01*
X130236361Y-71998974D01*
X130141377Y-71853919D01*
X130088020Y-71850231D01*
X130050042Y-71968549D01*
X130035282Y-72036340D01*
X130000254Y-72291238D01*
X129976042Y-72647507D01*
X129962569Y-73059476D01*
X129959756Y-73481472D01*
X129852971Y-73481472D01*
X129853665Y-73308518D01*
X129860394Y-72935135D01*
X129895600Y-71221600D01*
X129087841Y-70053200D01*
X128791975Y-69627276D01*
X128536509Y-69263347D01*
X128343950Y-68993186D01*
X128236801Y-68848563D01*
X128224241Y-68834000D01*
X128146520Y-68712646D01*
X128006756Y-68450184D01*
X127826168Y-68090863D01*
X127625974Y-67678934D01*
X127427393Y-67258645D01*
X127251644Y-66874248D01*
X127119944Y-66569991D01*
X127054989Y-66395600D01*
X126982084Y-66166655D01*
X126862505Y-65842218D01*
X126685470Y-65394443D01*
X126440196Y-64795487D01*
X126366426Y-64617600D01*
X126132628Y-64077494D01*
X125916791Y-63651524D01*
X125684188Y-63294706D01*
X125400089Y-62962062D01*
X125029767Y-62608610D01*
X124538494Y-62189371D01*
X124409200Y-62082580D01*
X124028322Y-61802144D01*
X123604934Y-61543542D01*
X123172772Y-61320599D01*
X122765567Y-61147139D01*
X122417055Y-61036986D01*
X122160969Y-61003963D01*
X122031043Y-61061893D01*
X122021600Y-61104166D01*
X122068294Y-61249467D01*
X122181794Y-61476467D01*
X122192673Y-61495610D01*
X122296228Y-61704999D01*
X122304534Y-61873723D01*
X122217147Y-62102080D01*
X122189716Y-62160430D01*
X122083495Y-62422782D01*
X122076688Y-62626310D01*
X122166344Y-62887721D01*
X122171042Y-62898993D01*
X122290653Y-63255417D01*
X122320259Y-63516275D01*
X122257410Y-63645003D01*
X122221526Y-63652400D01*
X122104497Y-63737786D01*
X122017349Y-63929190D01*
X121994430Y-64129477D01*
X121760513Y-64129477D01*
X121764053Y-63812652D01*
X121867735Y-63589576D01*
X121971611Y-63405986D01*
X121985292Y-63249481D01*
X121908504Y-63029790D01*
X121865742Y-62933532D01*
X121760143Y-62670838D01*
X121746211Y-62482441D01*
X121824269Y-62261125D01*
X121868049Y-62167275D01*
X121975613Y-61912078D01*
X121987851Y-61739953D01*
X121906735Y-61555582D01*
X121881601Y-61512434D01*
X121736607Y-61180671D01*
X121758958Y-60947284D01*
X121901235Y-60817642D01*
X122200242Y-60766826D01*
X122633157Y-60863721D01*
X123201746Y-61108823D01*
X123504217Y-61268639D01*
X123876440Y-61473039D01*
X124210358Y-61653931D01*
X124440691Y-61775989D01*
X124460000Y-61785885D01*
X124661210Y-61918287D01*
X124948473Y-62143356D01*
X125260966Y-62413336D01*
X125272800Y-62424093D01*
X125601232Y-62701463D01*
X125831273Y-62828300D01*
X125979209Y-62793468D01*
X126061328Y-62585832D01*
X126093915Y-62194255D01*
X126096433Y-61860952D01*
X126108791Y-61376236D01*
X126158617Y-61043420D01*
X126253725Y-60813379D01*
X126266193Y-60793886D01*
X126589785Y-60415132D01*
X126984003Y-60113769D01*
X127380508Y-59939899D01*
X127450830Y-59925352D01*
X127662525Y-59872542D01*
X127803457Y-59764752D01*
X127813358Y-59746783D01*
X128360545Y-59746783D01*
X128452963Y-59739893D01*
X128625958Y-59670613D01*
X128830510Y-59556191D01*
X128930400Y-59486609D01*
X129184400Y-59294118D01*
X128990565Y-58806259D01*
X128856398Y-58382887D01*
X128814041Y-57975798D01*
X128819252Y-57930569D01*
X129211939Y-57930569D01*
X129310266Y-58423707D01*
X129421746Y-58698640D01*
X129598427Y-59041582D01*
X129759129Y-59242369D01*
X129949853Y-59352364D01*
X130030550Y-59378446D01*
X130450112Y-59567563D01*
X130867244Y-59867708D01*
X131194218Y-60212807D01*
X131251321Y-60297913D01*
X131421342Y-60577490D01*
X131907333Y-60422384D01*
X132348198Y-60211570D01*
X132695687Y-59877431D01*
X132969162Y-59394431D01*
X133187982Y-58737032D01*
X133189537Y-58731108D01*
X133327145Y-58260841D01*
X133490198Y-57782990D01*
X133643965Y-57399152D01*
X133647424Y-57391564D01*
X133808927Y-57073387D01*
X133946042Y-56906176D01*
X134097638Y-56847793D01*
X134151417Y-56845200D01*
X134400340Y-56916096D01*
X134538038Y-57032276D01*
X134735830Y-57230461D01*
X134899400Y-57340650D01*
X135073249Y-57476860D01*
X135128000Y-57586682D01*
X135210773Y-57718869D01*
X135356600Y-57811707D01*
X135491691Y-57902526D01*
X135567823Y-58062118D01*
X135606546Y-58347247D01*
X135615602Y-58493943D01*
X135666253Y-58912502D01*
X135769165Y-59157277D01*
X135818802Y-59206380D01*
X136064039Y-59476723D01*
X136224144Y-59869290D01*
X136312489Y-60418518D01*
X136318694Y-60493827D01*
X136343523Y-60862164D01*
X136358049Y-61161703D01*
X136359387Y-61315600D01*
X136352202Y-61475275D01*
X136340632Y-61789285D01*
X136326407Y-62208856D01*
X136314346Y-62585600D01*
X136276351Y-63259436D01*
X136209916Y-63860347D01*
X136120989Y-64351932D01*
X136015522Y-64697797D01*
X135949617Y-64816645D01*
X135866917Y-64987718D01*
X135796988Y-65215686D01*
X135687874Y-65489995D01*
X135508023Y-65793318D01*
X135466911Y-65849649D01*
X135310982Y-66121648D01*
X135271350Y-66347452D01*
X135350711Y-66480239D01*
X135429611Y-66497200D01*
X135492018Y-66592802D01*
X135524623Y-66860202D01*
X135528068Y-67270293D01*
X135502993Y-67793966D01*
X135450039Y-68402112D01*
X135373728Y-69037200D01*
X135298739Y-69669576D01*
X135230510Y-70387835D01*
X135179362Y-71077279D01*
X135163478Y-71374000D01*
X135150461Y-71932846D01*
X135172071Y-72418101D01*
X135238349Y-72882323D01*
X135359335Y-73378076D01*
X135545068Y-73957920D01*
X135781785Y-74610899D01*
X135871224Y-74919762D01*
X135901774Y-75177080D01*
X135893323Y-75245899D01*
X135817764Y-75514490D01*
X135787007Y-75624016D01*
X135799372Y-75776795D01*
X135914007Y-75809103D01*
X136399210Y-75815295D01*
X136721413Y-75846103D01*
X136920240Y-75910846D01*
X137035313Y-76018841D01*
X137068809Y-76080673D01*
X137176463Y-76316946D01*
X137484890Y-76028832D01*
X137744509Y-75827006D01*
X137995975Y-75692742D01*
X138041083Y-75678533D01*
X138299480Y-75688492D01*
X138537224Y-75849684D01*
X138708497Y-75988712D01*
X138779281Y-75978317D01*
X138785600Y-75928657D01*
X138855784Y-75744455D01*
X138971122Y-75606397D01*
X139039796Y-75534241D01*
X139080986Y-75444008D01*
X139092567Y-75303215D01*
X139072414Y-75079378D01*
X139018404Y-74740016D01*
X138928412Y-74252645D01*
X138858796Y-73888850D01*
X138735713Y-73290514D01*
X138601184Y-72706062D01*
X138468942Y-72190994D01*
X138352721Y-71800807D01*
X138317673Y-71702188D01*
X138159109Y-71248792D01*
X138090706Y-70923542D01*
X138110337Y-70673552D01*
X138215878Y-70445933D01*
X138264270Y-70373684D01*
X138420260Y-70116567D01*
X138516099Y-69900800D01*
X138555485Y-69713546D01*
X138612095Y-69370252D01*
X138679569Y-68916705D01*
X138751549Y-68398692D01*
X138821675Y-67862000D01*
X138883588Y-67352416D01*
X138930927Y-66915727D01*
X138931467Y-66910238D01*
X138979236Y-66583566D01*
X139043586Y-66338518D01*
X139086423Y-66257336D01*
X139130802Y-66102177D01*
X139106341Y-66047497D01*
X138919778Y-65720908D01*
X138732170Y-65271611D01*
X138596002Y-64856375D01*
X138864592Y-64856375D01*
X138934140Y-65068792D01*
X139064060Y-65340134D01*
X139207462Y-65664824D01*
X139226337Y-65709800D01*
X139376412Y-65991909D01*
X139509239Y-66085836D01*
X139615919Y-65986053D01*
X139627316Y-65958792D01*
X139612921Y-65809315D01*
X139520571Y-65569828D01*
X139378331Y-65288420D01*
X139214264Y-65013178D01*
X139056437Y-64792190D01*
X138932913Y-64673546D01*
X138880526Y-64679198D01*
X138864592Y-64856375D01*
X138596002Y-64856375D01*
X138570358Y-64778176D01*
X138461182Y-64319174D01*
X138430854Y-64070189D01*
X138322312Y-63431312D01*
X138139032Y-62941200D01*
X137949966Y-62496942D01*
X137879188Y-62201391D01*
X137924159Y-62039878D01*
X137977717Y-62008227D01*
X137999326Y-61901948D01*
X137931632Y-61652370D01*
X137822920Y-61381845D01*
X137669371Y-60988005D01*
X137606538Y-60666759D01*
X137616601Y-60318917D01*
X137622414Y-60265884D01*
X137674087Y-59920938D01*
X137737148Y-59633935D01*
X137768705Y-59537600D01*
X138021664Y-58958806D01*
X138217768Y-58562289D01*
X138362970Y-58337075D01*
X138455400Y-58271764D01*
X138557598Y-58313275D01*
X138563819Y-58461716D01*
X138469577Y-58738322D01*
X138270384Y-59164328D01*
X138264258Y-59176602D01*
X138091828Y-59546365D01*
X138004918Y-59827481D01*
X137985319Y-60106033D01*
X138006787Y-60393726D01*
X138068785Y-60775980D01*
X138161360Y-61121775D01*
X138222602Y-61271896D01*
X138329759Y-61662152D01*
X138318361Y-61889163D01*
X138336435Y-62276262D01*
X138419749Y-62454097D01*
X138559762Y-62726603D01*
X138690410Y-63076641D01*
X138791029Y-63433951D01*
X138840953Y-63728271D01*
X138833832Y-63861975D01*
X138870046Y-64035354D01*
X139031436Y-64235829D01*
X139038791Y-64242303D01*
X139215093Y-64436226D01*
X139293366Y-64602695D01*
X139293600Y-64609132D01*
X139355131Y-64776797D01*
X139507155Y-65006352D01*
X139547600Y-65056271D01*
X139711876Y-65277868D01*
X139797901Y-65445366D01*
X139801600Y-65468530D01*
X139893651Y-65588991D01*
X140148261Y-65648948D01*
X140533117Y-65645467D01*
X141005011Y-65577778D01*
X141465650Y-65503917D01*
X141949300Y-65452520D01*
X142248183Y-65437351D01*
X142815167Y-65430400D01*
X142812801Y-63855600D01*
X142820400Y-63102610D01*
X142848900Y-62405552D01*
X142903252Y-61713004D01*
X142988409Y-60973550D01*
X143109323Y-60135769D01*
X143259983Y-59212824D01*
X143343365Y-58694270D01*
X143388087Y-58324022D01*
X143395927Y-58051252D01*
X143368664Y-57825132D01*
X143315730Y-57619982D01*
X143045046Y-56999293D01*
X142656402Y-56543938D01*
X142346094Y-56339493D01*
X142082562Y-56156146D01*
X141918744Y-55947835D01*
X141882211Y-55761581D01*
X141951576Y-55666678D01*
X142049333Y-55699967D01*
X142107489Y-55823570D01*
X142229738Y-56003908D01*
X142466266Y-56190514D01*
X142557737Y-56242200D01*
X142985807Y-56568962D01*
X143332373Y-57056147D01*
X143572979Y-57669147D01*
X143577113Y-57684608D01*
X143617897Y-57874296D01*
X143640330Y-58089924D01*
X143643100Y-58362532D01*
X143624893Y-58723162D01*
X143584397Y-59202858D01*
X143520299Y-59832660D01*
X143464661Y-60343528D01*
X143344907Y-61610902D01*
X143286454Y-62705836D01*
X143289117Y-63649561D01*
X143352711Y-64463312D01*
X143424667Y-64922400D01*
X143450308Y-65170181D01*
X143464652Y-65546588D01*
X143465126Y-65977232D01*
X143463647Y-66050281D01*
X143480322Y-66614856D01*
X143564763Y-67186721D01*
X143727770Y-67808005D01*
X143980143Y-68520836D01*
X144287263Y-69263152D01*
X144502644Y-69793473D01*
X144624539Y-70210669D01*
X144658180Y-70579224D01*
X144608800Y-70963623D01*
X144481630Y-71428351D01*
X144466776Y-71475600D01*
X144346160Y-71910275D01*
X144223582Y-72438691D01*
X144123828Y-72953157D01*
X144116331Y-72998053D01*
X143974889Y-73860106D01*
X144225044Y-74121212D01*
X144396344Y-74364104D01*
X144474693Y-74601678D01*
X144475200Y-74617181D01*
X144485313Y-74742704D01*
X144539955Y-74763327D01*
X144675579Y-74667169D01*
X144881892Y-74484622D01*
X145250671Y-74213882D01*
X145563388Y-74129880D01*
X145840399Y-74231071D01*
X146013698Y-74398728D01*
X146246851Y-74680256D01*
X146513526Y-74381794D01*
X146828070Y-74150630D01*
X147179537Y-74081197D01*
X147509956Y-74180347D01*
X147606088Y-74252666D01*
X147774140Y-74382529D01*
X147861400Y-74422000D01*
X147897830Y-74326638D01*
X147919819Y-74064399D01*
X147927927Y-73671050D01*
X147922720Y-73182357D01*
X147904759Y-72634089D01*
X147874607Y-72062013D01*
X147832829Y-71501896D01*
X147811904Y-71278353D01*
X147746382Y-70750835D01*
X147662638Y-70257984D01*
X147572243Y-69861212D01*
X147508123Y-69666154D01*
X147399785Y-69390167D01*
X147376244Y-69201725D01*
X147440222Y-69002489D01*
X147531603Y-68817527D01*
X147704241Y-68425180D01*
X147896694Y-67901783D01*
X148086433Y-67315028D01*
X148250931Y-66732604D01*
X148320728Y-66446400D01*
X148376474Y-66144272D01*
X148434330Y-65737164D01*
X148490101Y-65269349D01*
X148539591Y-64785103D01*
X148578606Y-64328701D01*
X148602949Y-63944418D01*
X148608426Y-63676528D01*
X148593192Y-63570925D01*
X148546824Y-63607933D01*
X148532760Y-63711666D01*
X148485438Y-63908121D01*
X148348453Y-64230854D01*
X148115636Y-64692498D01*
X147780816Y-65305691D01*
X147585574Y-65651393D01*
X147274233Y-66164926D01*
X147007366Y-66537988D01*
X146798145Y-66753661D01*
X146689648Y-66802000D01*
X146693599Y-66731293D01*
X146781267Y-66560726D01*
X146913956Y-66352629D01*
X147052971Y-66169329D01*
X147131183Y-66090800D01*
X147223209Y-65960997D01*
X147373892Y-65687422D01*
X147562537Y-65313366D01*
X147768446Y-64882120D01*
X147970922Y-64436976D01*
X148149269Y-64021225D01*
X148277262Y-63693567D01*
X148392768Y-63328123D01*
X148495886Y-62922141D01*
X148578255Y-62522185D01*
X148631513Y-62174819D01*
X148647299Y-61926608D01*
X148617252Y-61824114D01*
X148613051Y-61823600D01*
X148540634Y-61906664D01*
X148418003Y-62118411D01*
X148340175Y-62272173D01*
X148192840Y-62517033D01*
X147968631Y-62823416D01*
X147703322Y-63150000D01*
X147432685Y-63455464D01*
X147192492Y-63698486D01*
X147018515Y-63837744D01*
X146969400Y-63855600D01*
X146989603Y-63785943D01*
X147117793Y-63602344D01*
X147327094Y-63342855D01*
X147353080Y-63312290D01*
X147936887Y-62510666D01*
X148353654Y-61677623D01*
X148474627Y-61323491D01*
X148523999Y-61015608D01*
X148547269Y-60554557D01*
X148546147Y-59988458D01*
X148522342Y-59365430D01*
X148477561Y-58733594D01*
X148413513Y-58141069D01*
X148346342Y-57710374D01*
X148309797Y-57431764D01*
X148324636Y-57182600D01*
X148407665Y-56933443D01*
X148575693Y-56654858D01*
X148845526Y-56317405D01*
X149233972Y-55891647D01*
X149606000Y-55504145D01*
X150106050Y-54982531D01*
X150483370Y-54569036D01*
X150761897Y-54231140D01*
X150965565Y-53936325D01*
X151118313Y-53652071D01*
X151244076Y-53345860D01*
X151289987Y-53216345D01*
X151426431Y-52652633D01*
X151488266Y-52018493D01*
X151475750Y-51383642D01*
X151389142Y-50817795D01*
X151279859Y-50489623D01*
X151140494Y-50146761D01*
X151034792Y-49821950D01*
X151011889Y-49726847D01*
X150944494Y-49532679D01*
X150864729Y-49501159D01*
X150859353Y-49506006D01*
X150838461Y-49645267D01*
X150869887Y-49937812D01*
X150948574Y-50341996D01*
X150974211Y-50452156D01*
X151147014Y-51444768D01*
X151159510Y-52313259D01*
X151011545Y-53058580D01*
X150702961Y-53681677D01*
X150383397Y-54053125D01*
X150185566Y-54268525D01*
X150073029Y-54446649D01*
X150063200Y-54488666D01*
X150006686Y-54573130D01*
X149961600Y-54559199D01*
X149874130Y-54581632D01*
X149860000Y-54651615D01*
X149794672Y-54759685D01*
X149707600Y-54748341D01*
X149579981Y-54765867D01*
X149553644Y-54878529D01*
X149536830Y-55003057D01*
X149468274Y-54937135D01*
X149453600Y-54914800D01*
X149372408Y-54813626D01*
X149343896Y-54890174D01*
X149341524Y-54914800D01*
X149336304Y-55100304D01*
X149339968Y-55143400D01*
X149275288Y-55217199D01*
X149250400Y-55219600D01*
X149151752Y-55142284D01*
X149148800Y-55118000D01*
X149071484Y-55019352D01*
X149047200Y-55016400D01*
X148966502Y-55102615D01*
X148941999Y-55245000D01*
X148933213Y-55396642D01*
X148891558Y-55381275D01*
X148797885Y-55219700D01*
X148657370Y-54965801D01*
X148589398Y-55270500D01*
X148517310Y-55571929D01*
X148474076Y-55685982D01*
X148452025Y-55625174D01*
X148445621Y-55504996D01*
X148403532Y-55247595D01*
X148324970Y-55172024D01*
X148250893Y-55280484D01*
X148222614Y-55493003D01*
X148205237Y-55688203D01*
X148175349Y-55717233D01*
X148161952Y-55676800D01*
X148082746Y-55461125D01*
X147996219Y-55363455D01*
X147937549Y-55411820D01*
X147929600Y-55491639D01*
X147857587Y-55728497D01*
X147772205Y-55833345D01*
X147662615Y-55901975D01*
X147644199Y-55817117D01*
X147661001Y-55709242D01*
X147663218Y-55458116D01*
X147616752Y-55311657D01*
X147544200Y-55232106D01*
X147524786Y-55343402D01*
X147524755Y-55346600D01*
X147470420Y-55497344D01*
X147410729Y-55524400D01*
X147343182Y-55450349D01*
X147357449Y-55370154D01*
X147319322Y-55212412D01*
X147144929Y-54965172D01*
X146863355Y-54657048D01*
X146503683Y-54316650D01*
X146094996Y-53972594D01*
X145666377Y-53653491D01*
X145497508Y-53540309D01*
X145000860Y-53240895D01*
X144407436Y-52917285D01*
X143763716Y-52591558D01*
X143116182Y-52285796D01*
X142511315Y-52022078D01*
X141995595Y-51822485D01*
X141668319Y-51721283D01*
X141240160Y-51645331D01*
X140662902Y-51584902D01*
X139990180Y-51541791D01*
X139275633Y-51517793D01*
X138572896Y-51514704D01*
X137935606Y-51534320D01*
X137417399Y-51578435D01*
X137414000Y-51578876D01*
X136933309Y-51656120D01*
X136444895Y-51758290D01*
X136052130Y-51863685D01*
X136042400Y-51866835D01*
X135603581Y-51987831D01*
X135128766Y-52086640D01*
X134928946Y-52116648D01*
X134670651Y-52155375D01*
X134411709Y-52213994D01*
X134117761Y-52304658D01*
X133754449Y-52439521D01*
X133287412Y-52630736D01*
X132682294Y-52890455D01*
X132428858Y-53000954D01*
X131712431Y-53341199D01*
X131158737Y-53673690D01*
X130730849Y-54028445D01*
X130391841Y-54435481D01*
X130135278Y-54865424D01*
X129942613Y-55277366D01*
X129785450Y-55690073D01*
X129696212Y-56017835D01*
X129693809Y-56032400D01*
X129610846Y-56410972D01*
X129495108Y-56774920D01*
X129466334Y-56845200D01*
X129263476Y-57424588D01*
X129211939Y-57930569D01*
X128819252Y-57930569D01*
X128865882Y-57525887D01*
X129014309Y-56974049D01*
X129071688Y-56798618D01*
X129196429Y-56402908D01*
X129289624Y-56060966D01*
X129334888Y-55834264D01*
X129336800Y-55803939D01*
X129326191Y-55674674D01*
X129269131Y-55697791D01*
X129157446Y-55840898D01*
X128827451Y-56334371D01*
X128626999Y-56778519D01*
X128529798Y-57254422D01*
X128509494Y-57838865D01*
X128503980Y-58248813D01*
X128478997Y-58585463D01*
X128439384Y-58793519D01*
X128423139Y-58825508D01*
X128375734Y-59020994D01*
X128414435Y-59255829D01*
X128450880Y-59545347D01*
X128397724Y-59674035D01*
X128360545Y-59746783D01*
X127813358Y-59746783D01*
X127921893Y-59549825D01*
X128013772Y-59317032D01*
X128120267Y-58988324D01*
X128172384Y-58678561D01*
X128178050Y-58309189D01*
X128154667Y-57920633D01*
X128129206Y-57446203D01*
X128142612Y-57118001D01*
X128199160Y-56882020D01*
X128244750Y-56782109D01*
X128396717Y-56496137D01*
X128573797Y-56163698D01*
X128607408Y-56100696D01*
X128777473Y-55834001D01*
X129035240Y-55488219D01*
X129329036Y-55132133D01*
X129370702Y-55084696D01*
X129798849Y-54596188D01*
X130106434Y-54231132D01*
X130312506Y-53965334D01*
X130436113Y-53774603D01*
X130485006Y-53669452D01*
X130599202Y-53533764D01*
X130837390Y-53337603D01*
X131145085Y-53117637D01*
X131467802Y-52910535D01*
X131751055Y-52752966D01*
X131940360Y-52681597D01*
X131954378Y-52680565D01*
X132149618Y-52635147D01*
X132259178Y-52587474D01*
X132585022Y-52437484D01*
X133043364Y-52252294D01*
X133572007Y-52054878D01*
X134108755Y-51868209D01*
X134591410Y-51715261D01*
X134721600Y-51677933D01*
X135632945Y-51457132D01*
X136558755Y-51301427D01*
X137552566Y-51204588D01*
X138667913Y-51160386D01*
X139206697Y-51156008D01*
X139987837Y-51162526D01*
X140618776Y-51190131D01*
X141152288Y-51250301D01*
X141641145Y-51354518D01*
X142138121Y-51514259D01*
X142695987Y-51741005D01*
X143367516Y-52046234D01*
X143426931Y-52074014D01*
X144340478Y-52522497D01*
X145110891Y-52950100D01*
X145791336Y-53388449D01*
X146405600Y-53845816D01*
X146924879Y-54247289D01*
X147329435Y-54529506D01*
X147655570Y-54709157D01*
X147939586Y-54802934D01*
X148217785Y-54827528D01*
X148490931Y-54804614D01*
X149059953Y-54656000D01*
X149651534Y-54382339D01*
X150174796Y-54027176D01*
X150251056Y-53961252D01*
X150619917Y-53500319D01*
X150873231Y-52903614D01*
X150994792Y-52212625D01*
X151002562Y-52037331D01*
X150979577Y-51609324D01*
X150905937Y-51052926D01*
X150794570Y-50432743D01*
X150658405Y-49813380D01*
X150510368Y-49259441D01*
X150363387Y-48835533D01*
X150360513Y-48828744D01*
X150310804Y-48593689D01*
X150350454Y-48490905D01*
X150422284Y-48517589D01*
X150489018Y-48721832D01*
X150513588Y-48859593D01*
X150577580Y-49151293D01*
X150658670Y-49351051D01*
X150693401Y-49390332D01*
X150750449Y-49401334D01*
X150761117Y-49318693D01*
X150720754Y-49114835D01*
X150667801Y-48920400D01*
X150774400Y-48920400D01*
X150811573Y-49004028D01*
X150842133Y-48988133D01*
X150854292Y-48867557D01*
X150842133Y-48852666D01*
X150781732Y-48866613D01*
X150774400Y-48920400D01*
X150667801Y-48920400D01*
X150624712Y-48762185D01*
X150537089Y-48463200D01*
X150454100Y-48224262D01*
X150395550Y-48131703D01*
X150377084Y-48177803D01*
X150330545Y-48381337D01*
X150272123Y-48459662D01*
X150175861Y-48413913D01*
X150030576Y-48241326D01*
X149872624Y-47999458D01*
X149738362Y-47745863D01*
X149664144Y-47538096D01*
X149659031Y-47489073D01*
X149695825Y-47484071D01*
X149787064Y-47631438D01*
G04 #@! TD*
G04 #@! TO.C,C1*
D11*
X156439142Y-69420333D02*
X156486761Y-69372714D01*
X156534380Y-69229857D01*
X156534380Y-69134619D01*
X156486761Y-68991761D01*
X156391523Y-68896523D01*
X156296285Y-68848904D01*
X156105809Y-68801285D01*
X155962952Y-68801285D01*
X155772476Y-68848904D01*
X155677238Y-68896523D01*
X155582000Y-68991761D01*
X155534380Y-69134619D01*
X155534380Y-69229857D01*
X155582000Y-69372714D01*
X155629619Y-69420333D01*
X156534380Y-70372714D02*
X156534380Y-69801285D01*
X156534380Y-70087000D02*
X155534380Y-70087000D01*
X155677238Y-69991761D01*
X155772476Y-69896523D01*
X155820095Y-69801285D01*
G04 #@! TO.C,C2*
X159433666Y-72111142D02*
X159481285Y-72158761D01*
X159624142Y-72206380D01*
X159719380Y-72206380D01*
X159862238Y-72158761D01*
X159957476Y-72063523D01*
X160005095Y-71968285D01*
X160052714Y-71777809D01*
X160052714Y-71634952D01*
X160005095Y-71444476D01*
X159957476Y-71349238D01*
X159862238Y-71254000D01*
X159719380Y-71206380D01*
X159624142Y-71206380D01*
X159481285Y-71254000D01*
X159433666Y-71301619D01*
X159052714Y-71301619D02*
X159005095Y-71254000D01*
X158909857Y-71206380D01*
X158671761Y-71206380D01*
X158576523Y-71254000D01*
X158528904Y-71301619D01*
X158481285Y-71396857D01*
X158481285Y-71492095D01*
X158528904Y-71634952D01*
X159100333Y-72206380D01*
X158481285Y-72206380D01*
G04 #@! TO.C,C6*
X143939666Y-55347142D02*
X143987285Y-55394761D01*
X144130142Y-55442380D01*
X144225380Y-55442380D01*
X144368238Y-55394761D01*
X144463476Y-55299523D01*
X144511095Y-55204285D01*
X144558714Y-55013809D01*
X144558714Y-54870952D01*
X144511095Y-54680476D01*
X144463476Y-54585238D01*
X144368238Y-54490000D01*
X144225380Y-54442380D01*
X144130142Y-54442380D01*
X143987285Y-54490000D01*
X143939666Y-54537619D01*
X143082523Y-54442380D02*
X143273000Y-54442380D01*
X143368238Y-54490000D01*
X143415857Y-54537619D01*
X143511095Y-54680476D01*
X143558714Y-54870952D01*
X143558714Y-55251904D01*
X143511095Y-55347142D01*
X143463476Y-55394761D01*
X143368238Y-55442380D01*
X143177761Y-55442380D01*
X143082523Y-55394761D01*
X143034904Y-55347142D01*
X142987285Y-55251904D01*
X142987285Y-55013809D01*
X143034904Y-54918571D01*
X143082523Y-54870952D01*
X143177761Y-54823333D01*
X143368238Y-54823333D01*
X143463476Y-54870952D01*
X143511095Y-54918571D01*
X143558714Y-55013809D01*
G04 #@! TO.C,L1*
X150917666Y-67381380D02*
X151393857Y-67381380D01*
X151393857Y-66381380D01*
X150060523Y-67381380D02*
X150631952Y-67381380D01*
X150346238Y-67381380D02*
X150346238Y-66381380D01*
X150441476Y-66524238D01*
X150536714Y-66619476D01*
X150631952Y-66667095D01*
G04 #@! TO.C,L2*
X156027380Y-73364333D02*
X156027380Y-72888142D01*
X155027380Y-72888142D01*
X155122619Y-73650047D02*
X155075000Y-73697666D01*
X155027380Y-73792904D01*
X155027380Y-74031000D01*
X155075000Y-74126238D01*
X155122619Y-74173857D01*
X155217857Y-74221476D01*
X155313095Y-74221476D01*
X155455952Y-74173857D01*
X156027380Y-73602428D01*
X156027380Y-74221476D01*
G04 #@! TO.C,JP1*
X149798380Y-77398666D02*
X150512666Y-77398666D01*
X150655523Y-77351047D01*
X150750761Y-77255809D01*
X150798380Y-77112952D01*
X150798380Y-77017714D01*
X150798380Y-77874857D02*
X149798380Y-77874857D01*
X149798380Y-78255809D01*
X149846000Y-78351047D01*
X149893619Y-78398666D01*
X149988857Y-78446285D01*
X150131714Y-78446285D01*
X150226952Y-78398666D01*
X150274571Y-78351047D01*
X150322190Y-78255809D01*
X150322190Y-77874857D01*
X150798380Y-79398666D02*
X150798380Y-78827238D01*
X150798380Y-79112952D02*
X149798380Y-79112952D01*
X149941238Y-79017714D01*
X150036476Y-78922476D01*
X150084095Y-78827238D01*
G04 #@! TD*
M02*
