%TF.GenerationSoftware,KiCad,Pcbnew,5.0.1*%
%TF.CreationDate,2019-01-10T14:59:40-06:00*%
%TF.ProjectId,PowerRDP,506F7765725244502E6B696361645F70,01*%
%TF.SameCoordinates,Original*%
%TF.FileFunction,Soldermask,Bot*%
%TF.FilePolarity,Negative*%
%FSLAX46Y46*%
G04 Gerber Fmt 4.6, Leading zero omitted, Abs format (unit mm)*
G04 Created by KiCad (PCBNEW 5.0.1) date Thu 10 Jan 2019 02:59:40 PM CST*
%MOMM*%
%LPD*%
G01*
G04 APERTURE LIST*
%ADD10C,0.100000*%
G04 APERTURE END LIST*
D10*
G36*
X148270000Y-80075000D02*
X146370000Y-80075000D01*
X146370000Y-77375000D01*
X148270000Y-77375000D01*
X148270000Y-80075000D01*
X148270000Y-80075000D01*
G37*
G36*
X157969094Y-77039789D02*
X158009953Y-77052183D01*
X158047608Y-77072311D01*
X158080607Y-77099393D01*
X158107689Y-77132392D01*
X158127817Y-77170047D01*
X158140211Y-77210906D01*
X158145000Y-77259530D01*
X158145000Y-78950470D01*
X158140211Y-78999094D01*
X158127817Y-79039953D01*
X158107689Y-79077608D01*
X158080607Y-79110607D01*
X158047608Y-79137689D01*
X158009953Y-79157817D01*
X157969094Y-79170211D01*
X157920470Y-79175000D01*
X155769530Y-79175000D01*
X155720906Y-79170211D01*
X155680047Y-79157817D01*
X155642392Y-79137689D01*
X155609393Y-79110607D01*
X155582311Y-79077608D01*
X155562183Y-79039953D01*
X155549789Y-78999094D01*
X155545000Y-78950470D01*
X155545000Y-77259530D01*
X155549789Y-77210906D01*
X155562183Y-77170047D01*
X155582311Y-77132392D01*
X155609393Y-77099393D01*
X155642392Y-77072311D01*
X155680047Y-77052183D01*
X155720906Y-77039789D01*
X155769530Y-77035000D01*
X157920470Y-77035000D01*
X157969094Y-77039789D01*
X157969094Y-77039789D01*
G37*
G36*
X132289756Y-74915482D02*
X132438970Y-74960746D01*
X132491455Y-74976667D01*
X132677336Y-75076022D01*
X132840265Y-75209735D01*
X132973978Y-75372663D01*
X133073333Y-75558544D01*
X133075291Y-75565000D01*
X133134518Y-75760243D01*
X133150000Y-75917436D01*
X133150000Y-76482563D01*
X133134518Y-76639756D01*
X133089254Y-76788970D01*
X133073333Y-76841455D01*
X132973978Y-77027337D01*
X132840265Y-77190265D01*
X132677337Y-77323978D01*
X132491456Y-77423333D01*
X132438971Y-77439254D01*
X132289757Y-77484518D01*
X132080000Y-77505177D01*
X131870244Y-77484518D01*
X131721030Y-77439254D01*
X131668545Y-77423333D01*
X131482664Y-77323978D01*
X131319736Y-77190265D01*
X131186024Y-77027338D01*
X131086666Y-76841453D01*
X131066271Y-76774220D01*
X131025482Y-76639757D01*
X131010000Y-76482564D01*
X131010000Y-75917437D01*
X131025482Y-75760244D01*
X131086666Y-75558549D01*
X131086667Y-75558545D01*
X131186022Y-75372664D01*
X131319735Y-75209735D01*
X131482663Y-75076022D01*
X131668544Y-74976667D01*
X131721029Y-74960746D01*
X131870243Y-74915482D01*
X132080000Y-74894823D01*
X132289756Y-74915482D01*
X132289756Y-74915482D01*
G37*
G36*
X125939756Y-74915482D02*
X126088970Y-74960746D01*
X126141455Y-74976667D01*
X126327336Y-75076022D01*
X126490265Y-75209735D01*
X126623978Y-75372663D01*
X126723333Y-75558544D01*
X126725291Y-75565000D01*
X126784518Y-75760243D01*
X126800000Y-75917436D01*
X126800000Y-76482563D01*
X126784518Y-76639756D01*
X126739254Y-76788970D01*
X126723333Y-76841455D01*
X126623978Y-77027337D01*
X126490265Y-77190265D01*
X126327337Y-77323978D01*
X126141456Y-77423333D01*
X126088971Y-77439254D01*
X125939757Y-77484518D01*
X125730000Y-77505177D01*
X125520244Y-77484518D01*
X125371030Y-77439254D01*
X125318545Y-77423333D01*
X125132664Y-77323978D01*
X124969736Y-77190265D01*
X124836024Y-77027338D01*
X124736666Y-76841453D01*
X124716271Y-76774220D01*
X124675482Y-76639757D01*
X124660000Y-76482564D01*
X124660000Y-75917437D01*
X124675482Y-75760244D01*
X124736666Y-75558549D01*
X124736667Y-75558545D01*
X124836022Y-75372664D01*
X124969735Y-75209735D01*
X125132663Y-75076022D01*
X125318544Y-74976667D01*
X125371029Y-74960746D01*
X125520243Y-74915482D01*
X125730000Y-74894823D01*
X125939756Y-74915482D01*
X125939756Y-74915482D01*
G37*
G36*
X124260000Y-77500000D02*
X122120000Y-77500000D01*
X122120000Y-74900000D01*
X124260000Y-74900000D01*
X124260000Y-77500000D01*
X124260000Y-77500000D01*
G37*
G36*
X130610000Y-77500000D02*
X128470000Y-77500000D01*
X128470000Y-74900000D01*
X130610000Y-74900000D01*
X130610000Y-77500000D01*
X130610000Y-77500000D01*
G37*
G36*
X157179962Y-74500161D02*
X157284757Y-74510482D01*
X157433971Y-74555746D01*
X157486456Y-74571667D01*
X157672337Y-74671022D01*
X157835265Y-74804735D01*
X157968978Y-74967663D01*
X158068333Y-75153544D01*
X158068334Y-75153548D01*
X158129518Y-75355243D01*
X158150177Y-75565000D01*
X158129518Y-75774757D01*
X158086237Y-75917435D01*
X158068333Y-75976456D01*
X157968978Y-76162337D01*
X157835265Y-76325265D01*
X157672337Y-76458978D01*
X157486456Y-76558333D01*
X157433971Y-76574254D01*
X157284757Y-76619518D01*
X157179962Y-76629839D01*
X157127565Y-76635000D01*
X156562435Y-76635000D01*
X156510038Y-76629839D01*
X156405243Y-76619518D01*
X156256029Y-76574254D01*
X156203544Y-76558333D01*
X156017663Y-76458978D01*
X155854735Y-76325265D01*
X155721022Y-76162337D01*
X155621667Y-75976456D01*
X155603763Y-75917435D01*
X155560482Y-75774757D01*
X155539823Y-75565000D01*
X155560482Y-75355243D01*
X155621666Y-75153548D01*
X155621667Y-75153544D01*
X155721022Y-74967663D01*
X155854735Y-74804735D01*
X156017663Y-74671022D01*
X156203544Y-74571667D01*
X156256029Y-74555746D01*
X156405243Y-74510482D01*
X156510038Y-74500161D01*
X156562435Y-74495000D01*
X157127565Y-74495000D01*
X157179962Y-74500161D01*
X157179962Y-74500161D01*
G37*
G36*
X139886231Y-73243746D02*
X139975769Y-73270907D01*
X140065308Y-73298068D01*
X140230347Y-73386283D01*
X140375001Y-73504999D01*
X140493717Y-73649653D01*
X140581932Y-73814691D01*
X140609093Y-73904230D01*
X140636254Y-73993768D01*
X140650000Y-74133334D01*
X140650000Y-75726666D01*
X140636254Y-75866231D01*
X140581932Y-76045309D01*
X140493717Y-76210347D01*
X140375001Y-76355001D01*
X140230347Y-76473717D01*
X140065309Y-76561932D01*
X139975770Y-76589093D01*
X139886232Y-76616254D01*
X139700000Y-76634596D01*
X139513769Y-76616254D01*
X139424231Y-76589093D01*
X139334692Y-76561932D01*
X139169654Y-76473717D01*
X139025000Y-76355001D01*
X138906284Y-76210347D01*
X138818068Y-76045306D01*
X138763746Y-75866234D01*
X138750000Y-75726666D01*
X138750000Y-74133335D01*
X138763746Y-73993770D01*
X138763747Y-73993768D01*
X138818068Y-73814693D01*
X138818068Y-73814692D01*
X138906283Y-73649653D01*
X139024999Y-73504999D01*
X139169653Y-73386283D01*
X139334691Y-73298068D01*
X139424230Y-73270907D01*
X139513768Y-73243746D01*
X139700000Y-73225404D01*
X139886231Y-73243746D01*
X139886231Y-73243746D01*
G37*
G36*
X144966231Y-73243746D02*
X145055769Y-73270907D01*
X145145308Y-73298068D01*
X145310347Y-73386283D01*
X145455001Y-73504999D01*
X145573717Y-73649653D01*
X145661932Y-73814691D01*
X145689093Y-73904230D01*
X145716254Y-73993768D01*
X145730000Y-74133334D01*
X145730000Y-75726666D01*
X145716254Y-75866231D01*
X145661932Y-76045309D01*
X145573717Y-76210347D01*
X145455001Y-76355001D01*
X145310347Y-76473717D01*
X145145309Y-76561932D01*
X145055770Y-76589093D01*
X144966232Y-76616254D01*
X144780000Y-76634596D01*
X144593769Y-76616254D01*
X144504231Y-76589093D01*
X144414692Y-76561932D01*
X144249654Y-76473717D01*
X144105000Y-76355001D01*
X143986284Y-76210347D01*
X143898068Y-76045306D01*
X143843746Y-75866234D01*
X143830000Y-75726666D01*
X143830000Y-74133335D01*
X143843746Y-73993770D01*
X143843747Y-73993768D01*
X143898068Y-73814693D01*
X143898068Y-73814692D01*
X143986283Y-73649653D01*
X144104999Y-73504999D01*
X144249653Y-73386283D01*
X144414691Y-73298068D01*
X144504230Y-73270907D01*
X144593768Y-73243746D01*
X144780000Y-73225404D01*
X144966231Y-73243746D01*
X144966231Y-73243746D01*
G37*
G36*
X147506231Y-73243746D02*
X147595769Y-73270907D01*
X147685308Y-73298068D01*
X147850347Y-73386283D01*
X147995001Y-73504999D01*
X148113717Y-73649653D01*
X148201932Y-73814691D01*
X148229093Y-73904230D01*
X148256254Y-73993768D01*
X148270000Y-74133334D01*
X148270000Y-75726666D01*
X148256254Y-75866231D01*
X148201932Y-76045309D01*
X148113717Y-76210347D01*
X147995001Y-76355001D01*
X147850347Y-76473717D01*
X147685309Y-76561932D01*
X147595770Y-76589093D01*
X147506232Y-76616254D01*
X147320000Y-76634596D01*
X147133769Y-76616254D01*
X147044231Y-76589093D01*
X146954692Y-76561932D01*
X146789654Y-76473717D01*
X146645000Y-76355001D01*
X146526284Y-76210347D01*
X146438068Y-76045306D01*
X146383746Y-75866234D01*
X146370000Y-75726666D01*
X146370000Y-74133335D01*
X146383746Y-73993770D01*
X146383747Y-73993768D01*
X146438068Y-73814693D01*
X146438068Y-73814692D01*
X146526283Y-73649653D01*
X146644999Y-73504999D01*
X146789653Y-73386283D01*
X146954691Y-73298068D01*
X147044230Y-73270907D01*
X147133768Y-73243746D01*
X147320000Y-73225404D01*
X147506231Y-73243746D01*
X147506231Y-73243746D01*
G37*
G36*
X150046231Y-73243746D02*
X150135769Y-73270907D01*
X150225308Y-73298068D01*
X150390347Y-73386283D01*
X150535001Y-73504999D01*
X150653717Y-73649653D01*
X150741932Y-73814691D01*
X150769093Y-73904230D01*
X150796254Y-73993768D01*
X150810000Y-74133334D01*
X150810000Y-75726666D01*
X150796254Y-75866231D01*
X150741932Y-76045309D01*
X150653717Y-76210347D01*
X150535001Y-76355001D01*
X150390347Y-76473717D01*
X150225309Y-76561932D01*
X150135770Y-76589093D01*
X150046232Y-76616254D01*
X149860000Y-76634596D01*
X149673769Y-76616254D01*
X149584231Y-76589093D01*
X149494692Y-76561932D01*
X149329654Y-76473717D01*
X149185000Y-76355001D01*
X149066284Y-76210347D01*
X148978068Y-76045306D01*
X148923746Y-75866234D01*
X148910000Y-75726666D01*
X148910000Y-74133335D01*
X148923746Y-73993770D01*
X148923747Y-73993768D01*
X148978068Y-73814693D01*
X148978068Y-73814692D01*
X149066283Y-73649653D01*
X149184999Y-73504999D01*
X149329653Y-73386283D01*
X149494691Y-73298068D01*
X149584230Y-73270907D01*
X149673768Y-73243746D01*
X149860000Y-73225404D01*
X150046231Y-73243746D01*
X150046231Y-73243746D01*
G37*
G36*
X138110000Y-76630000D02*
X136210000Y-76630000D01*
X136210000Y-73230000D01*
X138110000Y-73230000D01*
X138110000Y-76630000D01*
X138110000Y-76630000D01*
G37*
G36*
X157179962Y-71960161D02*
X157284757Y-71970482D01*
X157433971Y-72015746D01*
X157486456Y-72031667D01*
X157672337Y-72131022D01*
X157835265Y-72264735D01*
X157968978Y-72427663D01*
X158068333Y-72613544D01*
X158068334Y-72613548D01*
X158129518Y-72815243D01*
X158150177Y-73025000D01*
X158129518Y-73234757D01*
X158084254Y-73383971D01*
X158068333Y-73436456D01*
X157968978Y-73622337D01*
X157835265Y-73785265D01*
X157672337Y-73918978D01*
X157486456Y-74018333D01*
X157433971Y-74034254D01*
X157284757Y-74079518D01*
X157179962Y-74089839D01*
X157127565Y-74095000D01*
X156562435Y-74095000D01*
X156510038Y-74089839D01*
X156405243Y-74079518D01*
X156256029Y-74034254D01*
X156203544Y-74018333D01*
X156017663Y-73918978D01*
X155854735Y-73785265D01*
X155721022Y-73622337D01*
X155621667Y-73436456D01*
X155605746Y-73383971D01*
X155560482Y-73234757D01*
X155539823Y-73025000D01*
X155560482Y-72815243D01*
X155621666Y-72613548D01*
X155621667Y-72613544D01*
X155721022Y-72427663D01*
X155854735Y-72264735D01*
X156017663Y-72131022D01*
X156203544Y-72031667D01*
X156256029Y-72015746D01*
X156405243Y-71970482D01*
X156510038Y-71960161D01*
X156562435Y-71955000D01*
X157127565Y-71955000D01*
X157179962Y-71960161D01*
X157179962Y-71960161D01*
G37*
G36*
X128276716Y-68369544D02*
X128677090Y-68535384D01*
X129037421Y-68776150D01*
X129343850Y-69082579D01*
X129584616Y-69442910D01*
X129750456Y-69843284D01*
X129835000Y-70268317D01*
X129835000Y-70701683D01*
X129750456Y-71126716D01*
X129584616Y-71527090D01*
X129343850Y-71887421D01*
X129037421Y-72193850D01*
X128677090Y-72434616D01*
X128276716Y-72600456D01*
X127851683Y-72685000D01*
X127418317Y-72685000D01*
X126993284Y-72600456D01*
X126592910Y-72434616D01*
X126232579Y-72193850D01*
X125926150Y-71887421D01*
X125685384Y-71527090D01*
X125519544Y-71126716D01*
X125435000Y-70701683D01*
X125435000Y-70268317D01*
X125519544Y-69843284D01*
X125685384Y-69442910D01*
X125926150Y-69082579D01*
X126232579Y-68776150D01*
X126592910Y-68535384D01*
X126993284Y-68369544D01*
X127418317Y-68285000D01*
X127851683Y-68285000D01*
X128276716Y-68369544D01*
X128276716Y-68369544D01*
G37*
G36*
X146505000Y-72084000D02*
X143055000Y-72084000D01*
X143055000Y-70164000D01*
X146505000Y-70164000D01*
X146505000Y-72084000D01*
X146505000Y-72084000D01*
G37*
G36*
X151585000Y-72080000D02*
X148135000Y-72080000D01*
X148135000Y-70160000D01*
X151585000Y-70160000D01*
X151585000Y-72080000D01*
X151585000Y-72080000D01*
G37*
G36*
X157179962Y-69420161D02*
X157284757Y-69430482D01*
X157433971Y-69475746D01*
X157486456Y-69491667D01*
X157672337Y-69591022D01*
X157835265Y-69724735D01*
X157968978Y-69887663D01*
X158068333Y-70073544D01*
X158068334Y-70073548D01*
X158129518Y-70275243D01*
X158150177Y-70485000D01*
X158129518Y-70694757D01*
X158084254Y-70843971D01*
X158068333Y-70896456D01*
X157968978Y-71082337D01*
X157835265Y-71245265D01*
X157672337Y-71378978D01*
X157486456Y-71478333D01*
X157433971Y-71494254D01*
X157284757Y-71539518D01*
X157179962Y-71549839D01*
X157127565Y-71555000D01*
X156562435Y-71555000D01*
X156510038Y-71549839D01*
X156405243Y-71539518D01*
X156256029Y-71494254D01*
X156203544Y-71478333D01*
X156017663Y-71378978D01*
X155854735Y-71245265D01*
X155721022Y-71082337D01*
X155621667Y-70896456D01*
X155605746Y-70843971D01*
X155560482Y-70694757D01*
X155539823Y-70485000D01*
X155560482Y-70275243D01*
X155621666Y-70073548D01*
X155621667Y-70073544D01*
X155721022Y-69887663D01*
X155854735Y-69724735D01*
X156017663Y-69591022D01*
X156203544Y-69491667D01*
X156256029Y-69475746D01*
X156405243Y-69430482D01*
X156510038Y-69420161D01*
X156562435Y-69415000D01*
X157127565Y-69415000D01*
X157179962Y-69420161D01*
X157179962Y-69420161D01*
G37*
G36*
X146505000Y-69794000D02*
X143055000Y-69794000D01*
X143055000Y-67874000D01*
X146505000Y-67874000D01*
X146505000Y-69794000D01*
X146505000Y-69794000D01*
G37*
G36*
X151585000Y-69790000D02*
X148135000Y-69790000D01*
X148135000Y-67870000D01*
X151585000Y-67870000D01*
X151585000Y-69790000D01*
X151585000Y-69790000D01*
G37*
G36*
X153720530Y-67810710D02*
X153770379Y-67825831D01*
X153816311Y-67850382D01*
X153856574Y-67883426D01*
X153889618Y-67923689D01*
X153914169Y-67969621D01*
X153929290Y-68019470D01*
X153935000Y-68077444D01*
X153935000Y-69082556D01*
X153929290Y-69140530D01*
X153914169Y-69190379D01*
X153889618Y-69236311D01*
X153856574Y-69276574D01*
X153816311Y-69309618D01*
X153770379Y-69334169D01*
X153720530Y-69349290D01*
X153662556Y-69355000D01*
X152407444Y-69355000D01*
X152349470Y-69349290D01*
X152299621Y-69334169D01*
X152253689Y-69309618D01*
X152213426Y-69276574D01*
X152180382Y-69236311D01*
X152155831Y-69190379D01*
X152140710Y-69140530D01*
X152135000Y-69082556D01*
X152135000Y-68077444D01*
X152140710Y-68019470D01*
X152155831Y-67969621D01*
X152180382Y-67923689D01*
X152213426Y-67883426D01*
X152253689Y-67850382D01*
X152299621Y-67825831D01*
X152349470Y-67810710D01*
X152407444Y-67805000D01*
X153662556Y-67805000D01*
X153720530Y-67810710D01*
X153720530Y-67810710D01*
G37*
G36*
X157179962Y-66880161D02*
X157284757Y-66890482D01*
X157433971Y-66935746D01*
X157486456Y-66951667D01*
X157672337Y-67051022D01*
X157835265Y-67184735D01*
X157968978Y-67347663D01*
X158068333Y-67533544D01*
X158068334Y-67533548D01*
X158129518Y-67735243D01*
X158150177Y-67945000D01*
X158129518Y-68154757D01*
X158093678Y-68272904D01*
X158068333Y-68356456D01*
X157968978Y-68542337D01*
X157835265Y-68705265D01*
X157672337Y-68838978D01*
X157486456Y-68938333D01*
X157433971Y-68954254D01*
X157284757Y-68999518D01*
X157179962Y-69009839D01*
X157127565Y-69015000D01*
X156562435Y-69015000D01*
X156510038Y-69009839D01*
X156405243Y-68999518D01*
X156256029Y-68954254D01*
X156203544Y-68938333D01*
X156017663Y-68838978D01*
X155854735Y-68705265D01*
X155721022Y-68542337D01*
X155621667Y-68356456D01*
X155596322Y-68272904D01*
X155560482Y-68154757D01*
X155539823Y-67945000D01*
X155560482Y-67735243D01*
X155621666Y-67533548D01*
X155621667Y-67533544D01*
X155721022Y-67347663D01*
X155854735Y-67184735D01*
X156017663Y-67051022D01*
X156203544Y-66951667D01*
X156256029Y-66935746D01*
X156405243Y-66890482D01*
X156510038Y-66880161D01*
X156562435Y-66875000D01*
X157127565Y-66875000D01*
X157179962Y-66880161D01*
X157179962Y-66880161D01*
G37*
G36*
X140900000Y-60842500D02*
X139962551Y-60842500D01*
X139938165Y-60844902D01*
X139914716Y-60852015D01*
X139893105Y-60863566D01*
X139874163Y-60879112D01*
X139858617Y-60898054D01*
X139847066Y-60919665D01*
X139839953Y-60943114D01*
X139837551Y-60967500D01*
X139839953Y-60991886D01*
X139847066Y-61015335D01*
X139858617Y-61036946D01*
X139874163Y-61055888D01*
X139893105Y-61071434D01*
X139914716Y-61082985D01*
X139950298Y-61091898D01*
X139973429Y-61094176D01*
X140082052Y-61127126D01*
X140190677Y-61160077D01*
X140390895Y-61267096D01*
X140566384Y-61411116D01*
X140710404Y-61586605D01*
X140817423Y-61786823D01*
X140883324Y-62004072D01*
X140905576Y-62230000D01*
X140883324Y-62455928D01*
X140817423Y-62673177D01*
X140710404Y-62873395D01*
X140566384Y-63048884D01*
X140390895Y-63192904D01*
X140190677Y-63299923D01*
X140082053Y-63332873D01*
X139973429Y-63365824D01*
X139885451Y-63374489D01*
X139874151Y-63375602D01*
X139850117Y-63380383D01*
X139827478Y-63389760D01*
X139807104Y-63403374D01*
X139789777Y-63420701D01*
X139776163Y-63441076D01*
X139766785Y-63463715D01*
X139762005Y-63487748D01*
X139762005Y-63512252D01*
X139766786Y-63536286D01*
X139776163Y-63558925D01*
X139789777Y-63579299D01*
X139807104Y-63596626D01*
X139827479Y-63610240D01*
X139850118Y-63619618D01*
X139874151Y-63624398D01*
X139973429Y-63634176D01*
X140012483Y-63646023D01*
X140190677Y-63700077D01*
X140390895Y-63807096D01*
X140566384Y-63951116D01*
X140710404Y-64126605D01*
X140817423Y-64326823D01*
X140883324Y-64544072D01*
X140905576Y-64770000D01*
X140883324Y-64995928D01*
X140817423Y-65213177D01*
X140710404Y-65413395D01*
X140566384Y-65588884D01*
X140390895Y-65732904D01*
X140190677Y-65839923D01*
X140145286Y-65853692D01*
X139973429Y-65905824D01*
X139885451Y-65914489D01*
X139874151Y-65915602D01*
X139850117Y-65920383D01*
X139827478Y-65929760D01*
X139807104Y-65943374D01*
X139789777Y-65960701D01*
X139776163Y-65981076D01*
X139766785Y-66003715D01*
X139762005Y-66027748D01*
X139762005Y-66052252D01*
X139766786Y-66076286D01*
X139776163Y-66098925D01*
X139789777Y-66119299D01*
X139807104Y-66136626D01*
X139827479Y-66150240D01*
X139850118Y-66159618D01*
X139874151Y-66164398D01*
X139973429Y-66174176D01*
X140082052Y-66207126D01*
X140190677Y-66240077D01*
X140390895Y-66347096D01*
X140566384Y-66491116D01*
X140710404Y-66666605D01*
X140817423Y-66866823D01*
X140843160Y-66951667D01*
X140883324Y-67084071D01*
X140905576Y-67310000D01*
X140883559Y-67533548D01*
X140883324Y-67535928D01*
X140817423Y-67753177D01*
X140710404Y-67953395D01*
X140566384Y-68128884D01*
X140390895Y-68272904D01*
X140190677Y-68379923D01*
X140082053Y-68412873D01*
X139973429Y-68445824D01*
X139916991Y-68451383D01*
X139804116Y-68462500D01*
X139595884Y-68462500D01*
X139483009Y-68451383D01*
X139426571Y-68445824D01*
X139317947Y-68412873D01*
X139209323Y-68379923D01*
X139009105Y-68272904D01*
X138833616Y-68128884D01*
X138689596Y-67953395D01*
X138582577Y-67753177D01*
X138516676Y-67535928D01*
X138516442Y-67533548D01*
X138494424Y-67310000D01*
X138516676Y-67084071D01*
X138556840Y-66951667D01*
X138582577Y-66866823D01*
X138689596Y-66666605D01*
X138833616Y-66491116D01*
X139009105Y-66347096D01*
X139209323Y-66240077D01*
X139317948Y-66207126D01*
X139426571Y-66174176D01*
X139525849Y-66164398D01*
X139549883Y-66159617D01*
X139572522Y-66150240D01*
X139592896Y-66136626D01*
X139610223Y-66119299D01*
X139623837Y-66098924D01*
X139633215Y-66076285D01*
X139637995Y-66052252D01*
X139637995Y-66027748D01*
X139633214Y-66003714D01*
X139623837Y-65981075D01*
X139610223Y-65960701D01*
X139592896Y-65943374D01*
X139572521Y-65929760D01*
X139549882Y-65920382D01*
X139525849Y-65915602D01*
X139514549Y-65914489D01*
X139426571Y-65905824D01*
X139254714Y-65853692D01*
X139209323Y-65839923D01*
X139009105Y-65732904D01*
X138833616Y-65588884D01*
X138689596Y-65413395D01*
X138582577Y-65213177D01*
X138516676Y-64995928D01*
X138494424Y-64770000D01*
X138516676Y-64544072D01*
X138582577Y-64326823D01*
X138689596Y-64126605D01*
X138833616Y-63951116D01*
X139009105Y-63807096D01*
X139209323Y-63700077D01*
X139387517Y-63646023D01*
X139426571Y-63634176D01*
X139525849Y-63624398D01*
X139549883Y-63619617D01*
X139572522Y-63610240D01*
X139592896Y-63596626D01*
X139610223Y-63579299D01*
X139623837Y-63558924D01*
X139633215Y-63536285D01*
X139637995Y-63512252D01*
X139637995Y-63487748D01*
X139633214Y-63463714D01*
X139623837Y-63441075D01*
X139610223Y-63420701D01*
X139592896Y-63403374D01*
X139572521Y-63389760D01*
X139549882Y-63380382D01*
X139525849Y-63375602D01*
X139514549Y-63374489D01*
X139426571Y-63365824D01*
X139317947Y-63332873D01*
X139209323Y-63299923D01*
X139009105Y-63192904D01*
X138833616Y-63048884D01*
X138689596Y-62873395D01*
X138582577Y-62673177D01*
X138516676Y-62455928D01*
X138494424Y-62230000D01*
X138516676Y-62004072D01*
X138582577Y-61786823D01*
X138689596Y-61586605D01*
X138833616Y-61411116D01*
X139009105Y-61267096D01*
X139209323Y-61160077D01*
X139317948Y-61127126D01*
X139426571Y-61094176D01*
X139449702Y-61091898D01*
X139473735Y-61087117D01*
X139496374Y-61077740D01*
X139516748Y-61064126D01*
X139534075Y-61046799D01*
X139547689Y-61026424D01*
X139557067Y-61003785D01*
X139561847Y-60979752D01*
X139561847Y-60955248D01*
X139557066Y-60931214D01*
X139547689Y-60908575D01*
X139534075Y-60888201D01*
X139516748Y-60870874D01*
X139496373Y-60857260D01*
X139473734Y-60847882D01*
X139437449Y-60842500D01*
X138500000Y-60842500D01*
X138500000Y-58537500D01*
X140900000Y-58537500D01*
X140900000Y-60842500D01*
X140900000Y-60842500D01*
G37*
G36*
X144830530Y-65905710D02*
X144880379Y-65920831D01*
X144926311Y-65945382D01*
X144966574Y-65978426D01*
X144999618Y-66018689D01*
X145024169Y-66064621D01*
X145039290Y-66114470D01*
X145045000Y-66172444D01*
X145045000Y-67177556D01*
X145039290Y-67235530D01*
X145024169Y-67285379D01*
X144999618Y-67331311D01*
X144966574Y-67371574D01*
X144926311Y-67404618D01*
X144880379Y-67429169D01*
X144830530Y-67444290D01*
X144772556Y-67450000D01*
X143517444Y-67450000D01*
X143459470Y-67444290D01*
X143409621Y-67429169D01*
X143363689Y-67404618D01*
X143323426Y-67371574D01*
X143290382Y-67331311D01*
X143265831Y-67285379D01*
X143250710Y-67235530D01*
X143245000Y-67177556D01*
X143245000Y-66172444D01*
X143250710Y-66114470D01*
X143265831Y-66064621D01*
X143290382Y-66018689D01*
X143323426Y-65978426D01*
X143363689Y-65945382D01*
X143409621Y-65920831D01*
X143459470Y-65905710D01*
X143517444Y-65900000D01*
X144772556Y-65900000D01*
X144830530Y-65905710D01*
X144830530Y-65905710D01*
G37*
G36*
X153720530Y-65760710D02*
X153770379Y-65775831D01*
X153816311Y-65800382D01*
X153856574Y-65833426D01*
X153889618Y-65873689D01*
X153914169Y-65919621D01*
X153929290Y-65969470D01*
X153935000Y-66027444D01*
X153935000Y-67032556D01*
X153929290Y-67090530D01*
X153914169Y-67140379D01*
X153889618Y-67186311D01*
X153856574Y-67226574D01*
X153816311Y-67259618D01*
X153770379Y-67284169D01*
X153720530Y-67299290D01*
X153662556Y-67305000D01*
X152407444Y-67305000D01*
X152349470Y-67299290D01*
X152299621Y-67284169D01*
X152253689Y-67259618D01*
X152213426Y-67226574D01*
X152180382Y-67186311D01*
X152155831Y-67140379D01*
X152140710Y-67090530D01*
X152135000Y-67032556D01*
X152135000Y-66027444D01*
X152140710Y-65969470D01*
X152155831Y-65919621D01*
X152180382Y-65873689D01*
X152213426Y-65833426D01*
X152253689Y-65800382D01*
X152299621Y-65775831D01*
X152349470Y-65760710D01*
X152407444Y-65755000D01*
X153662556Y-65755000D01*
X153720530Y-65760710D01*
X153720530Y-65760710D01*
G37*
G36*
X125939756Y-63485482D02*
X126088970Y-63530746D01*
X126141455Y-63546667D01*
X126327336Y-63646022D01*
X126490265Y-63779735D01*
X126623978Y-63942663D01*
X126723333Y-64128544D01*
X126727249Y-64141453D01*
X126784518Y-64330243D01*
X126800000Y-64487436D01*
X126800000Y-65052563D01*
X126784518Y-65209756D01*
X126783480Y-65213177D01*
X126723333Y-65411455D01*
X126623978Y-65597337D01*
X126490265Y-65760265D01*
X126327337Y-65893978D01*
X126141456Y-65993333D01*
X126107234Y-66003714D01*
X125939757Y-66054518D01*
X125730000Y-66075177D01*
X125520244Y-66054518D01*
X125352767Y-66003714D01*
X125318545Y-65993333D01*
X125132664Y-65893978D01*
X124969736Y-65760265D01*
X124836024Y-65597338D01*
X124736666Y-65411453D01*
X124687765Y-65250247D01*
X124675482Y-65209757D01*
X124660000Y-65052564D01*
X124660000Y-64487437D01*
X124675482Y-64330244D01*
X124732751Y-64141455D01*
X124736667Y-64128545D01*
X124836022Y-63942664D01*
X124969735Y-63779735D01*
X125132663Y-63646022D01*
X125318544Y-63546667D01*
X125371029Y-63530746D01*
X125520243Y-63485482D01*
X125730000Y-63464823D01*
X125939756Y-63485482D01*
X125939756Y-63485482D01*
G37*
G36*
X132289756Y-63485482D02*
X132438970Y-63530746D01*
X132491455Y-63546667D01*
X132677336Y-63646022D01*
X132840265Y-63779735D01*
X132973978Y-63942663D01*
X133073333Y-64128544D01*
X133077249Y-64141453D01*
X133134518Y-64330243D01*
X133150000Y-64487436D01*
X133150000Y-65052563D01*
X133134518Y-65209756D01*
X133133480Y-65213177D01*
X133073333Y-65411455D01*
X132973978Y-65597337D01*
X132840265Y-65760265D01*
X132677337Y-65893978D01*
X132491456Y-65993333D01*
X132457234Y-66003714D01*
X132289757Y-66054518D01*
X132080000Y-66075177D01*
X131870244Y-66054518D01*
X131702767Y-66003714D01*
X131668545Y-65993333D01*
X131482664Y-65893978D01*
X131319736Y-65760265D01*
X131186024Y-65597338D01*
X131086666Y-65411453D01*
X131037765Y-65250247D01*
X131025482Y-65209757D01*
X131010000Y-65052564D01*
X131010000Y-64487437D01*
X131025482Y-64330244D01*
X131082751Y-64141455D01*
X131086667Y-64128545D01*
X131186022Y-63942664D01*
X131319735Y-63779735D01*
X131482663Y-63646022D01*
X131668544Y-63546667D01*
X131721029Y-63530746D01*
X131870243Y-63485482D01*
X132080000Y-63464823D01*
X132289756Y-63485482D01*
X132289756Y-63485482D01*
G37*
G36*
X124260000Y-66070000D02*
X122120000Y-66070000D01*
X122120000Y-63470000D01*
X124260000Y-63470000D01*
X124260000Y-66070000D01*
X124260000Y-66070000D01*
G37*
G36*
X130610000Y-66070000D02*
X128470000Y-66070000D01*
X128470000Y-63470000D01*
X130610000Y-63470000D01*
X130610000Y-66070000D01*
X130610000Y-66070000D01*
G37*
G36*
X144830530Y-63855710D02*
X144880379Y-63870831D01*
X144926311Y-63895382D01*
X144966574Y-63928426D01*
X144999618Y-63968689D01*
X145024169Y-64014621D01*
X145039290Y-64064470D01*
X145045000Y-64122444D01*
X145045000Y-65127556D01*
X145039290Y-65185530D01*
X145024169Y-65235379D01*
X144999618Y-65281311D01*
X144966574Y-65321574D01*
X144926311Y-65354618D01*
X144880379Y-65379169D01*
X144830530Y-65394290D01*
X144772556Y-65400000D01*
X143517444Y-65400000D01*
X143459470Y-65394290D01*
X143409621Y-65379169D01*
X143363689Y-65354618D01*
X143323426Y-65321574D01*
X143290382Y-65281311D01*
X143265831Y-65235379D01*
X143250710Y-65185530D01*
X143245000Y-65127556D01*
X143245000Y-64122444D01*
X143250710Y-64064470D01*
X143265831Y-64014621D01*
X143290382Y-63968689D01*
X143323426Y-63928426D01*
X143363689Y-63895382D01*
X143409621Y-63870831D01*
X143459470Y-63855710D01*
X143517444Y-63850000D01*
X144772556Y-63850000D01*
X144830530Y-63855710D01*
X144830530Y-63855710D01*
G37*
G36*
X150069756Y-62215482D02*
X150218970Y-62260746D01*
X150271455Y-62276667D01*
X150457336Y-62376022D01*
X150620265Y-62509735D01*
X150753978Y-62672663D01*
X150853333Y-62858544D01*
X150857837Y-62873393D01*
X150914518Y-63060243D01*
X150930000Y-63217436D01*
X150930000Y-63782563D01*
X150914518Y-63939756D01*
X150878646Y-64058009D01*
X150853333Y-64141455D01*
X150753978Y-64327337D01*
X150620265Y-64490265D01*
X150457337Y-64623978D01*
X150271456Y-64723333D01*
X150218971Y-64739254D01*
X150069757Y-64784518D01*
X149860000Y-64805177D01*
X149650244Y-64784518D01*
X149501030Y-64739254D01*
X149448545Y-64723333D01*
X149262664Y-64623978D01*
X149099736Y-64490265D01*
X148966024Y-64327338D01*
X148866666Y-64141453D01*
X148823682Y-63999753D01*
X148805482Y-63939757D01*
X148790000Y-63782564D01*
X148790000Y-63217437D01*
X148805482Y-63060244D01*
X148866666Y-62858549D01*
X148866667Y-62858545D01*
X148966022Y-62672664D01*
X149099735Y-62509735D01*
X149262663Y-62376022D01*
X149448544Y-62276667D01*
X149501029Y-62260746D01*
X149650243Y-62215482D01*
X149860000Y-62194823D01*
X150069756Y-62215482D01*
X150069756Y-62215482D01*
G37*
G36*
X148390000Y-64800000D02*
X146250000Y-64800000D01*
X146250000Y-62200000D01*
X148390000Y-62200000D01*
X148390000Y-64800000D01*
X148390000Y-64800000D01*
G37*
G36*
X128276716Y-56939544D02*
X128677090Y-57105384D01*
X129037421Y-57346150D01*
X129343850Y-57652579D01*
X129584616Y-58012910D01*
X129750456Y-58413284D01*
X129835000Y-58838317D01*
X129835000Y-59271683D01*
X129750456Y-59696716D01*
X129584616Y-60097090D01*
X129343850Y-60457421D01*
X129037421Y-60763850D01*
X128677090Y-61004616D01*
X128276716Y-61170456D01*
X127851683Y-61255000D01*
X127418317Y-61255000D01*
X126993284Y-61170456D01*
X126592910Y-61004616D01*
X126232579Y-60763850D01*
X125926150Y-60457421D01*
X125685384Y-60097090D01*
X125519544Y-59696716D01*
X125435000Y-59271683D01*
X125435000Y-58838317D01*
X125519544Y-58413284D01*
X125685384Y-58012910D01*
X125926150Y-57652579D01*
X126232579Y-57346150D01*
X126592910Y-57105384D01*
X126993284Y-56939544D01*
X127418317Y-56855000D01*
X127851683Y-56855000D01*
X128276716Y-56939544D01*
X128276716Y-56939544D01*
G37*
G36*
X125939756Y-52055482D02*
X126088970Y-52100746D01*
X126141455Y-52116667D01*
X126327336Y-52216022D01*
X126490265Y-52349735D01*
X126623978Y-52512663D01*
X126723333Y-52698544D01*
X126727178Y-52711219D01*
X126784518Y-52900243D01*
X126800000Y-53057436D01*
X126800000Y-53622563D01*
X126784518Y-53779756D01*
X126747119Y-53903044D01*
X126723333Y-53981455D01*
X126623978Y-54167337D01*
X126490265Y-54330265D01*
X126327337Y-54463978D01*
X126141456Y-54563333D01*
X126088971Y-54579254D01*
X125939757Y-54624518D01*
X125730000Y-54645177D01*
X125520244Y-54624518D01*
X125371030Y-54579254D01*
X125318545Y-54563333D01*
X125132664Y-54463978D01*
X124969736Y-54330265D01*
X124836024Y-54167338D01*
X124736666Y-53981453D01*
X124712881Y-53903044D01*
X124675482Y-53779757D01*
X124660000Y-53622564D01*
X124660000Y-53057437D01*
X124675482Y-52900244D01*
X124732451Y-52712444D01*
X124736667Y-52698545D01*
X124836022Y-52512664D01*
X124969735Y-52349735D01*
X125132663Y-52216022D01*
X125318544Y-52116667D01*
X125371029Y-52100746D01*
X125520243Y-52055482D01*
X125730000Y-52034823D01*
X125939756Y-52055482D01*
X125939756Y-52055482D01*
G37*
G36*
X159594756Y-52055482D02*
X159743970Y-52100746D01*
X159796455Y-52116667D01*
X159982336Y-52216022D01*
X160145265Y-52349735D01*
X160278978Y-52512663D01*
X160378333Y-52698544D01*
X160382178Y-52711219D01*
X160439518Y-52900243D01*
X160455000Y-53057436D01*
X160455000Y-53622563D01*
X160439518Y-53779756D01*
X160402119Y-53903044D01*
X160378333Y-53981455D01*
X160278978Y-54167337D01*
X160145265Y-54330265D01*
X159982337Y-54463978D01*
X159796456Y-54563333D01*
X159743971Y-54579254D01*
X159594757Y-54624518D01*
X159385000Y-54645177D01*
X159175244Y-54624518D01*
X159026030Y-54579254D01*
X158973545Y-54563333D01*
X158787664Y-54463978D01*
X158624736Y-54330265D01*
X158491024Y-54167338D01*
X158391666Y-53981453D01*
X158367881Y-53903044D01*
X158330482Y-53779757D01*
X158315000Y-53622564D01*
X158315000Y-53057437D01*
X158330482Y-52900244D01*
X158387451Y-52712444D01*
X158391667Y-52698545D01*
X158491022Y-52512664D01*
X158624735Y-52349735D01*
X158787663Y-52216022D01*
X158973544Y-52116667D01*
X159026029Y-52100746D01*
X159175243Y-52055482D01*
X159385000Y-52034823D01*
X159594756Y-52055482D01*
X159594756Y-52055482D01*
G37*
G36*
X132289756Y-52055482D02*
X132438970Y-52100746D01*
X132491455Y-52116667D01*
X132677336Y-52216022D01*
X132840265Y-52349735D01*
X132973978Y-52512663D01*
X133073333Y-52698544D01*
X133077178Y-52711219D01*
X133134518Y-52900243D01*
X133150000Y-53057436D01*
X133150000Y-53622563D01*
X133134518Y-53779756D01*
X133097119Y-53903044D01*
X133073333Y-53981455D01*
X132973978Y-54167337D01*
X132840265Y-54330265D01*
X132677337Y-54463978D01*
X132491456Y-54563333D01*
X132438971Y-54579254D01*
X132289757Y-54624518D01*
X132080000Y-54645177D01*
X131870244Y-54624518D01*
X131721030Y-54579254D01*
X131668545Y-54563333D01*
X131482664Y-54463978D01*
X131319736Y-54330265D01*
X131186024Y-54167338D01*
X131086666Y-53981453D01*
X131062881Y-53903044D01*
X131025482Y-53779757D01*
X131010000Y-53622564D01*
X131010000Y-53057437D01*
X131025482Y-52900244D01*
X131082451Y-52712444D01*
X131086667Y-52698545D01*
X131186022Y-52512664D01*
X131319735Y-52349735D01*
X131482663Y-52216022D01*
X131668544Y-52116667D01*
X131721029Y-52100746D01*
X131870243Y-52055482D01*
X132080000Y-52034823D01*
X132289756Y-52055482D01*
X132289756Y-52055482D01*
G37*
G36*
X124260000Y-54640000D02*
X122120000Y-54640000D01*
X122120000Y-52040000D01*
X124260000Y-52040000D01*
X124260000Y-54640000D01*
X124260000Y-54640000D01*
G37*
G36*
X157915000Y-54640000D02*
X155775000Y-54640000D01*
X155775000Y-52040000D01*
X157915000Y-52040000D01*
X157915000Y-54640000D01*
X157915000Y-54640000D01*
G37*
G36*
X130610000Y-54640000D02*
X128470000Y-54640000D01*
X128470000Y-52040000D01*
X130610000Y-52040000D01*
X130610000Y-54640000D01*
X130610000Y-54640000D01*
G37*
G36*
X145358530Y-52445710D02*
X145408379Y-52460831D01*
X145454311Y-52485382D01*
X145494574Y-52518426D01*
X145527618Y-52558689D01*
X145552169Y-52604621D01*
X145567290Y-52654470D01*
X145573000Y-52712444D01*
X145573000Y-53967556D01*
X145567290Y-54025530D01*
X145552169Y-54075379D01*
X145527618Y-54121311D01*
X145494574Y-54161574D01*
X145454311Y-54194618D01*
X145408379Y-54219169D01*
X145358530Y-54234290D01*
X145300556Y-54240000D01*
X144295444Y-54240000D01*
X144237470Y-54234290D01*
X144187621Y-54219169D01*
X144141689Y-54194618D01*
X144101426Y-54161574D01*
X144068382Y-54121311D01*
X144043831Y-54075379D01*
X144028710Y-54025530D01*
X144023000Y-53967556D01*
X144023000Y-52712444D01*
X144028710Y-52654470D01*
X144043831Y-52604621D01*
X144068382Y-52558689D01*
X144101426Y-52518426D01*
X144141689Y-52485382D01*
X144187621Y-52460831D01*
X144237470Y-52445710D01*
X144295444Y-52440000D01*
X145300556Y-52440000D01*
X145358530Y-52445710D01*
X145358530Y-52445710D01*
G37*
G36*
X143308530Y-52445710D02*
X143358379Y-52460831D01*
X143404311Y-52485382D01*
X143444574Y-52518426D01*
X143477618Y-52558689D01*
X143502169Y-52604621D01*
X143517290Y-52654470D01*
X143523000Y-52712444D01*
X143523000Y-53967556D01*
X143517290Y-54025530D01*
X143502169Y-54075379D01*
X143477618Y-54121311D01*
X143444574Y-54161574D01*
X143404311Y-54194618D01*
X143358379Y-54219169D01*
X143308530Y-54234290D01*
X143250556Y-54240000D01*
X142245444Y-54240000D01*
X142187470Y-54234290D01*
X142137621Y-54219169D01*
X142091689Y-54194618D01*
X142051426Y-54161574D01*
X142018382Y-54121311D01*
X141993831Y-54075379D01*
X141978710Y-54025530D01*
X141973000Y-53967556D01*
X141973000Y-52712444D01*
X141978710Y-52654470D01*
X141993831Y-52604621D01*
X142018382Y-52558689D01*
X142051426Y-52518426D01*
X142091689Y-52485382D01*
X142137621Y-52460831D01*
X142187470Y-52445710D01*
X142245444Y-52440000D01*
X143250556Y-52440000D01*
X143308530Y-52445710D01*
X143308530Y-52445710D01*
G37*
G36*
X151771716Y-48684544D02*
X152172090Y-48850384D01*
X152532421Y-49091150D01*
X152838850Y-49397579D01*
X153079616Y-49757910D01*
X153245456Y-50158284D01*
X153330000Y-50583317D01*
X153330000Y-51016683D01*
X153245456Y-51441716D01*
X153079616Y-51842090D01*
X152838850Y-52202421D01*
X152532421Y-52508850D01*
X152172090Y-52749616D01*
X151771716Y-52915456D01*
X151346683Y-53000000D01*
X150913317Y-53000000D01*
X150488284Y-52915456D01*
X150087910Y-52749616D01*
X149727579Y-52508850D01*
X149421150Y-52202421D01*
X149180384Y-51842090D01*
X149014544Y-51441716D01*
X148930000Y-51016683D01*
X148930000Y-50583317D01*
X149014544Y-50158284D01*
X149180384Y-49757910D01*
X149421150Y-49397579D01*
X149727579Y-49091150D01*
X150087910Y-48850384D01*
X150488284Y-48684544D01*
X150913317Y-48600000D01*
X151346683Y-48600000D01*
X151771716Y-48684544D01*
X151771716Y-48684544D01*
G37*
M02*
