G04 #@! TF.GenerationSoftware,KiCad,Pcbnew,5.0.1*
G04 #@! TF.CreationDate,2019-02-04T13:48:04-06:00*
G04 #@! TF.ProjectId,PowerRDP,506F7765725244502E6B696361645F70,2*
G04 #@! TF.SameCoordinates,Original*
G04 #@! TF.FileFunction,Copper,L1,Top,Signal*
G04 #@! TF.FilePolarity,Positive*
%FSLAX46Y46*%
G04 Gerber Fmt 4.6, Leading zero omitted, Abs format (unit mm)*
G04 Created by KiCad (PCBNEW 5.0.1) date Mon 04 Feb 2019 01:48:04 PM CST*
%MOMM*%
%LPD*%
G01*
G04 APERTURE LIST*
G04 #@! TA.AperFunction,Conductor*
%ADD10C,0.100000*%
G04 #@! TD*
G04 #@! TA.AperFunction,SMDPad,CuDef*
%ADD11C,1.150000*%
G04 #@! TD*
G04 #@! TA.AperFunction,ComponentPad*
%ADD12C,1.740000*%
G04 #@! TD*
G04 #@! TA.AperFunction,ComponentPad*
%ADD13O,1.740000X2.200000*%
G04 #@! TD*
G04 #@! TA.AperFunction,SMDPad,CuDef*
%ADD14R,1.300000X1.600000*%
G04 #@! TD*
G04 #@! TA.AperFunction,SMDPad,CuDef*
%ADD15R,2.000000X1.600000*%
G04 #@! TD*
G04 #@! TA.AperFunction,ComponentPad*
%ADD16C,1.700000*%
G04 #@! TD*
G04 #@! TA.AperFunction,SMDPad,CuDef*
%ADD17R,10.800000X9.400000*%
G04 #@! TD*
G04 #@! TA.AperFunction,SMDPad,CuDef*
%ADD18R,1.100000X4.600000*%
G04 #@! TD*
G04 #@! TA.AperFunction,WasherPad*
%ADD19C,4.000000*%
G04 #@! TD*
G04 #@! TA.AperFunction,ViaPad*
%ADD20C,0.800000*%
G04 #@! TD*
G04 #@! TA.AperFunction,Conductor*
%ADD21C,0.250000*%
G04 #@! TD*
G04 #@! TA.AperFunction,Conductor*
%ADD22C,0.254000*%
G04 #@! TD*
G04 APERTURE END LIST*
D10*
G04 #@! TO.N,/POWR*
G04 #@! TO.C,C3*
G36*
X115790505Y-62418204D02*
X115814773Y-62421804D01*
X115838572Y-62427765D01*
X115861671Y-62436030D01*
X115883850Y-62446520D01*
X115904893Y-62459132D01*
X115924599Y-62473747D01*
X115942777Y-62490223D01*
X115959253Y-62508401D01*
X115973868Y-62528107D01*
X115986480Y-62549150D01*
X115996970Y-62571329D01*
X116005235Y-62594428D01*
X116011196Y-62618227D01*
X116014796Y-62642495D01*
X116016000Y-62666999D01*
X116016000Y-63317001D01*
X116014796Y-63341505D01*
X116011196Y-63365773D01*
X116005235Y-63389572D01*
X115996970Y-63412671D01*
X115986480Y-63434850D01*
X115973868Y-63455893D01*
X115959253Y-63475599D01*
X115942777Y-63493777D01*
X115924599Y-63510253D01*
X115904893Y-63524868D01*
X115883850Y-63537480D01*
X115861671Y-63547970D01*
X115838572Y-63556235D01*
X115814773Y-63562196D01*
X115790505Y-63565796D01*
X115766001Y-63567000D01*
X114865999Y-63567000D01*
X114841495Y-63565796D01*
X114817227Y-63562196D01*
X114793428Y-63556235D01*
X114770329Y-63547970D01*
X114748150Y-63537480D01*
X114727107Y-63524868D01*
X114707401Y-63510253D01*
X114689223Y-63493777D01*
X114672747Y-63475599D01*
X114658132Y-63455893D01*
X114645520Y-63434850D01*
X114635030Y-63412671D01*
X114626765Y-63389572D01*
X114620804Y-63365773D01*
X114617204Y-63341505D01*
X114616000Y-63317001D01*
X114616000Y-62666999D01*
X114617204Y-62642495D01*
X114620804Y-62618227D01*
X114626765Y-62594428D01*
X114635030Y-62571329D01*
X114645520Y-62549150D01*
X114658132Y-62528107D01*
X114672747Y-62508401D01*
X114689223Y-62490223D01*
X114707401Y-62473747D01*
X114727107Y-62459132D01*
X114748150Y-62446520D01*
X114770329Y-62436030D01*
X114793428Y-62427765D01*
X114817227Y-62421804D01*
X114841495Y-62418204D01*
X114865999Y-62417000D01*
X115766001Y-62417000D01*
X115790505Y-62418204D01*
X115790505Y-62418204D01*
G37*
D11*
G04 #@! TD*
G04 #@! TO.P,C3,2*
G04 #@! TO.N,/POWR*
X115316000Y-62992000D03*
D10*
G04 #@! TO.N,GND*
G04 #@! TO.C,C3*
G36*
X115790505Y-60368204D02*
X115814773Y-60371804D01*
X115838572Y-60377765D01*
X115861671Y-60386030D01*
X115883850Y-60396520D01*
X115904893Y-60409132D01*
X115924599Y-60423747D01*
X115942777Y-60440223D01*
X115959253Y-60458401D01*
X115973868Y-60478107D01*
X115986480Y-60499150D01*
X115996970Y-60521329D01*
X116005235Y-60544428D01*
X116011196Y-60568227D01*
X116014796Y-60592495D01*
X116016000Y-60616999D01*
X116016000Y-61267001D01*
X116014796Y-61291505D01*
X116011196Y-61315773D01*
X116005235Y-61339572D01*
X115996970Y-61362671D01*
X115986480Y-61384850D01*
X115973868Y-61405893D01*
X115959253Y-61425599D01*
X115942777Y-61443777D01*
X115924599Y-61460253D01*
X115904893Y-61474868D01*
X115883850Y-61487480D01*
X115861671Y-61497970D01*
X115838572Y-61506235D01*
X115814773Y-61512196D01*
X115790505Y-61515796D01*
X115766001Y-61517000D01*
X114865999Y-61517000D01*
X114841495Y-61515796D01*
X114817227Y-61512196D01*
X114793428Y-61506235D01*
X114770329Y-61497970D01*
X114748150Y-61487480D01*
X114727107Y-61474868D01*
X114707401Y-61460253D01*
X114689223Y-61443777D01*
X114672747Y-61425599D01*
X114658132Y-61405893D01*
X114645520Y-61384850D01*
X114635030Y-61362671D01*
X114626765Y-61339572D01*
X114620804Y-61315773D01*
X114617204Y-61291505D01*
X114616000Y-61267001D01*
X114616000Y-60616999D01*
X114617204Y-60592495D01*
X114620804Y-60568227D01*
X114626765Y-60544428D01*
X114635030Y-60521329D01*
X114645520Y-60499150D01*
X114658132Y-60478107D01*
X114672747Y-60458401D01*
X114689223Y-60440223D01*
X114707401Y-60423747D01*
X114727107Y-60409132D01*
X114748150Y-60396520D01*
X114770329Y-60386030D01*
X114793428Y-60377765D01*
X114817227Y-60371804D01*
X114841495Y-60368204D01*
X114865999Y-60367000D01*
X115766001Y-60367000D01*
X115790505Y-60368204D01*
X115790505Y-60368204D01*
G37*
D11*
G04 #@! TD*
G04 #@! TO.P,C3,1*
G04 #@! TO.N,GND*
X115316000Y-60942000D03*
D10*
G04 #@! TO.N,/POWR*
G04 #@! TO.C,C4*
G36*
X128998505Y-62436204D02*
X129022773Y-62439804D01*
X129046572Y-62445765D01*
X129069671Y-62454030D01*
X129091850Y-62464520D01*
X129112893Y-62477132D01*
X129132599Y-62491747D01*
X129150777Y-62508223D01*
X129167253Y-62526401D01*
X129181868Y-62546107D01*
X129194480Y-62567150D01*
X129204970Y-62589329D01*
X129213235Y-62612428D01*
X129219196Y-62636227D01*
X129222796Y-62660495D01*
X129224000Y-62684999D01*
X129224000Y-63335001D01*
X129222796Y-63359505D01*
X129219196Y-63383773D01*
X129213235Y-63407572D01*
X129204970Y-63430671D01*
X129194480Y-63452850D01*
X129181868Y-63473893D01*
X129167253Y-63493599D01*
X129150777Y-63511777D01*
X129132599Y-63528253D01*
X129112893Y-63542868D01*
X129091850Y-63555480D01*
X129069671Y-63565970D01*
X129046572Y-63574235D01*
X129022773Y-63580196D01*
X128998505Y-63583796D01*
X128974001Y-63585000D01*
X128073999Y-63585000D01*
X128049495Y-63583796D01*
X128025227Y-63580196D01*
X128001428Y-63574235D01*
X127978329Y-63565970D01*
X127956150Y-63555480D01*
X127935107Y-63542868D01*
X127915401Y-63528253D01*
X127897223Y-63511777D01*
X127880747Y-63493599D01*
X127866132Y-63473893D01*
X127853520Y-63452850D01*
X127843030Y-63430671D01*
X127834765Y-63407572D01*
X127828804Y-63383773D01*
X127825204Y-63359505D01*
X127824000Y-63335001D01*
X127824000Y-62684999D01*
X127825204Y-62660495D01*
X127828804Y-62636227D01*
X127834765Y-62612428D01*
X127843030Y-62589329D01*
X127853520Y-62567150D01*
X127866132Y-62546107D01*
X127880747Y-62526401D01*
X127897223Y-62508223D01*
X127915401Y-62491747D01*
X127935107Y-62477132D01*
X127956150Y-62464520D01*
X127978329Y-62454030D01*
X128001428Y-62445765D01*
X128025227Y-62439804D01*
X128049495Y-62436204D01*
X128073999Y-62435000D01*
X128974001Y-62435000D01*
X128998505Y-62436204D01*
X128998505Y-62436204D01*
G37*
D11*
G04 #@! TD*
G04 #@! TO.P,C4,2*
G04 #@! TO.N,/POWR*
X128524000Y-63010000D03*
D10*
G04 #@! TO.N,GND*
G04 #@! TO.C,C4*
G36*
X128998505Y-60386204D02*
X129022773Y-60389804D01*
X129046572Y-60395765D01*
X129069671Y-60404030D01*
X129091850Y-60414520D01*
X129112893Y-60427132D01*
X129132599Y-60441747D01*
X129150777Y-60458223D01*
X129167253Y-60476401D01*
X129181868Y-60496107D01*
X129194480Y-60517150D01*
X129204970Y-60539329D01*
X129213235Y-60562428D01*
X129219196Y-60586227D01*
X129222796Y-60610495D01*
X129224000Y-60634999D01*
X129224000Y-61285001D01*
X129222796Y-61309505D01*
X129219196Y-61333773D01*
X129213235Y-61357572D01*
X129204970Y-61380671D01*
X129194480Y-61402850D01*
X129181868Y-61423893D01*
X129167253Y-61443599D01*
X129150777Y-61461777D01*
X129132599Y-61478253D01*
X129112893Y-61492868D01*
X129091850Y-61505480D01*
X129069671Y-61515970D01*
X129046572Y-61524235D01*
X129022773Y-61530196D01*
X128998505Y-61533796D01*
X128974001Y-61535000D01*
X128073999Y-61535000D01*
X128049495Y-61533796D01*
X128025227Y-61530196D01*
X128001428Y-61524235D01*
X127978329Y-61515970D01*
X127956150Y-61505480D01*
X127935107Y-61492868D01*
X127915401Y-61478253D01*
X127897223Y-61461777D01*
X127880747Y-61443599D01*
X127866132Y-61423893D01*
X127853520Y-61402850D01*
X127843030Y-61380671D01*
X127834765Y-61357572D01*
X127828804Y-61333773D01*
X127825204Y-61309505D01*
X127824000Y-61285001D01*
X127824000Y-60634999D01*
X127825204Y-60610495D01*
X127828804Y-60586227D01*
X127834765Y-60562428D01*
X127843030Y-60539329D01*
X127853520Y-60517150D01*
X127866132Y-60496107D01*
X127880747Y-60476401D01*
X127897223Y-60458223D01*
X127915401Y-60441747D01*
X127935107Y-60427132D01*
X127956150Y-60414520D01*
X127978329Y-60404030D01*
X128001428Y-60395765D01*
X128025227Y-60389804D01*
X128049495Y-60386204D01*
X128073999Y-60385000D01*
X128974001Y-60385000D01*
X128998505Y-60386204D01*
X128998505Y-60386204D01*
G37*
D11*
G04 #@! TD*
G04 #@! TO.P,C4,1*
G04 #@! TO.N,GND*
X128524000Y-60960000D03*
D10*
G04 #@! TO.N,GND*
G04 #@! TO.C,C5*
G36*
X141190505Y-60386204D02*
X141214773Y-60389804D01*
X141238572Y-60395765D01*
X141261671Y-60404030D01*
X141283850Y-60414520D01*
X141304893Y-60427132D01*
X141324599Y-60441747D01*
X141342777Y-60458223D01*
X141359253Y-60476401D01*
X141373868Y-60496107D01*
X141386480Y-60517150D01*
X141396970Y-60539329D01*
X141405235Y-60562428D01*
X141411196Y-60586227D01*
X141414796Y-60610495D01*
X141416000Y-60634999D01*
X141416000Y-61285001D01*
X141414796Y-61309505D01*
X141411196Y-61333773D01*
X141405235Y-61357572D01*
X141396970Y-61380671D01*
X141386480Y-61402850D01*
X141373868Y-61423893D01*
X141359253Y-61443599D01*
X141342777Y-61461777D01*
X141324599Y-61478253D01*
X141304893Y-61492868D01*
X141283850Y-61505480D01*
X141261671Y-61515970D01*
X141238572Y-61524235D01*
X141214773Y-61530196D01*
X141190505Y-61533796D01*
X141166001Y-61535000D01*
X140265999Y-61535000D01*
X140241495Y-61533796D01*
X140217227Y-61530196D01*
X140193428Y-61524235D01*
X140170329Y-61515970D01*
X140148150Y-61505480D01*
X140127107Y-61492868D01*
X140107401Y-61478253D01*
X140089223Y-61461777D01*
X140072747Y-61443599D01*
X140058132Y-61423893D01*
X140045520Y-61402850D01*
X140035030Y-61380671D01*
X140026765Y-61357572D01*
X140020804Y-61333773D01*
X140017204Y-61309505D01*
X140016000Y-61285001D01*
X140016000Y-60634999D01*
X140017204Y-60610495D01*
X140020804Y-60586227D01*
X140026765Y-60562428D01*
X140035030Y-60539329D01*
X140045520Y-60517150D01*
X140058132Y-60496107D01*
X140072747Y-60476401D01*
X140089223Y-60458223D01*
X140107401Y-60441747D01*
X140127107Y-60427132D01*
X140148150Y-60414520D01*
X140170329Y-60404030D01*
X140193428Y-60395765D01*
X140217227Y-60389804D01*
X140241495Y-60386204D01*
X140265999Y-60385000D01*
X141166001Y-60385000D01*
X141190505Y-60386204D01*
X141190505Y-60386204D01*
G37*
D11*
G04 #@! TD*
G04 #@! TO.P,C5,1*
G04 #@! TO.N,GND*
X140716000Y-60960000D03*
D10*
G04 #@! TO.N,/POWR*
G04 #@! TO.C,C5*
G36*
X141190505Y-62436204D02*
X141214773Y-62439804D01*
X141238572Y-62445765D01*
X141261671Y-62454030D01*
X141283850Y-62464520D01*
X141304893Y-62477132D01*
X141324599Y-62491747D01*
X141342777Y-62508223D01*
X141359253Y-62526401D01*
X141373868Y-62546107D01*
X141386480Y-62567150D01*
X141396970Y-62589329D01*
X141405235Y-62612428D01*
X141411196Y-62636227D01*
X141414796Y-62660495D01*
X141416000Y-62684999D01*
X141416000Y-63335001D01*
X141414796Y-63359505D01*
X141411196Y-63383773D01*
X141405235Y-63407572D01*
X141396970Y-63430671D01*
X141386480Y-63452850D01*
X141373868Y-63473893D01*
X141359253Y-63493599D01*
X141342777Y-63511777D01*
X141324599Y-63528253D01*
X141304893Y-63542868D01*
X141283850Y-63555480D01*
X141261671Y-63565970D01*
X141238572Y-63574235D01*
X141214773Y-63580196D01*
X141190505Y-63583796D01*
X141166001Y-63585000D01*
X140265999Y-63585000D01*
X140241495Y-63583796D01*
X140217227Y-63580196D01*
X140193428Y-63574235D01*
X140170329Y-63565970D01*
X140148150Y-63555480D01*
X140127107Y-63542868D01*
X140107401Y-63528253D01*
X140089223Y-63511777D01*
X140072747Y-63493599D01*
X140058132Y-63473893D01*
X140045520Y-63452850D01*
X140035030Y-63430671D01*
X140026765Y-63407572D01*
X140020804Y-63383773D01*
X140017204Y-63359505D01*
X140016000Y-63335001D01*
X140016000Y-62684999D01*
X140017204Y-62660495D01*
X140020804Y-62636227D01*
X140026765Y-62612428D01*
X140035030Y-62589329D01*
X140045520Y-62567150D01*
X140058132Y-62546107D01*
X140072747Y-62526401D01*
X140089223Y-62508223D01*
X140107401Y-62491747D01*
X140127107Y-62477132D01*
X140148150Y-62464520D01*
X140170329Y-62454030D01*
X140193428Y-62445765D01*
X140217227Y-62439804D01*
X140241495Y-62436204D01*
X140265999Y-62435000D01*
X141166001Y-62435000D01*
X141190505Y-62436204D01*
X141190505Y-62436204D01*
G37*
D11*
G04 #@! TD*
G04 #@! TO.P,C5,2*
G04 #@! TO.N,/POWR*
X140716000Y-63010000D03*
D10*
G04 #@! TO.N,/+3.3V*
G04 #@! TO.C,C6*
G36*
X108553505Y-58737204D02*
X108577773Y-58740804D01*
X108601572Y-58746765D01*
X108624671Y-58755030D01*
X108646850Y-58765520D01*
X108667893Y-58778132D01*
X108687599Y-58792747D01*
X108705777Y-58809223D01*
X108722253Y-58827401D01*
X108736868Y-58847107D01*
X108749480Y-58868150D01*
X108759970Y-58890329D01*
X108768235Y-58913428D01*
X108774196Y-58937227D01*
X108777796Y-58961495D01*
X108779000Y-58985999D01*
X108779000Y-59886001D01*
X108777796Y-59910505D01*
X108774196Y-59934773D01*
X108768235Y-59958572D01*
X108759970Y-59981671D01*
X108749480Y-60003850D01*
X108736868Y-60024893D01*
X108722253Y-60044599D01*
X108705777Y-60062777D01*
X108687599Y-60079253D01*
X108667893Y-60093868D01*
X108646850Y-60106480D01*
X108624671Y-60116970D01*
X108601572Y-60125235D01*
X108577773Y-60131196D01*
X108553505Y-60134796D01*
X108529001Y-60136000D01*
X107878999Y-60136000D01*
X107854495Y-60134796D01*
X107830227Y-60131196D01*
X107806428Y-60125235D01*
X107783329Y-60116970D01*
X107761150Y-60106480D01*
X107740107Y-60093868D01*
X107720401Y-60079253D01*
X107702223Y-60062777D01*
X107685747Y-60044599D01*
X107671132Y-60024893D01*
X107658520Y-60003850D01*
X107648030Y-59981671D01*
X107639765Y-59958572D01*
X107633804Y-59934773D01*
X107630204Y-59910505D01*
X107629000Y-59886001D01*
X107629000Y-58985999D01*
X107630204Y-58961495D01*
X107633804Y-58937227D01*
X107639765Y-58913428D01*
X107648030Y-58890329D01*
X107658520Y-58868150D01*
X107671132Y-58847107D01*
X107685747Y-58827401D01*
X107702223Y-58809223D01*
X107720401Y-58792747D01*
X107740107Y-58778132D01*
X107761150Y-58765520D01*
X107783329Y-58755030D01*
X107806428Y-58746765D01*
X107830227Y-58740804D01*
X107854495Y-58737204D01*
X107878999Y-58736000D01*
X108529001Y-58736000D01*
X108553505Y-58737204D01*
X108553505Y-58737204D01*
G37*
D11*
G04 #@! TD*
G04 #@! TO.P,C6,1*
G04 #@! TO.N,/+3.3V*
X108204000Y-59436000D03*
D10*
G04 #@! TO.N,GND*
G04 #@! TO.C,C6*
G36*
X110603505Y-58737204D02*
X110627773Y-58740804D01*
X110651572Y-58746765D01*
X110674671Y-58755030D01*
X110696850Y-58765520D01*
X110717893Y-58778132D01*
X110737599Y-58792747D01*
X110755777Y-58809223D01*
X110772253Y-58827401D01*
X110786868Y-58847107D01*
X110799480Y-58868150D01*
X110809970Y-58890329D01*
X110818235Y-58913428D01*
X110824196Y-58937227D01*
X110827796Y-58961495D01*
X110829000Y-58985999D01*
X110829000Y-59886001D01*
X110827796Y-59910505D01*
X110824196Y-59934773D01*
X110818235Y-59958572D01*
X110809970Y-59981671D01*
X110799480Y-60003850D01*
X110786868Y-60024893D01*
X110772253Y-60044599D01*
X110755777Y-60062777D01*
X110737599Y-60079253D01*
X110717893Y-60093868D01*
X110696850Y-60106480D01*
X110674671Y-60116970D01*
X110651572Y-60125235D01*
X110627773Y-60131196D01*
X110603505Y-60134796D01*
X110579001Y-60136000D01*
X109928999Y-60136000D01*
X109904495Y-60134796D01*
X109880227Y-60131196D01*
X109856428Y-60125235D01*
X109833329Y-60116970D01*
X109811150Y-60106480D01*
X109790107Y-60093868D01*
X109770401Y-60079253D01*
X109752223Y-60062777D01*
X109735747Y-60044599D01*
X109721132Y-60024893D01*
X109708520Y-60003850D01*
X109698030Y-59981671D01*
X109689765Y-59958572D01*
X109683804Y-59934773D01*
X109680204Y-59910505D01*
X109679000Y-59886001D01*
X109679000Y-58985999D01*
X109680204Y-58961495D01*
X109683804Y-58937227D01*
X109689765Y-58913428D01*
X109698030Y-58890329D01*
X109708520Y-58868150D01*
X109721132Y-58847107D01*
X109735747Y-58827401D01*
X109752223Y-58809223D01*
X109770401Y-58792747D01*
X109790107Y-58778132D01*
X109811150Y-58765520D01*
X109833329Y-58755030D01*
X109856428Y-58746765D01*
X109880227Y-58740804D01*
X109904495Y-58737204D01*
X109928999Y-58736000D01*
X110579001Y-58736000D01*
X110603505Y-58737204D01*
X110603505Y-58737204D01*
G37*
D11*
G04 #@! TD*
G04 #@! TO.P,C6,2*
G04 #@! TO.N,GND*
X110254000Y-59436000D03*
D10*
G04 #@! TO.N,GND*
G04 #@! TO.C,C7*
G36*
X123285505Y-58737204D02*
X123309773Y-58740804D01*
X123333572Y-58746765D01*
X123356671Y-58755030D01*
X123378850Y-58765520D01*
X123399893Y-58778132D01*
X123419599Y-58792747D01*
X123437777Y-58809223D01*
X123454253Y-58827401D01*
X123468868Y-58847107D01*
X123481480Y-58868150D01*
X123491970Y-58890329D01*
X123500235Y-58913428D01*
X123506196Y-58937227D01*
X123509796Y-58961495D01*
X123511000Y-58985999D01*
X123511000Y-59886001D01*
X123509796Y-59910505D01*
X123506196Y-59934773D01*
X123500235Y-59958572D01*
X123491970Y-59981671D01*
X123481480Y-60003850D01*
X123468868Y-60024893D01*
X123454253Y-60044599D01*
X123437777Y-60062777D01*
X123419599Y-60079253D01*
X123399893Y-60093868D01*
X123378850Y-60106480D01*
X123356671Y-60116970D01*
X123333572Y-60125235D01*
X123309773Y-60131196D01*
X123285505Y-60134796D01*
X123261001Y-60136000D01*
X122610999Y-60136000D01*
X122586495Y-60134796D01*
X122562227Y-60131196D01*
X122538428Y-60125235D01*
X122515329Y-60116970D01*
X122493150Y-60106480D01*
X122472107Y-60093868D01*
X122452401Y-60079253D01*
X122434223Y-60062777D01*
X122417747Y-60044599D01*
X122403132Y-60024893D01*
X122390520Y-60003850D01*
X122380030Y-59981671D01*
X122371765Y-59958572D01*
X122365804Y-59934773D01*
X122362204Y-59910505D01*
X122361000Y-59886001D01*
X122361000Y-58985999D01*
X122362204Y-58961495D01*
X122365804Y-58937227D01*
X122371765Y-58913428D01*
X122380030Y-58890329D01*
X122390520Y-58868150D01*
X122403132Y-58847107D01*
X122417747Y-58827401D01*
X122434223Y-58809223D01*
X122452401Y-58792747D01*
X122472107Y-58778132D01*
X122493150Y-58765520D01*
X122515329Y-58755030D01*
X122538428Y-58746765D01*
X122562227Y-58740804D01*
X122586495Y-58737204D01*
X122610999Y-58736000D01*
X123261001Y-58736000D01*
X123285505Y-58737204D01*
X123285505Y-58737204D01*
G37*
D11*
G04 #@! TD*
G04 #@! TO.P,C7,2*
G04 #@! TO.N,GND*
X122936000Y-59436000D03*
D10*
G04 #@! TO.N,/+5V*
G04 #@! TO.C,C7*
G36*
X121235505Y-58737204D02*
X121259773Y-58740804D01*
X121283572Y-58746765D01*
X121306671Y-58755030D01*
X121328850Y-58765520D01*
X121349893Y-58778132D01*
X121369599Y-58792747D01*
X121387777Y-58809223D01*
X121404253Y-58827401D01*
X121418868Y-58847107D01*
X121431480Y-58868150D01*
X121441970Y-58890329D01*
X121450235Y-58913428D01*
X121456196Y-58937227D01*
X121459796Y-58961495D01*
X121461000Y-58985999D01*
X121461000Y-59886001D01*
X121459796Y-59910505D01*
X121456196Y-59934773D01*
X121450235Y-59958572D01*
X121441970Y-59981671D01*
X121431480Y-60003850D01*
X121418868Y-60024893D01*
X121404253Y-60044599D01*
X121387777Y-60062777D01*
X121369599Y-60079253D01*
X121349893Y-60093868D01*
X121328850Y-60106480D01*
X121306671Y-60116970D01*
X121283572Y-60125235D01*
X121259773Y-60131196D01*
X121235505Y-60134796D01*
X121211001Y-60136000D01*
X120560999Y-60136000D01*
X120536495Y-60134796D01*
X120512227Y-60131196D01*
X120488428Y-60125235D01*
X120465329Y-60116970D01*
X120443150Y-60106480D01*
X120422107Y-60093868D01*
X120402401Y-60079253D01*
X120384223Y-60062777D01*
X120367747Y-60044599D01*
X120353132Y-60024893D01*
X120340520Y-60003850D01*
X120330030Y-59981671D01*
X120321765Y-59958572D01*
X120315804Y-59934773D01*
X120312204Y-59910505D01*
X120311000Y-59886001D01*
X120311000Y-58985999D01*
X120312204Y-58961495D01*
X120315804Y-58937227D01*
X120321765Y-58913428D01*
X120330030Y-58890329D01*
X120340520Y-58868150D01*
X120353132Y-58847107D01*
X120367747Y-58827401D01*
X120384223Y-58809223D01*
X120402401Y-58792747D01*
X120422107Y-58778132D01*
X120443150Y-58765520D01*
X120465329Y-58755030D01*
X120488428Y-58746765D01*
X120512227Y-58740804D01*
X120536495Y-58737204D01*
X120560999Y-58736000D01*
X121211001Y-58736000D01*
X121235505Y-58737204D01*
X121235505Y-58737204D01*
G37*
D11*
G04 #@! TD*
G04 #@! TO.P,C7,1*
G04 #@! TO.N,/+5V*
X120886000Y-59436000D03*
D10*
G04 #@! TO.N,/+12V*
G04 #@! TO.C,C8*
G36*
X134443505Y-58737204D02*
X134467773Y-58740804D01*
X134491572Y-58746765D01*
X134514671Y-58755030D01*
X134536850Y-58765520D01*
X134557893Y-58778132D01*
X134577599Y-58792747D01*
X134595777Y-58809223D01*
X134612253Y-58827401D01*
X134626868Y-58847107D01*
X134639480Y-58868150D01*
X134649970Y-58890329D01*
X134658235Y-58913428D01*
X134664196Y-58937227D01*
X134667796Y-58961495D01*
X134669000Y-58985999D01*
X134669000Y-59886001D01*
X134667796Y-59910505D01*
X134664196Y-59934773D01*
X134658235Y-59958572D01*
X134649970Y-59981671D01*
X134639480Y-60003850D01*
X134626868Y-60024893D01*
X134612253Y-60044599D01*
X134595777Y-60062777D01*
X134577599Y-60079253D01*
X134557893Y-60093868D01*
X134536850Y-60106480D01*
X134514671Y-60116970D01*
X134491572Y-60125235D01*
X134467773Y-60131196D01*
X134443505Y-60134796D01*
X134419001Y-60136000D01*
X133768999Y-60136000D01*
X133744495Y-60134796D01*
X133720227Y-60131196D01*
X133696428Y-60125235D01*
X133673329Y-60116970D01*
X133651150Y-60106480D01*
X133630107Y-60093868D01*
X133610401Y-60079253D01*
X133592223Y-60062777D01*
X133575747Y-60044599D01*
X133561132Y-60024893D01*
X133548520Y-60003850D01*
X133538030Y-59981671D01*
X133529765Y-59958572D01*
X133523804Y-59934773D01*
X133520204Y-59910505D01*
X133519000Y-59886001D01*
X133519000Y-58985999D01*
X133520204Y-58961495D01*
X133523804Y-58937227D01*
X133529765Y-58913428D01*
X133538030Y-58890329D01*
X133548520Y-58868150D01*
X133561132Y-58847107D01*
X133575747Y-58827401D01*
X133592223Y-58809223D01*
X133610401Y-58792747D01*
X133630107Y-58778132D01*
X133651150Y-58765520D01*
X133673329Y-58755030D01*
X133696428Y-58746765D01*
X133720227Y-58740804D01*
X133744495Y-58737204D01*
X133768999Y-58736000D01*
X134419001Y-58736000D01*
X134443505Y-58737204D01*
X134443505Y-58737204D01*
G37*
D11*
G04 #@! TD*
G04 #@! TO.P,C8,1*
G04 #@! TO.N,/+12V*
X134094000Y-59436000D03*
D10*
G04 #@! TO.N,GND*
G04 #@! TO.C,C8*
G36*
X136493505Y-58737204D02*
X136517773Y-58740804D01*
X136541572Y-58746765D01*
X136564671Y-58755030D01*
X136586850Y-58765520D01*
X136607893Y-58778132D01*
X136627599Y-58792747D01*
X136645777Y-58809223D01*
X136662253Y-58827401D01*
X136676868Y-58847107D01*
X136689480Y-58868150D01*
X136699970Y-58890329D01*
X136708235Y-58913428D01*
X136714196Y-58937227D01*
X136717796Y-58961495D01*
X136719000Y-58985999D01*
X136719000Y-59886001D01*
X136717796Y-59910505D01*
X136714196Y-59934773D01*
X136708235Y-59958572D01*
X136699970Y-59981671D01*
X136689480Y-60003850D01*
X136676868Y-60024893D01*
X136662253Y-60044599D01*
X136645777Y-60062777D01*
X136627599Y-60079253D01*
X136607893Y-60093868D01*
X136586850Y-60106480D01*
X136564671Y-60116970D01*
X136541572Y-60125235D01*
X136517773Y-60131196D01*
X136493505Y-60134796D01*
X136469001Y-60136000D01*
X135818999Y-60136000D01*
X135794495Y-60134796D01*
X135770227Y-60131196D01*
X135746428Y-60125235D01*
X135723329Y-60116970D01*
X135701150Y-60106480D01*
X135680107Y-60093868D01*
X135660401Y-60079253D01*
X135642223Y-60062777D01*
X135625747Y-60044599D01*
X135611132Y-60024893D01*
X135598520Y-60003850D01*
X135588030Y-59981671D01*
X135579765Y-59958572D01*
X135573804Y-59934773D01*
X135570204Y-59910505D01*
X135569000Y-59886001D01*
X135569000Y-58985999D01*
X135570204Y-58961495D01*
X135573804Y-58937227D01*
X135579765Y-58913428D01*
X135588030Y-58890329D01*
X135598520Y-58868150D01*
X135611132Y-58847107D01*
X135625747Y-58827401D01*
X135642223Y-58809223D01*
X135660401Y-58792747D01*
X135680107Y-58778132D01*
X135701150Y-58765520D01*
X135723329Y-58755030D01*
X135746428Y-58746765D01*
X135770227Y-58740804D01*
X135794495Y-58737204D01*
X135818999Y-58736000D01*
X136469001Y-58736000D01*
X136493505Y-58737204D01*
X136493505Y-58737204D01*
G37*
D11*
G04 #@! TD*
G04 #@! TO.P,C8,2*
G04 #@! TO.N,GND*
X136144000Y-59436000D03*
D10*
G04 #@! TO.N,Net-(D1-Pad1)*
G04 #@! TO.C,D1*
G36*
X113250505Y-61910204D02*
X113274773Y-61913804D01*
X113298572Y-61919765D01*
X113321671Y-61928030D01*
X113343850Y-61938520D01*
X113364893Y-61951132D01*
X113384599Y-61965747D01*
X113402777Y-61982223D01*
X113419253Y-62000401D01*
X113433868Y-62020107D01*
X113446480Y-62041150D01*
X113456970Y-62063329D01*
X113465235Y-62086428D01*
X113471196Y-62110227D01*
X113474796Y-62134495D01*
X113476000Y-62158999D01*
X113476000Y-62809001D01*
X113474796Y-62833505D01*
X113471196Y-62857773D01*
X113465235Y-62881572D01*
X113456970Y-62904671D01*
X113446480Y-62926850D01*
X113433868Y-62947893D01*
X113419253Y-62967599D01*
X113402777Y-62985777D01*
X113384599Y-63002253D01*
X113364893Y-63016868D01*
X113343850Y-63029480D01*
X113321671Y-63039970D01*
X113298572Y-63048235D01*
X113274773Y-63054196D01*
X113250505Y-63057796D01*
X113226001Y-63059000D01*
X112325999Y-63059000D01*
X112301495Y-63057796D01*
X112277227Y-63054196D01*
X112253428Y-63048235D01*
X112230329Y-63039970D01*
X112208150Y-63029480D01*
X112187107Y-63016868D01*
X112167401Y-63002253D01*
X112149223Y-62985777D01*
X112132747Y-62967599D01*
X112118132Y-62947893D01*
X112105520Y-62926850D01*
X112095030Y-62904671D01*
X112086765Y-62881572D01*
X112080804Y-62857773D01*
X112077204Y-62833505D01*
X112076000Y-62809001D01*
X112076000Y-62158999D01*
X112077204Y-62134495D01*
X112080804Y-62110227D01*
X112086765Y-62086428D01*
X112095030Y-62063329D01*
X112105520Y-62041150D01*
X112118132Y-62020107D01*
X112132747Y-62000401D01*
X112149223Y-61982223D01*
X112167401Y-61965747D01*
X112187107Y-61951132D01*
X112208150Y-61938520D01*
X112230329Y-61928030D01*
X112253428Y-61919765D01*
X112277227Y-61913804D01*
X112301495Y-61910204D01*
X112325999Y-61909000D01*
X113226001Y-61909000D01*
X113250505Y-61910204D01*
X113250505Y-61910204D01*
G37*
D11*
G04 #@! TD*
G04 #@! TO.P,D1,1*
G04 #@! TO.N,Net-(D1-Pad1)*
X112776000Y-62484000D03*
D10*
G04 #@! TO.N,GND*
G04 #@! TO.C,D1*
G36*
X113250505Y-59860204D02*
X113274773Y-59863804D01*
X113298572Y-59869765D01*
X113321671Y-59878030D01*
X113343850Y-59888520D01*
X113364893Y-59901132D01*
X113384599Y-59915747D01*
X113402777Y-59932223D01*
X113419253Y-59950401D01*
X113433868Y-59970107D01*
X113446480Y-59991150D01*
X113456970Y-60013329D01*
X113465235Y-60036428D01*
X113471196Y-60060227D01*
X113474796Y-60084495D01*
X113476000Y-60108999D01*
X113476000Y-60759001D01*
X113474796Y-60783505D01*
X113471196Y-60807773D01*
X113465235Y-60831572D01*
X113456970Y-60854671D01*
X113446480Y-60876850D01*
X113433868Y-60897893D01*
X113419253Y-60917599D01*
X113402777Y-60935777D01*
X113384599Y-60952253D01*
X113364893Y-60966868D01*
X113343850Y-60979480D01*
X113321671Y-60989970D01*
X113298572Y-60998235D01*
X113274773Y-61004196D01*
X113250505Y-61007796D01*
X113226001Y-61009000D01*
X112325999Y-61009000D01*
X112301495Y-61007796D01*
X112277227Y-61004196D01*
X112253428Y-60998235D01*
X112230329Y-60989970D01*
X112208150Y-60979480D01*
X112187107Y-60966868D01*
X112167401Y-60952253D01*
X112149223Y-60935777D01*
X112132747Y-60917599D01*
X112118132Y-60897893D01*
X112105520Y-60876850D01*
X112095030Y-60854671D01*
X112086765Y-60831572D01*
X112080804Y-60807773D01*
X112077204Y-60783505D01*
X112076000Y-60759001D01*
X112076000Y-60108999D01*
X112077204Y-60084495D01*
X112080804Y-60060227D01*
X112086765Y-60036428D01*
X112095030Y-60013329D01*
X112105520Y-59991150D01*
X112118132Y-59970107D01*
X112132747Y-59950401D01*
X112149223Y-59932223D01*
X112167401Y-59915747D01*
X112187107Y-59901132D01*
X112208150Y-59888520D01*
X112230329Y-59878030D01*
X112253428Y-59869765D01*
X112277227Y-59863804D01*
X112301495Y-59860204D01*
X112325999Y-59859000D01*
X113226001Y-59859000D01*
X113250505Y-59860204D01*
X113250505Y-59860204D01*
G37*
D11*
G04 #@! TD*
G04 #@! TO.P,D1,2*
G04 #@! TO.N,GND*
X112776000Y-60434000D03*
D10*
G04 #@! TO.N,GND*
G04 #@! TO.C,D2*
G36*
X126458505Y-59878204D02*
X126482773Y-59881804D01*
X126506572Y-59887765D01*
X126529671Y-59896030D01*
X126551850Y-59906520D01*
X126572893Y-59919132D01*
X126592599Y-59933747D01*
X126610777Y-59950223D01*
X126627253Y-59968401D01*
X126641868Y-59988107D01*
X126654480Y-60009150D01*
X126664970Y-60031329D01*
X126673235Y-60054428D01*
X126679196Y-60078227D01*
X126682796Y-60102495D01*
X126684000Y-60126999D01*
X126684000Y-60777001D01*
X126682796Y-60801505D01*
X126679196Y-60825773D01*
X126673235Y-60849572D01*
X126664970Y-60872671D01*
X126654480Y-60894850D01*
X126641868Y-60915893D01*
X126627253Y-60935599D01*
X126610777Y-60953777D01*
X126592599Y-60970253D01*
X126572893Y-60984868D01*
X126551850Y-60997480D01*
X126529671Y-61007970D01*
X126506572Y-61016235D01*
X126482773Y-61022196D01*
X126458505Y-61025796D01*
X126434001Y-61027000D01*
X125533999Y-61027000D01*
X125509495Y-61025796D01*
X125485227Y-61022196D01*
X125461428Y-61016235D01*
X125438329Y-61007970D01*
X125416150Y-60997480D01*
X125395107Y-60984868D01*
X125375401Y-60970253D01*
X125357223Y-60953777D01*
X125340747Y-60935599D01*
X125326132Y-60915893D01*
X125313520Y-60894850D01*
X125303030Y-60872671D01*
X125294765Y-60849572D01*
X125288804Y-60825773D01*
X125285204Y-60801505D01*
X125284000Y-60777001D01*
X125284000Y-60126999D01*
X125285204Y-60102495D01*
X125288804Y-60078227D01*
X125294765Y-60054428D01*
X125303030Y-60031329D01*
X125313520Y-60009150D01*
X125326132Y-59988107D01*
X125340747Y-59968401D01*
X125357223Y-59950223D01*
X125375401Y-59933747D01*
X125395107Y-59919132D01*
X125416150Y-59906520D01*
X125438329Y-59896030D01*
X125461428Y-59887765D01*
X125485227Y-59881804D01*
X125509495Y-59878204D01*
X125533999Y-59877000D01*
X126434001Y-59877000D01*
X126458505Y-59878204D01*
X126458505Y-59878204D01*
G37*
D11*
G04 #@! TD*
G04 #@! TO.P,D2,2*
G04 #@! TO.N,GND*
X125984000Y-60452000D03*
D10*
G04 #@! TO.N,Net-(D2-Pad1)*
G04 #@! TO.C,D2*
G36*
X126458505Y-61928204D02*
X126482773Y-61931804D01*
X126506572Y-61937765D01*
X126529671Y-61946030D01*
X126551850Y-61956520D01*
X126572893Y-61969132D01*
X126592599Y-61983747D01*
X126610777Y-62000223D01*
X126627253Y-62018401D01*
X126641868Y-62038107D01*
X126654480Y-62059150D01*
X126664970Y-62081329D01*
X126673235Y-62104428D01*
X126679196Y-62128227D01*
X126682796Y-62152495D01*
X126684000Y-62176999D01*
X126684000Y-62827001D01*
X126682796Y-62851505D01*
X126679196Y-62875773D01*
X126673235Y-62899572D01*
X126664970Y-62922671D01*
X126654480Y-62944850D01*
X126641868Y-62965893D01*
X126627253Y-62985599D01*
X126610777Y-63003777D01*
X126592599Y-63020253D01*
X126572893Y-63034868D01*
X126551850Y-63047480D01*
X126529671Y-63057970D01*
X126506572Y-63066235D01*
X126482773Y-63072196D01*
X126458505Y-63075796D01*
X126434001Y-63077000D01*
X125533999Y-63077000D01*
X125509495Y-63075796D01*
X125485227Y-63072196D01*
X125461428Y-63066235D01*
X125438329Y-63057970D01*
X125416150Y-63047480D01*
X125395107Y-63034868D01*
X125375401Y-63020253D01*
X125357223Y-63003777D01*
X125340747Y-62985599D01*
X125326132Y-62965893D01*
X125313520Y-62944850D01*
X125303030Y-62922671D01*
X125294765Y-62899572D01*
X125288804Y-62875773D01*
X125285204Y-62851505D01*
X125284000Y-62827001D01*
X125284000Y-62176999D01*
X125285204Y-62152495D01*
X125288804Y-62128227D01*
X125294765Y-62104428D01*
X125303030Y-62081329D01*
X125313520Y-62059150D01*
X125326132Y-62038107D01*
X125340747Y-62018401D01*
X125357223Y-62000223D01*
X125375401Y-61983747D01*
X125395107Y-61969132D01*
X125416150Y-61956520D01*
X125438329Y-61946030D01*
X125461428Y-61937765D01*
X125485227Y-61931804D01*
X125509495Y-61928204D01*
X125533999Y-61927000D01*
X126434001Y-61927000D01*
X126458505Y-61928204D01*
X126458505Y-61928204D01*
G37*
D11*
G04 #@! TD*
G04 #@! TO.P,D2,1*
G04 #@! TO.N,Net-(D2-Pad1)*
X125984000Y-62502000D03*
D10*
G04 #@! TO.N,Net-(D3-Pad1)*
G04 #@! TO.C,D3*
G36*
X138650505Y-61910204D02*
X138674773Y-61913804D01*
X138698572Y-61919765D01*
X138721671Y-61928030D01*
X138743850Y-61938520D01*
X138764893Y-61951132D01*
X138784599Y-61965747D01*
X138802777Y-61982223D01*
X138819253Y-62000401D01*
X138833868Y-62020107D01*
X138846480Y-62041150D01*
X138856970Y-62063329D01*
X138865235Y-62086428D01*
X138871196Y-62110227D01*
X138874796Y-62134495D01*
X138876000Y-62158999D01*
X138876000Y-62809001D01*
X138874796Y-62833505D01*
X138871196Y-62857773D01*
X138865235Y-62881572D01*
X138856970Y-62904671D01*
X138846480Y-62926850D01*
X138833868Y-62947893D01*
X138819253Y-62967599D01*
X138802777Y-62985777D01*
X138784599Y-63002253D01*
X138764893Y-63016868D01*
X138743850Y-63029480D01*
X138721671Y-63039970D01*
X138698572Y-63048235D01*
X138674773Y-63054196D01*
X138650505Y-63057796D01*
X138626001Y-63059000D01*
X137725999Y-63059000D01*
X137701495Y-63057796D01*
X137677227Y-63054196D01*
X137653428Y-63048235D01*
X137630329Y-63039970D01*
X137608150Y-63029480D01*
X137587107Y-63016868D01*
X137567401Y-63002253D01*
X137549223Y-62985777D01*
X137532747Y-62967599D01*
X137518132Y-62947893D01*
X137505520Y-62926850D01*
X137495030Y-62904671D01*
X137486765Y-62881572D01*
X137480804Y-62857773D01*
X137477204Y-62833505D01*
X137476000Y-62809001D01*
X137476000Y-62158999D01*
X137477204Y-62134495D01*
X137480804Y-62110227D01*
X137486765Y-62086428D01*
X137495030Y-62063329D01*
X137505520Y-62041150D01*
X137518132Y-62020107D01*
X137532747Y-62000401D01*
X137549223Y-61982223D01*
X137567401Y-61965747D01*
X137587107Y-61951132D01*
X137608150Y-61938520D01*
X137630329Y-61928030D01*
X137653428Y-61919765D01*
X137677227Y-61913804D01*
X137701495Y-61910204D01*
X137725999Y-61909000D01*
X138626001Y-61909000D01*
X138650505Y-61910204D01*
X138650505Y-61910204D01*
G37*
D11*
G04 #@! TD*
G04 #@! TO.P,D3,1*
G04 #@! TO.N,Net-(D3-Pad1)*
X138176000Y-62484000D03*
D10*
G04 #@! TO.N,GND*
G04 #@! TO.C,D3*
G36*
X138650505Y-59860204D02*
X138674773Y-59863804D01*
X138698572Y-59869765D01*
X138721671Y-59878030D01*
X138743850Y-59888520D01*
X138764893Y-59901132D01*
X138784599Y-59915747D01*
X138802777Y-59932223D01*
X138819253Y-59950401D01*
X138833868Y-59970107D01*
X138846480Y-59991150D01*
X138856970Y-60013329D01*
X138865235Y-60036428D01*
X138871196Y-60060227D01*
X138874796Y-60084495D01*
X138876000Y-60108999D01*
X138876000Y-60759001D01*
X138874796Y-60783505D01*
X138871196Y-60807773D01*
X138865235Y-60831572D01*
X138856970Y-60854671D01*
X138846480Y-60876850D01*
X138833868Y-60897893D01*
X138819253Y-60917599D01*
X138802777Y-60935777D01*
X138784599Y-60952253D01*
X138764893Y-60966868D01*
X138743850Y-60979480D01*
X138721671Y-60989970D01*
X138698572Y-60998235D01*
X138674773Y-61004196D01*
X138650505Y-61007796D01*
X138626001Y-61009000D01*
X137725999Y-61009000D01*
X137701495Y-61007796D01*
X137677227Y-61004196D01*
X137653428Y-60998235D01*
X137630329Y-60989970D01*
X137608150Y-60979480D01*
X137587107Y-60966868D01*
X137567401Y-60952253D01*
X137549223Y-60935777D01*
X137532747Y-60917599D01*
X137518132Y-60897893D01*
X137505520Y-60876850D01*
X137495030Y-60854671D01*
X137486765Y-60831572D01*
X137480804Y-60807773D01*
X137477204Y-60783505D01*
X137476000Y-60759001D01*
X137476000Y-60108999D01*
X137477204Y-60084495D01*
X137480804Y-60060227D01*
X137486765Y-60036428D01*
X137495030Y-60013329D01*
X137505520Y-59991150D01*
X137518132Y-59970107D01*
X137532747Y-59950401D01*
X137549223Y-59932223D01*
X137567401Y-59915747D01*
X137587107Y-59901132D01*
X137608150Y-59888520D01*
X137630329Y-59878030D01*
X137653428Y-59869765D01*
X137677227Y-59863804D01*
X137701495Y-59860204D01*
X137725999Y-59859000D01*
X138626001Y-59859000D01*
X138650505Y-59860204D01*
X138650505Y-59860204D01*
G37*
D11*
G04 #@! TD*
G04 #@! TO.P,D3,2*
G04 #@! TO.N,GND*
X138176000Y-60434000D03*
D10*
G04 #@! TO.N,GND*
G04 #@! TO.C,J1*
G36*
X87004505Y-66465204D02*
X87028773Y-66468804D01*
X87052572Y-66474765D01*
X87075671Y-66483030D01*
X87097850Y-66493520D01*
X87118893Y-66506132D01*
X87138599Y-66520747D01*
X87156777Y-66537223D01*
X87173253Y-66555401D01*
X87187868Y-66575107D01*
X87200480Y-66596150D01*
X87210970Y-66618329D01*
X87219235Y-66641428D01*
X87225196Y-66665227D01*
X87228796Y-66689495D01*
X87230000Y-66713999D01*
X87230000Y-68414001D01*
X87228796Y-68438505D01*
X87225196Y-68462773D01*
X87219235Y-68486572D01*
X87210970Y-68509671D01*
X87200480Y-68531850D01*
X87187868Y-68552893D01*
X87173253Y-68572599D01*
X87156777Y-68590777D01*
X87138599Y-68607253D01*
X87118893Y-68621868D01*
X87097850Y-68634480D01*
X87075671Y-68644970D01*
X87052572Y-68653235D01*
X87028773Y-68659196D01*
X87004505Y-68662796D01*
X86980001Y-68664000D01*
X85739999Y-68664000D01*
X85715495Y-68662796D01*
X85691227Y-68659196D01*
X85667428Y-68653235D01*
X85644329Y-68644970D01*
X85622150Y-68634480D01*
X85601107Y-68621868D01*
X85581401Y-68607253D01*
X85563223Y-68590777D01*
X85546747Y-68572599D01*
X85532132Y-68552893D01*
X85519520Y-68531850D01*
X85509030Y-68509671D01*
X85500765Y-68486572D01*
X85494804Y-68462773D01*
X85491204Y-68438505D01*
X85490000Y-68414001D01*
X85490000Y-66713999D01*
X85491204Y-66689495D01*
X85494804Y-66665227D01*
X85500765Y-66641428D01*
X85509030Y-66618329D01*
X85519520Y-66596150D01*
X85532132Y-66575107D01*
X85546747Y-66555401D01*
X85563223Y-66537223D01*
X85581401Y-66520747D01*
X85601107Y-66506132D01*
X85622150Y-66493520D01*
X85644329Y-66483030D01*
X85667428Y-66474765D01*
X85691227Y-66468804D01*
X85715495Y-66465204D01*
X85739999Y-66464000D01*
X86980001Y-66464000D01*
X87004505Y-66465204D01*
X87004505Y-66465204D01*
G37*
D12*
G04 #@! TD*
G04 #@! TO.P,J1,1*
G04 #@! TO.N,GND*
X86360000Y-67564000D03*
D13*
G04 #@! TO.P,J1,2*
G04 #@! TO.N,Net-(J1-Pad2)*
X88900000Y-67564000D03*
G04 #@! TD*
D10*
G04 #@! TO.N,Net-(J1-Pad2)*
G04 #@! TO.C,J2*
G36*
X93100505Y-66465204D02*
X93124773Y-66468804D01*
X93148572Y-66474765D01*
X93171671Y-66483030D01*
X93193850Y-66493520D01*
X93214893Y-66506132D01*
X93234599Y-66520747D01*
X93252777Y-66537223D01*
X93269253Y-66555401D01*
X93283868Y-66575107D01*
X93296480Y-66596150D01*
X93306970Y-66618329D01*
X93315235Y-66641428D01*
X93321196Y-66665227D01*
X93324796Y-66689495D01*
X93326000Y-66713999D01*
X93326000Y-68414001D01*
X93324796Y-68438505D01*
X93321196Y-68462773D01*
X93315235Y-68486572D01*
X93306970Y-68509671D01*
X93296480Y-68531850D01*
X93283868Y-68552893D01*
X93269253Y-68572599D01*
X93252777Y-68590777D01*
X93234599Y-68607253D01*
X93214893Y-68621868D01*
X93193850Y-68634480D01*
X93171671Y-68644970D01*
X93148572Y-68653235D01*
X93124773Y-68659196D01*
X93100505Y-68662796D01*
X93076001Y-68664000D01*
X91835999Y-68664000D01*
X91811495Y-68662796D01*
X91787227Y-68659196D01*
X91763428Y-68653235D01*
X91740329Y-68644970D01*
X91718150Y-68634480D01*
X91697107Y-68621868D01*
X91677401Y-68607253D01*
X91659223Y-68590777D01*
X91642747Y-68572599D01*
X91628132Y-68552893D01*
X91615520Y-68531850D01*
X91605030Y-68509671D01*
X91596765Y-68486572D01*
X91590804Y-68462773D01*
X91587204Y-68438505D01*
X91586000Y-68414001D01*
X91586000Y-66713999D01*
X91587204Y-66689495D01*
X91590804Y-66665227D01*
X91596765Y-66641428D01*
X91605030Y-66618329D01*
X91615520Y-66596150D01*
X91628132Y-66575107D01*
X91642747Y-66555401D01*
X91659223Y-66537223D01*
X91677401Y-66520747D01*
X91697107Y-66506132D01*
X91718150Y-66493520D01*
X91740329Y-66483030D01*
X91763428Y-66474765D01*
X91787227Y-66468804D01*
X91811495Y-66465204D01*
X91835999Y-66464000D01*
X93076001Y-66464000D01*
X93100505Y-66465204D01*
X93100505Y-66465204D01*
G37*
D12*
G04 #@! TD*
G04 #@! TO.P,J2,1*
G04 #@! TO.N,Net-(J1-Pad2)*
X92456000Y-67564000D03*
D13*
G04 #@! TO.P,J2,2*
G04 #@! TO.N,+BATT*
X94996000Y-67564000D03*
G04 #@! TD*
G04 #@! TO.P,J3,2*
G04 #@! TO.N,Net-(J3-Pad2)*
X88900000Y-76708000D03*
D10*
G04 #@! TD*
G04 #@! TO.N,GND*
G04 #@! TO.C,J3*
G36*
X87004505Y-75609204D02*
X87028773Y-75612804D01*
X87052572Y-75618765D01*
X87075671Y-75627030D01*
X87097850Y-75637520D01*
X87118893Y-75650132D01*
X87138599Y-75664747D01*
X87156777Y-75681223D01*
X87173253Y-75699401D01*
X87187868Y-75719107D01*
X87200480Y-75740150D01*
X87210970Y-75762329D01*
X87219235Y-75785428D01*
X87225196Y-75809227D01*
X87228796Y-75833495D01*
X87230000Y-75857999D01*
X87230000Y-77558001D01*
X87228796Y-77582505D01*
X87225196Y-77606773D01*
X87219235Y-77630572D01*
X87210970Y-77653671D01*
X87200480Y-77675850D01*
X87187868Y-77696893D01*
X87173253Y-77716599D01*
X87156777Y-77734777D01*
X87138599Y-77751253D01*
X87118893Y-77765868D01*
X87097850Y-77778480D01*
X87075671Y-77788970D01*
X87052572Y-77797235D01*
X87028773Y-77803196D01*
X87004505Y-77806796D01*
X86980001Y-77808000D01*
X85739999Y-77808000D01*
X85715495Y-77806796D01*
X85691227Y-77803196D01*
X85667428Y-77797235D01*
X85644329Y-77788970D01*
X85622150Y-77778480D01*
X85601107Y-77765868D01*
X85581401Y-77751253D01*
X85563223Y-77734777D01*
X85546747Y-77716599D01*
X85532132Y-77696893D01*
X85519520Y-77675850D01*
X85509030Y-77653671D01*
X85500765Y-77630572D01*
X85494804Y-77606773D01*
X85491204Y-77582505D01*
X85490000Y-77558001D01*
X85490000Y-75857999D01*
X85491204Y-75833495D01*
X85494804Y-75809227D01*
X85500765Y-75785428D01*
X85509030Y-75762329D01*
X85519520Y-75740150D01*
X85532132Y-75719107D01*
X85546747Y-75699401D01*
X85563223Y-75681223D01*
X85581401Y-75664747D01*
X85601107Y-75650132D01*
X85622150Y-75637520D01*
X85644329Y-75627030D01*
X85667428Y-75618765D01*
X85691227Y-75612804D01*
X85715495Y-75609204D01*
X85739999Y-75608000D01*
X86980001Y-75608000D01*
X87004505Y-75609204D01*
X87004505Y-75609204D01*
G37*
D12*
G04 #@! TO.P,J3,1*
G04 #@! TO.N,GND*
X86360000Y-76708000D03*
G04 #@! TD*
D10*
G04 #@! TO.N,Net-(J3-Pad2)*
G04 #@! TO.C,J4*
G36*
X93100505Y-75609204D02*
X93124773Y-75612804D01*
X93148572Y-75618765D01*
X93171671Y-75627030D01*
X93193850Y-75637520D01*
X93214893Y-75650132D01*
X93234599Y-75664747D01*
X93252777Y-75681223D01*
X93269253Y-75699401D01*
X93283868Y-75719107D01*
X93296480Y-75740150D01*
X93306970Y-75762329D01*
X93315235Y-75785428D01*
X93321196Y-75809227D01*
X93324796Y-75833495D01*
X93326000Y-75857999D01*
X93326000Y-77558001D01*
X93324796Y-77582505D01*
X93321196Y-77606773D01*
X93315235Y-77630572D01*
X93306970Y-77653671D01*
X93296480Y-77675850D01*
X93283868Y-77696893D01*
X93269253Y-77716599D01*
X93252777Y-77734777D01*
X93234599Y-77751253D01*
X93214893Y-77765868D01*
X93193850Y-77778480D01*
X93171671Y-77788970D01*
X93148572Y-77797235D01*
X93124773Y-77803196D01*
X93100505Y-77806796D01*
X93076001Y-77808000D01*
X91835999Y-77808000D01*
X91811495Y-77806796D01*
X91787227Y-77803196D01*
X91763428Y-77797235D01*
X91740329Y-77788970D01*
X91718150Y-77778480D01*
X91697107Y-77765868D01*
X91677401Y-77751253D01*
X91659223Y-77734777D01*
X91642747Y-77716599D01*
X91628132Y-77696893D01*
X91615520Y-77675850D01*
X91605030Y-77653671D01*
X91596765Y-77630572D01*
X91590804Y-77606773D01*
X91587204Y-77582505D01*
X91586000Y-77558001D01*
X91586000Y-75857999D01*
X91587204Y-75833495D01*
X91590804Y-75809227D01*
X91596765Y-75785428D01*
X91605030Y-75762329D01*
X91615520Y-75740150D01*
X91628132Y-75719107D01*
X91642747Y-75699401D01*
X91659223Y-75681223D01*
X91677401Y-75664747D01*
X91697107Y-75650132D01*
X91718150Y-75637520D01*
X91740329Y-75627030D01*
X91763428Y-75618765D01*
X91787227Y-75612804D01*
X91811495Y-75609204D01*
X91835999Y-75608000D01*
X93076001Y-75608000D01*
X93100505Y-75609204D01*
X93100505Y-75609204D01*
G37*
D12*
G04 #@! TD*
G04 #@! TO.P,J4,1*
G04 #@! TO.N,Net-(J3-Pad2)*
X92456000Y-76708000D03*
D13*
G04 #@! TO.P,J4,2*
G04 #@! TO.N,+BATT*
X94996000Y-76708000D03*
G04 #@! TD*
G04 #@! TO.P,J5,2*
G04 #@! TO.N,Net-(J5-Pad2)*
X88900000Y-85852000D03*
D10*
G04 #@! TD*
G04 #@! TO.N,GND*
G04 #@! TO.C,J5*
G36*
X87004505Y-84753204D02*
X87028773Y-84756804D01*
X87052572Y-84762765D01*
X87075671Y-84771030D01*
X87097850Y-84781520D01*
X87118893Y-84794132D01*
X87138599Y-84808747D01*
X87156777Y-84825223D01*
X87173253Y-84843401D01*
X87187868Y-84863107D01*
X87200480Y-84884150D01*
X87210970Y-84906329D01*
X87219235Y-84929428D01*
X87225196Y-84953227D01*
X87228796Y-84977495D01*
X87230000Y-85001999D01*
X87230000Y-86702001D01*
X87228796Y-86726505D01*
X87225196Y-86750773D01*
X87219235Y-86774572D01*
X87210970Y-86797671D01*
X87200480Y-86819850D01*
X87187868Y-86840893D01*
X87173253Y-86860599D01*
X87156777Y-86878777D01*
X87138599Y-86895253D01*
X87118893Y-86909868D01*
X87097850Y-86922480D01*
X87075671Y-86932970D01*
X87052572Y-86941235D01*
X87028773Y-86947196D01*
X87004505Y-86950796D01*
X86980001Y-86952000D01*
X85739999Y-86952000D01*
X85715495Y-86950796D01*
X85691227Y-86947196D01*
X85667428Y-86941235D01*
X85644329Y-86932970D01*
X85622150Y-86922480D01*
X85601107Y-86909868D01*
X85581401Y-86895253D01*
X85563223Y-86878777D01*
X85546747Y-86860599D01*
X85532132Y-86840893D01*
X85519520Y-86819850D01*
X85509030Y-86797671D01*
X85500765Y-86774572D01*
X85494804Y-86750773D01*
X85491204Y-86726505D01*
X85490000Y-86702001D01*
X85490000Y-85001999D01*
X85491204Y-84977495D01*
X85494804Y-84953227D01*
X85500765Y-84929428D01*
X85509030Y-84906329D01*
X85519520Y-84884150D01*
X85532132Y-84863107D01*
X85546747Y-84843401D01*
X85563223Y-84825223D01*
X85581401Y-84808747D01*
X85601107Y-84794132D01*
X85622150Y-84781520D01*
X85644329Y-84771030D01*
X85667428Y-84762765D01*
X85691227Y-84756804D01*
X85715495Y-84753204D01*
X85739999Y-84752000D01*
X86980001Y-84752000D01*
X87004505Y-84753204D01*
X87004505Y-84753204D01*
G37*
D12*
G04 #@! TO.P,J5,1*
G04 #@! TO.N,GND*
X86360000Y-85852000D03*
G04 #@! TD*
D13*
G04 #@! TO.P,J6,2*
G04 #@! TO.N,+BATT*
X94996000Y-85852000D03*
D10*
G04 #@! TD*
G04 #@! TO.N,Net-(J5-Pad2)*
G04 #@! TO.C,J6*
G36*
X93100505Y-84753204D02*
X93124773Y-84756804D01*
X93148572Y-84762765D01*
X93171671Y-84771030D01*
X93193850Y-84781520D01*
X93214893Y-84794132D01*
X93234599Y-84808747D01*
X93252777Y-84825223D01*
X93269253Y-84843401D01*
X93283868Y-84863107D01*
X93296480Y-84884150D01*
X93306970Y-84906329D01*
X93315235Y-84929428D01*
X93321196Y-84953227D01*
X93324796Y-84977495D01*
X93326000Y-85001999D01*
X93326000Y-86702001D01*
X93324796Y-86726505D01*
X93321196Y-86750773D01*
X93315235Y-86774572D01*
X93306970Y-86797671D01*
X93296480Y-86819850D01*
X93283868Y-86840893D01*
X93269253Y-86860599D01*
X93252777Y-86878777D01*
X93234599Y-86895253D01*
X93214893Y-86909868D01*
X93193850Y-86922480D01*
X93171671Y-86932970D01*
X93148572Y-86941235D01*
X93124773Y-86947196D01*
X93100505Y-86950796D01*
X93076001Y-86952000D01*
X91835999Y-86952000D01*
X91811495Y-86950796D01*
X91787227Y-86947196D01*
X91763428Y-86941235D01*
X91740329Y-86932970D01*
X91718150Y-86922480D01*
X91697107Y-86909868D01*
X91677401Y-86895253D01*
X91659223Y-86878777D01*
X91642747Y-86860599D01*
X91628132Y-86840893D01*
X91615520Y-86819850D01*
X91605030Y-86797671D01*
X91596765Y-86774572D01*
X91590804Y-86750773D01*
X91587204Y-86726505D01*
X91586000Y-86702001D01*
X91586000Y-85001999D01*
X91587204Y-84977495D01*
X91590804Y-84953227D01*
X91596765Y-84929428D01*
X91605030Y-84906329D01*
X91615520Y-84884150D01*
X91628132Y-84863107D01*
X91642747Y-84843401D01*
X91659223Y-84825223D01*
X91677401Y-84808747D01*
X91697107Y-84794132D01*
X91718150Y-84781520D01*
X91740329Y-84771030D01*
X91763428Y-84762765D01*
X91787227Y-84756804D01*
X91811495Y-84753204D01*
X91835999Y-84752000D01*
X93076001Y-84752000D01*
X93100505Y-84753204D01*
X93100505Y-84753204D01*
G37*
D12*
G04 #@! TO.P,J6,1*
G04 #@! TO.N,Net-(J5-Pad2)*
X92456000Y-85852000D03*
G04 #@! TD*
D13*
G04 #@! TO.P,J7,2*
G04 #@! TO.N,/+3.3V*
X153924000Y-72136000D03*
D10*
G04 #@! TD*
G04 #@! TO.N,GND*
G04 #@! TO.C,J7*
G36*
X152028505Y-71037204D02*
X152052773Y-71040804D01*
X152076572Y-71046765D01*
X152099671Y-71055030D01*
X152121850Y-71065520D01*
X152142893Y-71078132D01*
X152162599Y-71092747D01*
X152180777Y-71109223D01*
X152197253Y-71127401D01*
X152211868Y-71147107D01*
X152224480Y-71168150D01*
X152234970Y-71190329D01*
X152243235Y-71213428D01*
X152249196Y-71237227D01*
X152252796Y-71261495D01*
X152254000Y-71285999D01*
X152254000Y-72986001D01*
X152252796Y-73010505D01*
X152249196Y-73034773D01*
X152243235Y-73058572D01*
X152234970Y-73081671D01*
X152224480Y-73103850D01*
X152211868Y-73124893D01*
X152197253Y-73144599D01*
X152180777Y-73162777D01*
X152162599Y-73179253D01*
X152142893Y-73193868D01*
X152121850Y-73206480D01*
X152099671Y-73216970D01*
X152076572Y-73225235D01*
X152052773Y-73231196D01*
X152028505Y-73234796D01*
X152004001Y-73236000D01*
X150763999Y-73236000D01*
X150739495Y-73234796D01*
X150715227Y-73231196D01*
X150691428Y-73225235D01*
X150668329Y-73216970D01*
X150646150Y-73206480D01*
X150625107Y-73193868D01*
X150605401Y-73179253D01*
X150587223Y-73162777D01*
X150570747Y-73144599D01*
X150556132Y-73124893D01*
X150543520Y-73103850D01*
X150533030Y-73081671D01*
X150524765Y-73058572D01*
X150518804Y-73034773D01*
X150515204Y-73010505D01*
X150514000Y-72986001D01*
X150514000Y-71285999D01*
X150515204Y-71261495D01*
X150518804Y-71237227D01*
X150524765Y-71213428D01*
X150533030Y-71190329D01*
X150543520Y-71168150D01*
X150556132Y-71147107D01*
X150570747Y-71127401D01*
X150587223Y-71109223D01*
X150605401Y-71092747D01*
X150625107Y-71078132D01*
X150646150Y-71065520D01*
X150668329Y-71055030D01*
X150691428Y-71046765D01*
X150715227Y-71040804D01*
X150739495Y-71037204D01*
X150763999Y-71036000D01*
X152004001Y-71036000D01*
X152028505Y-71037204D01*
X152028505Y-71037204D01*
G37*
D12*
G04 #@! TO.P,J7,1*
G04 #@! TO.N,GND*
X151384000Y-72136000D03*
G04 #@! TD*
D10*
G04 #@! TO.N,GND*
G04 #@! TO.C,J8*
G36*
X152028505Y-78657204D02*
X152052773Y-78660804D01*
X152076572Y-78666765D01*
X152099671Y-78675030D01*
X152121850Y-78685520D01*
X152142893Y-78698132D01*
X152162599Y-78712747D01*
X152180777Y-78729223D01*
X152197253Y-78747401D01*
X152211868Y-78767107D01*
X152224480Y-78788150D01*
X152234970Y-78810329D01*
X152243235Y-78833428D01*
X152249196Y-78857227D01*
X152252796Y-78881495D01*
X152254000Y-78905999D01*
X152254000Y-80606001D01*
X152252796Y-80630505D01*
X152249196Y-80654773D01*
X152243235Y-80678572D01*
X152234970Y-80701671D01*
X152224480Y-80723850D01*
X152211868Y-80744893D01*
X152197253Y-80764599D01*
X152180777Y-80782777D01*
X152162599Y-80799253D01*
X152142893Y-80813868D01*
X152121850Y-80826480D01*
X152099671Y-80836970D01*
X152076572Y-80845235D01*
X152052773Y-80851196D01*
X152028505Y-80854796D01*
X152004001Y-80856000D01*
X150763999Y-80856000D01*
X150739495Y-80854796D01*
X150715227Y-80851196D01*
X150691428Y-80845235D01*
X150668329Y-80836970D01*
X150646150Y-80826480D01*
X150625107Y-80813868D01*
X150605401Y-80799253D01*
X150587223Y-80782777D01*
X150570747Y-80764599D01*
X150556132Y-80744893D01*
X150543520Y-80723850D01*
X150533030Y-80701671D01*
X150524765Y-80678572D01*
X150518804Y-80654773D01*
X150515204Y-80630505D01*
X150514000Y-80606001D01*
X150514000Y-78905999D01*
X150515204Y-78881495D01*
X150518804Y-78857227D01*
X150524765Y-78833428D01*
X150533030Y-78810329D01*
X150543520Y-78788150D01*
X150556132Y-78767107D01*
X150570747Y-78747401D01*
X150587223Y-78729223D01*
X150605401Y-78712747D01*
X150625107Y-78698132D01*
X150646150Y-78685520D01*
X150668329Y-78675030D01*
X150691428Y-78666765D01*
X150715227Y-78660804D01*
X150739495Y-78657204D01*
X150763999Y-78656000D01*
X152004001Y-78656000D01*
X152028505Y-78657204D01*
X152028505Y-78657204D01*
G37*
D12*
G04 #@! TD*
G04 #@! TO.P,J8,1*
G04 #@! TO.N,GND*
X151384000Y-79756000D03*
D13*
G04 #@! TO.P,J8,2*
G04 #@! TO.N,/+5V*
X153924000Y-79756000D03*
G04 #@! TD*
D10*
G04 #@! TO.N,GND*
G04 #@! TO.C,J9*
G36*
X145424505Y-71037204D02*
X145448773Y-71040804D01*
X145472572Y-71046765D01*
X145495671Y-71055030D01*
X145517850Y-71065520D01*
X145538893Y-71078132D01*
X145558599Y-71092747D01*
X145576777Y-71109223D01*
X145593253Y-71127401D01*
X145607868Y-71147107D01*
X145620480Y-71168150D01*
X145630970Y-71190329D01*
X145639235Y-71213428D01*
X145645196Y-71237227D01*
X145648796Y-71261495D01*
X145650000Y-71285999D01*
X145650000Y-72986001D01*
X145648796Y-73010505D01*
X145645196Y-73034773D01*
X145639235Y-73058572D01*
X145630970Y-73081671D01*
X145620480Y-73103850D01*
X145607868Y-73124893D01*
X145593253Y-73144599D01*
X145576777Y-73162777D01*
X145558599Y-73179253D01*
X145538893Y-73193868D01*
X145517850Y-73206480D01*
X145495671Y-73216970D01*
X145472572Y-73225235D01*
X145448773Y-73231196D01*
X145424505Y-73234796D01*
X145400001Y-73236000D01*
X144159999Y-73236000D01*
X144135495Y-73234796D01*
X144111227Y-73231196D01*
X144087428Y-73225235D01*
X144064329Y-73216970D01*
X144042150Y-73206480D01*
X144021107Y-73193868D01*
X144001401Y-73179253D01*
X143983223Y-73162777D01*
X143966747Y-73144599D01*
X143952132Y-73124893D01*
X143939520Y-73103850D01*
X143929030Y-73081671D01*
X143920765Y-73058572D01*
X143914804Y-73034773D01*
X143911204Y-73010505D01*
X143910000Y-72986001D01*
X143910000Y-71285999D01*
X143911204Y-71261495D01*
X143914804Y-71237227D01*
X143920765Y-71213428D01*
X143929030Y-71190329D01*
X143939520Y-71168150D01*
X143952132Y-71147107D01*
X143966747Y-71127401D01*
X143983223Y-71109223D01*
X144001401Y-71092747D01*
X144021107Y-71078132D01*
X144042150Y-71065520D01*
X144064329Y-71055030D01*
X144087428Y-71046765D01*
X144111227Y-71040804D01*
X144135495Y-71037204D01*
X144159999Y-71036000D01*
X145400001Y-71036000D01*
X145424505Y-71037204D01*
X145424505Y-71037204D01*
G37*
D12*
G04 #@! TD*
G04 #@! TO.P,J9,1*
G04 #@! TO.N,GND*
X144780000Y-72136000D03*
D13*
G04 #@! TO.P,J9,2*
G04 #@! TO.N,/+12V*
X147320000Y-72136000D03*
G04 #@! TD*
D10*
G04 #@! TO.N,GND*
G04 #@! TO.C,J10*
G36*
X128152505Y-85769204D02*
X128176773Y-85772804D01*
X128200572Y-85778765D01*
X128223671Y-85787030D01*
X128245850Y-85797520D01*
X128266893Y-85810132D01*
X128286599Y-85824747D01*
X128304777Y-85841223D01*
X128321253Y-85859401D01*
X128335868Y-85879107D01*
X128348480Y-85900150D01*
X128358970Y-85922329D01*
X128367235Y-85945428D01*
X128373196Y-85969227D01*
X128376796Y-85993495D01*
X128378000Y-86017999D01*
X128378000Y-87718001D01*
X128376796Y-87742505D01*
X128373196Y-87766773D01*
X128367235Y-87790572D01*
X128358970Y-87813671D01*
X128348480Y-87835850D01*
X128335868Y-87856893D01*
X128321253Y-87876599D01*
X128304777Y-87894777D01*
X128286599Y-87911253D01*
X128266893Y-87925868D01*
X128245850Y-87938480D01*
X128223671Y-87948970D01*
X128200572Y-87957235D01*
X128176773Y-87963196D01*
X128152505Y-87966796D01*
X128128001Y-87968000D01*
X126887999Y-87968000D01*
X126863495Y-87966796D01*
X126839227Y-87963196D01*
X126815428Y-87957235D01*
X126792329Y-87948970D01*
X126770150Y-87938480D01*
X126749107Y-87925868D01*
X126729401Y-87911253D01*
X126711223Y-87894777D01*
X126694747Y-87876599D01*
X126680132Y-87856893D01*
X126667520Y-87835850D01*
X126657030Y-87813671D01*
X126648765Y-87790572D01*
X126642804Y-87766773D01*
X126639204Y-87742505D01*
X126638000Y-87718001D01*
X126638000Y-86017999D01*
X126639204Y-85993495D01*
X126642804Y-85969227D01*
X126648765Y-85945428D01*
X126657030Y-85922329D01*
X126667520Y-85900150D01*
X126680132Y-85879107D01*
X126694747Y-85859401D01*
X126711223Y-85841223D01*
X126729401Y-85824747D01*
X126749107Y-85810132D01*
X126770150Y-85797520D01*
X126792329Y-85787030D01*
X126815428Y-85778765D01*
X126839227Y-85772804D01*
X126863495Y-85769204D01*
X126887999Y-85768000D01*
X128128001Y-85768000D01*
X128152505Y-85769204D01*
X128152505Y-85769204D01*
G37*
D12*
G04 #@! TD*
G04 #@! TO.P,J10,1*
G04 #@! TO.N,GND*
X127508000Y-86868000D03*
D13*
G04 #@! TO.P,J10,2*
G04 #@! TO.N,/+15V*
X130048000Y-86868000D03*
G04 #@! TO.P,J10,3*
G04 #@! TO.N,/-15V*
X132588000Y-86868000D03*
G04 #@! TO.P,J10,4*
G04 #@! TO.N,/C_in*
X135128000Y-86868000D03*
G04 #@! TO.P,J10,5*
G04 #@! TO.N,/C_out*
X137668000Y-86868000D03*
G04 #@! TD*
D10*
G04 #@! TO.N,/+12V*
G04 #@! TO.C,J11*
G36*
X145424505Y-78657204D02*
X145448773Y-78660804D01*
X145472572Y-78666765D01*
X145495671Y-78675030D01*
X145517850Y-78685520D01*
X145538893Y-78698132D01*
X145558599Y-78712747D01*
X145576777Y-78729223D01*
X145593253Y-78747401D01*
X145607868Y-78767107D01*
X145620480Y-78788150D01*
X145630970Y-78810329D01*
X145639235Y-78833428D01*
X145645196Y-78857227D01*
X145648796Y-78881495D01*
X145650000Y-78905999D01*
X145650000Y-80606001D01*
X145648796Y-80630505D01*
X145645196Y-80654773D01*
X145639235Y-80678572D01*
X145630970Y-80701671D01*
X145620480Y-80723850D01*
X145607868Y-80744893D01*
X145593253Y-80764599D01*
X145576777Y-80782777D01*
X145558599Y-80799253D01*
X145538893Y-80813868D01*
X145517850Y-80826480D01*
X145495671Y-80836970D01*
X145472572Y-80845235D01*
X145448773Y-80851196D01*
X145424505Y-80854796D01*
X145400001Y-80856000D01*
X144159999Y-80856000D01*
X144135495Y-80854796D01*
X144111227Y-80851196D01*
X144087428Y-80845235D01*
X144064329Y-80836970D01*
X144042150Y-80826480D01*
X144021107Y-80813868D01*
X144001401Y-80799253D01*
X143983223Y-80782777D01*
X143966747Y-80764599D01*
X143952132Y-80744893D01*
X143939520Y-80723850D01*
X143929030Y-80701671D01*
X143920765Y-80678572D01*
X143914804Y-80654773D01*
X143911204Y-80630505D01*
X143910000Y-80606001D01*
X143910000Y-78905999D01*
X143911204Y-78881495D01*
X143914804Y-78857227D01*
X143920765Y-78833428D01*
X143929030Y-78810329D01*
X143939520Y-78788150D01*
X143952132Y-78767107D01*
X143966747Y-78747401D01*
X143983223Y-78729223D01*
X144001401Y-78712747D01*
X144021107Y-78698132D01*
X144042150Y-78685520D01*
X144064329Y-78675030D01*
X144087428Y-78666765D01*
X144111227Y-78660804D01*
X144135495Y-78657204D01*
X144159999Y-78656000D01*
X145400001Y-78656000D01*
X145424505Y-78657204D01*
X145424505Y-78657204D01*
G37*
D12*
G04 #@! TD*
G04 #@! TO.P,J11,1*
G04 #@! TO.N,/+12V*
X144780000Y-79756000D03*
D13*
G04 #@! TO.P,J11,2*
G04 #@! TO.N,/FAA_GND*
X147320000Y-79756000D03*
G04 #@! TD*
G04 #@! TO.P,J12,2*
G04 #@! TO.N,/POWR*
X101092000Y-76708000D03*
D10*
G04 #@! TD*
G04 #@! TO.N,+BATT*
G04 #@! TO.C,J12*
G36*
X99196505Y-75609204D02*
X99220773Y-75612804D01*
X99244572Y-75618765D01*
X99267671Y-75627030D01*
X99289850Y-75637520D01*
X99310893Y-75650132D01*
X99330599Y-75664747D01*
X99348777Y-75681223D01*
X99365253Y-75699401D01*
X99379868Y-75719107D01*
X99392480Y-75740150D01*
X99402970Y-75762329D01*
X99411235Y-75785428D01*
X99417196Y-75809227D01*
X99420796Y-75833495D01*
X99422000Y-75857999D01*
X99422000Y-77558001D01*
X99420796Y-77582505D01*
X99417196Y-77606773D01*
X99411235Y-77630572D01*
X99402970Y-77653671D01*
X99392480Y-77675850D01*
X99379868Y-77696893D01*
X99365253Y-77716599D01*
X99348777Y-77734777D01*
X99330599Y-77751253D01*
X99310893Y-77765868D01*
X99289850Y-77778480D01*
X99267671Y-77788970D01*
X99244572Y-77797235D01*
X99220773Y-77803196D01*
X99196505Y-77806796D01*
X99172001Y-77808000D01*
X97931999Y-77808000D01*
X97907495Y-77806796D01*
X97883227Y-77803196D01*
X97859428Y-77797235D01*
X97836329Y-77788970D01*
X97814150Y-77778480D01*
X97793107Y-77765868D01*
X97773401Y-77751253D01*
X97755223Y-77734777D01*
X97738747Y-77716599D01*
X97724132Y-77696893D01*
X97711520Y-77675850D01*
X97701030Y-77653671D01*
X97692765Y-77630572D01*
X97686804Y-77606773D01*
X97683204Y-77582505D01*
X97682000Y-77558001D01*
X97682000Y-75857999D01*
X97683204Y-75833495D01*
X97686804Y-75809227D01*
X97692765Y-75785428D01*
X97701030Y-75762329D01*
X97711520Y-75740150D01*
X97724132Y-75719107D01*
X97738747Y-75699401D01*
X97755223Y-75681223D01*
X97773401Y-75664747D01*
X97793107Y-75650132D01*
X97814150Y-75637520D01*
X97836329Y-75627030D01*
X97859428Y-75618765D01*
X97883227Y-75612804D01*
X97907495Y-75609204D01*
X97931999Y-75608000D01*
X99172001Y-75608000D01*
X99196505Y-75609204D01*
X99196505Y-75609204D01*
G37*
D12*
G04 #@! TO.P,J12,1*
G04 #@! TO.N,+BATT*
X98552000Y-76708000D03*
G04 #@! TD*
D10*
G04 #@! TO.N,Net-(D1-Pad1)*
G04 #@! TO.C,L3*
G36*
X110594505Y-61277204D02*
X110618773Y-61280804D01*
X110642572Y-61286765D01*
X110665671Y-61295030D01*
X110687850Y-61305520D01*
X110708893Y-61318132D01*
X110728599Y-61332747D01*
X110746777Y-61349223D01*
X110763253Y-61367401D01*
X110777868Y-61387107D01*
X110790480Y-61408150D01*
X110800970Y-61430329D01*
X110809235Y-61453428D01*
X110815196Y-61477227D01*
X110818796Y-61501495D01*
X110820000Y-61525999D01*
X110820000Y-62426001D01*
X110818796Y-62450505D01*
X110815196Y-62474773D01*
X110809235Y-62498572D01*
X110800970Y-62521671D01*
X110790480Y-62543850D01*
X110777868Y-62564893D01*
X110763253Y-62584599D01*
X110746777Y-62602777D01*
X110728599Y-62619253D01*
X110708893Y-62633868D01*
X110687850Y-62646480D01*
X110665671Y-62656970D01*
X110642572Y-62665235D01*
X110618773Y-62671196D01*
X110594505Y-62674796D01*
X110570001Y-62676000D01*
X109919999Y-62676000D01*
X109895495Y-62674796D01*
X109871227Y-62671196D01*
X109847428Y-62665235D01*
X109824329Y-62656970D01*
X109802150Y-62646480D01*
X109781107Y-62633868D01*
X109761401Y-62619253D01*
X109743223Y-62602777D01*
X109726747Y-62584599D01*
X109712132Y-62564893D01*
X109699520Y-62543850D01*
X109689030Y-62521671D01*
X109680765Y-62498572D01*
X109674804Y-62474773D01*
X109671204Y-62450505D01*
X109670000Y-62426001D01*
X109670000Y-61525999D01*
X109671204Y-61501495D01*
X109674804Y-61477227D01*
X109680765Y-61453428D01*
X109689030Y-61430329D01*
X109699520Y-61408150D01*
X109712132Y-61387107D01*
X109726747Y-61367401D01*
X109743223Y-61349223D01*
X109761401Y-61332747D01*
X109781107Y-61318132D01*
X109802150Y-61305520D01*
X109824329Y-61295030D01*
X109847428Y-61286765D01*
X109871227Y-61280804D01*
X109895495Y-61277204D01*
X109919999Y-61276000D01*
X110570001Y-61276000D01*
X110594505Y-61277204D01*
X110594505Y-61277204D01*
G37*
D11*
G04 #@! TD*
G04 #@! TO.P,L3,1*
G04 #@! TO.N,Net-(D1-Pad1)*
X110245000Y-61976000D03*
D10*
G04 #@! TO.N,/+3.3V*
G04 #@! TO.C,L3*
G36*
X108544505Y-61277204D02*
X108568773Y-61280804D01*
X108592572Y-61286765D01*
X108615671Y-61295030D01*
X108637850Y-61305520D01*
X108658893Y-61318132D01*
X108678599Y-61332747D01*
X108696777Y-61349223D01*
X108713253Y-61367401D01*
X108727868Y-61387107D01*
X108740480Y-61408150D01*
X108750970Y-61430329D01*
X108759235Y-61453428D01*
X108765196Y-61477227D01*
X108768796Y-61501495D01*
X108770000Y-61525999D01*
X108770000Y-62426001D01*
X108768796Y-62450505D01*
X108765196Y-62474773D01*
X108759235Y-62498572D01*
X108750970Y-62521671D01*
X108740480Y-62543850D01*
X108727868Y-62564893D01*
X108713253Y-62584599D01*
X108696777Y-62602777D01*
X108678599Y-62619253D01*
X108658893Y-62633868D01*
X108637850Y-62646480D01*
X108615671Y-62656970D01*
X108592572Y-62665235D01*
X108568773Y-62671196D01*
X108544505Y-62674796D01*
X108520001Y-62676000D01*
X107869999Y-62676000D01*
X107845495Y-62674796D01*
X107821227Y-62671196D01*
X107797428Y-62665235D01*
X107774329Y-62656970D01*
X107752150Y-62646480D01*
X107731107Y-62633868D01*
X107711401Y-62619253D01*
X107693223Y-62602777D01*
X107676747Y-62584599D01*
X107662132Y-62564893D01*
X107649520Y-62543850D01*
X107639030Y-62521671D01*
X107630765Y-62498572D01*
X107624804Y-62474773D01*
X107621204Y-62450505D01*
X107620000Y-62426001D01*
X107620000Y-61525999D01*
X107621204Y-61501495D01*
X107624804Y-61477227D01*
X107630765Y-61453428D01*
X107639030Y-61430329D01*
X107649520Y-61408150D01*
X107662132Y-61387107D01*
X107676747Y-61367401D01*
X107693223Y-61349223D01*
X107711401Y-61332747D01*
X107731107Y-61318132D01*
X107752150Y-61305520D01*
X107774329Y-61295030D01*
X107797428Y-61286765D01*
X107821227Y-61280804D01*
X107845495Y-61277204D01*
X107869999Y-61276000D01*
X108520001Y-61276000D01*
X108544505Y-61277204D01*
X108544505Y-61277204D01*
G37*
D11*
G04 #@! TD*
G04 #@! TO.P,L3,2*
G04 #@! TO.N,/+3.3V*
X108195000Y-61976000D03*
D10*
G04 #@! TO.N,/+5V*
G04 #@! TO.C,L4*
G36*
X121235505Y-61277204D02*
X121259773Y-61280804D01*
X121283572Y-61286765D01*
X121306671Y-61295030D01*
X121328850Y-61305520D01*
X121349893Y-61318132D01*
X121369599Y-61332747D01*
X121387777Y-61349223D01*
X121404253Y-61367401D01*
X121418868Y-61387107D01*
X121431480Y-61408150D01*
X121441970Y-61430329D01*
X121450235Y-61453428D01*
X121456196Y-61477227D01*
X121459796Y-61501495D01*
X121461000Y-61525999D01*
X121461000Y-62426001D01*
X121459796Y-62450505D01*
X121456196Y-62474773D01*
X121450235Y-62498572D01*
X121441970Y-62521671D01*
X121431480Y-62543850D01*
X121418868Y-62564893D01*
X121404253Y-62584599D01*
X121387777Y-62602777D01*
X121369599Y-62619253D01*
X121349893Y-62633868D01*
X121328850Y-62646480D01*
X121306671Y-62656970D01*
X121283572Y-62665235D01*
X121259773Y-62671196D01*
X121235505Y-62674796D01*
X121211001Y-62676000D01*
X120560999Y-62676000D01*
X120536495Y-62674796D01*
X120512227Y-62671196D01*
X120488428Y-62665235D01*
X120465329Y-62656970D01*
X120443150Y-62646480D01*
X120422107Y-62633868D01*
X120402401Y-62619253D01*
X120384223Y-62602777D01*
X120367747Y-62584599D01*
X120353132Y-62564893D01*
X120340520Y-62543850D01*
X120330030Y-62521671D01*
X120321765Y-62498572D01*
X120315804Y-62474773D01*
X120312204Y-62450505D01*
X120311000Y-62426001D01*
X120311000Y-61525999D01*
X120312204Y-61501495D01*
X120315804Y-61477227D01*
X120321765Y-61453428D01*
X120330030Y-61430329D01*
X120340520Y-61408150D01*
X120353132Y-61387107D01*
X120367747Y-61367401D01*
X120384223Y-61349223D01*
X120402401Y-61332747D01*
X120422107Y-61318132D01*
X120443150Y-61305520D01*
X120465329Y-61295030D01*
X120488428Y-61286765D01*
X120512227Y-61280804D01*
X120536495Y-61277204D01*
X120560999Y-61276000D01*
X121211001Y-61276000D01*
X121235505Y-61277204D01*
X121235505Y-61277204D01*
G37*
D11*
G04 #@! TD*
G04 #@! TO.P,L4,2*
G04 #@! TO.N,/+5V*
X120886000Y-61976000D03*
D10*
G04 #@! TO.N,Net-(D2-Pad1)*
G04 #@! TO.C,L4*
G36*
X123285505Y-61277204D02*
X123309773Y-61280804D01*
X123333572Y-61286765D01*
X123356671Y-61295030D01*
X123378850Y-61305520D01*
X123399893Y-61318132D01*
X123419599Y-61332747D01*
X123437777Y-61349223D01*
X123454253Y-61367401D01*
X123468868Y-61387107D01*
X123481480Y-61408150D01*
X123491970Y-61430329D01*
X123500235Y-61453428D01*
X123506196Y-61477227D01*
X123509796Y-61501495D01*
X123511000Y-61525999D01*
X123511000Y-62426001D01*
X123509796Y-62450505D01*
X123506196Y-62474773D01*
X123500235Y-62498572D01*
X123491970Y-62521671D01*
X123481480Y-62543850D01*
X123468868Y-62564893D01*
X123454253Y-62584599D01*
X123437777Y-62602777D01*
X123419599Y-62619253D01*
X123399893Y-62633868D01*
X123378850Y-62646480D01*
X123356671Y-62656970D01*
X123333572Y-62665235D01*
X123309773Y-62671196D01*
X123285505Y-62674796D01*
X123261001Y-62676000D01*
X122610999Y-62676000D01*
X122586495Y-62674796D01*
X122562227Y-62671196D01*
X122538428Y-62665235D01*
X122515329Y-62656970D01*
X122493150Y-62646480D01*
X122472107Y-62633868D01*
X122452401Y-62619253D01*
X122434223Y-62602777D01*
X122417747Y-62584599D01*
X122403132Y-62564893D01*
X122390520Y-62543850D01*
X122380030Y-62521671D01*
X122371765Y-62498572D01*
X122365804Y-62474773D01*
X122362204Y-62450505D01*
X122361000Y-62426001D01*
X122361000Y-61525999D01*
X122362204Y-61501495D01*
X122365804Y-61477227D01*
X122371765Y-61453428D01*
X122380030Y-61430329D01*
X122390520Y-61408150D01*
X122403132Y-61387107D01*
X122417747Y-61367401D01*
X122434223Y-61349223D01*
X122452401Y-61332747D01*
X122472107Y-61318132D01*
X122493150Y-61305520D01*
X122515329Y-61295030D01*
X122538428Y-61286765D01*
X122562227Y-61280804D01*
X122586495Y-61277204D01*
X122610999Y-61276000D01*
X123261001Y-61276000D01*
X123285505Y-61277204D01*
X123285505Y-61277204D01*
G37*
D11*
G04 #@! TD*
G04 #@! TO.P,L4,1*
G04 #@! TO.N,Net-(D2-Pad1)*
X122936000Y-61976000D03*
D10*
G04 #@! TO.N,Net-(D3-Pad1)*
G04 #@! TO.C,L5*
G36*
X136502505Y-61277204D02*
X136526773Y-61280804D01*
X136550572Y-61286765D01*
X136573671Y-61295030D01*
X136595850Y-61305520D01*
X136616893Y-61318132D01*
X136636599Y-61332747D01*
X136654777Y-61349223D01*
X136671253Y-61367401D01*
X136685868Y-61387107D01*
X136698480Y-61408150D01*
X136708970Y-61430329D01*
X136717235Y-61453428D01*
X136723196Y-61477227D01*
X136726796Y-61501495D01*
X136728000Y-61525999D01*
X136728000Y-62426001D01*
X136726796Y-62450505D01*
X136723196Y-62474773D01*
X136717235Y-62498572D01*
X136708970Y-62521671D01*
X136698480Y-62543850D01*
X136685868Y-62564893D01*
X136671253Y-62584599D01*
X136654777Y-62602777D01*
X136636599Y-62619253D01*
X136616893Y-62633868D01*
X136595850Y-62646480D01*
X136573671Y-62656970D01*
X136550572Y-62665235D01*
X136526773Y-62671196D01*
X136502505Y-62674796D01*
X136478001Y-62676000D01*
X135827999Y-62676000D01*
X135803495Y-62674796D01*
X135779227Y-62671196D01*
X135755428Y-62665235D01*
X135732329Y-62656970D01*
X135710150Y-62646480D01*
X135689107Y-62633868D01*
X135669401Y-62619253D01*
X135651223Y-62602777D01*
X135634747Y-62584599D01*
X135620132Y-62564893D01*
X135607520Y-62543850D01*
X135597030Y-62521671D01*
X135588765Y-62498572D01*
X135582804Y-62474773D01*
X135579204Y-62450505D01*
X135578000Y-62426001D01*
X135578000Y-61525999D01*
X135579204Y-61501495D01*
X135582804Y-61477227D01*
X135588765Y-61453428D01*
X135597030Y-61430329D01*
X135607520Y-61408150D01*
X135620132Y-61387107D01*
X135634747Y-61367401D01*
X135651223Y-61349223D01*
X135669401Y-61332747D01*
X135689107Y-61318132D01*
X135710150Y-61305520D01*
X135732329Y-61295030D01*
X135755428Y-61286765D01*
X135779227Y-61280804D01*
X135803495Y-61277204D01*
X135827999Y-61276000D01*
X136478001Y-61276000D01*
X136502505Y-61277204D01*
X136502505Y-61277204D01*
G37*
D11*
G04 #@! TD*
G04 #@! TO.P,L5,1*
G04 #@! TO.N,Net-(D3-Pad1)*
X136153000Y-61976000D03*
D10*
G04 #@! TO.N,/+12V*
G04 #@! TO.C,L5*
G36*
X134452505Y-61277204D02*
X134476773Y-61280804D01*
X134500572Y-61286765D01*
X134523671Y-61295030D01*
X134545850Y-61305520D01*
X134566893Y-61318132D01*
X134586599Y-61332747D01*
X134604777Y-61349223D01*
X134621253Y-61367401D01*
X134635868Y-61387107D01*
X134648480Y-61408150D01*
X134658970Y-61430329D01*
X134667235Y-61453428D01*
X134673196Y-61477227D01*
X134676796Y-61501495D01*
X134678000Y-61525999D01*
X134678000Y-62426001D01*
X134676796Y-62450505D01*
X134673196Y-62474773D01*
X134667235Y-62498572D01*
X134658970Y-62521671D01*
X134648480Y-62543850D01*
X134635868Y-62564893D01*
X134621253Y-62584599D01*
X134604777Y-62602777D01*
X134586599Y-62619253D01*
X134566893Y-62633868D01*
X134545850Y-62646480D01*
X134523671Y-62656970D01*
X134500572Y-62665235D01*
X134476773Y-62671196D01*
X134452505Y-62674796D01*
X134428001Y-62676000D01*
X133777999Y-62676000D01*
X133753495Y-62674796D01*
X133729227Y-62671196D01*
X133705428Y-62665235D01*
X133682329Y-62656970D01*
X133660150Y-62646480D01*
X133639107Y-62633868D01*
X133619401Y-62619253D01*
X133601223Y-62602777D01*
X133584747Y-62584599D01*
X133570132Y-62564893D01*
X133557520Y-62543850D01*
X133547030Y-62521671D01*
X133538765Y-62498572D01*
X133532804Y-62474773D01*
X133529204Y-62450505D01*
X133528000Y-62426001D01*
X133528000Y-61525999D01*
X133529204Y-61501495D01*
X133532804Y-61477227D01*
X133538765Y-61453428D01*
X133547030Y-61430329D01*
X133557520Y-61408150D01*
X133570132Y-61387107D01*
X133584747Y-61367401D01*
X133601223Y-61349223D01*
X133619401Y-61332747D01*
X133639107Y-61318132D01*
X133660150Y-61305520D01*
X133682329Y-61295030D01*
X133705428Y-61286765D01*
X133729227Y-61280804D01*
X133753495Y-61277204D01*
X133777999Y-61276000D01*
X134428001Y-61276000D01*
X134452505Y-61277204D01*
X134452505Y-61277204D01*
G37*
D11*
G04 #@! TD*
G04 #@! TO.P,L5,2*
G04 #@! TO.N,/+12V*
X134103000Y-61976000D03*
D14*
G04 #@! TO.P,RV1,1*
G04 #@! TO.N,/C_in*
X141264000Y-88392000D03*
D15*
G04 #@! TO.P,RV1,2*
G04 #@! TO.N,/C_out*
X142514000Y-85492000D03*
D14*
G04 #@! TO.P,RV1,3*
G04 #@! TO.N,GND*
X143764000Y-88392000D03*
G04 #@! TD*
D16*
G04 #@! TO.P,U1,1*
G04 #@! TO.N,GND*
X105156000Y-85344000D03*
G04 #@! TO.P,U1,2*
G04 #@! TO.N,/POWR*
X107696000Y-85344000D03*
G04 #@! TO.P,U1,3*
G04 #@! TO.N,Net-(U1-Pad3)*
X110236000Y-85344000D03*
G04 #@! TO.P,U1,5*
G04 #@! TO.N,Net-(U1-Pad5)*
X115316000Y-85344000D03*
G04 #@! TO.P,U1,6*
G04 #@! TO.N,Net-(L2-Pad1)*
X117856000Y-85344000D03*
G04 #@! TO.P,U1,7*
G04 #@! TO.N,Net-(JP1-Pad1)*
X120396000Y-85344000D03*
G04 #@! TO.P,U1,8*
G04 #@! TO.N,Net-(L1-Pad1)*
X122936000Y-85344000D03*
G04 #@! TD*
D17*
G04 #@! TO.P,U2,3*
G04 #@! TO.N,GND*
X108985000Y-75577000D03*
D18*
G04 #@! TO.P,U2,5*
X105585000Y-66427000D03*
G04 #@! TO.P,U2,4*
G04 #@! TO.N,/+3.3V*
X107285000Y-66427000D03*
G04 #@! TO.P,U2,3*
G04 #@! TO.N,GND*
X108985000Y-66427000D03*
G04 #@! TO.P,U2,2*
G04 #@! TO.N,Net-(D1-Pad1)*
X110685000Y-66427000D03*
G04 #@! TO.P,U2,1*
G04 #@! TO.N,/POWR*
X112385000Y-66427000D03*
G04 #@! TD*
G04 #@! TO.P,U3,1*
G04 #@! TO.N,/POWR*
X125320000Y-66542000D03*
G04 #@! TO.P,U3,2*
G04 #@! TO.N,Net-(D2-Pad1)*
X123620000Y-66542000D03*
G04 #@! TO.P,U3,3*
G04 #@! TO.N,GND*
X121920000Y-66542000D03*
G04 #@! TO.P,U3,4*
G04 #@! TO.N,/+5V*
X120220000Y-66542000D03*
G04 #@! TO.P,U3,5*
G04 #@! TO.N,GND*
X118520000Y-66542000D03*
D17*
G04 #@! TO.P,U3,3*
X121920000Y-75692000D03*
G04 #@! TD*
D18*
G04 #@! TO.P,U4,1*
G04 #@! TO.N,/POWR*
X138528000Y-66542000D03*
G04 #@! TO.P,U4,2*
G04 #@! TO.N,Net-(D3-Pad1)*
X136828000Y-66542000D03*
G04 #@! TO.P,U4,3*
G04 #@! TO.N,GND*
X135128000Y-66542000D03*
G04 #@! TO.P,U4,4*
G04 #@! TO.N,/+12V*
X133428000Y-66542000D03*
G04 #@! TO.P,U4,5*
G04 #@! TO.N,GND*
X131728000Y-66542000D03*
D17*
G04 #@! TO.P,U4,3*
X135128000Y-75692000D03*
G04 #@! TD*
D19*
G04 #@! TO.P,REF\002A\002A,*
G04 #@! TO.N,*
X99568000Y-85852000D03*
G04 #@! TD*
G04 #@! TO.P,REF\002A\002A,*
G04 #@! TO.N,*
X100076000Y-61976000D03*
G04 #@! TD*
G04 #@! TO.P,REF\002A\002A,*
G04 #@! TO.N,*
X151892000Y-59944000D03*
G04 #@! TD*
G04 #@! TO.P,REF\002A\002A,*
G04 #@! TO.N,*
X150876000Y-87884000D03*
G04 #@! TD*
D20*
G04 #@! TO.N,GND*
X121920000Y-63500000D03*
X131064000Y-58928000D03*
X135128000Y-63500000D03*
G04 #@! TO.N,/POWR*
X115316000Y-66040000D03*
X115316000Y-66040000D03*
X128524000Y-66040000D03*
X141732000Y-66040000D03*
G04 #@! TO.N,/+5V*
X121920000Y-70104000D03*
G04 #@! TO.N,/+12V*
X128524000Y-74676000D03*
X128524000Y-77724000D03*
G04 #@! TD*
D21*
G04 #@! TO.N,GND*
X138702000Y-60960000D02*
X138176000Y-60434000D01*
X140716000Y-60960000D02*
X138702000Y-60960000D01*
X137178000Y-59436000D02*
X138176000Y-60434000D01*
X136144000Y-59436000D02*
X137178000Y-59436000D01*
G04 #@! TO.N,/POWR*
X115316000Y-66040000D02*
X115316000Y-62992000D01*
X112772000Y-66040000D02*
X112385000Y-66427000D01*
X115316000Y-66040000D02*
X112772000Y-66040000D01*
X125822000Y-66040000D02*
X125320000Y-66542000D01*
X128524000Y-66040000D02*
X125822000Y-66040000D01*
X128524000Y-66040000D02*
X128524000Y-63010000D01*
X139030000Y-66040000D02*
X138528000Y-66542000D01*
X141732000Y-66040000D02*
X139030000Y-66040000D01*
X141732000Y-64026000D02*
X140716000Y-63010000D01*
X141732000Y-66040000D02*
X141732000Y-64026000D01*
X107696000Y-83820000D02*
X107696000Y-85344000D01*
X103632000Y-82296000D02*
X106172000Y-82296000D01*
X101092000Y-76708000D02*
X101092000Y-79756000D01*
X106172000Y-82296000D02*
X107696000Y-83820000D01*
X101092000Y-79756000D02*
X103632000Y-82296000D01*
G04 #@! TO.N,/+3.3V*
X107285000Y-62886000D02*
X107285000Y-66427000D01*
X108195000Y-61976000D02*
X107285000Y-62886000D01*
X108195000Y-59445000D02*
X108204000Y-59436000D01*
X108195000Y-61976000D02*
X108195000Y-59445000D01*
X153924000Y-67056000D02*
X153924000Y-72136000D01*
X144272000Y-57404000D02*
X153924000Y-67056000D01*
X108204000Y-59436000D02*
X110236000Y-57404000D01*
X110236000Y-57404000D02*
X144272000Y-57404000D01*
G04 #@! TO.N,/+5V*
X120220000Y-62642000D02*
X120220000Y-66542000D01*
X120886000Y-61976000D02*
X120220000Y-62642000D01*
X120886000Y-61976000D02*
X120886000Y-59436000D01*
X120220000Y-66542000D02*
X120220000Y-68292000D01*
X121920000Y-69992000D02*
X121920000Y-70104000D01*
X120220000Y-68292000D02*
X121920000Y-69992000D01*
G04 #@! TO.N,/+12V*
X133428000Y-62651000D02*
X133428000Y-66542000D01*
X134103000Y-61976000D02*
X133428000Y-62651000D01*
X134103000Y-59445000D02*
X134094000Y-59436000D01*
X134103000Y-61976000D02*
X134103000Y-59445000D01*
X128524000Y-70104000D02*
X128524000Y-74676000D01*
X128524000Y-70104000D02*
X133096000Y-70104000D01*
X133428000Y-69772000D02*
X133428000Y-66542000D01*
X133096000Y-70104000D02*
X133428000Y-69772000D01*
X147320000Y-70786000D02*
X147320000Y-72136000D01*
X146638000Y-70104000D02*
X147320000Y-70786000D01*
X133096000Y-70104000D02*
X146638000Y-70104000D01*
X147320000Y-72366000D02*
X144780000Y-74906000D01*
X147320000Y-72136000D02*
X147320000Y-72366000D01*
X144780000Y-74906000D02*
X144780000Y-76708000D01*
X144780000Y-76708000D02*
X144780000Y-79756000D01*
X128524000Y-74676000D02*
X128524000Y-77724000D01*
G04 #@! TO.N,Net-(D1-Pad1)*
X110685000Y-62416000D02*
X110245000Y-61976000D01*
X110685000Y-66427000D02*
X110685000Y-62416000D01*
X110753000Y-62484000D02*
X110245000Y-61976000D01*
X112776000Y-62484000D02*
X110753000Y-62484000D01*
G04 #@! TO.N,Net-(D2-Pad1)*
X123620000Y-62660000D02*
X122936000Y-61976000D01*
X123620000Y-66542000D02*
X123620000Y-62660000D01*
X125458000Y-61976000D02*
X125984000Y-62502000D01*
X122936000Y-61976000D02*
X125458000Y-61976000D01*
G04 #@! TO.N,Net-(D3-Pad1)*
X136828000Y-62651000D02*
X136153000Y-61976000D01*
X136828000Y-66542000D02*
X136828000Y-62651000D01*
X137668000Y-61976000D02*
X138176000Y-62484000D01*
X136153000Y-61976000D02*
X137668000Y-61976000D01*
G04 #@! TO.N,Net-(J1-Pad2)*
X88900000Y-67564000D02*
X92456000Y-67564000D01*
G04 #@! TO.N,+BATT*
X94996000Y-84502000D02*
X94996000Y-76708000D01*
X94996000Y-85852000D02*
X94996000Y-84502000D01*
X94996000Y-67564000D02*
X94996000Y-76708000D01*
X94996000Y-76708000D02*
X98552000Y-76708000D01*
G04 #@! TO.N,Net-(J3-Pad2)*
X88900000Y-76708000D02*
X92456000Y-76708000D01*
G04 #@! TO.N,Net-(J5-Pad2)*
X88900000Y-85852000D02*
X92456000Y-85852000D01*
G04 #@! TO.N,/C_in*
X140364000Y-88392000D02*
X139348000Y-89408000D01*
X141264000Y-88392000D02*
X140364000Y-88392000D01*
X139348000Y-89408000D02*
X137438000Y-89408000D01*
X135128000Y-87098000D02*
X135128000Y-86868000D01*
X137438000Y-89408000D02*
X135128000Y-87098000D01*
G04 #@! TO.N,/C_out*
X137668000Y-86638000D02*
X137668000Y-86868000D01*
X138814000Y-85492000D02*
X137668000Y-86638000D01*
X142514000Y-85492000D02*
X138814000Y-85492000D01*
G04 #@! TD*
D22*
G04 #@! TO.N,GND*
G36*
X155779001Y-91263000D02*
X84505000Y-91263000D01*
X84505000Y-86137750D01*
X84855000Y-86137750D01*
X84855000Y-87078310D01*
X84951673Y-87311699D01*
X85130302Y-87490327D01*
X85363691Y-87587000D01*
X86074250Y-87587000D01*
X86233000Y-87428250D01*
X86233000Y-85979000D01*
X85013750Y-85979000D01*
X84855000Y-86137750D01*
X84505000Y-86137750D01*
X84505000Y-84625690D01*
X84855000Y-84625690D01*
X84855000Y-85566250D01*
X85013750Y-85725000D01*
X86233000Y-85725000D01*
X86233000Y-84275750D01*
X86074250Y-84117000D01*
X85363691Y-84117000D01*
X85130302Y-84213673D01*
X84951673Y-84392301D01*
X84855000Y-84625690D01*
X84505000Y-84625690D01*
X84505000Y-76993750D01*
X84855000Y-76993750D01*
X84855000Y-77934310D01*
X84951673Y-78167699D01*
X85130302Y-78346327D01*
X85363691Y-78443000D01*
X86074250Y-78443000D01*
X86233000Y-78284250D01*
X86233000Y-76835000D01*
X85013750Y-76835000D01*
X84855000Y-76993750D01*
X84505000Y-76993750D01*
X84505000Y-75481690D01*
X84855000Y-75481690D01*
X84855000Y-76422250D01*
X85013750Y-76581000D01*
X86233000Y-76581000D01*
X86233000Y-75131750D01*
X86074250Y-74973000D01*
X85363691Y-74973000D01*
X85130302Y-75069673D01*
X84951673Y-75248301D01*
X84855000Y-75481690D01*
X84505000Y-75481690D01*
X84505000Y-67849750D01*
X84855000Y-67849750D01*
X84855000Y-68790310D01*
X84951673Y-69023699D01*
X85130302Y-69202327D01*
X85363691Y-69299000D01*
X86074250Y-69299000D01*
X86233000Y-69140250D01*
X86233000Y-67691000D01*
X85013750Y-67691000D01*
X84855000Y-67849750D01*
X84505000Y-67849750D01*
X84505000Y-66337690D01*
X84855000Y-66337690D01*
X84855000Y-67278250D01*
X85013750Y-67437000D01*
X86233000Y-67437000D01*
X86233000Y-65987750D01*
X86487000Y-65987750D01*
X86487000Y-67437000D01*
X86507000Y-67437000D01*
X86507000Y-67691000D01*
X86487000Y-67691000D01*
X86487000Y-69140250D01*
X86645750Y-69299000D01*
X87356309Y-69299000D01*
X87589698Y-69202327D01*
X87768327Y-69023699D01*
X87825364Y-68885999D01*
X88312779Y-69211678D01*
X88900000Y-69328484D01*
X89487222Y-69211678D01*
X89985044Y-68879044D01*
X90317678Y-68381221D01*
X90329060Y-68324000D01*
X90938560Y-68324000D01*
X90938560Y-68414001D01*
X91006873Y-68757436D01*
X91201414Y-69048586D01*
X91492564Y-69243127D01*
X91835999Y-69311440D01*
X93076001Y-69311440D01*
X93419436Y-69243127D01*
X93710586Y-69048586D01*
X93867413Y-68813878D01*
X93910956Y-68879044D01*
X94236000Y-69096231D01*
X94236001Y-75175768D01*
X93910956Y-75392956D01*
X93867414Y-75458122D01*
X93710586Y-75223414D01*
X93419436Y-75028873D01*
X93076001Y-74960560D01*
X91835999Y-74960560D01*
X91492564Y-75028873D01*
X91201414Y-75223414D01*
X91006873Y-75514564D01*
X90938560Y-75857999D01*
X90938560Y-75948000D01*
X90329060Y-75948000D01*
X90317678Y-75890778D01*
X89985044Y-75392956D01*
X89487221Y-75060322D01*
X88900000Y-74943516D01*
X88312778Y-75060322D01*
X87825364Y-75386001D01*
X87768327Y-75248301D01*
X87589698Y-75069673D01*
X87356309Y-74973000D01*
X86645750Y-74973000D01*
X86487000Y-75131750D01*
X86487000Y-76581000D01*
X86507000Y-76581000D01*
X86507000Y-76835000D01*
X86487000Y-76835000D01*
X86487000Y-78284250D01*
X86645750Y-78443000D01*
X87356309Y-78443000D01*
X87589698Y-78346327D01*
X87768327Y-78167699D01*
X87825364Y-78029999D01*
X88312779Y-78355678D01*
X88900000Y-78472484D01*
X89487222Y-78355678D01*
X89985044Y-78023044D01*
X90317678Y-77525221D01*
X90329060Y-77468000D01*
X90938560Y-77468000D01*
X90938560Y-77558001D01*
X91006873Y-77901436D01*
X91201414Y-78192586D01*
X91492564Y-78387127D01*
X91835999Y-78455440D01*
X93076001Y-78455440D01*
X93419436Y-78387127D01*
X93710586Y-78192586D01*
X93867413Y-77957878D01*
X93910956Y-78023044D01*
X94236001Y-78240232D01*
X94236000Y-84319769D01*
X93910956Y-84536956D01*
X93867414Y-84602122D01*
X93710586Y-84367414D01*
X93419436Y-84172873D01*
X93076001Y-84104560D01*
X91835999Y-84104560D01*
X91492564Y-84172873D01*
X91201414Y-84367414D01*
X91006873Y-84658564D01*
X90938560Y-85001999D01*
X90938560Y-85092000D01*
X90329060Y-85092000D01*
X90317678Y-85034778D01*
X89985044Y-84536956D01*
X89487221Y-84204322D01*
X88900000Y-84087516D01*
X88312778Y-84204322D01*
X87825364Y-84530001D01*
X87768327Y-84392301D01*
X87589698Y-84213673D01*
X87356309Y-84117000D01*
X86645750Y-84117000D01*
X86487000Y-84275750D01*
X86487000Y-85725000D01*
X86507000Y-85725000D01*
X86507000Y-85979000D01*
X86487000Y-85979000D01*
X86487000Y-87428250D01*
X86645750Y-87587000D01*
X87356309Y-87587000D01*
X87589698Y-87490327D01*
X87768327Y-87311699D01*
X87825364Y-87173999D01*
X88312779Y-87499678D01*
X88900000Y-87616484D01*
X89487222Y-87499678D01*
X89985044Y-87167044D01*
X90317678Y-86669221D01*
X90329060Y-86612000D01*
X90938560Y-86612000D01*
X90938560Y-86702001D01*
X91006873Y-87045436D01*
X91201414Y-87336586D01*
X91492564Y-87531127D01*
X91835999Y-87599440D01*
X93076001Y-87599440D01*
X93419436Y-87531127D01*
X93710586Y-87336586D01*
X93867413Y-87101878D01*
X93910956Y-87167044D01*
X94408779Y-87499678D01*
X94996000Y-87616484D01*
X95583222Y-87499678D01*
X96081044Y-87167044D01*
X96413678Y-86669221D01*
X96501000Y-86230225D01*
X96501000Y-85473774D01*
X96471978Y-85327866D01*
X96933000Y-85327866D01*
X96933000Y-86376134D01*
X97334155Y-87344608D01*
X98075392Y-88085845D01*
X99043866Y-88487000D01*
X100092134Y-88487000D01*
X101060608Y-88085845D01*
X101801845Y-87344608D01*
X101880900Y-87153750D01*
X126003000Y-87153750D01*
X126003000Y-88094310D01*
X126099673Y-88327699D01*
X126278302Y-88506327D01*
X126511691Y-88603000D01*
X127222250Y-88603000D01*
X127381000Y-88444250D01*
X127381000Y-86995000D01*
X126161750Y-86995000D01*
X126003000Y-87153750D01*
X101880900Y-87153750D01*
X102198102Y-86387958D01*
X104291647Y-86387958D01*
X104371920Y-86639259D01*
X104927279Y-86840718D01*
X105517458Y-86814315D01*
X105940080Y-86639259D01*
X106020353Y-86387958D01*
X105156000Y-85523605D01*
X104291647Y-86387958D01*
X102198102Y-86387958D01*
X102203000Y-86376134D01*
X102203000Y-85327866D01*
X102114944Y-85115279D01*
X103659282Y-85115279D01*
X103685685Y-85705458D01*
X103860741Y-86128080D01*
X104112042Y-86208353D01*
X104976395Y-85344000D01*
X104112042Y-84479647D01*
X103860741Y-84559920D01*
X103659282Y-85115279D01*
X102114944Y-85115279D01*
X101801845Y-84359392D01*
X101742495Y-84300042D01*
X104291647Y-84300042D01*
X105156000Y-85164395D01*
X106020353Y-84300042D01*
X105940080Y-84048741D01*
X105384721Y-83847282D01*
X104794542Y-83873685D01*
X104371920Y-84048741D01*
X104291647Y-84300042D01*
X101742495Y-84300042D01*
X101060608Y-83618155D01*
X100092134Y-83217000D01*
X99043866Y-83217000D01*
X98075392Y-83618155D01*
X97334155Y-84359392D01*
X96933000Y-85327866D01*
X96471978Y-85327866D01*
X96413678Y-85034778D01*
X96081044Y-84536956D01*
X95756000Y-84319769D01*
X95756000Y-78240231D01*
X96081044Y-78023044D01*
X96413678Y-77525221D01*
X96425060Y-77468000D01*
X97034560Y-77468000D01*
X97034560Y-77558001D01*
X97102873Y-77901436D01*
X97297414Y-78192586D01*
X97588564Y-78387127D01*
X97931999Y-78455440D01*
X99172001Y-78455440D01*
X99515436Y-78387127D01*
X99806586Y-78192586D01*
X99963413Y-77957878D01*
X100006956Y-78023044D01*
X100332001Y-78240231D01*
X100332001Y-79681148D01*
X100317112Y-79756000D01*
X100332001Y-79830852D01*
X100376097Y-80052537D01*
X100544072Y-80303929D01*
X100607528Y-80346329D01*
X103041673Y-82780476D01*
X103084071Y-82843929D01*
X103147524Y-82886327D01*
X103147526Y-82886329D01*
X103272902Y-82970102D01*
X103335463Y-83011904D01*
X103557148Y-83056000D01*
X103557152Y-83056000D01*
X103631999Y-83070888D01*
X103706846Y-83056000D01*
X105857199Y-83056000D01*
X106877061Y-84075863D01*
X106854815Y-84085078D01*
X106437078Y-84502815D01*
X106417845Y-84549247D01*
X106199958Y-84479647D01*
X105335605Y-85344000D01*
X106199958Y-86208353D01*
X106417845Y-86138753D01*
X106437078Y-86185185D01*
X106854815Y-86602922D01*
X107400615Y-86829000D01*
X107991385Y-86829000D01*
X108537185Y-86602922D01*
X108954922Y-86185185D01*
X108966000Y-86158440D01*
X108977078Y-86185185D01*
X109394815Y-86602922D01*
X109940615Y-86829000D01*
X110531385Y-86829000D01*
X111077185Y-86602922D01*
X111494922Y-86185185D01*
X111721000Y-85639385D01*
X111721000Y-85048615D01*
X113831000Y-85048615D01*
X113831000Y-85639385D01*
X114057078Y-86185185D01*
X114474815Y-86602922D01*
X115020615Y-86829000D01*
X115611385Y-86829000D01*
X116157185Y-86602922D01*
X116574922Y-86185185D01*
X116586000Y-86158440D01*
X116597078Y-86185185D01*
X117014815Y-86602922D01*
X117560615Y-86829000D01*
X118151385Y-86829000D01*
X118697185Y-86602922D01*
X119114922Y-86185185D01*
X119126000Y-86158440D01*
X119137078Y-86185185D01*
X119554815Y-86602922D01*
X120100615Y-86829000D01*
X120691385Y-86829000D01*
X121237185Y-86602922D01*
X121654922Y-86185185D01*
X121666000Y-86158440D01*
X121677078Y-86185185D01*
X122094815Y-86602922D01*
X122640615Y-86829000D01*
X123231385Y-86829000D01*
X123777185Y-86602922D01*
X124194922Y-86185185D01*
X124420045Y-85641690D01*
X126003000Y-85641690D01*
X126003000Y-86582250D01*
X126161750Y-86741000D01*
X127381000Y-86741000D01*
X127381000Y-85291750D01*
X127635000Y-85291750D01*
X127635000Y-86741000D01*
X127655000Y-86741000D01*
X127655000Y-86995000D01*
X127635000Y-86995000D01*
X127635000Y-88444250D01*
X127793750Y-88603000D01*
X128504309Y-88603000D01*
X128737698Y-88506327D01*
X128916327Y-88327699D01*
X128973364Y-88189999D01*
X129460779Y-88515678D01*
X130048000Y-88632484D01*
X130635222Y-88515678D01*
X131133044Y-88183044D01*
X131318000Y-87906237D01*
X131502956Y-88183044D01*
X132000779Y-88515678D01*
X132588000Y-88632484D01*
X133175222Y-88515678D01*
X133673044Y-88183044D01*
X133858000Y-87906237D01*
X134042956Y-88183044D01*
X134540779Y-88515678D01*
X135128000Y-88632484D01*
X135511416Y-88556218D01*
X136847673Y-89892476D01*
X136890071Y-89955929D01*
X136953524Y-89998327D01*
X136953526Y-89998329D01*
X137078902Y-90082102D01*
X137141463Y-90123904D01*
X137363148Y-90168000D01*
X137363152Y-90168000D01*
X137437999Y-90182888D01*
X137512846Y-90168000D01*
X139273153Y-90168000D01*
X139348000Y-90182888D01*
X139422847Y-90168000D01*
X139422852Y-90168000D01*
X139644537Y-90123904D01*
X139895929Y-89955929D01*
X139938331Y-89892470D01*
X140171058Y-89659743D01*
X140366235Y-89790157D01*
X140614000Y-89839440D01*
X141914000Y-89839440D01*
X142161765Y-89790157D01*
X142371809Y-89649809D01*
X142512157Y-89439765D01*
X142517721Y-89411791D01*
X142575673Y-89551699D01*
X142754302Y-89730327D01*
X142987691Y-89827000D01*
X143478250Y-89827000D01*
X143637000Y-89668250D01*
X143637000Y-88519000D01*
X143891000Y-88519000D01*
X143891000Y-89668250D01*
X144049750Y-89827000D01*
X144540309Y-89827000D01*
X144773698Y-89730327D01*
X144952327Y-89551699D01*
X145049000Y-89318310D01*
X145049000Y-88677750D01*
X144890250Y-88519000D01*
X143891000Y-88519000D01*
X143637000Y-88519000D01*
X143617000Y-88519000D01*
X143617000Y-88265000D01*
X143637000Y-88265000D01*
X143637000Y-87115750D01*
X143891000Y-87115750D01*
X143891000Y-88265000D01*
X144890250Y-88265000D01*
X145049000Y-88106250D01*
X145049000Y-87465690D01*
X145005167Y-87359866D01*
X148241000Y-87359866D01*
X148241000Y-88408134D01*
X148642155Y-89376608D01*
X149383392Y-90117845D01*
X150351866Y-90519000D01*
X151400134Y-90519000D01*
X152368608Y-90117845D01*
X153109845Y-89376608D01*
X153511000Y-88408134D01*
X153511000Y-87359866D01*
X153109845Y-86391392D01*
X152368608Y-85650155D01*
X151400134Y-85249000D01*
X150351866Y-85249000D01*
X149383392Y-85650155D01*
X148642155Y-86391392D01*
X148241000Y-87359866D01*
X145005167Y-87359866D01*
X144952327Y-87232301D01*
X144773698Y-87053673D01*
X144540309Y-86957000D01*
X144049750Y-86957000D01*
X143891000Y-87115750D01*
X143637000Y-87115750D01*
X143478250Y-86957000D01*
X142987691Y-86957000D01*
X142754302Y-87053673D01*
X142575673Y-87232301D01*
X142517721Y-87372209D01*
X142512157Y-87344235D01*
X142371809Y-87134191D01*
X142161765Y-86993843D01*
X141914000Y-86944560D01*
X140614000Y-86944560D01*
X140366235Y-86993843D01*
X140156191Y-87134191D01*
X140015843Y-87344235D01*
X139966560Y-87592000D01*
X139966560Y-87743517D01*
X139816071Y-87844071D01*
X139773671Y-87907527D01*
X139033199Y-88648000D01*
X137752803Y-88648000D01*
X137725791Y-88620989D01*
X138255222Y-88515678D01*
X138753044Y-88183044D01*
X139085678Y-87685221D01*
X139173000Y-87246225D01*
X139173000Y-86489774D01*
X139126218Y-86254584D01*
X139128802Y-86252000D01*
X140866560Y-86252000D01*
X140866560Y-86292000D01*
X140915843Y-86539765D01*
X141056191Y-86749809D01*
X141266235Y-86890157D01*
X141514000Y-86939440D01*
X143514000Y-86939440D01*
X143761765Y-86890157D01*
X143971809Y-86749809D01*
X144112157Y-86539765D01*
X144161440Y-86292000D01*
X144161440Y-84692000D01*
X144112157Y-84444235D01*
X143971809Y-84234191D01*
X143761765Y-84093843D01*
X143514000Y-84044560D01*
X141514000Y-84044560D01*
X141266235Y-84093843D01*
X141056191Y-84234191D01*
X140915843Y-84444235D01*
X140866560Y-84692000D01*
X140866560Y-84732000D01*
X138888848Y-84732000D01*
X138814000Y-84717112D01*
X138739152Y-84732000D01*
X138739148Y-84732000D01*
X138565605Y-84766520D01*
X138517462Y-84776096D01*
X138330418Y-84901076D01*
X138266071Y-84944071D01*
X138223671Y-85007527D01*
X138051416Y-85179782D01*
X137668000Y-85103516D01*
X137080778Y-85220322D01*
X136582956Y-85552956D01*
X136398000Y-85829763D01*
X136213044Y-85552956D01*
X135715221Y-85220322D01*
X135128000Y-85103516D01*
X134540778Y-85220322D01*
X134042956Y-85552956D01*
X133858000Y-85829763D01*
X133673044Y-85552956D01*
X133175221Y-85220322D01*
X132588000Y-85103516D01*
X132000778Y-85220322D01*
X131502956Y-85552956D01*
X131318000Y-85829763D01*
X131133044Y-85552956D01*
X130635221Y-85220322D01*
X130048000Y-85103516D01*
X129460778Y-85220322D01*
X128973364Y-85546001D01*
X128916327Y-85408301D01*
X128737698Y-85229673D01*
X128504309Y-85133000D01*
X127793750Y-85133000D01*
X127635000Y-85291750D01*
X127381000Y-85291750D01*
X127222250Y-85133000D01*
X126511691Y-85133000D01*
X126278302Y-85229673D01*
X126099673Y-85408301D01*
X126003000Y-85641690D01*
X124420045Y-85641690D01*
X124421000Y-85639385D01*
X124421000Y-85048615D01*
X124194922Y-84502815D01*
X123777185Y-84085078D01*
X123231385Y-83859000D01*
X122640615Y-83859000D01*
X122094815Y-84085078D01*
X121677078Y-84502815D01*
X121666000Y-84529560D01*
X121654922Y-84502815D01*
X121237185Y-84085078D01*
X120691385Y-83859000D01*
X120100615Y-83859000D01*
X119554815Y-84085078D01*
X119137078Y-84502815D01*
X119126000Y-84529560D01*
X119114922Y-84502815D01*
X118697185Y-84085078D01*
X118151385Y-83859000D01*
X117560615Y-83859000D01*
X117014815Y-84085078D01*
X116597078Y-84502815D01*
X116586000Y-84529560D01*
X116574922Y-84502815D01*
X116157185Y-84085078D01*
X115611385Y-83859000D01*
X115020615Y-83859000D01*
X114474815Y-84085078D01*
X114057078Y-84502815D01*
X113831000Y-85048615D01*
X111721000Y-85048615D01*
X111494922Y-84502815D01*
X111077185Y-84085078D01*
X110531385Y-83859000D01*
X109940615Y-83859000D01*
X109394815Y-84085078D01*
X108977078Y-84502815D01*
X108966000Y-84529560D01*
X108954922Y-84502815D01*
X108537185Y-84085078D01*
X108456000Y-84051450D01*
X108456000Y-83894846D01*
X108470888Y-83819999D01*
X108456000Y-83745152D01*
X108456000Y-83745148D01*
X108411904Y-83523463D01*
X108370102Y-83460902D01*
X108286329Y-83335526D01*
X108286327Y-83335524D01*
X108243929Y-83272071D01*
X108180476Y-83229673D01*
X106762331Y-81811530D01*
X106719929Y-81748071D01*
X106468537Y-81580096D01*
X106246852Y-81536000D01*
X106246847Y-81536000D01*
X106172000Y-81521112D01*
X106097153Y-81536000D01*
X103946803Y-81536000D01*
X103226715Y-80815913D01*
X103458690Y-80912000D01*
X108699250Y-80912000D01*
X108858000Y-80753250D01*
X108858000Y-75704000D01*
X109112000Y-75704000D01*
X109112000Y-80753250D01*
X109270750Y-80912000D01*
X114511310Y-80912000D01*
X114744699Y-80815327D01*
X114923327Y-80636698D01*
X115020000Y-80403309D01*
X115020000Y-75977750D01*
X115885000Y-75977750D01*
X115885000Y-80518309D01*
X115981673Y-80751698D01*
X116160301Y-80930327D01*
X116393690Y-81027000D01*
X121634250Y-81027000D01*
X121793000Y-80868250D01*
X121793000Y-75819000D01*
X116043750Y-75819000D01*
X115885000Y-75977750D01*
X115020000Y-75977750D01*
X115020000Y-75862750D01*
X114861250Y-75704000D01*
X109112000Y-75704000D01*
X108858000Y-75704000D01*
X103108750Y-75704000D01*
X102950000Y-75862750D01*
X102950000Y-80403309D01*
X103046088Y-80635286D01*
X101852000Y-79441199D01*
X101852000Y-78240231D01*
X102177044Y-78023044D01*
X102509678Y-77525221D01*
X102597000Y-77086225D01*
X102597000Y-76329774D01*
X102509678Y-75890778D01*
X102177044Y-75392956D01*
X101679221Y-75060322D01*
X101092000Y-74943516D01*
X100504778Y-75060322D01*
X100006956Y-75392956D01*
X99963414Y-75458122D01*
X99806586Y-75223414D01*
X99515436Y-75028873D01*
X99172001Y-74960560D01*
X97931999Y-74960560D01*
X97588564Y-75028873D01*
X97297414Y-75223414D01*
X97102873Y-75514564D01*
X97034560Y-75857999D01*
X97034560Y-75948000D01*
X96425060Y-75948000D01*
X96413678Y-75890778D01*
X96081044Y-75392956D01*
X95756000Y-75175769D01*
X95756000Y-70750691D01*
X102950000Y-70750691D01*
X102950000Y-75291250D01*
X103108750Y-75450000D01*
X108858000Y-75450000D01*
X108858000Y-70400750D01*
X109112000Y-70400750D01*
X109112000Y-75450000D01*
X114861250Y-75450000D01*
X115020000Y-75291250D01*
X115020000Y-70750691D01*
X114923327Y-70517302D01*
X114744699Y-70338673D01*
X114511310Y-70242000D01*
X109270750Y-70242000D01*
X109112000Y-70400750D01*
X108858000Y-70400750D01*
X108699250Y-70242000D01*
X103458690Y-70242000D01*
X103225301Y-70338673D01*
X103046673Y-70517302D01*
X102950000Y-70750691D01*
X95756000Y-70750691D01*
X95756000Y-69096231D01*
X96081044Y-68879044D01*
X96413678Y-68381221D01*
X96501000Y-67942225D01*
X96501000Y-67185774D01*
X96413678Y-66746778D01*
X96390942Y-66712750D01*
X104400000Y-66712750D01*
X104400000Y-68853309D01*
X104496673Y-69086698D01*
X104675301Y-69265327D01*
X104908690Y-69362000D01*
X105299250Y-69362000D01*
X105458000Y-69203250D01*
X105458000Y-66554000D01*
X104558750Y-66554000D01*
X104400000Y-66712750D01*
X96390942Y-66712750D01*
X96081044Y-66248956D01*
X95583221Y-65916322D01*
X94996000Y-65799516D01*
X94408778Y-65916322D01*
X93910956Y-66248956D01*
X93867414Y-66314122D01*
X93710586Y-66079414D01*
X93419436Y-65884873D01*
X93076001Y-65816560D01*
X91835999Y-65816560D01*
X91492564Y-65884873D01*
X91201414Y-66079414D01*
X91006873Y-66370564D01*
X90938560Y-66713999D01*
X90938560Y-66804000D01*
X90329060Y-66804000D01*
X90317678Y-66746778D01*
X89985044Y-66248956D01*
X89487221Y-65916322D01*
X88900000Y-65799516D01*
X88312778Y-65916322D01*
X87825364Y-66242001D01*
X87768327Y-66104301D01*
X87589698Y-65925673D01*
X87356309Y-65829000D01*
X86645750Y-65829000D01*
X86487000Y-65987750D01*
X86233000Y-65987750D01*
X86074250Y-65829000D01*
X85363691Y-65829000D01*
X85130302Y-65925673D01*
X84951673Y-66104301D01*
X84855000Y-66337690D01*
X84505000Y-66337690D01*
X84505000Y-61451866D01*
X97441000Y-61451866D01*
X97441000Y-62500134D01*
X97842155Y-63468608D01*
X98583392Y-64209845D01*
X99551866Y-64611000D01*
X100600134Y-64611000D01*
X101568608Y-64209845D01*
X101777762Y-64000691D01*
X104400000Y-64000691D01*
X104400000Y-66141250D01*
X104558750Y-66300000D01*
X105458000Y-66300000D01*
X105458000Y-63650750D01*
X105712000Y-63650750D01*
X105712000Y-66300000D01*
X105732000Y-66300000D01*
X105732000Y-66554000D01*
X105712000Y-66554000D01*
X105712000Y-69203250D01*
X105870750Y-69362000D01*
X106261310Y-69362000D01*
X106434816Y-69290131D01*
X106487235Y-69325157D01*
X106735000Y-69374440D01*
X107835000Y-69374440D01*
X108082765Y-69325157D01*
X108135184Y-69290131D01*
X108308690Y-69362000D01*
X108699250Y-69362000D01*
X108858000Y-69203250D01*
X108858000Y-66554000D01*
X108838000Y-66554000D01*
X108838000Y-66300000D01*
X108858000Y-66300000D01*
X108858000Y-63650750D01*
X108699250Y-63492000D01*
X108308690Y-63492000D01*
X108135184Y-63563869D01*
X108082765Y-63528843D01*
X108045000Y-63521331D01*
X108045000Y-63323440D01*
X108520001Y-63323440D01*
X108863436Y-63255127D01*
X109154586Y-63060586D01*
X109220000Y-62962687D01*
X109285414Y-63060586D01*
X109576564Y-63255127D01*
X109919999Y-63323440D01*
X109925001Y-63323440D01*
X109925001Y-63521331D01*
X109887235Y-63528843D01*
X109834816Y-63563869D01*
X109661310Y-63492000D01*
X109270750Y-63492000D01*
X109112000Y-63650750D01*
X109112000Y-66300000D01*
X109132000Y-66300000D01*
X109132000Y-66554000D01*
X109112000Y-66554000D01*
X109112000Y-69203250D01*
X109270750Y-69362000D01*
X109661310Y-69362000D01*
X109834816Y-69290131D01*
X109887235Y-69325157D01*
X110135000Y-69374440D01*
X111235000Y-69374440D01*
X111482765Y-69325157D01*
X111535000Y-69290254D01*
X111587235Y-69325157D01*
X111835000Y-69374440D01*
X112935000Y-69374440D01*
X113182765Y-69325157D01*
X113392809Y-69184809D01*
X113533157Y-68974765D01*
X113582440Y-68727000D01*
X113582440Y-66800000D01*
X114612289Y-66800000D01*
X114729720Y-66917431D01*
X115110126Y-67075000D01*
X115521874Y-67075000D01*
X115902280Y-66917431D01*
X115991961Y-66827750D01*
X117335000Y-66827750D01*
X117335000Y-68968309D01*
X117431673Y-69201698D01*
X117610301Y-69380327D01*
X117843690Y-69477000D01*
X118234250Y-69477000D01*
X118393000Y-69318250D01*
X118393000Y-66669000D01*
X117493750Y-66669000D01*
X117335000Y-66827750D01*
X115991961Y-66827750D01*
X116193431Y-66626280D01*
X116351000Y-66245874D01*
X116351000Y-65834126D01*
X116193431Y-65453720D01*
X116076000Y-65336289D01*
X116076000Y-64152778D01*
X116109436Y-64146127D01*
X116154986Y-64115691D01*
X117335000Y-64115691D01*
X117335000Y-66256250D01*
X117493750Y-66415000D01*
X118393000Y-66415000D01*
X118393000Y-63765750D01*
X118234250Y-63607000D01*
X117843690Y-63607000D01*
X117610301Y-63703673D01*
X117431673Y-63882302D01*
X117335000Y-64115691D01*
X116154986Y-64115691D01*
X116400586Y-63951586D01*
X116595127Y-63660436D01*
X116663440Y-63317001D01*
X116663440Y-62666999D01*
X116595127Y-62323564D01*
X116400586Y-62032414D01*
X116399403Y-62031623D01*
X116554327Y-61876698D01*
X116651000Y-61643309D01*
X116651000Y-61227750D01*
X116492250Y-61069000D01*
X115443000Y-61069000D01*
X115443000Y-61089000D01*
X115189000Y-61089000D01*
X115189000Y-61069000D01*
X115169000Y-61069000D01*
X115169000Y-60815000D01*
X115189000Y-60815000D01*
X115189000Y-59890750D01*
X115443000Y-59890750D01*
X115443000Y-60815000D01*
X116492250Y-60815000D01*
X116651000Y-60656250D01*
X116651000Y-60240691D01*
X116554327Y-60007302D01*
X116375699Y-59828673D01*
X116142310Y-59732000D01*
X115601750Y-59732000D01*
X115443000Y-59890750D01*
X115189000Y-59890750D01*
X115030250Y-59732000D01*
X114489690Y-59732000D01*
X114256301Y-59828673D01*
X114111000Y-59973975D01*
X114111000Y-59732691D01*
X114014327Y-59499302D01*
X113835699Y-59320673D01*
X113602310Y-59224000D01*
X113061750Y-59224000D01*
X112903000Y-59382750D01*
X112903000Y-60307000D01*
X112923000Y-60307000D01*
X112923000Y-60561000D01*
X112903000Y-60561000D01*
X112903000Y-60581000D01*
X112649000Y-60581000D01*
X112649000Y-60561000D01*
X111599750Y-60561000D01*
X111441000Y-60719750D01*
X111441000Y-61135309D01*
X111537673Y-61368698D01*
X111692597Y-61523623D01*
X111691414Y-61524414D01*
X111558054Y-61724000D01*
X111467440Y-61724000D01*
X111467440Y-61525999D01*
X111399127Y-61182564D01*
X111204586Y-60891414D01*
X110997944Y-60753340D01*
X111188698Y-60674327D01*
X111367327Y-60495699D01*
X111464000Y-60262310D01*
X111464000Y-60171250D01*
X111599750Y-60307000D01*
X112649000Y-60307000D01*
X112649000Y-59382750D01*
X112490250Y-59224000D01*
X111949690Y-59224000D01*
X111716301Y-59320673D01*
X111537673Y-59499302D01*
X111450941Y-59708691D01*
X111305250Y-59563000D01*
X110381000Y-59563000D01*
X110381000Y-59583000D01*
X110127000Y-59583000D01*
X110127000Y-59563000D01*
X110107000Y-59563000D01*
X110107000Y-59309000D01*
X110127000Y-59309000D01*
X110127000Y-59289000D01*
X110381000Y-59289000D01*
X110381000Y-59309000D01*
X111305250Y-59309000D01*
X111464000Y-59150250D01*
X111464000Y-58609690D01*
X111367327Y-58376301D01*
X111188698Y-58197673D01*
X111107404Y-58164000D01*
X120206898Y-58164000D01*
X119926414Y-58351414D01*
X119731873Y-58642564D01*
X119663560Y-58985999D01*
X119663560Y-59886001D01*
X119731873Y-60229436D01*
X119926414Y-60520586D01*
X120126001Y-60653946D01*
X120126000Y-60758054D01*
X119926414Y-60891414D01*
X119731873Y-61182564D01*
X119663560Y-61525999D01*
X119663560Y-62106809D01*
X119504096Y-62345464D01*
X119460000Y-62567149D01*
X119460000Y-62567153D01*
X119445112Y-62642000D01*
X119460000Y-62716847D01*
X119460000Y-63636331D01*
X119422235Y-63643843D01*
X119369816Y-63678869D01*
X119196310Y-63607000D01*
X118805750Y-63607000D01*
X118647000Y-63765750D01*
X118647000Y-66415000D01*
X118667000Y-66415000D01*
X118667000Y-66669000D01*
X118647000Y-66669000D01*
X118647000Y-69318250D01*
X118805750Y-69477000D01*
X119196310Y-69477000D01*
X119369816Y-69405131D01*
X119422235Y-69440157D01*
X119670000Y-69489440D01*
X120342639Y-69489440D01*
X120885000Y-70031802D01*
X120885000Y-70309874D01*
X120904520Y-70357000D01*
X116393690Y-70357000D01*
X116160301Y-70453673D01*
X115981673Y-70632302D01*
X115885000Y-70865691D01*
X115885000Y-75406250D01*
X116043750Y-75565000D01*
X121793000Y-75565000D01*
X121793000Y-75545000D01*
X122047000Y-75545000D01*
X122047000Y-75565000D01*
X122067000Y-75565000D01*
X122067000Y-75819000D01*
X122047000Y-75819000D01*
X122047000Y-80868250D01*
X122205750Y-81027000D01*
X127446310Y-81027000D01*
X127679699Y-80930327D01*
X127858327Y-80751698D01*
X127955000Y-80518309D01*
X127955000Y-78608589D01*
X128318126Y-78759000D01*
X128729874Y-78759000D01*
X129093000Y-78608589D01*
X129093000Y-80518309D01*
X129189673Y-80751698D01*
X129368301Y-80930327D01*
X129601690Y-81027000D01*
X134842250Y-81027000D01*
X135001000Y-80868250D01*
X135001000Y-75819000D01*
X135255000Y-75819000D01*
X135255000Y-80868250D01*
X135413750Y-81027000D01*
X140654310Y-81027000D01*
X140887699Y-80930327D01*
X141066327Y-80751698D01*
X141163000Y-80518309D01*
X141163000Y-75977750D01*
X141004250Y-75819000D01*
X135255000Y-75819000D01*
X135001000Y-75819000D01*
X134981000Y-75819000D01*
X134981000Y-75565000D01*
X135001000Y-75565000D01*
X135001000Y-75545000D01*
X135255000Y-75545000D01*
X135255000Y-75565000D01*
X141004250Y-75565000D01*
X141163000Y-75406250D01*
X141163000Y-70865691D01*
X141162300Y-70864000D01*
X143293925Y-70864000D01*
X143275000Y-70909690D01*
X143275000Y-71850250D01*
X143433750Y-72009000D01*
X144653000Y-72009000D01*
X144653000Y-71989000D01*
X144907000Y-71989000D01*
X144907000Y-72009000D01*
X144927000Y-72009000D01*
X144927000Y-72263000D01*
X144907000Y-72263000D01*
X144907000Y-72283000D01*
X144653000Y-72283000D01*
X144653000Y-72263000D01*
X143433750Y-72263000D01*
X143275000Y-72421750D01*
X143275000Y-73362310D01*
X143371673Y-73595699D01*
X143550302Y-73774327D01*
X143783691Y-73871000D01*
X144494250Y-73871000D01*
X144652998Y-73712252D01*
X144652998Y-73871000D01*
X144740198Y-73871000D01*
X144295530Y-74315669D01*
X144232071Y-74358071D01*
X144064096Y-74609464D01*
X144020000Y-74831149D01*
X144020000Y-74831153D01*
X144005112Y-74906000D01*
X144020000Y-74980847D01*
X144020001Y-76633144D01*
X144020000Y-76633149D01*
X144020000Y-78036407D01*
X143816564Y-78076873D01*
X143525414Y-78271414D01*
X143330873Y-78562564D01*
X143262560Y-78905999D01*
X143262560Y-80606001D01*
X143330873Y-80949436D01*
X143525414Y-81240586D01*
X143816564Y-81435127D01*
X144159999Y-81503440D01*
X145400001Y-81503440D01*
X145743436Y-81435127D01*
X146034586Y-81240586D01*
X146191413Y-81005878D01*
X146234956Y-81071044D01*
X146732779Y-81403678D01*
X147320000Y-81520484D01*
X147907222Y-81403678D01*
X148405044Y-81071044D01*
X148737678Y-80573221D01*
X148825000Y-80134225D01*
X148825000Y-80041750D01*
X149879000Y-80041750D01*
X149879000Y-80982310D01*
X149975673Y-81215699D01*
X150154302Y-81394327D01*
X150387691Y-81491000D01*
X151098250Y-81491000D01*
X151257000Y-81332250D01*
X151257000Y-79883000D01*
X150037750Y-79883000D01*
X149879000Y-80041750D01*
X148825000Y-80041750D01*
X148825000Y-79377774D01*
X148737678Y-78938778D01*
X148464335Y-78529690D01*
X149879000Y-78529690D01*
X149879000Y-79470250D01*
X150037750Y-79629000D01*
X151257000Y-79629000D01*
X151257000Y-78179750D01*
X151511000Y-78179750D01*
X151511000Y-79629000D01*
X151531000Y-79629000D01*
X151531000Y-79883000D01*
X151511000Y-79883000D01*
X151511000Y-81332250D01*
X151669750Y-81491000D01*
X152380309Y-81491000D01*
X152613698Y-81394327D01*
X152792327Y-81215699D01*
X152849364Y-81077999D01*
X153336779Y-81403678D01*
X153924000Y-81520484D01*
X154511222Y-81403678D01*
X155009044Y-81071044D01*
X155341678Y-80573221D01*
X155429000Y-80134225D01*
X155429000Y-79377774D01*
X155341678Y-78938778D01*
X155009044Y-78440956D01*
X154511221Y-78108322D01*
X153924000Y-77991516D01*
X153336778Y-78108322D01*
X152849364Y-78434001D01*
X152792327Y-78296301D01*
X152613698Y-78117673D01*
X152380309Y-78021000D01*
X151669750Y-78021000D01*
X151511000Y-78179750D01*
X151257000Y-78179750D01*
X151098250Y-78021000D01*
X150387691Y-78021000D01*
X150154302Y-78117673D01*
X149975673Y-78296301D01*
X149879000Y-78529690D01*
X148464335Y-78529690D01*
X148405044Y-78440956D01*
X147907221Y-78108322D01*
X147320000Y-77991516D01*
X146732778Y-78108322D01*
X146234956Y-78440956D01*
X146191414Y-78506122D01*
X146034586Y-78271414D01*
X145743436Y-78076873D01*
X145540000Y-78036407D01*
X145540000Y-75220801D01*
X146936585Y-73824218D01*
X147320000Y-73900484D01*
X147907222Y-73783678D01*
X148405044Y-73451044D01*
X148737678Y-72953221D01*
X148825000Y-72514225D01*
X148825000Y-72421750D01*
X149879000Y-72421750D01*
X149879000Y-73362310D01*
X149975673Y-73595699D01*
X150154302Y-73774327D01*
X150387691Y-73871000D01*
X151098250Y-73871000D01*
X151257000Y-73712250D01*
X151257000Y-72263000D01*
X150037750Y-72263000D01*
X149879000Y-72421750D01*
X148825000Y-72421750D01*
X148825000Y-71757774D01*
X148737678Y-71318778D01*
X148464335Y-70909690D01*
X149879000Y-70909690D01*
X149879000Y-71850250D01*
X150037750Y-72009000D01*
X151257000Y-72009000D01*
X151257000Y-70559750D01*
X151098250Y-70401000D01*
X150387691Y-70401000D01*
X150154302Y-70497673D01*
X149975673Y-70676301D01*
X149879000Y-70909690D01*
X148464335Y-70909690D01*
X148405044Y-70820956D01*
X148055367Y-70587310D01*
X148035904Y-70489463D01*
X148035904Y-70489462D01*
X147910329Y-70301527D01*
X147867929Y-70238071D01*
X147804473Y-70195671D01*
X147228331Y-69619530D01*
X147185929Y-69556071D01*
X146934537Y-69388096D01*
X146712852Y-69344000D01*
X146712847Y-69344000D01*
X146638000Y-69329112D01*
X146563153Y-69344000D01*
X139469673Y-69344000D01*
X139535809Y-69299809D01*
X139676157Y-69089765D01*
X139725440Y-68842000D01*
X139725440Y-66800000D01*
X141028289Y-66800000D01*
X141145720Y-66917431D01*
X141526126Y-67075000D01*
X141937874Y-67075000D01*
X142318280Y-66917431D01*
X142609431Y-66626280D01*
X142767000Y-66245874D01*
X142767000Y-65834126D01*
X142609431Y-65453720D01*
X142492000Y-65336289D01*
X142492000Y-64100847D01*
X142506888Y-64026000D01*
X142492000Y-63951153D01*
X142492000Y-63951148D01*
X142447904Y-63729463D01*
X142279929Y-63478071D01*
X142216473Y-63435671D01*
X142063440Y-63282638D01*
X142063440Y-62684999D01*
X141995127Y-62341564D01*
X141800586Y-62050414D01*
X141799403Y-62049623D01*
X141954327Y-61894698D01*
X142051000Y-61661309D01*
X142051000Y-61245750D01*
X141892250Y-61087000D01*
X140843000Y-61087000D01*
X140843000Y-61107000D01*
X140589000Y-61107000D01*
X140589000Y-61087000D01*
X140569000Y-61087000D01*
X140569000Y-60833000D01*
X140589000Y-60833000D01*
X140589000Y-59908750D01*
X140843000Y-59908750D01*
X140843000Y-60833000D01*
X141892250Y-60833000D01*
X142051000Y-60674250D01*
X142051000Y-60258691D01*
X141954327Y-60025302D01*
X141775699Y-59846673D01*
X141542310Y-59750000D01*
X141001750Y-59750000D01*
X140843000Y-59908750D01*
X140589000Y-59908750D01*
X140430250Y-59750000D01*
X139889690Y-59750000D01*
X139656301Y-59846673D01*
X139511000Y-59991975D01*
X139511000Y-59732691D01*
X139414327Y-59499302D01*
X139235699Y-59320673D01*
X139002310Y-59224000D01*
X138461750Y-59224000D01*
X138303000Y-59382750D01*
X138303000Y-60307000D01*
X138323000Y-60307000D01*
X138323000Y-60561000D01*
X138303000Y-60561000D01*
X138303000Y-60581000D01*
X138049000Y-60581000D01*
X138049000Y-60561000D01*
X138029000Y-60561000D01*
X138029000Y-60307000D01*
X138049000Y-60307000D01*
X138049000Y-59382750D01*
X137890250Y-59224000D01*
X137349690Y-59224000D01*
X137231148Y-59273102D01*
X137354000Y-59150250D01*
X137354000Y-58609690D01*
X137257327Y-58376301D01*
X137078698Y-58197673D01*
X136997404Y-58164000D01*
X143957199Y-58164000D01*
X153164000Y-67370803D01*
X153164001Y-70603768D01*
X152849364Y-70814001D01*
X152792327Y-70676301D01*
X152613698Y-70497673D01*
X152380309Y-70401000D01*
X151669750Y-70401000D01*
X151511000Y-70559750D01*
X151511000Y-72009000D01*
X151531000Y-72009000D01*
X151531000Y-72263000D01*
X151511000Y-72263000D01*
X151511000Y-73712250D01*
X151669750Y-73871000D01*
X152380309Y-73871000D01*
X152613698Y-73774327D01*
X152792327Y-73595699D01*
X152849364Y-73457999D01*
X153336779Y-73783678D01*
X153924000Y-73900484D01*
X154511222Y-73783678D01*
X155009044Y-73451044D01*
X155341678Y-72953221D01*
X155429000Y-72514225D01*
X155429000Y-71757774D01*
X155341678Y-71318778D01*
X155009044Y-70820956D01*
X154684000Y-70603769D01*
X154684000Y-67130846D01*
X154698888Y-67055999D01*
X154684000Y-66981152D01*
X154684000Y-66981148D01*
X154639904Y-66759463D01*
X154598102Y-66696902D01*
X154514329Y-66571526D01*
X154514327Y-66571524D01*
X154471929Y-66508071D01*
X154408476Y-66465673D01*
X147362668Y-59419866D01*
X149257000Y-59419866D01*
X149257000Y-60468134D01*
X149658155Y-61436608D01*
X150399392Y-62177845D01*
X151367866Y-62579000D01*
X152416134Y-62579000D01*
X153384608Y-62177845D01*
X154125845Y-61436608D01*
X154527000Y-60468134D01*
X154527000Y-59419866D01*
X154125845Y-58451392D01*
X153384608Y-57710155D01*
X152416134Y-57309000D01*
X151367866Y-57309000D01*
X150399392Y-57710155D01*
X149658155Y-58451392D01*
X149257000Y-59419866D01*
X147362668Y-59419866D01*
X144862331Y-56919530D01*
X144819929Y-56856071D01*
X144568537Y-56688096D01*
X144346852Y-56644000D01*
X144346847Y-56644000D01*
X144272000Y-56629112D01*
X144197153Y-56644000D01*
X110310847Y-56644000D01*
X110236000Y-56629112D01*
X110161153Y-56644000D01*
X110161148Y-56644000D01*
X109939463Y-56688096D01*
X109688071Y-56856071D01*
X109645671Y-56919527D01*
X108476639Y-58088560D01*
X107878999Y-58088560D01*
X107535564Y-58156873D01*
X107244414Y-58351414D01*
X107049873Y-58642564D01*
X106981560Y-58985999D01*
X106981560Y-59886001D01*
X107049873Y-60229436D01*
X107244414Y-60520586D01*
X107435001Y-60647932D01*
X107435000Y-60758054D01*
X107235414Y-60891414D01*
X107040873Y-61182564D01*
X106972560Y-61525999D01*
X106972560Y-62123638D01*
X106800529Y-62295669D01*
X106737071Y-62338071D01*
X106569096Y-62589464D01*
X106525000Y-62811149D01*
X106525000Y-62811153D01*
X106510112Y-62886000D01*
X106525000Y-62960847D01*
X106525000Y-63521331D01*
X106487235Y-63528843D01*
X106434816Y-63563869D01*
X106261310Y-63492000D01*
X105870750Y-63492000D01*
X105712000Y-63650750D01*
X105458000Y-63650750D01*
X105299250Y-63492000D01*
X104908690Y-63492000D01*
X104675301Y-63588673D01*
X104496673Y-63767302D01*
X104400000Y-64000691D01*
X101777762Y-64000691D01*
X102309845Y-63468608D01*
X102711000Y-62500134D01*
X102711000Y-61451866D01*
X102309845Y-60483392D01*
X101568608Y-59742155D01*
X100600134Y-59341000D01*
X99551866Y-59341000D01*
X98583392Y-59742155D01*
X97842155Y-60483392D01*
X97441000Y-61451866D01*
X84505000Y-61451866D01*
X84505000Y-56565000D01*
X155779000Y-56565000D01*
X155779001Y-91263000D01*
X155779001Y-91263000D01*
G37*
X155779001Y-91263000D02*
X84505000Y-91263000D01*
X84505000Y-86137750D01*
X84855000Y-86137750D01*
X84855000Y-87078310D01*
X84951673Y-87311699D01*
X85130302Y-87490327D01*
X85363691Y-87587000D01*
X86074250Y-87587000D01*
X86233000Y-87428250D01*
X86233000Y-85979000D01*
X85013750Y-85979000D01*
X84855000Y-86137750D01*
X84505000Y-86137750D01*
X84505000Y-84625690D01*
X84855000Y-84625690D01*
X84855000Y-85566250D01*
X85013750Y-85725000D01*
X86233000Y-85725000D01*
X86233000Y-84275750D01*
X86074250Y-84117000D01*
X85363691Y-84117000D01*
X85130302Y-84213673D01*
X84951673Y-84392301D01*
X84855000Y-84625690D01*
X84505000Y-84625690D01*
X84505000Y-76993750D01*
X84855000Y-76993750D01*
X84855000Y-77934310D01*
X84951673Y-78167699D01*
X85130302Y-78346327D01*
X85363691Y-78443000D01*
X86074250Y-78443000D01*
X86233000Y-78284250D01*
X86233000Y-76835000D01*
X85013750Y-76835000D01*
X84855000Y-76993750D01*
X84505000Y-76993750D01*
X84505000Y-75481690D01*
X84855000Y-75481690D01*
X84855000Y-76422250D01*
X85013750Y-76581000D01*
X86233000Y-76581000D01*
X86233000Y-75131750D01*
X86074250Y-74973000D01*
X85363691Y-74973000D01*
X85130302Y-75069673D01*
X84951673Y-75248301D01*
X84855000Y-75481690D01*
X84505000Y-75481690D01*
X84505000Y-67849750D01*
X84855000Y-67849750D01*
X84855000Y-68790310D01*
X84951673Y-69023699D01*
X85130302Y-69202327D01*
X85363691Y-69299000D01*
X86074250Y-69299000D01*
X86233000Y-69140250D01*
X86233000Y-67691000D01*
X85013750Y-67691000D01*
X84855000Y-67849750D01*
X84505000Y-67849750D01*
X84505000Y-66337690D01*
X84855000Y-66337690D01*
X84855000Y-67278250D01*
X85013750Y-67437000D01*
X86233000Y-67437000D01*
X86233000Y-65987750D01*
X86487000Y-65987750D01*
X86487000Y-67437000D01*
X86507000Y-67437000D01*
X86507000Y-67691000D01*
X86487000Y-67691000D01*
X86487000Y-69140250D01*
X86645750Y-69299000D01*
X87356309Y-69299000D01*
X87589698Y-69202327D01*
X87768327Y-69023699D01*
X87825364Y-68885999D01*
X88312779Y-69211678D01*
X88900000Y-69328484D01*
X89487222Y-69211678D01*
X89985044Y-68879044D01*
X90317678Y-68381221D01*
X90329060Y-68324000D01*
X90938560Y-68324000D01*
X90938560Y-68414001D01*
X91006873Y-68757436D01*
X91201414Y-69048586D01*
X91492564Y-69243127D01*
X91835999Y-69311440D01*
X93076001Y-69311440D01*
X93419436Y-69243127D01*
X93710586Y-69048586D01*
X93867413Y-68813878D01*
X93910956Y-68879044D01*
X94236000Y-69096231D01*
X94236001Y-75175768D01*
X93910956Y-75392956D01*
X93867414Y-75458122D01*
X93710586Y-75223414D01*
X93419436Y-75028873D01*
X93076001Y-74960560D01*
X91835999Y-74960560D01*
X91492564Y-75028873D01*
X91201414Y-75223414D01*
X91006873Y-75514564D01*
X90938560Y-75857999D01*
X90938560Y-75948000D01*
X90329060Y-75948000D01*
X90317678Y-75890778D01*
X89985044Y-75392956D01*
X89487221Y-75060322D01*
X88900000Y-74943516D01*
X88312778Y-75060322D01*
X87825364Y-75386001D01*
X87768327Y-75248301D01*
X87589698Y-75069673D01*
X87356309Y-74973000D01*
X86645750Y-74973000D01*
X86487000Y-75131750D01*
X86487000Y-76581000D01*
X86507000Y-76581000D01*
X86507000Y-76835000D01*
X86487000Y-76835000D01*
X86487000Y-78284250D01*
X86645750Y-78443000D01*
X87356309Y-78443000D01*
X87589698Y-78346327D01*
X87768327Y-78167699D01*
X87825364Y-78029999D01*
X88312779Y-78355678D01*
X88900000Y-78472484D01*
X89487222Y-78355678D01*
X89985044Y-78023044D01*
X90317678Y-77525221D01*
X90329060Y-77468000D01*
X90938560Y-77468000D01*
X90938560Y-77558001D01*
X91006873Y-77901436D01*
X91201414Y-78192586D01*
X91492564Y-78387127D01*
X91835999Y-78455440D01*
X93076001Y-78455440D01*
X93419436Y-78387127D01*
X93710586Y-78192586D01*
X93867413Y-77957878D01*
X93910956Y-78023044D01*
X94236001Y-78240232D01*
X94236000Y-84319769D01*
X93910956Y-84536956D01*
X93867414Y-84602122D01*
X93710586Y-84367414D01*
X93419436Y-84172873D01*
X93076001Y-84104560D01*
X91835999Y-84104560D01*
X91492564Y-84172873D01*
X91201414Y-84367414D01*
X91006873Y-84658564D01*
X90938560Y-85001999D01*
X90938560Y-85092000D01*
X90329060Y-85092000D01*
X90317678Y-85034778D01*
X89985044Y-84536956D01*
X89487221Y-84204322D01*
X88900000Y-84087516D01*
X88312778Y-84204322D01*
X87825364Y-84530001D01*
X87768327Y-84392301D01*
X87589698Y-84213673D01*
X87356309Y-84117000D01*
X86645750Y-84117000D01*
X86487000Y-84275750D01*
X86487000Y-85725000D01*
X86507000Y-85725000D01*
X86507000Y-85979000D01*
X86487000Y-85979000D01*
X86487000Y-87428250D01*
X86645750Y-87587000D01*
X87356309Y-87587000D01*
X87589698Y-87490327D01*
X87768327Y-87311699D01*
X87825364Y-87173999D01*
X88312779Y-87499678D01*
X88900000Y-87616484D01*
X89487222Y-87499678D01*
X89985044Y-87167044D01*
X90317678Y-86669221D01*
X90329060Y-86612000D01*
X90938560Y-86612000D01*
X90938560Y-86702001D01*
X91006873Y-87045436D01*
X91201414Y-87336586D01*
X91492564Y-87531127D01*
X91835999Y-87599440D01*
X93076001Y-87599440D01*
X93419436Y-87531127D01*
X93710586Y-87336586D01*
X93867413Y-87101878D01*
X93910956Y-87167044D01*
X94408779Y-87499678D01*
X94996000Y-87616484D01*
X95583222Y-87499678D01*
X96081044Y-87167044D01*
X96413678Y-86669221D01*
X96501000Y-86230225D01*
X96501000Y-85473774D01*
X96471978Y-85327866D01*
X96933000Y-85327866D01*
X96933000Y-86376134D01*
X97334155Y-87344608D01*
X98075392Y-88085845D01*
X99043866Y-88487000D01*
X100092134Y-88487000D01*
X101060608Y-88085845D01*
X101801845Y-87344608D01*
X101880900Y-87153750D01*
X126003000Y-87153750D01*
X126003000Y-88094310D01*
X126099673Y-88327699D01*
X126278302Y-88506327D01*
X126511691Y-88603000D01*
X127222250Y-88603000D01*
X127381000Y-88444250D01*
X127381000Y-86995000D01*
X126161750Y-86995000D01*
X126003000Y-87153750D01*
X101880900Y-87153750D01*
X102198102Y-86387958D01*
X104291647Y-86387958D01*
X104371920Y-86639259D01*
X104927279Y-86840718D01*
X105517458Y-86814315D01*
X105940080Y-86639259D01*
X106020353Y-86387958D01*
X105156000Y-85523605D01*
X104291647Y-86387958D01*
X102198102Y-86387958D01*
X102203000Y-86376134D01*
X102203000Y-85327866D01*
X102114944Y-85115279D01*
X103659282Y-85115279D01*
X103685685Y-85705458D01*
X103860741Y-86128080D01*
X104112042Y-86208353D01*
X104976395Y-85344000D01*
X104112042Y-84479647D01*
X103860741Y-84559920D01*
X103659282Y-85115279D01*
X102114944Y-85115279D01*
X101801845Y-84359392D01*
X101742495Y-84300042D01*
X104291647Y-84300042D01*
X105156000Y-85164395D01*
X106020353Y-84300042D01*
X105940080Y-84048741D01*
X105384721Y-83847282D01*
X104794542Y-83873685D01*
X104371920Y-84048741D01*
X104291647Y-84300042D01*
X101742495Y-84300042D01*
X101060608Y-83618155D01*
X100092134Y-83217000D01*
X99043866Y-83217000D01*
X98075392Y-83618155D01*
X97334155Y-84359392D01*
X96933000Y-85327866D01*
X96471978Y-85327866D01*
X96413678Y-85034778D01*
X96081044Y-84536956D01*
X95756000Y-84319769D01*
X95756000Y-78240231D01*
X96081044Y-78023044D01*
X96413678Y-77525221D01*
X96425060Y-77468000D01*
X97034560Y-77468000D01*
X97034560Y-77558001D01*
X97102873Y-77901436D01*
X97297414Y-78192586D01*
X97588564Y-78387127D01*
X97931999Y-78455440D01*
X99172001Y-78455440D01*
X99515436Y-78387127D01*
X99806586Y-78192586D01*
X99963413Y-77957878D01*
X100006956Y-78023044D01*
X100332001Y-78240231D01*
X100332001Y-79681148D01*
X100317112Y-79756000D01*
X100332001Y-79830852D01*
X100376097Y-80052537D01*
X100544072Y-80303929D01*
X100607528Y-80346329D01*
X103041673Y-82780476D01*
X103084071Y-82843929D01*
X103147524Y-82886327D01*
X103147526Y-82886329D01*
X103272902Y-82970102D01*
X103335463Y-83011904D01*
X103557148Y-83056000D01*
X103557152Y-83056000D01*
X103631999Y-83070888D01*
X103706846Y-83056000D01*
X105857199Y-83056000D01*
X106877061Y-84075863D01*
X106854815Y-84085078D01*
X106437078Y-84502815D01*
X106417845Y-84549247D01*
X106199958Y-84479647D01*
X105335605Y-85344000D01*
X106199958Y-86208353D01*
X106417845Y-86138753D01*
X106437078Y-86185185D01*
X106854815Y-86602922D01*
X107400615Y-86829000D01*
X107991385Y-86829000D01*
X108537185Y-86602922D01*
X108954922Y-86185185D01*
X108966000Y-86158440D01*
X108977078Y-86185185D01*
X109394815Y-86602922D01*
X109940615Y-86829000D01*
X110531385Y-86829000D01*
X111077185Y-86602922D01*
X111494922Y-86185185D01*
X111721000Y-85639385D01*
X111721000Y-85048615D01*
X113831000Y-85048615D01*
X113831000Y-85639385D01*
X114057078Y-86185185D01*
X114474815Y-86602922D01*
X115020615Y-86829000D01*
X115611385Y-86829000D01*
X116157185Y-86602922D01*
X116574922Y-86185185D01*
X116586000Y-86158440D01*
X116597078Y-86185185D01*
X117014815Y-86602922D01*
X117560615Y-86829000D01*
X118151385Y-86829000D01*
X118697185Y-86602922D01*
X119114922Y-86185185D01*
X119126000Y-86158440D01*
X119137078Y-86185185D01*
X119554815Y-86602922D01*
X120100615Y-86829000D01*
X120691385Y-86829000D01*
X121237185Y-86602922D01*
X121654922Y-86185185D01*
X121666000Y-86158440D01*
X121677078Y-86185185D01*
X122094815Y-86602922D01*
X122640615Y-86829000D01*
X123231385Y-86829000D01*
X123777185Y-86602922D01*
X124194922Y-86185185D01*
X124420045Y-85641690D01*
X126003000Y-85641690D01*
X126003000Y-86582250D01*
X126161750Y-86741000D01*
X127381000Y-86741000D01*
X127381000Y-85291750D01*
X127635000Y-85291750D01*
X127635000Y-86741000D01*
X127655000Y-86741000D01*
X127655000Y-86995000D01*
X127635000Y-86995000D01*
X127635000Y-88444250D01*
X127793750Y-88603000D01*
X128504309Y-88603000D01*
X128737698Y-88506327D01*
X128916327Y-88327699D01*
X128973364Y-88189999D01*
X129460779Y-88515678D01*
X130048000Y-88632484D01*
X130635222Y-88515678D01*
X131133044Y-88183044D01*
X131318000Y-87906237D01*
X131502956Y-88183044D01*
X132000779Y-88515678D01*
X132588000Y-88632484D01*
X133175222Y-88515678D01*
X133673044Y-88183044D01*
X133858000Y-87906237D01*
X134042956Y-88183044D01*
X134540779Y-88515678D01*
X135128000Y-88632484D01*
X135511416Y-88556218D01*
X136847673Y-89892476D01*
X136890071Y-89955929D01*
X136953524Y-89998327D01*
X136953526Y-89998329D01*
X137078902Y-90082102D01*
X137141463Y-90123904D01*
X137363148Y-90168000D01*
X137363152Y-90168000D01*
X137437999Y-90182888D01*
X137512846Y-90168000D01*
X139273153Y-90168000D01*
X139348000Y-90182888D01*
X139422847Y-90168000D01*
X139422852Y-90168000D01*
X139644537Y-90123904D01*
X139895929Y-89955929D01*
X139938331Y-89892470D01*
X140171058Y-89659743D01*
X140366235Y-89790157D01*
X140614000Y-89839440D01*
X141914000Y-89839440D01*
X142161765Y-89790157D01*
X142371809Y-89649809D01*
X142512157Y-89439765D01*
X142517721Y-89411791D01*
X142575673Y-89551699D01*
X142754302Y-89730327D01*
X142987691Y-89827000D01*
X143478250Y-89827000D01*
X143637000Y-89668250D01*
X143637000Y-88519000D01*
X143891000Y-88519000D01*
X143891000Y-89668250D01*
X144049750Y-89827000D01*
X144540309Y-89827000D01*
X144773698Y-89730327D01*
X144952327Y-89551699D01*
X145049000Y-89318310D01*
X145049000Y-88677750D01*
X144890250Y-88519000D01*
X143891000Y-88519000D01*
X143637000Y-88519000D01*
X143617000Y-88519000D01*
X143617000Y-88265000D01*
X143637000Y-88265000D01*
X143637000Y-87115750D01*
X143891000Y-87115750D01*
X143891000Y-88265000D01*
X144890250Y-88265000D01*
X145049000Y-88106250D01*
X145049000Y-87465690D01*
X145005167Y-87359866D01*
X148241000Y-87359866D01*
X148241000Y-88408134D01*
X148642155Y-89376608D01*
X149383392Y-90117845D01*
X150351866Y-90519000D01*
X151400134Y-90519000D01*
X152368608Y-90117845D01*
X153109845Y-89376608D01*
X153511000Y-88408134D01*
X153511000Y-87359866D01*
X153109845Y-86391392D01*
X152368608Y-85650155D01*
X151400134Y-85249000D01*
X150351866Y-85249000D01*
X149383392Y-85650155D01*
X148642155Y-86391392D01*
X148241000Y-87359866D01*
X145005167Y-87359866D01*
X144952327Y-87232301D01*
X144773698Y-87053673D01*
X144540309Y-86957000D01*
X144049750Y-86957000D01*
X143891000Y-87115750D01*
X143637000Y-87115750D01*
X143478250Y-86957000D01*
X142987691Y-86957000D01*
X142754302Y-87053673D01*
X142575673Y-87232301D01*
X142517721Y-87372209D01*
X142512157Y-87344235D01*
X142371809Y-87134191D01*
X142161765Y-86993843D01*
X141914000Y-86944560D01*
X140614000Y-86944560D01*
X140366235Y-86993843D01*
X140156191Y-87134191D01*
X140015843Y-87344235D01*
X139966560Y-87592000D01*
X139966560Y-87743517D01*
X139816071Y-87844071D01*
X139773671Y-87907527D01*
X139033199Y-88648000D01*
X137752803Y-88648000D01*
X137725791Y-88620989D01*
X138255222Y-88515678D01*
X138753044Y-88183044D01*
X139085678Y-87685221D01*
X139173000Y-87246225D01*
X139173000Y-86489774D01*
X139126218Y-86254584D01*
X139128802Y-86252000D01*
X140866560Y-86252000D01*
X140866560Y-86292000D01*
X140915843Y-86539765D01*
X141056191Y-86749809D01*
X141266235Y-86890157D01*
X141514000Y-86939440D01*
X143514000Y-86939440D01*
X143761765Y-86890157D01*
X143971809Y-86749809D01*
X144112157Y-86539765D01*
X144161440Y-86292000D01*
X144161440Y-84692000D01*
X144112157Y-84444235D01*
X143971809Y-84234191D01*
X143761765Y-84093843D01*
X143514000Y-84044560D01*
X141514000Y-84044560D01*
X141266235Y-84093843D01*
X141056191Y-84234191D01*
X140915843Y-84444235D01*
X140866560Y-84692000D01*
X140866560Y-84732000D01*
X138888848Y-84732000D01*
X138814000Y-84717112D01*
X138739152Y-84732000D01*
X138739148Y-84732000D01*
X138565605Y-84766520D01*
X138517462Y-84776096D01*
X138330418Y-84901076D01*
X138266071Y-84944071D01*
X138223671Y-85007527D01*
X138051416Y-85179782D01*
X137668000Y-85103516D01*
X137080778Y-85220322D01*
X136582956Y-85552956D01*
X136398000Y-85829763D01*
X136213044Y-85552956D01*
X135715221Y-85220322D01*
X135128000Y-85103516D01*
X134540778Y-85220322D01*
X134042956Y-85552956D01*
X133858000Y-85829763D01*
X133673044Y-85552956D01*
X133175221Y-85220322D01*
X132588000Y-85103516D01*
X132000778Y-85220322D01*
X131502956Y-85552956D01*
X131318000Y-85829763D01*
X131133044Y-85552956D01*
X130635221Y-85220322D01*
X130048000Y-85103516D01*
X129460778Y-85220322D01*
X128973364Y-85546001D01*
X128916327Y-85408301D01*
X128737698Y-85229673D01*
X128504309Y-85133000D01*
X127793750Y-85133000D01*
X127635000Y-85291750D01*
X127381000Y-85291750D01*
X127222250Y-85133000D01*
X126511691Y-85133000D01*
X126278302Y-85229673D01*
X126099673Y-85408301D01*
X126003000Y-85641690D01*
X124420045Y-85641690D01*
X124421000Y-85639385D01*
X124421000Y-85048615D01*
X124194922Y-84502815D01*
X123777185Y-84085078D01*
X123231385Y-83859000D01*
X122640615Y-83859000D01*
X122094815Y-84085078D01*
X121677078Y-84502815D01*
X121666000Y-84529560D01*
X121654922Y-84502815D01*
X121237185Y-84085078D01*
X120691385Y-83859000D01*
X120100615Y-83859000D01*
X119554815Y-84085078D01*
X119137078Y-84502815D01*
X119126000Y-84529560D01*
X119114922Y-84502815D01*
X118697185Y-84085078D01*
X118151385Y-83859000D01*
X117560615Y-83859000D01*
X117014815Y-84085078D01*
X116597078Y-84502815D01*
X116586000Y-84529560D01*
X116574922Y-84502815D01*
X116157185Y-84085078D01*
X115611385Y-83859000D01*
X115020615Y-83859000D01*
X114474815Y-84085078D01*
X114057078Y-84502815D01*
X113831000Y-85048615D01*
X111721000Y-85048615D01*
X111494922Y-84502815D01*
X111077185Y-84085078D01*
X110531385Y-83859000D01*
X109940615Y-83859000D01*
X109394815Y-84085078D01*
X108977078Y-84502815D01*
X108966000Y-84529560D01*
X108954922Y-84502815D01*
X108537185Y-84085078D01*
X108456000Y-84051450D01*
X108456000Y-83894846D01*
X108470888Y-83819999D01*
X108456000Y-83745152D01*
X108456000Y-83745148D01*
X108411904Y-83523463D01*
X108370102Y-83460902D01*
X108286329Y-83335526D01*
X108286327Y-83335524D01*
X108243929Y-83272071D01*
X108180476Y-83229673D01*
X106762331Y-81811530D01*
X106719929Y-81748071D01*
X106468537Y-81580096D01*
X106246852Y-81536000D01*
X106246847Y-81536000D01*
X106172000Y-81521112D01*
X106097153Y-81536000D01*
X103946803Y-81536000D01*
X103226715Y-80815913D01*
X103458690Y-80912000D01*
X108699250Y-80912000D01*
X108858000Y-80753250D01*
X108858000Y-75704000D01*
X109112000Y-75704000D01*
X109112000Y-80753250D01*
X109270750Y-80912000D01*
X114511310Y-80912000D01*
X114744699Y-80815327D01*
X114923327Y-80636698D01*
X115020000Y-80403309D01*
X115020000Y-75977750D01*
X115885000Y-75977750D01*
X115885000Y-80518309D01*
X115981673Y-80751698D01*
X116160301Y-80930327D01*
X116393690Y-81027000D01*
X121634250Y-81027000D01*
X121793000Y-80868250D01*
X121793000Y-75819000D01*
X116043750Y-75819000D01*
X115885000Y-75977750D01*
X115020000Y-75977750D01*
X115020000Y-75862750D01*
X114861250Y-75704000D01*
X109112000Y-75704000D01*
X108858000Y-75704000D01*
X103108750Y-75704000D01*
X102950000Y-75862750D01*
X102950000Y-80403309D01*
X103046088Y-80635286D01*
X101852000Y-79441199D01*
X101852000Y-78240231D01*
X102177044Y-78023044D01*
X102509678Y-77525221D01*
X102597000Y-77086225D01*
X102597000Y-76329774D01*
X102509678Y-75890778D01*
X102177044Y-75392956D01*
X101679221Y-75060322D01*
X101092000Y-74943516D01*
X100504778Y-75060322D01*
X100006956Y-75392956D01*
X99963414Y-75458122D01*
X99806586Y-75223414D01*
X99515436Y-75028873D01*
X99172001Y-74960560D01*
X97931999Y-74960560D01*
X97588564Y-75028873D01*
X97297414Y-75223414D01*
X97102873Y-75514564D01*
X97034560Y-75857999D01*
X97034560Y-75948000D01*
X96425060Y-75948000D01*
X96413678Y-75890778D01*
X96081044Y-75392956D01*
X95756000Y-75175769D01*
X95756000Y-70750691D01*
X102950000Y-70750691D01*
X102950000Y-75291250D01*
X103108750Y-75450000D01*
X108858000Y-75450000D01*
X108858000Y-70400750D01*
X109112000Y-70400750D01*
X109112000Y-75450000D01*
X114861250Y-75450000D01*
X115020000Y-75291250D01*
X115020000Y-70750691D01*
X114923327Y-70517302D01*
X114744699Y-70338673D01*
X114511310Y-70242000D01*
X109270750Y-70242000D01*
X109112000Y-70400750D01*
X108858000Y-70400750D01*
X108699250Y-70242000D01*
X103458690Y-70242000D01*
X103225301Y-70338673D01*
X103046673Y-70517302D01*
X102950000Y-70750691D01*
X95756000Y-70750691D01*
X95756000Y-69096231D01*
X96081044Y-68879044D01*
X96413678Y-68381221D01*
X96501000Y-67942225D01*
X96501000Y-67185774D01*
X96413678Y-66746778D01*
X96390942Y-66712750D01*
X104400000Y-66712750D01*
X104400000Y-68853309D01*
X104496673Y-69086698D01*
X104675301Y-69265327D01*
X104908690Y-69362000D01*
X105299250Y-69362000D01*
X105458000Y-69203250D01*
X105458000Y-66554000D01*
X104558750Y-66554000D01*
X104400000Y-66712750D01*
X96390942Y-66712750D01*
X96081044Y-66248956D01*
X95583221Y-65916322D01*
X94996000Y-65799516D01*
X94408778Y-65916322D01*
X93910956Y-66248956D01*
X93867414Y-66314122D01*
X93710586Y-66079414D01*
X93419436Y-65884873D01*
X93076001Y-65816560D01*
X91835999Y-65816560D01*
X91492564Y-65884873D01*
X91201414Y-66079414D01*
X91006873Y-66370564D01*
X90938560Y-66713999D01*
X90938560Y-66804000D01*
X90329060Y-66804000D01*
X90317678Y-66746778D01*
X89985044Y-66248956D01*
X89487221Y-65916322D01*
X88900000Y-65799516D01*
X88312778Y-65916322D01*
X87825364Y-66242001D01*
X87768327Y-66104301D01*
X87589698Y-65925673D01*
X87356309Y-65829000D01*
X86645750Y-65829000D01*
X86487000Y-65987750D01*
X86233000Y-65987750D01*
X86074250Y-65829000D01*
X85363691Y-65829000D01*
X85130302Y-65925673D01*
X84951673Y-66104301D01*
X84855000Y-66337690D01*
X84505000Y-66337690D01*
X84505000Y-61451866D01*
X97441000Y-61451866D01*
X97441000Y-62500134D01*
X97842155Y-63468608D01*
X98583392Y-64209845D01*
X99551866Y-64611000D01*
X100600134Y-64611000D01*
X101568608Y-64209845D01*
X101777762Y-64000691D01*
X104400000Y-64000691D01*
X104400000Y-66141250D01*
X104558750Y-66300000D01*
X105458000Y-66300000D01*
X105458000Y-63650750D01*
X105712000Y-63650750D01*
X105712000Y-66300000D01*
X105732000Y-66300000D01*
X105732000Y-66554000D01*
X105712000Y-66554000D01*
X105712000Y-69203250D01*
X105870750Y-69362000D01*
X106261310Y-69362000D01*
X106434816Y-69290131D01*
X106487235Y-69325157D01*
X106735000Y-69374440D01*
X107835000Y-69374440D01*
X108082765Y-69325157D01*
X108135184Y-69290131D01*
X108308690Y-69362000D01*
X108699250Y-69362000D01*
X108858000Y-69203250D01*
X108858000Y-66554000D01*
X108838000Y-66554000D01*
X108838000Y-66300000D01*
X108858000Y-66300000D01*
X108858000Y-63650750D01*
X108699250Y-63492000D01*
X108308690Y-63492000D01*
X108135184Y-63563869D01*
X108082765Y-63528843D01*
X108045000Y-63521331D01*
X108045000Y-63323440D01*
X108520001Y-63323440D01*
X108863436Y-63255127D01*
X109154586Y-63060586D01*
X109220000Y-62962687D01*
X109285414Y-63060586D01*
X109576564Y-63255127D01*
X109919999Y-63323440D01*
X109925001Y-63323440D01*
X109925001Y-63521331D01*
X109887235Y-63528843D01*
X109834816Y-63563869D01*
X109661310Y-63492000D01*
X109270750Y-63492000D01*
X109112000Y-63650750D01*
X109112000Y-66300000D01*
X109132000Y-66300000D01*
X109132000Y-66554000D01*
X109112000Y-66554000D01*
X109112000Y-69203250D01*
X109270750Y-69362000D01*
X109661310Y-69362000D01*
X109834816Y-69290131D01*
X109887235Y-69325157D01*
X110135000Y-69374440D01*
X111235000Y-69374440D01*
X111482765Y-69325157D01*
X111535000Y-69290254D01*
X111587235Y-69325157D01*
X111835000Y-69374440D01*
X112935000Y-69374440D01*
X113182765Y-69325157D01*
X113392809Y-69184809D01*
X113533157Y-68974765D01*
X113582440Y-68727000D01*
X113582440Y-66800000D01*
X114612289Y-66800000D01*
X114729720Y-66917431D01*
X115110126Y-67075000D01*
X115521874Y-67075000D01*
X115902280Y-66917431D01*
X115991961Y-66827750D01*
X117335000Y-66827750D01*
X117335000Y-68968309D01*
X117431673Y-69201698D01*
X117610301Y-69380327D01*
X117843690Y-69477000D01*
X118234250Y-69477000D01*
X118393000Y-69318250D01*
X118393000Y-66669000D01*
X117493750Y-66669000D01*
X117335000Y-66827750D01*
X115991961Y-66827750D01*
X116193431Y-66626280D01*
X116351000Y-66245874D01*
X116351000Y-65834126D01*
X116193431Y-65453720D01*
X116076000Y-65336289D01*
X116076000Y-64152778D01*
X116109436Y-64146127D01*
X116154986Y-64115691D01*
X117335000Y-64115691D01*
X117335000Y-66256250D01*
X117493750Y-66415000D01*
X118393000Y-66415000D01*
X118393000Y-63765750D01*
X118234250Y-63607000D01*
X117843690Y-63607000D01*
X117610301Y-63703673D01*
X117431673Y-63882302D01*
X117335000Y-64115691D01*
X116154986Y-64115691D01*
X116400586Y-63951586D01*
X116595127Y-63660436D01*
X116663440Y-63317001D01*
X116663440Y-62666999D01*
X116595127Y-62323564D01*
X116400586Y-62032414D01*
X116399403Y-62031623D01*
X116554327Y-61876698D01*
X116651000Y-61643309D01*
X116651000Y-61227750D01*
X116492250Y-61069000D01*
X115443000Y-61069000D01*
X115443000Y-61089000D01*
X115189000Y-61089000D01*
X115189000Y-61069000D01*
X115169000Y-61069000D01*
X115169000Y-60815000D01*
X115189000Y-60815000D01*
X115189000Y-59890750D01*
X115443000Y-59890750D01*
X115443000Y-60815000D01*
X116492250Y-60815000D01*
X116651000Y-60656250D01*
X116651000Y-60240691D01*
X116554327Y-60007302D01*
X116375699Y-59828673D01*
X116142310Y-59732000D01*
X115601750Y-59732000D01*
X115443000Y-59890750D01*
X115189000Y-59890750D01*
X115030250Y-59732000D01*
X114489690Y-59732000D01*
X114256301Y-59828673D01*
X114111000Y-59973975D01*
X114111000Y-59732691D01*
X114014327Y-59499302D01*
X113835699Y-59320673D01*
X113602310Y-59224000D01*
X113061750Y-59224000D01*
X112903000Y-59382750D01*
X112903000Y-60307000D01*
X112923000Y-60307000D01*
X112923000Y-60561000D01*
X112903000Y-60561000D01*
X112903000Y-60581000D01*
X112649000Y-60581000D01*
X112649000Y-60561000D01*
X111599750Y-60561000D01*
X111441000Y-60719750D01*
X111441000Y-61135309D01*
X111537673Y-61368698D01*
X111692597Y-61523623D01*
X111691414Y-61524414D01*
X111558054Y-61724000D01*
X111467440Y-61724000D01*
X111467440Y-61525999D01*
X111399127Y-61182564D01*
X111204586Y-60891414D01*
X110997944Y-60753340D01*
X111188698Y-60674327D01*
X111367327Y-60495699D01*
X111464000Y-60262310D01*
X111464000Y-60171250D01*
X111599750Y-60307000D01*
X112649000Y-60307000D01*
X112649000Y-59382750D01*
X112490250Y-59224000D01*
X111949690Y-59224000D01*
X111716301Y-59320673D01*
X111537673Y-59499302D01*
X111450941Y-59708691D01*
X111305250Y-59563000D01*
X110381000Y-59563000D01*
X110381000Y-59583000D01*
X110127000Y-59583000D01*
X110127000Y-59563000D01*
X110107000Y-59563000D01*
X110107000Y-59309000D01*
X110127000Y-59309000D01*
X110127000Y-59289000D01*
X110381000Y-59289000D01*
X110381000Y-59309000D01*
X111305250Y-59309000D01*
X111464000Y-59150250D01*
X111464000Y-58609690D01*
X111367327Y-58376301D01*
X111188698Y-58197673D01*
X111107404Y-58164000D01*
X120206898Y-58164000D01*
X119926414Y-58351414D01*
X119731873Y-58642564D01*
X119663560Y-58985999D01*
X119663560Y-59886001D01*
X119731873Y-60229436D01*
X119926414Y-60520586D01*
X120126001Y-60653946D01*
X120126000Y-60758054D01*
X119926414Y-60891414D01*
X119731873Y-61182564D01*
X119663560Y-61525999D01*
X119663560Y-62106809D01*
X119504096Y-62345464D01*
X119460000Y-62567149D01*
X119460000Y-62567153D01*
X119445112Y-62642000D01*
X119460000Y-62716847D01*
X119460000Y-63636331D01*
X119422235Y-63643843D01*
X119369816Y-63678869D01*
X119196310Y-63607000D01*
X118805750Y-63607000D01*
X118647000Y-63765750D01*
X118647000Y-66415000D01*
X118667000Y-66415000D01*
X118667000Y-66669000D01*
X118647000Y-66669000D01*
X118647000Y-69318250D01*
X118805750Y-69477000D01*
X119196310Y-69477000D01*
X119369816Y-69405131D01*
X119422235Y-69440157D01*
X119670000Y-69489440D01*
X120342639Y-69489440D01*
X120885000Y-70031802D01*
X120885000Y-70309874D01*
X120904520Y-70357000D01*
X116393690Y-70357000D01*
X116160301Y-70453673D01*
X115981673Y-70632302D01*
X115885000Y-70865691D01*
X115885000Y-75406250D01*
X116043750Y-75565000D01*
X121793000Y-75565000D01*
X121793000Y-75545000D01*
X122047000Y-75545000D01*
X122047000Y-75565000D01*
X122067000Y-75565000D01*
X122067000Y-75819000D01*
X122047000Y-75819000D01*
X122047000Y-80868250D01*
X122205750Y-81027000D01*
X127446310Y-81027000D01*
X127679699Y-80930327D01*
X127858327Y-80751698D01*
X127955000Y-80518309D01*
X127955000Y-78608589D01*
X128318126Y-78759000D01*
X128729874Y-78759000D01*
X129093000Y-78608589D01*
X129093000Y-80518309D01*
X129189673Y-80751698D01*
X129368301Y-80930327D01*
X129601690Y-81027000D01*
X134842250Y-81027000D01*
X135001000Y-80868250D01*
X135001000Y-75819000D01*
X135255000Y-75819000D01*
X135255000Y-80868250D01*
X135413750Y-81027000D01*
X140654310Y-81027000D01*
X140887699Y-80930327D01*
X141066327Y-80751698D01*
X141163000Y-80518309D01*
X141163000Y-75977750D01*
X141004250Y-75819000D01*
X135255000Y-75819000D01*
X135001000Y-75819000D01*
X134981000Y-75819000D01*
X134981000Y-75565000D01*
X135001000Y-75565000D01*
X135001000Y-75545000D01*
X135255000Y-75545000D01*
X135255000Y-75565000D01*
X141004250Y-75565000D01*
X141163000Y-75406250D01*
X141163000Y-70865691D01*
X141162300Y-70864000D01*
X143293925Y-70864000D01*
X143275000Y-70909690D01*
X143275000Y-71850250D01*
X143433750Y-72009000D01*
X144653000Y-72009000D01*
X144653000Y-71989000D01*
X144907000Y-71989000D01*
X144907000Y-72009000D01*
X144927000Y-72009000D01*
X144927000Y-72263000D01*
X144907000Y-72263000D01*
X144907000Y-72283000D01*
X144653000Y-72283000D01*
X144653000Y-72263000D01*
X143433750Y-72263000D01*
X143275000Y-72421750D01*
X143275000Y-73362310D01*
X143371673Y-73595699D01*
X143550302Y-73774327D01*
X143783691Y-73871000D01*
X144494250Y-73871000D01*
X144652998Y-73712252D01*
X144652998Y-73871000D01*
X144740198Y-73871000D01*
X144295530Y-74315669D01*
X144232071Y-74358071D01*
X144064096Y-74609464D01*
X144020000Y-74831149D01*
X144020000Y-74831153D01*
X144005112Y-74906000D01*
X144020000Y-74980847D01*
X144020001Y-76633144D01*
X144020000Y-76633149D01*
X144020000Y-78036407D01*
X143816564Y-78076873D01*
X143525414Y-78271414D01*
X143330873Y-78562564D01*
X143262560Y-78905999D01*
X143262560Y-80606001D01*
X143330873Y-80949436D01*
X143525414Y-81240586D01*
X143816564Y-81435127D01*
X144159999Y-81503440D01*
X145400001Y-81503440D01*
X145743436Y-81435127D01*
X146034586Y-81240586D01*
X146191413Y-81005878D01*
X146234956Y-81071044D01*
X146732779Y-81403678D01*
X147320000Y-81520484D01*
X147907222Y-81403678D01*
X148405044Y-81071044D01*
X148737678Y-80573221D01*
X148825000Y-80134225D01*
X148825000Y-80041750D01*
X149879000Y-80041750D01*
X149879000Y-80982310D01*
X149975673Y-81215699D01*
X150154302Y-81394327D01*
X150387691Y-81491000D01*
X151098250Y-81491000D01*
X151257000Y-81332250D01*
X151257000Y-79883000D01*
X150037750Y-79883000D01*
X149879000Y-80041750D01*
X148825000Y-80041750D01*
X148825000Y-79377774D01*
X148737678Y-78938778D01*
X148464335Y-78529690D01*
X149879000Y-78529690D01*
X149879000Y-79470250D01*
X150037750Y-79629000D01*
X151257000Y-79629000D01*
X151257000Y-78179750D01*
X151511000Y-78179750D01*
X151511000Y-79629000D01*
X151531000Y-79629000D01*
X151531000Y-79883000D01*
X151511000Y-79883000D01*
X151511000Y-81332250D01*
X151669750Y-81491000D01*
X152380309Y-81491000D01*
X152613698Y-81394327D01*
X152792327Y-81215699D01*
X152849364Y-81077999D01*
X153336779Y-81403678D01*
X153924000Y-81520484D01*
X154511222Y-81403678D01*
X155009044Y-81071044D01*
X155341678Y-80573221D01*
X155429000Y-80134225D01*
X155429000Y-79377774D01*
X155341678Y-78938778D01*
X155009044Y-78440956D01*
X154511221Y-78108322D01*
X153924000Y-77991516D01*
X153336778Y-78108322D01*
X152849364Y-78434001D01*
X152792327Y-78296301D01*
X152613698Y-78117673D01*
X152380309Y-78021000D01*
X151669750Y-78021000D01*
X151511000Y-78179750D01*
X151257000Y-78179750D01*
X151098250Y-78021000D01*
X150387691Y-78021000D01*
X150154302Y-78117673D01*
X149975673Y-78296301D01*
X149879000Y-78529690D01*
X148464335Y-78529690D01*
X148405044Y-78440956D01*
X147907221Y-78108322D01*
X147320000Y-77991516D01*
X146732778Y-78108322D01*
X146234956Y-78440956D01*
X146191414Y-78506122D01*
X146034586Y-78271414D01*
X145743436Y-78076873D01*
X145540000Y-78036407D01*
X145540000Y-75220801D01*
X146936585Y-73824218D01*
X147320000Y-73900484D01*
X147907222Y-73783678D01*
X148405044Y-73451044D01*
X148737678Y-72953221D01*
X148825000Y-72514225D01*
X148825000Y-72421750D01*
X149879000Y-72421750D01*
X149879000Y-73362310D01*
X149975673Y-73595699D01*
X150154302Y-73774327D01*
X150387691Y-73871000D01*
X151098250Y-73871000D01*
X151257000Y-73712250D01*
X151257000Y-72263000D01*
X150037750Y-72263000D01*
X149879000Y-72421750D01*
X148825000Y-72421750D01*
X148825000Y-71757774D01*
X148737678Y-71318778D01*
X148464335Y-70909690D01*
X149879000Y-70909690D01*
X149879000Y-71850250D01*
X150037750Y-72009000D01*
X151257000Y-72009000D01*
X151257000Y-70559750D01*
X151098250Y-70401000D01*
X150387691Y-70401000D01*
X150154302Y-70497673D01*
X149975673Y-70676301D01*
X149879000Y-70909690D01*
X148464335Y-70909690D01*
X148405044Y-70820956D01*
X148055367Y-70587310D01*
X148035904Y-70489463D01*
X148035904Y-70489462D01*
X147910329Y-70301527D01*
X147867929Y-70238071D01*
X147804473Y-70195671D01*
X147228331Y-69619530D01*
X147185929Y-69556071D01*
X146934537Y-69388096D01*
X146712852Y-69344000D01*
X146712847Y-69344000D01*
X146638000Y-69329112D01*
X146563153Y-69344000D01*
X139469673Y-69344000D01*
X139535809Y-69299809D01*
X139676157Y-69089765D01*
X139725440Y-68842000D01*
X139725440Y-66800000D01*
X141028289Y-66800000D01*
X141145720Y-66917431D01*
X141526126Y-67075000D01*
X141937874Y-67075000D01*
X142318280Y-66917431D01*
X142609431Y-66626280D01*
X142767000Y-66245874D01*
X142767000Y-65834126D01*
X142609431Y-65453720D01*
X142492000Y-65336289D01*
X142492000Y-64100847D01*
X142506888Y-64026000D01*
X142492000Y-63951153D01*
X142492000Y-63951148D01*
X142447904Y-63729463D01*
X142279929Y-63478071D01*
X142216473Y-63435671D01*
X142063440Y-63282638D01*
X142063440Y-62684999D01*
X141995127Y-62341564D01*
X141800586Y-62050414D01*
X141799403Y-62049623D01*
X141954327Y-61894698D01*
X142051000Y-61661309D01*
X142051000Y-61245750D01*
X141892250Y-61087000D01*
X140843000Y-61087000D01*
X140843000Y-61107000D01*
X140589000Y-61107000D01*
X140589000Y-61087000D01*
X140569000Y-61087000D01*
X140569000Y-60833000D01*
X140589000Y-60833000D01*
X140589000Y-59908750D01*
X140843000Y-59908750D01*
X140843000Y-60833000D01*
X141892250Y-60833000D01*
X142051000Y-60674250D01*
X142051000Y-60258691D01*
X141954327Y-60025302D01*
X141775699Y-59846673D01*
X141542310Y-59750000D01*
X141001750Y-59750000D01*
X140843000Y-59908750D01*
X140589000Y-59908750D01*
X140430250Y-59750000D01*
X139889690Y-59750000D01*
X139656301Y-59846673D01*
X139511000Y-59991975D01*
X139511000Y-59732691D01*
X139414327Y-59499302D01*
X139235699Y-59320673D01*
X139002310Y-59224000D01*
X138461750Y-59224000D01*
X138303000Y-59382750D01*
X138303000Y-60307000D01*
X138323000Y-60307000D01*
X138323000Y-60561000D01*
X138303000Y-60561000D01*
X138303000Y-60581000D01*
X138049000Y-60581000D01*
X138049000Y-60561000D01*
X138029000Y-60561000D01*
X138029000Y-60307000D01*
X138049000Y-60307000D01*
X138049000Y-59382750D01*
X137890250Y-59224000D01*
X137349690Y-59224000D01*
X137231148Y-59273102D01*
X137354000Y-59150250D01*
X137354000Y-58609690D01*
X137257327Y-58376301D01*
X137078698Y-58197673D01*
X136997404Y-58164000D01*
X143957199Y-58164000D01*
X153164000Y-67370803D01*
X153164001Y-70603768D01*
X152849364Y-70814001D01*
X152792327Y-70676301D01*
X152613698Y-70497673D01*
X152380309Y-70401000D01*
X151669750Y-70401000D01*
X151511000Y-70559750D01*
X151511000Y-72009000D01*
X151531000Y-72009000D01*
X151531000Y-72263000D01*
X151511000Y-72263000D01*
X151511000Y-73712250D01*
X151669750Y-73871000D01*
X152380309Y-73871000D01*
X152613698Y-73774327D01*
X152792327Y-73595699D01*
X152849364Y-73457999D01*
X153336779Y-73783678D01*
X153924000Y-73900484D01*
X154511222Y-73783678D01*
X155009044Y-73451044D01*
X155341678Y-72953221D01*
X155429000Y-72514225D01*
X155429000Y-71757774D01*
X155341678Y-71318778D01*
X155009044Y-70820956D01*
X154684000Y-70603769D01*
X154684000Y-67130846D01*
X154698888Y-67055999D01*
X154684000Y-66981152D01*
X154684000Y-66981148D01*
X154639904Y-66759463D01*
X154598102Y-66696902D01*
X154514329Y-66571526D01*
X154514327Y-66571524D01*
X154471929Y-66508071D01*
X154408476Y-66465673D01*
X147362668Y-59419866D01*
X149257000Y-59419866D01*
X149257000Y-60468134D01*
X149658155Y-61436608D01*
X150399392Y-62177845D01*
X151367866Y-62579000D01*
X152416134Y-62579000D01*
X153384608Y-62177845D01*
X154125845Y-61436608D01*
X154527000Y-60468134D01*
X154527000Y-59419866D01*
X154125845Y-58451392D01*
X153384608Y-57710155D01*
X152416134Y-57309000D01*
X151367866Y-57309000D01*
X150399392Y-57710155D01*
X149658155Y-58451392D01*
X149257000Y-59419866D01*
X147362668Y-59419866D01*
X144862331Y-56919530D01*
X144819929Y-56856071D01*
X144568537Y-56688096D01*
X144346852Y-56644000D01*
X144346847Y-56644000D01*
X144272000Y-56629112D01*
X144197153Y-56644000D01*
X110310847Y-56644000D01*
X110236000Y-56629112D01*
X110161153Y-56644000D01*
X110161148Y-56644000D01*
X109939463Y-56688096D01*
X109688071Y-56856071D01*
X109645671Y-56919527D01*
X108476639Y-58088560D01*
X107878999Y-58088560D01*
X107535564Y-58156873D01*
X107244414Y-58351414D01*
X107049873Y-58642564D01*
X106981560Y-58985999D01*
X106981560Y-59886001D01*
X107049873Y-60229436D01*
X107244414Y-60520586D01*
X107435001Y-60647932D01*
X107435000Y-60758054D01*
X107235414Y-60891414D01*
X107040873Y-61182564D01*
X106972560Y-61525999D01*
X106972560Y-62123638D01*
X106800529Y-62295669D01*
X106737071Y-62338071D01*
X106569096Y-62589464D01*
X106525000Y-62811149D01*
X106525000Y-62811153D01*
X106510112Y-62886000D01*
X106525000Y-62960847D01*
X106525000Y-63521331D01*
X106487235Y-63528843D01*
X106434816Y-63563869D01*
X106261310Y-63492000D01*
X105870750Y-63492000D01*
X105712000Y-63650750D01*
X105458000Y-63650750D01*
X105299250Y-63492000D01*
X104908690Y-63492000D01*
X104675301Y-63588673D01*
X104496673Y-63767302D01*
X104400000Y-64000691D01*
X101777762Y-64000691D01*
X102309845Y-63468608D01*
X102711000Y-62500134D01*
X102711000Y-61451866D01*
X102309845Y-60483392D01*
X101568608Y-59742155D01*
X100600134Y-59341000D01*
X99551866Y-59341000D01*
X98583392Y-59742155D01*
X97842155Y-60483392D01*
X97441000Y-61451866D01*
X84505000Y-61451866D01*
X84505000Y-56565000D01*
X155779000Y-56565000D01*
X155779001Y-91263000D01*
G36*
X133134414Y-58351414D02*
X132939873Y-58642564D01*
X132871560Y-58985999D01*
X132871560Y-59886001D01*
X132939873Y-60229436D01*
X133134414Y-60520586D01*
X133343001Y-60659960D01*
X133343000Y-60758054D01*
X133143414Y-60891414D01*
X132948873Y-61182564D01*
X132880560Y-61525999D01*
X132880560Y-62102744D01*
X132880071Y-62103071D01*
X132712096Y-62354464D01*
X132668000Y-62576149D01*
X132668000Y-62576153D01*
X132653112Y-62651000D01*
X132668000Y-62725847D01*
X132668000Y-63636331D01*
X132630235Y-63643843D01*
X132577816Y-63678869D01*
X132404310Y-63607000D01*
X132013750Y-63607000D01*
X131855000Y-63765750D01*
X131855000Y-66415000D01*
X131875000Y-66415000D01*
X131875000Y-66669000D01*
X131855000Y-66669000D01*
X131855000Y-66689000D01*
X131601000Y-66689000D01*
X131601000Y-66669000D01*
X130701750Y-66669000D01*
X130543000Y-66827750D01*
X130543000Y-68968309D01*
X130639673Y-69201698D01*
X130781974Y-69344000D01*
X128598852Y-69344000D01*
X128524000Y-69329111D01*
X128449148Y-69344000D01*
X128227463Y-69388096D01*
X127976071Y-69556071D01*
X127808096Y-69807463D01*
X127749111Y-70104000D01*
X127764000Y-70178851D01*
X127764000Y-70537975D01*
X127679699Y-70453673D01*
X127446310Y-70357000D01*
X122935480Y-70357000D01*
X122955000Y-70309874D01*
X122955000Y-69898126D01*
X122797431Y-69517720D01*
X122709731Y-69430020D01*
X122769816Y-69405131D01*
X122822235Y-69440157D01*
X123070000Y-69489440D01*
X124170000Y-69489440D01*
X124417765Y-69440157D01*
X124470000Y-69405254D01*
X124522235Y-69440157D01*
X124770000Y-69489440D01*
X125870000Y-69489440D01*
X126117765Y-69440157D01*
X126327809Y-69299809D01*
X126468157Y-69089765D01*
X126517440Y-68842000D01*
X126517440Y-66800000D01*
X127820289Y-66800000D01*
X127937720Y-66917431D01*
X128318126Y-67075000D01*
X128729874Y-67075000D01*
X129110280Y-66917431D01*
X129401431Y-66626280D01*
X129559000Y-66245874D01*
X129559000Y-65834126D01*
X129401431Y-65453720D01*
X129284000Y-65336289D01*
X129284000Y-64170778D01*
X129317436Y-64164127D01*
X129389925Y-64115691D01*
X130543000Y-64115691D01*
X130543000Y-66256250D01*
X130701750Y-66415000D01*
X131601000Y-66415000D01*
X131601000Y-63765750D01*
X131442250Y-63607000D01*
X131051690Y-63607000D01*
X130818301Y-63703673D01*
X130639673Y-63882302D01*
X130543000Y-64115691D01*
X129389925Y-64115691D01*
X129608586Y-63969586D01*
X129803127Y-63678436D01*
X129871440Y-63335001D01*
X129871440Y-62684999D01*
X129803127Y-62341564D01*
X129608586Y-62050414D01*
X129607403Y-62049623D01*
X129762327Y-61894698D01*
X129859000Y-61661309D01*
X129859000Y-61245750D01*
X129700250Y-61087000D01*
X128651000Y-61087000D01*
X128651000Y-61107000D01*
X128397000Y-61107000D01*
X128397000Y-61087000D01*
X128377000Y-61087000D01*
X128377000Y-60833000D01*
X128397000Y-60833000D01*
X128397000Y-59908750D01*
X128651000Y-59908750D01*
X128651000Y-60833000D01*
X129700250Y-60833000D01*
X129859000Y-60674250D01*
X129859000Y-60258691D01*
X129762327Y-60025302D01*
X129583699Y-59846673D01*
X129350310Y-59750000D01*
X128809750Y-59750000D01*
X128651000Y-59908750D01*
X128397000Y-59908750D01*
X128238250Y-59750000D01*
X127697690Y-59750000D01*
X127464301Y-59846673D01*
X127319000Y-59991975D01*
X127319000Y-59750691D01*
X127222327Y-59517302D01*
X127043699Y-59338673D01*
X126810310Y-59242000D01*
X126269750Y-59242000D01*
X126111000Y-59400750D01*
X126111000Y-60325000D01*
X126131000Y-60325000D01*
X126131000Y-60579000D01*
X126111000Y-60579000D01*
X126111000Y-60599000D01*
X125857000Y-60599000D01*
X125857000Y-60579000D01*
X124807750Y-60579000D01*
X124649000Y-60737750D01*
X124649000Y-61153309D01*
X124674967Y-61216000D01*
X124096778Y-61216000D01*
X124090127Y-61182564D01*
X123895586Y-60891414D01*
X123685500Y-60751039D01*
X123870698Y-60674327D01*
X124049327Y-60495699D01*
X124146000Y-60262310D01*
X124146000Y-59750691D01*
X124649000Y-59750691D01*
X124649000Y-60166250D01*
X124807750Y-60325000D01*
X125857000Y-60325000D01*
X125857000Y-59400750D01*
X125698250Y-59242000D01*
X125157690Y-59242000D01*
X124924301Y-59338673D01*
X124745673Y-59517302D01*
X124649000Y-59750691D01*
X124146000Y-59750691D01*
X124146000Y-59721750D01*
X123987250Y-59563000D01*
X123063000Y-59563000D01*
X123063000Y-59583000D01*
X122809000Y-59583000D01*
X122809000Y-59563000D01*
X122789000Y-59563000D01*
X122789000Y-59309000D01*
X122809000Y-59309000D01*
X122809000Y-59289000D01*
X123063000Y-59289000D01*
X123063000Y-59309000D01*
X123987250Y-59309000D01*
X124146000Y-59150250D01*
X124146000Y-58609690D01*
X124049327Y-58376301D01*
X123870698Y-58197673D01*
X123789404Y-58164000D01*
X133414898Y-58164000D01*
X133134414Y-58351414D01*
X133134414Y-58351414D01*
G37*
X133134414Y-58351414D02*
X132939873Y-58642564D01*
X132871560Y-58985999D01*
X132871560Y-59886001D01*
X132939873Y-60229436D01*
X133134414Y-60520586D01*
X133343001Y-60659960D01*
X133343000Y-60758054D01*
X133143414Y-60891414D01*
X132948873Y-61182564D01*
X132880560Y-61525999D01*
X132880560Y-62102744D01*
X132880071Y-62103071D01*
X132712096Y-62354464D01*
X132668000Y-62576149D01*
X132668000Y-62576153D01*
X132653112Y-62651000D01*
X132668000Y-62725847D01*
X132668000Y-63636331D01*
X132630235Y-63643843D01*
X132577816Y-63678869D01*
X132404310Y-63607000D01*
X132013750Y-63607000D01*
X131855000Y-63765750D01*
X131855000Y-66415000D01*
X131875000Y-66415000D01*
X131875000Y-66669000D01*
X131855000Y-66669000D01*
X131855000Y-66689000D01*
X131601000Y-66689000D01*
X131601000Y-66669000D01*
X130701750Y-66669000D01*
X130543000Y-66827750D01*
X130543000Y-68968309D01*
X130639673Y-69201698D01*
X130781974Y-69344000D01*
X128598852Y-69344000D01*
X128524000Y-69329111D01*
X128449148Y-69344000D01*
X128227463Y-69388096D01*
X127976071Y-69556071D01*
X127808096Y-69807463D01*
X127749111Y-70104000D01*
X127764000Y-70178851D01*
X127764000Y-70537975D01*
X127679699Y-70453673D01*
X127446310Y-70357000D01*
X122935480Y-70357000D01*
X122955000Y-70309874D01*
X122955000Y-69898126D01*
X122797431Y-69517720D01*
X122709731Y-69430020D01*
X122769816Y-69405131D01*
X122822235Y-69440157D01*
X123070000Y-69489440D01*
X124170000Y-69489440D01*
X124417765Y-69440157D01*
X124470000Y-69405254D01*
X124522235Y-69440157D01*
X124770000Y-69489440D01*
X125870000Y-69489440D01*
X126117765Y-69440157D01*
X126327809Y-69299809D01*
X126468157Y-69089765D01*
X126517440Y-68842000D01*
X126517440Y-66800000D01*
X127820289Y-66800000D01*
X127937720Y-66917431D01*
X128318126Y-67075000D01*
X128729874Y-67075000D01*
X129110280Y-66917431D01*
X129401431Y-66626280D01*
X129559000Y-66245874D01*
X129559000Y-65834126D01*
X129401431Y-65453720D01*
X129284000Y-65336289D01*
X129284000Y-64170778D01*
X129317436Y-64164127D01*
X129389925Y-64115691D01*
X130543000Y-64115691D01*
X130543000Y-66256250D01*
X130701750Y-66415000D01*
X131601000Y-66415000D01*
X131601000Y-63765750D01*
X131442250Y-63607000D01*
X131051690Y-63607000D01*
X130818301Y-63703673D01*
X130639673Y-63882302D01*
X130543000Y-64115691D01*
X129389925Y-64115691D01*
X129608586Y-63969586D01*
X129803127Y-63678436D01*
X129871440Y-63335001D01*
X129871440Y-62684999D01*
X129803127Y-62341564D01*
X129608586Y-62050414D01*
X129607403Y-62049623D01*
X129762327Y-61894698D01*
X129859000Y-61661309D01*
X129859000Y-61245750D01*
X129700250Y-61087000D01*
X128651000Y-61087000D01*
X128651000Y-61107000D01*
X128397000Y-61107000D01*
X128397000Y-61087000D01*
X128377000Y-61087000D01*
X128377000Y-60833000D01*
X128397000Y-60833000D01*
X128397000Y-59908750D01*
X128651000Y-59908750D01*
X128651000Y-60833000D01*
X129700250Y-60833000D01*
X129859000Y-60674250D01*
X129859000Y-60258691D01*
X129762327Y-60025302D01*
X129583699Y-59846673D01*
X129350310Y-59750000D01*
X128809750Y-59750000D01*
X128651000Y-59908750D01*
X128397000Y-59908750D01*
X128238250Y-59750000D01*
X127697690Y-59750000D01*
X127464301Y-59846673D01*
X127319000Y-59991975D01*
X127319000Y-59750691D01*
X127222327Y-59517302D01*
X127043699Y-59338673D01*
X126810310Y-59242000D01*
X126269750Y-59242000D01*
X126111000Y-59400750D01*
X126111000Y-60325000D01*
X126131000Y-60325000D01*
X126131000Y-60579000D01*
X126111000Y-60579000D01*
X126111000Y-60599000D01*
X125857000Y-60599000D01*
X125857000Y-60579000D01*
X124807750Y-60579000D01*
X124649000Y-60737750D01*
X124649000Y-61153309D01*
X124674967Y-61216000D01*
X124096778Y-61216000D01*
X124090127Y-61182564D01*
X123895586Y-60891414D01*
X123685500Y-60751039D01*
X123870698Y-60674327D01*
X124049327Y-60495699D01*
X124146000Y-60262310D01*
X124146000Y-59750691D01*
X124649000Y-59750691D01*
X124649000Y-60166250D01*
X124807750Y-60325000D01*
X125857000Y-60325000D01*
X125857000Y-59400750D01*
X125698250Y-59242000D01*
X125157690Y-59242000D01*
X124924301Y-59338673D01*
X124745673Y-59517302D01*
X124649000Y-59750691D01*
X124146000Y-59750691D01*
X124146000Y-59721750D01*
X123987250Y-59563000D01*
X123063000Y-59563000D01*
X123063000Y-59583000D01*
X122809000Y-59583000D01*
X122809000Y-59563000D01*
X122789000Y-59563000D01*
X122789000Y-59309000D01*
X122809000Y-59309000D01*
X122809000Y-59289000D01*
X123063000Y-59289000D01*
X123063000Y-59309000D01*
X123987250Y-59309000D01*
X124146000Y-59150250D01*
X124146000Y-58609690D01*
X124049327Y-58376301D01*
X123870698Y-58197673D01*
X123789404Y-58164000D01*
X133414898Y-58164000D01*
X133134414Y-58351414D01*
G36*
X121976414Y-63060586D02*
X122267564Y-63255127D01*
X122610999Y-63323440D01*
X122860001Y-63323440D01*
X122860001Y-63636331D01*
X122822235Y-63643843D01*
X122769816Y-63678869D01*
X122596310Y-63607000D01*
X122205750Y-63607000D01*
X122047000Y-63765750D01*
X122047000Y-66415000D01*
X122067000Y-66415000D01*
X122067000Y-66669000D01*
X122047000Y-66669000D01*
X122047000Y-66689000D01*
X121793000Y-66689000D01*
X121793000Y-66669000D01*
X121773000Y-66669000D01*
X121773000Y-66415000D01*
X121793000Y-66415000D01*
X121793000Y-63765750D01*
X121634250Y-63607000D01*
X121243690Y-63607000D01*
X121070184Y-63678869D01*
X121017765Y-63643843D01*
X120980000Y-63636331D01*
X120980000Y-63323440D01*
X121211001Y-63323440D01*
X121554436Y-63255127D01*
X121845586Y-63060586D01*
X121911000Y-62962687D01*
X121976414Y-63060586D01*
X121976414Y-63060586D01*
G37*
X121976414Y-63060586D02*
X122267564Y-63255127D01*
X122610999Y-63323440D01*
X122860001Y-63323440D01*
X122860001Y-63636331D01*
X122822235Y-63643843D01*
X122769816Y-63678869D01*
X122596310Y-63607000D01*
X122205750Y-63607000D01*
X122047000Y-63765750D01*
X122047000Y-66415000D01*
X122067000Y-66415000D01*
X122067000Y-66669000D01*
X122047000Y-66669000D01*
X122047000Y-66689000D01*
X121793000Y-66689000D01*
X121793000Y-66669000D01*
X121773000Y-66669000D01*
X121773000Y-66415000D01*
X121793000Y-66415000D01*
X121793000Y-63765750D01*
X121634250Y-63607000D01*
X121243690Y-63607000D01*
X121070184Y-63678869D01*
X121017765Y-63643843D01*
X120980000Y-63636331D01*
X120980000Y-63323440D01*
X121211001Y-63323440D01*
X121554436Y-63255127D01*
X121845586Y-63060586D01*
X121911000Y-62962687D01*
X121976414Y-63060586D01*
G36*
X135193414Y-63060586D02*
X135484564Y-63255127D01*
X135827999Y-63323440D01*
X136068001Y-63323440D01*
X136068001Y-63636331D01*
X136030235Y-63643843D01*
X135977816Y-63678869D01*
X135804310Y-63607000D01*
X135413750Y-63607000D01*
X135255000Y-63765750D01*
X135255000Y-66415000D01*
X135275000Y-66415000D01*
X135275000Y-66669000D01*
X135255000Y-66669000D01*
X135255000Y-66689000D01*
X135001000Y-66689000D01*
X135001000Y-66669000D01*
X134981000Y-66669000D01*
X134981000Y-66415000D01*
X135001000Y-66415000D01*
X135001000Y-63765750D01*
X134842250Y-63607000D01*
X134451690Y-63607000D01*
X134278184Y-63678869D01*
X134225765Y-63643843D01*
X134188000Y-63636331D01*
X134188000Y-63323440D01*
X134428001Y-63323440D01*
X134771436Y-63255127D01*
X135062586Y-63060586D01*
X135128000Y-62962687D01*
X135193414Y-63060586D01*
X135193414Y-63060586D01*
G37*
X135193414Y-63060586D02*
X135484564Y-63255127D01*
X135827999Y-63323440D01*
X136068001Y-63323440D01*
X136068001Y-63636331D01*
X136030235Y-63643843D01*
X135977816Y-63678869D01*
X135804310Y-63607000D01*
X135413750Y-63607000D01*
X135255000Y-63765750D01*
X135255000Y-66415000D01*
X135275000Y-66415000D01*
X135275000Y-66669000D01*
X135255000Y-66669000D01*
X135255000Y-66689000D01*
X135001000Y-66689000D01*
X135001000Y-66669000D01*
X134981000Y-66669000D01*
X134981000Y-66415000D01*
X135001000Y-66415000D01*
X135001000Y-63765750D01*
X134842250Y-63607000D01*
X134451690Y-63607000D01*
X134278184Y-63678869D01*
X134225765Y-63643843D01*
X134188000Y-63636331D01*
X134188000Y-63323440D01*
X134428001Y-63323440D01*
X134771436Y-63255127D01*
X135062586Y-63060586D01*
X135128000Y-62962687D01*
X135193414Y-63060586D01*
G36*
X136271000Y-59309000D02*
X136291000Y-59309000D01*
X136291000Y-59563000D01*
X136271000Y-59563000D01*
X136271000Y-59583000D01*
X136017000Y-59583000D01*
X136017000Y-59563000D01*
X135997000Y-59563000D01*
X135997000Y-59309000D01*
X136017000Y-59309000D01*
X136017000Y-59289000D01*
X136271000Y-59289000D01*
X136271000Y-59309000D01*
X136271000Y-59309000D01*
G37*
X136271000Y-59309000D02*
X136291000Y-59309000D01*
X136291000Y-59563000D01*
X136271000Y-59563000D01*
X136271000Y-59583000D01*
X136017000Y-59583000D01*
X136017000Y-59563000D01*
X135997000Y-59563000D01*
X135997000Y-59309000D01*
X136017000Y-59309000D01*
X136017000Y-59289000D01*
X136271000Y-59289000D01*
X136271000Y-59309000D01*
G04 #@! TD*
M02*
